<svg width="46" height="48" viewBox="0 0 46 48" fill="none" xmlns="http://www.w3.org/2000/svg">
<path d="M3 21H17C17.5304 21 18.0391 20.7893 18.4142 20.4142C18.7893 20.0391 19 19.5304 19 19V6L14 1H5C4.46957 1 3.96086 1.21071 3.58579 1.58579C3.21071 1.96086 3 2.46957 3 3V7" stroke="#3B5998" stroke-linecap="round" stroke-linejoin="round"/>
<path d="M13 1V5C13 5.53043 13.2107 6.03914 13.5858 6.41421C13.9609 6.78929 14.4696 7 15 7H19M3 11C2.73478 11 2.48043 11.1054 2.29289 11.2929C2.10536 11.4804 2 11.7348 2 12V13C2 13.2652 1.89464 13.5196 1.70711 13.7071C1.51957 13.8946 1.26522 14 1 14C1.26522 14 1.51957 14.1054 1.70711 14.2929C1.89464 14.4804 2 14.7348 2 15V16C2 16.2652 2.10536 16.5196 2.29289 16.7071C2.48043 16.8946 2.73478 17 3 17M5 17C5.26522 17 5.51957 16.8946 5.70711 16.7071C5.89464 16.5196 6 16.2652 6 16V15C6 14.7348 6.10536 14.4804 6.29289 14.2929C6.48043 14.1054 6.73478 14 7 14C6.73478 14 6.48043 13.8946 6.29289 13.7071C6.10536 13.5196 6 13.2652 6 13V12C6 11.7348 5.89464 11.4804 5.70711 11.2929C5.51957 11.1054 5.26522 11 5 11" stroke="#3B5998" stroke-linecap="round" stroke-linejoin="round"/>
<path d="M9.5 25C9.5 24.7239 9.27614 24.5 9 24.5C8.72386 24.5 8.5 24.7239 8.5 25L9.5 25ZM22.3536 36.3536C22.5488 36.1583 22.5488 35.8417 22.3536 35.6464L19.1716 32.4645C18.9763 32.2692 18.6597 32.2692 18.4645 32.4645C18.2692 32.6597 18.2692 32.9763 18.4645 33.1716L21.2929 36L18.4645 38.8284C18.2692 39.0237 18.2692 39.3403 18.4645 39.5355C18.6597 39.7308 18.9763 39.7308 19.1716 39.5355L22.3536 36.3536ZM8.5 25C8.5 27.7635 8.68556 29.881 9.13967 31.4948C9.59782 33.123 10.3377 34.2668 11.4557 35.0368C12.5568 35.7952 13.9683 36.1506 15.6873 36.3256C17.407 36.5006 19.502 36.5 22 36.5V35.5C19.4837 35.5 17.4465 35.4994 15.7886 35.3307C14.1299 35.1619 12.9181 34.8298 12.0229 34.2132C11.1444 33.6082 10.5147 32.6895 10.1023 31.2239C9.68587 29.744 9.5 27.7365 9.5 25L8.5 25Z" fill="#8B9DC3"/>
<path fill-rule="evenodd" clip-rule="evenodd" d="M45.5 33.625V45.5C45.5 46.163 45.2366 46.7989 44.7678 47.2678C44.2989 47.7366 43.663 48 43 48V46.75C43.3315 46.75 43.6495 46.6183 43.8839 46.3839C44.1183 46.1495 44.25 45.8315 44.25 45.5V33.625H41.75C41.2527 33.625 40.7758 33.4275 40.4242 33.0758C40.0725 32.7242 39.875 32.2473 39.875 31.75V29.25H33C32.6685 29.25 32.3505 29.3817 32.1161 29.6161C31.8817 29.8505 31.75 30.1685 31.75 30.5V41.75H30.5V30.5C30.5 29.837 30.7634 29.2011 31.2322 28.7322C31.7011 28.2634 32.337 28 33 28H39.875L45.5 33.625ZM32.4088 42.8125H31.2925L30.2638 44.6112H30.2188L29.1788 42.8125H28.015L29.5487 45.2913L28 47.8125H29.0762L30.1425 46.0438H30.1862L31.2487 47.8125H32.3837L30.8163 45.3225L32.4088 42.8125ZM33.6012 47.8113V44.4862H33.6488L34.8388 47.185H35.4837L36.6663 44.485H36.7137V47.8113H37.6075V42.8125H36.6075L35.1825 46.0575H35.1513L33.725 42.8125H32.7175V47.8113H33.6012ZM39.4888 46.9688H41.6088V47.8113H38.5V42.8125H39.4888V46.9688Z" fill="#3B5998"/>
</svg>
