<svg width="46" height="30" viewBox="0 0 46 30" fill="none" xmlns="http://www.w3.org/2000/svg">
<path d="M4.16458 12.938L5.15423 14.0652L5.15966 14.0605L5.16505 14.0556L4.16458 12.938ZM5.99305 2.77836L6.88431 3.98493L6.89448 3.97728L5.99305 2.77836ZM8.92397 5.3729L7.50173 4.89621L7.49721 4.90968L7.49295 4.92324L8.92397 5.3729ZM5.48215 14.9863L5.13581 13.5269L3.98215 13.8006V14.9863H5.48215ZM5.48215 15.0137H3.98215V16.1994L5.13581 16.4731L5.48215 15.0137ZM8.92397 24.6271L7.49295 25.0768L7.49721 25.0903L7.50173 25.1038L8.92397 24.6271ZM5.99305 27.2216L6.89451 26.0227L6.88428 26.0151L5.99305 27.2216ZM4.16458 17.0756L3.16411 18.1932L3.1695 18.1981L3.17493 18.2028L4.16458 17.0756ZM37.3125 24.6271L35.8902 24.1504L35.8857 24.1639L35.8815 24.1774L37.3125 24.6271ZM40.7677 15.0137L41.1141 16.4731L42.2677 16.1994V15.0137H40.7677ZM40.7677 14.9863H42.2677V13.8006L41.1141 13.5269L40.7677 14.9863ZM37.3125 5.3729L35.8815 5.82255L35.8857 5.83611L35.8902 5.84959L37.3125 5.3729ZM40.2568 2.77836L39.3554 3.97733L39.3656 3.98489L40.2568 2.77836ZM42.0853 12.938L41.0848 14.0556L41.0902 14.0605L41.0957 14.0652L42.0853 12.938ZM42.0853 17.0756L43.075 18.2028L43.0804 18.1981L43.0858 18.1932L42.0853 17.0756ZM40.2568 27.2216L39.3656 26.0151L39.3554 26.0227L40.2568 27.2216ZM13.0645 14.7124C12.4809 14.1245 11.5311 14.1211 10.9432 14.7047C10.3553 15.2884 10.3518 16.2381 10.9355 16.826L13.0645 14.7124ZM15.1355 21.0568C15.7191 21.6447 16.6689 21.6482 17.2568 21.0645C17.8447 20.4809 17.8482 19.5311 17.2645 18.9432L15.1355 21.0568ZM21.0155 12.174C20.4318 12.7619 20.4353 13.7116 21.0232 14.2953C21.6111 14.8789 22.5609 14.8755 23.1445 14.2876L21.0155 12.174ZM27.3445 10.0568C27.9282 9.46886 27.9247 8.51912 27.3368 7.93548C26.7489 7.35183 25.7991 7.3553 25.2155 7.94322L27.3445 10.0568ZM19.7845 14.7124C19.2009 14.1245 18.2511 14.1211 17.6632 14.7047C17.0753 15.2884 17.0718 16.2381 17.6555 16.826L19.7845 14.7124ZM22.92 20L21.8555 21.0568C22.1444 21.3478 22.5399 21.5079 22.95 21.4997C23.36 21.4915 23.7488 21.3158 24.0259 21.0134L22.92 20ZM34.1059 10.0134C34.6656 9.40263 34.6242 8.45379 34.0134 7.8941C33.4026 7.33441 32.4538 7.37582 31.8941 7.9866L34.1059 10.0134ZM2.65879 14.8655C2.69899 14.8655 2.80257 14.8715 2.93681 14.9262C3.08023 14.9846 3.21815 15.0828 3.32591 15.2146C3.52704 15.4606 3.5 15.6623 3.5 15.5599H0.5C0.5 15.9945 0.582754 16.5991 1.00348 17.1136C1.47145 17.686 2.11933 17.8655 2.65879 17.8655V14.8655ZM3.5 15.5599V14.4401H0.5V15.5599H3.5ZM3.5 14.4401C3.5 14.3377 3.52704 14.5394 3.32592 14.7854C3.21815 14.9172 3.08024 15.0154 2.93681 15.0738C2.80257 15.1285 2.699 15.1345 2.65879 15.1345V12.1345C2.11933 12.1345 1.47145 12.314 1.00348 12.8864C0.582754 13.4009 0.5 14.0055 0.5 14.4401H3.5ZM2.65879 15.1345C3.6387 15.1345 4.48011 14.6571 5.15423 14.0652L3.17493 11.8108C2.79141 12.1475 2.62895 12.1345 2.65879 12.1345V15.1345ZM5.16505 14.0556C5.74794 13.5338 6.04901 12.8144 6.21603 12.1358C6.38783 11.4379 6.45781 10.6186 6.45781 9.71534H3.45781C3.45781 10.4871 3.39559 11.0425 3.30298 11.4188C3.20558 11.8145 3.11004 11.8688 3.16411 11.8204L5.16505 14.0556ZM6.45781 9.71534V5.82353H3.45781V9.71534H6.45781ZM6.45781 5.82353C6.45781 4.42434 6.79295 4.05235 6.88428 3.98489L5.10181 1.57184C3.81283 2.52398 3.45781 4.18211 3.45781 5.82353H6.45781ZM6.89448 3.97728C6.95784 3.92965 7.22374 3.78723 7.88164 3.67216C8.50659 3.56285 9.35242 3.5 10.4432 3.5V0.5C9.25738 0.5 8.2232 0.566876 7.36477 0.717021C6.53928 0.861403 5.71841 1.10817 5.09161 1.57944L6.89448 3.97728ZM10.4432 3.5C10.5363 3.5 10.3265 3.52497 10.0791 3.31563C9.78391 3.06575 9.74988 2.758 9.74988 2.68277H12.7499C12.7499 2.15236 12.5814 1.50323 12.0173 1.02575C11.5011 0.588829 10.8879 0.5 10.4432 0.5V3.5ZM9.74988 2.68277V4.04832H12.7499V2.68277H9.74988ZM9.74988 4.04832C9.74988 3.97309 9.78391 3.66534 10.0791 3.41546C10.3265 3.20613 10.5363 3.23109 10.4432 3.23109V6.23109C10.8879 6.23109 11.5011 6.14226 12.0173 5.70534C12.5814 5.22786 12.7499 4.57873 12.7499 4.04832H9.74988ZM10.4432 3.23109C9.91146 3.23109 9.34156 3.29266 8.82761 3.50978C8.27205 3.74448 7.73958 4.18656 7.50173 4.89621L10.3462 5.84959C10.3064 5.96837 10.2377 6.07635 10.1536 6.15933C10.0749 6.23708 10.0089 6.26745 9.99506 6.2733C9.98315 6.27834 10.0086 6.26601 10.0897 6.25339C10.1694 6.241 10.2849 6.23109 10.4432 6.23109V3.23109ZM7.49295 4.92324C7.3021 5.53063 7.2223 6.18924 7.2223 6.875H10.2223C10.2223 6.4137 10.2769 6.07091 10.355 5.82255L7.49295 4.92324ZM7.2223 6.875V10.3571H10.2223V6.875H7.2223ZM7.2223 10.3571C7.2223 11.7042 6.94165 12.3499 6.69518 12.6301L8.94784 14.6114C9.90242 13.5261 10.2223 11.9961 10.2223 10.3571H7.2223ZM6.69518 12.6301C6.31726 13.0598 5.81932 13.3647 5.13581 13.5269L5.8285 16.4458C7.06308 16.1528 8.12471 15.5473 8.94784 14.6114L6.69518 12.6301ZM3.98215 14.9863V15.0137H6.98215V14.9863H3.98215ZM5.13581 16.4731C5.81932 16.6353 6.31726 16.9402 6.69518 17.3699L8.94784 15.3886C8.12471 14.4527 7.06308 13.8472 5.8285 13.5542L5.13581 16.4731ZM6.69518 17.3699C6.94165 17.6501 7.2223 18.2958 7.2223 19.6429H10.2223C10.2223 18.0039 9.90242 16.4739 8.94784 15.3886L6.69518 17.3699ZM7.2223 19.6429V23.125H10.2223V19.6429H7.2223ZM7.2223 23.125C7.2223 23.8108 7.3021 24.4694 7.49295 25.0768L10.355 24.1774C10.2769 23.9291 10.2223 23.5863 10.2223 23.125H7.2223ZM7.50173 25.1038C7.73958 25.8134 8.27206 26.2555 8.82761 26.4902C9.34157 26.7073 9.91146 26.7689 10.4432 26.7689V23.7689C10.2849 23.7689 10.1694 23.759 10.0897 23.7466C10.0086 23.734 9.98315 23.7217 9.99506 23.7267C10.0089 23.7325 10.0749 23.7629 10.1536 23.8407C10.2377 23.9236 10.3064 24.0316 10.3462 24.1504L7.50173 25.1038ZM10.4432 26.7689C10.5363 26.7689 10.3265 26.7939 10.0791 26.5845C9.78391 26.3347 9.74988 26.0269 9.74988 25.9517H12.7499C12.7499 25.4213 12.5814 24.7721 12.0173 24.2947C11.5011 23.8577 10.8879 23.7689 10.4432 23.7689V26.7689ZM9.74988 25.9517V27.3172H12.7499V25.9517H9.74988ZM9.74988 27.3172C9.74988 27.242 9.78391 26.9342 10.0791 26.6844C10.3265 26.475 10.5363 26.5 10.4432 26.5V29.5C10.8879 29.5 11.5011 29.4112 12.0173 28.9742C12.5814 28.4968 12.7499 27.8476 12.7499 27.3172H9.74988ZM10.4432 26.5C9.35242 26.5 8.50659 26.4371 7.88164 26.3278C7.22373 26.2128 6.95784 26.0704 6.89448 26.0227L5.09161 28.4206C5.71841 28.8918 6.53928 29.1386 7.36477 29.283C8.2232 29.4331 9.25738 29.5 10.4432 29.5V26.5ZM6.88428 26.0151C6.79295 25.9477 6.45781 25.5757 6.45781 24.1765H3.45781C3.45781 25.8179 3.81283 27.476 5.10181 28.4282L6.88428 26.0151ZM6.45781 24.1765V20.2847H3.45781V24.1765H6.45781ZM6.45781 20.2847C6.45781 19.3817 6.38789 18.5628 6.21568 17.8662C6.04849 17.1898 5.74558 16.4676 5.15423 15.9484L3.17493 18.2028C3.1124 18.1479 3.2061 18.1927 3.30333 18.5861C3.39553 18.959 3.45781 19.5126 3.45781 20.2847H6.45781ZM5.16505 15.958C4.49351 15.3569 3.64867 14.8655 2.65879 14.8655V17.8655C2.61898 17.8655 2.77801 17.8476 3.16411 18.1932L5.16505 15.958ZM35.8067 26.5C35.7136 26.5 35.9234 26.475 36.1707 26.6844C36.466 26.9343 36.5 27.242 36.5 27.3172H33.5C33.5 27.8476 33.6685 28.4968 34.2326 28.9742C34.7488 29.4112 35.362 29.5 35.8067 29.5V26.5ZM36.5 27.3172V25.9517H33.5V27.3172H36.5ZM36.5 25.9517C36.5 26.0269 36.466 26.3347 36.1707 26.5845C35.9234 26.7939 35.7136 26.7689 35.8067 26.7689V23.7689C35.362 23.7689 34.7488 23.8577 34.2326 24.2947C33.6685 24.7721 33.5 25.4213 33.5 25.9517H36.5ZM35.8067 26.7689C36.3373 26.7689 36.9088 26.7077 37.4233 26.4883C37.9822 26.2501 38.5166 25.7989 38.7435 25.0768L35.8815 24.1774C35.9202 24.0541 35.9898 23.9402 36.0776 23.8517C36.1598 23.7689 36.2302 23.7358 36.247 23.7286C36.2619 23.7223 36.2388 23.7342 36.1586 23.7467C36.08 23.759 35.965 23.7689 35.8067 23.7689V26.7689ZM38.7347 25.1038C38.9414 24.4871 39.0276 23.8188 39.0276 23.125H36.0276C36.0276 23.5783 35.9704 23.9113 35.8902 24.1504L38.7347 25.1038ZM39.0276 23.125V19.6429H36.0276V23.125H39.0276ZM39.0276 19.6429C39.0276 18.2958 39.3082 17.6501 39.5547 17.3699L37.302 15.3886C36.3475 16.4739 36.0276 18.0039 36.0276 19.6429H39.0276ZM39.5547 17.3699C39.9326 16.9402 40.4306 16.6353 41.1141 16.4731L40.4214 13.5542C39.1868 13.8472 38.1252 14.4527 37.302 15.3886L39.5547 17.3699ZM42.2677 15.0137V14.9863H39.2677V15.0137H42.2677ZM41.1141 13.5269C40.4306 13.3647 39.9326 13.0598 39.5547 12.6301L37.302 14.6114C38.1252 15.5473 39.1868 16.1528 40.4214 16.4458L41.1141 13.5269ZM39.5547 12.6301C39.3082 12.3499 39.0276 11.7042 39.0276 10.3571H36.0276C36.0276 11.9961 36.3475 13.5261 37.302 14.6114L39.5547 12.6301ZM39.0276 10.3571V6.875H36.0276V10.3571H39.0276ZM39.0276 6.875C39.0276 6.1812 38.9414 5.51289 38.7347 4.89621L35.8902 5.84959C35.9704 6.08865 36.0276 6.42174 36.0276 6.875H39.0276ZM38.7435 4.92324C38.5166 4.20108 37.9822 3.74986 37.4233 3.51166C36.9088 3.29234 36.3373 3.23109 35.8067 3.23109V6.23109C35.965 6.23109 36.08 6.24101 36.1586 6.25328C36.2388 6.26579 36.2619 6.27775 36.247 6.27143C36.2302 6.26425 36.1598 6.23114 36.0776 6.14825C35.9898 6.05977 35.9202 5.94586 35.8815 5.82255L38.7435 4.92324ZM35.8067 3.23109C35.7136 3.23109 35.9234 3.20613 36.1707 3.41546C36.466 3.66534 36.5 3.97309 36.5 4.04832H33.5C33.5 4.57873 33.6685 5.22786 34.2326 5.70534C34.7488 6.14226 35.362 6.23109 35.8067 6.23109V3.23109ZM36.5 4.04832V2.68277H33.5V4.04832H36.5ZM36.5 2.68277C36.5 2.758 36.466 3.06575 36.1707 3.31563C35.9234 3.52497 35.7136 3.5 35.8067 3.5V0.5C35.362 0.5 34.7488 0.588829 34.2326 1.02576C33.6685 1.50323 33.5 2.15237 33.5 2.68277H36.5ZM35.8067 3.5C36.8975 3.5 37.7433 3.56285 38.3682 3.67216C39.0261 3.78723 39.292 3.92965 39.3554 3.97728L41.1583 1.57944C40.5315 1.10817 39.7106 0.861403 38.8851 0.717021C38.0267 0.566876 36.9925 0.5 35.8067 0.5V3.5ZM39.3656 3.98489C39.4569 4.05235 39.7921 4.42434 39.7921 5.82353H42.7921C42.7921 4.1821 42.437 2.52398 41.1481 1.57184L39.3656 3.98489ZM39.7921 5.82353V9.71534H42.7921V5.82353H39.7921ZM39.7921 9.71534C39.7921 10.6186 39.8621 11.4379 40.0339 12.1358C40.2009 12.8144 40.5019 13.5338 41.0848 14.0556L43.0858 11.8204C43.1398 11.8688 43.0443 11.8145 42.9469 11.4188C42.8543 11.0425 42.7921 10.4871 42.7921 9.71534H39.7921ZM41.0957 14.0652C41.7698 14.6571 42.6112 15.1345 43.5911 15.1345V12.1345C43.6209 12.1345 43.4585 12.1475 43.075 11.8108L41.0957 14.0652ZM43.5911 15.1345C43.5509 15.1345 43.4473 15.1285 43.3131 15.0738C43.1697 15.0154 43.0317 14.9172 42.924 14.7854C42.7228 14.5394 42.7499 14.3377 42.7499 14.4401H45.7499C45.7499 14.0055 45.6671 13.4009 45.2464 12.8864C44.7784 12.314 44.1306 12.1345 43.5911 12.1345V15.1345ZM42.7499 14.4401V15.5599H45.7499V14.4401H42.7499ZM42.7499 15.5599C42.7499 15.6623 42.7228 15.4606 42.924 15.2146C43.0317 15.0828 43.1697 14.9846 43.3131 14.9262C43.4473 14.8715 43.5509 14.8655 43.5911 14.8655V17.8655C44.1306 17.8655 44.7784 17.686 45.2464 17.1136C45.6671 16.5991 45.7499 15.9945 45.7499 15.5599H42.7499ZM43.5911 14.8655C42.6012 14.8655 41.7564 15.3569 41.0848 15.958L43.0858 18.1932C43.4719 17.8476 43.6309 17.8655 43.5911 17.8655V14.8655ZM41.0957 15.9484C40.5043 16.4676 40.2014 17.1898 40.0342 17.8662C39.862 18.5628 39.7921 19.3817 39.7921 20.2847H42.7921C42.7921 19.5126 42.8544 18.959 42.9466 18.5861C43.0438 18.1927 43.1375 18.1479 43.075 18.2028L41.0957 15.9484ZM39.7921 20.2847V24.1765H42.7921V20.2847H39.7921ZM39.7921 24.1765C39.7921 25.5757 39.4569 25.9476 39.3656 26.0151L41.1481 28.4282C42.437 27.476 42.7921 25.8179 42.7921 24.1765H39.7921ZM39.3554 26.0227C39.292 26.0704 39.0261 26.2128 38.3682 26.3278C37.7433 26.4371 36.8975 26.5 35.8067 26.5V29.5C36.9925 29.5 38.0267 29.4331 38.8851 29.283C39.7106 29.1386 40.5315 28.8918 41.1583 28.4206L39.3554 26.0227ZM10.9355 16.826L15.1355 21.0568L17.2645 18.9432L13.0645 14.7124L10.9355 16.826ZM23.1445 14.2876L27.3445 10.0568L25.2155 7.94322L21.0155 12.174L23.1445 14.2876ZM17.6555 16.826L21.8555 21.0568L23.9845 18.9432L19.7845 14.7124L17.6555 16.826ZM24.0259 21.0134L34.1059 10.0134L31.8941 7.9866L21.8141 18.9866L24.0259 21.0134Z" fill="#3B5998"/>
</svg>
