<svg width="32" height="35" viewBox="0 0 32 35" fill="none" xmlns="http://www.w3.org/2000/svg">
<path d="M4.30005 34H27.4001C28.2753 34 29.1146 33.6523 29.7335 33.0335C30.3524 32.4146 30.7001 31.5752 30.7001 30.7V9.25L22.45 1H7.60005C6.72483 1 5.88547 1.34768 5.2666 1.96655C4.64773 2.58542 4.30005 3.42479 4.30005 4.3V10.9" stroke="#3B5998" stroke-linecap="round" stroke-linejoin="round"/>
<path d="M20.8 1V7.6C20.8 8.47521 21.1477 9.31458 21.7665 9.93345C22.3854 10.5523 23.2248 10.9 24.1 10.9H30.7M4.3 17.5C3.86239 17.5 3.44271 17.6738 3.13327 17.9833C2.82384 18.2927 2.65 18.7124 2.65 19.15V20.8C2.65 21.2376 2.47616 21.6573 2.16673 21.9667C1.85729 22.2762 1.43761 22.45 1 22.45C1.43761 22.45 1.85729 22.6238 2.16673 22.9333C2.47616 23.2427 2.65 23.6624 2.65 24.1V25.75C2.65 26.1876 2.82384 26.6073 3.13327 26.9167C3.44271 27.2262 3.86239 27.4 4.3 27.4M7.6 27.4C8.03761 27.4 8.45729 27.2262 8.76673 26.9167C9.07616 26.6073 9.25 26.1876 9.25 25.75V24.1C9.25 23.6624 9.42384 23.2427 9.73327 22.9333C10.0427 22.6238 10.4624 22.45 10.9 22.45C10.4624 22.45 10.0427 22.2762 9.73327 21.9667C9.42384 21.6573 9.25 21.2376 9.25 20.8V19.15C9.25 18.7124 9.07616 18.2927 8.76673 17.9833C8.45729 17.6738 8.03761 17.5 7.6 17.5" stroke="#3B5998" stroke-linecap="round" stroke-linejoin="round"/>
<path d="M15.1989 28.5161L15.1922 16.1796L20.0288 16.1797L20.0355 28.5162L17.6172 30.9345L15.1989 28.5161Z" fill="#3B5998"/>
<path d="M20.0356 10.3955L20.0292 15.3418L15.1926 15.3417L15.199 10.3955C15.199 9.89245 15.6181 9.47329 16.1082 9.48619L19.1263 9.48625C19.6164 9.47336 20.0356 9.89254 20.0356 10.3955Z" fill="#3B5998"/>
</svg>
