<svg width="56" height="24" viewBox="0 0 56 24" fill="none" xmlns="http://www.w3.org/2000/svg">
<path d="M46.1818 21.3333V3L53 21.3333V3M3 3H9.81818V17.8958C9.81818 18.8075 9.45901 19.6819 8.81968 20.3265C8.18035 20.9712 7.31324 21.3333 6.40909 21.3333C5.50494 21.3333 4.63783 20.9712 3.9985 20.3265C3.35917 19.6819 3 18.8075 3 17.8958V16.75M16.6364 19.0417C16.6364 19.6495 16.8758 20.2323 17.302 20.6621C17.7282 21.0919 18.3063 21.3333 18.9091 21.3333H21.1818C21.7846 21.3333 22.3627 21.0919 22.7889 20.6621C23.2151 20.2323 23.4545 19.6495 23.4545 19.0417V14.4583C23.4545 13.8505 23.2151 13.2677 22.7889 12.8379C22.3627 12.4081 21.7846 12.1667 21.1818 12.1667H18.9091C18.3063 12.1667 17.7282 11.9252 17.302 11.4955C16.8758 11.0657 16.6364 10.4828 16.6364 9.875V5.29167C16.6364 4.68388 16.8758 4.10098 17.302 3.67121C17.7282 3.24144 18.3063 3 18.9091 3H21.1818C21.7846 3 22.3627 3.24144 22.7889 3.67121C23.2151 4.10098 23.4545 4.68388 23.4545 5.29167M34.8182 3C36.0237 3 37.1799 3.48289 38.0323 4.34243C38.8847 5.20197 39.3636 6.36776 39.3636 7.58333V16.75C39.3636 17.9656 38.8847 19.1314 38.0323 19.9909C37.1799 20.8504 36.0237 21.3333 34.8182 21.3333C33.6127 21.3333 32.4565 20.8504 31.6041 19.9909C30.7516 19.1314 30.2727 17.9656 30.2727 16.75V7.58333C30.2727 6.36776 30.7516 5.20197 31.6041 4.34243C32.4565 3.48289 33.6127 3 34.8182 3Z" stroke="#3B5998" stroke-width="5" stroke-linecap="round" stroke-linejoin="round"/>
</svg>
