<svg width="39" height="38" viewBox="0 0 39 38" fill="none" xmlns="http://www.w3.org/2000/svg">
<path d="M0.658785 26.3655C0.219595 26.3655 0 26.097 0 25.5599V24.4401C0 23.903 0.219595 23.6345 0.658785 23.6345C1.13383 23.6345 1.63576 23.4023 2.16458 22.938C2.6934 22.4646 2.95781 21.3904 2.95781 19.7153V15.8235C2.95781 14.3032 3.30289 13.2882 3.99305 12.7784C4.6832 12.2595 6.16659 12 8.44321 12C8.98099 12 9.24988 12.2276 9.24988 12.6828V14.0483C9.24988 14.5035 8.98099 14.7311 8.44321 14.7311C7.57379 14.7311 7.06738 14.945 6.92397 15.3729C6.78952 15.8008 6.7223 16.3015 6.7223 16.875V20.3571C6.7223 21.8501 6.42204 22.938 5.82151 23.6208C5.22099 24.3036 4.4412 24.7588 3.48215 24.9863V25.0137C4.4412 25.2412 5.22099 25.6964 5.82151 26.3792C6.42204 27.062 6.7223 28.1499 6.7223 29.6429V33.125C6.7223 33.6985 6.78952 34.1992 6.92397 34.6271C7.06738 35.055 7.57379 35.2689 8.44321 35.2689C8.98099 35.2689 9.24988 35.4965 9.24988 35.9517V37.3172C9.24988 37.7724 8.98099 38 8.44321 38C6.16659 38 4.6832 37.7405 3.99305 37.2216C3.30289 36.7118 2.95781 35.6968 2.95781 34.1765V30.2847C2.95781 28.6096 2.6934 27.5399 2.16458 27.0756C1.63576 26.6022 1.13383 26.3655 0.658785 26.3655Z" fill="#3B5998"/>
<path d="M13.4849 21.9685C12.8575 21.9685 12.5438 21.6271 12.5438 20.9443V19.1145C12.5438 18.4317 12.8575 18.0903 13.4849 18.0903H15.5285C16.1559 18.0903 16.4696 18.4317 16.4696 19.1145V20.9443C16.4696 21.6271 16.1559 21.9685 15.5285 21.9685H13.4849ZM13.458 32.4286C12.8306 32.4286 12.5169 32.0872 12.5169 31.4044V29.5746C12.5169 28.8918 12.8306 28.5504 13.458 28.5504H15.5554C16.1828 28.5504 16.4965 28.8918 16.4965 29.5746V31.4044C16.4965 32.5788 16.4203 33.562 16.268 34.354C16.1156 35.1551 15.7257 35.8015 15.0983 36.2931C14.6412 36.6481 14.2826 36.6845 14.0227 36.4023L13.5118 35.8424C13.1892 35.4965 13.2384 35.1551 13.6597 34.8183C13.9465 34.5907 14.1392 34.2948 14.2378 33.9307C14.3364 33.5665 14.3857 33.0658 14.3857 32.4286H13.458Z" fill="#3B5998"/>
<path d="M20.5568 38C20.019 38 19.7501 37.7724 19.7501 37.3172V35.9517C19.7501 35.4965 20.019 35.2689 20.5568 35.2689C21.4262 35.2689 21.9281 35.055 22.0626 34.6271C22.206 34.1992 22.2777 33.6985 22.2777 33.125V29.6429C22.2777 28.1499 22.578 27.062 23.1785 26.3792C23.779 25.6964 24.5588 25.2412 25.5178 25.0137V24.9863C24.5588 24.7588 23.779 24.3036 23.1785 23.6208C22.578 22.938 22.2777 21.8501 22.2777 20.3571V16.875C22.2777 16.3015 22.206 15.8008 22.0626 15.3729C21.9281 14.945 21.4262 14.7311 20.5568 14.7311C20.019 14.7311 19.7501 14.5035 19.7501 14.0483V12.6828C19.7501 12.2276 20.019 12 20.5568 12C22.8334 12 24.3168 12.2595 25.007 12.7784C25.6971 13.2882 26.0422 14.3032 26.0422 15.8235V19.7153C26.0422 21.3904 26.3066 22.4646 26.8354 22.938C27.3642 23.4023 27.8662 23.6345 28.3412 23.6345C28.7804 23.6345 29 23.903 29 24.4401V25.5599C29 26.097 28.7804 26.3655 28.3412 26.3655C27.8662 26.3655 27.3642 26.6022 26.8354 27.0756C26.3066 27.5399 26.0422 28.6096 26.0422 30.2847V34.1765C26.0422 35.6968 25.6971 36.7118 25.007 37.2216C24.3168 37.7405 22.8334 38 20.5568 38Z" fill="#3B5998"/>
<path d="M34.6731 0L34.022 2.67337L31.3846 3.33333L34.022 3.9933L34.6731 6.66667L35.3242 3.9933L37.9615 3.33333L35.3242 2.67337L34.6731 0Z" fill="#8B9DC3"/>
<path d="M35.1923 12.2807L34.4384 15.3762L31.3846 16.1404L34.4384 16.9045L35.1923 20L35.9462 16.9045L39 16.1404L35.9462 15.3762L35.1923 12.2807Z" fill="#8B9DC3"/>
<path d="M24.2885 12.2807L23.9115 13.8284L22.3846 14.2105L23.9115 14.5926L24.2885 16.1404L24.6654 14.5926L26.1923 14.2105L24.6654 13.8284L24.2885 12.2807Z" fill="#8B9DC3"/>
<path d="M29.4808 2.10526L27.8017 8.99974L21 10.7018L27.8017 12.4038L29.4808 19.2982L31.1599 12.4038L37.9615 10.7018L31.1599 8.99974L29.4808 2.10526Z" fill="#8B9DC3"/>
</svg>
