<svg width="29" height="26" viewBox="0 0 29 26" fill="none" xmlns="http://www.w3.org/2000/svg">
<path d="M0.658785 14.3655C0.219595 14.3655 0 14.097 0 13.5599V12.4401C0 11.903 0.219595 11.6345 0.658785 11.6345C1.13383 11.6345 1.63576 11.4023 2.16458 10.938C2.6934 10.4646 2.95781 9.39041 2.95781 7.71534V3.82353C2.95781 2.30322 3.30289 1.28817 3.99305 0.778361C4.6832 0.259454 6.16659 0 8.44321 0C8.98099 0 9.24988 0.227591 9.24988 0.682773V2.04832C9.24988 2.5035 8.98099 2.73109 8.44321 2.73109C7.57379 2.73109 7.06738 2.94503 6.92397 3.3729C6.78952 3.80077 6.7223 4.30147 6.7223 4.875V8.35714C6.7223 9.85014 6.42204 10.938 5.82151 11.6208C5.22099 12.3036 4.4412 12.7588 3.48215 12.9863V13.0137C4.4412 13.2412 5.22099 13.6964 5.82151 14.3792C6.42204 15.062 6.7223 16.1499 6.7223 17.6429V21.125C6.7223 21.6985 6.78952 22.1992 6.92397 22.6271C7.06738 23.055 7.57379 23.2689 8.44321 23.2689C8.98099 23.2689 9.24988 23.4965 9.24988 23.9517V25.3172C9.24988 25.7724 8.98099 26 8.44321 26C6.16659 26 4.6832 25.7405 3.99305 25.2216C3.30289 24.7118 2.95781 23.6968 2.95781 22.1765V18.2847C2.95781 16.6096 2.6934 15.5399 2.16458 15.0756C1.63576 14.6022 1.13383 14.3655 0.658785 14.3655Z" fill="#3B5998"/>
<path d="M13.4849 9.96849C12.8575 9.96849 12.5438 9.6271 12.5438 8.94433V7.1145C12.5438 6.43172 12.8575 6.09034 13.4849 6.09034H15.5285C16.1559 6.09034 16.4696 6.43172 16.4696 7.1145V8.94433C16.4696 9.6271 16.1559 9.96849 15.5285 9.96849H13.4849ZM13.458 20.4286C12.8306 20.4286 12.5169 20.0872 12.5169 19.4044V17.5746C12.5169 16.8918 12.8306 16.5504 13.458 16.5504H15.5554C16.1828 16.5504 16.4965 16.8918 16.4965 17.5746V19.4044C16.4965 20.5788 16.4203 21.562 16.268 22.354C16.1156 23.1551 15.7257 23.8015 15.0983 24.2931C14.6412 24.6481 14.2826 24.6845 14.0227 24.4023L13.5118 23.8424C13.1892 23.4965 13.2384 23.1551 13.6597 22.8183C13.9465 22.5907 14.1392 22.2948 14.2378 21.9307C14.3364 21.5665 14.3857 21.0658 14.3857 20.4286H13.458Z" fill="#3B5998"/>
<path d="M20.5568 26C20.019 26 19.7501 25.7724 19.7501 25.3172V23.9517C19.7501 23.4965 20.019 23.2689 20.5568 23.2689C21.4262 23.2689 21.9281 23.055 22.0626 22.6271C22.206 22.1992 22.2777 21.6985 22.2777 21.125V17.6429C22.2777 16.1499 22.578 15.062 23.1785 14.3792C23.779 13.6964 24.5588 13.2412 25.5178 13.0137V12.9863C24.5588 12.7588 23.779 12.3036 23.1785 11.6208C22.578 10.938 22.2777 9.85014 22.2777 8.35714V4.875C22.2777 4.30147 22.206 3.80077 22.0626 3.3729C21.9281 2.94503 21.4262 2.73109 20.5568 2.73109C20.019 2.73109 19.7501 2.5035 19.7501 2.04832V0.682773C19.7501 0.227591 20.019 0 20.5568 0C22.8334 0 24.3168 0.259454 25.007 0.778361C25.6971 1.28817 26.0422 2.30322 26.0422 3.82353V7.71534C26.0422 9.39041 26.3066 10.4646 26.8354 10.938C27.3642 11.4023 27.8662 11.6345 28.3412 11.6345C28.7804 11.6345 29 11.903 29 12.4401V13.5599C29 14.097 28.7804 14.3655 28.3412 14.3655C27.8662 14.3655 27.3642 14.6022 26.8354 15.0756C26.3066 15.5399 26.0422 16.6096 26.0422 18.2847V22.1765C26.0422 23.6968 25.6971 24.7118 25.007 25.2216C24.3168 25.7405 22.8334 26 20.5568 26Z" fill="#3B5998"/>
</svg>
