<svg width="31" height="26" viewBox="0 0 31 26" fill="none" xmlns="http://www.w3.org/2000/svg">
<path d="M0 7.56479V0H0.943773V6.7172H4.21552V7.56479H0Z" fill="#103F91"/>
<path d="M10.26 4.71475C10.26 5.18799 10.1971 5.60826 10.0713 5.97555C9.95241 6.33578 9.77764 6.64303 9.54694 6.89731C9.32323 7.15159 9.04709 7.34583 8.71852 7.48003C8.39693 7.60717 8.0369 7.67074 7.63842 7.67074C7.2679 7.67074 6.92535 7.60717 6.61075 7.48003C6.29616 7.34583 6.02352 7.15159 5.79282 6.89731C5.56212 6.64303 5.38035 6.33578 5.24753 5.97555C5.12169 5.60826 5.05877 5.18799 5.05877 4.71475C5.05877 4.08612 5.16364 3.55637 5.37336 3.12551C5.58309 2.68759 5.8837 2.35561 6.27519 2.12958C6.66668 1.8965 7.13158 1.77995 7.66988 1.77995C8.18021 1.77995 8.62763 1.8965 9.01213 2.12958C9.40362 2.35561 9.70773 2.68759 9.92445 3.12551C10.1482 3.55637 10.26 4.08612 10.26 4.71475ZM6.01303 4.71475C6.01303 5.15974 6.06896 5.54822 6.18081 5.8802C6.29966 6.20511 6.48142 6.45585 6.7261 6.63244C6.97079 6.80902 7.28188 6.89731 7.65939 6.89731C8.0369 6.89731 8.348 6.80902 8.59268 6.63244C8.83736 6.45585 9.01563 6.20511 9.12748 5.8802C9.24633 5.54822 9.30575 5.15974 9.30575 4.71475C9.30575 4.2627 9.24633 3.87775 9.12748 3.5599C9.00864 3.24205 8.82687 2.99837 8.58219 2.82885C8.3445 2.65227 8.03341 2.56398 7.64891 2.56398C7.07565 2.56398 6.65969 2.75469 6.40103 3.1361C6.14236 3.51752 6.01303 4.04374 6.01303 4.71475Z" fill="#103F91"/>
<path d="M14.3441 1.77995C14.449 1.77995 14.5608 1.78701 14.6797 1.80114C14.8055 1.8082 14.9139 1.82233 15.0048 1.84352L14.8894 2.70171C14.7985 2.68052 14.6972 2.66286 14.5853 2.64874C14.4804 2.63461 14.3791 2.62755 14.2812 2.62755C14.0645 2.62755 13.8583 2.67346 13.6625 2.76528C13.4668 2.8571 13.292 2.98778 13.1382 3.15729C12.9844 3.31975 12.8621 3.51752 12.7712 3.75061C12.6873 3.9837 12.6453 4.24504 12.6453 4.53464V7.56479H11.7225V1.8859H12.4775L12.5824 2.92421H12.6244C12.7432 2.71231 12.8865 2.5216 13.0543 2.35208C13.2221 2.1755 13.4143 2.03776 13.6311 1.93888C13.8478 1.83293 14.0855 1.77995 14.3441 1.77995Z" fill="#103F91"/>
<path d="M18.0202 1.77995C18.5025 1.77995 18.915 1.8859 19.2576 2.0978C19.6071 2.3097 19.8728 2.60989 20.0545 2.99837C20.2433 3.37979 20.3377 3.82831 20.3377 4.34393V4.90546H16.4892C16.5031 5.54822 16.6639 6.03912 16.9715 6.37816C17.2861 6.71013 17.7231 6.87612 18.2823 6.87612C18.6389 6.87612 18.9535 6.84434 19.2261 6.78077C19.5057 6.71013 19.7924 6.61125 20.086 6.48411V7.29992C19.7994 7.42706 19.5162 7.51888 19.2366 7.57539C18.957 7.63896 18.6249 7.67074 18.2404 7.67074C17.7091 7.67074 17.2372 7.56126 16.8247 7.3423C16.4193 7.12334 16.1012 6.79843 15.8705 6.36756C15.6468 5.92964 15.5349 5.39636 15.5349 4.76773C15.5349 4.14616 15.6363 3.61288 15.839 3.16789C16.0487 2.7229 16.3389 2.38033 16.7094 2.14018C17.0869 1.90003 17.5238 1.77995 18.0202 1.77995ZM18.0097 2.54279C17.5693 2.54279 17.2197 2.68758 16.961 2.97718C16.7094 3.25971 16.5591 3.65526 16.5101 4.16381H19.3729C19.3729 3.8389 19.324 3.55637 19.2261 3.31622C19.1282 3.07607 18.9779 2.88889 18.7752 2.75469C18.5794 2.61342 18.3243 2.54279 18.0097 2.54279Z" fill="#103F91"/>
<path d="M27.9345 1.77995C28.5707 1.77995 29.0461 1.94594 29.3607 2.27791C29.6753 2.60283 29.8326 3.13257 29.8326 3.86716V7.56479H28.9203V3.90954C28.9203 3.46455 28.8259 3.12904 28.6371 2.90302C28.4554 2.67699 28.1687 2.56398 27.7772 2.56398C27.232 2.56398 26.8405 2.7229 26.6028 3.04075C26.3721 3.3586 26.2567 3.82124 26.2567 4.42869V7.56479H25.3444V3.90954C25.3444 3.61288 25.3025 3.36566 25.2186 3.16789C25.1347 2.96305 25.0088 2.81119 24.8411 2.71231C24.6733 2.61342 24.4566 2.56398 24.1909 2.56398C23.8134 2.56398 23.5163 2.64521 23.2996 2.80766C23.0828 2.96305 22.9256 3.19261 22.8277 3.49633C22.7368 3.80005 22.6914 4.17441 22.6914 4.6194V7.56479H21.7686V1.8859H22.5131L22.6494 2.65933H22.7018C22.8207 2.46156 22.964 2.2991 23.1318 2.17196C23.3066 2.03776 23.4988 1.93888 23.7085 1.87531C23.9183 1.81174 24.135 1.77995 24.3587 1.77995C24.7921 1.77995 25.1522 1.85765 25.4388 2.01304C25.7324 2.16843 25.9456 2.40858 26.0785 2.7335H26.1309C26.3196 2.40858 26.5748 2.16843 26.8964 2.01304C27.225 1.85765 27.571 1.77995 27.9345 1.77995Z" fill="#103F91"/>
<path d="M3.66433 23.4572H0.958847V22.9063L1.8397 22.705V16.6553L0.958847 16.4434V15.8924H3.66433V16.4434L2.78348 16.6553V22.705L3.66433 22.9063V23.4572Z" fill="#103F91"/>
<path d="M7.65825 17.6724C8.35035 17.6724 8.90612 17.9161 9.32558 18.4034C9.75202 18.8908 9.96525 19.6254 9.96525 20.6072C9.96525 21.2499 9.86737 21.7938 9.67163 22.2388C9.48287 22.6767 9.21372 23.0087 8.86418 23.2347C8.52162 23.4537 8.11615 23.5632 7.64776 23.5632C7.36113 23.5632 7.10596 23.5243 6.88225 23.4466C6.65854 23.3689 6.46629 23.27 6.3055 23.15C6.1517 23.0228 6.01888 22.8851 5.90702 22.7368H5.8441C5.85808 22.8568 5.87207 23.0087 5.88605 23.1923C5.90003 23.376 5.90702 23.5349 5.90702 23.6691V26H4.98422V17.7783H5.73924L5.86508 18.5518H5.90702C6.01888 18.3893 6.1517 18.241 6.3055 18.1068C6.46629 17.9726 6.65505 17.8666 6.87177 17.7889C7.09548 17.7112 7.35764 17.6724 7.65825 17.6724ZM7.49046 18.4564C7.11295 18.4564 6.80885 18.5306 6.57815 18.6789C6.34745 18.8202 6.17967 19.0356 6.0748 19.3252C5.96994 19.6148 5.91401 19.9821 5.90702 20.4271V20.6072C5.90702 21.0734 5.95596 21.4689 6.05383 21.7938C6.1517 22.1187 6.31599 22.3659 6.54669 22.5355C6.78438 22.705 7.10596 22.7897 7.51144 22.7897C7.85399 22.7897 8.13363 22.6944 8.35034 22.5037C8.57405 22.313 8.73834 22.0551 8.8432 21.7302C8.95506 21.3983 9.01099 21.0204 9.01099 20.5966C9.01099 19.9468 8.88515 19.4276 8.63348 19.0391C8.38879 18.6506 8.00779 18.4564 7.49046 18.4564Z" fill="#103F91"/>
<path d="M15.0955 21.8892C15.0955 22.2565 15.0047 22.5637 14.8229 22.8109C14.6411 23.0581 14.3825 23.2453 14.0469 23.3725C13.7113 23.4996 13.3129 23.5632 12.8515 23.5632C12.46 23.5632 12.1209 23.5314 11.8343 23.4678C11.5546 23.4042 11.3065 23.3159 11.0897 23.2029V22.3553C11.3135 22.4684 11.5826 22.5743 11.8972 22.6732C12.2188 22.765 12.5439 22.8109 12.8724 22.8109C13.3408 22.8109 13.6799 22.7368 13.8896 22.5884C14.0993 22.433 14.2042 22.2282 14.2042 21.9739C14.2042 21.8327 14.1657 21.7055 14.0888 21.5925C14.0119 21.4795 13.8721 21.3665 13.6694 21.2535C13.4736 21.1405 13.1905 21.0133 12.82 20.872C12.4565 20.7308 12.1454 20.5895 11.8867 20.4482C11.628 20.307 11.4288 20.1375 11.289 19.9397C11.1492 19.7419 11.0793 19.4876 11.0793 19.1769C11.0793 18.6966 11.2715 18.3257 11.656 18.0644C12.0475 17.803 12.5578 17.6724 13.187 17.6724C13.5296 17.6724 13.8477 17.7077 14.1413 17.7783C14.4419 17.8419 14.7215 17.9337 14.9802 18.0538L14.6656 18.7954C14.5118 18.7248 14.3475 18.6648 14.1727 18.6153C14.005 18.5588 13.8337 18.5164 13.6589 18.4882C13.4841 18.4529 13.3059 18.4352 13.1241 18.4352C12.7466 18.4352 12.4565 18.4988 12.2537 18.6259C12.058 18.746 11.9601 18.912 11.9601 19.1239C11.9601 19.2793 12.0056 19.4135 12.0964 19.5265C12.1873 19.6324 12.3376 19.7384 12.5473 19.8443C12.7641 19.9432 13.0507 20.0633 13.4072 20.2046C13.7638 20.3388 14.0679 20.4765 14.3195 20.6178C14.5712 20.759 14.7635 20.9321 14.8963 21.1369C15.0291 21.3347 15.0955 21.5854 15.0955 21.8892Z" fill="#103F91"/>
<path d="M21.1516 17.7783V23.4572H20.3966L20.2602 22.705H20.2183C20.0994 22.9027 19.9456 23.0652 19.7569 23.1923C19.5681 23.3195 19.3619 23.4113 19.1382 23.4678C18.9145 23.5314 18.6803 23.5632 18.4356 23.5632C17.9882 23.5632 17.6107 23.4925 17.3031 23.3513C17.0025 23.2029 16.7753 22.9769 16.6215 22.6732C16.4677 22.3695 16.3908 21.9775 16.3908 21.4971V17.7783H17.3241V21.4336C17.3241 21.8856 17.4254 22.2247 17.6282 22.4507C17.8309 22.6767 18.1455 22.7897 18.5719 22.7897C18.9914 22.7897 19.32 22.712 19.5577 22.5566C19.8023 22.3942 19.9736 22.1611 20.0715 21.8574C20.1763 21.5466 20.2288 21.1722 20.2288 20.7343V17.7783H21.1516Z" fill="#103F91"/>
<path d="M29.102 17.6724C29.7381 17.6724 30.2135 17.8384 30.5281 18.1703C30.8427 18.4952 31 19.025 31 19.7596V23.4572H30.0877V19.802C30.0877 19.357 29.9933 19.0215 29.8046 18.7954C29.6228 18.5694 29.3362 18.4564 28.9447 18.4564C28.3994 18.4564 28.0079 18.6153 27.7702 18.9332C27.5395 19.251 27.4241 19.7137 27.4241 20.3211V23.4572H26.5118V19.802C26.5118 19.5053 26.4699 19.2581 26.386 19.0603C26.3021 18.8555 26.1763 18.7036 26.0085 18.6047C25.8407 18.5058 25.624 18.4564 25.3583 18.4564C24.9808 18.4564 24.6837 18.5376 24.467 18.7001C24.2503 18.8555 24.093 19.085 23.9951 19.3888C23.9042 19.6925 23.8588 20.0668 23.8588 20.5118V23.4572H22.936V17.7783H23.6805L23.8168 18.5518H23.8693C23.9881 18.354 24.1314 18.1915 24.2992 18.0644C24.474 17.9302 24.6662 17.8313 24.876 17.7677C25.0857 17.7042 25.3024 17.6724 25.5261 17.6724C25.9596 17.6724 26.3196 17.7501 26.6062 17.9055C26.8998 18.0609 27.1131 18.301 27.2459 18.6259H27.2983C27.4871 18.301 27.7422 18.0609 28.0638 17.9055C28.3924 17.7501 28.7384 17.6724 29.102 17.6724Z" fill="#103F91"/>
</svg>
