<svg width="50" height="17" viewBox="0 0 50 17" fill="none" xmlns="http://www.w3.org/2000/svg">
<path d="M0 16.368C0.229333 16.368 0.392 16.336 0.488 16.272C0.589333 16.2027 0.64 16.0933 0.64 15.944V11.832H0V11.544C0.266667 11.464 0.509333 11.3307 0.728 11.144C0.952 10.9573 1.12267 10.744 1.24 10.504H1.536V15.944C1.536 16.0933 1.584 16.2027 1.68 16.272C1.78133 16.336 1.94667 16.368 2.176 16.368V16.664H0V16.368Z" fill="#3B5998"/>
<path d="M5.24031 10.968C5.09098 10.968 4.95231 11.0053 4.82431 11.08C4.70165 11.1493 4.60298 11.2427 4.52831 11.36C4.69898 11.4133 4.83231 11.4933 4.92831 11.6C5.02431 11.7013 5.07231 11.8213 5.07231 11.96C5.07231 12.12 5.01098 12.2587 4.88831 12.376C4.76565 12.4933 4.61898 12.5493 4.44831 12.544C4.26698 12.5387 4.11498 12.4693 3.99231 12.336C3.86965 12.1973 3.80831 12.0293 3.80831 11.832C3.80831 11.592 3.87498 11.3787 4.00831 11.192C4.14165 11 4.32298 10.8507 4.55231 10.744C4.78698 10.6373 5.05365 10.584 5.35231 10.584C5.84298 10.584 6.22698 10.7147 6.50431 10.976C6.78698 11.232 6.92565 11.5813 6.92031 12.024C6.92031 12.312 6.84831 12.5733 6.70431 12.808C6.56565 13.0427 6.36831 13.2293 6.11231 13.368C6.40565 13.496 6.64031 13.696 6.81631 13.968C6.99765 14.2347 7.08831 14.5333 7.08831 14.864C7.08831 15.4827 6.93365 15.952 6.62431 16.272C6.31498 16.5867 5.86431 16.744 5.27231 16.744C4.97365 16.744 4.70698 16.6907 4.47231 16.584C4.24298 16.472 4.06165 16.3227 3.92831 16.136C3.79498 15.9493 3.72831 15.736 3.72831 15.496C3.72831 15.2987 3.78965 15.1333 3.91231 15C4.03498 14.8613 4.18698 14.7893 4.36831 14.784C4.53898 14.7787 4.68565 14.8347 4.80831 14.952C4.93098 15.0693 4.99231 15.208 4.99231 15.368C4.99231 15.5013 4.94431 15.6213 4.84831 15.728C4.75231 15.8347 4.62431 15.912 4.46431 15.96C4.62431 16.2213 4.86698 16.352 5.19231 16.352C5.84298 16.352 6.16831 15.888 6.16831 14.96C6.16831 14.1227 5.89631 13.704 5.35231 13.704L5.11231 13.384C5.40565 13.2613 5.63765 13.08 5.80831 12.84C5.97898 12.5947 6.06431 12.328 6.06431 12.04C6.06431 11.6933 5.99231 11.4293 5.84831 11.248C5.70965 11.0613 5.50698 10.968 5.24031 10.968Z" fill="#3B5998"/>
<path d="M7.76062 16.368C7.93129 16.368 8.05396 16.3413 8.12862 16.288C8.20329 16.2347 8.24063 16.1467 8.24063 16.024V12.984C8.24063 12.8613 8.20329 12.7733 8.12862 12.72C8.05396 12.6667 7.93129 12.64 7.76062 12.64V12.344H10.1286C10.2673 12.344 10.366 12.3333 10.4246 12.312C10.4833 12.2853 10.5153 12.2453 10.5206 12.192H10.7846L11.1126 13.488L10.8486 13.56C10.7526 13.304 10.6593 13.112 10.5686 12.984C10.4833 12.8507 10.3713 12.7627 10.2326 12.72C10.0993 12.6773 9.91529 12.656 9.68062 12.656H9.11263V14.376H9.68863C9.89663 14.376 10.0006 14.2373 10.0006 13.96H10.2566V15.176H10.0006C10.0006 14.8507 9.89663 14.688 9.68863 14.688H9.11263V16.352H9.94462C10.1846 16.352 10.3686 16.3253 10.4966 16.272C10.63 16.2187 10.726 16.1173 10.7846 15.968C10.8486 15.8133 10.8966 15.5893 10.9286 15.296H11.1926V16.832H10.9206C10.8993 16.768 10.8486 16.7227 10.7686 16.696C10.6886 16.6747 10.5553 16.664 10.3686 16.664H7.76062V16.368Z" fill="#3B5998"/>
<path d="M11.8786 14.248V13.64H15.0626V14.248H11.8786Z" fill="#3B5998"/>
<path d="M17.2789 12.264C17.4389 12.264 17.5616 12.2747 17.6469 12.296C17.7376 12.312 17.8043 12.3173 17.8469 12.312C17.8949 12.3067 17.9323 12.2693 17.9589 12.2H18.2309L18.5589 13.488L18.2869 13.56C18.1536 13.192 18.0176 12.9387 17.8789 12.8C17.7456 12.6613 17.5696 12.592 17.3509 12.592C17.1856 12.592 17.0416 12.6507 16.9189 12.768C16.8016 12.88 16.7429 13.0187 16.7429 13.184C16.7429 13.3333 16.7803 13.4587 16.8549 13.56C16.9296 13.656 17.0629 13.7573 17.2549 13.864L18.1189 14.336C18.3483 14.4587 18.5243 14.6267 18.6469 14.84C18.7749 15.048 18.8389 15.2853 18.8389 15.552C18.8389 15.7707 18.7749 15.9707 18.6469 16.152C18.5243 16.3333 18.3563 16.4773 18.1429 16.584C17.9349 16.6907 17.7003 16.744 17.4389 16.744C17.2416 16.744 17.0816 16.7253 16.9589 16.688C16.8363 16.6507 16.7376 16.6133 16.6629 16.576C16.5936 16.5387 16.5323 16.52 16.4789 16.52C16.3563 16.52 16.2763 16.568 16.2389 16.664H15.9589V15.08H16.2309C16.3056 15.5013 16.4363 15.8267 16.6229 16.056C16.8149 16.2853 17.0469 16.4 17.3189 16.4C17.4416 16.4 17.5563 16.3653 17.6629 16.296C17.7749 16.2267 17.8656 16.1387 17.9349 16.032C18.0043 15.9253 18.0389 15.8133 18.0389 15.696C18.0389 15.4133 17.8523 15.168 17.4789 14.96L16.7749 14.568C16.2469 14.28 15.9829 13.9067 15.9829 13.448C15.9829 13.24 16.0443 13.0453 16.1669 12.864C16.2896 12.6827 16.4496 12.5387 16.6469 12.432C16.8443 12.32 17.0549 12.264 17.2789 12.264Z" fill="#3B5998"/>
<path d="M20.2361 13.792L19.9241 13.48L20.2041 10.664H21.6601C21.7987 10.664 21.8974 10.6533 21.9561 10.632C22.0147 10.6053 22.0467 10.5653 22.0521 10.512H22.3161L22.6441 12.296L22.3801 12.368C22.2734 12.1013 22.1667 11.8987 22.0601 11.76C21.9587 11.616 21.8361 11.5173 21.6921 11.464C21.5481 11.4053 21.3614 11.376 21.1321 11.376H20.5961L20.4281 13.136C20.7214 13.024 20.9747 12.968 21.1881 12.968C21.5134 12.968 21.8121 13.0507 22.0841 13.216C22.3614 13.3813 22.5827 13.6027 22.7481 13.88C22.9187 14.152 23.0041 14.4533 23.0041 14.784C23.0041 15.3813 22.8281 15.8587 22.4761 16.216C22.1294 16.568 21.6521 16.744 21.0441 16.744C20.7454 16.744 20.4787 16.6907 20.2441 16.584C20.0147 16.472 19.8334 16.3227 19.7001 16.136C19.5667 15.9493 19.5001 15.736 19.5001 15.496C19.5001 15.2987 19.5614 15.1333 19.6841 15C19.8067 14.8613 19.9587 14.7893 20.1401 14.784C20.3107 14.7787 20.4494 14.8293 20.5561 14.936C20.6681 15.0373 20.7241 15.1733 20.7241 15.344C20.7241 15.6 20.5614 15.8 20.2361 15.944C20.4441 16.216 20.6867 16.352 20.9641 16.352C21.2947 16.352 21.5641 16.2187 21.7721 15.952C21.9801 15.68 22.0841 15.3227 22.0841 14.88C22.0841 14.5973 22.0414 14.344 21.9561 14.12C21.8707 13.8907 21.7534 13.712 21.6041 13.584C21.4601 13.4507 21.2947 13.384 21.1081 13.384C21.0121 13.384 20.9054 13.4027 20.7881 13.44C20.6761 13.4773 20.5694 13.528 20.4681 13.592C20.3667 13.6507 20.2894 13.7173 20.2361 13.792Z" fill="#3B5998"/>
<path d="M25.0524 12.264C25.2124 12.264 25.335 12.2747 25.4204 12.296C25.511 12.312 25.5777 12.3173 25.6204 12.312C25.6684 12.3067 25.7057 12.2693 25.7324 12.2H26.0044L26.3324 13.488L26.0604 13.56C25.927 13.192 25.791 12.9387 25.6524 12.8C25.519 12.6613 25.343 12.592 25.1244 12.592C24.959 12.592 24.815 12.6507 24.6924 12.768C24.575 12.88 24.5164 13.0187 24.5164 13.184C24.5164 13.3333 24.5537 13.4587 24.6284 13.56C24.703 13.656 24.8364 13.7573 25.0284 13.864L25.8924 14.336C26.1217 14.4587 26.2977 14.6267 26.4204 14.84C26.5484 15.048 26.6124 15.2853 26.6124 15.552C26.6124 15.7707 26.5484 15.9707 26.4204 16.152C26.2977 16.3333 26.1297 16.4773 25.9164 16.584C25.7084 16.6907 25.4737 16.744 25.2124 16.744C25.015 16.744 24.855 16.7253 24.7324 16.688C24.6097 16.6507 24.511 16.6133 24.4364 16.576C24.367 16.5387 24.3057 16.52 24.2524 16.52C24.1297 16.52 24.0497 16.568 24.0124 16.664H23.7324V15.08H24.0044C24.079 15.5013 24.2097 15.8267 24.3964 16.056C24.5884 16.2853 24.8204 16.4 25.0924 16.4C25.215 16.4 25.3297 16.3653 25.4364 16.296C25.5484 16.2267 25.639 16.1387 25.7084 16.032C25.7777 15.9253 25.8124 15.8133 25.8124 15.696C25.8124 15.4133 25.6257 15.168 25.2524 14.96L24.5484 14.568C24.0204 14.28 23.7564 13.9067 23.7564 13.448C23.7564 13.24 23.8177 13.0453 23.9404 12.864C24.063 12.6827 24.223 12.5387 24.4204 12.432C24.6177 12.32 24.8284 12.264 25.0524 12.264Z" fill="#3B5998"/>
<path d="M28.5935 16.368C28.8228 16.368 28.9855 16.336 29.0815 16.272C29.1828 16.2027 29.2335 16.0933 29.2335 15.944V14.824H27.2015V14.44L29.7455 10.504H30.1295V14.424H30.2095C30.3322 14.424 30.4202 14.3867 30.4735 14.312C30.5268 14.2373 30.5535 14.1147 30.5535 13.944H30.8495V15.304H30.5535C30.5535 15.1333 30.5268 15.0107 30.4735 14.936C30.4202 14.8613 30.3322 14.824 30.2095 14.824H30.1295V15.944C30.1295 16.0933 30.1775 16.2027 30.2735 16.272C30.3748 16.336 30.5402 16.368 30.7695 16.368V16.664H28.5935V16.368ZM27.7615 14.424H29.2335V12.088L27.7615 14.424Z" fill="#3B5998"/>
<path d="M31.7458 14.248V13.64H34.9298V14.248H31.7458Z" fill="#3B5998"/>
<path d="M38.8661 15.032C38.8661 16.1733 38.4208 16.744 37.5301 16.744C37.0715 16.744 36.7088 16.592 36.4421 16.288C36.1808 15.984 36.0501 15.5653 36.0501 15.032V12.984C36.0501 12.8613 36.0128 12.7733 35.9381 12.72C35.8635 12.6667 35.7408 12.64 35.5701 12.64V12.344H37.4101V12.64C37.2395 12.64 37.1168 12.6667 37.0421 12.72C36.9675 12.7733 36.9301 12.8613 36.9301 12.984V15.576C36.9301 15.8213 36.9995 16.0213 37.1381 16.176C37.2821 16.3307 37.4688 16.408 37.6981 16.408C37.9435 16.408 38.1408 16.2907 38.2901 16.056C38.4448 15.8213 38.5221 15.52 38.5221 15.152V12.984C38.5221 12.856 38.4875 12.768 38.4181 12.72C38.3488 12.6667 38.2235 12.64 38.0421 12.64V12.344H39.3461V12.64C39.1648 12.64 39.0395 12.6667 38.9701 12.72C38.9008 12.768 38.8661 12.856 38.8661 12.984V15.032Z" fill="#3B5998"/>
<path d="M42.7724 15.032C42.7724 16.1733 42.327 16.744 41.4364 16.744C40.9777 16.744 40.615 16.592 40.3484 16.288C40.087 15.984 39.9564 15.5653 39.9564 15.032V12.984C39.9564 12.8613 39.919 12.7733 39.8444 12.72C39.7697 12.6667 39.647 12.64 39.4764 12.64V12.344H41.3164V12.64C41.1457 12.64 41.023 12.6667 40.9484 12.72C40.8737 12.7733 40.8364 12.8613 40.8364 12.984V15.576C40.8364 15.8213 40.9057 16.0213 41.0444 16.176C41.1884 16.3307 41.375 16.408 41.6044 16.408C41.8497 16.408 42.047 16.2907 42.1964 16.056C42.351 15.8213 42.4284 15.52 42.4284 15.152V12.984C42.4284 12.856 42.3937 12.768 42.3244 12.72C42.255 12.6667 42.1297 12.64 41.9484 12.64V12.344H43.2524V12.64C43.071 12.64 42.9457 12.6667 42.8764 12.72C42.807 12.768 42.7724 12.856 42.7724 12.984V15.032Z" fill="#3B5998"/>
<path d="M44.9586 12.264C45.1186 12.264 45.2413 12.2747 45.3266 12.296C45.4173 12.312 45.484 12.3173 45.5266 12.312C45.5746 12.3067 45.612 12.2693 45.6386 12.2H45.9106L46.2386 13.488L45.9666 13.56C45.8333 13.192 45.6973 12.9387 45.5586 12.8C45.4253 12.6613 45.2493 12.592 45.0306 12.592C44.8653 12.592 44.7213 12.6507 44.5986 12.768C44.4813 12.88 44.4226 13.0187 44.4226 13.184C44.4226 13.3333 44.46 13.4587 44.5346 13.56C44.6093 13.656 44.7426 13.7573 44.9346 13.864L45.7986 14.336C46.028 14.4587 46.204 14.6267 46.3266 14.84C46.4546 15.048 46.5186 15.2853 46.5186 15.552C46.5186 15.7707 46.4546 15.9707 46.3266 16.152C46.204 16.3333 46.036 16.4773 45.8226 16.584C45.6146 16.6907 45.38 16.744 45.1186 16.744C44.9213 16.744 44.7613 16.7253 44.6386 16.688C44.516 16.6507 44.4173 16.6133 44.3426 16.576C44.2733 16.5387 44.212 16.52 44.1586 16.52C44.036 16.52 43.956 16.568 43.9186 16.664H43.6386V15.08H43.9106C43.9853 15.5013 44.116 15.8267 44.3026 16.056C44.4946 16.2853 44.7266 16.4 44.9986 16.4C45.1213 16.4 45.236 16.3653 45.3426 16.296C45.4546 16.2267 45.5453 16.1387 45.6146 16.032C45.684 15.9253 45.7186 15.8133 45.7186 15.696C45.7186 15.4133 45.532 15.168 45.1586 14.96L44.4546 14.568C43.9266 14.28 43.6626 13.9067 43.6626 13.448C43.6626 13.24 43.724 13.0453 43.8466 12.864C43.9693 12.6827 44.1293 12.5387 44.3266 12.432C44.524 12.32 44.7346 12.264 44.9586 12.264Z" fill="#3B5998"/>
<path d="M48.4118 12.264C48.5718 12.264 48.6944 12.2747 48.7798 12.296C48.8704 12.312 48.9371 12.3173 48.9798 12.312C49.0278 12.3067 49.0651 12.2693 49.0918 12.2H49.3638L49.6917 13.488L49.4198 13.56C49.2864 13.192 49.1504 12.9387 49.0117 12.8C48.8784 12.6613 48.7024 12.592 48.4837 12.592C48.3184 12.592 48.1744 12.6507 48.0518 12.768C47.9344 12.88 47.8758 13.0187 47.8758 13.184C47.8758 13.3333 47.9131 13.4587 47.9878 13.56C48.0624 13.656 48.1957 13.7573 48.3877 13.864L49.2518 14.336C49.4811 14.4587 49.6571 14.6267 49.7798 14.84C49.9077 15.048 49.9717 15.2853 49.9717 15.552C49.9717 15.7707 49.9077 15.9707 49.7798 16.152C49.6571 16.3333 49.4891 16.4773 49.2757 16.584C49.0677 16.6907 48.8331 16.744 48.5718 16.744C48.3744 16.744 48.2144 16.7253 48.0918 16.688C47.9691 16.6507 47.8704 16.6133 47.7957 16.576C47.7264 16.5387 47.6651 16.52 47.6118 16.52C47.4891 16.52 47.4091 16.568 47.3717 16.664H47.0918V15.08H47.3638C47.4384 15.5013 47.5691 15.8267 47.7557 16.056C47.9478 16.2853 48.1798 16.4 48.4518 16.4C48.5744 16.4 48.6891 16.3653 48.7957 16.296C48.9077 16.2267 48.9984 16.1387 49.0677 16.032C49.1371 15.9253 49.1717 15.8133 49.1717 15.696C49.1717 15.4133 48.9851 15.168 48.6118 14.96L47.9077 14.568C47.3797 14.28 47.1157 13.9067 47.1157 13.448C47.1157 13.24 47.1771 13.0453 47.2998 12.864C47.4224 12.6827 47.5824 12.5387 47.7798 12.432C47.9771 12.32 48.1878 12.264 48.4118 12.264Z" fill="#3B5998"/>
<path d="M17.2007 0V3.192C17.2007 3.45333 17.2567 3.66133 17.3687 3.816C17.4861 3.96533 17.6727 4.04 17.9287 4.04C18.1847 4.04 18.3741 3.96533 18.4967 3.816C18.6194 3.66133 18.6807 3.45333 18.6807 3.192V0H20.4487V3.192C20.4487 3.73067 20.3367 4.192 20.1127 4.576C19.8887 4.95467 19.5821 5.24 19.1927 5.432C18.8034 5.624 18.3687 5.72 17.8887 5.72C17.4087 5.72 16.9821 5.624 16.6087 5.432C16.2407 5.24 15.9527 4.95467 15.7447 4.576C15.5367 4.19733 15.4327 3.736 15.4327 3.192V0H17.2007Z" fill="#3B5998"/>
<path d="M22.9507 0V3.192C22.9507 3.45333 23.0067 3.66133 23.1187 3.816C23.2361 3.96533 23.4227 4.04 23.6787 4.04C23.9347 4.04 24.1241 3.96533 24.2467 3.816C24.3694 3.66133 24.4307 3.45333 24.4307 3.192V0H26.1987V3.192C26.1987 3.73067 26.0867 4.192 25.8627 4.576C25.6387 4.95467 25.3321 5.24 24.9427 5.432C24.5534 5.624 24.1187 5.72 23.6387 5.72C23.1587 5.72 22.7321 5.624 22.3587 5.432C21.9907 5.24 21.7027 4.95467 21.4947 4.576C21.2867 4.19733 21.1827 3.736 21.1827 3.192V0H22.9507Z" fill="#3B5998"/>
<path d="M28.7407 0V5.664H26.9647V0H28.7407Z" fill="#3B5998"/>
<path d="M31.9028 0C32.4948 0 33.0122 0.12 33.4548 0.36C33.9028 0.6 34.2468 0.933333 34.4868 1.36C34.7268 1.78667 34.8468 2.272 34.8468 2.816C34.8468 3.35467 34.7268 3.84 34.4868 4.272C34.2468 4.704 33.9028 5.04533 33.4548 5.296C33.0122 5.54133 32.4948 5.664 31.9028 5.664H29.5428V0H31.9028ZM31.7428 4.08C32.1428 4.08 32.4602 3.97067 32.6948 3.752C32.9295 3.53333 33.0468 3.22133 33.0468 2.816C33.0468 2.41067 32.9295 2.09867 32.6948 1.88C32.4602 1.66133 32.1428 1.552 31.7428 1.552H31.3188V4.08H31.7428Z" fill="#3B5998"/>
</svg>
