<svg width="44" height="46" viewBox="0 0 44 46" fill="none" xmlns="http://www.w3.org/2000/svg">
<path fill-rule="evenodd" clip-rule="evenodd" d="M17.5 5.625V17.5C17.5 18.163 17.2366 18.7989 16.7678 19.2678C16.2989 19.7366 15.663 20 15 20V18.75C15.3315 18.75 15.6495 18.6183 15.8839 18.3839C16.1183 18.1495 16.25 17.8315 16.25 17.5V5.625H13.75C13.2527 5.625 12.7758 5.42746 12.4242 5.07583C12.0725 4.72419 11.875 4.24728 11.875 3.75V1.25H5C4.66848 1.25 4.35054 1.3817 4.11612 1.61612C3.8817 1.85054 3.75 2.16848 3.75 2.5V13.75H2.5V2.5C2.5 1.83696 2.76339 1.20107 3.23223 0.732233C3.70107 0.263392 4.33696 0 5 0L11.875 0L17.5 5.625ZM4.40875 14.8125H3.2925L2.26375 16.6112H2.21875L1.17875 14.8125H0.015L1.54875 17.2913L0 19.8125H1.07625L2.1425 18.0438H2.18625L3.24875 19.8125H4.38375L2.81625 17.3225L4.40875 14.8125ZM5.60125 19.8113V16.4862H5.64875L6.83875 19.185H7.48375L8.66625 16.485H8.71375V19.8113H9.6075V14.8125H8.6075L7.1825 18.0575H7.15125L5.725 14.8125H4.7175V19.8113H5.60125ZM11.4888 18.9688H13.6088V19.8113H10.5V14.8125H11.4888V18.9688Z" fill="#3B5998"/>
<path d="M8.5 24C8.5 23.7239 8.27614 23.5 8 23.5C7.72386 23.5 7.5 23.7239 7.5 24L8.5 24ZM21.3536 35.3536C21.5488 35.1583 21.5488 34.8417 21.3536 34.6464L18.1716 31.4645C17.9763 31.2692 17.6597 31.2692 17.4645 31.4645C17.2692 31.6597 17.2692 31.9763 17.4645 32.1716L20.2929 35L17.4645 37.8284C17.2692 38.0237 17.2692 38.3403 17.4645 38.5355C17.6597 38.7308 17.9763 38.7308 18.1716 38.5355L21.3536 35.3536ZM7.5 24C7.5 26.7635 7.68556 28.881 8.13967 30.4948C8.59782 32.123 9.33774 33.2668 10.4557 34.0368C11.5568 34.7952 12.9683 35.1506 14.6873 35.3256C16.407 35.5006 18.502 35.5 21 35.5V34.5C18.4837 34.5 16.4465 34.4994 14.7886 34.3307C13.1299 34.1619 11.9181 33.8298 11.0229 33.2132C10.1444 32.6082 9.51467 31.6895 9.10229 30.2239C8.68587 28.744 8.5 26.7365 8.5 24L7.5 24Z" fill="#8B9DC3"/>
<path d="M27 45H41C41.5304 45 42.0391 44.7893 42.4142 44.4142C42.7893 44.0391 43 43.5304 43 43V30L38 25H29C28.4696 25 27.9609 25.2107 27.5858 25.5858C27.2107 25.9609 27 26.4696 27 27V31" stroke="#3B5998" stroke-linecap="round" stroke-linejoin="round"/>
<path d="M37 25V29C37 29.5304 37.2107 30.0391 37.5858 30.4142C37.9609 30.7893 38.4696 31 39 31H43M27 35C26.7348 35 26.4804 35.1054 26.2929 35.2929C26.1054 35.4804 26 35.7348 26 36V37C26 37.2652 25.8946 37.5196 25.7071 37.7071C25.5196 37.8946 25.2652 38 25 38C25.2652 38 25.5196 38.1054 25.7071 38.2929C25.8946 38.4804 26 38.7348 26 39V40C26 40.2652 26.1054 40.5196 26.2929 40.7071C26.4804 40.8946 26.7348 41 27 41M29 41C29.2652 41 29.5196 40.8946 29.7071 40.7071C29.8946 40.5196 30 40.2652 30 40V39C30 38.7348 30.1054 38.4804 30.2929 38.2929C30.4804 38.1054 30.7348 38 31 38C30.7348 38 30.4804 37.8946 30.2929 37.7071C30.1054 37.5196 30 37.2652 30 37V36C30 35.7348 29.8946 35.4804 29.7071 35.2929C29.5196 35.1054 29.2652 35 29 35" stroke="#3B5998" stroke-linecap="round" stroke-linejoin="round"/>
</svg>
