<svg width="45" height="45" viewBox="0 0 45 45" fill="none" xmlns="http://www.w3.org/2000/svg">
<path fill-rule="evenodd" clip-rule="evenodd" d="M0 2C0 0.895431 0.895431 0 2 0H18C19.1046 0 20 0.895431 20 2V18C20 19.1046 19.1046 20 18 20H2C0.895431 20 0 19.1046 0 18V2ZM5.146 8.18207L5.13989 8.1269C4.97699 8.08644 4.75096 8.06621 4.46182 8.06621C4.17674 8.06621 3.87538 8.0846 3.55773 8.12138C3.24414 8.15448 3.04459 8.18391 2.95907 8.20965C2.92242 8.29057 2.90409 8.38437 2.90409 8.49103C3.04256 8.54988 3.24822 8.5977 3.52107 8.63448L2.49481 11.4703C2.3482 11.5034 2.18326 11.5549 2 11.6248L2.05498 11.9283H3.5394C3.56791 11.8878 3.59845 11.8179 3.63103 11.7186C3.66361 11.6156 3.6799 11.5255 3.6799 11.4483L3.2584 11.3986C3.26654 11.3839 3.3317 11.2129 3.45388 10.8855H4.82834L5.07269 11.509C5.01975 11.5274 4.90775 11.566 4.73671 11.6248L4.79169 11.9283H6.27611C6.36978 11.7591 6.41661 11.5991 6.41661 11.4483L5.83628 11.3821L4.81612 8.65655C4.93015 8.63448 5.01364 8.60506 5.06658 8.56828C5.11952 8.46161 5.146 8.33287 5.146 8.18207ZM4.35186 9.64414L4.17471 8.91586H4.11362L3.91814 9.67724L3.63103 10.3669H4.65119L4.35186 9.64414ZM8.28135 11.3986C8.75376 11.3986 8.98996 11.2166 8.98996 10.8524C8.98996 10.6979 8.90037 10.5674 8.72118 10.4607C8.59086 10.3798 8.41167 10.2933 8.18361 10.2014C7.95962 10.1057 7.79061 10.0303 7.67658 9.97517C7.56663 9.92 7.43834 9.84276 7.29173 9.74345C7.01073 9.54851 6.87023 9.30575 6.87023 9.01517C6.87023 8.7246 6.99444 8.48368 7.24286 8.29241C7.49536 8.09747 7.83541 8 8.26302 8C8.69063 8 9.14675 8.12322 9.63138 8.36965C9.63138 8.63448 9.60083 8.92138 9.53975 9.23034C9.40943 9.26713 9.21598 9.28552 8.95942 9.28552L8.78226 8.62897C8.63158 8.58851 8.46665 8.56828 8.28746 8.56828C8.10827 8.56828 7.9698 8.60322 7.87206 8.6731C7.77432 8.74299 7.72545 8.84782 7.72545 8.98759C7.72545 9.12368 7.80079 9.2469 7.95148 9.35724C8.10623 9.46391 8.29153 9.56322 8.50737 9.65517C8.72321 9.74345 8.87186 9.80598 8.95331 9.84276C9.03476 9.87954 9.13861 9.93471 9.26485 10.0083C9.3911 10.0818 9.4868 10.1517 9.55196 10.2179C9.71894 10.3945 9.80242 10.5913 9.80242 10.8083C9.80242 11.1908 9.66192 11.4851 9.38092 11.691C9.09992 11.897 8.73339 12 8.28135 12C8.04107 12 7.77636 11.9632 7.48721 11.8897C7.20214 11.8124 6.95983 11.7149 6.76027 11.5972C6.76842 11.3729 6.801 11.0694 6.85801 10.6869C7.02091 10.6575 7.21639 10.6428 7.44445 10.6428L7.57274 11.3048C7.79672 11.3674 8.03293 11.3986 8.28135 11.3986ZM12.7117 9.30759L12.901 9.3131C13.0476 9.3131 13.178 9.30023 13.292 9.27448C13.3531 8.92138 13.3836 8.61977 13.3836 8.36965C13.2289 8.28138 13.0415 8.20046 12.8216 8.1269C12.5732 8.0423 12.2881 8 11.9664 8C11.3189 8 10.8465 8.16736 10.5492 8.50207C10.2559 8.83678 10.1093 9.32598 10.1093 9.96966C10.1093 11.3232 10.7161 12 11.9297 12C12.2148 12 12.504 11.9595 12.7972 11.8786C13.0945 11.7977 13.292 11.7241 13.3897 11.6579C13.3897 11.4078 13.3571 11.0823 13.292 10.6814C13.1576 10.6556 12.9621 10.6428 12.7055 10.6428L12.5773 11.3159C12.4144 11.3894 12.1944 11.4262 11.9175 11.4262C11.27 11.4262 10.9462 10.9186 10.9462 9.90345C10.9462 9.70483 10.9707 9.49333 11.0195 9.26897C11.0684 9.0446 11.1356 8.86069 11.2211 8.71724C11.5103 8.63264 11.7709 8.59034 12.003 8.59034C12.1211 8.59034 12.2983 8.60874 12.5345 8.64552L12.7117 9.30759ZM15.5694 8.06621C15.5654 8.06621 15.5654 8.06988 15.5694 8.07724C15.5776 8.0846 15.5857 8.10115 15.5939 8.1269C15.6061 8.14897 15.6183 8.17655 15.6305 8.20965C15.655 8.26851 15.6713 8.36598 15.6794 8.50207C15.4717 8.53149 15.3353 8.54988 15.2701 8.55724L15.2396 11.3986L15.6611 11.4483C15.6611 11.5991 15.6142 11.7591 15.5206 11.9283H14.0362L13.9812 11.6248C14.2092 11.5402 14.3803 11.4869 14.4943 11.4648C14.4902 11.2478 14.4841 10.9425 14.476 10.549C14.4638 9.66621 14.4515 8.99862 14.4393 8.54621L13.9323 8.40276L13.9812 8.06621H15.5694ZM17.89 8.07724C17.886 8.06988 17.886 8.06621 17.89 8.06621H16.3018L16.2529 8.40276L16.7599 8.54621C16.7721 8.99862 16.7844 9.66621 16.7966 10.549C16.8047 10.9425 16.8108 11.2478 16.8149 11.4648C16.7009 11.4869 16.5298 11.5402 16.3018 11.6248L16.3568 11.9283H17.8412C17.9348 11.7591 17.9817 11.5991 17.9817 11.4483L17.5602 11.3986L17.5907 8.55724C17.6559 8.54988 17.7923 8.53149 18 8.50207C17.9919 8.36598 17.9756 8.26851 17.9511 8.20965C17.9389 8.17655 17.9267 8.14897 17.9145 8.1269C17.9063 8.10115 17.8982 8.0846 17.89 8.07724Z" fill="#3B5998"/>
<path d="M9.5 24C9.5 23.7239 9.27614 23.5 9 23.5C8.72386 23.5 8.5 23.7239 8.5 24L9.5 24ZM22.3536 35.3536C22.5488 35.1583 22.5488 34.8417 22.3536 34.6464L19.1716 31.4645C18.9763 31.2692 18.6597 31.2692 18.4645 31.4645C18.2692 31.6597 18.2692 31.9763 18.4645 32.1716L21.2929 35L18.4645 37.8284C18.2692 38.0237 18.2692 38.3403 18.4645 38.5355C18.6597 38.7308 18.9763 38.7308 19.1716 38.5355L22.3536 35.3536ZM8.5 24C8.5 26.7635 8.68556 28.881 9.13967 30.4948C9.59782 32.123 10.3377 33.2668 11.4557 34.0368C12.5568 34.7952 13.9683 35.1506 15.6873 35.3256C17.407 35.5006 19.502 35.5 22 35.5V34.5C19.4837 34.5 17.4465 34.4994 15.7886 34.3307C14.1299 34.1619 12.9181 33.8298 12.0229 33.2132C11.1444 32.6082 10.5147 31.6895 10.1023 30.2239C9.68587 28.744 9.5 26.7365 9.5 24L8.5 24Z" fill="#8B9DC3"/>
<path fill-rule="evenodd" clip-rule="evenodd" d="M27 25H43C44.1046 25 45 25.8954 45 27V43C45 44.1046 44.1046 45 43 45H27C25.8954 45 25 44.1046 25 43V27C25 25.8954 25.8954 25 27 25ZM29.94 39.01H27.47L27.38 38.46C27.7267 38.32 28.0067 38.2233 28.22 38.17C28.22 38.15 28.19 36.3867 28.13 32.88C28.0233 32.8533 27.7467 32.7667 27.3 32.62L27.38 32.01H30.15C30.9433 32.01 31.56 32.1633 32 32.47C32.44 32.7767 32.66 33.22 32.66 33.8C32.66 34.08 32.5833 34.3833 32.43 34.71C32.2833 35.0367 32.1133 35.23 31.92 35.29C32.2133 35.45 32.4433 35.6733 32.61 35.96C32.7767 36.2467 32.86 36.5767 32.86 36.95C32.86 37.5633 32.61 38.06 32.11 38.44C31.61 38.82 30.8867 39.01 29.94 39.01ZM31.54 36.97C31.54 37.71 31.0233 38.08 29.99 38.08C29.85 38.08 29.6667 38.0733 29.44 38.06L29.48 35.73C30.3533 35.73 30.9133 35.8033 31.16 35.95C31.4133 36.09 31.54 36.43 31.54 36.97ZM31.02 34.71C30.8067 34.83 30.4433 34.8967 29.93 34.91L29.47 34.9C29.47 34.4733 29.4767 33.84 29.49 33H29.85C30.35 33 30.7233 33.0633 30.97 33.19C31.2167 33.3167 31.34 33.5733 31.34 33.96C31.34 34.34 31.2333 34.59 31.02 34.71ZM35.9288 33.89C35.8955 33.8833 35.8155 33.88 35.6888 33.88C34.7355 33.88 34.0622 33.9333 33.6688 34.04C33.6222 34.3533 33.5988 34.5933 33.5988 34.76C33.7855 34.82 34.0755 34.87 34.4688 34.91L34.5788 38.15C34.3922 38.1967 34.0922 38.2967 33.6788 38.45L33.7688 39H36.2588C36.4122 38.6933 36.4888 38.4033 36.4888 38.13L35.7088 38.04C35.7155 37.32 35.7322 36.24 35.7588 34.8C35.8722 34.52 35.9288 34.2167 35.9288 33.89ZM35.6888 31.99C35.7488 32.29 35.7788 32.52 35.7788 32.68C35.7788 32.8333 35.7655 33.0067 35.7388 33.2C35.4722 33.26 35.2455 33.29 35.0588 33.29C34.8788 33.29 34.6588 33.28 34.3988 33.26C34.3388 32.96 34.3088 32.7333 34.3088 32.58C34.3088 32.42 34.3222 32.2433 34.3488 32.05C34.6155 31.99 34.8388 31.96 35.0188 31.96C35.2055 31.96 35.4288 31.97 35.6888 31.99ZM41.465 34.29C41.165 33.9633 40.6817 33.8 40.015 33.8C39.9417 33.8 39.7417 33.8533 39.415 33.96C39.0883 34.0667 38.8117 34.1767 38.585 34.29C38.4583 34.05 38.3583 33.9067 38.285 33.86C37.6983 33.86 37.1717 33.9233 36.705 34.05L36.655 34.77C36.935 34.8433 37.1983 34.8933 37.445 34.92C37.4517 35.26 37.4717 35.7833 37.505 36.49C37.545 37.1967 37.5683 37.75 37.575 38.15C37.3083 38.2233 37.0083 38.3233 36.675 38.45L36.765 39H39.255C39.4083 38.6933 39.485 38.4033 39.485 38.13L38.705 38.04C38.7117 37.66 38.7283 37.1467 38.755 36.5C38.7883 35.8467 38.8083 35.3767 38.815 35.09C39.1417 34.9433 39.5117 34.87 39.925 34.87C40.1983 34.87 40.375 34.9633 40.455 35.15C40.535 35.3367 40.585 35.6933 40.605 36.22C40.625 36.74 40.645 37.3833 40.665 38.15C40.3983 38.2233 40.1083 38.3233 39.795 38.45L39.885 39H42.375C42.5283 38.6933 42.605 38.4033 42.605 38.13L41.815 38.04C41.8817 37.04 41.915 36.2467 41.915 35.66C41.915 35.0733 41.765 34.6167 41.465 34.29Z" fill="#3B5998"/>
</svg>
