<svg width="45" height="45" viewBox="0 0 45 45" fill="none" xmlns="http://www.w3.org/2000/svg">
<path fill-rule="evenodd" clip-rule="evenodd" d="M2 0H18C19.1046 0 20 0.895431 20 2V18C20 19.1046 19.1046 20 18 20H2C0.895431 20 0 19.1046 0 18V2C0 0.895431 0.895431 0 2 0ZM4.94 14.01H2.47L2.38 13.46C2.72667 13.32 3.00667 13.2233 3.22 13.17C3.22 13.15 3.19 11.3867 3.13 7.88C3.02333 7.85333 2.74667 7.76667 2.3 7.62L2.38 7.01H5.15C5.94333 7.01 6.56 7.16333 7 7.47C7.44 7.77667 7.66 8.22 7.66 8.8C7.66 9.08 7.58333 9.38333 7.43 9.71C7.28333 10.0367 7.11333 10.23 6.92 10.29C7.21333 10.45 7.44333 10.6733 7.61 10.96C7.77667 11.2467 7.86 11.5767 7.86 11.95C7.86 12.5633 7.61 13.06 7.11 13.44C6.61 13.82 5.88667 14.01 4.94 14.01ZM6.54 11.97C6.54 12.71 6.02333 13.08 4.99 13.08C4.85 13.08 4.66667 13.0733 4.44 13.06L4.48 10.73C5.35333 10.73 5.91333 10.8033 6.16 10.95C6.41333 11.09 6.54 11.43 6.54 11.97ZM6.02 9.71C5.80667 9.83 5.44333 9.89667 4.93 9.91L4.47 9.9C4.47 9.47333 4.47667 8.84 4.49 8H4.85C5.35 8 5.72333 8.06333 5.97 8.19C6.21667 8.31667 6.34 8.57333 6.34 8.96C6.34 9.34 6.23333 9.59 6.02 9.71ZM10.9288 8.89C10.8955 8.88333 10.8155 8.88 10.6888 8.88C9.73549 8.88 9.06216 8.93333 8.66883 9.04C8.62216 9.35333 8.59883 9.59333 8.59883 9.76C8.78549 9.82 9.07549 9.87 9.46883 9.91L9.57883 13.15C9.39216 13.1967 9.09216 13.2967 8.67883 13.45L8.76883 14H11.2588C11.4122 13.6933 11.4888 13.4033 11.4888 13.13L10.7088 13.04C10.7155 12.32 10.7322 11.24 10.7588 9.8C10.8722 9.52 10.9288 9.21667 10.9288 8.89ZM10.6888 6.99C10.7488 7.29 10.7788 7.52 10.7788 7.68C10.7788 7.83333 10.7655 8.00667 10.7388 8.2C10.4722 8.26 10.2455 8.29 10.0588 8.29C9.87883 8.29 9.65883 8.28 9.39883 8.26C9.33883 7.96 9.30883 7.73333 9.30883 7.58C9.30883 7.42 9.32216 7.24333 9.34883 7.05C9.61549 6.99 9.83883 6.96 10.0188 6.96C10.2055 6.96 10.4288 6.97 10.6888 6.99ZM16.465 9.29C16.165 8.96333 15.6817 8.8 15.015 8.8C14.9417 8.8 14.7417 8.85333 14.415 8.96C14.0883 9.06667 13.8117 9.17667 13.585 9.29C13.4583 9.05 13.3583 8.90667 13.285 8.86C12.6983 8.86 12.1717 8.92333 11.705 9.05L11.655 9.77C11.935 9.84333 12.1983 9.89333 12.445 9.92C12.4517 10.26 12.4717 10.7833 12.505 11.49C12.545 12.1967 12.5683 12.75 12.575 13.15C12.3083 13.2233 12.0083 13.3233 11.675 13.45L11.765 14H14.255C14.4083 13.6933 14.485 13.4033 14.485 13.13L13.705 13.04C13.7117 12.66 13.7283 12.1467 13.755 11.5C13.7883 10.8467 13.8083 10.3767 13.815 10.09C14.1417 9.94333 14.5117 9.87 14.925 9.87C15.1983 9.87 15.375 9.96333 15.455 10.15C15.535 10.3367 15.585 10.6933 15.605 11.22C15.625 11.74 15.645 12.3833 15.665 13.15C15.3983 13.2233 15.1083 13.3233 14.795 13.45L14.885 14H17.375C17.5283 13.6933 17.605 13.4033 17.605 13.13L16.815 13.04C16.8817 12.04 16.915 11.2467 16.915 10.66C16.915 10.0733 16.765 9.61667 16.465 9.29Z" fill="#3B5998"/>
<path d="M9.5 24C9.5 23.7239 9.27614 23.5 9 23.5C8.72386 23.5 8.5 23.7239 8.5 24L9.5 24ZM22.3536 35.3536C22.5488 35.1583 22.5488 34.8417 22.3536 34.6464L19.1716 31.4645C18.9763 31.2692 18.6597 31.2692 18.4645 31.4645C18.2692 31.6597 18.2692 31.9763 18.4645 32.1716L21.2929 35L18.4645 37.8284C18.2692 38.0237 18.2692 38.3403 18.4645 38.5355C18.6597 38.7308 18.9763 38.7308 19.1716 38.5355L22.3536 35.3536ZM8.5 24C8.5 26.7635 8.68556 28.881 9.13967 30.4948C9.59782 32.123 10.3377 33.2668 11.4557 34.0368C12.5568 34.7952 13.9683 35.1506 15.6873 35.3256C17.407 35.5006 19.502 35.5 22 35.5V34.5C19.4837 34.5 17.4465 34.4994 15.7886 34.3307C14.1299 34.1619 12.9181 33.8298 12.0229 33.2132C11.1444 32.6082 10.5147 31.6895 10.1023 30.2239C9.68587 28.744 9.5 26.7365 9.5 24L8.5 24Z" fill="#8B9DC3"/>
<path fill-rule="evenodd" clip-rule="evenodd" d="M25 27C25 25.8954 25.8954 25 27 25H43C44.1046 25 45 25.8954 45 27V43C45 44.1046 44.1046 45 43 45H27C25.8954 45 25 44.1046 25 43V27ZM30.146 33.1821L30.1399 33.1269C29.977 33.0864 29.751 33.0662 29.4618 33.0662C29.1767 33.0662 28.8754 33.0846 28.5577 33.1214C28.2441 33.1545 28.0446 33.1839 27.9591 33.2097C27.9224 33.2906 27.9041 33.3844 27.9041 33.491C28.0426 33.5499 28.2482 33.5977 28.5211 33.6345L27.4948 36.4703C27.3482 36.5034 27.1833 36.5549 27 36.6248L27.055 36.9283H28.5394C28.5679 36.8878 28.5985 36.8179 28.631 36.7186C28.6636 36.6156 28.6799 36.5255 28.6799 36.4483L28.2584 36.3986C28.2665 36.3839 28.3317 36.2129 28.4539 35.8855H29.8283L30.0727 36.509C30.0197 36.5274 29.9078 36.566 29.7367 36.6248L29.7917 36.9283H31.2761C31.3698 36.7591 31.4166 36.5991 31.4166 36.4483L30.8363 36.3821L29.8161 33.6566C29.9302 33.6345 30.0136 33.6051 30.0666 33.5683C30.1195 33.4616 30.146 33.3329 30.146 33.1821ZM29.3519 34.6441L29.1747 33.9159H29.1136L28.9181 34.6772L28.631 35.3669H29.6512L29.3519 34.6441ZM33.2813 36.3986C33.7538 36.3986 33.99 36.2166 33.99 35.8524C33.99 35.6979 33.9004 35.5674 33.7212 35.4607C33.5909 35.3798 33.4117 35.2933 33.1836 35.2014C32.9596 35.1057 32.7906 35.0303 32.6766 34.9752C32.5666 34.92 32.4383 34.8428 32.2917 34.7434C32.0107 34.5485 31.8702 34.3057 31.8702 34.0152C31.8702 33.7246 31.9944 33.4837 32.2429 33.2924C32.4954 33.0975 32.8354 33 33.263 33C33.6906 33 34.1468 33.1232 34.6314 33.3697C34.6314 33.6345 34.6008 33.9214 34.5397 34.2303C34.4094 34.2671 34.216 34.2855 33.9594 34.2855L33.7823 33.629C33.6316 33.5885 33.4666 33.5683 33.2875 33.5683C33.1083 33.5683 32.9698 33.6032 32.8721 33.6731C32.7743 33.743 32.7255 33.8478 32.7255 33.9876C32.7255 34.1237 32.8008 34.2469 32.9515 34.3572C33.1062 34.4639 33.2915 34.5632 33.5074 34.6552C33.7232 34.7434 33.8719 34.806 33.9533 34.8428C34.0348 34.8795 34.1386 34.9347 34.2649 35.0083C34.3911 35.0818 34.4868 35.1517 34.552 35.2179C34.7189 35.3945 34.8024 35.5913 34.8024 35.8083C34.8024 36.1908 34.6619 36.4851 34.3809 36.691C34.0999 36.897 33.7334 37 33.2813 37C33.0411 37 32.7764 36.9632 32.4872 36.8897C32.2021 36.8124 31.9598 36.7149 31.7603 36.5972C31.7684 36.3729 31.801 36.0694 31.858 35.6869C32.0209 35.6575 32.2164 35.6428 32.4445 35.6428L32.5727 36.3048C32.7967 36.3674 33.0329 36.3986 33.2813 36.3986ZM37.7117 34.3076L37.901 34.3131C38.0476 34.3131 38.178 34.3002 38.292 34.2745C38.3531 33.9214 38.3836 33.6198 38.3836 33.3697C38.2289 33.2814 38.0415 33.2005 37.8216 33.1269C37.5732 33.0423 37.2881 33 36.9664 33C36.3189 33 35.8465 33.1674 35.5492 33.5021C35.2559 33.8368 35.1093 34.326 35.1093 34.9697C35.1093 36.3232 35.7161 37 36.9297 37C37.2148 37 37.504 36.9595 37.7972 36.8786C38.0945 36.7977 38.292 36.7241 38.3897 36.6579C38.3897 36.4078 38.3571 36.0823 38.292 35.6814C38.1576 35.6556 37.9621 35.6428 37.7055 35.6428L37.5773 36.3159C37.4144 36.3894 37.1944 36.4262 36.9175 36.4262C36.27 36.4262 35.9462 35.9186 35.9462 34.9034C35.9462 34.7048 35.9707 34.4933 36.0195 34.269C36.0684 34.0446 36.1356 33.8607 36.2211 33.7172C36.5103 33.6326 36.7709 33.5903 37.003 33.5903C37.1211 33.5903 37.2983 33.6087 37.5345 33.6455L37.7117 34.3076ZM40.5694 33.0662C40.5654 33.0662 40.5654 33.0699 40.5694 33.0772C40.5776 33.0846 40.5857 33.1011 40.5939 33.1269C40.6061 33.149 40.6183 33.1766 40.6305 33.2097C40.655 33.2685 40.6713 33.366 40.6794 33.5021C40.4717 33.5315 40.3353 33.5499 40.2701 33.5572L40.2396 36.3986L40.6611 36.4483C40.6611 36.5991 40.6142 36.7591 40.5206 36.9283H39.0362L38.9812 36.6248C39.2092 36.5402 39.3803 36.4869 39.4943 36.4648C39.4902 36.2478 39.4841 35.9425 39.476 35.549C39.4638 34.6662 39.4515 33.9986 39.4393 33.5462L38.9323 33.4028L38.9812 33.0662H40.5694ZM42.89 33.0772C42.886 33.0699 42.886 33.0662 42.89 33.0662H41.3018L41.2529 33.4028L41.7599 33.5462C41.7721 33.9986 41.7844 34.6662 41.7966 35.549C41.8047 35.9425 41.8108 36.2478 41.8149 36.4648C41.7009 36.4869 41.5298 36.5402 41.3018 36.6248L41.3568 36.9283H42.8412C42.9348 36.7591 42.9817 36.5991 42.9817 36.4483L42.5602 36.3986L42.5907 33.5572C42.6559 33.5499 42.7923 33.5315 43 33.5021C42.9919 33.366 42.9756 33.2685 42.9511 33.2097C42.9389 33.1766 42.9267 33.149 42.9145 33.1269C42.9063 33.1011 42.8982 33.0846 42.89 33.0772Z" fill="#3B5998"/>
</svg>
