<svg width="45" height="45" viewBox="0 0 45 45" fill="none" xmlns="http://www.w3.org/2000/svg">
<path fill-rule="evenodd" clip-rule="evenodd" d="M2 0H18C19.1046 0 20 0.895431 20 2V18C20 19.1046 19.1046 20 18 20H2C0.895431 20 0 19.1046 0 18V2C0 0.895431 0.895431 0 2 0ZM4.94 14.01H2.47L2.38 13.46C2.72667 13.32 3.00667 13.2233 3.22 13.17C3.22 13.15 3.19 11.3867 3.13 7.88C3.02333 7.85333 2.74667 7.76667 2.3 7.62L2.38 7.01H5.15C5.94333 7.01 6.56 7.16333 7 7.47C7.44 7.77667 7.66 8.22 7.66 8.8C7.66 9.08 7.58333 9.38333 7.43 9.71C7.28333 10.0367 7.11333 10.23 6.92 10.29C7.21333 10.45 7.44333 10.6733 7.61 10.96C7.77667 11.2467 7.86 11.5767 7.86 11.95C7.86 12.5633 7.61 13.06 7.11 13.44C6.61 13.82 5.88667 14.01 4.94 14.01ZM6.54 11.97C6.54 12.71 6.02333 13.08 4.99 13.08C4.85 13.08 4.66667 13.0733 4.44 13.06L4.48 10.73C5.35333 10.73 5.91333 10.8033 6.16 10.95C6.41333 11.09 6.54 11.43 6.54 11.97ZM6.02 9.71C5.80667 9.83 5.44333 9.89667 4.93 9.91L4.47 9.9C4.47 9.47333 4.47667 8.84 4.49 8H4.85C5.35 8 5.72333 8.06333 5.97 8.19C6.21667 8.31667 6.34 8.57333 6.34 8.96C6.34 9.34 6.23333 9.59 6.02 9.71ZM10.9288 8.89C10.8955 8.88333 10.8155 8.88 10.6888 8.88C9.73549 8.88 9.06216 8.93333 8.66883 9.04C8.62216 9.35333 8.59883 9.59333 8.59883 9.76C8.78549 9.82 9.07549 9.87 9.46883 9.91L9.57883 13.15C9.39216 13.1967 9.09216 13.2967 8.67883 13.45L8.76883 14H11.2588C11.4122 13.6933 11.4888 13.4033 11.4888 13.13L10.7088 13.04C10.7155 12.32 10.7322 11.24 10.7588 9.8C10.8722 9.52 10.9288 9.21667 10.9288 8.89ZM10.6888 6.99C10.7488 7.29 10.7788 7.52 10.7788 7.68C10.7788 7.83333 10.7655 8.00667 10.7388 8.2C10.4722 8.26 10.2455 8.29 10.0588 8.29C9.87883 8.29 9.65883 8.28 9.39883 8.26C9.33883 7.96 9.30883 7.73333 9.30883 7.58C9.30883 7.42 9.32216 7.24333 9.34883 7.05C9.61549 6.99 9.83883 6.96 10.0188 6.96C10.2055 6.96 10.4288 6.97 10.6888 6.99ZM16.465 9.29C16.165 8.96333 15.6817 8.8 15.015 8.8C14.9417 8.8 14.7417 8.85333 14.415 8.96C14.0883 9.06667 13.8117 9.17667 13.585 9.29C13.4583 9.05 13.3583 8.90667 13.285 8.86C12.6983 8.86 12.1717 8.92333 11.705 9.05L11.655 9.77C11.935 9.84333 12.1983 9.89333 12.445 9.92C12.4517 10.26 12.4717 10.7833 12.505 11.49C12.545 12.1967 12.5683 12.75 12.575 13.15C12.3083 13.2233 12.0083 13.3233 11.675 13.45L11.765 14H14.255C14.4083 13.6933 14.485 13.4033 14.485 13.13L13.705 13.04C13.7117 12.66 13.7283 12.1467 13.755 11.5C13.7883 10.8467 13.8083 10.3767 13.815 10.09C14.1417 9.94333 14.5117 9.87 14.925 9.87C15.1983 9.87 15.375 9.96333 15.455 10.15C15.535 10.3367 15.585 10.6933 15.605 11.22C15.625 11.74 15.645 12.3833 15.665 13.15C15.3983 13.2233 15.1083 13.3233 14.795 13.45L14.885 14H17.375C17.5283 13.6933 17.605 13.4033 17.605 13.13L16.815 13.04C16.8817 12.04 16.915 11.2467 16.915 10.66C16.915 10.0733 16.765 9.61667 16.465 9.29Z" fill="#3B5998"/>
<path d="M9.5 24C9.5 23.7239 9.27614 23.5 9 23.5C8.72386 23.5 8.5 23.7239 8.5 24L9.5 24ZM22.3536 35.3536C22.5488 35.1583 22.5488 34.8417 22.3536 34.6464L19.1716 31.4645C18.9763 31.2692 18.6597 31.2692 18.4645 31.4645C18.2692 31.6597 18.2692 31.9763 18.4645 32.1716L21.2929 35L18.4645 37.8284C18.2692 38.0237 18.2692 38.3403 18.4645 38.5355C18.6597 38.7308 18.9763 38.7308 19.1716 38.5355L22.3536 35.3536ZM8.5 24C8.5 26.7635 8.68556 28.881 9.13967 30.4948C9.59782 32.123 10.3377 33.2668 11.4557 34.0368C12.5568 34.7952 13.9683 35.1506 15.6873 35.3256C17.407 35.5006 19.502 35.5 22 35.5V34.5C19.4837 34.5 17.4465 34.4994 15.7886 34.3307C14.1299 34.1619 12.9181 33.8298 12.0229 33.2132C11.1444 32.6082 10.5147 31.6895 10.1023 30.2239C9.68587 28.744 9.5 26.7365 9.5 24L8.5 24Z" fill="#8B9DC3"/>
<path fill-rule="evenodd" clip-rule="evenodd" d="M27 25C25.8954 25 25 25.8954 25 27V43C25 44.1046 25.8954 45 27 45H43C44.1046 45 45 44.1046 45 43V27C45 25.8954 44.1046 25 43 25H27ZM27.9137 38H26.4023L28.3654 32.1818H30.2376L32.2006 38H30.6893L30.3057 36.7784H28.2965L27.9137 38ZM32.8271 38V32.1818H35.2532C35.6888 32.1818 36.0534 32.2434 36.3469 32.3665C36.6424 32.4896 36.864 32.662 37.0117 32.8835C37.1613 33.1051 37.2362 33.3618 37.2362 33.6534C37.2362 33.875 37.1897 34.0729 37.0969 34.2472C37.0041 34.4195 36.8763 34.5625 36.7134 34.6762C36.5505 34.7898 36.3621 34.8693 36.1481 34.9148V34.9716C36.3829 34.983 36.5998 35.0464 36.7987 35.162C36.9994 35.2775 37.1604 35.4385 37.2816 35.6449C37.4028 35.8495 37.4634 36.0919 37.4634 36.3722C37.4634 36.6847 37.3839 36.964 37.2248 37.2102C37.0657 37.4546 36.8356 37.6477 36.5344 37.7898C36.2333 37.9299 35.8678 38 35.4379 38H32.8271ZM35.1026 36.8665H34.2333V35.4801H35.1282C35.3081 35.4801 35.4625 35.5104 35.5913 35.571C35.7201 35.6298 35.8195 35.714 35.8896 35.8239C35.9596 35.9318 35.9947 36.0606 35.9947 36.2102C35.9947 36.4167 35.9218 36.5777 35.7759 36.6932C35.632 36.8087 35.4076 36.8665 35.1026 36.8665ZM35.0117 34.5739H34.2333V33.2983H35.0344C35.2693 33.2983 35.4558 33.3542 35.5941 33.4659C35.7324 33.5777 35.8015 33.7311 35.8015 33.9262C35.8015 34.0625 35.7674 34.179 35.6992 34.2756C35.6329 34.3722 35.5401 34.446 35.4208 34.4972C35.3015 34.5483 35.1651 34.5739 35.0117 34.5739ZM42.0004 34.2898H43.4208C43.3867 33.9413 43.2987 33.6317 43.1566 33.3608C43.0146 33.09 42.8299 32.8618 42.6026 32.6762C42.3754 32.4887 42.1121 32.3466 41.8129 32.25C41.5136 32.1515 41.1879 32.1023 40.8356 32.1023C40.3185 32.1023 39.8517 32.2178 39.435 32.4489C39.0183 32.6799 38.6879 33.018 38.4435 33.4631C38.1992 33.9082 38.0771 34.4508 38.0771 35.0909C38.0771 35.7292 38.1973 36.2709 38.4379 36.7159C38.6784 37.161 39.006 37.5 39.4208 37.733C39.8375 37.964 40.3091 38.0796 40.8356 38.0796C41.2352 38.0796 41.5894 38.019 41.8981 37.8977C42.2087 37.7765 42.4719 37.6137 42.6879 37.4091C42.9038 37.2027 43.0733 36.9745 43.1964 36.7245C43.3214 36.4745 43.3962 36.2207 43.4208 35.9631L42.0004 35.9546C41.9757 36.0947 41.9312 36.2207 41.8668 36.3324C41.8043 36.4423 41.7238 36.536 41.6254 36.6137C41.5288 36.6894 41.4161 36.7472 41.2873 36.787C41.1604 36.8267 41.0193 36.8466 40.864 36.8466C40.5875 36.8466 40.3479 36.7813 40.1452 36.6506C39.9445 36.518 39.7882 36.322 39.6765 36.0625C39.5666 35.8012 39.5117 35.4773 39.5117 35.0909C39.5117 34.7197 39.5657 34.4034 39.6737 34.1421C39.7835 33.8807 39.9397 33.6809 40.1424 33.5426C40.3469 33.4044 40.5903 33.3352 40.8725 33.3352C41.0316 33.3352 41.1765 33.358 41.3072 33.4034C41.4398 33.447 41.5543 33.5104 41.6509 33.5938C41.7475 33.6771 41.8252 33.7775 41.8839 33.8949C41.9426 34.0123 41.9814 34.144 42.0004 34.2898Z" fill="#3B5998"/>
<path d="M29.3228 33.6477H29.2773L28.6311 35.7102H29.9704L29.3228 33.6477Z" fill="#3B5998"/>
</svg>
