<svg width="45" height="45" viewBox="0 0 45 45" fill="none" xmlns="http://www.w3.org/2000/svg">
<path fill-rule="evenodd" clip-rule="evenodd" d="M2 0H18C19.1046 0 20 0.895431 20 2V18C20 19.1046 19.1046 20 18 20H2C0.895431 20 0 19.1046 0 18V2C0 0.895431 0.895431 0 2 0ZM4.94 14.01H2.47L2.38 13.46C2.72667 13.32 3.00667 13.2233 3.22 13.17C3.22 13.15 3.19 11.3867 3.13 7.88C3.02333 7.85333 2.74667 7.76667 2.3 7.62L2.38 7.01H5.15C5.94333 7.01 6.56 7.16333 7 7.47C7.44 7.77667 7.66 8.22 7.66 8.8C7.66 9.08 7.58333 9.38333 7.43 9.71C7.28333 10.0367 7.11333 10.23 6.92 10.29C7.21333 10.45 7.44333 10.6733 7.61 10.96C7.77667 11.2467 7.86 11.5767 7.86 11.95C7.86 12.5633 7.61 13.06 7.11 13.44C6.61 13.82 5.88667 14.01 4.94 14.01ZM6.54 11.97C6.54 12.71 6.02333 13.08 4.99 13.08C4.85 13.08 4.66667 13.0733 4.44 13.06L4.48 10.73C5.35333 10.73 5.91333 10.8033 6.16 10.95C6.41333 11.09 6.54 11.43 6.54 11.97ZM6.02 9.71C5.80667 9.83 5.44333 9.89667 4.93 9.91L4.47 9.9C4.47 9.47333 4.47667 8.84 4.49 8H4.85C5.35 8 5.72333 8.06333 5.97 8.19C6.21667 8.31667 6.34 8.57333 6.34 8.96C6.34 9.34 6.23333 9.59 6.02 9.71ZM10.9288 8.89C10.8955 8.88333 10.8155 8.88 10.6888 8.88C9.73549 8.88 9.06216 8.93333 8.66883 9.04C8.62216 9.35333 8.59883 9.59333 8.59883 9.76C8.78549 9.82 9.07549 9.87 9.46883 9.91L9.57883 13.15C9.39216 13.1967 9.09216 13.2967 8.67883 13.45L8.76883 14H11.2588C11.4122 13.6933 11.4888 13.4033 11.4888 13.13L10.7088 13.04C10.7155 12.32 10.7322 11.24 10.7588 9.8C10.8722 9.52 10.9288 9.21667 10.9288 8.89ZM10.6888 6.99C10.7488 7.29 10.7788 7.52 10.7788 7.68C10.7788 7.83333 10.7655 8.00667 10.7388 8.2C10.4722 8.26 10.2455 8.29 10.0588 8.29C9.87883 8.29 9.65883 8.28 9.39883 8.26C9.33883 7.96 9.30883 7.73333 9.30883 7.58C9.30883 7.42 9.32216 7.24333 9.34883 7.05C9.61549 6.99 9.83883 6.96 10.0188 6.96C10.2055 6.96 10.4288 6.97 10.6888 6.99ZM16.465 9.29C16.165 8.96333 15.6817 8.8 15.015 8.8C14.9417 8.8 14.7417 8.85333 14.415 8.96C14.0883 9.06667 13.8117 9.17667 13.585 9.29C13.4583 9.05 13.3583 8.90667 13.285 8.86C12.6983 8.86 12.1717 8.92333 11.705 9.05L11.655 9.77C11.935 9.84333 12.1983 9.89333 12.445 9.92C12.4517 10.26 12.4717 10.7833 12.505 11.49C12.545 12.1967 12.5683 12.75 12.575 13.15C12.3083 13.2233 12.0083 13.3233 11.675 13.45L11.765 14H14.255C14.4083 13.6933 14.485 13.4033 14.485 13.13L13.705 13.04C13.7117 12.66 13.7283 12.1467 13.755 11.5C13.7883 10.8467 13.8083 10.3767 13.815 10.09C14.1417 9.94333 14.5117 9.87 14.925 9.87C15.1983 9.87 15.375 9.96333 15.455 10.15C15.535 10.3367 15.585 10.6933 15.605 11.22C15.625 11.74 15.645 12.3833 15.665 13.15C15.3983 13.2233 15.1083 13.3233 14.795 13.45L14.885 14H17.375C17.5283 13.6933 17.605 13.4033 17.605 13.13L16.815 13.04C16.8817 12.04 16.915 11.2467 16.915 10.66C16.915 10.0733 16.765 9.61667 16.465 9.29Z" fill="#3B5998"/>
<path d="M9.5 24C9.5 23.7239 9.27614 23.5 9 23.5C8.72386 23.5 8.5 23.7239 8.5 24L9.5 24ZM22.3536 35.3536C22.5488 35.1583 22.5488 34.8417 22.3536 34.6464L19.1716 31.4645C18.9763 31.2692 18.6597 31.2692 18.4645 31.4645C18.2692 31.6597 18.2692 31.9763 18.4645 32.1716L21.2929 35L18.4645 37.8284C18.2692 38.0237 18.2692 38.3403 18.4645 38.5355C18.6597 38.7308 18.9763 38.7308 19.1716 38.5355L22.3536 35.3536ZM8.5 24C8.5 26.7635 8.68556 28.881 9.13967 30.4948C9.59782 32.123 10.3377 33.2668 11.4557 34.0368C12.5568 34.7952 13.9683 35.1506 15.6873 35.3256C17.407 35.5006 19.502 35.5 22 35.5V34.5C19.4837 34.5 17.4465 34.4994 15.7886 34.3307C14.1299 34.1619 12.9181 33.8298 12.0229 33.2132C11.1444 32.6082 10.5147 31.6895 10.1023 30.2239C9.68587 28.744 9.5 26.7365 9.5 24L8.5 24Z" fill="#8B9DC3"/>
<path fill-rule="evenodd" clip-rule="evenodd" d="M25 27C25 25.8954 25.8954 25 27 25H43C44.1046 25 45 25.8954 45 27V43C45 44.1046 44.1046 45 43 45H27C25.8954 45 25 44.1046 25 43V27ZM32.3 38.41C33 37.8367 33.35 36.8167 33.35 35.35C33.35 34.2833 33.11 33.47 32.63 32.91C32.33 32.57 31.9833 32.3333 31.59 32.2C31.2033 32.0667 30.6833 32 30.03 32H27.38C27.3667 32.06 27.34 32.2633 27.3 32.61C27.56 32.71 27.8367 32.7967 28.13 32.87C28.19 36.3767 28.22 38.14 28.22 38.16C28.1667 38.1667 27.8867 38.2633 27.38 38.45L27.47 39H30.06C30.6 39 31.0367 38.96 31.37 38.88C31.7033 38.7933 32.0133 38.6367 32.3 38.41ZM30.15 38.03C30.91 38.03 31.4133 37.8467 31.66 37.48C31.9133 37.1133 32.04 36.48 32.04 35.58C32.04 34.68 31.9 34.0267 31.62 33.62C31.34 33.2067 30.8733 33 30.22 33H29.49C29.4633 35.2467 29.4467 36.9233 29.44 38.03H30.15ZM36.6399 38.14C36.8666 38.14 37.3266 37.9833 38.0199 37.67C38.1666 37.8833 38.2766 38.13 38.3499 38.41C37.9833 38.6367 37.6233 38.8133 37.2699 38.94C36.9233 39.06 36.6766 39.12 36.5299 39.12C35.7233 39.12 35.1099 38.8967 34.6899 38.45C34.2766 38.0033 34.0699 37.37 34.0699 36.55C34.0699 35.7233 34.2766 35.06 34.6899 34.56C35.1033 34.0533 35.7166 33.8 36.5299 33.8C37.1766 33.8 37.6699 34.01 38.0099 34.43C38.3499 34.85 38.5199 35.3967 38.5199 36.07C38.5199 36.21 38.4399 36.37 38.2799 36.55L35.3999 36.5C35.4133 37.0333 35.5133 37.44 35.6999 37.72C35.8866 38 36.1999 38.14 36.6399 38.14ZM35.7299 34.78C35.9499 34.68 36.1866 34.63 36.4399 34.63C36.9199 34.63 37.1766 34.9633 37.2099 35.63C36.5499 35.6367 35.9599 35.65 35.4399 35.67C35.4799 35.3967 35.5766 35.1 35.7299 34.78ZM41.6971 34.62L41.8571 34.63L42.0871 35.7C42.4871 35.7 42.7971 35.6733 43.0171 35.62C43.1438 35.32 43.2171 34.8367 43.2371 34.17C43.0638 34.0633 42.8238 33.9767 42.5171 33.91C42.2171 33.8367 41.9238 33.8 41.6371 33.8C39.9771 33.8 39.1471 34.72 39.1471 36.56C39.1471 37.3733 39.3504 38.0067 39.7571 38.46C40.1638 38.9067 40.7771 39.13 41.5971 39.13C41.7438 39.13 41.9904 39.0667 42.3371 38.94C42.6904 38.8133 43.0504 38.6367 43.4171 38.41C43.4038 38.1567 43.3138 37.9133 43.1471 37.68C42.4138 37.9867 41.9338 38.14 41.7071 38.14C41.2204 38.14 40.8904 37.9833 40.7171 37.67C40.5504 37.3567 40.4671 36.9 40.4671 36.3C40.4671 35.6933 40.5771 35.2633 40.7971 35.01C41.0238 34.75 41.3238 34.62 41.6971 34.62Z" fill="#3B5998"/>
</svg>
