<svg width="45" height="45" viewBox="0 0 45 45" fill="none" xmlns="http://www.w3.org/2000/svg">
<path fill-rule="evenodd" clip-rule="evenodd" d="M2 0H18C19.1046 0 20 0.895431 20 2V18C20 19.1046 19.1046 20 18 20H2C0.895431 20 0 19.1046 0 18V2C0 0.895431 0.895431 0 2 0ZM4.94 14.01H2.47L2.38 13.46C2.72667 13.32 3.00667 13.2233 3.22 13.17C3.22 13.15 3.19 11.3867 3.13 7.88C3.02333 7.85333 2.74667 7.76667 2.3 7.62L2.38 7.01H5.15C5.94333 7.01 6.56 7.16333 7 7.47C7.44 7.77667 7.66 8.22 7.66 8.8C7.66 9.08 7.58333 9.38333 7.43 9.71C7.28333 10.0367 7.11333 10.23 6.92 10.29C7.21333 10.45 7.44333 10.6733 7.61 10.96C7.77667 11.2467 7.86 11.5767 7.86 11.95C7.86 12.5633 7.61 13.06 7.11 13.44C6.61 13.82 5.88667 14.01 4.94 14.01ZM6.54 11.97C6.54 12.71 6.02333 13.08 4.99 13.08C4.85 13.08 4.66667 13.0733 4.44 13.06L4.48 10.73C5.35333 10.73 5.91333 10.8033 6.16 10.95C6.41333 11.09 6.54 11.43 6.54 11.97ZM6.02 9.71C5.80667 9.83 5.44333 9.89667 4.93 9.91L4.47 9.9C4.47 9.47333 4.47667 8.84 4.49 8H4.85C5.35 8 5.72333 8.06333 5.97 8.19C6.21667 8.31667 6.34 8.57333 6.34 8.96C6.34 9.34 6.23333 9.59 6.02 9.71ZM10.9288 8.89C10.8955 8.88333 10.8155 8.88 10.6888 8.88C9.73549 8.88 9.06216 8.93333 8.66883 9.04C8.62216 9.35333 8.59883 9.59333 8.59883 9.76C8.78549 9.82 9.07549 9.87 9.46883 9.91L9.57883 13.15C9.39216 13.1967 9.09216 13.2967 8.67883 13.45L8.76883 14H11.2588C11.4122 13.6933 11.4888 13.4033 11.4888 13.13L10.7088 13.04C10.7155 12.32 10.7322 11.24 10.7588 9.8C10.8722 9.52 10.9288 9.21667 10.9288 8.89ZM10.6888 6.99C10.7488 7.29 10.7788 7.52 10.7788 7.68C10.7788 7.83333 10.7655 8.00667 10.7388 8.2C10.4722 8.26 10.2455 8.29 10.0588 8.29C9.87883 8.29 9.65883 8.28 9.39883 8.26C9.33883 7.96 9.30883 7.73333 9.30883 7.58C9.30883 7.42 9.32216 7.24333 9.34883 7.05C9.61549 6.99 9.83883 6.96 10.0188 6.96C10.2055 6.96 10.4288 6.97 10.6888 6.99ZM16.465 9.29C16.165 8.96333 15.6817 8.8 15.015 8.8C14.9417 8.8 14.7417 8.85333 14.415 8.96C14.0883 9.06667 13.8117 9.17667 13.585 9.29C13.4583 9.05 13.3583 8.90667 13.285 8.86C12.6983 8.86 12.1717 8.92333 11.705 9.05L11.655 9.77C11.935 9.84333 12.1983 9.89333 12.445 9.92C12.4517 10.26 12.4717 10.7833 12.505 11.49C12.545 12.1967 12.5683 12.75 12.575 13.15C12.3083 13.2233 12.0083 13.3233 11.675 13.45L11.765 14H14.255C14.4083 13.6933 14.485 13.4033 14.485 13.13L13.705 13.04C13.7117 12.66 13.7283 12.1467 13.755 11.5C13.7883 10.8467 13.8083 10.3767 13.815 10.09C14.1417 9.94333 14.5117 9.87 14.925 9.87C15.1983 9.87 15.375 9.96333 15.455 10.15C15.535 10.3367 15.585 10.6933 15.605 11.22C15.625 11.74 15.645 12.3833 15.665 13.15C15.3983 13.2233 15.1083 13.3233 14.795 13.45L14.885 14H17.375C17.5283 13.6933 17.605 13.4033 17.605 13.13L16.815 13.04C16.8817 12.04 16.915 11.2467 16.915 10.66C16.915 10.0733 16.765 9.61667 16.465 9.29Z" fill="#3B5998"/>
<path d="M9.5 24C9.5 23.7239 9.27614 23.5 9 23.5C8.72386 23.5 8.5 23.7239 8.5 24L9.5 24ZM22.3536 35.3536C22.5488 35.1583 22.5488 34.8417 22.3536 34.6464L19.1716 31.4645C18.9763 31.2692 18.6597 31.2692 18.4645 31.4645C18.2692 31.6597 18.2692 31.9763 18.4645 32.1716L21.2929 35L18.4645 37.8284C18.2692 38.0237 18.2692 38.3403 18.4645 38.5355C18.6597 38.7308 18.9763 38.7308 19.1716 38.5355L22.3536 35.3536ZM8.5 24C8.5 26.7635 8.68556 28.881 9.13967 30.4948C9.59782 32.123 10.3377 33.2668 11.4557 34.0368C12.5568 34.7952 13.9683 35.1506 15.6873 35.3256C17.407 35.5006 19.502 35.5 22 35.5V34.5C19.4837 34.5 17.4465 34.4994 15.7886 34.3307C14.1299 34.1619 12.9181 33.8298 12.0229 33.2132C11.1444 32.6082 10.5147 31.6895 10.1023 30.2239C9.68587 28.744 9.5 26.7365 9.5 24L8.5 24Z" fill="#8B9DC3"/>
<path fill-rule="evenodd" clip-rule="evenodd" d="M25 27C25 25.8954 25.8954 25 27 25H43C44.1046 25 45 25.8954 45 27V43C45 44.1046 44.1046 45 43 45H27C25.8954 45 25 44.1046 25 43V27ZM43.9798 34.0941C43.9798 34.0286 43.9597 33.9597 43.9193 33.8876H42.4772L41.2267 35.5393L40.5409 34.6742C40.756 34.6348 40.988 34.5529 41.2368 34.4284L41.1762 33.8876H38.4533C38.339 34.176 38.2819 34.4546 38.2819 34.7233L39.2299 34.8511L40.5207 36.434L39.3811 37.948C39.0114 38.0201 38.6349 38.1447 38.2516 38.3216C38.2516 38.5379 38.2752 38.7247 38.3222 38.882H39.8753L41.1157 37.1615L41.8217 38.0562C41.5393 38.1348 41.2737 38.2397 41.025 38.3708L41.1057 38.882H43.8286C43.9429 38.5936 44 38.3085 44 38.0267C43.7042 37.9743 43.4353 37.948 43.1932 37.948L41.8318 36.2767L42.9209 34.7528C43.2504 34.7266 43.5596 34.6676 43.8487 34.5758C43.8554 34.5496 43.8723 34.5037 43.8992 34.4382C43.926 34.3727 43.9462 34.3137 43.9597 34.2612C43.9731 34.2088 43.9798 34.1531 43.9798 34.0941ZM36.1972 38.0365C36.4258 38.0365 36.8897 37.8825 37.5889 37.5744C37.7368 37.7842 37.8477 38.0267 37.9217 38.302C37.5519 38.5248 37.1889 38.6985 36.8325 38.823C36.4829 38.941 36.2342 39 36.0862 39C35.2727 39 34.6542 38.7804 34.2306 38.3413C33.8138 37.9022 33.6054 37.2795 33.6054 36.4733C33.6054 35.6606 33.8138 35.0084 34.2306 34.5169C34.6475 34.0187 35.266 33.7697 36.0862 33.7697C36.7384 33.7697 37.2359 33.9761 37.5788 34.389C37.9217 34.802 38.0931 35.3394 38.0931 36.0014C38.0931 36.139 38.0124 36.2963 37.8511 36.4733L34.9467 36.4242C34.9601 36.9485 35.061 37.3483 35.2492 37.6236C35.4375 37.8989 35.7534 38.0365 36.1972 38.0365ZM35.2795 34.7331C35.5013 34.6348 35.74 34.5857 35.9955 34.5857C36.4796 34.5857 36.7384 34.9134 36.772 35.5688C36.1064 35.5754 35.5114 35.5885 34.987 35.6081C35.0273 35.3394 35.1248 35.0478 35.2795 34.7331ZM30.8205 35.736L30.8609 38.0562C30.6726 38.0955 30.3903 38.1905 30.0138 38.3413L30.1045 38.882H32.5551C32.7098 38.5805 32.7871 38.2954 32.7871 38.0267L32.0912 37.9382L32.1417 32.875C32.2492 32.8619 32.4745 32.8291 32.8173 32.7767C32.7972 32.4359 32.7333 32.177 32.6257 32H30.0138L29.9331 32.5997L30.7701 32.8553L30.8004 34.7921H28.1884C28.1884 34.3661 28.1951 33.7271 28.2086 32.875C28.3161 32.8619 28.5414 32.8291 28.8843 32.7767C28.8641 32.4359 28.8002 32.177 28.6926 32H26.0807L26 32.5997L26.837 32.8553C26.8975 36.3029 26.9278 38.0365 26.9278 38.0562C26.7396 38.0955 26.4572 38.1905 26.0807 38.3413L26.1714 38.882H28.6221C28.7767 38.5805 28.854 38.2954 28.854 38.0267L28.1582 37.9382C28.1582 37.4532 28.1649 36.7191 28.1783 35.736H30.8205Z" fill="#3B5998"/>
</svg>
