<svg width="45" height="45" viewBox="0 0 45 45" fill="none" xmlns="http://www.w3.org/2000/svg">
<path fill-rule="evenodd" clip-rule="evenodd" d="M0 2C0 0.895431 0.895431 0 2 0H18C19.1046 0 20 0.895431 20 2V18C20 19.1046 19.1046 20 18 20H2C0.895431 20 0 19.1046 0 18V2ZM7.3 13.41C8 12.8367 8.35 11.8167 8.35 10.35C8.35 9.28333 8.11 8.47 7.63 7.91C7.33 7.57 6.98333 7.33333 6.59 7.2C6.20333 7.06667 5.68333 7 5.03 7H2.38C2.36667 7.06 2.34 7.26333 2.3 7.61C2.56 7.71 2.83667 7.79667 3.13 7.87C3.19 11.3767 3.22 13.14 3.22 13.16C3.16667 13.1667 2.88667 13.2633 2.38 13.45L2.47 14H5.06C5.6 14 6.03667 13.96 6.37 13.88C6.70333 13.7933 7.01333 13.6367 7.3 13.41ZM5.15 13.03C5.91 13.03 6.41333 12.8467 6.66 12.48C6.91333 12.1133 7.04 11.48 7.04 10.58C7.04 9.68 6.9 9.02667 6.62 8.62C6.34 8.20667 5.87333 8 5.22 8H4.49C4.46333 10.2467 4.44667 11.9233 4.44 13.03H5.15ZM11.6399 13.14C11.8666 13.14 12.3266 12.9833 13.0199 12.67C13.1666 12.8833 13.2766 13.13 13.3499 13.41C12.9833 13.6367 12.6233 13.8133 12.2699 13.94C11.9233 14.06 11.6766 14.12 11.5299 14.12C10.7233 14.12 10.1099 13.8967 9.68992 13.45C9.27659 13.0033 9.06992 12.37 9.06992 11.55C9.06992 10.7233 9.27659 10.06 9.68992 9.56C10.1033 9.05333 10.7166 8.8 11.5299 8.8C12.1766 8.8 12.6699 9.01 13.0099 9.43C13.3499 9.85 13.5199 10.3967 13.5199 11.07C13.5199 11.21 13.4399 11.37 13.2799 11.55L10.3999 11.5C10.4133 12.0333 10.5133 12.44 10.6999 12.72C10.8866 13 11.1999 13.14 11.6399 13.14ZM10.7299 9.78C10.9499 9.68 11.1866 9.63 11.4399 9.63C11.9199 9.63 12.1766 9.96333 12.2099 10.63C11.5499 10.6367 10.9599 10.65 10.4399 10.67C10.4799 10.3967 10.5766 10.1 10.7299 9.78ZM16.6971 9.62L16.8571 9.63L17.0871 10.7C17.4871 10.7 17.7971 10.6733 18.0171 10.62C18.1438 10.32 18.2171 9.83667 18.2371 9.17C18.0638 9.06333 17.8238 8.97667 17.5171 8.91C17.2171 8.83667 16.9238 8.8 16.6371 8.8C14.9771 8.8 14.1471 9.72 14.1471 11.56C14.1471 12.3733 14.3504 13.0067 14.7571 13.46C15.1638 13.9067 15.7771 14.13 16.5971 14.13C16.7438 14.13 16.9904 14.0667 17.3371 13.94C17.6904 13.8133 18.0504 13.6367 18.4171 13.41C18.4038 13.1567 18.3138 12.9133 18.1471 12.68C17.4138 12.9867 16.9338 13.14 16.7071 13.14C16.2204 13.14 15.8904 12.9833 15.7171 12.67C15.5504 12.3567 15.4671 11.9 15.4671 11.3C15.4671 10.6933 15.5771 10.2633 15.7971 10.01C16.0238 9.75 16.3238 9.62 16.6971 9.62Z" fill="#3B5998"/>
<path d="M9.5 24C9.5 23.7239 9.27614 23.5 9 23.5C8.72386 23.5 8.5 23.7239 8.5 24L9.5 24ZM22.3536 35.3536C22.5488 35.1583 22.5488 34.8417 22.3536 34.6464L19.1716 31.4645C18.9763 31.2692 18.6597 31.2692 18.4645 31.4645C18.2692 31.6597 18.2692 31.9763 18.4645 32.1716L21.2929 35L18.4645 37.8284C18.2692 38.0237 18.2692 38.3403 18.4645 38.5355C18.6597 38.7308 18.9763 38.7308 19.1716 38.5355L22.3536 35.3536ZM8.5 24C8.5 26.7635 8.68556 28.881 9.13967 30.4948C9.59782 32.123 10.3377 33.2668 11.4557 34.0368C12.5568 34.7952 13.9683 35.1506 15.6873 35.3256C17.407 35.5006 19.502 35.5 22 35.5V34.5C19.4837 34.5 17.4465 34.4994 15.7886 34.3307C14.1299 34.1619 12.9181 33.8298 12.0229 33.2132C11.1444 32.6082 10.5147 31.6895 10.1023 30.2239C9.68587 28.744 9.5 26.7365 9.5 24L8.5 24Z" fill="#8B9DC3"/>
<path fill-rule="evenodd" clip-rule="evenodd" d="M27 25H43C44.1046 25 45 25.8954 45 27V43C45 44.1046 44.1046 45 43 45H27C25.8954 45 25 44.1046 25 43V27C25 25.8954 25.8954 25 27 25ZM29.94 39.01H27.47L27.38 38.46C27.7267 38.32 28.0067 38.2233 28.22 38.17C28.22 38.15 28.19 36.3867 28.13 32.88C28.0233 32.8533 27.7467 32.7667 27.3 32.62L27.38 32.01H30.15C30.9433 32.01 31.56 32.1633 32 32.47C32.44 32.7767 32.66 33.22 32.66 33.8C32.66 34.08 32.5833 34.3833 32.43 34.71C32.2833 35.0367 32.1133 35.23 31.92 35.29C32.2133 35.45 32.4433 35.6733 32.61 35.96C32.7767 36.2467 32.86 36.5767 32.86 36.95C32.86 37.5633 32.61 38.06 32.11 38.44C31.61 38.82 30.8867 39.01 29.94 39.01ZM31.54 36.97C31.54 37.71 31.0233 38.08 29.99 38.08C29.85 38.08 29.6667 38.0733 29.44 38.06L29.48 35.73C30.3533 35.73 30.9133 35.8033 31.16 35.95C31.4133 36.09 31.54 36.43 31.54 36.97ZM31.02 34.71C30.8067 34.83 30.4433 34.8967 29.93 34.91L29.47 34.9C29.47 34.4733 29.4767 33.84 29.49 33H29.85C30.35 33 30.7233 33.0633 30.97 33.19C31.2167 33.3167 31.34 33.5733 31.34 33.96C31.34 34.34 31.2333 34.59 31.02 34.71ZM35.9288 33.89C35.8955 33.8833 35.8155 33.88 35.6888 33.88C34.7355 33.88 34.0622 33.9333 33.6688 34.04C33.6222 34.3533 33.5988 34.5933 33.5988 34.76C33.7855 34.82 34.0755 34.87 34.4688 34.91L34.5788 38.15C34.3922 38.1967 34.0922 38.2967 33.6788 38.45L33.7688 39H36.2588C36.4122 38.6933 36.4888 38.4033 36.4888 38.13L35.7088 38.04C35.7155 37.32 35.7322 36.24 35.7588 34.8C35.8722 34.52 35.9288 34.2167 35.9288 33.89ZM35.6888 31.99C35.7488 32.29 35.7788 32.52 35.7788 32.68C35.7788 32.8333 35.7655 33.0067 35.7388 33.2C35.4722 33.26 35.2455 33.29 35.0588 33.29C34.8788 33.29 34.6588 33.28 34.3988 33.26C34.3388 32.96 34.3088 32.7333 34.3088 32.58C34.3088 32.42 34.3222 32.2433 34.3488 32.05C34.6155 31.99 34.8388 31.96 35.0188 31.96C35.2055 31.96 35.4288 31.97 35.6888 31.99ZM41.465 34.29C41.165 33.9633 40.6817 33.8 40.015 33.8C39.9417 33.8 39.7417 33.8533 39.415 33.96C39.0883 34.0667 38.8117 34.1767 38.585 34.29C38.4583 34.05 38.3583 33.9067 38.285 33.86C37.6983 33.86 37.1717 33.9233 36.705 34.05L36.655 34.77C36.935 34.8433 37.1983 34.8933 37.445 34.92C37.4517 35.26 37.4717 35.7833 37.505 36.49C37.545 37.1967 37.5683 37.75 37.575 38.15C37.3083 38.2233 37.0083 38.3233 36.675 38.45L36.765 39H39.255C39.4083 38.6933 39.485 38.4033 39.485 38.13L38.705 38.04C38.7117 37.66 38.7283 37.1467 38.755 36.5C38.7883 35.8467 38.8083 35.3767 38.815 35.09C39.1417 34.9433 39.5117 34.87 39.925 34.87C40.1983 34.87 40.375 34.9633 40.455 35.15C40.535 35.3367 40.585 35.6933 40.605 36.22C40.625 36.74 40.645 37.3833 40.665 38.15C40.3983 38.2233 40.1083 38.3233 39.795 38.45L39.885 39H42.375C42.5283 38.6933 42.605 38.4033 42.605 38.13L41.815 38.04C41.8817 37.04 41.915 36.2467 41.915 35.66C41.915 35.0733 41.765 34.6167 41.465 34.29Z" fill="#3B5998"/>
</svg>
