<svg width="45" height="45" viewBox="0 0 45 45" fill="none" xmlns="http://www.w3.org/2000/svg">
<path fill-rule="evenodd" clip-rule="evenodd" d="M0 2C0 0.895431 0.895431 0 2 0H18C19.1046 0 20 0.895431 20 2V18C20 19.1046 19.1046 20 18 20H2C0.895431 20 0 19.1046 0 18V2ZM7.3 13.41C8 12.8367 8.35 11.8167 8.35 10.35C8.35 9.28333 8.11 8.47 7.63 7.91C7.33 7.57 6.98333 7.33333 6.59 7.2C6.20333 7.06667 5.68333 7 5.03 7H2.38C2.36667 7.06 2.34 7.26333 2.3 7.61C2.56 7.71 2.83667 7.79667 3.13 7.87C3.19 11.3767 3.22 13.14 3.22 13.16C3.16667 13.1667 2.88667 13.2633 2.38 13.45L2.47 14H5.06C5.6 14 6.03667 13.96 6.37 13.88C6.70333 13.7933 7.01333 13.6367 7.3 13.41ZM5.15 13.03C5.91 13.03 6.41333 12.8467 6.66 12.48C6.91333 12.1133 7.04 11.48 7.04 10.58C7.04 9.68 6.9 9.02667 6.62 8.62C6.34 8.20667 5.87333 8 5.22 8H4.49C4.46333 10.2467 4.44667 11.9233 4.44 13.03H5.15ZM11.6399 13.14C11.8666 13.14 12.3266 12.9833 13.0199 12.67C13.1666 12.8833 13.2766 13.13 13.3499 13.41C12.9833 13.6367 12.6233 13.8133 12.2699 13.94C11.9233 14.06 11.6766 14.12 11.5299 14.12C10.7233 14.12 10.1099 13.8967 9.68992 13.45C9.27659 13.0033 9.06992 12.37 9.06992 11.55C9.06992 10.7233 9.27659 10.06 9.68992 9.56C10.1033 9.05333 10.7166 8.8 11.5299 8.8C12.1766 8.8 12.6699 9.01 13.0099 9.43C13.3499 9.85 13.5199 10.3967 13.5199 11.07C13.5199 11.21 13.4399 11.37 13.2799 11.55L10.3999 11.5C10.4133 12.0333 10.5133 12.44 10.6999 12.72C10.8866 13 11.1999 13.14 11.6399 13.14ZM10.7299 9.78C10.9499 9.68 11.1866 9.63 11.4399 9.63C11.9199 9.63 12.1766 9.96333 12.2099 10.63C11.5499 10.6367 10.9599 10.65 10.4399 10.67C10.4799 10.3967 10.5766 10.1 10.7299 9.78ZM16.6971 9.62L16.8571 9.63L17.0871 10.7C17.4871 10.7 17.7971 10.6733 18.0171 10.62C18.1438 10.32 18.2171 9.83667 18.2371 9.17C18.0638 9.06333 17.8238 8.97667 17.5171 8.91C17.2171 8.83667 16.9238 8.8 16.6371 8.8C14.9771 8.8 14.1471 9.72 14.1471 11.56C14.1471 12.3733 14.3504 13.0067 14.7571 13.46C15.1638 13.9067 15.7771 14.13 16.5971 14.13C16.7438 14.13 16.9904 14.0667 17.3371 13.94C17.6904 13.8133 18.0504 13.6367 18.4171 13.41C18.4038 13.1567 18.3138 12.9133 18.1471 12.68C17.4138 12.9867 16.9338 13.14 16.7071 13.14C16.2204 13.14 15.8904 12.9833 15.7171 12.67C15.5504 12.3567 15.4671 11.9 15.4671 11.3C15.4671 10.6933 15.5771 10.2633 15.7971 10.01C16.0238 9.75 16.3238 9.62 16.6971 9.62Z" fill="#3B5998"/>
<path d="M9.5 24C9.5 23.7239 9.27614 23.5 9 23.5C8.72386 23.5 8.5 23.7239 8.5 24L9.5 24ZM22.3536 35.3536C22.5488 35.1583 22.5488 34.8417 22.3536 34.6464L19.1716 31.4645C18.9763 31.2692 18.6597 31.2692 18.4645 31.4645C18.2692 31.6597 18.2692 31.9763 18.4645 32.1716L21.2929 35L18.4645 37.8284C18.2692 38.0237 18.2692 38.3403 18.4645 38.5355C18.6597 38.7308 18.9763 38.7308 19.1716 38.5355L22.3536 35.3536ZM8.5 24C8.5 26.7635 8.68556 28.881 9.13967 30.4948C9.59782 32.123 10.3377 33.2668 11.4557 34.0368C12.5568 34.7952 13.9683 35.1506 15.6873 35.3256C17.407 35.5006 19.502 35.5 22 35.5V34.5C19.4837 34.5 17.4465 34.4994 15.7886 34.3307C14.1299 34.1619 12.9181 33.8298 12.0229 33.2132C11.1444 32.6082 10.5147 31.6895 10.1023 30.2239C9.68587 28.744 9.5 26.7365 9.5 24L8.5 24Z" fill="#8B9DC3"/>
<path fill-rule="evenodd" clip-rule="evenodd" d="M27 25C25.8954 25 25 25.8954 25 27V43C25 44.1046 25.8954 45 27 45H43C44.1046 45 45 44.1046 45 43V27C45 25.8954 44.1046 25 43 25H27ZM27.9137 38H26.4023L28.3654 32.1818H30.2376L32.2006 38H30.6893L30.3057 36.7784H28.2965L27.9137 38ZM32.8271 38V32.1818H35.2532C35.6888 32.1818 36.0534 32.2434 36.3469 32.3665C36.6424 32.4896 36.864 32.662 37.0117 32.8835C37.1613 33.1051 37.2362 33.3618 37.2362 33.6534C37.2362 33.875 37.1897 34.0729 37.0969 34.2472C37.0041 34.4195 36.8763 34.5625 36.7134 34.6762C36.5505 34.7898 36.3621 34.8693 36.1481 34.9148V34.9716C36.3829 34.983 36.5998 35.0464 36.7987 35.162C36.9994 35.2775 37.1604 35.4385 37.2816 35.6449C37.4028 35.8495 37.4634 36.0919 37.4634 36.3722C37.4634 36.6847 37.3839 36.964 37.2248 37.2102C37.0657 37.4546 36.8356 37.6477 36.5344 37.7898C36.2333 37.9299 35.8678 38 35.4379 38H32.8271ZM35.1026 36.8665H34.2333V35.4801H35.1282C35.3081 35.4801 35.4625 35.5104 35.5913 35.571C35.7201 35.6298 35.8195 35.714 35.8896 35.8239C35.9596 35.9318 35.9947 36.0606 35.9947 36.2102C35.9947 36.4167 35.9218 36.5777 35.7759 36.6932C35.632 36.8087 35.4076 36.8665 35.1026 36.8665ZM35.0117 34.5739H34.2333V33.2983H35.0344C35.2693 33.2983 35.4558 33.3542 35.5941 33.4659C35.7324 33.5777 35.8015 33.7311 35.8015 33.9262C35.8015 34.0625 35.7674 34.179 35.6992 34.2756C35.6329 34.3722 35.5401 34.446 35.4208 34.4972C35.3015 34.5483 35.1651 34.5739 35.0117 34.5739ZM42.0004 34.2898H43.4208C43.3867 33.9413 43.2987 33.6317 43.1566 33.3608C43.0146 33.09 42.8299 32.8618 42.6026 32.6762C42.3754 32.4887 42.1121 32.3466 41.8129 32.25C41.5136 32.1515 41.1879 32.1023 40.8356 32.1023C40.3185 32.1023 39.8517 32.2178 39.435 32.4489C39.0183 32.6799 38.6879 33.018 38.4435 33.4631C38.1992 33.9082 38.0771 34.4508 38.0771 35.0909C38.0771 35.7292 38.1973 36.2709 38.4379 36.7159C38.6784 37.161 39.006 37.5 39.4208 37.733C39.8375 37.964 40.3091 38.0796 40.8356 38.0796C41.2352 38.0796 41.5894 38.019 41.8981 37.8977C42.2087 37.7765 42.4719 37.6137 42.6879 37.4091C42.9038 37.2027 43.0733 36.9745 43.1964 36.7245C43.3214 36.4745 43.3962 36.2207 43.4208 35.9631L42.0004 35.9546C41.9757 36.0947 41.9312 36.2207 41.8668 36.3324C41.8043 36.4423 41.7238 36.536 41.6254 36.6137C41.5288 36.6894 41.4161 36.7472 41.2873 36.787C41.1604 36.8267 41.0193 36.8466 40.864 36.8466C40.5875 36.8466 40.3479 36.7813 40.1452 36.6506C39.9445 36.518 39.7882 36.322 39.6765 36.0625C39.5666 35.8012 39.5117 35.4773 39.5117 35.0909C39.5117 34.7197 39.5657 34.4034 39.6737 34.1421C39.7835 33.8807 39.9397 33.6809 40.1424 33.5426C40.3469 33.4044 40.5903 33.3352 40.8725 33.3352C41.0316 33.3352 41.1765 33.358 41.3072 33.4034C41.4398 33.447 41.5543 33.5104 41.6509 33.5938C41.7475 33.6771 41.8252 33.7775 41.8839 33.8949C41.9426 34.0123 41.9814 34.144 42.0004 34.2898Z" fill="#3B5998"/>
<path d="M29.3228 33.6477H29.2773L28.6311 35.7102H29.9704L29.3228 33.6477Z" fill="#3B5998"/>
</svg>
