<svg width="45" height="45" viewBox="0 0 45 45" fill="none" xmlns="http://www.w3.org/2000/svg">
<path fill-rule="evenodd" clip-rule="evenodd" d="M0 2C0 0.895431 0.895431 0 2 0H18C19.1046 0 20 0.895431 20 2V18C20 19.1046 19.1046 20 18 20H2C0.895431 20 0 19.1046 0 18V2ZM18.9798 9.0941C18.9798 9.02856 18.9597 8.95974 18.9193 8.88764H17.4772L16.2267 10.5393L15.5409 9.67416C15.756 9.63483 15.988 9.5529 16.2368 9.42837L16.1762 8.88764H13.4533C13.339 9.17603 13.2819 9.45459 13.2819 9.72332L14.2299 9.85112L15.5207 11.434L14.3811 12.948C14.0114 13.0201 13.6349 13.1447 13.2516 13.3216C13.2516 13.5379 13.2752 13.7247 13.3222 13.882H14.8753L16.1157 12.1615L16.8217 13.0562C16.5393 13.1348 16.2737 13.2397 16.025 13.3708L16.1057 13.882H18.8286C18.9429 13.5936 19 13.3085 19 13.0267C18.7042 12.9743 18.4353 12.948 18.1932 12.948L16.8318 11.2767L17.9209 9.75281C18.2504 9.72659 18.5596 9.6676 18.8487 9.57584C18.8554 9.54963 18.8723 9.50375 18.8992 9.4382C18.926 9.37266 18.9462 9.31367 18.9597 9.26124C18.9731 9.2088 18.9798 9.15309 18.9798 9.0941ZM11.1972 13.0365C11.4258 13.0365 11.8897 12.8825 12.5889 12.5744C12.7368 12.7842 12.8477 13.0267 12.9217 13.302C12.5519 13.5248 12.1889 13.6985 11.8325 13.823C11.4829 13.941 11.2342 14 11.0862 14C10.2727 14 9.6542 13.7804 9.23064 13.3413C8.8138 12.9022 8.60538 12.2795 8.60538 11.4733C8.60538 10.6606 8.8138 10.0084 9.23064 9.51685C9.64748 9.01873 10.266 8.76966 11.0862 8.76966C11.7384 8.76966 12.2359 8.97612 12.5788 9.38904C12.9217 9.80197 13.0931 10.3394 13.0931 11.0014C13.0931 11.139 13.0124 11.2963 12.8511 11.4733L9.94666 11.4242C9.96011 11.9485 10.061 12.3483 10.2492 12.6236C10.4375 12.8989 10.7534 13.0365 11.1972 13.0365ZM10.2795 9.73315C10.5013 9.63483 10.74 9.58567 10.9955 9.58567C11.4796 9.58567 11.7384 9.91339 11.772 10.5688C11.1064 10.5754 10.5114 10.5885 9.987 10.6081C10.0273 10.3394 10.1248 10.0478 10.2795 9.73315ZM5.82055 10.736L5.86089 13.0562C5.67264 13.0955 5.39026 13.1905 5.01376 13.3413L5.10453 13.882H7.55514C7.70977 13.5805 7.78709 13.2954 7.78709 13.0267L7.09124 12.9382L7.14166 7.875C7.24923 7.86189 7.47446 7.82912 7.81734 7.77669C7.79717 7.43586 7.7333 7.17697 7.62573 7H5.01376L4.93308 7.59972L5.77012 7.85534L5.80038 9.79214H3.18841C3.18841 9.36611 3.19513 8.72706 3.20858 7.875C3.31615 7.86189 3.54138 7.82912 3.88426 7.77669C3.86409 7.43586 3.80022 7.17697 3.69265 7H1.08068L1 7.59972L1.83704 7.85534C1.89755 11.3029 1.9278 13.0365 1.9278 13.0562C1.73955 13.0955 1.45718 13.1905 1.08068 13.3413L1.17144 13.882H3.62206C3.77669 13.5805 3.85401 13.2954 3.85401 13.0267L3.15815 12.9382C3.15815 12.4532 3.16488 11.7191 3.17832 10.736H5.82055Z" fill="#3B5998"/>
<path d="M9.5 24C9.5 23.7239 9.27614 23.5 9 23.5C8.72386 23.5 8.5 23.7239 8.5 24L9.5 24ZM22.3536 35.3536C22.5488 35.1583 22.5488 34.8417 22.3536 34.6464L19.1716 31.4645C18.9763 31.2692 18.6597 31.2692 18.4645 31.4645C18.2692 31.6597 18.2692 31.9763 18.4645 32.1716L21.2929 35L18.4645 37.8284C18.2692 38.0237 18.2692 38.3403 18.4645 38.5355C18.6597 38.7308 18.9763 38.7308 19.1716 38.5355L22.3536 35.3536ZM8.5 24C8.5 26.7635 8.68556 28.881 9.13967 30.4948C9.59782 32.123 10.3377 33.2668 11.4557 34.0368C12.5568 34.7952 13.9683 35.1506 15.6873 35.3256C17.407 35.5006 19.502 35.5 22 35.5V34.5C19.4837 34.5 17.4465 34.4994 15.7886 34.3307C14.1299 34.1619 12.9181 33.8298 12.0229 33.2132C11.1444 32.6082 10.5147 31.6895 10.1023 30.2239C9.68587 28.744 9.5 26.7365 9.5 24L8.5 24Z" fill="#8B9DC3"/>
<path fill-rule="evenodd" clip-rule="evenodd" d="M27 25H43C44.1046 25 45 25.8954 45 27V43C45 44.1046 44.1046 45 43 45H27C25.8954 45 25 44.1046 25 43V27C25 25.8954 25.8954 25 27 25ZM29.94 39.01H27.47L27.38 38.46C27.7267 38.32 28.0067 38.2233 28.22 38.17C28.22 38.15 28.19 36.3867 28.13 32.88C28.0233 32.8533 27.7467 32.7667 27.3 32.62L27.38 32.01H30.15C30.9433 32.01 31.56 32.1633 32 32.47C32.44 32.7767 32.66 33.22 32.66 33.8C32.66 34.08 32.5833 34.3833 32.43 34.71C32.2833 35.0367 32.1133 35.23 31.92 35.29C32.2133 35.45 32.4433 35.6733 32.61 35.96C32.7767 36.2467 32.86 36.5767 32.86 36.95C32.86 37.5633 32.61 38.06 32.11 38.44C31.61 38.82 30.8867 39.01 29.94 39.01ZM31.54 36.97C31.54 37.71 31.0233 38.08 29.99 38.08C29.85 38.08 29.6667 38.0733 29.44 38.06L29.48 35.73C30.3533 35.73 30.9133 35.8033 31.16 35.95C31.4133 36.09 31.54 36.43 31.54 36.97ZM31.02 34.71C30.8067 34.83 30.4433 34.8967 29.93 34.91L29.47 34.9C29.47 34.4733 29.4767 33.84 29.49 33H29.85C30.35 33 30.7233 33.0633 30.97 33.19C31.2167 33.3167 31.34 33.5733 31.34 33.96C31.34 34.34 31.2333 34.59 31.02 34.71ZM35.9288 33.89C35.8955 33.8833 35.8155 33.88 35.6888 33.88C34.7355 33.88 34.0622 33.9333 33.6688 34.04C33.6222 34.3533 33.5988 34.5933 33.5988 34.76C33.7855 34.82 34.0755 34.87 34.4688 34.91L34.5788 38.15C34.3922 38.1967 34.0922 38.2967 33.6788 38.45L33.7688 39H36.2588C36.4122 38.6933 36.4888 38.4033 36.4888 38.13L35.7088 38.04C35.7155 37.32 35.7322 36.24 35.7588 34.8C35.8722 34.52 35.9288 34.2167 35.9288 33.89ZM35.6888 31.99C35.7488 32.29 35.7788 32.52 35.7788 32.68C35.7788 32.8333 35.7655 33.0067 35.7388 33.2C35.4722 33.26 35.2455 33.29 35.0588 33.29C34.8788 33.29 34.6588 33.28 34.3988 33.26C34.3388 32.96 34.3088 32.7333 34.3088 32.58C34.3088 32.42 34.3222 32.2433 34.3488 32.05C34.6155 31.99 34.8388 31.96 35.0188 31.96C35.2055 31.96 35.4288 31.97 35.6888 31.99ZM41.465 34.29C41.165 33.9633 40.6817 33.8 40.015 33.8C39.9417 33.8 39.7417 33.8533 39.415 33.96C39.0883 34.0667 38.8117 34.1767 38.585 34.29C38.4583 34.05 38.3583 33.9067 38.285 33.86C37.6983 33.86 37.1717 33.9233 36.705 34.05L36.655 34.77C36.935 34.8433 37.1983 34.8933 37.445 34.92C37.4517 35.26 37.4717 35.7833 37.505 36.49C37.545 37.1967 37.5683 37.75 37.575 38.15C37.3083 38.2233 37.0083 38.3233 36.675 38.45L36.765 39H39.255C39.4083 38.6933 39.485 38.4033 39.485 38.13L38.705 38.04C38.7117 37.66 38.7283 37.1467 38.755 36.5C38.7883 35.8467 38.8083 35.3767 38.815 35.09C39.1417 34.9433 39.5117 34.87 39.925 34.87C40.1983 34.87 40.375 34.9633 40.455 35.15C40.535 35.3367 40.585 35.6933 40.605 36.22C40.625 36.74 40.645 37.3833 40.665 38.15C40.3983 38.2233 40.1083 38.3233 39.795 38.45L39.885 39H42.375C42.5283 38.6933 42.605 38.4033 42.605 38.13L41.815 38.04C41.8817 37.04 41.915 36.2467 41.915 35.66C41.915 35.0733 41.765 34.6167 41.465 34.29Z" fill="#3B5998"/>
</svg>
