<svg width="45" height="45" viewBox="0 0 45 45" fill="none" xmlns="http://www.w3.org/2000/svg">
<path fill-rule="evenodd" clip-rule="evenodd" d="M2 0C0.895431 0 0 0.895431 0 2V18C0 19.1046 0.895431 20 2 20H18C19.1046 20 20 19.1046 20 18V2C20 0.895431 19.1046 0 18 0H2ZM2.91371 13H1.40234L3.36541 7.18184H5.23757L7.20064 13H5.68928L5.30573 11.7784H3.29645L2.91371 13ZM7.82706 13V7.18184H10.2532C10.6888 7.18184 11.0534 7.24339 11.3469 7.3665C11.6424 7.48961 11.864 7.66195 12.0117 7.88354C12.1613 8.10514 12.2362 8.36176 12.2362 8.65343C12.2362 8.87502 12.1897 9.07294 12.0969 9.24718C12.0041 9.41953 11.8763 9.56252 11.7134 9.67616C11.5505 9.78979 11.3621 9.86934 11.1481 9.91479V9.97161C11.3829 9.98298 11.5998 10.0464 11.7987 10.162C11.9994 10.2775 12.1604 10.4385 12.2816 10.6449C12.4028 10.8495 12.4634 11.0919 12.4634 11.3722C12.4634 11.6847 12.3839 11.964 12.2248 12.2102C12.0657 12.4546 11.8356 12.6477 11.5344 12.7898C11.2333 12.9299 10.8678 13 10.4379 13H7.82706ZM10.1026 11.8665H9.23331V10.4801H10.1282C10.3081 10.4801 10.4625 10.5104 10.5913 10.571C10.7201 10.6298 10.8195 10.714 10.8896 10.8239C10.9596 10.9318 10.9947 11.0606 10.9947 11.2102C10.9947 11.4167 10.9218 11.5777 10.7759 11.6932C10.632 11.8087 10.4076 11.8665 10.1026 11.8665ZM10.0117 9.57389H9.23331V8.29832H10.0344C10.2693 8.29832 10.4558 8.35419 10.5941 8.46593C10.7324 8.57767 10.8015 8.73108 10.8015 8.92616C10.8015 9.06252 10.7674 9.179 10.6992 9.27559C10.6329 9.37218 10.5401 9.44604 10.4208 9.49718C10.3015 9.54832 10.1651 9.57389 10.0117 9.57389ZM17.0004 9.28979H18.4208C18.3867 8.94131 18.2987 8.63165 18.1566 8.36082C18.0146 8.08998 17.8299 7.86176 17.6026 7.67616C17.3754 7.48866 17.1121 7.34661 16.8129 7.25002C16.5136 7.15154 16.1879 7.10229 15.8356 7.10229C15.3185 7.10229 14.8517 7.21783 14.435 7.44889C14.0183 7.67995 13.6879 8.01801 13.4435 8.46309C13.1992 8.90817 13.0771 9.45078 13.0771 10.0909C13.0771 10.7292 13.1973 11.2709 13.4379 11.7159C13.6784 12.161 14.006 12.5 14.4208 12.733C14.8375 12.964 15.3091 13.0796 15.8356 13.0796C16.2352 13.0796 16.5894 13.019 16.8981 12.8977C17.2087 12.7765 17.4719 12.6137 17.6879 12.4091C17.9038 12.2027 18.0733 11.9745 18.1964 11.7245C18.3214 11.4745 18.3962 11.2207 18.4208 10.9631L17.0004 10.9546C16.9757 11.0947 16.9312 11.2207 16.8668 11.3324C16.8043 11.4423 16.7238 11.536 16.6254 11.6137C16.5288 11.6894 16.4161 11.7472 16.2873 11.787C16.1604 11.8267 16.0193 11.8466 15.864 11.8466C15.5875 11.8466 15.3479 11.7813 15.1452 11.6506C14.9445 11.518 14.7882 11.322 14.6765 11.0625C14.5666 10.8012 14.5117 10.4773 14.5117 10.0909C14.5117 9.71972 14.5657 9.40343 14.6737 9.14207C14.7835 8.8807 14.9397 8.68089 15.1424 8.54264C15.3469 8.40438 15.5903 8.33525 15.8725 8.33525C16.0316 8.33525 16.1765 8.35798 16.3072 8.40343C16.4398 8.44699 16.5543 8.51044 16.6509 8.59377C16.7475 8.67711 16.8252 8.77748 16.8839 8.89491C16.9426 9.01233 16.9814 9.14396 17.0004 9.28979Z" fill="#3B5998"/>
<path d="M4.3228 8.64775H4.27734L3.63113 10.7102H4.97036L4.3228 8.64775Z" fill="#3B5998"/>
<path d="M9.5 24C9.5 23.7239 9.27614 23.5 9 23.5C8.72386 23.5 8.5 23.7239 8.5 24L9.5 24ZM22.3536 35.3536C22.5488 35.1583 22.5488 34.8417 22.3536 34.6464L19.1716 31.4645C18.9763 31.2692 18.6597 31.2692 18.4645 31.4645C18.2692 31.6597 18.2692 31.9763 18.4645 32.1716L21.2929 35L18.4645 37.8284C18.2692 38.0237 18.2692 38.3403 18.4645 38.5355C18.6597 38.7308 18.9763 38.7308 19.1716 38.5355L22.3536 35.3536ZM8.5 24C8.5 26.7635 8.68556 28.881 9.13967 30.4948C9.59782 32.123 10.3377 33.2668 11.4557 34.0368C12.5568 34.7952 13.9683 35.1506 15.6873 35.3256C17.407 35.5006 19.502 35.5 22 35.5V34.5C19.4837 34.5 17.4465 34.4994 15.7886 34.3307C14.1299 34.1619 12.9181 33.8298 12.0229 33.2132C11.1444 32.6082 10.5147 31.6895 10.1023 30.2239C9.68587 28.744 9.5 26.7365 9.5 24L8.5 24Z" fill="#8B9DC3"/>
<path fill-rule="evenodd" clip-rule="evenodd" d="M27 25H43C44.1046 25 45 25.8954 45 27V43C45 44.1046 44.1046 45 43 45H27C25.8954 45 25 44.1046 25 43V27C25 25.8954 25.8954 25 27 25ZM29.94 39.01H27.47L27.38 38.46C27.7267 38.32 28.0067 38.2233 28.22 38.17C28.22 38.15 28.19 36.3867 28.13 32.88C28.0233 32.8533 27.7467 32.7667 27.3 32.62L27.38 32.01H30.15C30.9433 32.01 31.56 32.1633 32 32.47C32.44 32.7767 32.66 33.22 32.66 33.8C32.66 34.08 32.5833 34.3833 32.43 34.71C32.2833 35.0367 32.1133 35.23 31.92 35.29C32.2133 35.45 32.4433 35.6733 32.61 35.96C32.7767 36.2467 32.86 36.5767 32.86 36.95C32.86 37.5633 32.61 38.06 32.11 38.44C31.61 38.82 30.8867 39.01 29.94 39.01ZM31.54 36.97C31.54 37.71 31.0233 38.08 29.99 38.08C29.85 38.08 29.6667 38.0733 29.44 38.06L29.48 35.73C30.3533 35.73 30.9133 35.8033 31.16 35.95C31.4133 36.09 31.54 36.43 31.54 36.97ZM31.02 34.71C30.8067 34.83 30.4433 34.8967 29.93 34.91L29.47 34.9C29.47 34.4733 29.4767 33.84 29.49 33H29.85C30.35 33 30.7233 33.0633 30.97 33.19C31.2167 33.3167 31.34 33.5733 31.34 33.96C31.34 34.34 31.2333 34.59 31.02 34.71ZM35.9288 33.89C35.8955 33.8833 35.8155 33.88 35.6888 33.88C34.7355 33.88 34.0622 33.9333 33.6688 34.04C33.6222 34.3533 33.5988 34.5933 33.5988 34.76C33.7855 34.82 34.0755 34.87 34.4688 34.91L34.5788 38.15C34.3922 38.1967 34.0922 38.2967 33.6788 38.45L33.7688 39H36.2588C36.4122 38.6933 36.4888 38.4033 36.4888 38.13L35.7088 38.04C35.7155 37.32 35.7322 36.24 35.7588 34.8C35.8722 34.52 35.9288 34.2167 35.9288 33.89ZM35.6888 31.99C35.7488 32.29 35.7788 32.52 35.7788 32.68C35.7788 32.8333 35.7655 33.0067 35.7388 33.2C35.4722 33.26 35.2455 33.29 35.0588 33.29C34.8788 33.29 34.6588 33.28 34.3988 33.26C34.3388 32.96 34.3088 32.7333 34.3088 32.58C34.3088 32.42 34.3222 32.2433 34.3488 32.05C34.6155 31.99 34.8388 31.96 35.0188 31.96C35.2055 31.96 35.4288 31.97 35.6888 31.99ZM41.465 34.29C41.165 33.9633 40.6817 33.8 40.015 33.8C39.9417 33.8 39.7417 33.8533 39.415 33.96C39.0883 34.0667 38.8117 34.1767 38.585 34.29C38.4583 34.05 38.3583 33.9067 38.285 33.86C37.6983 33.86 37.1717 33.9233 36.705 34.05L36.655 34.77C36.935 34.8433 37.1983 34.8933 37.445 34.92C37.4517 35.26 37.4717 35.7833 37.505 36.49C37.545 37.1967 37.5683 37.75 37.575 38.15C37.3083 38.2233 37.0083 38.3233 36.675 38.45L36.765 39H39.255C39.4083 38.6933 39.485 38.4033 39.485 38.13L38.705 38.04C38.7117 37.66 38.7283 37.1467 38.755 36.5C38.7883 35.8467 38.8083 35.3767 38.815 35.09C39.1417 34.9433 39.5117 34.87 39.925 34.87C40.1983 34.87 40.375 34.9633 40.455 35.15C40.535 35.3367 40.585 35.6933 40.605 36.22C40.625 36.74 40.645 37.3833 40.665 38.15C40.3983 38.2233 40.1083 38.3233 39.795 38.45L39.885 39H42.375C42.5283 38.6933 42.605 38.4033 42.605 38.13L41.815 38.04C41.8817 37.04 41.915 36.2467 41.915 35.66C41.915 35.0733 41.765 34.6167 41.465 34.29Z" fill="#3B5998"/>
</svg>
