<svg width="45" height="45" viewBox="0 0 45 45" fill="none" xmlns="http://www.w3.org/2000/svg">
<path fill-rule="evenodd" clip-rule="evenodd" d="M2 0C0.895431 0 0 0.895431 0 2V18C0 19.1046 0.895431 20 2 20H18C19.1046 20 20 19.1046 20 18V2C20 0.895431 19.1046 0 18 0H2ZM2.91371 13H1.40234L3.36541 7.18184H5.23757L7.20064 13H5.68928L5.30573 11.7784H3.29645L2.91371 13ZM7.82706 13V7.18184H10.2532C10.6888 7.18184 11.0534 7.24339 11.3469 7.3665C11.6424 7.48961 11.864 7.66195 12.0117 7.88354C12.1613 8.10514 12.2362 8.36176 12.2362 8.65343C12.2362 8.87502 12.1897 9.07294 12.0969 9.24718C12.0041 9.41953 11.8763 9.56252 11.7134 9.67616C11.5505 9.78979 11.3621 9.86934 11.1481 9.91479V9.97161C11.3829 9.98298 11.5998 10.0464 11.7987 10.162C11.9994 10.2775 12.1604 10.4385 12.2816 10.6449C12.4028 10.8495 12.4634 11.0919 12.4634 11.3722C12.4634 11.6847 12.3839 11.964 12.2248 12.2102C12.0657 12.4546 11.8356 12.6477 11.5344 12.7898C11.2333 12.9299 10.8678 13 10.4379 13H7.82706ZM10.1026 11.8665H9.23331V10.4801H10.1282C10.3081 10.4801 10.4625 10.5104 10.5913 10.571C10.7201 10.6298 10.8195 10.714 10.8896 10.8239C10.9596 10.9318 10.9947 11.0606 10.9947 11.2102C10.9947 11.4167 10.9218 11.5777 10.7759 11.6932C10.632 11.8087 10.4076 11.8665 10.1026 11.8665ZM10.0117 9.57389H9.23331V8.29832H10.0344C10.2693 8.29832 10.4558 8.35419 10.5941 8.46593C10.7324 8.57767 10.8015 8.73108 10.8015 8.92616C10.8015 9.06252 10.7674 9.179 10.6992 9.27559C10.6329 9.37218 10.5401 9.44604 10.4208 9.49718C10.3015 9.54832 10.1651 9.57389 10.0117 9.57389ZM17.0004 9.28979H18.4208C18.3867 8.94131 18.2987 8.63165 18.1566 8.36082C18.0146 8.08998 17.8299 7.86176 17.6026 7.67616C17.3754 7.48866 17.1121 7.34661 16.8129 7.25002C16.5136 7.15154 16.1879 7.10229 15.8356 7.10229C15.3185 7.10229 14.8517 7.21783 14.435 7.44889C14.0183 7.67995 13.6879 8.01801 13.4435 8.46309C13.1992 8.90817 13.0771 9.45078 13.0771 10.0909C13.0771 10.7292 13.1973 11.2709 13.4379 11.7159C13.6784 12.161 14.006 12.5 14.4208 12.733C14.8375 12.964 15.3091 13.0796 15.8356 13.0796C16.2352 13.0796 16.5894 13.019 16.8981 12.8977C17.2087 12.7765 17.4719 12.6137 17.6879 12.4091C17.9038 12.2027 18.0733 11.9745 18.1964 11.7245C18.3214 11.4745 18.3962 11.2207 18.4208 10.9631L17.0004 10.9546C16.9757 11.0947 16.9312 11.2207 16.8668 11.3324C16.8043 11.4423 16.7238 11.536 16.6254 11.6137C16.5288 11.6894 16.4161 11.7472 16.2873 11.787C16.1604 11.8267 16.0193 11.8466 15.864 11.8466C15.5875 11.8466 15.3479 11.7813 15.1452 11.6506C14.9445 11.518 14.7882 11.322 14.6765 11.0625C14.5666 10.8012 14.5117 10.4773 14.5117 10.0909C14.5117 9.71972 14.5657 9.40343 14.6737 9.14207C14.7835 8.8807 14.9397 8.68089 15.1424 8.54264C15.3469 8.40438 15.5903 8.33525 15.8725 8.33525C16.0316 8.33525 16.1765 8.35798 16.3072 8.40343C16.4398 8.44699 16.5543 8.51044 16.6509 8.59377C16.7475 8.67711 16.8252 8.77748 16.8839 8.89491C16.9426 9.01233 16.9814 9.14396 17.0004 9.28979Z" fill="#3B5998"/>
<path d="M4.3228 8.64775H4.27734L3.63113 10.7102H4.97036L4.3228 8.64775Z" fill="#3B5998"/>
<path d="M9.5 24C9.5 23.7239 9.27614 23.5 9 23.5C8.72386 23.5 8.5 23.7239 8.5 24L9.5 24ZM22.3536 35.3536C22.5488 35.1583 22.5488 34.8417 22.3536 34.6464L19.1716 31.4645C18.9763 31.2692 18.6597 31.2692 18.4645 31.4645C18.2692 31.6597 18.2692 31.9763 18.4645 32.1716L21.2929 35L18.4645 37.8284C18.2692 38.0237 18.2692 38.3403 18.4645 38.5355C18.6597 38.7308 18.9763 38.7308 19.1716 38.5355L22.3536 35.3536ZM8.5 24C8.5 26.7635 8.68556 28.881 9.13967 30.4948C9.59782 32.123 10.3377 33.2668 11.4557 34.0368C12.5568 34.7952 13.9683 35.1506 15.6873 35.3256C17.407 35.5006 19.502 35.5 22 35.5V34.5C19.4837 34.5 17.4465 34.4994 15.7886 34.3307C14.1299 34.1619 12.9181 33.8298 12.0229 33.2132C11.1444 32.6082 10.5147 31.6895 10.1023 30.2239C9.68587 28.744 9.5 26.7365 9.5 24L8.5 24Z" fill="#8B9DC3"/>
<path fill-rule="evenodd" clip-rule="evenodd" d="M25 27C25 25.8954 25.8954 25 27 25H43C44.1046 25 45 25.8954 45 27V43C45 44.1046 44.1046 45 43 45H27C25.8954 45 25 44.1046 25 43V27ZM30.146 33.1821L30.1399 33.1269C29.977 33.0864 29.751 33.0662 29.4618 33.0662C29.1767 33.0662 28.8754 33.0846 28.5577 33.1214C28.2441 33.1545 28.0446 33.1839 27.9591 33.2097C27.9224 33.2906 27.9041 33.3844 27.9041 33.491C28.0426 33.5499 28.2482 33.5977 28.5211 33.6345L27.4948 36.4703C27.3482 36.5034 27.1833 36.5549 27 36.6248L27.055 36.9283H28.5394C28.5679 36.8878 28.5985 36.8179 28.631 36.7186C28.6636 36.6156 28.6799 36.5255 28.6799 36.4483L28.2584 36.3986C28.2665 36.3839 28.3317 36.2129 28.4539 35.8855H29.8283L30.0727 36.509C30.0197 36.5274 29.9078 36.566 29.7367 36.6248L29.7917 36.9283H31.2761C31.3698 36.7591 31.4166 36.5991 31.4166 36.4483L30.8363 36.3821L29.8161 33.6566C29.9302 33.6345 30.0136 33.6051 30.0666 33.5683C30.1195 33.4616 30.146 33.3329 30.146 33.1821ZM29.3519 34.6441L29.1747 33.9159H29.1136L28.9181 34.6772L28.631 35.3669H29.6512L29.3519 34.6441ZM33.2813 36.3986C33.7538 36.3986 33.99 36.2166 33.99 35.8524C33.99 35.6979 33.9004 35.5674 33.7212 35.4607C33.5909 35.3798 33.4117 35.2933 33.1836 35.2014C32.9596 35.1057 32.7906 35.0303 32.6766 34.9752C32.5666 34.92 32.4383 34.8428 32.2917 34.7434C32.0107 34.5485 31.8702 34.3057 31.8702 34.0152C31.8702 33.7246 31.9944 33.4837 32.2429 33.2924C32.4954 33.0975 32.8354 33 33.263 33C33.6906 33 34.1468 33.1232 34.6314 33.3697C34.6314 33.6345 34.6008 33.9214 34.5397 34.2303C34.4094 34.2671 34.216 34.2855 33.9594 34.2855L33.7823 33.629C33.6316 33.5885 33.4666 33.5683 33.2875 33.5683C33.1083 33.5683 32.9698 33.6032 32.8721 33.6731C32.7743 33.743 32.7255 33.8478 32.7255 33.9876C32.7255 34.1237 32.8008 34.2469 32.9515 34.3572C33.1062 34.4639 33.2915 34.5632 33.5074 34.6552C33.7232 34.7434 33.8719 34.806 33.9533 34.8428C34.0348 34.8795 34.1386 34.9347 34.2649 35.0083C34.3911 35.0818 34.4868 35.1517 34.552 35.2179C34.7189 35.3945 34.8024 35.5913 34.8024 35.8083C34.8024 36.1908 34.6619 36.4851 34.3809 36.691C34.0999 36.897 33.7334 37 33.2813 37C33.0411 37 32.7764 36.9632 32.4872 36.8897C32.2021 36.8124 31.9598 36.7149 31.7603 36.5972C31.7684 36.3729 31.801 36.0694 31.858 35.6869C32.0209 35.6575 32.2164 35.6428 32.4445 35.6428L32.5727 36.3048C32.7967 36.3674 33.0329 36.3986 33.2813 36.3986ZM37.7117 34.3076L37.901 34.3131C38.0476 34.3131 38.178 34.3002 38.292 34.2745C38.3531 33.9214 38.3836 33.6198 38.3836 33.3697C38.2289 33.2814 38.0415 33.2005 37.8216 33.1269C37.5732 33.0423 37.2881 33 36.9664 33C36.3189 33 35.8465 33.1674 35.5492 33.5021C35.2559 33.8368 35.1093 34.326 35.1093 34.9697C35.1093 36.3232 35.7161 37 36.9297 37C37.2148 37 37.504 36.9595 37.7972 36.8786C38.0945 36.7977 38.292 36.7241 38.3897 36.6579C38.3897 36.4078 38.3571 36.0823 38.292 35.6814C38.1576 35.6556 37.9621 35.6428 37.7055 35.6428L37.5773 36.3159C37.4144 36.3894 37.1944 36.4262 36.9175 36.4262C36.27 36.4262 35.9462 35.9186 35.9462 34.9034C35.9462 34.7048 35.9707 34.4933 36.0195 34.269C36.0684 34.0446 36.1356 33.8607 36.2211 33.7172C36.5103 33.6326 36.7709 33.5903 37.003 33.5903C37.1211 33.5903 37.2983 33.6087 37.5345 33.6455L37.7117 34.3076ZM40.5694 33.0662C40.5654 33.0662 40.5654 33.0699 40.5694 33.0772C40.5776 33.0846 40.5857 33.1011 40.5939 33.1269C40.6061 33.149 40.6183 33.1766 40.6305 33.2097C40.655 33.2685 40.6713 33.366 40.6794 33.5021C40.4717 33.5315 40.3353 33.5499 40.2701 33.5572L40.2396 36.3986L40.6611 36.4483C40.6611 36.5991 40.6142 36.7591 40.5206 36.9283H39.0362L38.9812 36.6248C39.2092 36.5402 39.3803 36.4869 39.4943 36.4648C39.4902 36.2478 39.4841 35.9425 39.476 35.549C39.4638 34.6662 39.4515 33.9986 39.4393 33.5462L38.9323 33.4028L38.9812 33.0662H40.5694ZM42.89 33.0772C42.886 33.0699 42.886 33.0662 42.89 33.0662H41.3018L41.2529 33.4028L41.7599 33.5462C41.7721 33.9986 41.7844 34.6662 41.7966 35.549C41.8047 35.9425 41.8108 36.2478 41.8149 36.4648C41.7009 36.4869 41.5298 36.5402 41.3018 36.6248L41.3568 36.9283H42.8412C42.9348 36.7591 42.9817 36.5991 42.9817 36.4483L42.5602 36.3986L42.5907 33.5572C42.6559 33.5499 42.7923 33.5315 43 33.5021C42.9919 33.366 42.9756 33.2685 42.9511 33.2097C42.9389 33.1766 42.9267 33.149 42.9145 33.1269C42.9063 33.1011 42.8982 33.0846 42.89 33.0772Z" fill="#3B5998"/>
</svg>
