<svg width="50" height="40" viewBox="0 0 50 40" fill="none" xmlns="http://www.w3.org/2000/svg">
<path d="M45 0H5C2.25 0 0 2.25 0 5V35C0 37.75 2.25 40 5 40H45C47.75 40 50 37.75 50 35V5C50 2.25 47.75 0 45 0ZM11.25 4.375C11.7473 4.375 12.2242 4.57254 12.5758 4.92417C12.9275 5.27581 13.125 5.75272 13.125 6.25C13.125 6.74728 12.9275 7.22419 12.5758 7.57583C12.2242 7.92746 11.7473 8.125 11.25 8.125C10.7527 8.125 10.2758 7.92746 9.92417 7.57583C9.57254 7.22419 9.375 6.74728 9.375 6.25C9.375 5.75272 9.57254 5.27581 9.92417 4.92417C10.2758 4.57254 10.7527 4.375 11.25 4.375ZM4.375 6.25C4.375 5.75272 4.57254 5.27581 4.92417 4.92417C5.27581 4.57254 5.75272 4.375 6.25 4.375C6.74728 4.375 7.22419 4.57254 7.57583 4.92417C7.92746 5.27581 8.125 5.75272 8.125 6.25C8.125 6.74728 7.92746 7.22419 7.57583 7.57583C7.22419 7.92746 6.74728 8.125 6.25 8.125C5.75272 8.125 5.27581 7.92746 4.92417 7.57583C4.57254 7.22419 4.375 6.74728 4.375 6.25ZM45 35H5V12.5H45V35ZM45 7.5H15V5H45.0475L45 7.5Z" fill="#3B5998"/>
</svg>
