<svg width="45" height="45" viewBox="0 0 45 45" fill="none" xmlns="http://www.w3.org/2000/svg">
<path fill-rule="evenodd" clip-rule="evenodd" d="M0 2C0 0.895431 0.895431 0 2 0H18C19.1046 0 20 0.895431 20 2V18C20 19.1046 19.1046 20 18 20H2C0.895431 20 0 19.1046 0 18V2ZM2 11.933H3.05435C3.40135 11.933 3.69608 11.8566 3.93853 11.7039C4.18099 11.55 4.36561 11.3302 4.4924 11.0447C4.61919 10.7579 4.68258 10.4159 4.68258 10.0186C4.68258 9.62384 4.61975 9.28492 4.49407 9.00186C4.36839 8.71757 4.18766 8.49969 3.95188 8.34823C3.7161 8.19553 3.43249 8.11918 3.10106 8.11918H2V11.933ZM2.41373 11.5233H3.02766C3.31015 11.5233 3.54427 11.4624 3.73 11.3408C3.91573 11.2191 4.0542 11.0459 4.1454 10.8212C4.2366 10.5965 4.2822 10.329 4.2822 10.0186C4.2822 9.71074 4.23716 9.44569 4.14707 9.22346C4.05698 9 3.92241 8.82868 3.74335 8.7095C3.56429 8.58908 3.34129 8.52886 3.07437 8.52886H2.41373V11.5233ZM6.3642 11.9926C6.13287 11.9926 5.9299 11.9311 5.75528 11.8082C5.58178 11.6853 5.4461 11.5133 5.34823 11.2924C5.25147 11.0714 5.20309 10.8132 5.20309 10.5177C5.20309 10.2197 5.25147 9.95965 5.34823 9.73743C5.4461 9.51521 5.58178 9.34264 5.75528 9.21974C5.9299 9.09683 6.13287 9.03538 6.3642 9.03538C6.59554 9.03538 6.79796 9.09683 6.97146 9.21974C7.14607 9.34264 7.28176 9.51521 7.37852 9.73743C7.47639 9.95965 7.52532 10.2197 7.52532 10.5177C7.52532 10.8132 7.47639 11.0714 7.37852 11.2924C7.28176 11.5133 7.14607 11.6853 6.97146 11.8082C6.79796 11.9311 6.59554 11.9926 6.3642 11.9926ZM6.79796 11.4469C6.68451 11.5475 6.53993 11.5978 6.3642 11.5978C6.18848 11.5978 6.0439 11.5475 5.93045 11.4469C5.81701 11.3464 5.73304 11.2142 5.67854 11.0503C5.62405 10.8864 5.5968 10.7089 5.5968 10.5177C5.5968 10.3265 5.62405 10.1484 5.67854 9.98324C5.73304 9.81813 5.81701 9.68467 5.93045 9.58287C6.0439 9.48107 6.18848 9.43017 6.3642 9.43017C6.53993 9.43017 6.68451 9.48107 6.79796 9.58287C6.9114 9.68467 6.99537 9.81813 7.04987 9.98324C7.10436 10.1484 7.13161 10.3265 7.13161 10.5177C7.13161 10.7089 7.10436 10.8864 7.04987 11.0503C6.99537 11.2142 6.9114 11.3464 6.79796 11.4469ZM8.12632 9.07263V11.933H8.52003V10.1453C8.52003 10.005 8.54672 9.88144 8.60011 9.77467C8.65461 9.66667 8.72579 9.58225 8.81365 9.52141C8.90262 9.46058 8.99827 9.43017 9.10059 9.43017C9.24962 9.43017 9.37141 9.48045 9.46594 9.58101C9.56048 9.68032 9.60775 9.8113 9.60775 9.97393V11.933H10.0081V10.0708C10.0081 9.88579 10.0576 9.73309 10.1566 9.61266C10.2556 9.491 10.3952 9.43017 10.5753 9.43017C10.7155 9.43017 10.8373 9.47548 10.9407 9.56611C11.0441 9.65673 11.0958 9.80757 11.0958 10.0186V11.933H11.4896V10.0186C11.4896 9.68218 11.4167 9.43451 11.271 9.27561C11.1253 9.11546 10.9379 9.03538 10.7088 9.03538C10.5253 9.03538 10.3679 9.07945 10.2367 9.1676C10.1054 9.2545 10.007 9.37182 9.9414 9.51955H9.91471C9.85131 9.36685 9.7629 9.24829 9.64945 9.16387C9.53712 9.07821 9.39643 9.03538 9.22738 9.03538C9.06055 9.03538 8.91764 9.07821 8.79863 9.16387C8.67963 9.24829 8.59344 9.36685 8.54005 9.51955H8.50669V9.07263H8.12632ZM12.9635 12C12.8011 12 12.6537 11.9659 12.5214 11.8976C12.389 11.8281 12.2839 11.7281 12.2061 11.5978C12.1282 11.4662 12.0893 11.3073 12.0893 11.121C12.0893 10.9572 12.1182 10.8243 12.1761 10.7225C12.2339 10.6195 12.3112 10.5388 12.4079 10.4804C12.5047 10.4221 12.6115 10.3786 12.7283 10.3501C12.8461 10.3203 12.9646 10.2967 13.0836 10.2793C13.2393 10.257 13.3655 10.2402 13.4623 10.2291C13.5602 10.2166 13.6313 10.1962 13.6758 10.1676C13.7214 10.139 13.7442 10.0894 13.7442 10.0186V10.0037C13.7442 9.81999 13.6992 9.67722 13.6091 9.57542C13.5201 9.47362 13.385 9.42272 13.2037 9.42272C13.0158 9.42272 12.8684 9.46865 12.7616 9.56052C12.6548 9.65239 12.5798 9.75047 12.5364 9.85475L12.1627 9.70577C12.2294 9.53197 12.3184 9.39665 12.4296 9.29981C12.542 9.20174 12.6643 9.13346 12.7967 9.09497C12.9301 9.05524 13.0614 9.03538 13.1904 9.03538C13.2727 9.03538 13.3672 9.04655 13.474 9.0689C13.5819 9.09001 13.6858 9.13408 13.7859 9.20112C13.8871 9.26816 13.9711 9.36934 14.0378 9.50466C14.1046 9.63998 14.1379 9.82123 14.1379 10.0484V11.933H13.7442V11.5456H13.7242C13.6975 11.6077 13.653 11.6741 13.5908 11.7449C13.5285 11.8156 13.4456 11.8759 13.3422 11.9255C13.2387 11.9752 13.1125 12 12.9635 12ZM13.4173 11.5028C13.3105 11.5711 13.1792 11.6052 13.0235 11.6052C12.8667 11.6052 12.7372 11.5667 12.6348 11.4898C12.5336 11.4115 12.483 11.2961 12.483 11.1434C12.483 11.0317 12.5097 10.9435 12.5631 10.879C12.6176 10.8132 12.6888 10.7641 12.7766 10.7318C12.8656 10.6983 12.9613 10.6741 13.0636 10.6592C13.1058 10.653 13.1609 10.6456 13.2287 10.6369C13.2977 10.6269 13.3683 10.6158 13.4406 10.6034C13.514 10.5897 13.5785 10.5742 13.6341 10.5568C13.6908 10.5382 13.7276 10.5177 13.7442 10.4953V10.8976C13.7442 11.0168 13.7164 11.1304 13.6608 11.2384C13.6063 11.3464 13.5251 11.4345 13.4173 11.5028ZM14.8566 9.07263V11.933H15.2503V9.07263H14.8566ZM15.0567 8.5959C14.98 8.5959 14.9138 8.56673 14.8582 8.50838C14.8037 8.45003 14.7765 8.37989 14.7765 8.29795C14.7765 8.21601 14.8037 8.14587 14.8582 8.08752C14.9138 8.02917 14.98 8 15.0567 8C15.1335 8 15.1991 8.02917 15.2536 8.08752C15.3092 8.14587 15.337 8.21601 15.337 8.29795C15.337 8.37989 15.3092 8.45003 15.2536 8.50838C15.1991 8.56673 15.1335 8.5959 15.0567 8.5959ZM16.3651 11.933V10.2123C16.3651 10.0459 16.3935 9.90441 16.4502 9.78771C16.5069 9.67101 16.5842 9.58225 16.6821 9.52141C16.781 9.46058 16.8934 9.43017 17.0191 9.43017C17.2015 9.43017 17.3449 9.49348 17.4495 9.62011C17.554 9.7455 17.6063 9.92055 17.6063 10.1453V11.933H18V10.1155C18 9.87213 17.9639 9.67101 17.8916 9.5121C17.8193 9.35196 17.7181 9.23277 17.5879 9.15456C17.4578 9.07511 17.306 9.03538 17.1325 9.03538C16.939 9.03538 16.781 9.08008 16.6587 9.16946C16.5364 9.2576 16.4452 9.3743 16.3851 9.51955H16.3517V9.07263H15.9714V11.933H16.3651Z" fill="#3B5998"/>
<path d="M9.5 24C9.5 23.7239 9.27614 23.5 9 23.5C8.72386 23.5 8.5 23.7239 8.5 24L9.5 24ZM22.3536 35.3536C22.5488 35.1583 22.5488 34.8417 22.3536 34.6464L19.1716 31.4645C18.9763 31.2692 18.6597 31.2692 18.4645 31.4645C18.2692 31.6597 18.2692 31.9763 18.4645 32.1716L21.2929 35L18.4645 37.8284C18.2692 38.0237 18.2692 38.3403 18.4645 38.5355C18.6597 38.7308 18.9763 38.7308 19.1716 38.5355L22.3536 35.3536ZM8.5 24C8.5 26.7635 8.68556 28.881 9.13967 30.4948C9.59782 32.123 10.3377 33.2668 11.4557 34.0368C12.5568 34.7952 13.9683 35.1506 15.6873 35.3256C17.407 35.5006 19.502 35.5 22 35.5V34.5C19.4837 34.5 17.4465 34.4994 15.7886 34.3307C14.1299 34.1619 12.9181 33.8298 12.0229 33.2132C11.1444 32.6082 10.5147 31.6895 10.1023 30.2239C9.68587 28.744 9.5 26.7365 9.5 24L8.5 24Z" fill="#8B9DC3"/>
<path fill-rule="evenodd" clip-rule="evenodd" d="M27 25C25.8954 25 25 25.8954 25 27V43C25 44.1046 25.8954 45 27 45H43C44.1046 45 45 44.1046 45 43V27C45 25.8954 44.1046 25 43 25H27ZM32.8114 38V32.1818H32.1069V38H32.8114ZM34.2241 32.1818V38H34.9286V35.875H36.2013C36.654 35.875 37.0252 35.7926 37.315 35.6278C37.6048 35.4612 37.8188 35.2377 37.957 34.9574C38.0972 34.6771 38.1673 34.3655 38.1673 34.0227C38.1673 33.6799 38.0972 33.3693 37.957 33.0909C37.8169 32.8125 37.601 32.5919 37.3093 32.429C37.0195 32.2642 36.6464 32.1818 36.19 32.1818H34.2241ZM36.1786 35.25H34.9286V32.8068H36.1673C36.4835 32.8068 36.7373 32.8598 36.9286 32.9659C37.1199 33.0701 37.2582 33.214 37.3434 33.3977C37.4305 33.5814 37.4741 33.7898 37.4741 34.0227C37.4741 34.2557 37.4305 34.465 37.3434 34.6506C37.2582 34.8343 37.1209 34.9801 36.9315 35.0881C36.7421 35.196 36.4911 35.25 36.1786 35.25Z" fill="#3B5998"/>
</svg>
