<svg width="50" height="40" viewBox="0 0 50 40" fill="none" xmlns="http://www.w3.org/2000/svg">
<path d="M45 0H5C2.25 0 0 2.25 0 5V35C0 37.75 2.25 40 5 40H45C47.75 40 50 37.75 50 35V5C50 2.25 47.75 0 45 0ZM11.25 4.375C11.7473 4.375 12.2242 4.57254 12.5758 4.92417C12.9275 5.2758 13.125 5.75272 13.125 6.25C13.125 6.74728 12.9275 7.2242 12.5758 7.57583C12.2242 7.92746 11.7473 8.125 11.25 8.125C10.7527 8.125 10.2758 7.92746 9.92417 7.57583C9.57254 7.2242 9.375 6.74728 9.375 6.25C9.375 5.75272 9.57254 5.2758 9.92417 4.92417C10.2758 4.57254 10.7527 4.375 11.25 4.375ZM4.375 6.25C4.375 5.75272 4.57254 5.2758 4.92417 4.92417C5.27581 4.57254 5.75272 4.375 6.25 4.375C6.74728 4.375 7.2242 4.57254 7.57583 4.92417C7.92746 5.2758 8.125 5.75272 8.125 6.25C8.125 6.74728 7.92746 7.2242 7.57583 7.57583C7.2242 7.92746 6.74728 8.125 6.25 8.125C5.75272 8.125 5.27581 7.92746 4.92417 7.57583C4.57254 7.2242 4.375 6.74728 4.375 6.25ZM45 35H5V12.5H45V35ZM45 7.5H15V5H45.0475L45 7.5Z" fill="#3B5998"/>
<path d="M22.985 17.18C22.6855 17.9293 22.4611 18.7064 22.315 19.5H27.679C27.5329 18.7064 27.3085 17.9293 27.009 17.18C26.708 16.447 26.361 15.886 26.001 15.517C25.643 15.149 25.304 15 24.997 15C24.69 15 24.351 15.149 23.993 15.517C23.633 15.887 23.287 16.447 22.985 17.18ZM22.887 15.281C22.573 15.707 22.297 16.222 22.059 16.799C21.739 17.579 21.479 18.493 21.297 19.5H17.801C18.3005 18.4757 19.0126 17.5696 19.8897 16.8422C20.7669 16.1147 21.788 15.5825 22.887 15.281ZM27.934 16.799C27.7203 16.2616 27.4426 15.752 27.107 15.281C28.2058 15.5826 29.2277 16.1148 30.1047 16.8423C30.9817 17.5698 31.6936 18.4758 32.193 19.5H28.696C28.514 18.493 28.256 17.577 27.934 16.799ZM32.599 20.5H28.847C28.945 21.295 28.997 22.134 28.997 23C28.997 23.866 28.945 24.705 28.847 25.5H32.599C32.8635 24.6931 32.9979 23.8492 32.997 23C32.9979 22.1508 32.8635 21.3069 32.599 20.5ZM28.696 26.5H32.193C31.6936 27.5242 30.9817 28.4302 30.1047 29.1577C29.2277 29.8852 28.2058 30.4174 27.107 30.719C27.4426 30.248 27.7203 29.7384 27.934 29.201C28.255 28.421 28.514 27.507 28.696 26.5ZM24.559 26.94C24.627 26.7967 24.6877 26.65 24.741 26.5H27.679C27.5329 27.2936 27.3085 28.0707 27.009 28.82C26.947 28.972 26.8803 29.1221 26.809 29.27C26.741 29.1489 26.6565 29.0378 26.558 28.94L24.559 26.94ZM24.969 25.5H27.839C27.941 24.714 27.997 23.875 27.997 23C27.997 22.125 27.941 21.285 27.839 20.5H22.155L22.118 20.8C23.046 21.1581 23.8292 21.8135 24.3452 22.6638C24.8612 23.5142 25.0799 24.5115 24.969 25.5ZM21.148 20.5L21.142 20.546C20.9284 20.5152 20.7128 20.4998 20.497 20.5H21.148ZM17.396 20.5H20.497C19.8389 20.4995 19.1888 20.6436 18.5926 20.9221C17.9965 21.2007 17.4688 21.6069 17.047 22.112C17.108 21.556 17.227 21.016 17.397 20.5M20.499 28.5C21.285 28.5 22.011 28.24 22.595 27.803L25.145 30.353C25.1914 30.3995 25.2465 30.4364 25.3072 30.4616C25.3679 30.4867 25.4329 30.4997 25.4986 30.4998C25.5643 30.4998 25.6294 30.4869 25.6901 30.4618C25.7508 30.4367 25.806 30.3999 25.8525 30.3535C25.899 30.3071 25.9359 30.252 25.9611 30.1913C25.9862 30.1306 25.9992 30.0655 25.9993 29.9999C25.9993 29.9342 25.9864 29.8691 25.9613 29.8084C25.9362 29.7477 25.8994 29.6925 25.853 29.646L23.303 27.096C23.775 26.4648 24.0201 25.6929 23.9987 24.9051C23.9773 24.1173 23.6907 23.3597 23.1852 22.7551C22.6797 22.1505 21.985 21.7341 21.2134 21.5735C20.4419 21.4128 19.6387 21.5173 18.9339 21.87C18.2291 22.2226 17.6639 22.8028 17.3299 23.5166C16.9959 24.2304 16.9126 25.0361 17.0934 25.8032C17.2743 26.5702 17.7087 27.2538 18.3264 27.7432C18.9441 28.2327 19.7089 28.4993 20.497 28.5M20.497 27.5C19.834 27.5 19.1981 27.2366 18.7292 26.7678C18.2604 26.2989 17.997 25.663 17.997 25C17.997 24.337 18.2604 23.7011 18.7292 23.2322C19.1981 22.7634 19.834 22.5 20.497 22.5C21.16 22.5 21.7959 22.7634 22.2648 23.2322C22.7336 23.7011 22.997 24.337 22.997 25C22.997 25.663 22.7336 26.2989 22.2648 26.7678C21.7959 27.2366 21.16 27.5 20.497 27.5Z" fill="#3B5998"/>
</svg>
