<svg width="54" height="48" viewBox="0 0 54 48" fill="none" xmlns="http://www.w3.org/2000/svg">
<path d="M29.5 45.1842C30.3284 45.1842 31 44.5127 31 43.6842C31 42.8558 30.3284 42.1842 29.5 42.1842V45.1842ZM2 39.0526H0.5H2ZM7 2V0.5V2ZM50.5 27.4737C50.5 28.3021 51.1716 28.9737 52 28.9737C52.8284 28.9737 53.5 28.3021 53.5 27.4737H50.5ZM2 9.76315C1.17157 9.76315 0.5 10.4347 0.5 11.2631C0.5 12.0916 1.17157 12.7631 2 12.7631V9.76315ZM52 12.7631C52.8284 12.7631 53.5 12.0916 53.5 11.2631C53.5 10.4347 52.8284 9.76315 52 9.76315V12.7631ZM8.42944 5.60406C7.84917 6.19531 7.85808 7.14502 8.44934 7.72529C9.04059 8.30555 9.9903 8.29664 10.5706 7.70539L8.42944 5.60406ZM10.5956 7.67991C11.1758 7.08866 11.1669 6.13895 10.5757 5.55869C9.98441 4.97842 9.0347 4.98733 8.45444 5.57859L10.5956 7.67991ZM15.9294 5.60406C15.3492 6.19531 15.3581 7.14502 15.9493 7.72529C16.5406 8.30555 17.4903 8.29664 18.0706 7.70539L15.9294 5.60406ZM18.0956 7.67991C18.6758 7.08866 18.6669 6.13895 18.0757 5.55869C17.4844 4.97842 16.5347 4.98733 15.9544 5.57859L18.0956 7.67991ZM23.4295 5.60404C22.8492 6.19528 22.8581 7.14499 23.4493 7.72527C24.0406 8.30554 24.9903 8.29665 25.5705 7.70541L23.4295 5.60404ZM25.5955 7.67993C26.1758 7.08869 26.1669 6.13898 25.5757 5.55871C24.9844 4.97843 24.0347 4.98732 23.4545 5.57856L25.5955 7.67993ZM36.69 31.832L35.6605 30.7411L36.69 31.832ZM50.9792 47.0991C51.5862 47.6628 52.5353 47.6278 53.0991 47.0208C53.6628 46.4138 53.6278 45.4647 53.0208 44.9009L50.9792 47.0991ZM29.5 42.1842H7V45.1842H29.5V42.1842ZM7 42.1842C6.03627 42.1842 5.13293 41.8285 4.48381 41.2272L2.44512 43.4281C3.67137 44.564 5.31156 45.1842 7 45.1842V42.1842ZM4.48381 41.2272C3.83856 40.6295 3.5 39.8445 3.5 39.0526H0.5C0.5 40.7175 1.21501 42.2886 2.44512 43.4281L4.48381 41.2272ZM3.5 39.0526V6.63158H0.5V39.0526H3.5ZM3.5 6.63158C3.5 5.83969 3.83856 5.05469 4.48381 4.45699L2.44512 2.25613C1.21501 3.3956 0.5 4.96673 0.5 6.63158H3.5ZM4.48381 4.45699C5.13293 3.8557 6.03627 3.5 7 3.5V0.5C5.31157 0.5 3.67137 1.12024 2.44512 2.25613L4.48381 4.45699ZM7 3.5H47V0.5H7V3.5ZM47 3.5C47.9637 3.5 48.8671 3.8557 49.5162 4.45699L51.5549 2.25613C50.3286 1.12024 48.6884 0.5 47 0.5V3.5ZM49.5162 4.45699C50.1614 5.05469 50.5 5.83969 50.5 6.63158H53.5C53.5 4.96673 52.785 3.3956 51.5549 2.25613L49.5162 4.45699ZM50.5 6.63158V27.4737H53.5V6.63158H50.5ZM2 12.7631H52V9.76315H2V12.7631ZM10.5706 7.70539L10.5956 7.67991L8.45444 5.57859L8.42944 5.60406L10.5706 7.70539ZM18.0706 7.70539L18.0956 7.67991L15.9544 5.57859L15.9294 5.60406L18.0706 7.70539ZM25.5705 7.70541L25.5955 7.67993L23.4545 5.57856L23.4295 5.60404L25.5705 7.70541ZM48.3219 42.7513C49.1722 41.9741 49.8549 41.0425 50.3243 40.0066L47.5918 38.7683C47.2948 39.4236 46.8572 40.0257 46.2981 40.5367L48.3219 42.7513ZM50.3243 40.0066C50.7939 38.9703 51.0392 37.8536 51.0425 36.7218L48.0426 36.713C48.0405 37.4153 47.8885 38.1134 47.5918 38.7683L50.3243 40.0066ZM51.0425 36.7218C51.0459 35.59 50.8071 34.4719 50.3435 33.4331L47.6039 34.6557C47.8968 35.3118 48.0446 36.0107 48.0426 36.713L51.0425 36.7218ZM50.3435 33.4331C49.8801 32.3947 49.2028 31.4594 48.3569 30.6778L46.3211 32.8813C46.877 33.3949 47.3109 33.9991 47.6039 34.6557L50.3435 33.4331ZM48.3569 30.6778C47.5112 29.8965 46.5131 29.2835 45.4227 28.869L44.3568 31.6733C45.0982 31.9551 45.7649 32.3674 46.3211 32.8813L48.3569 30.6778ZM45.4227 28.869C44.3325 28.4546 43.1679 28.2454 41.9953 28.2512L42.0101 31.2512C42.8174 31.2472 43.6153 31.3914 44.3568 31.6733L45.4227 28.869ZM41.9953 28.2512C40.8227 28.257 39.6605 28.4776 38.5747 28.9029L39.6688 31.6963C40.4067 31.4072 41.2028 31.2551 42.0101 31.2512L41.9953 28.2512ZM38.5747 28.9029C37.4889 29.3282 36.4975 29.9511 35.6605 30.7411L37.7196 32.9229C38.2694 32.4039 38.931 31.9852 39.6688 31.6963L38.5747 28.9029ZM35.6605 30.7411C33.9856 32.3218 33.0297 34.477 33.0427 36.744L36.0427 36.7268C36.0346 35.3281 36.6224 33.9583 37.7196 32.9229L35.6605 30.7411ZM33.0427 36.744C33.0557 39.0109 34.0362 41.1557 35.7282 42.7191L37.7641 40.5156C36.6543 39.4902 36.0507 38.1256 36.0427 36.7268L33.0427 36.744ZM35.7282 42.7191C37.4165 44.2789 39.6792 45.1399 42.0184 45.1458L42.0259 42.1458C40.4078 42.1417 38.8777 41.5445 37.7641 40.5156L35.7282 42.7191ZM42.0184 45.1458C44.3575 45.1517 46.6249 44.3022 48.3219 42.7513L46.2981 40.5367C45.178 41.5603 43.6441 42.1499 42.0259 42.1458L42.0184 45.1458ZM46.2892 42.7431L50.9792 47.0991L53.0208 44.9009L48.3308 40.5449L46.2892 42.7431Z" fill="#3B5998"/>
</svg>
