<svg width="52" height="42" viewBox="0 0 52 42" fill="none" xmlns="http://www.w3.org/2000/svg">
<path d="M12.25 5.375V4.875V5.375ZM14.125 7.25H14.625H14.125ZM12.25 9.125V9.625V9.125ZM7.25 5.375V4.875V5.375ZM9.125 7.25H9.625H9.125ZM7.25 9.125V9.625V9.125ZM46 36V36.5H46.5V36H46ZM6 36H5.5V36.5H6V36ZM6 13.5V13H5.5V13.5H6ZM46 13.5H46.5V13H46V13.5ZM46 8.5V9H46.4906L46.4999 8.5095L46 8.5ZM16 8.5H15.5V9H16V8.5ZM16 6V5.5H15.5V6H16ZM46.0475 6L46.5474 6.0095L46.5571 5.5H46.0475V6ZM33.5 25.8C33.5 26.0761 33.7239 26.3 34 26.3C34.2761 26.3 34.5 26.0761 34.5 25.8H33.5ZM19.2003 30.1004C19.3662 30.3212 19.6797 30.3656 19.9004 30.1997C20.1212 30.0338 20.1656 29.7203 19.9997 29.4996L19.2003 30.1004ZM27.1377 16.7067C26.9757 16.483 26.663 16.4331 26.4394 16.5951C26.2158 16.7571 26.1658 17.0697 26.3279 17.2933L27.1377 16.7067ZM28.5277 25.7815C28.5277 26.0577 28.7515 26.2815 29.0277 26.2815C29.3038 26.2815 29.5277 26.0577 29.5277 25.7815H28.5277ZM25.6077 17.2933C25.7697 17.0697 25.7198 16.7571 25.4962 16.5951C25.2725 16.4331 24.9599 16.483 24.7979 16.7067L25.6077 17.2933ZM22.4079 25.7815C22.4079 26.0577 22.6318 26.2815 22.9079 26.2815C23.184 26.2815 23.4079 26.0577 23.4079 25.7815H22.4079ZM18.8 27.2872C18.5239 27.2872 18.3 27.5111 18.3 27.7872C18.3 28.0634 18.5239 28.2872 18.8 28.2872V27.2872ZM19.848 28.2872C20.1242 28.2872 20.348 28.0634 20.348 27.7872C20.348 27.5111 20.1242 27.2872 19.848 27.2872V28.2872ZM18.8 21.6735C18.5239 21.6735 18.3 21.8973 18.3 22.1735C18.3 22.4496 18.5239 22.6735 18.8 22.6735V21.6735ZM33.1356 22.6735C33.4117 22.6735 33.6356 22.4496 33.6356 22.1735C33.6356 21.8973 33.4117 21.6735 33.1356 21.6735V22.6735ZM22.1429 33H21.6429C21.6429 33.2761 21.8668 33.5 22.1429 33.5V33ZM22.1429 28.1882V27.6882C21.8668 27.6882 21.6429 27.9121 21.6429 28.1882H22.1429ZM26.2328 33C26.2328 33.2761 26.4566 33.5 26.7328 33.5C27.0089 33.5 27.2328 33.2761 27.2328 33H26.2328ZM26.7328 28.1882L27.1841 27.973C27.0835 27.7621 26.8503 27.649 26.6224 27.7005C26.3946 27.7521 26.2328 27.9546 26.2328 28.1882H26.7328ZM29.0277 33L28.5764 33.2152C28.677 33.4261 28.9102 33.5392 29.138 33.4877C29.3659 33.4361 29.5277 33.2336 29.5277 33H29.0277ZM29.5277 28.1882C29.5277 27.9121 29.3038 27.6882 29.0277 27.6882C28.7515 27.6882 28.5277 27.9121 28.5277 28.1882H29.5277ZM31.3226 32.5C31.0465 32.5 30.8226 32.7239 30.8226 33C30.8226 33.2761 31.0465 33.5 31.3226 33.5V32.5ZM33.6175 28.6882C33.8937 28.6882 34.1175 28.4644 34.1175 28.1882C34.1175 27.9121 33.8937 27.6882 33.6175 27.6882V28.6882ZM46 0.5H6V1.5H46V0.5ZM6 0.5C2.97386 0.5 0.5 2.97386 0.5 6H1.5C1.5 3.52614 3.52614 1.5 6 1.5V0.5ZM0.5 6V36H1.5V6H0.5ZM0.5 36C0.5 39.0261 2.97386 41.5 6 41.5V40.5C3.52614 40.5 1.5 38.4739 1.5 36H0.5ZM6 41.5H46V40.5H6V41.5ZM46 41.5C49.0261 41.5 51.5 39.0261 51.5 36H50.5C50.5 38.4739 48.4739 40.5 46 40.5V41.5ZM51.5 36V6H50.5V36H51.5ZM51.5 6C51.5 2.97386 49.0261 0.5 46 0.5V1.5C48.4739 1.5 50.5 3.52614 50.5 6H51.5ZM12.25 5.875C12.6147 5.875 12.9644 6.01987 13.2223 6.27773L13.9294 5.57062C13.484 5.12522 12.8799 4.875 12.25 4.875V5.875ZM13.2223 6.27773C13.4801 6.53559 13.625 6.88533 13.625 7.25H14.625C14.625 6.62011 14.3748 6.01602 13.9294 5.57062L13.2223 6.27773ZM13.625 7.25C13.625 7.61467 13.4801 7.96441 13.2223 8.22227L13.9294 8.92938C14.3748 8.48398 14.625 7.87989 14.625 7.25H13.625ZM13.2223 8.22227C12.9644 8.48013 12.6147 8.625 12.25 8.625V9.625C12.8799 9.625 13.484 9.37478 13.9294 8.92938L13.2223 8.22227ZM12.25 8.625C11.8853 8.625 11.5356 8.48013 11.2777 8.22227L10.5706 8.92938C11.016 9.37478 11.6201 9.625 12.25 9.625V8.625ZM11.2777 8.22227C11.0199 7.96441 10.875 7.61467 10.875 7.25H9.875C9.875 7.87989 10.1252 8.48398 10.5706 8.92938L11.2777 8.22227ZM10.875 7.25C10.875 6.88533 11.0199 6.53559 11.2777 6.27773L10.5706 5.57062C10.1252 6.01602 9.875 6.62011 9.875 7.25H10.875ZM11.2777 6.27773C11.5356 6.01987 11.8853 5.875 12.25 5.875V4.875C11.6201 4.875 11.016 5.12522 10.5706 5.57062L11.2777 6.27773ZM5.875 7.25C5.875 6.88533 6.01987 6.53559 6.27773 6.27773L5.57062 5.57062C5.12522 6.01602 4.875 6.62011 4.875 7.25H5.875ZM6.27773 6.27773C6.53559 6.01987 6.88533 5.875 7.25 5.875V4.875C6.62011 4.875 6.01602 5.12522 5.57062 5.57062L6.27773 6.27773ZM7.25 5.875C7.61467 5.875 7.96441 6.01987 8.22227 6.27773L8.92938 5.57062C8.48398 5.12522 7.87989 4.875 7.25 4.875V5.875ZM8.22227 6.27773C8.48013 6.53559 8.625 6.88533 8.625 7.25H9.625C9.625 6.62011 9.37478 6.01602 8.92938 5.57062L8.22227 6.27773ZM8.625 7.25C8.625 7.61467 8.48013 7.96441 8.22227 8.22227L8.92938 8.92938C9.37478 8.48398 9.625 7.87989 9.625 7.25H8.625ZM8.22227 8.22227C7.96441 8.48013 7.61467 8.625 7.25 8.625V9.625C7.87989 9.625 8.48398 9.37478 8.92938 8.92938L8.22227 8.22227ZM7.25 8.625C6.88533 8.625 6.53559 8.48013 6.27773 8.22227L5.57062 8.92938C6.01602 9.37478 6.62011 9.625 7.25 9.625V8.625ZM6.27773 8.22227C6.01987 7.96441 5.875 7.61467 5.875 7.25H4.875C4.875 7.87989 5.12522 8.48398 5.57062 8.92938L6.27773 8.22227ZM46 35.5H6V36.5H46V35.5ZM6.5 36V13.5H5.5V36H6.5ZM6 14H46V13H6V14ZM45.5 13.5V36H46.5V13.5H45.5ZM46 8H16V9H46V8ZM16.5 8.5V6H15.5V8.5H16.5ZM16 6.5H46.0475V5.5H16V6.5ZM45.5476 5.9905L45.5001 8.4905L46.4999 8.5095L46.5474 6.0095L45.5476 5.9905ZM34.5 25.8V25H33.5V25.8H34.5ZM34.5 25C34.5 20.3055 30.6945 16.5 26 16.5V17.5C30.1423 17.5 33.5 20.8577 33.5 25H34.5ZM26 16.5C21.3055 16.5 17.5 20.3055 17.5 25H18.5C18.5 20.8577 21.8577 17.5 26 17.5V16.5ZM17.5 25C17.5 26.9128 18.1326 28.6799 19.2003 30.1004L19.9997 29.4996C19.0578 28.2465 18.5 26.6888 18.5 25H17.5ZM26.7328 17C26.3279 17.2933 26.3278 17.2932 26.3277 17.2931C26.3277 17.2931 26.3276 17.293 26.3275 17.2929C26.3275 17.2928 26.3274 17.2928 26.3274 17.2928C26.3274 17.2928 26.3276 17.293 26.3279 17.2933C26.3284 17.2941 26.3295 17.2956 26.3311 17.2979C26.3343 17.3025 26.3396 17.31 26.3469 17.3206C26.3614 17.3417 26.3838 17.3746 26.4128 17.4191C26.4709 17.5079 26.5558 17.6427 26.6585 17.8204C26.864 18.1759 27.1406 18.7022 27.4179 19.3757C27.9728 20.7235 28.5277 22.6532 28.5277 24.9795H29.5277C29.5277 22.4941 28.9351 20.4341 28.3426 18.995C28.0461 18.2751 27.749 17.7087 27.5242 17.3199C27.4118 17.1254 27.3173 16.9751 27.2499 16.872C27.2162 16.8204 27.1892 16.7806 27.1702 16.7529C27.1606 16.7391 27.1531 16.7283 27.1476 16.7206C27.1449 16.7167 27.1427 16.7136 27.141 16.7113C27.1402 16.7101 27.1395 16.7092 27.1389 16.7084C27.1386 16.708 27.1384 16.7077 27.1382 16.7074C27.1381 16.7072 27.138 16.7071 27.1379 16.707C27.1378 16.7068 27.1377 16.7067 26.7328 17ZM28.5277 24.9795V25.7815H29.5277V24.9795H28.5277ZM25.2028 17C24.7979 16.7067 24.7978 16.7068 24.7977 16.707C24.7976 16.7071 24.7975 16.7072 24.7974 16.7074C24.7972 16.7077 24.7969 16.708 24.7967 16.7084C24.7961 16.7092 24.7954 16.7101 24.7946 16.7113C24.7929 16.7136 24.7907 16.7167 24.788 16.7206C24.7825 16.7283 24.775 16.7391 24.7654 16.7529C24.7463 16.7806 24.7194 16.8204 24.6857 16.872C24.6183 16.9751 24.5238 17.1254 24.4114 17.3199C24.1866 17.7087 23.8894 18.2751 23.593 18.995C23.0005 20.4341 22.4079 22.4941 22.4079 24.9795H23.4079C23.4079 22.6532 23.9628 20.7235 24.5177 19.3757C24.795 18.7022 25.0716 18.1759 25.2771 17.8204C25.3798 17.6427 25.4647 17.5079 25.5227 17.4191C25.5518 17.3746 25.5741 17.3417 25.5887 17.3206C25.5959 17.31 25.6013 17.3025 25.6045 17.2979C25.6061 17.2956 25.6072 17.2941 25.6077 17.2933C25.608 17.293 25.6081 17.2928 25.6081 17.2928C25.6081 17.2928 25.6081 17.2928 25.608 17.2929C25.608 17.293 25.6079 17.2931 25.6079 17.2931C25.6078 17.2932 25.6077 17.2933 25.2028 17ZM22.4079 24.9795V25.7815H23.4079V24.9795H22.4079ZM18.8 28.2872H19.848V27.2872H18.8V28.2872ZM18.8 22.6735H33.1356V21.6735H18.8V22.6735ZM22.6429 33V28.1882H21.6429V33H22.6429ZM22.1429 28.6882H22.9079V27.6882H22.1429V28.6882ZM22.9079 28.6882C23.1732 28.6882 23.4328 28.7985 23.6279 29.0031L24.3515 28.3129C23.9729 27.9159 23.4541 27.6882 22.9079 27.6882V28.6882ZM23.6279 29.0031C23.8239 29.2085 23.9378 29.4919 23.9378 29.7921H24.9378C24.9378 29.2416 24.7294 28.7091 24.3515 28.3129L23.6279 29.0031ZM23.9378 29.7921V31.3961H24.9378V29.7921H23.9378ZM23.9378 31.3961C23.9378 31.6963 23.8239 31.9797 23.6279 32.1851L24.3515 32.8753C24.7294 32.4792 24.9378 31.9466 24.9378 31.3961H23.9378ZM23.6279 32.1851C23.4328 32.3897 23.1732 32.5 22.9079 32.5V33.5C23.4541 33.5 23.9729 33.2723 24.3515 32.8753L23.6279 32.1851ZM22.9079 32.5H22.1429V33.5H22.9079V32.5ZM27.2328 33V28.1882H26.2328V33H27.2328ZM26.2815 28.4035L28.5764 33.2152L29.479 32.7848L27.1841 27.973L26.2815 28.4035ZM29.5277 33V28.1882H28.5277V33H29.5277ZM31.3226 33.5H32.8525V32.5H31.3226V33.5ZM32.8525 33.5C33.2973 33.5 33.7188 33.3146 34.0257 32.9928L33.3021 32.3026C33.1787 32.432 33.0164 32.5 32.8525 32.5V33.5ZM34.0257 32.9928C34.3319 32.6718 34.5 32.2413 34.5 31.7971H33.5C33.5 31.9909 33.4263 32.1723 33.3021 32.3026L34.0257 32.9928ZM34.5 31.7971C34.5 31.3528 34.3319 30.9223 34.0257 30.6013L33.3021 31.2916C33.4263 31.4218 33.5 31.6032 33.5 31.7971H34.5ZM34.0257 30.6013C33.7188 30.2795 33.2973 30.0941 32.8525 30.0941V31.0941C33.0164 31.0941 33.1787 31.1621 33.3021 31.2916L34.0257 30.6013ZM32.8525 30.0941H32.4701V31.0941H32.8525V30.0941ZM32.4701 30.0941C32.3062 30.0941 32.1439 30.0261 32.0205 29.8967L31.2969 30.5869C31.6038 30.9087 32.0253 31.0941 32.4701 31.0941V30.0941ZM32.0205 29.8967C31.8963 29.7664 31.8226 29.585 31.8226 29.3912H30.8226C30.8226 29.8354 30.9907 30.2659 31.2969 30.5869L32.0205 29.8967ZM31.8226 29.3912C31.8226 29.1973 31.8963 29.0159 32.0205 28.8857L31.2969 28.1954C30.9907 28.5164 30.8226 28.9469 30.8226 29.3912H31.8226ZM32.0205 28.8857C32.1439 28.7562 32.3062 28.6882 32.4701 28.6882V27.6882C32.0253 27.6882 31.6038 27.8737 31.2969 28.1954L32.0205 28.8857ZM32.4701 28.6882H33.6175V27.6882H32.4701V28.6882Z" fill="#3B5998"/>
</svg>
