<svg width="50" height="40" viewBox="0 0 50 40" fill="none" xmlns="http://www.w3.org/2000/svg">
<path d="M45 0H5C2.25 0 0 2.25 0 5V35C0 37.75 2.25 40 5 40H45C47.75 40 50 37.75 50 35V5C50 2.25 47.75 0 45 0ZM11.25 4.375C11.7473 4.375 12.2242 4.57254 12.5758 4.92417C12.9275 5.2758 13.125 5.75272 13.125 6.25C13.125 6.74728 12.9275 7.2242 12.5758 7.57583C12.2242 7.92746 11.7473 8.125 11.25 8.125C10.7527 8.125 10.2758 7.92746 9.92417 7.57583C9.57254 7.2242 9.375 6.74728 9.375 6.25C9.375 5.75272 9.57254 5.2758 9.92417 4.92417C10.2758 4.57254 10.7527 4.375 11.25 4.375ZM4.375 6.25C4.375 5.75272 4.57254 5.2758 4.92417 4.92417C5.27581 4.57254 5.75272 4.375 6.25 4.375C6.74728 4.375 7.2242 4.57254 7.57583 4.92417C7.92746 5.2758 8.125 5.75272 8.125 6.25C8.125 6.74728 7.92746 7.2242 7.57583 7.57583C7.2242 7.92746 6.74728 8.125 6.25 8.125C5.75272 8.125 5.27581 7.92746 4.92417 7.57583C4.57254 7.2242 4.375 6.74728 4.375 6.25ZM45 35H5V12.5H45V35ZM45 7.5H15V5H45.0475L45 7.5Z" fill="#3B5998"/>
<path d="M25 22.7C24.6211 22.7 24.2578 22.542 23.9898 22.2607C23.7219 21.9794 23.5714 21.5978 23.5714 21.2C23.5714 20.8022 23.7219 20.4206 23.9898 20.1393C24.2578 19.858 24.6211 19.7 25 19.7C25.3789 19.7 25.7422 19.858 26.0102 20.1393C26.2781 20.4206 26.4286 20.8022 26.4286 21.2C26.4286 21.397 26.3916 21.592 26.3198 21.774C26.248 21.956 26.1428 22.1214 26.0102 22.2607C25.8775 22.3999 25.72 22.5104 25.5467 22.5858C25.3734 22.6612 25.1876 22.7 25 22.7ZM25 17C23.9391 17 22.9217 17.4425 22.1716 18.2302C21.4214 19.0178 21 20.0861 21 21.2C21 24.35 25 29 25 29C25 29 29 24.35 29 21.2C29 20.0861 28.5786 19.0178 27.8284 18.2302C27.0783 17.4425 26.0609 17 25 17Z" fill="#3B5998"/>
</svg>
