<svg width="50" height="40" viewBox="0 0 50 40" fill="none" xmlns="http://www.w3.org/2000/svg">
<path d="M45 0H5C2.25 0 0 2.25 0 5V35C0 37.75 2.25 40 5 40H45C47.75 40 50 37.75 50 35V5C50 2.25 47.75 0 45 0ZM11.25 4.375C11.7473 4.375 12.2242 4.57254 12.5758 4.92417C12.9275 5.2758 13.125 5.75272 13.125 6.25C13.125 6.74728 12.9275 7.2242 12.5758 7.57583C12.2242 7.92746 11.7473 8.125 11.25 8.125C10.7527 8.125 10.2758 7.92746 9.92417 7.57583C9.57254 7.2242 9.375 6.74728 9.375 6.25C9.375 5.75272 9.57254 5.2758 9.92417 4.92417C10.2758 4.57254 10.7527 4.375 11.25 4.375ZM4.375 6.25C4.375 5.75272 4.57254 5.2758 4.92417 4.92417C5.27581 4.57254 5.75272 4.375 6.25 4.375C6.74728 4.375 7.2242 4.57254 7.57583 4.92417C7.92746 5.2758 8.125 5.75272 8.125 6.25C8.125 6.74728 7.92746 7.2242 7.57583 7.57583C7.2242 7.92746 6.74728 8.125 6.25 8.125C5.75272 8.125 5.27581 7.92746 4.92417 7.57583C4.57254 7.2242 4.375 6.74728 4.375 6.25ZM45 35H5V12.5H45V35ZM45 7.5H15V5H45.0475L45 7.5Z" fill="#3B5998"/>
<path d="M10 22.5269V22.0806H10.9833V25.9677H10.5021V22.5269H10Z" fill="#3B5998"/>
<path d="M12.4127 24.9247C12.4476 25.129 12.5278 25.2867 12.6533 25.3979C12.7823 25.509 12.9549 25.5645 13.1711 25.5645C13.4605 25.5645 13.6731 25.448 13.8091 25.2151C13.9486 24.9821 14.0148 24.5896 14.0079 24.0376C13.9347 24.1989 13.8126 24.3262 13.6418 24.4194C13.4709 24.509 13.2809 24.5538 13.0717 24.5538C12.8381 24.5538 12.6289 24.5054 12.4441 24.4086C12.2628 24.3082 12.1198 24.1631 12.0152 23.9731C11.9106 23.7832 11.8583 23.5538 11.8583 23.2849C11.8583 22.9014 11.9664 22.5932 12.1826 22.3602C12.3988 22.1237 12.7056 22.0054 13.1031 22.0054C13.5912 22.0054 13.9329 22.1685 14.1282 22.4946C14.3269 22.8208 14.4263 23.3065 14.4263 23.9516C14.4263 24.4032 14.3862 24.776 14.306 25.0699C14.2293 25.3638 14.0968 25.5878 13.9085 25.7419C13.7237 25.8961 13.4692 25.9731 13.1449 25.9731C12.7893 25.9731 12.5121 25.8746 12.3133 25.6774C12.1146 25.4803 12.0013 25.2294 11.9734 24.9247H12.4127ZM13.1501 24.1398C13.3837 24.1398 13.5755 24.0663 13.7254 23.9194C13.8754 23.7688 13.9503 23.5663 13.9503 23.3118C13.9503 23.043 13.8771 22.8262 13.7307 22.6613C13.5842 22.4964 13.3785 22.414 13.1135 22.414C12.8695 22.414 12.6742 22.4928 12.5278 22.6505C12.3848 22.8082 12.3133 23.0161 12.3133 23.2742C12.3133 23.5358 12.3848 23.7455 12.5278 23.9032C12.6707 24.0609 12.8782 24.1398 13.1501 24.1398Z" fill="#3B5998"/>
<path d="M15.0376 25.5753C15.4804 25.2097 15.8273 24.9104 16.0784 24.6774C16.3294 24.4409 16.5404 24.1953 16.7112 23.9409C16.8855 23.6828 16.9727 23.4301 16.9727 23.1828C16.9727 22.9498 16.9169 22.767 16.8053 22.6344C16.6973 22.4982 16.5212 22.4301 16.2771 22.4301C16.04 22.4301 15.8552 22.5072 15.7227 22.6613C15.5937 22.8118 15.524 23.0143 15.5135 23.2688H15.0533C15.0672 22.8674 15.1858 22.5573 15.4089 22.3387C15.6321 22.1201 15.9197 22.0108 16.2719 22.0108C16.631 22.0108 16.9152 22.1129 17.1244 22.3172C17.3371 22.5215 17.4434 22.8029 17.4434 23.1613C17.4434 23.4588 17.3562 23.7491 17.1819 24.0323C17.0111 24.3118 16.8158 24.5591 16.5961 24.7742C16.3765 24.9857 16.0958 25.233 15.7541 25.5161H17.5532V25.9247H15.0376V25.5753Z" fill="#3B5998"/>
<path d="M18.3336 26C18.2429 26 18.1662 25.9677 18.1034 25.9032C18.0407 25.8387 18.0093 25.7599 18.0093 25.6667C18.0093 25.5735 18.0407 25.4946 18.1034 25.4301C18.1662 25.3656 18.2429 25.3333 18.3336 25.3333C18.4207 25.3333 18.4939 25.3656 18.5532 25.4301C18.616 25.4946 18.6474 25.5735 18.6474 25.6667C18.6474 25.7599 18.616 25.8387 18.5532 25.9032C18.4939 25.9677 18.4207 26 18.3336 26Z" fill="#3B5998"/>
<path d="M19.076 22.5269V22.0806H20.0593V25.9677H19.5781V22.5269H19.076Z" fill="#3B5998"/>
<path d="M21.1069 26C21.0163 26 20.9396 25.9677 20.8768 25.9032C20.814 25.8387 20.7827 25.7599 20.7827 25.6667C20.7827 25.5735 20.814 25.4946 20.8768 25.4301C20.9396 25.3656 21.0163 25.3333 21.1069 25.3333C21.1941 25.3333 21.2673 25.3656 21.3266 25.4301C21.3893 25.4946 21.4207 25.5735 21.4207 25.6667C21.4207 25.7599 21.3893 25.8387 21.3266 25.9032C21.2673 25.9677 21.1941 26 21.1069 26Z" fill="#3B5998"/>
<path d="M21.9644 23.0591C21.9889 22.7294 22.1126 22.4713 22.3358 22.2849C22.5589 22.0986 22.8483 22.0054 23.204 22.0054C23.4411 22.0054 23.645 22.0502 23.8159 22.1398C23.9902 22.2258 24.121 22.3441 24.2082 22.4946C24.2988 22.6452 24.3441 22.8154 24.3441 23.0054C24.3441 23.2276 24.2814 23.4194 24.1558 23.5806C24.0338 23.7419 23.8734 23.8459 23.6747 23.8925V23.9194C23.9013 23.9767 24.0809 24.0896 24.2134 24.2581C24.3459 24.4265 24.4121 24.647 24.4121 24.9194C24.4121 25.1237 24.3668 25.3082 24.2761 25.4731C24.1855 25.6344 24.0495 25.7617 23.8682 25.8548C23.6869 25.948 23.469 25.9946 23.2144 25.9946C22.8448 25.9946 22.5415 25.8961 22.3044 25.6989C22.0673 25.4982 21.9348 25.2151 21.9069 24.8495H22.3672C22.3916 25.0645 22.477 25.2401 22.6234 25.3763C22.7699 25.5125 22.9651 25.5806 23.2092 25.5806C23.4533 25.5806 23.6381 25.5161 23.7636 25.3871C23.8926 25.2545 23.9571 25.0842 23.9571 24.8763C23.9571 24.6075 23.8699 24.414 23.6956 24.2957C23.5213 24.1774 23.258 24.1183 22.9059 24.1183H22.7856V23.7097H22.9111C23.2319 23.7061 23.4742 23.6523 23.6381 23.5484C23.8019 23.4409 23.8839 23.276 23.8839 23.0538C23.8839 22.8638 23.8229 22.7115 23.7008 22.5968C23.5823 22.4821 23.4114 22.4247 23.1883 22.4247C22.9721 22.4247 22.7978 22.4821 22.6653 22.5968C22.5328 22.7115 22.4543 22.8656 22.4299 23.0591H21.9644Z" fill="#3B5998"/>
<path d="M25.0547 23.9839C25.0547 23.3674 25.1524 22.8871 25.3476 22.543C25.5429 22.1953 25.8846 22.0215 26.3727 22.0215C26.8574 22.0215 27.1973 22.1953 27.3926 22.543C27.5878 22.8871 27.6855 23.3674 27.6855 23.9839C27.6855 24.6111 27.5878 25.0986 27.3926 25.4462C27.1973 25.7939 26.8574 25.9677 26.3727 25.9677C25.8846 25.9677 25.5429 25.7939 25.3476 25.4462C25.1524 25.0986 25.0547 24.6111 25.0547 23.9839ZM27.2147 23.9839C27.2147 23.672 27.1938 23.4086 27.152 23.1935C27.1136 22.9749 27.0317 22.7993 26.9062 22.6667C26.7841 22.534 26.6063 22.4677 26.3727 22.4677C26.1356 22.4677 25.9543 22.534 25.8288 22.6667C25.7067 22.7993 25.6248 22.9749 25.583 23.1935C25.5446 23.4086 25.5254 23.672 25.5254 23.9839C25.5254 24.3065 25.5446 24.5771 25.583 24.7957C25.6248 25.0143 25.7067 25.19 25.8288 25.3226C25.9543 25.4552 26.1356 25.5215 26.3727 25.5215C26.6063 25.5215 26.7841 25.4552 26.9062 25.3226C27.0317 25.19 27.1136 25.0143 27.152 24.7957C27.1938 24.5771 27.2147 24.3065 27.2147 23.9839Z" fill="#3B5998"/>
<path d="M28.569 26C28.4783 26 28.4016 25.9677 28.3388 25.9032C28.2761 25.8387 28.2447 25.7599 28.2447 25.6667C28.2447 25.5735 28.2761 25.4946 28.3388 25.4301C28.4016 25.3656 28.4783 25.3333 28.569 25.3333C28.6561 25.3333 28.7294 25.3656 28.7886 25.4301C28.8514 25.4946 28.8828 25.5735 28.8828 25.6667C28.8828 25.7599 28.8514 25.8387 28.7886 25.9032C28.7294 25.9677 28.6561 26 28.569 26Z" fill="#3B5998"/>
<path d="M29.3114 22.5269V22.0806H30.2947V25.9677H29.8135V22.5269H29.3114Z" fill="#3B5998"/>
<path d="M31.0547 25.5753C31.4975 25.2097 31.8444 24.9104 32.0955 24.6774C32.3465 24.4409 32.5575 24.1953 32.7283 23.9409C32.9026 23.6828 32.9898 23.4301 32.9898 23.1828C32.9898 22.9498 32.934 22.767 32.8224 22.6344C32.7144 22.4982 32.5383 22.4301 32.2942 22.4301C32.0571 22.4301 31.8723 22.5072 31.7398 22.6613C31.6108 22.8118 31.5411 23.0143 31.5306 23.2688H31.0704C31.0843 22.8674 31.2029 22.5573 31.426 22.3387C31.6492 22.1201 31.9368 22.0108 32.289 22.0108C32.6481 22.0108 32.9323 22.1129 33.1415 22.3172C33.3542 22.5215 33.4605 22.8029 33.4605 23.1613C33.4605 23.4588 33.3734 23.7491 33.199 24.0323C33.0282 24.3118 32.8329 24.5591 32.6132 24.7742C32.3936 24.9857 32.1129 25.233 31.7712 25.5161H33.5704V25.9247H31.0547V25.5753Z" fill="#3B5998"/>
<path d="M36.2283 23.0054C36.1515 22.6075 35.9127 22.4086 35.5117 22.4086C35.2014 22.4086 34.9695 22.5323 34.8161 22.7796C34.6627 23.0233 34.5877 23.4265 34.5912 23.9892C34.6714 23.8029 34.8039 23.6577 34.9887 23.5538C35.177 23.4462 35.3862 23.3925 35.6163 23.3925C35.9755 23.3925 36.2614 23.5072 36.4741 23.7366C36.6902 23.966 36.7983 24.2832 36.7983 24.6882C36.7983 24.9319 36.7513 25.1505 36.6571 25.3441C36.5665 25.5376 36.427 25.6918 36.2387 25.8065C36.0539 25.9211 35.829 25.9785 35.564 25.9785C35.2049 25.9785 34.9242 25.8961 34.722 25.7312C34.5198 25.5663 34.3786 25.3387 34.2984 25.0484C34.2182 24.7581 34.1781 24.3996 34.1781 23.9731C34.1781 22.6577 34.6244 22 35.517 22C35.8587 22 36.1271 22.095 36.3224 22.2849C36.5176 22.4749 36.6327 22.7151 36.6676 23.0054H36.2283ZM35.517 23.8065C35.367 23.8065 35.2258 23.8387 35.0933 23.9032C34.9608 23.9642 34.8527 24.0591 34.7691 24.1882C34.6889 24.3136 34.6488 24.4677 34.6488 24.6505C34.6488 24.9229 34.7255 25.1452 34.8789 25.3172C35.0323 25.4857 35.252 25.5699 35.5379 25.5699C35.782 25.5699 35.9755 25.4928 36.1184 25.3387C36.2649 25.181 36.3381 24.9695 36.3381 24.7043C36.3381 24.4247 36.2683 24.2061 36.1289 24.0484C35.9894 23.8871 35.7854 23.8065 35.517 23.8065Z" fill="#3B5998"/>
<path d="M39.8442 22.172C40.1893 22.172 40.4683 22.2724 40.681 22.4731C40.8937 22.6738 41 22.9427 41 23.2796C41 23.6559 40.8867 23.9355 40.66 24.1183C40.4334 24.2975 40.1266 24.3871 39.7396 24.3871L39.7239 24.8979H39.3107L39.2898 24.0484H39.4414C39.7866 24.0484 40.0568 23.9946 40.2521 23.8871C40.4474 23.7796 40.545 23.5771 40.545 23.2796C40.545 23.0645 40.4822 22.8943 40.3567 22.7688C40.2312 22.6434 40.0621 22.5806 39.8494 22.5806C39.6332 22.5806 39.4624 22.6416 39.3368 22.7634C39.2148 22.8817 39.1538 23.0448 39.1538 23.2527H38.704C38.704 23.0376 38.7511 22.8495 38.8452 22.6882C38.9394 22.5233 39.0718 22.3961 39.2427 22.3065C39.417 22.2168 39.6175 22.172 39.8442 22.172ZM39.5147 26C39.424 26 39.3473 25.9677 39.2845 25.9032C39.2218 25.8387 39.1904 25.7599 39.1904 25.6667C39.1904 25.5735 39.2218 25.4946 39.2845 25.4301C39.3473 25.3656 39.424 25.3333 39.5147 25.3333C39.6018 25.3333 39.675 25.3656 39.7343 25.4301C39.7971 25.4946 39.8285 25.5735 39.8285 25.6667C39.8285 25.7599 39.7971 25.8387 39.7343 25.9032C39.675 25.9677 39.6018 26 39.5147 26Z" fill="#3B5998"/>
</svg>
