<svg width="51" height="24" viewBox="0 0 51 24" fill="none" xmlns="http://www.w3.org/2000/svg">
<path d="M27.6228 9.94994V9.56578L30.7154 7.99069V8.60536L28.3431 9.74825L28.3623 9.70984V9.80588L28.3431 9.76746L30.7154 10.9104V11.525L27.6228 9.94994Z" fill="#3B5998"/>
<path d="M32.3391 7.99069L33.2226 9.49855L34.1062 7.99069H34.7593L33.5684 9.83469L34.7593 11.6787H34.1062L33.2226 10.2477L32.3391 11.6787H31.686L32.8577 9.83469L31.686 7.99069H32.3391Z" fill="#3B5998"/>
<path d="M35.5679 11.6787V7.99069H36.1153V8.56694H36.1633C36.2402 8.37005 36.3642 8.21719 36.5355 8.10834C36.7068 7.99789 36.9125 7.94267 37.1526 7.94267C37.3959 7.94267 37.5984 7.99789 37.76 8.10834C37.9233 8.21719 38.0505 8.37005 38.1418 8.56694H38.1802C38.2746 8.37646 38.4163 8.22519 38.6052 8.11314C38.7941 7.99949 39.0206 7.94267 39.2847 7.94267C39.6144 7.94267 39.8841 8.04591 40.0938 8.2524C40.3035 8.45729 40.4084 8.77663 40.4084 9.21042V11.6787H39.8417V9.21042C39.8417 8.9383 39.7673 8.74382 39.6184 8.62697C39.4696 8.51012 39.2943 8.45169 39.0926 8.45169C38.8333 8.45169 38.6324 8.53012 38.4899 8.68699C38.3475 8.84226 38.2762 9.03915 38.2762 9.27765V11.6787H37.7V9.1528C37.7 8.9431 37.632 8.77423 37.4959 8.64617C37.3598 8.51652 37.1846 8.45169 36.9701 8.45169C36.8228 8.45169 36.6852 8.49091 36.5571 8.56934C36.4306 8.64778 36.3282 8.75662 36.2498 8.89588C36.1729 9.03354 36.1345 9.19281 36.1345 9.37369V11.6787H35.5679Z" fill="#3B5998"/>
<path d="M42.0111 6.76135V11.6787H41.4444V6.76135H42.0111Z" fill="#3B5998"/>
<path d="M46.3047 9.94994L43.2122 11.525V10.9104L45.5844 9.76746L45.5652 9.80588V9.70984L45.5844 9.74825L43.2122 8.60536V7.99069L46.3047 9.56578V9.94994Z" fill="#3B5998"/>
<path d="M27.6228 21.1676V20.7835L30.7154 19.2084V19.823L28.3431 20.9659L28.3623 20.9275V21.0236L28.3431 20.9851L30.7154 22.128V22.7427L27.6228 21.1676Z" fill="#3B5998"/>
<path d="M33.6548 17.7485L32.0701 23.6359H31.5515L33.1362 17.7485H33.6548Z" fill="#3B5998"/>
<path d="M34.7491 19.2084L35.6327 20.7162L36.5163 19.2084H37.1694L35.9784 21.0524L37.1694 22.8964H36.5163L35.6327 21.4654L34.7491 22.8964H34.096L35.2677 21.0524L34.096 19.2084H34.7491Z" fill="#3B5998"/>
<path d="M37.9779 22.8964V19.2084H38.5254V19.7846H38.5734C38.6502 19.5877 38.7743 19.4349 38.9455 19.326C39.1168 19.2156 39.3225 19.1604 39.5626 19.1604C39.8059 19.1604 40.0084 19.2156 40.1701 19.326C40.3333 19.4349 40.4606 19.5877 40.5518 19.7846H40.5903C40.6847 19.5941 40.8264 19.4429 41.0152 19.3308C41.2041 19.2172 41.4306 19.1604 41.6947 19.1604C42.0245 19.1604 42.2942 19.2636 42.5039 19.4701C42.7136 19.675 42.8184 19.9943 42.8184 20.4281V22.8964H42.2518V20.4281C42.2518 20.156 42.1773 19.9615 42.0285 19.8446C41.8796 19.7278 41.7043 19.6694 41.5027 19.6694C41.2433 19.6694 41.0425 19.7478 40.9 19.9047C40.7575 20.0599 40.6863 20.2568 40.6863 20.4953V22.8964H40.11V20.3705C40.11 20.1608 40.042 19.9919 39.906 19.8639C39.7699 19.7342 39.5946 19.6694 39.3801 19.6694C39.2329 19.6694 39.0952 19.7086 38.9671 19.787C38.8407 19.8655 38.7382 19.9743 38.6598 20.1136C38.583 20.2512 38.5446 20.4105 38.5446 20.5914V22.8964H37.9779Z" fill="#3B5998"/>
<path d="M44.4211 17.979V22.8964H43.8545V17.979H44.4211Z" fill="#3B5998"/>
<path d="M48.7148 21.1676L45.6222 22.7427V22.128L47.9945 20.9851L47.9753 21.0236V20.9275L47.9945 20.9659L45.6222 19.823V19.2084L48.7148 20.7835V21.1676Z" fill="#3B5998"/>
<path d="M11.2573 3.38068V3.90891H8.18396V3.38068H11.2573Z" fill="#3B5998"/>
<path d="M14.3144 3.38068V3.90891H11.2411V3.38068H14.3144Z" fill="#3B5998"/>
<path d="M17.3716 3.38068V3.90891H14.2982V3.38068H17.3716Z" fill="#3B5998"/>
<path d="M20.4287 3.38068V3.90891H17.3554V3.38068H20.4287Z" fill="#3B5998"/>
<path d="M23.4858 3.38068V3.90891H20.4125V3.38068H23.4858Z" fill="#3B5998"/>
<path d="M26.543 3.38068V3.90891H23.4696V3.38068H26.543Z" fill="#3B5998"/>
<path d="M29.6001 3.38068V3.90891H26.5268V3.38068H29.6001Z" fill="#3B5998"/>
<path d="M32.6572 3.38068V3.90891H29.5839V3.38068H32.6572Z" fill="#3B5998"/>
<path d="M35.7144 3.38068V3.90891H32.641V3.38068H35.7144Z" fill="#3B5998"/>
<path d="M38.7715 3.38068V3.90891H35.6982V3.38068H38.7715Z" fill="#3B5998"/>
<path d="M41.8286 3.38068V3.90891H38.7553V3.38068H41.8286Z" fill="#3B5998"/>
<path d="M44.8858 3.38068V3.90891H41.8124V3.38068H44.8858Z" fill="#3B5998"/>
<path d="M47.9429 3.38068V3.90891H44.8696V3.38068H47.9429Z" fill="#3B5998"/>
<path d="M51 3.38068V3.90891H47.9267V3.38068H51Z" fill="#3B5998"/>
<path d="M7.90384 0V0.845168H4.80322V0H7.90384Z" fill="#3B5998"/>
<path d="M10.9881 0V0.845168H7.88748V0H10.9881Z" fill="#3B5998"/>
<path d="M14.0724 0V0.845168H10.9717V0H14.0724Z" fill="#3B5998"/>
<path d="M17.1566 0V0.845168H14.056V0H17.1566Z" fill="#3B5998"/>
<path d="M20.2409 0V0.845168H17.1403V0H20.2409Z" fill="#3B5998"/>
<path d="M23.3251 0V0.845168H20.2245V0H23.3251Z" fill="#3B5998"/>
<path d="M28.3279 0V0.845168H25.2273V0H28.3279Z" fill="#3B5998"/>
<path d="M33.3307 0V0.845168H30.2301V0H33.3307Z" fill="#3B5998"/>
<path d="M36.4149 0V0.845168H33.3143V0H36.4149Z" fill="#3B5998"/>
<path d="M39.4992 0V0.845168H36.3986V0H39.4992Z" fill="#3B5998"/>
<path d="M42.5835 0V0.845168H39.4828V0H42.5835Z" fill="#3B5998"/>
<path d="M45.6677 0V0.845168H42.5671V0H45.6677Z" fill="#3B5998"/>
<path d="M48.752 0V0.845168H45.6514V0H48.752Z" fill="#3B5998"/>
<path d="M1.42261 11.3323C1.14647 11.3323 0.922607 11.5562 0.922607 11.8323C0.922607 12.1085 1.14647 12.3323 1.42261 12.3323V11.3323ZM22.0602 12.1859C22.2555 11.9906 22.2555 11.674 22.0602 11.4788L18.8782 8.2968C18.683 8.10154 18.3664 8.10154 18.1711 8.2968C17.9759 8.49206 17.9759 8.80865 18.1711 9.00391L20.9995 11.8323L18.1711 14.6608C17.9759 14.856 17.9759 15.1726 18.1711 15.3679C18.3664 15.5631 18.683 15.5631 18.8782 15.3679L22.0602 12.1859ZM1.42261 12.3323H21.7067V11.3323H1.42261V12.3323Z" fill="#3B5998"/>
<path d="M0.646447 17.395C0.451184 17.5902 0.451184 17.9068 0.646447 18.1021L3.82843 21.2841C4.02369 21.4793 4.34027 21.4793 4.53553 21.2841C4.7308 21.0888 4.7308 20.7722 4.53553 20.577L1.70711 17.7485L4.53553 14.9201C4.7308 14.7248 4.7308 14.4083 4.53553 14.213C4.34027 14.0177 4.02369 14.0177 3.82843 14.213L0.646447 17.395ZM21.284 18.2485C21.5602 18.2485 21.784 18.0247 21.784 17.7485C21.784 17.4724 21.5602 17.2485 21.284 17.2485V18.2485ZM1 18.2485H21.284V17.2485H1V18.2485Z" fill="#3B5998"/>
</svg>
