<svg width="50" height="43" viewBox="0 0 50 43" fill="none" xmlns="http://www.w3.org/2000/svg">
<path d="M15.3863 17.6822C9.80348 17.6822 5.3372 22.1027 5.3372 27.6284C5.3372 29.5734 5.89549 31.4079 6.87807 32.933L0 39.7849L3.10406 42.8571L10.0715 36.0716C11.6123 37.022 13.4435 37.5746 15.3863 37.5746C20.9692 37.5746 25.4355 33.1541 25.4355 27.6284C25.4355 22.1027 20.9692 17.6822 15.3863 17.6822ZM15.3863 33.1541C13.9057 33.1541 12.4856 32.5719 11.4387 31.5356C10.3917 30.4994 9.80348 29.0939 9.80348 27.6284C9.80348 26.1629 10.3917 24.7574 11.4387 23.7211C12.4856 22.6849 13.9057 22.1027 15.3863 22.1027C16.867 22.1027 18.287 22.6849 19.334 23.7211C20.381 24.7574 20.9692 26.1629 20.9692 27.6284C20.9692 29.0939 20.381 30.4994 19.334 31.5356C18.287 32.5719 16.867 33.1541 15.3863 33.1541ZM50 4.42054V35.3643C50 37.8177 48.0125 39.7849 45.5337 39.7849H23.0907C24.8995 38.6797 26.4404 37.1546 27.6016 35.3643H45.5337V13.2616H27.6686V4.42054H5.3372V17.2843C2.59044 19.8924 0.870924 23.5615 0.870924 27.6284V4.42054C0.870924 1.98924 2.88075 0 5.3372 0H45.5337C46.7183 0 47.8543 0.465734 48.6919 1.29475C49.5294 2.12376 50 3.24814 50 4.42054Z" fill="#3B5998"/>
</svg>
