<svg width="50" height="43" viewBox="0 0 50 43" fill="none" xmlns="http://www.w3.org/2000/svg">
<path d="M4.48889 42.3692C3.20926 42.3692 2.14167 41.9377 1.28611 41.0746C0.430556 40.2115 0.00185185 39.1336 0 37.8408V7.66678C0 6.3759 0.428704 5.29892 1.28611 4.43584C2.14352 3.57277 3.21018 3.1403 4.48611 3.13843H45.5139C46.7917 3.13843 47.8583 3.5709 48.7139 4.43584C49.5694 5.30079 49.9981 6.37777 50 7.66678V37.8436C50 39.1327 49.5713 40.2096 48.7139 41.0746C47.8565 41.9395 46.7898 42.3711 45.5139 42.3692H4.48889ZM4.48889 39.567H33.3333V28.6833H2.77778V37.8436C2.77778 38.2733 2.95556 38.6684 3.31111 39.029C3.66667 39.3895 4.05833 39.5689 4.48611 39.567M36.1111 39.567H45.5139C45.9398 39.567 46.3315 39.3877 46.6889 39.029C47.0463 38.6703 47.2241 38.2743 47.2222 37.8408V14.9945H36.1111V39.567ZM2.77778 25.8811H33.3333V14.9917H2.77778V25.8811Z" fill="#3B5998"/>
<path d="M24.1452 12.7745C24.472 12.4813 24.7889 12.197 24.9946 11.8294C27.223 11.7536 33.6009 11.5831 33.6009 11.5831L34.4494 10.6925C34.4494 10.6925 34.5072 9.08765 34.2661 9.07188C33.5474 9.0295 33.0824 9.02719 33.0824 9.02719L31.8317 9.82612L30.6995 8.7396L29.4388 9.70191L28.314 8.49623L27.0436 9.61411L25.9277 8.26397L25.2543 8.46645C25.0789 7.93207 24.8341 7.52254 24.4326 7.07501C22.9131 5.38134 20.3392 5.21376 18.6846 6.69815C17.0301 8.18255 16.9244 10.7559 18.4438 12.4496C19.9633 14.1433 22.4906 14.2589 24.1452 12.7745ZM19.3749 8.63104C19.5681 8.4577 19.8075 8.34459 20.0629 8.30601C20.3182 8.26744 20.578 8.30512 20.8094 8.41431C21.0408 8.5235 21.2335 8.69928 21.3629 8.91943C21.4924 9.13958 21.5529 9.39421 21.5368 9.65111C21.5207 9.90802 21.4287 10.1557 21.2725 10.3627C21.1162 10.5698 20.9027 10.727 20.659 10.8145C20.4153 10.9019 20.1523 10.9157 19.9032 10.854C19.6541 10.7923 19.4302 10.658 19.2598 10.468C19.1464 10.342 19.0595 10.1944 19.004 10.0338C18.9484 9.87321 18.9253 9.70272 18.936 9.53209C18.9467 9.36146 18.991 9.19404 19.0663 9.03943C19.1416 8.88482 19.2465 8.74604 19.3749 8.63104Z" fill="#8B9DC3"/>
</svg>
