<svg width="54" height="54" viewBox="0 0 54 54" fill="none" xmlns="http://www.w3.org/2000/svg">
<path d="M40.8893 27V40.8893M29.7773 40.8893V35.3333M2 35.3333L9.86133 27.472M15.8893 13.1107C13.6792 13.1107 11.5596 13.9886 9.99678 15.5514C8.43397 17.1142 7.556 19.2339 7.556 21.444C7.556 23.6541 8.43397 25.7737 9.99678 27.3365C11.5596 28.8993 13.6792 29.7773 15.8893 29.7773C18.0995 29.7773 20.2191 28.8993 21.7819 27.3365C23.3447 25.7737 24.2227 23.6541 24.2227 21.444C24.2227 19.2339 23.3447 17.1142 21.7819 15.5514C20.2191 13.9886 18.0995 13.1107 15.8893 13.1107Z" stroke="#3B5998" stroke-width="3" stroke-linecap="round" stroke-linejoin="round"/>
<path d="M15.8893 2H49.2227C49.9592 2 50.6657 2.29261 51.1865 2.81346C51.7074 3.33431 52 4.04074 52 4.77733V49.2227C52 49.9593 51.7074 50.6657 51.1865 51.1865C50.6657 51.7074 49.9592 52 49.2227 52H15.8893C15.5245 52.0002 15.1632 51.9285 14.8261 51.789C14.489 51.6495 14.1826 51.4449 13.9246 51.187C13.6665 50.9291 13.4619 50.6229 13.3222 50.2858C13.1825 49.9488 13.1107 49.5875 13.1107 49.2227V40.8893" stroke="#3B5998" stroke-width="3" stroke-linecap="round" stroke-linejoin="round"/>
</svg>
