<svg width="56" height="50" viewBox="0 0 56 50" fill="none" xmlns="http://www.w3.org/2000/svg">
<path d="M45.6471 39.7647L53 47.1176M3 3H50.0588M3 20.6471H14.7647M3 38.2941H14.7647M23.5882 29.4706C23.5882 32.5908 24.8277 35.5832 27.034 37.7895C29.2403 39.9958 32.2327 41.2353 35.3529 41.2353C38.4731 41.2353 41.4655 39.9958 43.6718 37.7895C45.8782 35.5832 47.1176 32.5908 47.1176 29.4706C47.1176 26.3504 45.8782 23.358 43.6718 21.1517C41.4655 18.9454 38.4731 17.7059 35.3529 17.7059C32.2327 17.7059 29.2403 18.9454 27.034 21.1517C24.8277 23.358 23.5882 26.3504 23.5882 29.4706Z" stroke="#3B5998" stroke-width="5" stroke-linecap="round" stroke-linejoin="round"/>
</svg>
