<svg width="52" height="39" viewBox="0 0 52 39" fill="none" xmlns="http://www.w3.org/2000/svg">
<path d="M28.0042 20.7545V10.668H34.0915V11.7515H29.2256V15.1596H33.7763V16.2431H29.2256V19.671H34.1703V20.7545H28.0042Z" fill="#8B9DC3"/>
<path d="M36.293 20.7545V10.668H39.7011C40.4891 10.668 41.1359 10.8026 41.6415 11.0719C42.1472 11.3378 42.5215 11.7039 42.7644 12.1702C43.0074 12.6364 43.1289 13.1667 43.1289 13.7609C43.1289 14.3552 43.0074 14.8822 42.7644 15.3419C42.5215 15.8015 42.1488 16.1627 41.6464 16.4254C41.1441 16.6848 40.5022 16.8145 39.7208 16.8145H36.9628V15.7112H39.6814C40.2198 15.7112 40.6532 15.6324 40.9816 15.4748C41.3132 15.3172 41.5529 15.094 41.7006 14.805C41.8517 14.5128 41.9272 14.1648 41.9272 13.7609C41.9272 13.3571 41.8517 13.0041 41.7006 12.7021C41.5496 12.4 41.3083 12.1669 40.9766 12.0027C40.645 11.8353 40.2067 11.7515 39.6617 11.7515H37.5144V20.7545H36.293ZM41.0407 16.2234L43.5229 20.7545H42.1045L39.6617 16.2234H41.0407Z" fill="#8B9DC3"/>
<path d="M45.1641 20.7545V10.668H48.5723C49.3635 10.668 50.0104 10.8109 50.5127 11.0965C51.0183 11.3789 51.3926 11.7614 51.6356 12.244C51.8786 12.7267 52.0001 13.2652 52.0001 13.8594C52.0001 14.4537 51.8786 14.9938 51.6356 15.4798C51.3959 15.9657 51.0249 16.3531 50.5226 16.6421C50.0202 16.9277 49.3767 17.0706 48.592 17.0706H46.1491V15.987H48.5526C49.0943 15.987 49.5293 15.8935 49.8577 15.7063C50.186 15.5192 50.4241 15.2664 50.5718 14.9479C50.7228 14.6261 50.7984 14.2633 50.7984 13.8594C50.7984 13.4556 50.7228 13.0944 50.5718 12.7759C50.4241 12.4575 50.1844 12.2079 49.8528 12.0273C49.5211 11.8435 49.0812 11.7515 48.5329 11.7515H46.3855V20.7545H45.1641Z" fill="#8B9DC3"/>
<path d="M18.8663 9.89974C18.7676 9.06796 18.3675 8.42224 17.6659 7.96257C16.9643 7.5029 16.1038 7.27306 15.0843 7.27306C14.3389 7.27306 13.6866 7.39345 13.1275 7.63423C12.5739 7.87501 12.1409 8.20608 11.8285 8.62744C11.5215 9.04881 11.3681 9.52763 11.3681 10.0639C11.3681 10.5126 11.475 10.8984 11.6887 11.2213C11.908 11.5387 12.1875 11.8041 12.5273 12.0175C12.8672 12.2254 13.2234 12.3978 13.5962 12.5346C13.9689 12.666 14.3114 12.7727 14.6239 12.8547L16.334 13.3144C16.7725 13.4293 17.2603 13.588 17.7974 13.7905C18.3401 13.993 18.858 14.2693 19.3514 14.6195C19.8501 14.9643 20.2612 15.4075 20.5846 15.9493C20.908 16.4911 21.0697 17.1559 21.0697 17.9439C21.0697 18.8523 20.8313 19.6732 20.3544 20.4064C19.883 21.1397 19.1924 21.7225 18.2825 22.1548C17.3781 22.5871 16.2792 22.8033 14.9856 22.8033C13.7798 22.8033 12.7356 22.609 11.8532 22.2205C10.9762 21.832 10.2855 21.2902 9.78128 20.5952C9.2825 19.9003 9.00022 19.0931 8.93445 18.1738H11.0392C11.094 18.8085 11.3078 19.3339 11.6805 19.7498C12.0587 20.1602 12.5356 20.4666 13.1111 20.6691C13.6921 20.8661 14.3169 20.9646 14.9856 20.9646C15.7639 20.9646 16.4628 20.8388 17.0822 20.587C17.7015 20.3298 18.1921 19.9741 18.5538 19.5199C18.9156 19.0603 19.0965 18.524 19.0965 17.9111C19.0965 17.3529 18.9403 16.8987 18.6278 16.5485C18.3154 16.1983 17.9043 15.9137 17.3946 15.6948C16.8848 15.476 16.334 15.2844 15.742 15.1203L13.6702 14.5293C12.3547 14.1517 11.3133 13.6127 10.5459 12.9122C9.77854 12.2118 9.39486 11.2952 9.39486 10.1624C9.39486 9.22118 9.64974 8.40035 10.1595 7.6999C10.6747 6.99398 11.3653 6.44676 12.2314 6.05823C13.1029 5.66422 14.0758 5.46722 15.1501 5.46722C16.2353 5.46722 17.2 5.66149 18.0441 6.05002C18.8882 6.43307 19.5569 6.95841 20.0502 7.62602C20.549 8.29364 20.8121 9.05154 20.8395 9.89974H18.8663Z" fill="#8B9DC3"/>
<path d="M22.8033 22.8033L27.1373 27.1373M27.0211 30.6478C26.7706 30.4126 26.5698 30.1293 26.4308 29.8149C26.2918 29.5006 26.2174 29.1615 26.212 28.8178C26.2066 28.4741 26.2703 28.1328 26.3993 27.8142C26.5284 27.4956 26.7201 27.2062 26.9632 26.9632C27.2062 26.7201 27.4956 26.5284 27.8142 26.3993C28.1328 26.2703 28.4741 26.2066 28.8178 26.212C29.1615 26.2174 29.5006 26.2918 29.8149 26.4308C30.1293 26.5698 30.4125 26.7706 30.6478 27.0211L35.9215 32.2948C36.172 32.5301 36.3728 32.8133 36.5118 33.1277C36.6508 33.442 36.7252 33.7811 36.7306 34.1248C36.736 34.4685 36.6723 34.8098 36.5433 35.1284C36.4142 35.447 36.2225 35.7364 35.9794 35.9794C35.7364 36.2225 35.447 36.4142 35.1284 36.5433C34.8098 36.6723 34.4685 36.736 34.1248 36.7306C33.7811 36.7252 33.442 36.6508 33.1277 36.5118C32.8133 36.3728 32.53 36.172 32.2948 35.9215L27.0211 30.6478ZM26.2705 14.1352C26.2705 10.9168 24.9919 7.83013 22.7162 5.55433C20.4404 3.27853 17.3537 2 14.1352 2C10.9168 2 7.83013 3.27853 5.55433 5.55433C3.27853 7.83013 2 10.9168 2 14.1352C2 17.3537 3.27853 20.4404 5.55433 22.7162C7.83013 24.992 10.9168 26.2705 14.1352 26.2705C17.3537 26.2705 20.4404 24.992 22.7162 22.7162C24.9919 20.4404 26.2705 17.3537 26.2705 14.1352Z" stroke="#3B5998" stroke-width="3" stroke-linecap="round" stroke-linejoin="round"/>
</svg>
