<svg width="56" height="40" viewBox="0 0 56 40" fill="none" xmlns="http://www.w3.org/2000/svg">
<path d="M30.5571 1.08385C34.8792 -0.399958 39.5791 -0.359147 43.8748 1.19949C46.234 2.08265 48.3955 3.42309 50.2352 5.14388C49.6101 5.81273 48.9506 6.43783 48.313 7.08794C47.1003 8.29854 45.8887 9.50499 44.6781 10.7073C43.4711 9.55313 42.0113 8.69692 40.4149 8.20686C38.372 7.59002 36.1986 7.54778 34.1333 8.08479C32.068 8.6218 30.1905 9.7173 28.7068 11.2511C27.4117 12.5686 26.4309 14.1616 25.8376 15.9112L19.3584 10.8948C21.6775 6.29581 25.693 2.77795 30.5571 1.08385Z" fill="#3B5998"/>
<path d="M17.6394 15.8643C17.9876 14.1384 18.5658 12.467 19.3584 10.8948L25.8376 15.9237C24.99 18.4197 24.99 21.1258 25.8376 23.6218C23.6789 25.2887 21.5192 26.964 19.3584 28.6476C17.3742 24.698 16.769 20.1978 17.6394 15.8643Z" fill="#3B5998"/>
<path d="M37.0206 16.0675H55.6235C56.2599 19.5585 56.0877 23.1489 55.1203 26.5629C54.2303 29.7024 52.5014 32.54 50.1195 34.7705C48.0286 33.139 45.9282 31.52 43.8373 29.8885C44.8739 29.1892 45.7587 28.2879 46.4387 27.2385C47.1186 26.189 47.5796 25.0131 47.7942 23.7812H37.0206C37.0174 21.2121 37.0206 18.6398 37.0206 16.0675Z" fill="#3B5998"/>
<path d="M19.3552 28.6476C21.516 26.9807 23.6757 25.3054 25.8344 23.6218C26.6695 26.0728 28.2579 28.1972 30.3726 29.6915C31.6916 30.6238 33.1903 31.271 34.7733 31.5918C36.3331 31.8819 37.933 31.8819 39.4928 31.5918C41.0481 31.3286 42.5311 30.7431 43.8466 29.8728C45.9376 31.5043 48.0379 33.1233 50.1289 34.7549C47.8407 36.8356 45.0513 38.2863 42.0338 38.9649C38.7033 39.7479 35.2325 39.7103 31.9197 38.8555C29.2996 38.1559 26.8523 36.9227 24.7311 35.2331C22.4859 33.4505 20.6522 31.2042 19.3552 28.6476Z" fill="#3B5998"/>
<path d="M27.8614 17.2709C28.539 17.2709 29.0883 16.7216 29.0883 16.044C29.0883 15.3664 28.539 14.8171 27.8614 14.8171C27.1838 14.8171 26.6345 15.3664 26.6345 16.044C26.6345 16.7216 27.1838 17.2709 27.8614 17.2709Z" stroke="black" stroke-linecap="round" stroke-linejoin="round"/>
<path d="M31.4955 21.1807C32.3088 21.1807 32.9681 20.5214 32.9681 19.708C32.9681 18.8947 32.3088 18.2354 31.4955 18.2354C30.6821 18.2354 30.0228 18.8947 30.0228 19.708C30.0228 20.5214 30.6821 21.1807 31.4955 21.1807Z" stroke="black" stroke-linecap="round" stroke-linejoin="round"/>
<path d="M6.82624 5.30847L16.7824 7.05238M9.7627 8.84121L16.2319 9.98796M7.88227 11.3637L15.773 12.7403M21.5676 24.2722L21.3236 21.274C20.7123 17.2181 16.0284 16.2334 14.5796 20.1502C12.9757 23.4654 7.25781 26.563 1 27.3293C3.52162 35.4728 17.0034 33.8698 18.8469 31.5041" stroke="black" stroke-linecap="round" stroke-linejoin="round"/>
<path d="M4.25794 11.4227V12.7526M4.25794 14.825V16.155M5.33952 13.7893L6.66947 13.8351M1.93713 13.8351H3.26708M8.4627 20.7015L9.37076 21.6747M9.37076 18.2635L8.43011 19.2042M6.02475 18.3278L6.9654 19.2685M6.9654 20.6689L6.02475 21.6095M14.5796 20.1501C16.63 21.8588 18.9297 21.8896 21.3236 21.274M5.7385 32.3214C10.7536 30.6215 13.8582 28.4434 15.5889 25.9077M15.5431 29.9909C14.5602 31.3508 13.3668 32.479 11.3454 33.4065M2.32467 29.8332C5.17922 29.7539 7.41195 28.7622 9.5795 27.6507M16.9541 17.7721L19.7875 2.64762C20.1821 0.0299979 23.2639 0.781288 22.6659 3.1523L19.703 18.3657M19.8104 26.7329C15.4225 29.2237 19.5938 33.3994 22.1039 31.7797C23.928 34.2256 27.8016 33.7614 28.7096 31.9171C33.8938 34.23 35.0846 27.0086 30.8208 26.3665C29.8731 23.054 26.4452 22.4797 24.3974 24.4852C22.6474 24.0537 20.8497 23.3702 19.8104 26.7329Z" stroke="black" stroke-linecap="round" stroke-linejoin="round"/>
</svg>
