<svg width="42" height="48" viewBox="0 0 42 48" fill="none" xmlns="http://www.w3.org/2000/svg">
<path d="M6.3 3.13043C6.02152 3.13043 5.75445 3.24037 5.55754 3.43606C5.36062 3.63175 5.25 3.89717 5.25 4.17391V41.7391C5.25 42.0159 5.36062 42.2813 5.55754 42.477C5.75445 42.6727 6.02152 42.7826 6.3 42.7826H9.975C10.3927 42.7826 10.7933 42.9475 11.0887 43.241C11.3841 43.5346 11.55 43.9327 11.55 44.3478C11.55 44.7629 11.3841 45.1611 11.0887 45.4546C10.7933 45.7481 10.3927 45.913 9.975 45.913H6.3C5.18609 45.913 4.1178 45.4733 3.33015 44.6905C2.5425 43.9078 2.1 42.8461 2.1 41.7391V4.17391C2.1 3.06692 2.5425 2.00527 3.33015 1.22251C4.1178 0.43975 5.18609 0 6.3 0H27.2622C28.376 0.0002364 29.4441 0.440142 30.2316 1.22296L38.6694 9.60835C39.4571 10.3909 39.8998 11.4524 39.9 12.5593V41.7391C39.9 42.8461 39.4575 43.9078 38.6698 44.6905C37.8822 45.4733 36.8139 45.913 35.7 45.913H29.925C29.5073 45.913 29.1067 45.7481 28.8113 45.4546C28.5159 45.1611 28.35 44.7629 28.35 44.3478C28.35 43.9327 28.5159 43.5346 28.8113 43.241C29.1067 42.9475 29.5073 42.7826 29.925 42.7826H35.7C35.9785 42.7826 36.2455 42.6727 36.4425 42.477C36.6394 42.2813 36.75 42.0159 36.75 41.7391V12.5593C36.7502 12.4222 36.7233 12.2864 36.6707 12.1596C36.6181 12.0328 36.5408 11.9176 36.4434 11.8205L28.0056 3.43513C27.9079 3.33829 27.792 3.26154 27.6644 3.20926C27.5369 3.15697 27.4002 3.13019 27.2622 3.13043H6.3Z" fill="#3B5998"/>
<path d="M0 18.7826H42V31.3043H0V18.7826Z" fill="#DFE3EE"/>
<path d="M19.95 30.7826C19.95 30.3675 19.7841 29.9694 19.4887 29.6758C19.1933 29.3823 18.7927 29.2174 18.375 29.2174H16.275C15.8573 29.2174 15.4567 29.3823 15.1613 29.6758C14.8659 29.9694 14.7 30.3675 14.7 30.7826C14.7 31.1977 14.8659 31.5958 15.1613 31.8894C15.4567 32.1829 15.8573 32.3478 16.275 32.3478H18.375C18.7927 32.3478 19.1933 32.1829 19.4887 31.8894C19.7841 31.5958 19.95 31.1977 19.95 30.7826ZM21 33.3913H18.9C17.7861 33.3913 16.7178 33.8311 15.9302 34.6138C15.1425 35.3966 14.7 36.4582 14.7 37.5652V46.4348C14.7 46.8499 14.8659 47.248 15.1613 47.5416C15.4567 47.8351 15.8573 48 16.275 48H23.625C24.0427 48 24.4433 47.8351 24.7387 47.5416C25.0341 47.248 25.2 46.8499 25.2 46.4348V37.5652C25.2 36.4582 24.7575 35.3966 23.9698 34.6138C23.1822 33.8311 22.1139 33.3913 21 33.3913ZM22.05 37.5652V44.8696H17.85V37.5652C17.85 37.2885 17.9606 37.0231 18.1575 36.8274C18.3545 36.6317 18.6215 36.5217 18.9 36.5217H21C21.2785 36.5217 21.5455 36.6317 21.7425 36.8274C21.9394 37.0231 22.05 37.2885 22.05 37.5652Z" fill="#587DBD"/>
<path d="M14.5484 23.5199C14.457 23.2528 14.3365 23.0134 14.1869 22.8018C14.0402 22.5875 13.8643 22.405 13.6593 22.2543C13.4572 22.1035 13.2273 21.9884 12.9697 21.9091C12.7122 21.8297 12.4297 21.79 12.1223 21.79C11.6182 21.79 11.1598 21.9144 10.7472 22.163C10.3345 22.4116 10.0063 22.778 9.76261 23.262C9.51889 23.7461 9.39703 24.3399 9.39703 25.0435C9.39703 25.7471 9.52028 26.3409 9.76677 26.8249C10.0133 27.309 10.347 27.6753 10.768 27.924C11.1889 28.1726 11.6625 28.2969 12.1887 28.2969C12.6762 28.2969 13.1054 28.1977 13.4766 27.9993C13.8504 27.7983 14.1412 27.5153 14.349 27.1503C14.5594 26.7826 14.6647 26.3501 14.6647 25.8529L14.9804 25.9163H12.4214V25.0435H15.6617V25.9163C15.6617 26.5856 15.5122 27.1675 15.2131 27.6621C14.9167 28.1567 14.5068 28.5403 13.9834 28.8127C13.4627 29.0825 12.8645 29.2174 12.1887 29.2174C11.4354 29.2174 10.7735 29.0481 10.203 28.7095C9.63521 28.371 9.19209 27.8896 8.87359 27.2653C8.55786 26.6411 8.4 25.9005 8.4 25.0435C8.4 24.4007 8.49001 23.8228 8.67003 23.3096C8.85282 22.7939 9.11039 22.3548 9.44273 21.9924C9.77507 21.63 10.1683 21.3523 10.6226 21.1592C11.0768 20.9661 11.5767 20.8696 12.1223 20.8696C12.5709 20.8696 12.9891 20.9344 13.3769 21.064C13.7674 21.1909 14.1149 21.3721 14.4196 21.6075C14.727 21.8403 14.9832 22.1194 15.1881 22.4447C15.3931 22.7674 15.5343 23.1258 15.6119 23.5199H14.5484Z" fill="#3B5998"/>
<path d="M17.1438 29.1063V28.3921L21.7301 21.8535H17.0939V20.9807H22.9598V21.6948L18.3734 28.2334H23.0096V29.1063H17.1438Z" fill="#3B5998"/>
<path d="M25.7681 20.9807V29.1063H24.7378V20.9807H25.7681Z" fill="#3B5998"/>
<path d="M27.8338 29.1063V20.9807H30.7086C31.3761 20.9807 31.9217 21.0957 32.3454 21.3258C32.7719 21.5533 33.0876 21.8615 33.2926 22.2503C33.4975 22.6391 33.6 23.0729 33.6 23.5517C33.6 24.0304 33.4975 24.4655 33.2926 24.857C33.0904 25.2485 32.7774 25.5606 32.3537 25.7934C31.93 26.0235 31.3871 26.1385 30.7252 26.1385H28.6647V25.2657H30.692C31.149 25.2657 31.5159 25.1903 31.7929 25.0395C32.0698 24.8887 32.2706 24.6851 32.3953 24.4285C32.5227 24.1693 32.5863 23.877 32.5863 23.5517C32.5863 23.2263 32.5227 22.9354 32.3953 22.6788C32.2706 22.4222 32.0684 22.2212 31.7887 22.0757C31.509 21.9276 31.1379 21.8535 30.6754 21.8535H28.8641V29.1063H27.8338Z" fill="#3B5998"/>
<path fill-rule="evenodd" clip-rule="evenodd" d="M20.4113 17.1541C20.1159 17.4476 19.95 17.8457 19.95 18.2609C19.95 18.676 20.1159 19.0741 20.4113 19.3676C20.7067 19.6612 21.1073 19.8261 21.525 19.8261H23.625C24.0427 19.8261 24.4433 19.6612 24.7387 19.3676C25.0341 19.0741 25.2 18.676 25.2 18.2609C25.2 17.8457 25.0341 17.4476 24.7387 17.1541C24.4433 16.8606 24.0427 16.6957 23.625 16.6957H21.525C21.1073 16.6957 20.7067 16.8606 20.4113 17.1541ZM20.4113 10.8932C20.7067 10.5997 21.1073 10.4348 21.525 10.4348H23.625C24.0427 10.4348 24.4433 10.5997 24.7387 10.8932C25.0341 11.1868 25.2 11.5849 25.2 12C25.2 12.4151 25.0341 12.8132 24.7387 13.1068C24.4433 13.4003 24.0427 13.5652 23.625 13.5652H21.525C21.1073 13.5652 20.7067 13.4003 20.4113 13.1068C20.1159 12.8132 19.95 12.4151 19.95 12C19.95 11.5849 20.1159 11.1868 20.4113 10.8932ZM20.4113 4.63235C20.1159 4.92589 19.95 5.32401 19.95 5.73913C19.95 6.15425 20.1159 6.55237 20.4113 6.84591C20.7067 7.13944 21.1073 7.30435 21.525 7.30435H23.625C24.0427 7.30435 24.4433 7.13944 24.7387 6.84591C25.0341 6.55237 25.2 6.15425 25.2 5.73913C25.2 5.32401 25.0341 4.92589 24.7387 4.63235C24.4433 4.33882 24.0427 4.17391 23.625 4.17391H21.525C21.1073 4.17391 20.7067 4.33882 20.4113 4.63235ZM15.1613 14.0237C15.4567 13.7301 15.8573 13.5652 16.275 13.5652H18.375C18.7927 13.5652 19.1933 13.7301 19.4887 14.0237C19.7841 14.3172 19.95 14.7153 19.95 15.1304C19.95 15.5456 19.7841 15.9437 19.4887 16.2372C19.1933 16.5307 18.7927 16.6957 18.375 16.6957H16.275C15.8573 16.6957 15.4567 16.5307 15.1613 16.2372C14.8659 15.9437 14.7 15.5456 14.7 15.1304C14.7 14.7153 14.8659 14.3172 15.1613 14.0237ZM15.1613 7.76279C14.8659 8.05632 14.7 8.45444 14.7 8.86957C14.7 9.28469 14.8659 9.68281 15.1613 9.97634C15.4567 10.2699 15.8573 10.4348 16.275 10.4348H18.375C18.7927 10.4348 19.1933 10.2699 19.4887 9.97634C19.7841 9.68281 19.95 9.28469 19.95 8.86957C19.95 8.45444 19.7841 8.05632 19.4887 7.76279C19.1933 7.46925 18.7927 7.30435 18.375 7.30435H16.275C15.8573 7.30435 15.4567 7.46925 15.1613 7.76279Z" fill="#587DBD"/>
</svg>
