<svg width="36" height="37" viewBox="0 0 36 37" fill="none" xmlns="http://www.w3.org/2000/svg">
<path d="M9.18678 0.0203924C8.92673 -0.0317217 8.65664 0.0216007 8.43591 0.168629C8.21518 0.315657 8.0619 0.544348 8.00978 0.804392L6.50978 8.30439C6.48193 8.44399 6.4842 8.58793 6.51645 8.72659C6.5487 8.86524 6.61018 8.99541 6.69678 9.10839L12.7748 17.0564C12.6581 17.3984 12.5531 17.7521 12.4598 18.1174C12.4226 18.0977 12.3842 18.0803 12.3448 18.0654L5.95178 15.6434L1.70578 11.3014C1.51951 11.1158 1.26765 11.0111 1.00472 11.0098C0.74179 11.0086 0.488952 11.111 0.300939 11.2948C0.112927 11.4786 0.00486959 11.729 0.000160587 11.9919C-0.00454842 12.2548 0.0944694 12.509 0.275779 12.6994L4.67578 17.1994C4.77778 17.3034 4.90078 17.3844 5.03578 17.4354L11.6358 19.9354C11.7938 19.9954 11.9558 20.0124 12.1118 19.9934C12.0718 20.3234 12.0414 20.6587 12.0208 20.9994L6.47978 20.5044C6.31073 20.4892 6.14061 20.5174 5.98543 20.5861C5.83025 20.6549 5.69513 20.762 5.59278 20.8974L2.19278 25.3974C2.11359 25.5022 2.05582 25.6216 2.02277 25.7487C1.98971 25.8758 1.98201 26.0082 2.00012 26.1383C2.01823 26.2684 2.06178 26.3936 2.1283 26.5069C2.19481 26.6202 2.28298 26.7192 2.38778 26.7984C2.49257 26.8776 2.61194 26.9354 2.73906 26.9684C2.86618 27.0015 2.99857 27.0092 3.12866 26.9911C3.25876 26.9729 3.38401 26.9294 3.49728 26.8629C3.61054 26.7964 3.70959 26.7082 3.78878 26.6034L6.85478 22.5464L11.9018 22.9964C11.9418 23.0004 11.9814 23.0017 12.0208 23.0004C12.0308 23.1691 12.0431 23.3364 12.0578 23.5024C11.8653 23.4895 11.6733 23.5326 11.5048 23.6264L7.00478 26.1264C6.79748 26.2418 6.63798 26.4272 6.55478 26.6494L3.55478 34.6494C3.50459 34.7732 3.47969 34.9057 3.48157 35.0393C3.48344 35.1728 3.51205 35.3046 3.5657 35.4269C3.61934 35.5492 3.69695 35.6595 3.79393 35.7514C3.89091 35.8432 4.0053 35.9147 4.13035 35.9615C4.2554 36.0084 4.38857 36.0298 4.52202 36.0244C4.65546 36.019 4.78647 35.9869 4.90731 35.93C5.02814 35.8731 5.13637 35.7926 5.22559 35.6933C5.31481 35.5939 5.38322 35.4776 5.42678 35.3514L8.29778 27.6964L12.3558 25.4424C13.1968 29.2694 15.4028 32.0004 17.9908 32.0004C20.5788 32.0004 22.7848 29.2694 23.6258 25.4424L27.6838 27.6964L30.5538 35.3514C30.6469 35.5998 30.8348 35.801 31.0763 35.9108C31.3177 36.0206 31.5929 36.03 31.8413 35.9369C32.0897 35.8438 32.2909 35.6559 32.4007 35.4144C32.5105 35.173 32.5199 34.8978 32.4268 34.6494L29.4268 26.6494C29.3436 26.4272 29.1841 26.2418 28.9768 26.1264L24.4768 23.6264C24.3083 23.5326 24.1162 23.4895 23.9238 23.5024C23.9384 23.3364 23.9508 23.1691 23.9608 23.0004C24.0008 23.0017 24.0404 23.0004 24.0798 22.9964L29.1268 22.5464L32.1928 26.6034C32.3527 26.815 32.5902 26.9545 32.8529 26.9911C33.1156 27.0276 33.3821 26.9583 33.5938 26.7984C33.8054 26.6385 33.9449 26.401 33.9814 26.1383C34.018 25.8755 33.9487 25.609 33.7888 25.3974L30.3888 20.8974C30.2864 20.762 30.1513 20.6549 29.9961 20.5861C29.841 20.5174 29.6708 20.4892 29.5018 20.5044L23.9618 20.9994C23.9404 20.6594 23.9098 20.3241 23.8698 19.9934C24.0258 20.0134 24.1878 19.9954 24.3448 19.9354L30.9448 17.4354C31.0808 17.3839 31.204 17.3034 31.3058 17.1994L35.7058 12.6994C35.7996 12.6059 35.8739 12.4948 35.9244 12.3723C35.9749 12.2499 36.0006 12.1187 36 11.9862C35.9994 11.8538 35.9724 11.7228 35.9208 11.6009C35.8691 11.4789 35.7938 11.3685 35.6991 11.2759C35.6044 11.1833 35.4922 11.1105 35.3691 11.0616C35.2461 11.0127 35.1145 10.9887 34.9821 10.9911C34.8497 10.9935 34.7191 11.0221 34.5978 11.0754C34.4766 11.1287 34.3671 11.2055 34.2758 11.3014L30.0298 15.6434L23.6368 18.0654C23.5968 18.0801 23.5584 18.0974 23.5218 18.1174C23.4284 17.7514 23.3234 17.3977 23.2068 17.0564L29.2848 9.10839C29.3714 8.99541 29.4329 8.86524 29.4651 8.72659C29.4974 8.58793 29.4996 8.44399 29.4718 8.30439L27.9718 0.804392C27.9198 0.544215 27.7666 0.315344 27.5459 0.168128C27.3251 0.0209119 27.055 -0.03259 26.7948 0.0193924C26.5346 0.0713748 26.3057 0.224583 26.1585 0.445313C26.0113 0.666044 25.9578 0.936215 26.0098 1.19639L27.4218 8.25239L22.2698 14.9904C21.9195 14.3849 21.4893 13.8292 20.9908 13.3384V9.50039C20.9908 9.23518 20.8854 8.98082 20.6979 8.79329C20.5103 8.60575 20.256 8.50039 19.9908 8.50039C19.7256 8.50039 19.4712 8.60575 19.2837 8.79329C19.0961 8.98082 18.9908 9.23518 18.9908 9.50039V10.0004H16.9908V9.50039C16.9908 9.23518 16.8854 8.98082 16.6979 8.79329C16.5103 8.60575 16.256 8.50039 15.9908 8.50039C15.7256 8.50039 15.4712 8.60575 15.2837 8.79329C15.0961 8.98082 14.9908 9.23518 14.9908 9.50039V13.3384C14.4923 13.8292 14.0621 14.3849 13.7118 14.9904L8.55978 8.25239L9.97178 1.19639C10.0236 0.936353 9.96997 0.666389 9.82277 0.445859C9.67556 0.22533 9.4468 0.0722909 9.18678 0.0203924Z" fill="#3B5998"/>
</svg>
