<svg width="50" height="50" viewBox="0 0 50 50" fill="none" xmlns="http://www.w3.org/2000/svg">
<path d="M25 3.56855C13.1653 3.56855 3.56855 13.1653 3.56855 25C3.56855 36.8347 13.1653 46.4315 25 46.4315C36.8347 46.4315 46.4315 36.8347 46.4315 25C46.4315 13.1653 36.8347 3.56855 25 3.56855ZM15.1815 16.9657C15.1815 11.5524 19.5867 7.14718 25 7.14718C30.4133 7.14718 34.8185 11.5524 34.8185 16.9657V19.6472C34.8185 20.1512 34.4254 20.5444 33.9214 20.5444H32.1371C31.6331 20.5444 31.2399 20.1512 31.2399 19.6472V16.9657C31.2399 8.68952 18.7399 8.68952 18.7399 16.9657V19.6472C18.7399 20.1512 18.3468 20.5444 17.8427 20.5444H16.0585C15.5544 20.5444 15.1613 20.1512 15.1613 19.6472V16.9657H15.1815ZM39.2843 37.5C39.2843 38.4778 38.4778 39.2843 37.5 39.2843H12.5C11.5222 39.2843 10.7157 38.4778 10.7157 37.5V23.2157C10.7157 22.2379 11.5222 21.4315 12.5 21.4315H37.5C38.4778 21.4315 39.2843 22.2379 39.2843 23.2157V37.5ZM14.2843 23.6593V37.0565C14.2843 37.3085 14.0927 37.5 13.8407 37.5H12.9435C12.6915 37.5 12.5 37.3085 12.5 37.0565V23.6593C12.5 23.4073 12.6915 23.2157 12.9435 23.2157H13.8407C14.0927 23.2157 14.2843 23.4073 14.2843 23.6593ZM28.5685 28.5685C28.5685 29.879 27.8427 31.0282 26.7843 31.6331V34.8185C26.7843 35.3226 26.3911 35.7157 25.8871 35.7157H24.1028C23.5988 35.7157 23.2056 35.3226 23.2056 34.8185V31.6331C22.1472 31.0181 21.4214 29.879 21.4214 28.5685C21.4214 26.5827 23.0141 25 24.9899 25C26.9657 25 28.5685 26.5927 28.5685 28.5685ZM25 0C11.1895 0 0 11.1895 0 25C0 38.8105 11.1895 50 25 50C38.8105 50 50 38.8105 50 25C50 11.1895 38.8105 0 25 0ZM25 48.2157C12.1976 48.2157 1.78427 37.8024 1.78427 25C1.78427 12.1976 12.1976 1.78427 25 1.78427C37.8024 1.78427 48.2157 12.1976 48.2157 25C48.2157 37.8024 37.8024 48.2157 25 48.2157Z" fill="#3B5998"/>
</svg>
