<svg width="50" height="50" viewBox="0 0 50 50" fill="none" xmlns="http://www.w3.org/2000/svg">
<path d="M32.3242 2.94085L28.0547 7.25222C24.2038 11.2287 24.3712 17.7167 28.5151 21.6932C32.6591 25.6697 39.1052 25.7116 42.9561 21.7351L47.2257 17.4656C51.0766 13.4891 50.9092 7.00107 46.7652 3.02457C42.6213 -0.951938 36.217 -1.03565 32.3242 2.94085ZM43.2073 13.5309L38.9378 17.8004C37.1797 19.6422 34.2078 19.6003 32.3242 17.8004C30.3988 15.9587 30.315 12.9868 32.1149 11.1869L36.3844 6.91736C38.1425 5.07561 41.1144 5.11747 42.998 6.91736C44.8816 8.71725 44.9653 11.6892 43.2073 13.5309Z" fill="#3B5998"/>
<path d="M35.1705 21.6514C35.003 20.1026 36.7192 19.098 37.4726 18.805C35.7983 19.5166 33.7054 19.1817 32.2823 17.8004C31.194 16.7121 30.6917 15.2471 30.8591 13.8658C30.8591 13.8658 29.7289 16.168 28.0127 16.8796C26.464 17.5493 25.6687 17.0051 25.6687 17.0051C26.171 18.7213 27.0919 20.3538 28.4732 21.6932C31.1521 24.2884 34.8356 25.2093 38.1424 24.414C37.0541 24.4558 35.3798 23.6187 35.1705 21.6514Z" fill="#2F7889"/>
<path d="M31.0685 14.9541L25.627 20.3956L27.5524 26.4232L35.045 18.9306C36.0914 17.8842 36.3426 16.2517 35.045 14.9541C33.7474 13.6565 32.1149 13.9076 31.0685 14.9541Z" fill="#8B9DC3"/>
<path d="M27.4268 23.1164C27.9291 24.7907 27.9291 26.0464 27.5105 26.4232C27.1756 26.7162 26.2966 25.2093 25.7943 23.535C25.292 21.8606 25.2502 20.7305 25.585 20.3956C26.0036 20.0607 26.9245 21.4421 27.4268 23.1164ZM27.0919 15.4564C27.8454 15.3727 27.8035 14.0751 27.8035 13.8658C27.9291 12.4426 28.4314 11.0613 29.3941 10.0148C30.0638 9.26139 29.8964 8.71724 29.6453 8.42423C29.3104 8.04751 28.7244 8.00565 27.9709 8.88467C26.7152 10.3078 26.1292 12.2333 26.1711 14.1588C26.1711 14.5355 26.3385 15.5401 27.0919 15.4564Z" fill="#DFE3EE"/>
<path d="M17.6739 47.0592L21.9434 42.7897C25.7944 38.8132 25.6269 32.3252 21.483 28.3487C17.3391 24.3722 10.8929 24.3303 7.04199 28.3068L2.77248 32.5345C-1.07845 36.511 -0.91102 42.999 3.23292 46.9755C7.37686 50.952 13.7811 51.0357 17.6739 47.0592ZM6.79084 36.4691L11.0604 32.1996C12.8184 30.3578 15.7903 30.3997 17.6739 32.1996C19.5575 34.0413 19.6412 37.0133 17.8832 38.8132L13.6137 43.0827C11.8557 44.9244 8.88374 44.8826 7.00013 43.0827C5.11653 41.2828 5.03281 38.3109 6.79084 36.4691Z" fill="#8B9DC3"/>
<path d="M17.6739 47.0592L21.9434 42.7897C25.7944 38.8132 25.6269 32.3252 21.483 28.3487C17.3391 24.3722 10.8929 24.3303 7.04199 28.3068L2.77248 32.5345C-1.07845 36.511 -0.91102 42.999 3.23292 46.9755C7.37686 50.952 13.7811 51.0357 17.6739 47.0592ZM6.79084 36.4691L11.0604 32.1996C12.8184 30.3578 15.7903 30.3997 17.6739 32.1996C19.5575 34.0413 19.6412 37.0133 17.8832 38.8132L13.6137 43.0827C11.8557 44.9244 8.88374 44.8826 7.00013 43.0827C5.11653 41.2828 5.03281 38.3109 6.79084 36.4691Z" fill="#3B5998"/>
<path d="M16.2926 28.5161C15.5392 30.1486 13.8648 30.8183 13.7811 30.8601C15.1624 30.6927 16.5856 31.1531 17.6739 32.1996C19.0971 33.5809 19.4738 35.5482 18.8459 37.2644C19.2227 36.4691 20.1854 35.0878 21.5667 35.2134C23.5759 35.4227 24.4131 37.1807 24.3712 38.269C25.2084 34.8366 24.2456 30.9857 21.4411 28.3068C20.1435 27.0092 18.5529 26.172 16.9205 25.7116C17.0042 25.7953 17.1298 26.8418 16.2926 28.5161Z" fill="#2F7889"/>
<path d="M18.9297 35.0459L24.3712 29.6043L22.4458 23.5768L14.9532 31.0694C13.9067 32.1158 13.6556 33.7483 14.9532 35.0459C16.2508 36.3435 17.8832 36.0923 18.9297 35.0459Z" fill="#8B9DC3"/>
<path d="M22.5713 26.8836C22.069 25.2093 22.069 23.9535 22.4875 23.5768C22.8224 23.2838 23.7014 24.7907 24.2037 26.465C24.706 28.1393 24.7479 29.2695 24.413 29.6044C23.9944 29.9392 23.0735 28.5579 22.5713 26.8836Z" fill="#8B9DC3"/>
<path d="M4.7398 45.636C4.99094 45.4267 4.99094 44.7988 4.40493 44.1709C1.97717 41.7013 2.10275 37.5992 4.19564 35.2552C4.86537 34.5018 4.69794 33.9576 4.44679 33.6646C4.11193 33.2879 3.52592 33.246 2.77247 34.125C0.177279 37.1388 0.386569 42.2036 3.35848 45.2593C3.77706 45.7615 4.40493 45.929 4.7398 45.636ZM21.3993 28.1393C20.8133 28.6416 20.018 29.3114 19.3901 29.8137C18.8459 30.2741 18.3855 30.2322 18.0925 29.9392C17.7158 29.5207 17.9251 29.0602 18.3018 28.6835L20.7295 26.3395C21.1481 25.9209 21.6923 26.0883 21.9016 26.6743C22.1109 27.0929 21.9853 27.637 21.3993 28.1393Z" fill="#DFE3EE"/>
<path d="M8.29773 20.5631L15.9577 21.777M10.8092 11.0613L18.3855 18.4283M20.7295 8.46613L21.7341 16.5447M41.3237 29.0602L33.6637 27.8464M38.8122 38.562L31.2359 31.195M28.8919 41.1572L27.8873 33.0786" stroke="#959595" stroke-width="2" stroke-miterlimit="10" stroke-linecap="round"/>
</svg>
