<svg width="64" height="50" viewBox="0 0 64 50" fill="none" xmlns="http://www.w3.org/2000/svg">
<path d="M5.72113 50C4.09023 50 2.72958 49.45 1.63916 48.35C0.548748 47.25 0.0023602 45.8762 0 44.2286V5.77143C0 4.12619 0.546387 2.75357 1.63916 1.65357C2.73194 0.553571 4.09141 0.00238095 5.71759 0H58.0079C59.6364 0 60.9959 0.55119 62.0863 1.65357C63.1767 2.75595 63.7231 4.12857 63.7255 5.77143V44.2321C63.7255 45.875 63.1791 47.2476 62.0863 48.35C60.9936 49.4524 59.6341 50.0024 58.0079 50H5.72113ZM5.72113 46.4286H42.4837V32.5571H3.54031V44.2321C3.54031 44.7798 3.76688 45.2833 4.22004 45.7429C4.6732 46.2024 5.17239 46.4309 5.71759 46.4286M46.024 46.4286H58.0079C58.5507 46.4286 59.0499 46.2 59.5055 45.7429C59.961 45.2857 60.1875 44.7809 60.1852 44.2286V15.1107H46.024V46.4286ZM3.54031 28.9857H42.4837V15.1071H3.54031V28.9857Z" fill="#3B5998"/>
</svg>
