<svg width="39" height="39" viewBox="0 0 39 39" fill="none" xmlns="http://www.w3.org/2000/svg">
<path d="M22.8033 22.8033L27.1373 27.1373M27.0211 30.6478C26.7706 30.4126 26.5698 30.1293 26.4308 29.8149C26.2918 29.5006 26.2174 29.1615 26.212 28.8178C26.2066 28.4741 26.2703 28.1328 26.3993 27.8142C26.5284 27.4956 26.7201 27.2062 26.9632 26.9632C27.2062 26.7201 27.4956 26.5284 27.8142 26.3993C28.1328 26.2703 28.4741 26.2066 28.8178 26.212C29.1615 26.2174 29.5006 26.2918 29.8149 26.4308C30.1293 26.5698 30.4125 26.7706 30.6478 27.0211L35.9215 32.2948C36.172 32.5301 36.3728 32.8133 36.5118 33.1277C36.6508 33.442 36.7252 33.7811 36.7306 34.1248C36.736 34.4685 36.6723 34.8098 36.5433 35.1284C36.4142 35.447 36.2225 35.7364 35.9794 35.9794C35.7364 36.2225 35.447 36.4142 35.1284 36.5433C34.8098 36.6723 34.4685 36.736 34.1248 36.7306C33.7811 36.7252 33.442 36.6508 33.1277 36.5118C32.8133 36.3728 32.53 36.172 32.2948 35.9215L27.0211 30.6478ZM26.2705 14.1352C26.2705 10.9168 24.9919 7.83013 22.7162 5.55433C20.4404 3.27853 17.3537 2 14.1352 2C10.9168 2 7.83013 3.27853 5.55433 5.55433C3.27853 7.83013 2 10.9168 2 14.1352C2 17.3537 3.27853 20.4404 5.55433 22.7162C7.83013 24.992 10.9168 26.2705 14.1352 26.2705C17.3537 26.2705 20.4404 24.992 22.7162 22.7162C24.9919 20.4404 26.2705 17.3537 26.2705 14.1352Z" stroke="#3B5998" stroke-width="3" stroke-linecap="round" stroke-linejoin="round"/>
<path d="M7 9.85714C7 9.3646 7.19754 8.89223 7.54917 8.54394C7.90081 8.19566 8.37772 8 8.875 8H20.125C20.6223 8 21.0992 8.19566 21.4508 8.54394C21.8025 8.89223 22 9.3646 22 9.85714V19.1429C22 19.6354 21.8025 20.1078 21.4508 20.4561C21.0992 20.8043 20.6223 21 20.125 21H8.875C8.37772 21 7.90081 20.8043 7.54917 20.4561C7.19754 20.1078 7 19.6354 7 19.1429V9.85714ZM7.9375 18.2143V19.1429C7.9375 19.3891 8.03627 19.6253 8.21209 19.7995C8.3879 19.9736 8.62636 20.0714 8.875 20.0714H20.125C20.3736 20.0714 20.6121 19.9736 20.7879 19.7995C20.9637 19.6253 21.0625 19.3891 21.0625 19.1429V15.8929L17.5216 14.0849C17.4336 14.0413 17.3341 14.0262 17.237 14.0417C17.14 14.0572 17.0503 14.1025 16.9806 14.1713L13.5025 17.6163L11.0088 15.9709C10.9187 15.9115 10.8107 15.8848 10.7031 15.8953C10.5954 15.9058 10.4948 15.9528 10.4181 16.0284L7.9375 18.2143ZM12.625 12.1786C12.625 11.8092 12.4768 11.4549 12.2131 11.1937C11.9494 10.9325 11.5917 10.7857 11.2188 10.7857C10.8458 10.7857 10.4881 10.9325 10.2244 11.1937C9.96066 11.4549 9.8125 11.8092 9.8125 12.1786C9.8125 12.548 9.96066 12.9023 10.2244 13.1635C10.4881 13.4247 10.8458 13.5714 11.2188 13.5714C11.5917 13.5714 11.9494 13.4247 12.2131 13.1635C12.4768 12.9023 12.625 12.548 12.625 12.1786Z" fill="#3B5998"/>
</svg>
