<svg width="55" height="33" viewBox="0 0 55 33" fill="none" xmlns="http://www.w3.org/2000/svg">
<path d="M8 4.71429C8 3.46398 8.50045 2.26488 9.39124 1.38078C10.282 0.496682 11.4902 0 12.75 0H41.25C42.5098 0 43.718 0.496682 44.6088 1.38078C45.4996 2.26488 46 3.46398 46 4.71429C42.6009 12.9809 43.9778 18.788 46 28.2857C46 29.536 45.4996 30.7351 44.6088 31.6192C43.718 32.5033 42.5098 33 41.25 33H12.75C11.4902 33 10.282 32.5033 9.39124 31.6192C8.50045 30.7351 8 29.536 8 28.2857C11.5027 18.5325 11.9106 13.3083 8 4.71429ZM10.375 25.9286V28.2857C10.375 28.9109 10.6252 29.5104 11.0706 29.9525C11.516 30.3945 12.1201 30.6429 12.75 30.6429H41.25C41.8799 30.6429 42.484 30.3945 42.9294 29.9525C43.3748 29.5104 43.625 28.9109 43.625 28.2857V20.0357L34.6546 15.4464C34.4319 15.3356 34.1797 15.2972 33.9338 15.3366C33.6879 15.3759 33.4606 15.491 33.2843 15.6656L24.473 24.4106L18.1555 20.2337C17.9274 20.083 17.6538 20.0152 17.3811 20.0418C17.1084 20.0685 16.8534 20.1879 16.6593 20.3799L10.375 25.9286ZM22.25 10.6071C22.25 9.66941 21.8747 8.77009 21.2066 8.10701C20.5385 7.44394 19.6323 7.07143 18.6875 7.07143C17.7427 7.07143 16.8365 7.44394 16.1684 8.10701C15.5003 8.77009 15.125 9.66941 15.125 10.6071C15.125 11.5449 15.5003 12.4442 16.1684 13.1073C16.8365 13.7703 17.7427 14.1429 18.6875 14.1429C19.6323 14.1429 20.5385 13.7703 21.2066 13.1073C21.8747 12.4442 22.25 11.5449 22.25 10.6071Z" fill="#3B5998"/>
<path d="M9.47408 17.1768C9.57171 17.0791 9.57171 16.9209 9.47408 16.8232L7.88309 15.2322C7.78546 15.1346 7.62717 15.1346 7.52954 15.2322C7.4319 15.3299 7.4319 15.4882 7.52954 15.5858L8.94375 17L7.52954 18.4142C7.4319 18.5118 7.4319 18.6701 7.52954 18.7678C7.62717 18.8654 7.78546 18.8654 7.88309 18.7678L9.47408 17.1768ZM9.2973 16.75L1.16217 16.75L1.16217 17.25L9.2973 17.25L9.2973 16.75Z" fill="#3B5998"/>
<path d="M8.31191 17.1768C8.40954 17.0791 8.40954 16.9209 8.31191 16.8232L6.72092 15.2322C6.62329 15.1346 6.465 15.1346 6.36737 15.2322C6.26973 15.3299 6.26973 15.4882 6.36737 15.5858L7.78158 17L6.36736 18.4142C6.26973 18.5118 6.26973 18.6701 6.36736 18.7678C6.465 18.8654 6.62329 18.8654 6.72092 18.7678L8.31191 17.1768ZM8.13513 16.75L-2.83917e-06 16.75L-2.88288e-06 17.25L8.13513 17.25L8.13513 16.75Z" fill="#3B5998"/>
<path d="M44.8232 17.1768C44.7256 17.0791 44.7256 16.9209 44.8232 16.8232L46.4142 15.2322C46.5118 15.1346 46.6701 15.1346 46.7678 15.2322C46.8654 15.3299 46.8654 15.4882 46.7678 15.5858L45.3536 17L46.7678 18.4142C46.8654 18.5118 46.8654 18.6701 46.7678 18.7678C46.6701 18.8654 46.5118 18.8654 46.4142 18.7678L44.8232 17.1768ZM45 16.75L53.1351 16.75L53.1351 17.25L45 17.25L45 16.75Z" fill="#3B5998"/>
<path d="M45.9853 17.1768C45.8877 17.0791 45.8877 16.9209 45.9853 16.8232L47.5763 15.2322C47.674 15.1346 47.8322 15.1346 47.9299 15.2322C48.0275 15.3299 48.0275 15.4882 47.9299 15.5858L46.5157 17L47.9299 18.4142C48.0275 18.5118 48.0275 18.6701 47.9299 18.7678C47.8322 18.8654 47.674 18.8654 47.5763 18.7678L45.9853 17.1768ZM46.1621 16.75L54.2972 16.75L54.2972 17.25L46.1621 17.25L46.1621 16.75Z" fill="#3B5998"/>
</svg>
