<svg width="36" height="36" viewBox="0 0 36 36" fill="none" xmlns="http://www.w3.org/2000/svg">
<path d="M9 0C7.17469 0 5.42414 0.725103 4.13344 2.01579C2.84275 3.30649 2.11765 5.05704 2.11765 6.88235V13.2353C2.11765 13.6565 2.28498 14.0605 2.58283 14.3583C2.88068 14.6562 3.28466 14.8235 3.70588 14.8235C4.12711 14.8235 4.53109 14.6562 4.82894 14.3583C5.12679 14.0605 5.29412 13.6565 5.29412 13.2353V6.88235C5.29412 4.83671 6.95436 3.17647 9 3.17647H15.3529C15.7742 3.17647 16.1781 3.00914 16.476 2.71129C16.7738 2.41344 16.9412 2.00946 16.9412 1.58824C16.9412 1.16701 16.7738 0.763035 16.476 0.465183C16.1781 0.167331 15.7742 8.87668e-09 15.3529 0H9ZM22.7647 0C22.3435 8.87668e-09 21.9395 0.167331 21.6417 0.465183C21.3438 0.763035 21.1765 1.16701 21.1765 1.58824C21.1765 2.00946 21.3438 2.41344 21.6417 2.71129C21.9395 3.00914 22.3435 3.17647 22.7647 3.17647H29.1176C31.1633 3.17647 32.8235 4.83671 32.8235 6.88235V13.2353C32.8235 13.6565 32.9909 14.0605 33.2887 14.3583C33.5866 14.6562 33.9905 14.8235 34.4118 14.8235C34.833 14.8235 35.237 14.6562 35.5348 14.3583C35.8327 14.0605 36 13.6565 36 13.2353V6.88235C36 5.05704 35.2749 3.30649 33.9842 2.01579C32.6935 0.725103 30.943 0 29.1176 0H22.7647ZM36 20.6471C36 20.2258 35.8327 19.8219 35.5348 19.524C35.237 19.2262 34.833 19.0588 34.4118 19.0588C33.9905 19.0588 33.5866 19.2262 33.2887 19.524C32.9909 19.8219 32.8235 20.2258 32.8235 20.6471V27C32.8235 27.9829 32.4331 28.9255 31.7381 29.6205C31.0431 30.3154 30.1005 30.7059 29.1176 30.7059H22.7647C22.3435 30.7059 21.9395 30.8732 21.6417 31.1711C21.3438 31.4689 21.1765 31.8729 21.1765 32.2941C21.1765 32.7153 21.3438 33.1193 21.6417 33.4172C21.9395 33.715 22.3435 33.8824 22.7647 33.8824H29.1176C30.943 33.8824 32.6935 33.1572 33.9842 31.8666C35.2749 30.5759 36 28.8253 36 27V20.6471ZM2.89664e-06 22.2353C2.89664e-06 20.8312 0.557774 19.4846 1.55061 18.4918C2.54345 17.4989 3.89003 16.9412 5.29412 16.9412H13.7647C15.1688 16.9412 16.5154 17.4989 17.5082 18.4918C18.5011 19.4846 19.0588 20.8312 19.0588 22.2353V30.7059C19.0588 31.7859 18.7369 32.7875 18.1821 33.6261L11.7741 27.2202C11.4791 26.9251 11.1289 26.6909 10.7433 26.5311C10.3578 26.3714 9.94461 26.2891 9.5273 26.2891C9.10999 26.2891 8.69676 26.3714 8.31124 26.5311C7.92572 26.6909 7.57546 26.9251 7.28047 27.2202L0.874591 33.6261C0.303057 32.7595 -0.00108281 31.744 2.89664e-06 30.7059V22.2353ZM14.8235 22.7647C14.8235 22.3435 14.6562 21.9395 14.3583 21.6417C14.0605 21.3438 13.6565 21.1765 13.2353 21.1765C12.8141 21.1765 12.4101 21.3438 12.1122 21.6417C11.8144 21.9395 11.6471 22.3435 11.6471 22.7647C11.6471 23.1859 11.8144 23.5899 12.1122 23.8878C12.4101 24.1856 12.8141 24.3529 13.2353 24.3529C13.6565 24.3529 14.0605 24.1856 14.3583 23.8878C14.6562 23.5899 14.8235 23.1859 14.8235 22.7647ZM2.37389 35.1233C3.21247 35.6781 4.21624 36 5.29412 36H13.7647C14.8447 36 15.8464 35.6781 16.6849 35.1233L10.2791 28.7153C10.1807 28.6167 10.0639 28.5385 9.93523 28.4851C9.80659 28.4317 9.66869 28.4042 9.52941 28.4042C9.39014 28.4042 9.25224 28.4317 9.1236 28.4851C8.99496 28.5385 8.87812 28.6167 8.77977 28.7153L2.37389 35.1233Z" fill="#3B5998"/>
</svg>
