<svg width="45" height="45" viewBox="0 0 45 45" fill="none" xmlns="http://www.w3.org/2000/svg">
<path d="M17.7778 0H2.22222C1 0 0 1 0 2.22222V17.7778C0 19 1 20 2.22222 20H17.7778C19 20 20 19 20 17.7778V2.22222C20 1 19 0 17.7778 0ZM6.66667 11.6667C6.66667 12.8889 5.66667 13.3333 4.44444 13.3333C3.22222 13.3333 2.22222 12.8889 2.22222 11.6667V10H3.88889V11.6667H5V6.66667H6.66667V11.6667ZM12.2222 9.44444C12.2222 10.3333 11.4444 11.1111 10.5556 11.1111H9.44444V13.3333H7.77778V6.66667H10.5556C11.4444 6.66667 12.2222 7.44444 12.2222 8.33333V9.44444ZM17.7778 8.33333H15V11.6667H16.1111V10H17.7778V11.8889C17.7778 12.6667 17.2222 13.3333 16.3333 13.3333H14.8889C14 13.3333 13.4444 12.5556 13.4444 11.8889V8.22222C13.3333 7.44444 13.8889 6.66667 14.7778 6.66667H16.2222C17.1111 6.66667 17.6667 7.44445 17.6667 8.11111V8.33333M9.44444 8.33333H10.5556V9.44444H9.44444V8.33333Z" fill="#3B5998"/>
<path d="M9.5 24C9.5 23.7239 9.27614 23.5 9 23.5C8.72386 23.5 8.5 23.7239 8.5 24L9.5 24ZM22.3536 35.3536C22.5488 35.1583 22.5488 34.8417 22.3536 34.6464L19.1716 31.4645C18.9763 31.2692 18.6597 31.2692 18.4645 31.4645C18.2692 31.6597 18.2692 31.9763 18.4645 32.1716L21.2929 35L18.4645 37.8284C18.2692 38.0237 18.2692 38.3403 18.4645 38.5355C18.6597 38.7308 18.9763 38.7308 19.1716 38.5355L22.3536 35.3536ZM8.5 24C8.5 26.7635 8.68556 28.881 9.13967 30.4948C9.59782 32.123 10.3377 33.2668 11.4557 34.0368C12.5568 34.7952 13.9683 35.1506 15.6873 35.3256C17.407 35.5006 19.502 35.5 22 35.5V34.5C19.4837 34.5 17.4465 34.4994 15.7886 34.3307C14.1299 34.1619 12.9181 33.8298 12.0229 33.2132C11.1444 32.6082 10.5147 31.6895 10.1023 30.2239C9.68587 28.744 9.5 26.7365 9.5 24L8.5 24Z" fill="#8B9DC3"/>
<path fill-rule="evenodd" clip-rule="evenodd" d="M27.2222 25H42.7778C44 25 45 26 45 27.2222V42.7778C45 44 44 45 42.7778 45H27.2222C26 45 25 44 25 42.7778V27.2222C25 26 26 25 27.2222 25ZM32.2344 32.2031L30 38.3828H31.0938L31.6016 36.8516H33.9922L34.5 38.3828H35.5938L33.3672 32.2031H32.2344ZM31.875 36.0234H33.7188L33.1953 34.4219C33.1589 34.3073 33.1172 34.1797 33.0703 34.0391C33.0286 33.8984 32.9818 33.7448 32.9297 33.5781C32.8828 33.4062 32.8464 33.2786 32.8203 33.1953H32.7734C32.7578 33.2474 32.6328 33.6562 32.3984 34.4219L31.875 36.0234ZM36.1875 38.3828V32H37.1719V38.3828H36.1875ZM38.4141 32V38.3828H39.3984V32H38.4141Z" fill="#3B5998"/>
</svg>
