<svg width="36" height="36" viewBox="0 0 36 36" fill="none" xmlns="http://www.w3.org/2000/svg">
<path d="M30.6 0C32.0322 0 33.4057 0.568927 34.4184 1.58162C35.4311 2.59432 36 3.96783 36 5.4V30.6C36 32.0322 35.4311 33.4057 34.4184 34.4184C33.4057 35.4311 32.0322 36 30.6 36H5.4C3.96783 36 2.59432 35.4311 1.58162 34.4184C0.568927 33.4057 0 32.0322 0 30.6V5.4C0 3.96783 0.568927 2.59432 1.58162 1.58162C2.59432 0.568927 3.96783 0 5.4 0H30.6ZM25.2 10.8C25.2 8.9748 22.7952 8.3088 21.8574 9.8748L18 16.3008L14.1426 9.8748C13.2048 8.3088 10.8 8.9748 10.8 10.8V25.2C10.8 25.6774 10.9896 26.1352 11.3272 26.4728C11.6648 26.8104 12.1226 27 12.6 27L12.8106 26.9874C13.2485 26.9358 13.6521 26.7253 13.9451 26.3959C14.2381 26.0664 14.3999 25.6409 14.4 25.2V17.298L16.4574 20.7252L16.5906 20.9196C16.7716 21.1471 17.0051 21.3274 17.271 21.4451C17.5369 21.5627 17.8273 21.6142 18.1175 21.5951C18.4076 21.576 18.6888 21.4869 18.937 21.3354C19.1852 21.1839 19.393 20.9745 19.5426 20.7252L21.6 17.298V25.2C21.6 25.6774 21.7896 26.1352 22.1272 26.4728C22.4648 26.8104 22.9226 27 23.4 27C23.8774 27 24.3352 26.8104 24.6728 26.4728C25.0104 26.1352 25.2 25.6774 25.2 25.2V10.8Z" fill="#3B5998"/>
</svg>
