<svg width="50" height="36" viewBox="0 0 50 36" fill="none" xmlns="http://www.w3.org/2000/svg">
<path d="M42 7.71429C42 6.46398 41.4996 5.26488 40.6088 4.38078C39.718 3.49668 38.5098 3 37.25 3H8.75C7.49022 3 6.28204 3.49668 5.39124 4.38078C4.50045 5.26488 4 6.46398 4 7.71429V31.2857C4 32.536 4.50045 33.7351 5.39124 34.6192C6.28204 35.5033 7.49022 36 8.75 36H37.25C38.5098 36 39.718 35.5033 40.6088 34.6192C41.4996 33.7351 42 32.536 42 31.2857V7.71429ZM39.625 28.9286V31.2857C39.625 31.9109 39.3748 32.5104 38.9294 32.9525C38.484 33.3945 37.8799 33.6429 37.25 33.6429H8.75C8.12011 33.6429 7.51602 33.3945 7.07062 32.9525C6.62522 32.5104 6.375 31.9109 6.375 31.2857V23.0357L15.3454 18.4464C15.5681 18.3356 15.8203 18.2972 16.0662 18.3366C16.3121 18.3759 16.5394 18.491 16.7157 18.6656L25.527 27.4106L31.8445 23.2337C32.0726 23.083 32.3462 23.0152 32.6189 23.0418C32.8916 23.0685 33.1466 23.1879 33.3407 23.3799L39.625 28.9286ZM27.75 13.6071C27.75 12.6694 28.1253 11.7701 28.7934 11.107C29.4615 10.4439 30.3677 10.0714 31.3125 10.0714C32.2573 10.0714 33.1635 10.4439 33.8316 11.107C34.4997 11.7701 34.875 12.6694 34.875 13.6071C34.875 14.5449 34.4997 15.4442 33.8316 16.1073C33.1635 16.7703 32.2573 17.1429 31.3125 17.1429C30.3677 17.1429 29.4615 16.7703 28.7934 16.1073C28.1253 15.4442 27.75 14.5449 27.75 13.6071Z" fill="#3B5998"/>
<path d="M40.2347 3.59602L41.7573 2.46997L39.8773 2.69764L35.2094 3.26289L35.2036 3.26366C34.8987 3.30423 34.5784 3.31498 34.2628 3.29483C33.9471 3.27467 33.6476 3.22431 33.3827 3.1491C33.1164 3.07351 32.9005 2.97726 32.7412 2.87412C32.5798 2.76954 32.5005 2.67376 32.4672 2.60895L32.0225 2.83758L32.4672 2.60895C32.4394 2.55499 32.4405 2.52014 32.4516 2.48532C32.4665 2.43886 32.5141 2.3548 32.6448 2.25195C32.7743 2.14998 32.9629 2.04808 33.2101 1.96252C33.4554 1.87755 33.7413 1.81467 34.051 1.78088L34.0568 1.78018L43.6371 0.620272L43.6635 0.617072L43.6895 0.611084C44.1339 0.508499 44.6421 0.475353 45.1364 0.519805L45.1364 0.519973L45.1493 0.520799C45.6278 0.551339 46.0601 0.650575 46.3909 0.793902C46.7329 0.942067 46.8924 1.10392 46.9453 1.20698L46.9455 1.20747L49.4854 6.14712C49.5045 6.19154 49.5032 6.22296 49.4913 6.25745C49.4753 6.30395 49.4271 6.38629 49.2995 6.4867C49.037 6.69333 48.5618 6.87719 47.9467 6.95165C47.3402 7.02507 46.7024 6.97896 46.1788 6.83035C45.6406 6.67756 45.3626 6.45848 45.2732 6.30805L44.4109 4.63177L44.1491 4.12298L43.68 4.45055C41.2166 6.17064 37.8149 7.55384 33.82 8.43618C29.8285 9.31776 25.4144 9.66179 21.0458 9.42942C16.6764 9.19702 12.5277 8.39737 9.03715 7.12174C5.54029 5.84381 2.86872 4.14866 1.2619 2.24614L1.26179 2.24601L0.578276 1.43728C0.578249 1.43725 0.578221 1.43721 0.578194 1.43718C0.507477 1.35336 0.499803 1.29937 0.500004 1.27516C0.500208 1.25053 0.50914 1.19503 0.582726 1.1098C0.659123 1.02132 0.791777 0.918337 0.994668 0.820679C1.19531 0.724103 1.44464 0.642457 1.73079 0.585598C2.31139 0.470231 2.96848 0.471563 3.54667 0.589094C3.83164 0.647023 4.07913 0.729521 4.27751 0.82656C4.47817 0.924708 4.60795 1.02753 4.68179 1.11502L4.68227 1.11558L5.36565 1.92289C5.36576 1.92301 5.36587 1.92314 5.36597 1.92326C5.36598 1.92328 5.366 1.92329 5.36601 1.92331C6.78313 3.60093 9.07964 5.02011 11.9648 6.05994C14.8568 7.10222 18.2667 7.73714 21.8273 7.90325C25.3885 8.06939 28.979 7.76089 32.2145 7.00805C35.4463 6.25607 38.2249 5.0824 40.2347 3.59602Z" fill="#DFE3EE" stroke="black"/>
</svg>
