<svg width="45" height="45" viewBox="0 0 45 45" fill="none" xmlns="http://www.w3.org/2000/svg">
<path d="M17.7778 0H2.22222C1 0 0 1 0 2.22222V17.7778C0 19 1 20 2.22222 20H17.7778C19 20 20 19 20 17.7778V2.22222C20 1 19 0 17.7778 0ZM6.66667 9.44444C6.66667 10.3333 5.88889 11.1111 5 11.1111H3.88889V13.3333H2.22222V6.66667H5C5.88889 6.66667 6.66667 7.44444 6.66667 8.33333V9.44444ZM12.2222 13.3333H10.5556L9.44444 10.5556V13.3333H7.77778V6.66667H9.44444L10.5556 9.44444V6.66667H12.2222V13.3333ZM17.7778 8.33333H15V11.6667H16.1111V10H17.7778V11.8889C17.7778 12.6667 17.2222 13.3333 16.3333 13.3333H14.8889C14 13.3333 13.4444 12.5556 13.4444 11.8889V8.22222C13.3333 7.44444 13.8889 6.66667 14.7778 6.66667H16.2222C17.1111 6.66667 17.6667 7.44445 17.6667 8.11111V8.33333H17.7778ZM3.88889 8.33333H5V9.44444H3.88889V8.33333Z" fill="#3B5998"/>
<path d="M9.5 24C9.5 23.7239 9.27614 23.5 9 23.5C8.72386 23.5 8.5 23.7239 8.5 24L9.5 24ZM22.3536 35.3536C22.5488 35.1583 22.5488 34.8417 22.3536 34.6464L19.1716 31.4645C18.9763 31.2692 18.6597 31.2692 18.4645 31.4645C18.2692 31.6597 18.2692 31.9763 18.4645 32.1716L21.2929 35L18.4645 37.8284C18.2692 38.0237 18.2692 38.3403 18.4645 38.5355C18.6597 38.7308 18.9763 38.7308 19.1716 38.5355L22.3536 35.3536ZM8.5 24C8.5 26.7635 8.68556 28.881 9.13967 30.4948C9.59782 32.123 10.3377 33.2668 11.4557 34.0368C12.5568 34.7952 13.9683 35.1506 15.6873 35.3256C17.407 35.5006 19.502 35.5 22 35.5V34.5C19.4837 34.5 17.4465 34.4994 15.7886 34.3307C14.1299 34.1619 12.9181 33.8298 12.0229 33.2132C11.1444 32.6082 10.5147 31.6895 10.1023 30.2239C9.68587 28.744 9.5 26.7365 9.5 24L8.5 24Z" fill="#8B9DC3"/>
<path fill-rule="evenodd" clip-rule="evenodd" d="M42.7778 25H27.2222C26 25 25 26 25 27.2222V42.7778C25 44 26 45 27.2222 45H42.7778C44 45 45 44 45 42.7778V27.2222C45 26 44 25 42.7778 25ZM28 32.6C28.2209 32.6 28.4 32.7791 28.4 33V35.3055L28.6422 34.8211C28.71 34.6856 28.8485 34.6 29 34.6C29.1515 34.6 29.29 34.6856 29.3577 34.8211L29.6 35.3055V33C29.6 32.7791 29.7791 32.6 30 32.6C30.2209 32.6 30.4 32.7791 30.4 33V37C30.4 37.1855 30.2724 37.3467 30.0919 37.3893C29.9113 37.4319 29.7252 37.3448 29.6422 37.1789L29 35.8944L28.3577 37.1789C28.2748 37.3448 28.0886 37.4319 27.9081 37.3893C27.7275 37.3467 27.6 37.1855 27.6 37V33C27.6 32.7791 27.7791 32.6 28 32.6ZM32 32.6C31.7791 32.6 31.6 32.7791 31.6 33V37C31.6 37.2209 31.7791 37.4 32 37.4H34C34.2209 37.4 34.4 37.2209 34.4 37C34.4 36.7791 34.2209 36.6 34 36.6H32.4V35.4H33.3333C33.5542 35.4 33.7333 35.2209 33.7333 35C33.7333 34.7791 33.5542 34.6 33.3333 34.6H32.4V33.4H34C34.2209 33.4 34.4 33.2209 34.4 33C34.4 32.7791 34.2209 32.6 34 32.6H32ZM35.6 33C35.6 32.7791 35.7791 32.6 36 32.6H37.6C37.8121 32.6 38.0156 32.6843 38.1657 32.8343C38.3157 32.9843 38.4 33.1878 38.4 33.4V34C38.4 34.3713 38.2525 34.7274 37.9899 34.9899L37.9798 35L37.9899 35.01C38.2525 35.2726 38.4 35.6287 38.4 36V36.6C38.4 36.8121 38.3157 37.0156 38.1657 37.1657C38.0156 37.3157 37.8121 37.4 37.6 37.4H36C35.7791 37.4 35.6 37.2209 35.6 37V33ZM36.4 36.6V35.4H37C37.1591 35.4 37.3117 35.4632 37.4242 35.5757C37.5368 35.6882 37.6 35.8408 37.6 36V36.6H36.4ZM37 34.6H36.4V33.4H37.6L37.6 34C37.6 34.1591 37.5368 34.3117 37.4242 34.4242C37.3117 34.5368 37.1591 34.6 37 34.6ZM40 32.6C39.7791 32.6 39.6 32.7791 39.6 33V37C39.6 37.2209 39.7791 37.4 40 37.4C40.2209 37.4 40.4 37.2209 40.4 37V35.4H42C42.2209 35.4 42.4 35.2209 42.4 35V33C42.4 32.7791 42.2209 32.6 42 32.6H40ZM40.4 34.6H41.6V33.4H40.4V34.6Z" fill="#3B5998"/>
</svg>
