<svg width="45" height="45" viewBox="0 0 45 45" fill="none" xmlns="http://www.w3.org/2000/svg">
<path d="M17.7778 0H2.22222C1 0 0 1 0 2.22222V17.7778C0 19 1 20 2.22222 20H17.7778C19 20 20 19 20 17.7778V2.22222C20 1 19 0 17.7778 0ZM6.66667 9.44444C6.66667 10.3333 5.88889 11.1111 5 11.1111H3.88889V13.3333H2.22222V6.66667H5C5.88889 6.66667 6.66667 7.44444 6.66667 8.33333V9.44444ZM12.2222 13.3333H10.5556L9.44444 10.5556V13.3333H7.77778V6.66667H9.44444L10.5556 9.44444V6.66667H12.2222V13.3333ZM17.7778 8.33333H15V11.6667H16.1111V10H17.7778V11.8889C17.7778 12.6667 17.2222 13.3333 16.3333 13.3333H14.8889C14 13.3333 13.4444 12.5556 13.4444 11.8889V8.22222C13.3333 7.44444 13.8889 6.66667 14.7778 6.66667H16.2222C17.1111 6.66667 17.6667 7.44445 17.6667 8.11111V8.33333H17.7778ZM3.88889 8.33333H5V9.44444H3.88889V8.33333Z" fill="#3B5998"/>
<path d="M9.5 24C9.5 23.7239 9.27614 23.5 9 23.5C8.72386 23.5 8.5 23.7239 8.5 24L9.5 24ZM22.3536 35.3536C22.5488 35.1583 22.5488 34.8417 22.3536 34.6464L19.1716 31.4645C18.9763 31.2692 18.6597 31.2692 18.4645 31.4645C18.2692 31.6597 18.2692 31.9763 18.4645 32.1716L21.2929 35L18.4645 37.8284C18.2692 38.0237 18.2692 38.3403 18.4645 38.5355C18.6597 38.7308 18.9763 38.7308 19.1716 38.5355L22.3536 35.3536ZM8.5 24C8.5 26.7635 8.68556 28.881 9.13967 30.4948C9.59782 32.123 10.3377 33.2668 11.4557 34.0368C12.5568 34.7952 13.9683 35.1506 15.6873 35.3256C17.407 35.5006 19.502 35.5 22 35.5V34.5C19.4837 34.5 17.4465 34.4994 15.7886 34.3307C14.1299 34.1619 12.9181 33.8298 12.0229 33.2132C11.1444 32.6082 10.5147 31.6895 10.1023 30.2239C9.68587 28.744 9.5 26.7365 9.5 24L8.5 24Z" fill="#8B9DC3"/>
<path d="M42.7778 25H27.2222C26 25 25 26 25 27.2222V42.7778C25 44 26 45 27.2222 45H42.7778C44 45 45 44 45 42.7778V27.2222C45 26 44 25 42.7778 25ZM31.6667 36.6667C31.6667 37.8889 30.6667 38.3333 29.4444 38.3333C28.2222 38.3333 27.2222 37.8889 27.2222 36.6667V35H28.8889V36.6667H30V31.6667H31.6667V36.6667ZM37.2222 34.4444C37.2222 35.3333 36.4444 36.1111 35.5556 36.1111H34.4444V38.3333H32.7778V31.6667H35.5556C36.4444 31.6667 37.2222 32.4444 37.2222 33.3333V34.4444ZM42.7778 33.3333H40V36.6667H41.1111V35H42.7778V36.8889C42.7778 37.6667 42.2222 38.3333 41.3333 38.3333H39.8889C39 38.3333 38.4444 37.5556 38.4444 36.8889V33.2222C38.3333 32.4444 38.8889 31.6667 39.7778 31.6667H41.2222C42.1111 31.6667 42.6667 32.4444 42.6667 33.1111V33.3333M34.4444 33.3333H35.5556V34.4444H34.4444V33.3333Z" fill="#3B5998"/>
</svg>
