<svg width="45" height="45" viewBox="0 0 45 45" fill="none" xmlns="http://www.w3.org/2000/svg">
<path fill-rule="evenodd" clip-rule="evenodd" d="M17.5 5.625V17.5C17.5 18.163 17.2366 18.7989 16.7678 19.2678C16.2989 19.7366 15.663 20 15 20H12.5V18.75H15C15.3315 18.75 15.6495 18.6183 15.8839 18.3839C16.1183 18.1495 16.25 17.8315 16.25 17.5V5.625H13.75C13.2527 5.625 12.7758 5.42746 12.4242 5.07583C12.0725 4.72419 11.875 4.24728 11.875 3.75V1.25H5C4.66848 1.25 4.35054 1.3817 4.11612 1.61612C3.8817 1.85054 3.75 2.16848 3.75 2.5V13.75H2.5V2.5C2.5 1.83696 2.76339 1.20107 3.23223 0.732233C3.70107 0.263392 4.33696 0 5 0L11.875 0L17.5 5.625ZM2.41 19.8113V15.64H3.83V14.8125H0V15.64H1.4175V19.8113H2.41ZM8.27125 14.8125H7.15375L6.125 16.6112H6.08125L5.04125 14.8125H3.87625L5.41125 17.2913L3.86125 19.8113H4.93875L6.005 18.0425H6.04875L7.11125 19.8113H8.245L6.67875 17.3213L8.27125 14.8125ZM10.6838 15.64V19.8113H9.69125V15.64H8.27375V14.8125H12.1037V15.64H10.6825H10.6838Z" fill="#3B5998"/>
<path d="M9.5 24C9.5 23.7239 9.27614 23.5 9 23.5C8.72386 23.5 8.5 23.7239 8.5 24L9.5 24ZM22.3536 35.3536C22.5488 35.1583 22.5488 34.8417 22.3536 34.6464L19.1716 31.4645C18.9763 31.2692 18.6597 31.2692 18.4645 31.4645C18.2692 31.6597 18.2692 31.9763 18.4645 32.1716L21.2929 35L18.4645 37.8284C18.2692 38.0237 18.2692 38.3403 18.4645 38.5355C18.6597 38.7308 18.9763 38.7308 19.1716 38.5355L22.3536 35.3536ZM8.5 24C8.5 26.7635 8.68556 28.881 9.13967 30.4948C9.59782 32.123 10.3377 33.2668 11.4557 34.0368C12.5568 34.7952 13.9683 35.1506 15.6873 35.3256C17.407 35.5006 19.502 35.5 22 35.5V34.5C19.4837 34.5 17.4465 34.4994 15.7886 34.3307C14.1299 34.1619 12.9181 33.8298 12.0229 33.2132C11.1444 32.6082 10.5147 31.6895 10.1023 30.2239C9.68587 28.744 9.5 26.7365 9.5 24L8.5 24Z" fill="#8B9DC3"/>
<path d="M42.7778 25H27.2222C26 25 25 26 25 27.2222V42.7778C25 44 26 45 27.2222 45H42.7778C44 45 45 44 45 42.7778V27.2222C45 26 44 25 42.7778 25ZM31.6667 36.6667C31.6667 37.8889 30.6667 38.3333 29.4444 38.3333C28.2222 38.3333 27.2222 37.8889 27.2222 36.6667V35H28.8889V36.6667H30V31.6667H31.6667V36.6667ZM37.2222 34.4444C37.2222 35.3333 36.4444 36.1111 35.5556 36.1111H34.4444V38.3333H32.7778V31.6667H35.5556C36.4444 31.6667 37.2222 32.4444 37.2222 33.3333V34.4444ZM42.7778 33.3333H40V36.6667H41.1111V35H42.7778V36.8889C42.7778 37.6667 42.2222 38.3333 41.3333 38.3333H39.8889C39 38.3333 38.4444 37.5556 38.4444 36.8889V33.2222C38.3333 32.4444 38.8889 31.6667 39.7778 31.6667H41.2222C42.1111 31.6667 42.6667 32.4444 42.6667 33.1111V33.3333M34.4444 33.3333H35.5556V34.4444H34.4444V33.3333Z" fill="#3B5998"/>
</svg>
