<svg width="45" height="45" viewBox="0 0 45 45" fill="none" xmlns="http://www.w3.org/2000/svg">
<path fill-rule="evenodd" clip-rule="evenodd" d="M17.7778 0H2.22222C1 0 0 1 0 2.22222V17.7778C0 19 1 20 2.22222 20H17.7778C19 20 20 19 20 17.7778V2.22222C20 1 19 0 17.7778 0ZM2.99998 7.59998C3.22089 7.59998 3.39998 7.77906 3.39998 7.99998V10.3055L3.6422 9.82109C3.70996 9.68558 3.84847 9.59998 3.99998 9.59998C4.15148 9.59998 4.28999 9.68558 4.35775 9.82109L4.59998 10.3055V7.99998C4.59998 7.77906 4.77906 7.59998 4.99998 7.59998C5.22089 7.59998 5.39998 7.77906 5.39998 7.99998V12C5.39998 12.1855 5.27243 12.3467 5.09188 12.3893C4.91133 12.4319 4.72517 12.3448 4.6422 12.1789L3.99998 10.8944L3.35775 12.1789C3.27478 12.3448 3.08862 12.4319 2.90807 12.3893C2.72753 12.3467 2.59998 12.1855 2.59998 12V7.99998C2.59998 7.77906 2.77906 7.59998 2.99998 7.59998ZM6.99998 7.59998C6.77906 7.59998 6.59998 7.77906 6.59998 7.99998V12C6.59998 12.2209 6.77906 12.4 6.99998 12.4H8.99998C9.22089 12.4 9.39998 12.2209 9.39998 12C9.39998 11.7791 9.22089 11.6 8.99998 11.6H7.39998V10.4H8.33331C8.55422 10.4 8.73331 10.2209 8.73331 9.99998C8.73331 9.77906 8.55422 9.59998 8.33331 9.59998H7.39998V8.39998H8.99998C9.22089 8.39998 9.39998 8.22089 9.39998 7.99998C9.39998 7.77906 9.22089 7.59998 8.99998 7.59998H6.99998ZM10.6 7.99998C10.6 7.77906 10.7791 7.59998 11 7.59998H12.6C12.8121 7.59998 13.0156 7.68426 13.1657 7.83429C13.3157 7.98432 13.4 8.1878 13.4 8.39998V8.99998C13.4 9.37128 13.2525 9.72738 12.9899 9.98993L12.9798 9.99998L12.9899 10.01C13.2525 10.2726 13.4 10.6287 13.4 11V11.6C13.4 11.8121 13.3157 12.0156 13.1657 12.1657C13.0156 12.3157 12.8121 12.4 12.6 12.4H11C10.7791 12.4 10.6 12.2209 10.6 12V7.99998ZM11.4 11.6V10.4H12C12.1591 10.4 12.3117 10.4632 12.4242 10.5757C12.5368 10.6882 12.6 10.8408 12.6 11V11.6H11.4ZM12 9.59998H11.4V8.39998H12.6L12.6 8.99998C12.6 9.1591 12.5368 9.31172 12.4242 9.42424C12.3117 9.53676 12.1591 9.59998 12 9.59998ZM15 7.59998C14.7791 7.59998 14.6 7.77906 14.6 7.99998V12C14.6 12.2209 14.7791 12.4 15 12.4C15.2209 12.4 15.4 12.2209 15.4 12V10.4H17C17.2209 10.4 17.4 10.2209 17.4 9.99998V7.99998C17.4 7.77906 17.2209 7.59998 17 7.59998H15ZM15.4 9.59998H16.6V8.39998H15.4V9.59998Z" fill="#3B5998"/>
<path d="M9.5 24C9.5 23.7239 9.27614 23.5 9 23.5C8.72386 23.5 8.5 23.7239 8.5 24L9.5 24ZM22.3536 35.3536C22.5488 35.1583 22.5488 34.8417 22.3536 34.6464L19.1716 31.4645C18.9763 31.2692 18.6597 31.2692 18.4645 31.4645C18.2692 31.6597 18.2692 31.9763 18.4645 32.1716L21.2929 35L18.4645 37.8284C18.2692 38.0237 18.2692 38.3403 18.4645 38.5355C18.6597 38.7308 18.9763 38.7308 19.1716 38.5355L22.3536 35.3536ZM8.5 24C8.5 26.7635 8.68556 28.881 9.13967 30.4948C9.59782 32.123 10.3377 33.2668 11.4557 34.0368C12.5568 34.7952 13.9683 35.1506 15.6873 35.3256C17.407 35.5006 19.502 35.5 22 35.5V34.5C19.4837 34.5 17.4465 34.4994 15.7886 34.3307C14.1299 34.1619 12.9181 33.8298 12.0229 33.2132C11.1444 32.6082 10.5147 31.6895 10.1023 30.2239C9.68587 28.744 9.5 26.7365 9.5 24L8.5 24Z" fill="#8B9DC3"/>
<path d="M42.7778 25H27.2222C26 25 25 26 25 27.2222V42.7778C25 44 26 45 27.2222 45H42.7778C44 45 45 44 45 42.7778V27.2222C45 26 44 25 42.7778 25ZM31.6667 34.4444C31.6667 35.3333 30.8889 36.1111 30 36.1111H28.8889V38.3333H27.2222V31.6667H30C30.8889 31.6667 31.6667 32.4444 31.6667 33.3333V34.4444ZM37.2222 38.3333H35.5556L34.4444 35.5556V38.3333H32.7778V31.6667H34.4444L35.5556 34.4444V31.6667H37.2222V38.3333ZM42.7778 33.3333H40V36.6667H41.1111V35H42.7778V36.8889C42.7778 37.6667 42.2222 38.3333 41.3333 38.3333H39.8889C39 38.3333 38.4444 37.5556 38.4444 36.8889V33.2222C38.3333 32.4444 38.8889 31.6667 39.7778 31.6667H41.2222C42.1111 31.6667 42.6667 32.4444 42.6667 33.1111V33.3333H42.7778ZM28.8889 33.3333H30V34.4444H28.8889V33.3333Z" fill="#3B5998"/>
</svg>
