<svg width="42" height="45" viewBox="0 0 42 45" fill="none" xmlns="http://www.w3.org/2000/svg">
<path fill-rule="evenodd" clip-rule="evenodd" d="M17.5 5.625V17.5C17.5 18.163 17.2366 18.7989 16.7678 19.2678C16.2989 19.7366 15.663 20 15 20V18.75C15.3315 18.75 15.6495 18.6183 15.8839 18.3839C16.1183 18.1495 16.25 17.8315 16.25 17.5V5.625H13.75C13.2527 5.625 12.7758 5.42746 12.4242 5.07583C12.0725 4.72419 11.875 4.24728 11.875 3.75V1.25H5C4.66848 1.25 4.35054 1.3817 4.11612 1.61612C3.8817 1.85054 3.75 2.16848 3.75 2.5V13.75H2.5V2.5C2.5 1.83696 2.76339 1.20107 3.23223 0.732233C3.70107 0.263392 4.33696 0 5 0L11.875 0L17.5 5.625ZM0 19.8113H2.08C2.42 19.8113 2.72 19.7563 2.98 19.6462C3.2425 19.5338 3.44792 19.3729 3.59625 19.1637C3.74625 18.9529 3.82083 18.6987 3.82 18.4012C3.8264 18.1789 3.77332 17.9588 3.66625 17.7638C3.57139 17.5939 3.43173 17.4534 3.2625 17.3575C3.09173 17.2601 2.90205 17.2004 2.70625 17.1825V17.1375C2.86453 17.1001 3.01399 17.0322 3.14625 16.9375C3.27565 16.8413 3.37986 16.7152 3.45 16.57C3.52972 16.4059 3.56833 16.2249 3.5625 16.0425C3.5625 15.6567 3.42833 15.3554 3.16 15.1388C2.89167 14.9213 2.53417 14.8125 2.0875 14.8125H0V19.8113ZM0.98125 15.5562H1.85625C2.08958 15.5562 2.26917 15.6146 2.395 15.7312C2.52417 15.8462 2.58875 16.0063 2.58875 16.2113C2.59425 16.3423 2.55839 16.4717 2.48625 16.5813C2.40964 16.6894 2.30064 16.7704 2.175 16.8125C2.00101 16.8721 1.81755 16.8992 1.63375 16.8925H0.98125V15.5562ZM0.98125 17.5812H1.91875C2.11125 17.5812 2.275 17.6117 2.41 17.6725C2.53616 17.7252 2.64154 17.8179 2.71 17.9363C2.78207 18.0592 2.81762 18.2001 2.8125 18.3425C2.8125 18.5792 2.72708 18.76 2.55625 18.885C2.38542 19.0067 2.10583 19.0675 1.7175 19.0675H0.98125V17.5812ZM5.32375 19.8113V16.4862H5.37125L6.56125 19.1863H7.205L8.38875 16.4862H8.43625V19.8113H9.33V14.8125H8.33L6.905 18.0575H6.8725L5.4475 14.8125H4.44125V19.8113H5.32375ZM10.2213 14.8125H12.2213C12.5829 14.8125 12.8879 14.8871 13.1362 15.0363C13.3879 15.1829 13.5796 15.3817 13.7113 15.6325C13.8438 15.8842 13.91 16.1663 13.91 16.4788C13.91 16.7913 13.8425 17.0733 13.7075 17.325C13.5758 17.5742 13.3833 17.7717 13.13 17.9175C12.849 18.069 12.5329 18.1436 12.2137 18.1338H11.21V19.8113H10.2225L10.2213 14.8125ZM12.7963 16.955C12.8705 16.8075 12.907 16.6438 12.9025 16.4788C12.9025 16.1954 12.8254 15.9783 12.6713 15.8275C12.5171 15.6758 12.3038 15.6 12.0312 15.6H11.2063V17.3575H12.0312C12.1935 17.3619 12.3544 17.3267 12.5 17.255C12.6268 17.1872 12.73 17.0826 12.7963 16.955Z" fill="#3B5998"/>
<path d="M10.5 24C10.5 23.7239 10.2761 23.5 10 23.5C9.72386 23.5 9.5 23.7239 9.5 24L10.5 24ZM23.3536 35.3536C23.5488 35.1583 23.5488 34.8417 23.3536 34.6464L20.1716 31.4645C19.9763 31.2692 19.6597 31.2692 19.4645 31.4645C19.2692 31.6597 19.2692 31.9763 19.4645 32.1716L22.2929 35L19.4645 37.8284C19.2692 38.0237 19.2692 38.3403 19.4645 38.5355C19.6597 38.7308 19.9763 38.7308 20.1716 38.5355L23.3536 35.3536ZM9.5 24C9.5 26.7635 9.68556 28.881 10.1397 30.4948C10.5978 32.123 11.3377 33.2668 12.4557 34.0368C13.5568 34.7952 14.9683 35.1506 16.6873 35.3256C18.407 35.5006 20.502 35.5 23 35.5V34.5C20.4837 34.5 18.4465 34.4994 16.7886 34.3307C15.1299 34.1619 13.9181 33.8298 13.0229 33.2132C12.1444 32.6082 11.5147 31.6895 11.1023 30.2239C10.6859 28.744 10.5 26.7365 10.5 24L9.5 24Z" fill="#8B9DC3"/>
<path d="M36.5 31.5H35.5V26.5L40.5 31.5H36.5Z" fill="white"/>
<path fill-rule="evenodd" clip-rule="evenodd" d="M36 25H28C27.4696 25 26.9609 25.2107 26.5858 25.5858C26.2107 25.9609 26 26.4696 26 27V43C26 43.5304 26.2107 44.0391 26.5858 44.4142C26.9609 44.7893 27.4696 45 28 45H40C40.5304 45 41.0391 44.7893 41.4142 44.4142C41.7893 44.0391 42 43.5304 42 43V31L36 25ZM35.5 31.5H36.5H40.5L35.5 26.5V31.5Z" fill="#3B5998"/>
<path d="M29 39V35H30.5105C30.8612 35 31.1478 35.0566 31.3705 35.1699C31.5946 35.2819 31.7605 35.4336 31.8681 35.625C31.9758 35.8164 32.0297 36.0299 32.0297 36.2656C32.0297 36.5013 31.9758 36.7155 31.8681 36.9082C31.7619 37.1009 31.5975 37.2546 31.3748 37.3691C31.1522 37.4824 30.867 37.5391 30.5192 37.5391H29.4366V37.1094H30.5017C30.7418 37.1094 30.9346 37.0723 31.0802 36.998C31.2257 36.9238 31.3312 36.8236 31.3967 36.6973C31.4636 36.5697 31.4971 36.4258 31.4971 36.2656C31.4971 36.1055 31.4636 35.9622 31.3967 35.8359C31.3312 35.7096 31.225 35.6107 31.078 35.5391C30.931 35.4661 30.736 35.4297 30.493 35.4297H29.5413V39H29Z" fill="white"/>
<path d="M34.2812 39H32.9017V35H34.3423C34.7759 35 35.147 35.0801 35.4555 35.2402C35.764 35.3991 36.0005 35.6276 36.1649 35.9258C36.3293 36.2227 36.4115 36.5781 36.4115 36.9922C36.4115 37.4089 36.3286 37.7676 36.1627 38.0684C35.9968 38.3678 35.7553 38.5983 35.438 38.7598C35.1208 38.9199 34.7352 39 34.2812 39ZM33.443 38.5703H34.2463C34.6159 38.5703 34.9222 38.5065 35.1652 38.3789C35.4082 38.2513 35.5894 38.0697 35.7087 37.834C35.828 37.5983 35.8877 37.3177 35.8877 36.9922C35.8877 36.6693 35.8288 36.3913 35.7109 36.1582C35.593 35.9238 35.4169 35.7441 35.1827 35.6191C34.9484 35.4928 34.6566 35.4297 34.3074 35.4297H33.443V38.5703Z" fill="white"/>
<path d="M37.3196 39V35H40V35.4297H37.8609V36.7813H39.7992V37.2109H37.8609V39H37.3196Z" fill="white"/>
</svg>
