<svg width="37" height="33" viewBox="0 0 37 33" fill="none" xmlns="http://www.w3.org/2000/svg">
<path d="M23.4192 10.725H21.7602V2.475L30.055 10.725H23.4192Z" fill="white"/>
<path fill-rule="evenodd" clip-rule="evenodd" d="M22.5897 0H9.31793C8.43796 0 7.59403 0.347677 6.9718 0.966547C6.34957 1.58542 6 2.42479 6 3.3C13.7765 15.1472 14.139 20.9992 6 29.7C6 30.5752 6.34957 31.4146 6.9718 32.0335C7.59403 32.6523 8.43796 33 9.31793 33H29.2255C30.1055 33 30.9494 32.6523 31.5717 32.0335C32.1939 31.4146 32.5435 30.5752 32.5435 29.7C25.3941 21.198 25.0763 16.8288 32.5435 9.9L22.5897 0ZM21.7602 10.725H23.4192H30.055L21.7602 2.475V10.725Z" fill="#3B5998"/>
<path d="M8.17678 17.6768C8.27441 17.5791 8.27441 17.4209 8.17678 17.3232L6.58579 15.7322C6.48816 15.6346 6.32986 15.6346 6.23223 15.7322C6.1346 15.8299 6.1346 15.9882 6.23223 16.0858L7.64645 17.5L6.23223 18.9142C6.1346 19.0118 6.1346 19.1701 6.23223 19.2678C6.32986 19.3654 6.48816 19.3654 6.58579 19.2678L8.17678 17.6768ZM8 17.25H1V17.75H8V17.25Z" fill="black"/>
<path d="M7.17678 17.6768C7.27441 17.5791 7.27441 17.4209 7.17678 17.3232L5.58579 15.7322C5.48816 15.6346 5.32986 15.6346 5.23223 15.7322C5.1346 15.8299 5.1346 15.9882 5.23223 16.0858L6.64645 17.5L5.23223 18.9142C5.1346 19.0118 5.1346 19.1701 5.23223 19.2678C5.32986 19.3654 5.48816 19.3654 5.58579 19.2678L7.17678 17.6768ZM7 17.25H0V17.75H7V17.25Z" fill="black"/>
<path d="M28.8232 17.6768C28.7256 17.5791 28.7256 17.4209 28.8232 17.3232L30.4142 15.7322C30.5118 15.6346 30.6701 15.6346 30.7678 15.7322C30.8654 15.8299 30.8654 15.9882 30.7678 16.0858L29.3536 17.5L30.7678 18.9142C30.8654 19.0118 30.8654 19.1701 30.7678 19.2678C30.6701 19.3654 30.5118 19.3654 30.4142 19.2678L28.8232 17.6768ZM29 17.25H36V17.75H29V17.25Z" fill="black"/>
<path d="M29.8232 17.6768C29.7256 17.5791 29.7256 17.4209 29.8232 17.3232L31.4142 15.7322C31.5118 15.6346 31.6701 15.6346 31.7678 15.7322C31.8654 15.8299 31.8654 15.9882 31.7678 16.0858L30.3536 17.5L31.7678 18.9142C31.8654 19.0118 31.8654 19.1701 31.7678 19.2678C31.6701 19.3654 31.5118 19.3654 31.4142 19.2678L29.8232 17.6768ZM30 17.25H37V17.75H30V17.25Z" fill="black"/>
</svg>
