<svg width="45" height="44" viewBox="0 0 45 44" fill="none" xmlns="http://www.w3.org/2000/svg">
<path d="M0 3C0 1.34315 1.34315 0 3 0H17C18.6569 0 20 1.34315 20 3V15C20 16.6569 18.6569 18 17 18H3C1.34315 18 0 16.6569 0 15V3Z" fill="#3B5998"/>
<path d="M9.5 12V6H11V12H9.5ZM4 12C3.7 12 3.45833 11.896 3.275 11.688C3.09167 11.48 3 11.2507 3 11V7C3 6.75 3.09167 6.521 3.275 6.313C3.45833 6.105 3.7 6.00067 4 6H7C7.3 6 7.54167 6.10433 7.725 6.313C7.90833 6.52167 8 6.75067 8 7V7.5H4.5V10.5H6.5V9H8V11C8 11.25 7.90833 11.4793 7.725 11.688C7.54167 11.8967 7.3 12.0007 7 12H4ZM12.5 12V6H17V7.5H14V8.5H16V10H14V12H12.5Z" fill="white"/>
<path d="M13.5 23C13.5 22.7239 13.2761 22.5 13 22.5C12.7239 22.5 12.5 22.7239 12.5 23L13.5 23ZM26.3536 34.3536C26.5488 34.1583 26.5488 33.8417 26.3536 33.6464L23.1716 30.4645C22.9763 30.2692 22.6597 30.2692 22.4645 30.4645C22.2692 30.6597 22.2692 30.9763 22.4645 31.1716L25.2929 34L22.4645 36.8284C22.2692 37.0237 22.2692 37.3403 22.4645 37.5355C22.6597 37.7308 22.9763 37.7308 23.1716 37.5355L26.3536 34.3536ZM12.5 23C12.5 25.7635 12.6856 27.881 13.1397 29.4948C13.5978 31.123 14.3377 32.2668 15.4557 33.0368C16.5568 33.7952 17.9683 34.1506 19.6873 34.3256C21.407 34.5006 23.502 34.5 26 34.5V33.5C23.4837 33.5 21.4465 33.4994 19.7886 33.3307C18.1299 33.1619 16.9181 32.8298 16.0229 32.2132C15.1444 31.6082 14.5147 30.6895 14.1023 29.2239C13.6859 27.744 13.5 25.7365 13.5 23L12.5 23Z" fill="#8B9DC3"/>
<path d="M39.5 30.5H38.5V25.5L43.5 30.5H39.5Z" fill="white"/>
<path fill-rule="evenodd" clip-rule="evenodd" d="M39 24H31C30.4696 24 29.9609 24.2107 29.5858 24.5858C29.2107 24.9609 29 25.4696 29 26V42C29 42.5304 29.2107 43.0391 29.5858 43.4142C29.9609 43.7893 30.4696 44 31 44H43C43.5304 44 44.0391 43.7893 44.4142 43.4142C44.7893 43.0391 45 42.5304 45 42V30L39 24ZM38.5 30.5H39.5H43.5L38.5 25.5V30.5Z" fill="#3B5998"/>
<path d="M32 38V34H33.5105C33.8612 34 34.1478 34.0566 34.3705 34.1699C34.5946 34.2819 34.7605 34.4336 34.8681 34.625C34.9758 34.8164 35.0297 35.0299 35.0297 35.2656C35.0297 35.5013 34.9758 35.7155 34.8681 35.9082C34.7619 36.1009 34.5975 36.2546 34.3748 36.3691C34.1522 36.4824 33.867 36.5391 33.5192 36.5391H32.4366V36.1094H33.5017C33.7418 36.1094 33.9346 36.0723 34.0802 35.998C34.2257 35.9238 34.3312 35.8236 34.3967 35.6973C34.4636 35.5697 34.4971 35.4258 34.4971 35.2656C34.4971 35.1055 34.4636 34.9622 34.3967 34.8359C34.3312 34.7096 34.225 34.6107 34.078 34.5391C33.931 34.4661 33.736 34.4297 33.493 34.4297H32.5413V38H32Z" fill="white"/>
<path d="M37.2812 38H35.9017V34H37.3423C37.7759 34 38.147 34.0801 38.4555 34.2402C38.764 34.3991 39.0005 34.6276 39.1649 34.9258C39.3293 35.2227 39.4115 35.5781 39.4115 35.9922C39.4115 36.4089 39.3286 36.7676 39.1627 37.0684C38.9968 37.3678 38.7553 37.5983 38.438 37.7598C38.1208 37.9199 37.7352 38 37.2812 38ZM36.443 37.5703H37.2463C37.6159 37.5703 37.9222 37.5065 38.1652 37.3789C38.4082 37.2513 38.5894 37.0697 38.7087 36.834C38.828 36.5983 38.8877 36.3177 38.8877 35.9922C38.8877 35.6693 38.8288 35.3913 38.7109 35.1582C38.593 34.9238 38.4169 34.7441 38.1827 34.6191C37.9484 34.4928 37.6566 34.4297 37.3074 34.4297H36.443V37.5703Z" fill="white"/>
<path d="M40.3196 38V34H43V34.4297H40.8609V35.7813H42.7992V36.2109H40.8609V38H40.3196Z" fill="white"/>
</svg>
