<svg width="26" height="33" viewBox="0 0 26 33" fill="none" xmlns="http://www.w3.org/2000/svg">
<path d="M16.5878 10.725H15.008V2.475L22.9069 10.725H16.5878Z" fill="white"/>
<path fill-rule="evenodd" clip-rule="evenodd" d="M15.7979 0H3.15957C2.3216 0 1.51795 0.347677 0.925418 0.966547C0.332883 1.58542 0 2.42479 0 3.3V29.7C0 30.5752 0.332883 31.4146 0.925418 32.0335C1.51795 32.6523 2.3216 33 3.15957 33H22.117C22.955 33 23.7586 32.6523 24.3512 32.0335C24.9437 31.4146 25.2766 30.5752 25.2766 29.7V9.9L15.7979 0ZM15.008 10.725H16.5878H22.9069L15.008 2.475V10.725Z" fill="#9C9C9C"/>
<path d="M3 24V16H5.60899C6.21474 16 6.70989 16.1133 7.09445 16.3398C7.48153 16.5638 7.76807 16.8672 7.95406 17.25C8.14006 17.6328 8.23306 18.0599 8.23306 18.5313C8.23306 19.0026 8.14006 19.431 7.95406 19.8164C7.77058 20.2018 7.48656 20.5091 7.10199 20.7383C6.71743 20.9648 6.22479 21.0781 5.62407 21.0781H3.75404V20.2188H5.59391C6.00863 20.2188 6.34167 20.1445 6.59302 19.9961C6.84436 19.8477 7.02659 19.6471 7.1397 19.3945C7.25532 19.1393 7.31313 18.8516 7.31313 18.5313C7.31313 18.2109 7.25532 17.9245 7.1397 17.6719C7.02659 17.4193 6.84311 17.2214 6.58925 17.0781C6.33538 16.9323 5.99858 16.8594 5.57883 16.8594H3.93501V24H3Z" fill="white"/>
<path d="M12.122 24H9.73926V16H12.2276C12.9766 16 13.6176 16.1602 14.1504 16.4805C14.6833 16.7982 15.0917 17.2552 15.3757 17.8516C15.6598 18.4453 15.8018 19.1562 15.8018 19.9844C15.8018 20.8177 15.6585 21.5352 15.372 22.1367C15.0854 22.7357 14.6682 23.1966 14.1202 23.5195C13.5723 23.8398 12.9062 24 12.122 24ZM10.6743 23.1406H12.0617C12.7001 23.1406 13.2292 23.013 13.649 22.7578C14.0687 22.5026 14.3817 22.1393 14.5878 21.668C14.7939 21.1966 14.8969 20.6354 14.8969 19.9844C14.8969 19.3385 14.7951 18.7826 14.5915 18.3164C14.3879 17.8477 14.0838 17.4883 13.6791 17.2383C13.2745 16.9857 12.7705 16.8594 12.1673 16.8594H10.6743V23.1406Z" fill="white"/>
<path d="M17.3702 24V16H22V16.8594H18.3052V19.5625H21.6531V20.4219H18.3052V24H17.3702Z" fill="white"/>
</svg>
