<svg width="49" height="45" viewBox="0 0 49 45" fill="none" xmlns="http://www.w3.org/2000/svg">
<path d="M4.53333 20V16.9231H1.51111V20H0V12.3077H1.51111V15.3846H4.53333V12.3077H6.04444V20H4.53333ZM9.06667 20V13.8462H6.95111V12.3077H12.5422V13.8462H10.5778V20H9.06667ZM13.6 20V12.3077H15.1111L17.2267 17.5385H17.3778L19.6444 12.3077H21.1556V20H19.6444V15.2308H19.4933L17.8311 19.0769H16.9244L15.2622 15.2308H15.1111V20H13.6ZM27.2 20H22.6667V12.3077H24.1778V18.4615H27.2V20ZM12.6933 1.84615L9.21778 5.38462L12.6933 8.92308L11.7867 10.7692L6.49778 5.38462L11.7867 0L12.6933 1.84615ZM14.5067 8.92308L17.9822 5.38462L14.5067 1.84615L15.4133 0L20.7022 5.38462L15.4133 10.7692L14.5067 8.92308Z" fill="#3B5998"/>
<path d="M17.5 24C17.5 23.7239 17.2761 23.5 17 23.5C16.7239 23.5 16.5 23.7239 16.5 24L17.5 24ZM30.3536 35.3536C30.5488 35.1583 30.5488 34.8417 30.3536 34.6464L27.1716 31.4645C26.9763 31.2692 26.6597 31.2692 26.4645 31.4645C26.2692 31.6597 26.2692 31.9763 26.4645 32.1716L29.2929 35L26.4645 37.8284C26.2692 38.0237 26.2692 38.3403 26.4645 38.5355C26.6597 38.7308 26.9763 38.7308 27.1716 38.5355L30.3536 35.3536ZM16.5 24C16.5 26.7635 16.6856 28.881 17.1397 30.4948C17.5978 32.123 18.3377 33.2668 19.4557 34.0368C20.5568 34.7952 21.9683 35.1506 23.6873 35.3256C25.407 35.5006 27.502 35.5 30 35.5V34.5C27.4837 34.5 25.4465 34.4994 23.7886 34.3307C22.1299 34.1619 20.9181 33.8298 20.0229 33.2132C19.1444 32.6082 18.5147 31.6895 18.1023 30.2239C17.6859 28.744 17.5 26.7365 17.5 24L16.5 24Z" fill="#8B9DC3"/>
<path d="M43.5 31.5H42.5V26.5L47.5 31.5H43.5Z" fill="white"/>
<path fill-rule="evenodd" clip-rule="evenodd" d="M43 25H35C34.4696 25 33.9609 25.2107 33.5858 25.5858C33.2107 25.9609 33 26.4696 33 27V43C33 43.5304 33.2107 44.0391 33.5858 44.4142C33.9609 44.7893 34.4696 45 35 45H47C47.5304 45 48.0391 44.7893 48.4142 44.4142C48.7893 44.0391 49 43.5304 49 43V31L43 25ZM42.5 31.5H43.5H47.5L42.5 26.5V31.5Z" fill="#3B5998"/>
<path d="M36 39V35H37.5105C37.8612 35 38.1478 35.0566 38.3705 35.1699C38.5946 35.2819 38.7605 35.4336 38.8681 35.625C38.9758 35.8164 39.0297 36.0299 39.0297 36.2656C39.0297 36.5013 38.9758 36.7155 38.8681 36.9082C38.7619 37.1009 38.5975 37.2546 38.3748 37.3691C38.1522 37.4824 37.867 37.5391 37.5192 37.5391H36.4366V37.1094H37.5017C37.7418 37.1094 37.9346 37.0723 38.0802 36.998C38.2257 36.9238 38.3312 36.8236 38.3967 36.6973C38.4636 36.5697 38.4971 36.4258 38.4971 36.2656C38.4971 36.1055 38.4636 35.9622 38.3967 35.8359C38.3312 35.7096 38.225 35.6107 38.078 35.5391C37.931 35.4661 37.736 35.4297 37.493 35.4297H36.5413V39H36Z" fill="white"/>
<path d="M41.2812 39H39.9017V35H41.3423C41.7759 35 42.147 35.0801 42.4555 35.2402C42.764 35.3991 43.0005 35.6276 43.1649 35.9258C43.3293 36.2227 43.4115 36.5781 43.4115 36.9922C43.4115 37.4089 43.3286 37.7676 43.1627 38.0684C42.9968 38.3678 42.7553 38.5983 42.438 38.7598C42.1208 38.9199 41.7352 39 41.2812 39ZM40.443 38.5703H41.2463C41.6159 38.5703 41.9222 38.5065 42.1652 38.3789C42.4082 38.2513 42.5894 38.0697 42.7087 37.834C42.828 37.5983 42.8877 37.3177 42.8877 36.9922C42.8877 36.6693 42.8288 36.3913 42.7109 36.1582C42.593 35.9238 42.4169 35.7441 42.1827 35.6191C41.9484 35.4928 41.6566 35.4297 41.3074 35.4297H40.443V38.5703Z" fill="white"/>
<path d="M44.3196 39V35H47V35.4297H44.8609V36.7813H46.7992V37.2109H44.8609V39H44.3196Z" fill="white"/>
</svg>
