<svg width="44" height="44" viewBox="0 0 44 44" fill="none" xmlns="http://www.w3.org/2000/svg">
<path d="M18 16V2C18 0.9 17.1 0 16 0H2C0.9 0 0 0.9 0 2V16C0 17.1 0.9 18 2 18H16C17.1 18 18 17.1 18 16ZM5.5 10.5L8 13.51L11.5 9L16 15H2L5.5 10.5Z" fill="#3B5998"/>
<path d="M12.5 23C12.5 22.7239 12.2761 22.5 12 22.5C11.7239 22.5 11.5 22.7239 11.5 23L12.5 23ZM25.3536 34.3536C25.5488 34.1583 25.5488 33.8417 25.3536 33.6464L22.1716 30.4645C21.9763 30.2692 21.6597 30.2692 21.4645 30.4645C21.2692 30.6597 21.2692 30.9763 21.4645 31.1716L24.2929 34L21.4645 36.8284C21.2692 37.0237 21.2692 37.3403 21.4645 37.5355C21.6597 37.7308 21.9763 37.7308 22.1716 37.5355L25.3536 34.3536ZM11.5 23C11.5 25.7635 11.6856 27.881 12.1397 29.4948C12.5978 31.123 13.3377 32.2668 14.4557 33.0368C15.5568 33.7952 16.9683 34.1506 18.6873 34.3256C20.407 34.5006 22.502 34.5 25 34.5V33.5C22.4837 33.5 20.4465 33.4994 18.7886 33.3307C17.1299 33.1619 15.9181 32.8298 15.0229 32.2132C14.1444 31.6082 13.5147 30.6895 13.1023 29.2239C12.6859 27.744 12.5 25.7365 12.5 23L11.5 23Z" fill="#8B9DC3"/>
<path d="M38.5 30.5H37.5V25.5L42.5 30.5H38.5Z" fill="white"/>
<path fill-rule="evenodd" clip-rule="evenodd" d="M38 24H30C29.4696 24 28.9609 24.2107 28.5858 24.5858C28.2107 24.9609 28 25.4696 28 26V42C28 42.5304 28.2107 43.0391 28.5858 43.4142C28.9609 43.7893 29.4696 44 30 44H42C42.5304 44 43.0391 43.7893 43.4142 43.4142C43.7893 43.0391 44 42.5304 44 42V30L38 24ZM37.5 30.5H38.5H42.5L37.5 25.5V30.5Z" fill="#3B5998"/>
<path d="M31 38V34H32.5105C32.8612 34 33.1478 34.0566 33.3705 34.1699C33.5946 34.2819 33.7605 34.4336 33.8681 34.625C33.9758 34.8164 34.0297 35.0299 34.0297 35.2656C34.0297 35.5013 33.9758 35.7155 33.8681 35.9082C33.7619 36.1009 33.5975 36.2546 33.3748 36.3691C33.1522 36.4824 32.867 36.5391 32.5192 36.5391H31.4366V36.1094H32.5017C32.7418 36.1094 32.9346 36.0723 33.0802 35.998C33.2257 35.9238 33.3312 35.8236 33.3967 35.6973C33.4636 35.5697 33.4971 35.4258 33.4971 35.2656C33.4971 35.1055 33.4636 34.9622 33.3967 34.8359C33.3312 34.7096 33.225 34.6107 33.078 34.5391C32.931 34.4661 32.736 34.4297 32.493 34.4297H31.5413V38H31Z" fill="white"/>
<path d="M36.2812 38H34.9017V34H36.3423C36.7759 34 37.147 34.0801 37.4555 34.2402C37.764 34.3991 38.0005 34.6276 38.1649 34.9258C38.3293 35.2227 38.4115 35.5781 38.4115 35.9922C38.4115 36.4089 38.3286 36.7676 38.1627 37.0684C37.9968 37.3678 37.7553 37.5983 37.438 37.7598C37.1208 37.9199 36.7352 38 36.2812 38ZM35.443 37.5703H36.2463C36.6159 37.5703 36.9222 37.5065 37.1652 37.3789C37.4082 37.2513 37.5894 37.0697 37.7087 36.834C37.828 36.5983 37.8877 36.3177 37.8877 35.9922C37.8877 35.6693 37.8288 35.3913 37.7109 35.1582C37.593 34.9238 37.4169 34.7441 37.1827 34.6191C36.9484 34.4928 36.6566 34.4297 36.3074 34.4297H35.443V37.5703Z" fill="white"/>
<path d="M39.3196 38V34H42V34.4297H39.8609V35.7813H41.7992V36.2109H39.8609V38H39.3196Z" fill="white"/>
</svg>
