<svg width="45" height="45" viewBox="0 0 45 45" fill="none" xmlns="http://www.w3.org/2000/svg">
<path d="M16.8889 0.650757H2.77784C1.66911 0.650757 0.761963 1.5579 0.761963 2.66663V16.7777C0.761963 17.8865 1.66911 18.7936 2.77784 18.7936H16.8889C17.9977 18.7936 18.9048 17.8865 18.9048 16.7777V2.66663C18.9048 1.5579 17.9977 0.650757 16.8889 0.650757ZM6.80958 11.2341C6.80958 12.3428 5.90244 12.746 4.79371 12.746C3.68498 12.746 2.77784 12.3428 2.77784 11.2341V9.72219H4.28974V11.2341H5.29768V6.69838H6.80958V11.2341ZM11.8493 9.21822C11.8493 10.0246 11.1437 10.7301 10.3374 10.7301H9.32942V12.746H7.81752V6.69838H10.3374C11.1437 6.69838 11.8493 7.40393 11.8493 8.21028V9.21822ZM16.8889 8.21028H14.3691V11.2341H15.377V9.72219H16.8889V11.4357C16.8889 12.1412 16.385 12.746 15.5786 12.746H14.2683C13.462 12.746 12.958 12.0404 12.958 11.4357V8.10949C12.8572 7.40393 13.3612 6.69838 14.1675 6.69838H15.4778C16.2842 6.69838 16.7882 7.40393 16.7882 8.00869V8.21028M9.32942 8.21028H10.3374V9.21822H9.32942V8.21028Z" fill="#3B5998"/>
<path d="M13.3572 23.8333C13.3572 23.5571 13.1333 23.3333 12.8572 23.3333C12.581 23.3333 12.3572 23.5571 12.3572 23.8333L13.3572 23.8333ZM26.3139 35.2741C26.5092 35.0788 26.5092 34.7623 26.3139 34.567L23.1319 31.385C22.9367 31.1898 22.6201 31.1898 22.4248 31.385C22.2296 31.5803 22.2296 31.8969 22.4248 32.0921L25.2532 34.9206L22.4248 37.749C22.2296 37.9442 22.2296 38.2608 22.4248 38.4561C22.6201 38.6513 22.9367 38.6513 23.1319 38.4561L26.3139 35.2741ZM12.3572 23.8333C12.3572 26.6186 12.5442 28.7524 13.0018 30.3785C13.4634 32.019 14.2087 33.171 15.3346 33.9464C16.4437 34.7103 17.8655 35.0684 19.598 35.2447C21.3311 35.4211 23.4424 35.4206 25.9604 35.4206V34.4206C23.4242 34.4206 21.3706 34.42 19.6992 34.2499C18.0272 34.0797 16.805 33.7449 15.9018 33.1229C15.0154 32.5124 14.3802 31.5855 13.9644 30.1077C13.5445 28.6155 13.3572 26.5915 13.3572 23.8333L12.3572 23.8333Z" fill="#8B9DC3"/>
<path d="M39.5 31.5H38.5V26.5L43.5 31.5H39.5Z" fill="white"/>
<path fill-rule="evenodd" clip-rule="evenodd" d="M39 25H31C30.4696 25 29.9609 25.2107 29.5858 25.5858C29.2107 25.9609 29 26.4696 29 27V43C29 43.5304 29.2107 44.0391 29.5858 44.4142C29.9609 44.7893 30.4696 45 31 45H43C43.5304 45 44.0391 44.7893 44.4142 44.4142C44.7893 44.0391 45 43.5304 45 43V31L39 25ZM38.5 31.5H39.5H43.5L38.5 26.5V31.5Z" fill="#3B5998"/>
<path d="M32 39V35H33.5105C33.8612 35 34.1478 35.0566 34.3705 35.1699C34.5946 35.2819 34.7605 35.4336 34.8681 35.625C34.9758 35.8164 35.0297 36.0299 35.0297 36.2656C35.0297 36.5013 34.9758 36.7155 34.8681 36.9082C34.7619 37.1009 34.5975 37.2546 34.3748 37.3691C34.1522 37.4824 33.867 37.5391 33.5192 37.5391H32.4366V37.1094H33.5017C33.7418 37.1094 33.9346 37.0723 34.0802 36.998C34.2257 36.9238 34.3312 36.8236 34.3967 36.6973C34.4636 36.5697 34.4971 36.4258 34.4971 36.2656C34.4971 36.1055 34.4636 35.9622 34.3967 35.8359C34.3312 35.7096 34.225 35.6107 34.078 35.5391C33.931 35.4661 33.736 35.4297 33.493 35.4297H32.5413V39H32Z" fill="white"/>
<path d="M37.2812 39H35.9017V35H37.3423C37.7759 35 38.147 35.0801 38.4555 35.2402C38.764 35.3991 39.0005 35.6276 39.1649 35.9258C39.3293 36.2227 39.4115 36.5781 39.4115 36.9922C39.4115 37.4089 39.3286 37.7676 39.1627 38.0684C38.9968 38.3678 38.7553 38.5983 38.438 38.7598C38.1208 38.9199 37.7352 39 37.2812 39ZM36.443 38.5703H37.2463C37.6159 38.5703 37.9222 38.5065 38.1652 38.3789C38.4082 38.2513 38.5894 38.0697 38.7087 37.834C38.828 37.5983 38.8877 37.3177 38.8877 36.9922C38.8877 36.6693 38.8288 36.3913 38.7109 36.1582C38.593 35.9238 38.4169 35.7441 38.1827 35.6191C37.9484 35.4928 37.6566 35.4297 37.3074 35.4297H36.443V38.5703Z" fill="white"/>
<path d="M40.3196 39V35H43V35.4297H40.8609V36.7813H42.7992V37.2109H40.8609V39H40.3196Z" fill="white"/>
</svg>
