<svg width="27" height="33" viewBox="0 0 27 33" fill="none" xmlns="http://www.w3.org/2000/svg">
<path d="M18.5625 9.9H16.875V1.65L25.3125 9.9H18.5625Z" fill="white"/>
<path fill-rule="evenodd" clip-rule="evenodd" d="M16.875 0H3.375C2.47989 0 1.62145 0.347677 0.988514 0.966547C0.355579 1.58542 0 2.42479 0 3.3V29.7C0 30.5752 0.355579 31.4146 0.988514 32.0335C1.62145 32.6523 2.47989 33 3.375 33H23.625C24.5201 33 25.3785 32.6523 26.0115 32.0335C26.6444 31.4146 27 30.5752 27 29.7V9.9L16.875 0ZM16.875 9.9H18.5625H25.3125L16.875 1.65V9.9Z" fill="#8B9DC3"/>
<path d="M8.625 28C8.17812 28 7.79571 27.8416 7.47775 27.5248C7.15979 27.208 7.00054 26.8267 7 26.381V18.2857C7 17.8405 7.15925 17.4595 7.47775 17.1427C7.79625 16.8259 8.17867 16.6672 8.625 16.6667H9.4375V15.0476C9.4375 13.9278 9.83373 12.9733 10.6262 12.1843C11.4186 11.3953 12.3766 11.0005 13.5 11C14.6234 10.9995 15.5816 11.3942 16.3746 12.1843C17.1676 12.9744 17.5636 13.9289 17.5625 15.0476V16.6667H18.375C18.8219 16.6667 19.2046 16.8253 19.5231 17.1427C19.8416 17.46 20.0005 17.841 20 18.2857V26.381C20 26.8262 19.841 27.2075 19.5231 27.5248C19.2051 27.8421 18.8224 28.0005 18.375 28H8.625ZM13.5 23.9524C13.9469 23.9524 14.3296 23.794 14.6481 23.4772C14.9666 23.1604 15.1255 22.7791 15.125 22.3333C15.1245 21.8876 14.9655 21.5065 14.6481 21.1903C14.3306 20.874 13.948 20.7154 13.5 20.7143C13.052 20.7132 12.6696 20.8719 12.3527 21.1903C12.0359 21.5087 11.8766 21.8897 11.875 22.3333C11.8734 22.777 12.0326 23.1582 12.3527 23.4772C12.6729 23.7961 13.0553 23.9545 13.5 23.9524ZM11.0625 16.6667H15.9375V15.0476C15.9375 14.373 15.7005 13.7996 15.2266 13.3274C14.7526 12.8552 14.1771 12.619 13.5 12.619C12.8229 12.619 12.2474 12.8552 11.7734 13.3274C11.2995 13.7996 11.0625 14.373 11.0625 15.0476V16.6667Z" fill="#3B5998"/>
</svg>
