<svg width="50" height="49" viewBox="0 0 50 49" fill="none" xmlns="http://www.w3.org/2000/svg">
<path d="M15.0304 28.4851C15.0304 28.209 14.8065 27.9851 14.5304 27.9851C14.2543 27.9851 14.0304 28.209 14.0304 28.4851L15.0304 28.4851ZM29.7739 40.8901C29.9692 40.6948 29.9692 40.3782 29.7739 40.183L26.5919 37.001C26.3967 36.8057 26.0801 36.8057 25.8848 37.001C25.6896 37.1963 25.6896 37.5128 25.8848 37.7081L28.7133 40.5365L25.8848 43.365C25.6896 43.5602 25.6896 43.8768 25.8848 44.0721C26.0801 44.2673 26.3967 44.2673 26.5919 44.0721L29.7739 40.8901ZM14.0304 28.4851C14.0304 34.4923 14.8605 37.7793 17.3928 39.4476C18.6377 40.2677 20.237 40.6548 22.1995 40.8459C24.1634 41.037 26.5574 41.0365 29.4204 41.0365V40.0365C26.54 40.0365 24.2012 40.036 22.2964 39.8506C20.3901 39.665 18.9848 39.2989 17.943 38.6126C15.902 37.268 15.0304 34.5294 15.0304 28.4851L14.0304 28.4851Z" fill="#8B9DC3"/>
<path d="M12.8123 7.12129H11.6669V1.64337L17.3938 7.12129H12.8123Z" fill="#8B9DC3"/>
<path fill-rule="evenodd" clip-rule="evenodd" d="M12.2396 0H3.07653C2.46898 0 1.88632 0.230854 1.45672 0.641778C1.02711 1.0527 0.785767 1.61003 0.785767 2.19117V19.7205C0.785767 20.3016 1.02711 20.859 1.45672 21.2699C1.88632 21.6808 2.46898 21.9117 3.07653 21.9117H16.8211C17.4287 21.9117 18.0113 21.6808 18.4409 21.2699C18.8705 20.859 19.1119 20.3016 19.1119 19.7205V6.5735L12.2396 0ZM11.6669 7.12129H12.8123H17.3938L11.6669 1.64337V7.12129Z" fill="#8B9DC3"/>
<path d="M15.1031 9.31245H13.9577V3.83454L19.6846 9.31245H15.1031Z" fill="#DFE3EE"/>
<path fill-rule="evenodd" clip-rule="evenodd" d="M14.5304 2.19116H5.3673C4.75975 2.19116 4.17709 2.42202 3.74749 2.83294C3.31789 3.24386 3.07654 3.8012 3.07654 4.38233V21.9117C3.07654 22.4928 3.31789 23.0501 3.74749 23.461C4.17709 23.872 4.75975 24.1028 5.3673 24.1028H19.1119C19.7194 24.1028 20.3021 23.872 20.7317 23.461C21.1613 23.0501 21.4027 22.4928 21.4027 21.9117V8.76466L14.5304 2.19116ZM13.9577 9.31245H15.1031H19.6846L13.9577 3.83454V9.31245Z" fill="#DFE3EE"/>
<path d="M17.5 11.5H16.5V6.5L21.5 11.5H17.5Z" fill="white"/>
<path fill-rule="evenodd" clip-rule="evenodd" d="M17 5H9C8.46957 5 7.96086 5.21071 7.58579 5.58579C7.21071 5.96086 7 6.46957 7 7V23C7 23.5304 7.21071 24.0391 7.58579 24.4142C7.96086 24.7893 8.46957 25 9 25H21C21.5304 25 22.0391 24.7893 22.4142 24.4142C22.7893 24.0391 23 23.5304 23 23V11L17 5ZM16.5 11.5H17.5H21.5L16.5 6.5V11.5Z" fill="#3B5998"/>
<path d="M10 19V15H11.5105C11.8612 15 12.1478 15.0566 12.3705 15.1699C12.5946 15.2819 12.7605 15.4336 12.8681 15.625C12.9758 15.8164 13.0297 16.0299 13.0297 16.2656C13.0297 16.5013 12.9758 16.7155 12.8681 16.9082C12.7619 17.1009 12.5975 17.2546 12.3748 17.3691C12.1522 17.4824 11.867 17.5391 11.5192 17.5391H10.4366V17.1094H11.5017C11.7418 17.1094 11.9346 17.0723 12.0802 16.998C12.2257 16.9238 12.3312 16.8236 12.3967 16.6973C12.4636 16.5697 12.4971 16.4258 12.4971 16.2656C12.4971 16.1055 12.4636 15.9622 12.3967 15.8359C12.3312 15.7096 12.225 15.6107 12.078 15.5391C11.931 15.4661 11.736 15.4297 11.493 15.4297H10.5413V19H10Z" fill="white"/>
<path d="M15.2812 19H13.9017V15H15.3423C15.7759 15 16.147 15.0801 16.4555 15.2402C16.764 15.3991 17.0005 15.6276 17.1649 15.9258C17.3293 16.2227 17.4115 16.5781 17.4115 16.9922C17.4115 17.4089 17.3286 17.7676 17.1627 18.0684C16.9968 18.3678 16.7553 18.5983 16.438 18.7598C16.1208 18.9199 15.7352 19 15.2812 19ZM14.443 18.5703H15.2463C15.6159 18.5703 15.9222 18.5065 16.1652 18.3789C16.4082 18.2513 16.5894 18.0697 16.7087 17.834C16.828 17.5983 16.8877 17.3177 16.8877 16.9922C16.8877 16.6693 16.8288 16.3913 16.7109 16.1582C16.593 15.9238 16.4169 15.7441 16.1827 15.6191C15.9484 15.4928 15.6566 15.4297 15.3074 15.4297H14.443V18.5703Z" fill="white"/>
<path d="M18.3196 19V15H21V15.4297H18.8609V16.7813H20.7992V17.2109H18.8609V19H18.3196Z" fill="white"/>
<path d="M44.5 35.5H43.5V30.5L48.5 35.5H44.5Z" fill="white"/>
<path fill-rule="evenodd" clip-rule="evenodd" d="M44 29H36C35.4696 29 34.9609 29.2107 34.5858 29.5858C34.2107 29.9609 34 30.4696 34 31V47C34 47.5304 34.2107 48.0391 34.5858 48.4142C34.9609 48.7893 35.4696 49 36 49H48C48.5304 49 49.0391 48.7893 49.4142 48.4142C49.7893 48.0391 50 47.5304 50 47V35L44 29ZM43.5 35.5H44.5H48.5L43.5 30.5V35.5Z" fill="#3B5998"/>
<path d="M37 43V39H38.5105C38.8612 39 39.1478 39.0566 39.3705 39.1699C39.5946 39.2819 39.7605 39.4336 39.8681 39.625C39.9758 39.8164 40.0297 40.0299 40.0297 40.2656C40.0297 40.5013 39.9758 40.7155 39.8681 40.9082C39.7619 41.1009 39.5975 41.2546 39.3748 41.3691C39.1522 41.4824 38.867 41.5391 38.5192 41.5391H37.4366V41.1094H38.5017C38.7418 41.1094 38.9346 41.0723 39.0802 40.998C39.2257 40.9238 39.3312 40.8236 39.3967 40.6973C39.4636 40.5697 39.4971 40.4258 39.4971 40.2656C39.4971 40.1055 39.4636 39.9622 39.3967 39.8359C39.3312 39.7096 39.225 39.6107 39.078 39.5391C38.931 39.4661 38.736 39.4297 38.493 39.4297H37.5413V43H37Z" fill="white"/>
<path d="M42.2812 43H40.9017V39H42.3423C42.7759 39 43.147 39.0801 43.4555 39.2402C43.764 39.3991 44.0005 39.6276 44.1649 39.9258C44.3293 40.2227 44.4115 40.5781 44.4115 40.9922C44.4115 41.4089 44.3286 41.7676 44.1627 42.0684C43.9968 42.3678 43.7553 42.5983 43.438 42.7598C43.1208 42.9199 42.7352 43 42.2812 43ZM41.443 42.5703H42.2463C42.6159 42.5703 42.9222 42.5065 43.1652 42.3789C43.4082 42.2513 43.5894 42.0697 43.7087 41.834C43.828 41.5983 43.8877 41.3177 43.8877 40.9922C43.8877 40.6693 43.8288 40.3913 43.7109 40.1582C43.593 39.9238 43.4169 39.7441 43.1827 39.6191C42.9484 39.4928 42.6566 39.4297 42.3074 39.4297H41.443V42.5703Z" fill="white"/>
<path d="M45.3196 43V39H48V39.4297H45.8609V40.7813H47.7992V41.2109H45.8609V43H45.3196Z" fill="white"/>
</svg>
