<svg width="38" height="38" viewBox="0 0 38 38" fill="none" xmlns="http://www.w3.org/2000/svg">
<path d="M25.5207 13.8797L25.9475 13.453V14.0565V14.5815H25.5261L25.4806 14.627L25.127 14.2735L25.5207 13.8797ZM18.7943 20.6061L19.2211 20.1793L19.6148 19.7856L19.9684 20.1392L19.8179 20.2897V20.6061H19.3979H18.7943ZM23.9336 13.3006L24.6896 12.5446L24.8663 12.7214L25.1711 12.4166H25.5715V12.1666H26.5794V12.4166H27.5874V12.1666H28.5953V12.4166H29.6033V12.1666H30.6112V12.4166H31.6191V12.1666H32.6271V12.4166H33.635V12.1666H34.6429V12.4166H35.1469C35.2967 12.4166 35.445 12.4314 35.5897 12.4602L35.6385 12.215C35.963 12.2796 36.2718 12.4075 36.5469 12.5913L36.408 12.7992C36.5307 12.8812 36.646 12.9755 36.7519 13.0814C36.8579 13.1874 36.9522 13.3027 37.0342 13.4254L37.2421 13.2865C37.4259 13.5616 37.5538 13.8704 37.6183 14.1949L37.3731 14.2436C37.4019 14.3884 37.4167 14.5367 37.4167 14.6865V15.1904H37.6667V16.1984H37.4167V17.2063H37.6667V18.2142H37.4167V19.2222H37.6667V20.2301H37.4167V21.2381H37.6667V22.246H37.4167V23.2539H37.6667V24.2619H37.4167V25.2698H37.6667V26.2777H37.4167V27.2857H37.6667V28.2936H37.4167V29.3015H37.6667V30.3095H37.4167V31.3174H37.6667V32.3254H37.4167V33.3333H37.6667V34.3412H37.4167V34.8452C37.4167 34.995 37.4019 35.1433 37.3731 35.288L37.6183 35.3368C37.5538 35.6613 37.4259 35.97 37.2421 36.2451L37.0342 36.1063C36.9522 36.229 36.8579 36.3443 36.7519 36.4502C36.646 36.5561 36.5307 36.6505 36.408 36.7325L36.5469 36.9404C36.2718 37.1242 35.963 37.2521 35.6385 37.3166L35.5897 37.0714C35.445 37.1002 35.2967 37.115 35.1469 37.115H34.6744V37.365H33.7295V37.115H32.7846V37.365H31.8396V37.115H30.8947V37.365H29.9497V37.115H29.0048V37.365H28.0599V37.115H27.1149V37.365H26.17V37.115H25.225V37.365H24.2801V37.115H23.3352V37.365H22.3902V37.115H21.4453V37.365H20.5003V37.115H20.0279C19.8781 37.115 19.7298 37.1002 19.585 37.0714L19.5363 37.3166C19.2118 37.2521 18.903 37.1242 18.6279 36.9404L18.7668 36.7325C18.6441 36.6505 18.5288 36.5561 18.4228 36.4502C18.3169 36.3443 18.2226 36.229 18.1405 36.1063L17.9327 36.2451C17.7489 35.97 17.621 35.6613 17.5564 35.3368L17.8016 35.288C17.7728 35.1433 17.758 34.995 17.758 34.8452V34.3727H17.508V33.4278H17.758V32.4828H17.508V31.5379H17.758V30.593H17.508V29.648H17.758V28.7031H17.508V27.7581H17.758V26.8132H17.508V25.8683H17.758V24.9233H17.508V23.9784H17.758V23.0334H17.508V22.0885H17.758V21.1436H17.508V20.1986H17.758V19.8297L18.0628 19.525L17.886 19.3482L18.6419 18.5922L18.8187 18.769L19.5747 18.013L19.3979 17.8363L20.1539 17.0803L20.3306 17.2571L21.0866 16.5011L20.9098 16.3244L21.6658 15.5684L21.8425 15.7452L22.5985 14.9892L22.4217 14.8125L23.1777 14.0565L23.3544 14.2333L24.1104 13.4773L23.9336 13.3006ZM24.6931 15.4145L23.9057 16.2019L23.5521 15.8484L24.3396 15.0609L24.6931 15.4145ZM23.1182 16.9894L22.3308 17.7768L21.9772 17.4233L22.7646 16.6358L23.1182 16.9894ZM21.5433 18.5643L20.7559 19.3517L20.4023 18.9982L21.1897 18.2107L21.5433 18.5643ZM25.9475 20.3561V20.6061H25.6975H25.3825V20.1061H25.4475V19.8311H25.9475V20.3561ZM25.4475 18.7812V17.7313H25.9475V18.7812H25.4475ZM25.4475 16.6813V15.6314H25.9475V16.6813H25.4475ZM20.6578 20.1061H21.4978V20.6061H20.6578V20.1061ZM22.3377 20.1061H23.1777V20.6061H22.3377V20.1061ZM24.0176 20.1061H24.4376H24.7526V20.6061H24.4376H24.0176V20.1061Z" fill="#DFE3EE" stroke="#3B5998" stroke-width="0.5" stroke-dasharray="1 1"/>
<path d="M16.0275 15.3164H17.2244V9.01683L11.2398 15.3164H16.0275Z" fill="white"/>
<path fill-rule="evenodd" clip-rule="evenodd" d="M16.626 7.12695H26.2014C26.8363 7.12695 27.4451 7.39244 27.8941 7.865C28.343 8.33756 28.5952 8.97849 28.5952 9.64679V29.8055C28.5952 30.4738 28.343 31.1148 27.8941 31.5873C27.4451 32.0599 26.8363 32.3254 26.2014 32.3254H11.8383C11.2034 32.3254 10.5945 32.0599 10.1456 31.5873C9.69663 31.1148 9.44442 30.4738 9.44442 29.8055V14.6865L16.626 7.12695ZM17.2244 15.3164H16.0275H11.2398L17.2244 9.01683V15.3164Z" fill="#8B9DC3"/>
<path d="M17.0432 8.84465L17.4744 8.3907V9.01683V15.3164V15.5664H17.2244H16.0275H11.2398H10.6575L11.0586 15.1442L17.0432 8.84465ZM16.9744 15.0664V9.64297L11.8221 15.0664H16.0275H16.9744ZM26.2014 7.37695H16.7333L9.69442 14.7863V29.8055C9.69442 30.4115 9.92324 30.9903 10.3268 31.4151C10.73 31.8395 11.2739 32.0754 11.8383 32.0754H26.2014C26.7657 32.0754 27.3097 31.8395 27.7128 31.4151C28.1164 30.9903 28.3452 30.4115 28.3452 29.8055V9.64679C28.3452 9.04078 28.1164 8.46199 27.7128 8.03718C27.3097 7.61281 26.7657 7.37695 26.2014 7.37695Z" stroke="black" stroke-width="0.5"/>
<path d="M7.30257 8.26089H8.56249V1.96129L2.26289 8.26089H7.30257Z" fill="white"/>
<path fill-rule="evenodd" clip-rule="evenodd" d="M7.93253 0.0714111H18.0119C18.6802 0.0714111 19.3211 0.336894 19.7937 0.809455C20.2663 1.28202 20.5317 1.92295 20.5317 2.59125V22.75C20.5317 23.4183 20.2663 24.0592 19.7937 24.5318C19.3211 25.0043 18.6802 25.2698 18.0119 25.2698H2.89285C2.22455 25.2698 1.58362 25.0043 1.11105 24.5318C0.638491 24.0592 0.373009 23.4183 0.373009 22.75V7.63093L7.93253 0.0714111ZM8.56249 8.26089H7.30257H2.26289L8.56249 1.96129V8.26089Z" fill="#3B5998"/>
<path d="M8.38572 1.78452L8.81249 1.35774V1.96129V8.26089V8.51089H8.56249H7.30257H2.26289H1.65934L2.08611 8.08412L8.38572 1.78452ZM8.31249 8.01089V2.56485L2.86644 8.01089H7.30257H8.31249ZM18.0119 0.321411H8.03609L0.623009 7.73449V22.75C0.623009 23.352 0.862152 23.9293 1.28783 24.355C1.71351 24.7807 2.29085 25.0198 2.89285 25.0198H18.0119C18.6139 25.0198 19.1912 24.7807 19.6169 24.355C20.0426 23.9293 20.2817 23.352 20.2817 22.75V2.59125C20.2817 1.98925 20.0426 1.41191 19.6169 0.986232C19.1912 0.560554 18.6139 0.321411 18.0119 0.321411Z" stroke="black" stroke-width="0.5"/>
<path d="M5 17V13H6.37315C6.69197 13 6.95257 13.0566 7.15498 13.1699C7.3587 13.2819 7.50951 13.4336 7.6074 13.625C7.7053 13.8164 7.75424 14.0299 7.75424 14.2656C7.75424 14.5013 7.7053 14.7155 7.6074 14.9082C7.51083 15.1009 7.36135 15.2546 7.15894 15.3691C6.95654 15.4824 6.69726 15.5391 6.38109 15.5391H5.39686V15.1094H6.36521C6.58349 15.1094 6.75877 15.0723 6.89106 14.998C7.02335 14.9238 7.11926 14.8236 7.17879 14.6973C7.23964 14.5697 7.27007 14.4258 7.27007 14.2656C7.27007 14.1055 7.23964 13.9622 7.17879 13.8359C7.11926 13.7096 7.02269 13.6107 6.88908 13.5391C6.75547 13.4661 6.5782 13.4297 6.35728 13.4297H5.49211V17H5Z" fill="white"/>
<path d="M9.80107 17H8.54698V13H9.85663C10.2509 13 10.5882 13.0801 10.8686 13.2402C11.1491 13.3991 11.3641 13.6276 11.5135 13.9258C11.663 14.2227 11.7378 14.5781 11.7378 14.9922C11.7378 15.4089 11.6624 15.7676 11.5116 16.0684C11.3608 16.3678 11.1412 16.5983 10.8528 16.7598C10.5644 16.9199 10.2138 17 9.80107 17ZM9.03909 16.5703H9.76932C10.1053 16.5703 10.3838 16.5065 10.6047 16.3789C10.8256 16.2513 10.9903 16.0697 11.0988 15.834C11.2073 15.5983 11.2615 15.3177 11.2615 14.9922C11.2615 14.6693 11.208 14.3913 11.1008 14.1582C10.9937 13.9238 10.8336 13.7441 10.6206 13.6191C10.4076 13.4928 10.1424 13.4297 9.82488 13.4297H9.03909V16.5703Z" fill="white"/>
<path d="M12.5633 17V13H15V13.4297H13.0554V14.7813H14.8174V15.2109H13.0554V17H12.5633Z" fill="white"/>
</svg>
