<svg width="44" height="44" viewBox="0 0 44 44" fill="none" xmlns="http://www.w3.org/2000/svg">
<path d="M10.5 6.5H9.5V1.5L14.5 6.5H10.5Z" fill="white"/>
<path fill-rule="evenodd" clip-rule="evenodd" d="M10 0H2C1.46957 0 0.960859 0.210714 0.585786 0.585786C0.210714 0.960859 0 1.46957 0 2V18C0 18.5304 0.210714 19.0391 0.585786 19.4142C0.960859 19.7893 1.46957 20 2 20H14C14.5304 20 15.0391 19.7893 15.4142 19.4142C15.7893 19.0391 16 18.5304 16 18V6L10 0ZM9.5 6.5H10.5H14.5L9.5 1.5V6.5Z" fill="#3B5998"/>
<path d="M3 14V10H4.51047C4.86116 10 5.14783 10.0566 5.37047 10.1699C5.59457 10.2819 5.76046 10.4336 5.86814 10.625C5.97582 10.8164 6.02967 11.0299 6.02967 11.2656C6.02967 11.5013 5.97582 11.7155 5.86814 11.9082C5.76191 12.1009 5.59748 12.2546 5.37484 12.3691C5.1522 12.4824 4.86698 12.5391 4.5192 12.5391H3.43655V12.1094H4.50174C4.74184 12.1094 4.93465 12.0723 5.08017 11.998C5.22568 11.9238 5.33118 11.8236 5.39667 11.6973C5.4636 11.5697 5.49707 11.4258 5.49707 11.2656C5.49707 11.1055 5.4636 10.9622 5.39667 10.8359C5.33118 10.7096 5.22496 10.6107 5.07798 10.5391C4.93101 10.4661 4.73602 10.4297 4.49301 10.4297H3.54132V14H3Z" fill="white"/>
<path d="M8.28118 14H6.90168V10H8.3423C8.77594 10 9.14701 10.0801 9.4555 10.2402C9.764 10.3991 10.0005 10.6276 10.1649 10.9258C10.3293 11.2227 10.4115 11.5781 10.4115 11.9922C10.4115 12.4089 10.3286 12.7676 10.1627 13.0684C9.99682 13.3678 9.75527 13.5983 9.43804 13.7598C9.12081 13.9199 8.73519 14 8.28118 14ZM7.443 13.5703H8.24625C8.61587 13.5703 8.92218 13.5065 9.1652 13.3789C9.40821 13.2513 9.58938 13.0697 9.7087 12.834C9.82803 12.5983 9.88769 12.3177 9.88769 11.9922C9.88769 11.6693 9.82875 11.3913 9.71088 11.1582C9.59302 10.9238 9.41694 10.7441 9.18266 10.6191C8.94837 10.4928 8.65661 10.4297 8.30737 10.4297H7.443V13.5703Z" fill="white"/>
<path d="M11.3196 14V10H14V10.4297H11.8609V11.7813H13.7992V12.2109H11.8609V14H11.3196Z" fill="white"/>
<path d="M9.5 24C9.5 23.7239 9.27614 23.5 9 23.5C8.72386 23.5 8.5 23.7239 8.5 24L9.5 24ZM22.3536 35.3536C22.5488 35.1583 22.5488 34.8417 22.3536 34.6464L19.1716 31.4645C18.9763 31.2692 18.6597 31.2692 18.4645 31.4645C18.2692 31.6597 18.2692 31.9763 18.4645 32.1716L21.2929 35L18.4645 37.8284C18.2692 38.0237 18.2692 38.3403 18.4645 38.5355C18.6597 38.7308 18.9763 38.7308 19.1716 38.5355L22.3536 35.3536ZM8.5 24C8.5 26.7635 8.68556 28.881 9.13967 30.4948C9.59782 32.123 10.3377 33.2668 11.4557 34.0368C12.5568 34.7952 13.9683 35.1506 15.6873 35.3256C17.407 35.5006 19.502 35.5 22 35.5V34.5C19.4837 34.5 17.4465 34.4994 15.7886 34.3307C14.1299 34.1619 12.9181 33.8298 12.0229 33.2132C11.1444 32.6082 10.5147 31.6895 10.1023 30.2239C9.68587 28.744 9.5 26.7365 9.5 24L8.5 24Z" fill="#8B9DC3"/>
<path d="M42 26H28C26.9 26 26 26.9 26 28V42C26 43.1 26.9 44 28 44H42C43.1 44 44 43.1 44 42V28C44 26.9 43.1 26 42 26ZM32 36.5C32 37.6 31.1 38 30 38C28.9 38 28 37.6 28 36.5V35H29.5V36.5H30.5V32H32V36.5ZM37 34.5C37 35.3 36.3 36 35.5 36H34.5V38H33V32H35.5C36.3 32 37 32.7 37 33.5V34.5ZM42 33.5H39.5V36.5H40.5V35H42V36.7C42 37.4 41.5 38 40.7 38H39.4C38.6 38 38.1 37.3 38.1 36.7V33.4C38 32.7 38.5 32 39.3 32H40.6C41.4 32 41.9 32.7 41.9 33.3V33.5M34.5 33.5H35.5V34.5H34.5V33.5Z" fill="#3B5998"/>
</svg>
