<svg width="42" height="45" viewBox="0 0 42 45" fill="none" xmlns="http://www.w3.org/2000/svg">
<path d="M10.5 6.5H9.5V1.5L14.5 6.5H10.5Z" fill="white"/>
<path fill-rule="evenodd" clip-rule="evenodd" d="M10 0H2C1.46957 0 0.960859 0.210714 0.585786 0.585786C0.210714 0.960859 0 1.46957 0 2V18C0 18.5304 0.210714 19.0391 0.585786 19.4142C0.960859 19.7893 1.46957 20 2 20H14C14.5304 20 15.0391 19.7893 15.4142 19.4142C15.7893 19.0391 16 18.5304 16 18V6L10 0ZM9.5 6.5H10.5H14.5L9.5 1.5V6.5Z" fill="#3B5998"/>
<path d="M3 14V10H4.51047C4.86116 10 5.14783 10.0566 5.37047 10.1699C5.59457 10.2819 5.76046 10.4336 5.86814 10.625C5.97582 10.8164 6.02967 11.0299 6.02967 11.2656C6.02967 11.5013 5.97582 11.7155 5.86814 11.9082C5.76191 12.1009 5.59748 12.2546 5.37484 12.3691C5.1522 12.4824 4.86698 12.5391 4.5192 12.5391H3.43655V12.1094H4.50174C4.74184 12.1094 4.93465 12.0723 5.08017 11.998C5.22568 11.9238 5.33118 11.8236 5.39667 11.6973C5.4636 11.5697 5.49707 11.4258 5.49707 11.2656C5.49707 11.1055 5.4636 10.9622 5.39667 10.8359C5.33118 10.7096 5.22496 10.6107 5.07798 10.5391C4.93101 10.4661 4.73602 10.4297 4.49301 10.4297H3.54132V14H3Z" fill="white"/>
<path d="M8.28118 14H6.90168V10H8.3423C8.77594 10 9.14701 10.0801 9.4555 10.2402C9.764 10.3991 10.0005 10.6276 10.1649 10.9258C10.3293 11.2227 10.4115 11.5781 10.4115 11.9922C10.4115 12.4089 10.3286 12.7676 10.1627 13.0684C9.99682 13.3678 9.75527 13.5983 9.43804 13.7598C9.12081 13.9199 8.73519 14 8.28118 14ZM7.443 13.5703H8.24625C8.61587 13.5703 8.92218 13.5065 9.1652 13.3789C9.40821 13.2513 9.58938 13.0697 9.7087 12.834C9.82803 12.5983 9.88769 12.3177 9.88769 11.9922C9.88769 11.6693 9.82875 11.3913 9.71088 11.1582C9.59302 10.9238 9.41694 10.7441 9.18266 10.6191C8.94837 10.4928 8.65661 10.4297 8.30737 10.4297H7.443V13.5703Z" fill="white"/>
<path d="M11.3196 14V10H14V10.4297H11.8609V11.7813H13.7992V12.2109H11.8609V14H11.3196Z" fill="white"/>
<path d="M9.5 24C9.5 23.7239 9.27614 23.5 9 23.5C8.72386 23.5 8.5 23.7239 8.5 24L9.5 24ZM22.3536 35.3536C22.5488 35.1583 22.5488 34.8417 22.3536 34.6464L19.1716 31.4645C18.9763 31.2692 18.6597 31.2692 18.4645 31.4645C18.2692 31.6597 18.2692 31.9763 18.4645 32.1716L21.2929 35L18.4645 37.8284C18.2692 38.0237 18.2692 38.3403 18.4645 38.5355C18.6597 38.7308 18.9763 38.7308 19.1716 38.5355L22.3536 35.3536ZM8.5 24C8.5 26.7635 8.68556 28.881 9.13967 30.4948C9.59782 32.123 10.3377 33.2668 11.4557 34.0368C12.5568 34.7952 13.9683 35.1506 15.6873 35.3256C17.407 35.5006 19.502 35.5 22 35.5V34.5C19.4837 34.5 17.4465 34.4994 15.7886 34.3307C14.1299 34.1619 12.9181 33.8298 12.0229 33.2132C11.1444 32.6082 10.5147 31.6895 10.1023 30.2239C9.68587 28.744 9.5 26.7365 9.5 24L8.5 24Z" fill="#8B9DC3"/>
<path fill-rule="evenodd" clip-rule="evenodd" d="M41.5 30.625V42.5C41.5 43.163 41.2366 43.7989 40.7678 44.2678C40.2989 44.7366 39.663 45 39 45V43.75C39.3315 43.75 39.6495 43.6183 39.8839 43.3839C40.1183 43.1495 40.25 42.8315 40.25 42.5V30.625H37.75C37.2527 30.625 36.7758 30.4275 36.4242 30.0758C36.0725 29.7242 35.875 29.2473 35.875 28.75V26.25H29C28.6685 26.25 28.3505 26.3817 28.1161 26.6161C27.8817 26.8505 27.75 27.1685 27.75 27.5V38.75H26.5V27.5C26.5 26.837 26.7634 26.2011 27.2322 25.7322C27.7011 25.2634 28.337 25 29 25H35.875L41.5 30.625ZM24 44.8113H26.08C26.42 44.8113 26.72 44.7563 26.98 44.6462C27.2425 44.5338 27.4479 44.3729 27.5963 44.1637C27.7463 43.9529 27.8208 43.6987 27.82 43.4012C27.8264 43.1789 27.7733 42.9588 27.6663 42.7638C27.5714 42.5939 27.4317 42.4534 27.2625 42.3575C27.0917 42.2601 26.902 42.2004 26.7062 42.1825V42.1375C26.8645 42.1001 27.014 42.0322 27.1463 41.9375C27.2756 41.8413 27.3799 41.7152 27.45 41.57C27.5297 41.4059 27.5683 41.2249 27.5625 41.0425C27.5625 40.6567 27.4283 40.3554 27.16 40.1388C26.8917 39.9213 26.5342 39.8125 26.0875 39.8125H24V44.8113ZM24.9813 40.5562H25.8563C26.0896 40.5562 26.2692 40.6146 26.395 40.7312C26.5242 40.8462 26.5888 41.0063 26.5888 41.2113C26.5942 41.3423 26.5584 41.4717 26.4862 41.5813C26.4096 41.6894 26.3006 41.7704 26.175 41.8125C26.001 41.8721 25.8175 41.8992 25.6338 41.8925H24.9813V40.5562ZM24.9813 42.5812H25.9187C26.1112 42.5812 26.275 42.6117 26.41 42.6725C26.5362 42.7252 26.6415 42.8179 26.71 42.9363C26.7821 43.0592 26.8176 43.2001 26.8125 43.3425C26.8125 43.5792 26.7271 43.76 26.5563 43.885C26.3854 44.0067 26.1058 44.0675 25.7175 44.0675H24.9813V42.5812ZM29.3237 44.8113V41.4862H29.3713L30.5613 44.1863H31.205L32.3888 41.4862H32.4362V44.8113H33.33V39.8125H32.33L30.905 43.0575H30.8725L29.4475 39.8125H28.4412V44.8113H29.3237ZM34.2213 39.8125H36.2213C36.5829 39.8125 36.8879 39.8871 37.1362 40.0363C37.3879 40.1829 37.5796 40.3817 37.7113 40.6325C37.8438 40.8842 37.91 41.1663 37.91 41.4788C37.91 41.7913 37.8425 42.0733 37.7075 42.325C37.5758 42.5742 37.3833 42.7717 37.13 42.9175C36.849 43.069 36.5329 43.1436 36.2137 43.1338H35.21V44.8113H34.2225L34.2213 39.8125ZM36.7963 41.955C36.8705 41.8075 36.907 41.6438 36.9025 41.4788C36.9025 41.1954 36.8254 40.9783 36.6713 40.8275C36.5171 40.6758 36.3038 40.6 36.0312 40.6H35.2063V42.3575H36.0312C36.1935 42.3619 36.3544 42.3267 36.5 42.255C36.6268 42.1872 36.73 42.0826 36.7963 41.955Z" fill="#3B5998"/>
</svg>
