<svg width="45" height="45" viewBox="0 0 45 45" fill="none" xmlns="http://www.w3.org/2000/svg">
<path d="M36.4224 39.917H34.1826V37.6772H31.9427V35.4373H34.1826V37.6772H36.4224M36.4224 30.9576H34.1826V33.1975H36.4224V35.4373H34.1826V33.1975H31.9427V30.9576H34.1826V28.7178H31.9427V26.4779H34.1826V28.7178H36.4224M42.0221 24.238H26.3431C25.0999 24.238 24.1032 25.2348 24.1032 26.4779V42.1569C24.1032 42.751 24.3392 43.3207 24.7592 43.7407C25.1793 44.1608 25.749 44.3968 26.3431 44.3968H42.0221C42.6161 44.3968 43.1858 44.1608 43.6059 43.7407C44.026 43.3207 44.2619 42.751 44.2619 42.1569V26.4779C44.2619 25.8838 44.026 25.3141 43.6059 24.8941C43.1858 24.474 42.6161 24.238 42.0221 24.238Z" fill="#3B5998"/>
<path d="M5.45239 24.238C5.45239 23.9619 5.22853 23.738 4.95239 23.738C4.67625 23.738 4.45239 23.9619 4.45239 24.238L5.45239 24.238ZM20.425 36.6868C20.6203 36.4916 20.6203 36.175 20.425 35.9797L17.243 32.7977C17.0478 32.6025 16.7312 32.6025 16.5359 32.7977C16.3406 32.993 16.3406 33.3096 16.5359 33.5048L19.3643 36.3333L16.5359 39.1617C16.3406 39.357 16.3406 39.6735 16.5359 39.8688C16.7312 40.0641 17.0478 40.0641 17.243 39.8688L20.425 36.6868ZM4.45239 24.238C4.45239 30.2685 5.29601 33.5673 7.86535 35.2404C9.1274 36.0622 10.7491 36.4504 12.7407 36.642C14.7341 36.8338 17.1642 36.8333 20.0714 36.8333V35.8333C17.147 35.8333 14.7714 35.8328 12.8365 35.6466C10.8999 35.4602 9.47081 35.0925 8.41102 34.4024C6.33666 33.0516 5.45239 30.3028 5.45239 24.238L4.45239 24.238Z" fill="#8B9DC3"/>
<path d="M10.5 6.5H9.5V1.5L14.5 6.5H10.5Z" fill="white"/>
<path fill-rule="evenodd" clip-rule="evenodd" d="M10 0H2C1.46957 0 0.960859 0.210714 0.585786 0.585786C0.210714 0.960859 0 1.46957 0 2V18C0 18.5304 0.210714 19.0391 0.585786 19.4142C0.960859 19.7893 1.46957 20 2 20H14C14.5304 20 15.0391 19.7893 15.4142 19.4142C15.7893 19.0391 16 18.5304 16 18V6L10 0ZM9.5 6.5H10.5H14.5L9.5 1.5V6.5Z" fill="#3B5998"/>
<path d="M3 14V10H4.51047C4.86116 10 5.14783 10.0566 5.37047 10.1699C5.59457 10.2819 5.76046 10.4336 5.86814 10.625C5.97582 10.8164 6.02967 11.0299 6.02967 11.2656C6.02967 11.5013 5.97582 11.7155 5.86814 11.9082C5.76191 12.1009 5.59748 12.2546 5.37484 12.3691C5.1522 12.4824 4.86698 12.5391 4.5192 12.5391H3.43655V12.1094H4.50174C4.74184 12.1094 4.93465 12.0723 5.08017 11.998C5.22568 11.9238 5.33118 11.8236 5.39667 11.6973C5.4636 11.5697 5.49707 11.4258 5.49707 11.2656C5.49707 11.1055 5.4636 10.9622 5.39667 10.8359C5.33118 10.7096 5.22496 10.6107 5.07798 10.5391C4.93101 10.4661 4.73602 10.4297 4.49301 10.4297H3.54132V14H3Z" fill="white"/>
<path d="M8.28118 14H6.90168V10H8.3423C8.77594 10 9.14701 10.0801 9.4555 10.2402C9.764 10.3991 10.0005 10.6276 10.1649 10.9258C10.3293 11.2227 10.4115 11.5781 10.4115 11.9922C10.4115 12.4089 10.3286 12.7676 10.1627 13.0684C9.99682 13.3678 9.75527 13.5983 9.43804 13.7598C9.12081 13.9199 8.73519 14 8.28118 14ZM7.443 13.5703H8.24625C8.61587 13.5703 8.92218 13.5065 9.1652 13.3789C9.40821 13.2513 9.58938 13.0697 9.7087 12.834C9.82803 12.5983 9.88769 12.3177 9.88769 11.9922C9.88769 11.6693 9.82875 11.3913 9.71088 11.1582C9.59302 10.9238 9.41694 10.7441 9.18266 10.6191C8.94837 10.4928 8.65661 10.4297 8.30737 10.4297H7.443V13.5703Z" fill="white"/>
<path d="M11.3196 14V10H14V10.4297H11.8609V11.7813H13.7992V12.2109H11.8609V14H11.3196Z" fill="white"/>
</svg>
