<svg width="45" height="45" viewBox="0 0 45 45" fill="none" xmlns="http://www.w3.org/2000/svg">
<path d="M10.5 6.5H9.5V1.5L14.5 6.5H10.5Z" fill="white"/>
<path fill-rule="evenodd" clip-rule="evenodd" d="M10 0H2C1.46957 0 0.960859 0.210714 0.585786 0.585786C0.210714 0.960859 0 1.46957 0 2V18C0 18.5304 0.210714 19.0391 0.585786 19.4142C0.960859 19.7893 1.46957 20 2 20H14C14.5304 20 15.0391 19.7893 15.4142 19.4142C15.7893 19.0391 16 18.5304 16 18V6L10 0ZM9.5 6.5H10.5H14.5L9.5 1.5V6.5Z" fill="#3B5998"/>
<path d="M3 14V10H4.51047C4.86116 10 5.14783 10.0566 5.37047 10.1699C5.59457 10.2819 5.76046 10.4336 5.86814 10.625C5.97582 10.8164 6.02967 11.0299 6.02967 11.2656C6.02967 11.5013 5.97582 11.7155 5.86814 11.9082C5.76191 12.1009 5.59748 12.2546 5.37484 12.3691C5.1522 12.4824 4.86698 12.5391 4.5192 12.5391H3.43655V12.1094H4.50174C4.74184 12.1094 4.93465 12.0723 5.08017 11.998C5.22568 11.9238 5.33118 11.8236 5.39667 11.6973C5.4636 11.5697 5.49707 11.4258 5.49707 11.2656C5.49707 11.1055 5.4636 10.9622 5.39667 10.8359C5.33118 10.7096 5.22496 10.6107 5.07798 10.5391C4.93101 10.4661 4.73602 10.4297 4.49301 10.4297H3.54132V14H3Z" fill="white"/>
<path d="M8.28118 14H6.90168V10H8.3423C8.77594 10 9.14701 10.0801 9.4555 10.2402C9.764 10.3991 10.0005 10.6276 10.1649 10.9258C10.3293 11.2227 10.4115 11.5781 10.4115 11.9922C10.4115 12.4089 10.3286 12.7676 10.1627 13.0684C9.99682 13.3678 9.75527 13.5983 9.43804 13.7598C9.12081 13.9199 8.73519 14 8.28118 14ZM7.443 13.5703H8.24625C8.61587 13.5703 8.92218 13.5065 9.1652 13.3789C9.40821 13.2513 9.58938 13.0697 9.7087 12.834C9.82803 12.5983 9.88769 12.3177 9.88769 11.9922C9.88769 11.6693 9.82875 11.3913 9.71088 11.1582C9.59302 10.9238 9.41694 10.7441 9.18266 10.6191C8.94837 10.4928 8.65661 10.4297 8.30737 10.4297H7.443V13.5703Z" fill="white"/>
<path d="M11.3196 14V10H14V10.4297H11.8609V11.7813H13.7992V12.2109H11.8609V14H11.3196Z" fill="white"/>
<path d="M8.5 24C8.5 23.7239 8.27614 23.5 8 23.5C7.72386 23.5 7.5 23.7239 7.5 24L8.5 24ZM21.3536 35.3536C21.5488 35.1583 21.5488 34.8417 21.3536 34.6464L18.1716 31.4645C17.9763 31.2692 17.6597 31.2692 17.4645 31.4645C17.2692 31.6597 17.2692 31.9763 17.4645 32.1716L20.2929 35L17.4645 37.8284C17.2692 38.0237 17.2692 38.3403 17.4645 38.5355C17.6597 38.7308 17.9763 38.7308 18.1716 38.5355L21.3536 35.3536ZM7.5 24C7.5 26.7635 7.68556 28.881 8.13967 30.4948C8.59782 32.123 9.33774 33.2668 10.4557 34.0368C11.5568 34.7952 12.9683 35.1506 14.6873 35.3256C16.407 35.5006 18.502 35.5 21 35.5V34.5C18.4837 34.5 16.4465 34.4994 14.7886 34.3307C13.1299 34.1619 11.9181 33.8298 11.0229 33.2132C10.1444 32.6082 9.51467 31.6895 9.10229 30.2239C8.68587 28.744 8.5 26.7365 8.5 24L7.5 24Z" fill="#8B9DC3"/>
<path d="M42.1349 35.6977H38.8791V34.0698H42.1349V35.6977ZM42.1349 36.6279H38.8791V38.2558H42.1349V36.6279ZM42.1349 28.9535H38.8791V30.5814H42.1349V28.9535ZM42.1349 31.5116H38.8791V33.1395H42.1349V31.5116ZM42.1349 39.186H38.8791V40.814H42.1349V39.186ZM44.3837 42.3954C44.2907 42.8791 43.7093 42.8907 43.3209 42.907H36.0884V45H34.6442L24 43.1395V26.8628L34.707 25H36.0884V26.8535H43.0721C43.4652 26.8698 43.8977 26.8419 44.2395 27.0767C44.4791 27.4209 44.4559 27.8581 44.4721 28.2535L44.4628 40.3605C44.4512 41.0372 44.5256 41.7279 44.3837 42.3954ZM32.5279 38.7465C31.8861 37.4442 31.2326 36.1512 30.593 34.8488C31.2256 33.5814 31.8489 32.3093 32.4698 31.0372C31.9419 31.0628 31.414 31.0953 30.8884 31.1326C30.4953 32.0884 30.0372 33.0186 29.7302 34.007C29.4442 33.0744 29.0651 32.1767 28.7186 31.2674C28.207 31.2953 27.6953 31.3256 27.1837 31.3558C27.7233 32.5465 28.2977 33.7209 28.8209 34.9186C28.2047 36.0814 27.6279 37.2605 27.0302 38.4302C27.5395 38.4512 28.0488 38.4721 28.5581 38.4791C28.9209 37.5535 29.3721 36.6628 29.6884 35.7186C29.9721 36.7326 30.4535 37.6698 30.8488 38.6395C31.4093 38.6791 31.9674 38.714 32.5279 38.7465ZM43.363 27.958H36.0884V28.9535H37.9489V30.5814H36.0884V31.5116H37.9489V33.1395H36.0884V34.0698H37.9489V35.6977H36.0884V36.6279H37.9489V38.2558H36.0884V39.186H37.9489V40.814H36.0884V41.8894H43.363V27.958Z" fill="#3B5998"/>
</svg>
