<svg width="46" height="44" viewBox="0 0 46 44" fill="none" xmlns="http://www.w3.org/2000/svg">
<path d="M10.5 6.5H9.5V1.5L14.5 6.5H10.5Z" fill="white"/>
<path fill-rule="evenodd" clip-rule="evenodd" d="M10 0H2C1.46957 0 0.960859 0.210714 0.585786 0.585786C0.210714 0.960859 0 1.46957 0 2V18C0 18.5304 0.210714 19.0391 0.585786 19.4142C0.960859 19.7893 1.46957 20 2 20H14C14.5304 20 15.0391 19.7893 15.4142 19.4142C15.7893 19.0391 16 18.5304 16 18V6L10 0ZM9.5 6.5H10.5H14.5L9.5 1.5V6.5Z" fill="#3B5998"/>
<path d="M3 14V10H4.51047C4.86116 10 5.14783 10.0566 5.37047 10.1699C5.59457 10.2819 5.76046 10.4336 5.86814 10.625C5.97582 10.8164 6.02967 11.0299 6.02967 11.2656C6.02967 11.5013 5.97582 11.7155 5.86814 11.9082C5.76191 12.1009 5.59748 12.2546 5.37484 12.3691C5.1522 12.4824 4.86698 12.5391 4.5192 12.5391H3.43655V12.1094H4.50174C4.74184 12.1094 4.93465 12.0723 5.08017 11.998C5.22568 11.9238 5.33118 11.8236 5.39667 11.6973C5.4636 11.5697 5.49707 11.4258 5.49707 11.2656C5.49707 11.1055 5.4636 10.9622 5.39667 10.8359C5.33118 10.7096 5.22496 10.6107 5.07798 10.5391C4.93101 10.4661 4.73602 10.4297 4.49301 10.4297H3.54132V14H3Z" fill="white"/>
<path d="M8.28118 14H6.90168V10H8.3423C8.77594 10 9.14701 10.0801 9.4555 10.2402C9.764 10.3991 10.0005 10.6276 10.1649 10.9258C10.3293 11.2227 10.4115 11.5781 10.4115 11.9922C10.4115 12.4089 10.3286 12.7676 10.1627 13.0684C9.99682 13.3678 9.75527 13.5983 9.43804 13.7598C9.12081 13.9199 8.73519 14 8.28118 14ZM7.443 13.5703H8.24625C8.61587 13.5703 8.92218 13.5065 9.1652 13.3789C9.40821 13.2513 9.58938 13.0697 9.7087 12.834C9.82803 12.5983 9.88769 12.3177 9.88769 11.9922C9.88769 11.6693 9.82875 11.3913 9.71088 11.1582C9.59302 10.9238 9.41694 10.7441 9.18266 10.6191C8.94837 10.4928 8.65661 10.4297 8.30737 10.4297H7.443V13.5703Z" fill="white"/>
<path d="M11.3196 14V10H14V10.4297H11.8609V11.7813H13.7992V12.2109H11.8609V14H11.3196Z" fill="white"/>
<path d="M8.5 23C8.5 22.7239 8.27614 22.5 8 22.5C7.72386 22.5 7.5 22.7239 7.5 23L8.5 23ZM21.3536 34.3536C21.5488 34.1583 21.5488 33.8417 21.3536 33.6464L18.1716 30.4645C17.9763 30.2692 17.6597 30.2692 17.4645 30.4645C17.2692 30.6597 17.2692 30.9763 17.4645 31.1716L20.2929 34L17.4645 36.8284C17.2692 37.0237 17.2692 37.3403 17.4645 37.5355C17.6597 37.7308 17.9763 37.7308 18.1716 37.5355L21.3536 34.3536ZM7.5 23C7.5 25.7635 7.68556 27.881 8.13967 29.4948C8.59782 31.123 9.33774 32.2668 10.4557 33.0368C11.5568 33.7952 12.9683 34.1506 14.6873 34.3256C16.407 34.5006 18.502 34.5 21 34.5V33.5C18.4837 33.5 16.4465 33.4994 14.7886 33.3307C13.1299 33.1619 11.9181 32.8298 11.0229 32.2132C10.1444 31.6082 9.51467 30.6895 9.10229 29.2239C8.68587 27.744 8.5 25.7365 8.5 23L7.5 23Z" fill="#8B9DC3"/>
<path d="M44.5464 26.093H37.0883V24H35.7697L25 25.8652V42.1395L35.6418 44H37.0883V41.6744H44.0674C44.465 41.6558 44.9069 41.6954 45.2464 41.4488C45.5162 41.0326 45.4508 40.5116 45.4741 40.0419V27.0047C45.5276 26.4698 45.0813 26.0419 44.5464 26.093ZM31.8209 34.7721C31.293 35.0418 30.6883 35.0046 30.1139 34.986L30.1116 37.7139L28.7279 37.5976L28.7302 30.1442C29.993 30.2046 31.5232 29.6442 32.5697 30.5907C33.5721 31.807 33.3069 34.0442 31.8209 34.7721ZM44.3628 40.5769H37.0883V39.1163H42.6697V38.1861H37.0883V37.0233H42.6697V36.093H37.0906C37.0906 36.093 37.0883 35.1814 37.086 34.7256C38.0069 35.0116 39.0558 35.0047 39.879 34.4512C40.7697 33.9233 41.2348 32.9163 41.3116 31.9117H38.2511V28.8745L37.0883 29.1094V27.1906H44.3628V40.5769ZM38.716 28.3884C40.3323 28.4628 41.693 29.8291 41.779 31.4408H38.716V28.3884ZM30.1116 31.4023C30.5697 31.3814 31.1372 31.2977 31.4465 31.7279C31.7116 32.1837 31.6977 32.7837 31.4767 33.2535C31.2116 33.7325 30.6116 33.6861 30.1488 33.7419C30.1 32.9628 30.1046 32.1837 30.1116 31.4023Z" fill="#3B5998"/>
</svg>
