<svg width="42" height="45" viewBox="0 0 42 45" fill="none" xmlns="http://www.w3.org/2000/svg">
<path d="M19.5464 2.09304H12.0883V0H10.7697L0 1.86518V18.1395L10.6418 20H12.0883V17.6744H19.0674C19.465 17.6558 19.9069 17.6954 20.2464 17.4488C20.5162 17.0326 20.4508 16.5116 20.4741 16.0419V3.00469C20.5276 2.46981 20.0813 2.04188 19.5464 2.09304ZM6.82088 10.7721C6.293 11.0418 5.68833 11.0046 5.11393 10.986L5.11161 13.7139L3.72788 13.5976L3.7302 6.14421C4.99302 6.20465 6.52322 5.64421 7.56974 6.5907C8.57207 7.80701 8.30693 10.0442 6.82088 10.7721ZM19.3628 16.5769H12.0883V15.1163H17.6697V14.1861H12.0883V13.0233H17.6697V12.093H12.0906C12.0906 12.093 12.0883 11.1814 12.086 10.7256C13.0069 11.0116 14.0558 11.0047 14.879 10.4512C15.7697 9.92329 16.2348 8.91632 16.3116 7.91168H13.2511V4.87447L12.0883 5.10937V3.1906H19.3628V16.5769ZM13.716 4.38839C15.3323 4.46278 16.693 5.82912 16.779 7.44075H13.716V4.38839ZM5.11161 7.40232C5.56974 7.3814 6.13717 7.29768 6.44647 7.72789C6.71161 8.18374 6.69765 8.78373 6.47671 9.2535C6.21161 9.73254 5.61157 9.68606 5.14881 9.74186C5.10001 8.9628 5.10461 8.18374 5.11161 7.40232Z" fill="#3B5998"/>
<path d="M10.5 24C10.5 23.7239 10.2761 23.5 10 23.5C9.72386 23.5 9.5 23.7239 9.5 24L10.5 24ZM23.3536 35.3536C23.5488 35.1583 23.5488 34.8417 23.3536 34.6464L20.1716 31.4645C19.9763 31.2692 19.6597 31.2692 19.4645 31.4645C19.2692 31.6597 19.2692 31.9763 19.4645 32.1716L22.2929 35L19.4645 37.8284C19.2692 38.0237 19.2692 38.3403 19.4645 38.5355C19.6597 38.7308 19.9763 38.7308 20.1716 38.5355L23.3536 35.3536ZM9.5 24C9.5 26.7635 9.68556 28.881 10.1397 30.4948C10.5978 32.123 11.3377 33.2668 12.4557 34.0368C13.5568 34.7952 14.9683 35.1506 16.6873 35.3256C18.407 35.5006 20.502 35.5 23 35.5V34.5C20.4837 34.5 18.4465 34.4994 16.7886 34.3307C15.1299 34.1619 13.9181 33.8298 13.0229 33.2132C12.1444 32.6082 11.5147 31.6895 11.1023 30.2239C10.6859 28.744 10.5 26.7365 10.5 24L9.5 24Z" fill="#8B9DC3"/>
<path d="M36.5 31.5H35.5V26.5L40.5 31.5H36.5Z" fill="white"/>
<path fill-rule="evenodd" clip-rule="evenodd" d="M36 25H28C27.4696 25 26.9609 25.2107 26.5858 25.5858C26.2107 25.9609 26 26.4696 26 27V43C26 43.5304 26.2107 44.0391 26.5858 44.4142C26.9609 44.7893 27.4696 45 28 45H40C40.5304 45 41.0391 44.7893 41.4142 44.4142C41.7893 44.0391 42 43.5304 42 43V31L36 25ZM35.5 31.5H36.5H40.5L35.5 26.5V31.5Z" fill="#3B5998"/>
<path d="M29 39V35H30.5105C30.8612 35 31.1478 35.0566 31.3705 35.1699C31.5946 35.2819 31.7605 35.4336 31.8681 35.625C31.9758 35.8164 32.0297 36.0299 32.0297 36.2656C32.0297 36.5013 31.9758 36.7155 31.8681 36.9082C31.7619 37.1009 31.5975 37.2546 31.3748 37.3691C31.1522 37.4824 30.867 37.5391 30.5192 37.5391H29.4366V37.1094H30.5017C30.7418 37.1094 30.9346 37.0723 31.0802 36.998C31.2257 36.9238 31.3312 36.8236 31.3967 36.6973C31.4636 36.5697 31.4971 36.4258 31.4971 36.2656C31.4971 36.1055 31.4636 35.9622 31.3967 35.8359C31.3312 35.7096 31.225 35.6107 31.078 35.5391C30.931 35.4661 30.736 35.4297 30.493 35.4297H29.5413V39H29Z" fill="white"/>
<path d="M34.2812 39H32.9017V35H34.3423C34.7759 35 35.147 35.0801 35.4555 35.2402C35.764 35.3991 36.0005 35.6276 36.1649 35.9258C36.3293 36.2227 36.4115 36.5781 36.4115 36.9922C36.4115 37.4089 36.3286 37.7676 36.1627 38.0684C35.9968 38.3678 35.7553 38.5983 35.438 38.7598C35.1208 38.9199 34.7352 39 34.2812 39ZM33.443 38.5703H34.2463C34.6159 38.5703 34.9222 38.5065 35.1652 38.3789C35.4082 38.2513 35.5894 38.0697 35.7087 37.834C35.828 37.5983 35.8877 37.3177 35.8877 36.9922C35.8877 36.6693 35.8288 36.3913 35.7109 36.1582C35.593 35.9238 35.4169 35.7441 35.1827 35.6191C34.9484 35.4928 34.6566 35.4297 34.3074 35.4297H33.443V38.5703Z" fill="white"/>
<path d="M37.3196 39V35H40V35.4297H37.8609V36.7813H39.7992V37.2109H37.8609V39H37.3196Z" fill="white"/>
</svg>
