<svg width="36" height="36" viewBox="0 0 36 36" fill="none" xmlns="http://www.w3.org/2000/svg">
<path d="M12.0518 12.6982L11.625 12.2714V12.875V13.3958H12.0423L12.0888 13.4424L12.4424 13.0888L12.0518 12.6982ZM18.7286 19.375L18.3018 18.9482L17.9112 18.5576L17.5576 18.9112L17.7083 19.0619V19.375H18.125H18.7286ZM13.625 12.125L12.875 11.375L12.6982 11.5518L12.3964 11.25H12V11H11V11.25H10V11H9V11.25H8V11H7V11.25H6V11H5V11.25H4V11H3V11.25H2.5C2.35151 11.25 2.20455 11.2647 2.06105 11.2932L2.01227 11.048C1.69032 11.1121 1.38401 11.239 1.11107 11.4213L1.24996 11.6292C1.1283 11.7105 1.01401 11.804 0.90901 11.909C0.804009 12.014 0.710471 12.1283 0.629186 12.25L0.421317 12.1111C0.23895 12.384 0.112072 12.6903 0.0480271 13.0123L0.293223 13.061C0.264677 13.2045 0.25 13.3515 0.25 13.5V14H0V15H0.25V16H0V17H0.25V18H0V19H0.25V20H0V21H0.25V22H0V23H0.25V24H0V25H0.25V26H0V27H0.25V28H0V29H0.25V30H0V31H0.25V32H0V33H0.25V33.5C0.25 33.6485 0.264677 33.7955 0.293223 33.939L0.0480271 33.9877C0.112071 34.3097 0.23895 34.616 0.421317 34.8889L0.629186 34.75C0.710471 34.8717 0.804009 34.986 0.90901 35.091C1.01401 35.196 1.1283 35.2895 1.24996 35.3708L1.11107 35.5787C1.38401 35.761 1.69032 35.8879 2.01227 35.952L2.06105 35.7068C2.20455 35.7353 2.35151 35.75 2.5 35.75H2.96875V36H3.90625V35.75H4.84375V36H5.78125V35.75H6.71875V36H7.65625V35.75H8.59375V36H9.53125V35.75H10.4688V36H11.4062V35.75H12.3438V36H13.2812V35.75H14.2188V36H15.1562V35.75H16.0938V36H17.0312V35.75H17.5C17.6485 35.75 17.7955 35.7353 17.939 35.7068L17.9877 35.952C18.3097 35.8879 18.616 35.761 18.8889 35.5787L18.75 35.3708C18.8717 35.2895 18.986 35.196 19.091 35.091C19.196 34.986 19.2895 34.8717 19.3708 34.75L19.5787 34.8889C19.761 34.616 19.8879 34.3097 19.952 33.9877L19.7068 33.939C19.7353 33.7955 19.75 33.6485 19.75 33.5V33.0312H20V32.0938H19.75V31.1562H20V30.2188H19.75V29.2812H20V28.3438H19.75V27.4062H20V26.4688H19.75V25.5312H20V24.5938H19.75V23.6562H20V22.7188H19.75V21.7812H20V20.8438H19.75V19.9062H20V18.9688H19.75V18.6036L19.4482 18.3018L19.625 18.125L18.875 17.375L18.6982 17.5518L17.9482 16.8018L18.125 16.625L17.375 15.875L17.1982 16.0518L16.4482 15.3018L16.625 15.125L15.875 14.375L15.6982 14.5518L14.9482 13.8018L15.125 13.625L14.375 12.875L14.1982 13.0518L13.4482 12.3018L13.625 12.125ZM12.8701 14.2237L13.6513 15.0049L14.0049 14.6513L13.2237 13.8701L12.8701 14.2237ZM14.4326 15.7862L15.2138 16.5674L15.5674 16.2138L14.7862 15.4326L14.4326 15.7862ZM15.9951 17.3487L16.7763 18.1299L17.1299 17.7763L16.3487 16.9951L15.9951 17.3487ZM11.625 19.125V19.375H11.875H12.1875V18.875H12.125V18.6042H11.625V19.125ZM12.125 17.5625V16.5208H11.625V17.5625H12.125ZM12.125 15.4792V14.4375H11.625V15.4792H12.125ZM16.875 18.875H16.0417V19.375H16.875V18.875ZM15.2083 18.875H14.375V19.375H15.2083V18.875ZM13.5417 18.875H13.125H12.8125V19.375H13.125H13.5417V18.875Z" fill="#DFE3EE" stroke="#3B5998" stroke-width="0.5" stroke-dasharray="1 1"/>
<line y1="-0.5" x2="27.8029" y2="-0.5" transform="matrix(0.611448 0.791285 0.791285 -0.611448 1 12)" stroke="#3B5998"/>
<line x1="18.3956" y1="12.3057" x2="1.39564" y2="34.3057" stroke="#3B5998"/>
<path d="M21.4688 14.125H20.2812V7.875L26.2188 14.125H21.4688Z" fill="white"/>
<path fill-rule="evenodd" clip-rule="evenodd" d="M20.875 6H11.375C10.7451 6 10.141 6.26339 9.69562 6.73223C9.25022 7.20107 9 7.83696 9 8.5V28.5C9 29.163 9.25022 29.7989 9.69562 30.2678C10.141 30.7366 10.7451 31 11.375 31H25.625C26.2549 31 26.859 30.7366 27.3044 30.2678C27.7498 29.7989 28 29.163 28 28.5V13.5L20.875 6ZM20.2812 14.125H21.4688H26.2188L20.2812 7.875V14.125Z" fill="#8B9DC3"/>
<path d="M20.4625 7.70281L20.0312 7.24887V7.875V14.125V14.375H20.2812H21.4688H26.2188H26.8011L26.4 13.9528L20.4625 7.70281ZM20.5312 13.875V8.50113L25.6364 13.875H21.4688H20.5312ZM11.375 6.25H20.7677L27.75 13.5998V28.5C27.75 29.1008 27.5232 29.6745 27.1231 30.0956C26.7235 30.5162 26.1843 30.75 25.625 30.75H11.375C10.8157 30.75 10.2765 30.5162 9.87687 30.0956C9.47684 29.6745 9.25 29.1008 9.25 28.5V8.5C9.25 7.89924 9.47684 7.32551 9.87687 6.90442C10.2765 6.48377 10.8157 6.25 11.375 6.25Z" stroke="black" stroke-width="0.5"/>
<path d="M29.125 8.125H27.875V1.875L34.125 8.125H29.125Z" fill="white"/>
<path fill-rule="evenodd" clip-rule="evenodd" d="M28.5 0H18.5C17.837 0 17.2011 0.263392 16.7322 0.732233C16.2634 1.20107 16 1.83696 16 2.5V22.5C16 23.163 16.2634 23.7989 16.7322 24.2678C17.2011 24.7366 17.837 25 18.5 25H33.5C34.163 25 34.7989 24.7366 35.2678 24.2678C35.7366 23.7989 36 23.163 36 22.5V7.5L28.5 0ZM27.875 8.125H29.125H34.125L27.875 1.875V8.125Z" fill="#3B5998"/>
<path d="M28.0518 1.69822L27.625 1.27145V1.875V8.125V8.375H27.875H29.125H34.125H34.7286L34.3018 7.94822L28.0518 1.69822ZM28.125 7.875V2.47855L33.5214 7.875H29.125H28.125ZM18.5 0.25H28.3964L35.75 7.60355V22.5C35.75 23.0967 35.5129 23.669 35.091 24.091C34.669 24.5129 34.0967 24.75 33.5 24.75H18.5C17.9033 24.75 17.331 24.5129 16.909 24.091C16.4871 23.669 16.25 23.0967 16.25 22.5V2.5C16.25 1.90326 16.4871 1.33097 16.909 0.90901C17.331 0.487053 17.9033 0.25 18.5 0.25Z" stroke="black" stroke-width="0.5"/>
<path d="M22.25 16.25V12.5H23.4515C23.7305 12.5 23.9585 12.5531 24.1356 12.6593C24.3139 12.7643 24.4458 12.9065 24.5315 13.0859C24.6171 13.2654 24.66 13.4656 24.66 13.6865C24.66 13.9075 24.6171 14.1083 24.5315 14.2889C24.447 14.4696 24.3162 14.6136 24.1391 14.7211C23.962 14.8273 23.7351 14.8804 23.4585 14.8804H22.5973V14.4775H23.4446C23.6356 14.4775 23.7889 14.4427 23.9047 14.3732C24.0204 14.3036 24.1044 14.2096 24.1564 14.0912C24.2097 13.9716 24.2363 13.8367 24.2363 13.6865C24.2363 13.5364 24.2097 13.4021 24.1564 13.2837C24.1044 13.1653 24.0199 13.0725 23.9029 13.0054C23.786 12.937 23.6309 12.9028 23.4376 12.9028H22.6806V16.25H22.25Z" fill="white"/>
<path d="M26.4509 16.25H25.3536V12.5H26.4996C26.8445 12.5 27.1397 12.5751 27.3851 12.7252C27.6305 12.8741 27.8186 13.0884 27.9494 13.3679C28.0802 13.6462 28.1456 13.9795 28.1456 14.3677C28.1456 14.7583 28.0796 15.0946 27.9476 15.3766C27.8157 15.6573 27.6235 15.8734 27.3712 16.0248C27.1188 16.1749 26.8121 16.25 26.4509 16.25ZM25.7842 15.8472H26.4232C26.7172 15.8472 26.9608 15.7874 27.1541 15.6677C27.3474 15.5481 27.4916 15.3778 27.5865 15.1569C27.6814 14.9359 27.7288 14.6729 27.7288 14.3677C27.7288 14.0649 27.682 13.8043 27.5882 13.5858C27.4944 13.3661 27.3544 13.1976 27.168 13.0804C26.9817 12.962 26.7496 12.9028 26.4718 12.9028H25.7842V15.8472Z" fill="white"/>
<path d="M28.8678 16.25V12.5H31V12.9028H29.2984V14.1699H30.8403V14.5728H29.2984V16.25H28.8678Z" fill="white"/>
</svg>
