<svg width="49" height="48" viewBox="0 0 49 48" fill="none" xmlns="http://www.w3.org/2000/svg">
<path d="M14.5066 27.5983C14.5066 27.3221 14.2827 27.0983 14.0066 27.0983C13.7304 27.0983 13.5066 27.3221 13.5066 27.5983L14.5066 27.5983ZM29.2501 41.151C29.4454 40.9557 29.4454 40.6391 29.2501 40.4439L26.0681 37.2619C25.8729 37.0666 25.5563 37.0666 25.361 37.2619C25.1658 37.4572 25.1658 37.7737 25.361 37.969L28.1895 40.7974L25.361 43.6259C25.1658 43.8211 25.1658 44.1377 25.361 44.333C25.5563 44.5282 25.8729 44.5282 26.0681 44.333L29.2501 41.151ZM13.5066 27.5983C13.5066 30.9109 13.7191 33.4383 14.235 35.3587C14.7541 37.2916 15.5897 38.6426 16.8516 39.553C18.0991 40.4532 19.7041 40.8787 21.6711 41.0884C23.6378 41.2981 26.0345 41.2974 28.8966 41.2974V40.2974C26.0154 40.2974 23.6792 40.2968 21.7771 40.094C19.8754 39.8913 18.4758 39.4918 17.4367 38.7421C16.4119 38.0026 15.6787 36.8787 15.2007 35.0993C14.7195 33.3075 14.5066 30.8852 14.5066 27.5983L13.5066 27.5983Z" fill="#8B9DC3"/>
<path fill-rule="evenodd" clip-rule="evenodd" d="M20.3062 6.74958V20.9987C20.3062 21.7943 20.0045 22.5573 19.4675 23.1199C18.9305 23.6824 18.2021 23.9985 17.4427 23.9985H14.5792V22.4986H17.4427C17.8224 22.4986 18.1866 22.3406 18.4551 22.0593C18.7236 21.778 18.8744 21.3965 18.8744 20.9987V6.74958H16.011C15.4414 6.74958 14.8951 6.51254 14.4924 6.09061C14.0896 5.66868 13.8634 5.09642 13.8634 4.49972V1.49991H5.98887C5.60916 1.49991 5.24499 1.65793 4.97649 1.93922C4.70799 2.2205 4.55715 2.60201 4.55715 2.99981V16.499H3.12542V2.99981C3.12542 2.20421 3.4271 1.4412 3.96411 0.878624C4.50111 0.316051 5.22944 0 5.98887 0L13.8634 0L20.3062 6.74958ZM3.02233 23.772V18.7668H4.64878V17.7739H0.261963V18.7668H1.88554V23.772H3.02233ZM9.73571 17.7739H8.45574L7.27743 19.9322H7.22732L6.03612 17.7739H4.70175L6.45991 20.7482L4.68457 23.772H5.91872L7.13998 21.6496H7.19009L8.40706 23.772H9.70564L7.91169 20.7842L9.73571 17.7739ZM12.4989 18.7668V23.772H11.3622V18.7668H9.73857V17.7739H14.1254V18.7668H12.4975H12.4989Z" fill="#3B5998"/>
<path d="M43.5 34.5H42.5V29.5L47.5 34.5H43.5Z" fill="white"/>
<path fill-rule="evenodd" clip-rule="evenodd" d="M43 28H35C34.4696 28 33.9609 28.2107 33.5858 28.5858C33.2107 28.9609 33 29.4696 33 30V46C33 46.5304 33.2107 47.0391 33.5858 47.4142C33.9609 47.7893 34.4696 48 35 48H47C47.5304 48 48.0391 47.7893 48.4142 47.4142C48.7893 47.0391 49 46.5304 49 46V34L43 28ZM42.5 34.5H43.5H47.5L42.5 29.5V34.5Z" fill="#3B5998"/>
<path d="M36 42V38H37.5105C37.8612 38 38.1478 38.0566 38.3705 38.1699C38.5946 38.2819 38.7605 38.4336 38.8681 38.625C38.9758 38.8164 39.0297 39.0299 39.0297 39.2656C39.0297 39.5013 38.9758 39.7155 38.8681 39.9082C38.7619 40.1009 38.5975 40.2546 38.3748 40.3691C38.1522 40.4824 37.867 40.5391 37.5192 40.5391H36.4366V40.1094H37.5017C37.7418 40.1094 37.9346 40.0723 38.0802 39.998C38.2257 39.9238 38.3312 39.8236 38.3967 39.6973C38.4636 39.5697 38.4971 39.4258 38.4971 39.2656C38.4971 39.1055 38.4636 38.9622 38.3967 38.8359C38.3312 38.7096 38.225 38.6107 38.078 38.5391C37.931 38.4661 37.736 38.4297 37.493 38.4297H36.5413V42H36Z" fill="white"/>
<path d="M41.2812 42H39.9017V38H41.3423C41.7759 38 42.147 38.0801 42.4555 38.2402C42.764 38.3991 43.0005 38.6276 43.1649 38.9258C43.3293 39.2227 43.4115 39.5781 43.4115 39.9922C43.4115 40.4089 43.3286 40.7676 43.1627 41.0684C42.9968 41.3678 42.7553 41.5983 42.438 41.7598C42.1208 41.9199 41.7352 42 41.2812 42ZM40.443 41.5703H41.2463C41.6159 41.5703 41.9222 41.5065 42.1652 41.3789C42.4082 41.2513 42.5894 41.0697 42.7087 40.834C42.828 40.5983 42.8877 40.3177 42.8877 39.9922C42.8877 39.6693 42.8288 39.3913 42.7109 39.1582C42.593 38.9238 42.4169 38.7441 42.1827 38.6191C41.9484 38.4928 41.6566 38.4297 41.3074 38.4297H40.443V41.5703Z" fill="white"/>
<path d="M44.3196 42V38H47V38.4297H44.8609V39.7813H46.7992V40.2109H44.8609V42H44.3196Z" fill="white"/>
</svg>
