<svg width="41" height="41" viewBox="0 0 41 41" fill="none" xmlns="http://www.w3.org/2000/svg">
<path fill-rule="evenodd" clip-rule="evenodd" d="M17 5.34375V16.625C17 17.2549 16.7441 17.859 16.2887 18.3044C15.8332 18.7498 15.2155 19 14.5714 19H13.3571V17.8125H14.5714C14.8935 17.8125 15.2023 17.6874 15.4301 17.4647C15.6578 17.242 15.7857 16.9399 15.7857 16.625V5.34375H13.3571C12.8741 5.34375 12.4108 5.15608 12.0692 4.82203C11.7276 4.48799 11.5357 4.03492 11.5357 3.5625V1.1875H4.85714C4.53509 1.1875 4.22624 1.31261 3.99851 1.53531C3.77079 1.75801 3.64286 2.06006 3.64286 2.375V13.0625H2.42857V2.375C2.42857 1.74511 2.68444 1.14102 3.13988 0.695621C3.59533 0.250223 4.21305 0 4.85714 0L11.5357 0L17 5.34375ZM2.34114 14.858V18.8207H1.377V14.858H0V14.0719H3.72057V14.858H2.34114ZM4.92879 14.0719V18.8207H3.9695V14.0719H4.92879ZM6.596 18.8207V16.9326H8.54614V16.1726H6.596V14.8473H8.73071V14.0719H5.6355V18.8207H6.596ZM10.0786 16.9326V18.8207H9.11807V14.0719H12.2121V14.8473H10.0786V16.1737H12.0275V16.9314L10.0786 16.9326Z" fill="#3B5998"/>
<path d="M9.5 20C9.5 19.7239 9.27614 19.5 9 19.5C8.72386 19.5 8.5 19.7239 8.5 20L9.5 20ZM22.3536 31.3536C22.5488 31.1583 22.5488 30.8417 22.3536 30.6464L19.1716 27.4645C18.9763 27.2692 18.6597 27.2692 18.4645 27.4645C18.2692 27.6597 18.2692 27.9763 18.4645 28.1716L21.2929 31L18.4645 33.8284C18.2692 34.0237 18.2692 34.3403 18.4645 34.5355C18.6597 34.7308 18.9763 34.7308 19.1716 34.5355L22.3536 31.3536ZM8.5 20C8.5 22.7635 8.68556 24.881 9.13967 26.4948C9.59782 28.123 10.3377 29.2668 11.4557 30.0368C12.5568 30.7952 13.9683 31.1506 15.6873 31.3256C17.407 31.5006 19.502 31.5 22 31.5V30.5C19.4837 30.5 17.4465 30.4994 15.7886 30.3307C14.1299 30.1619 12.9181 29.8298 12.0229 29.2132C11.1444 28.6082 10.5147 27.6895 10.1023 26.2239C9.68587 24.744 9.5 22.7365 9.5 20L8.5 20Z" fill="#8B9DC3"/>
<path d="M35.5 27.5H34.5V22.5L39.5 27.5H35.5Z" fill="white"/>
<path fill-rule="evenodd" clip-rule="evenodd" d="M35 21H27C26.4696 21 25.9609 21.2107 25.5858 21.5858C25.2107 21.9609 25 22.4696 25 23V39C25 39.5304 25.2107 40.0391 25.5858 40.4142C25.9609 40.7893 26.4696 41 27 41H39C39.5304 41 40.0391 40.7893 40.4142 40.4142C40.7893 40.0391 41 39.5304 41 39V27L35 21ZM34.5 27.5H35.5H39.5L34.5 22.5V27.5Z" fill="#3B5998"/>
<path d="M28 35V31H29.5105C29.8612 31 30.1478 31.0566 30.3705 31.1699C30.5946 31.2819 30.7605 31.4336 30.8681 31.625C30.9758 31.8164 31.0297 32.0299 31.0297 32.2656C31.0297 32.5013 30.9758 32.7155 30.8681 32.9082C30.7619 33.1009 30.5975 33.2546 30.3748 33.3691C30.1522 33.4824 29.867 33.5391 29.5192 33.5391H28.4366V33.1094H29.5017C29.7418 33.1094 29.9346 33.0723 30.0802 32.998C30.2257 32.9238 30.3312 32.8236 30.3967 32.6973C30.4636 32.5697 30.4971 32.4258 30.4971 32.2656C30.4971 32.1055 30.4636 31.9622 30.3967 31.8359C30.3312 31.7096 30.225 31.6107 30.078 31.5391C29.931 31.4661 29.736 31.4297 29.493 31.4297H28.5413V35H28Z" fill="white"/>
<path d="M33.2812 35H31.9017V31H33.3423C33.7759 31 34.147 31.0801 34.4555 31.2402C34.764 31.3991 35.0005 31.6276 35.1649 31.9258C35.3293 32.2227 35.4115 32.5781 35.4115 32.9922C35.4115 33.4089 35.3286 33.7676 35.1627 34.0684C34.9968 34.3678 34.7553 34.5983 34.438 34.7598C34.1208 34.9199 33.7352 35 33.2812 35ZM32.443 34.5703H33.2463C33.6159 34.5703 33.9222 34.5065 34.1652 34.3789C34.4082 34.2513 34.5894 34.0697 34.7087 33.834C34.828 33.5983 34.8877 33.3177 34.8877 32.9922C34.8877 32.6693 34.8288 32.3913 34.7109 32.1582C34.593 31.9238 34.4169 31.7441 34.1827 31.6191C33.9484 31.4928 33.6566 31.4297 33.3074 31.4297H32.443V34.5703Z" fill="white"/>
<path d="M36.3196 35V31H39V31.4297H36.8609V32.7813H38.7992V33.2109H36.8609V35H36.3196Z" fill="white"/>
</svg>
