<svg width="27" height="33" viewBox="0 0 27 33" fill="none" xmlns="http://www.w3.org/2000/svg">
<path d="M18.5625 9.9H16.875V1.65L25.3125 9.9H18.5625Z" fill="white"/>
<path fill-rule="evenodd" clip-rule="evenodd" d="M16.875 0H3.375C2.47989 0 1.62145 0.347677 0.988514 0.966547C0.355579 1.58542 0 2.42479 0 3.3V29.7C0 30.5752 0.355579 31.4146 0.988514 32.0335C1.62145 32.6523 2.47989 33 3.375 33H23.625C24.5201 33 25.3785 32.6523 26.0115 32.0335C26.6444 31.4146 27 30.5752 27 29.7V9.9L16.875 0ZM16.875 9.9H18.5625H25.3125L16.875 1.65V9.9Z" fill="#8B9DC3"/>
<path d="M18.375 16.6667C18.806 16.6667 19.2193 16.8372 19.524 17.1409C19.8288 17.4445 20 17.8563 20 18.2857V26.381C20 26.8104 19.8288 27.2222 19.524 27.5258C19.2193 27.8294 18.806 28 18.375 28H8.625C8.19402 28 7.7807 27.8294 7.47595 27.5258C7.1712 27.2222 7 26.8104 7 26.381V18.2857C7 17.8563 7.1712 17.4445 7.47595 17.1409C7.7807 16.8372 8.19402 16.6667 8.625 16.6667H15.9375V15.0476C15.9375 14.4035 15.6807 13.7858 15.2236 13.3304C14.7665 12.8749 14.1465 12.619 13.5 12.619C12.8535 12.619 12.2335 12.8749 11.7764 13.3304C11.3193 13.7858 11.0625 14.4035 11.0625 15.0476H9.4375C9.4375 13.9741 9.86551 12.9446 10.6274 12.1855C11.3892 11.4264 12.4226 11 13.5 11C14.0335 11 14.5618 11.1047 15.0547 11.3081C15.5475 11.5115 15.9954 11.8097 16.3726 12.1855C16.7499 12.5614 17.0491 13.0076 17.2533 13.4987C17.4574 13.9897 17.5625 14.5161 17.5625 15.0476V16.6667H18.375ZM13.5 23.9524C13.931 23.9524 14.3443 23.7818 14.649 23.4782C14.9538 23.1745 15.125 22.7627 15.125 22.3333C15.125 21.9039 14.9538 21.4921 14.649 21.1885C14.3443 20.8849 13.931 20.7143 13.5 20.7143C13.069 20.7143 12.6557 20.8849 12.351 21.1885C12.0462 21.4921 11.875 21.9039 11.875 22.3333C11.875 22.7627 12.0462 23.1745 12.351 23.4782C12.6557 23.7818 13.069 23.9524 13.5 23.9524Z" fill="#3B5998"/>
</svg>
