<svg width="27" height="33" viewBox="0 0 27 33" fill="none" xmlns="http://www.w3.org/2000/svg">
<path d="M17.7188 10.725H16.0312V2.475L24.4688 10.725H17.7188Z" fill="white"/>
<path fill-rule="evenodd" clip-rule="evenodd" d="M16.875 0H3.375C2.47989 0 1.62145 0.347677 0.988514 0.966547C0.355579 1.58542 0 2.42479 0 3.3V29.7C0 30.5752 0.355579 31.4146 0.988514 32.0335C1.62145 32.6523 2.47989 33 3.375 33H23.625C24.5201 33 25.3785 32.6523 26.0115 32.0335C26.6444 31.4146 27 30.5752 27 29.7V9.9L16.875 0ZM16.0312 10.725H17.7188H24.4688L16.0312 2.475V10.725Z" fill="#DFE3EE"/>
<path d="M18.6667 19.8586H14.6667V17.754C14.6853 16.827 14.9525 15.9229 15.4393 15.1392C15.9292 14.3018 16.1062 13.3129 15.938 12.3534C15.7698 11.394 15.2676 10.5284 14.5233 9.91513C13.9861 9.4694 13.3442 9.17349 12.6606 9.05642C11.9771 8.93935 11.2754 9.00515 10.6244 9.24737C9.97337 9.48958 9.39542 9.89988 8.94725 10.438C8.49908 10.9761 8.19609 11.6236 8.068 12.3169C7.88363 13.2911 8.06134 14.3003 8.56667 15.1487C9.04513 15.9064 9.3103 16.7831 9.33333 17.6834V19.8586H5.33333C4.97971 19.8586 4.64057 20.0015 4.39052 20.256C4.14048 20.5105 4 20.8556 4 21.2155V23.9293C4.00053 24.289 4.14117 24.6338 4.39111 24.8882C4.64104 25.1425 4.97987 25.2856 5.33333 25.2862V26.6431C5.33386 27.0028 5.47451 27.3476 5.72444 27.602C5.97438 27.8563 6.31321 27.9995 6.66667 28H17.3333C17.6868 27.9995 18.0256 27.8563 18.2756 27.602C18.5255 27.3476 18.6661 27.0028 18.6667 26.6431V25.2862C19.0201 25.2856 19.359 25.1425 19.6089 24.8882C19.8588 24.6338 19.9995 24.289 20 23.9293V21.2155C20 20.8556 19.8595 20.5105 19.6095 20.256C19.3594 20.0015 19.0203 19.8586 18.6667 19.8586ZM9.38 12.5611C9.4514 12.1713 9.60586 11.8022 9.8325 11.4797C10.0591 11.1572 10.3525 10.8892 10.6919 10.6945C11.0312 10.4998 11.4084 10.3831 11.7969 10.3527C12.1853 10.3222 12.5756 10.3788 12.9402 10.5184C13.3049 10.6579 13.6351 10.8771 13.9075 11.1605C14.18 11.4439 14.3882 11.7846 14.5173 12.1587C14.6465 12.5327 14.6936 12.9311 14.6552 13.3256C14.6169 13.7202 14.494 14.1014 14.2953 14.4425C13.8004 15.2648 13.4871 16.1869 13.3773 17.1447H10.6267C10.5218 16.1878 10.2084 15.2667 9.70933 14.4486C9.37403 13.8825 9.2567 13.21 9.38 12.5611ZM13.3333 18.5016V19.8586H10.6667V18.5016H13.3333ZM17.3333 26.6431H6.66667V25.2862H17.3333V26.6431ZM5.33333 23.9293V21.2155H18.6667V23.9293H5.33333Z" fill="#3B5998"/>
</svg>
