<svg width="48" height="48" viewBox="0 0 48 48" fill="none" xmlns="http://www.w3.org/2000/svg">
<path d="M19.5488 1.86048H12.0884V0H10.6977L0 1.86512V18.1395L10.6349 20H12.0884V18.1465H19.0697C19.4651 18.1279 19.9046 18.1581 20.2442 17.9163C20.5162 17.5 20.4465 16.979 20.4697 16.5093V2.7628C20.5186 2.23257 20.0791 1.80698 19.5488 1.86048ZM7.75812 13.1605C7.36976 13.3628 6.78835 13.1512 6.3279 13.1837C6.01859 11.6442 5.65811 10.114 5.3814 8.56746C5.10929 10.0698 4.7558 11.5581 4.44418 13.0511C3.99768 13.0279 3.54886 13 3.10001 12.9698C2.71393 10.9232 2.26048 8.89068 1.89999 6.83953C2.29766 6.82094 2.69766 6.80466 3.09533 6.79071C3.33485 8.27211 3.60697 9.74652 3.8163 11.2302C4.14419 9.70929 4.47905 8.18838 4.80466 6.66747C5.24652 6.64188 5.68838 6.62328 6.13024 6.60001C6.43954 8.16979 6.7558 9.7372 7.09069 11.3C7.35349 9.68606 7.64415 8.07674 7.92558 6.46513C8.39068 6.44886 8.85581 6.42326 9.31858 6.39535C8.79303 8.64883 8.33253 10.9209 7.75812 13.1605ZM19.3629 17.042H12.0884V15.5814H18.1348V14.6512H12.0884V13.4884H18.1348V12.5581H12.0884V11.3953H18.1348V10.4651H12.0884V9.3023H18.1348V8.37212H12.0884V7.20929H18.1348V6.27907H12.0884V5.11628H18.1348V4.18606H12.0884V2.95805H19.3629V17.042Z" fill="#3B5998"/>
<path d="M14.5762 25.8783C14.5762 25.6022 14.3523 25.3783 14.0762 25.3783C13.8 25.3783 13.5762 25.6022 13.5762 25.8783L14.5762 25.8783ZM28.6723 38.5511C28.8676 38.3558 28.8676 38.0392 28.6723 37.844L25.4903 34.662C25.2951 34.4667 24.9785 34.4667 24.7832 34.662C24.588 34.8572 24.588 35.1738 24.7832 35.3691L27.6116 38.1975L24.7832 41.0259C24.588 41.2212 24.588 41.5378 24.7832 41.7331C24.9785 41.9283 25.2951 41.9283 25.4903 41.7331L28.6723 38.5511ZM13.5762 25.8783C13.5762 28.9713 13.7795 31.3349 14.2744 33.133C14.7731 34.9446 15.5766 36.2126 16.7894 37.0665C17.9867 37.9093 19.5248 38.3066 21.4064 38.5023C23.2882 38.6981 25.5813 38.6975 28.3188 38.6975V37.6975C25.5626 37.6975 23.3286 37.6969 21.5099 37.5077C19.691 37.3185 18.3551 36.9458 17.3651 36.2488C16.3907 35.5627 15.6937 34.5209 15.2386 32.8676C14.7798 31.201 14.5762 28.9449 14.5762 25.8783L13.5762 25.8783Z" fill="#8B9DC3"/>
<path d="M42.5 34.5H41.5V29.5L46.5 34.5H42.5Z" fill="white"/>
<path fill-rule="evenodd" clip-rule="evenodd" d="M42 28H34C33.4696 28 32.9609 28.2107 32.5858 28.5858C32.2107 28.9609 32 29.4696 32 30V46C32 46.5304 32.2107 47.0391 32.5858 47.4142C32.9609 47.7893 33.4696 48 34 48H46C46.5304 48 47.0391 47.7893 47.4142 47.4142C47.7893 47.0391 48 46.5304 48 46V34L42 28ZM41.5 34.5H42.5H46.5L41.5 29.5V34.5Z" fill="#3B5998"/>
<path d="M35 42V38H36.5105C36.8612 38 37.1478 38.0566 37.3705 38.1699C37.5946 38.2819 37.7605 38.4336 37.8681 38.625C37.9758 38.8164 38.0297 39.0299 38.0297 39.2656C38.0297 39.5013 37.9758 39.7155 37.8681 39.9082C37.7619 40.1009 37.5975 40.2546 37.3748 40.3691C37.1522 40.4824 36.867 40.5391 36.5192 40.5391H35.4366V40.1094H36.5017C36.7418 40.1094 36.9346 40.0723 37.0802 39.998C37.2257 39.9238 37.3312 39.8236 37.3967 39.6973C37.4636 39.5697 37.4971 39.4258 37.4971 39.2656C37.4971 39.1055 37.4636 38.9622 37.3967 38.8359C37.3312 38.7096 37.225 38.6107 37.078 38.5391C36.931 38.4661 36.736 38.4297 36.493 38.4297H35.5413V42H35Z" fill="white"/>
<path d="M40.2812 42H38.9017V38H40.3423C40.7759 38 41.147 38.0801 41.4555 38.2402C41.764 38.3991 42.0005 38.6276 42.1649 38.9258C42.3293 39.2227 42.4115 39.5781 42.4115 39.9922C42.4115 40.4089 42.3286 40.7676 42.1627 41.0684C41.9968 41.3678 41.7553 41.5983 41.438 41.7598C41.1208 41.9199 40.7352 42 40.2812 42ZM39.443 41.5703H40.2463C40.6159 41.5703 40.9222 41.5065 41.1652 41.3789C41.4082 41.2513 41.5894 41.0697 41.7087 40.834C41.828 40.5983 41.8877 40.3177 41.8877 39.9922C41.8877 39.6693 41.8288 39.3913 41.7109 39.1582C41.593 38.9238 41.4169 38.7441 41.1827 38.6191C40.9484 38.4928 40.6566 38.4297 40.3074 38.4297H39.443V41.5703Z" fill="white"/>
<path d="M43.3196 42V38H46V38.4297H43.8609V39.7813H45.7992V40.2109H43.8609V42H43.3196Z" fill="white"/>
</svg>
