<svg height="512pt" viewBox="0 0 512 512" width="512pt" xmlns="http://www.w3.org/2000/svg"><path d="m10 10h218v218h-218zm0 0" fill="#ffe6c0"/><path d="m176.5 53.203125h-115v40h37.5v91.59375h40v-91.59375h37.5zm0 0" fill="#ffc15a"/><path d="m284 284h218v218h-218zm0 0" fill="#ffe6c0"/><path d="m10 284h218v218h-218zm0 0" fill="#91def5"/><path d="m39.835938 502h188.164062v-113.183594l-37.488281-37.488281zm0 0" fill="#cbe558"/><path d="m82.933594 392.246094-72.933594 72.933594v36.820312h182.6875zm0 0" fill="#e2f1a1"/><path d="m284 10h218v218h-218zm0 0" fill="#91def5"/><path d="m313.835938 228h188.164062v-113.183594l-37.488281-37.488281zm0 0" fill="#cbe558"/><path d="m356.933594 118.246094-72.933594 72.933594v36.820312h182.6875zm0 0" fill="#e2f1a1"/><path d="m450.5 327.203125h-115v40h37.5v91.59375h40v-91.59375h37.5zm0 0" fill="#ffc15a"/><path d="m502 0h-218c-5.523438 0-10 4.476562-10 10v218c0 5.523438 4.476562 10 10 10h218c5.523438 0 10-4.476562 10-10v-218c0-5.523438-4.476562-10-10-10zm-10 20v71.164062l-20.910156-20.90625c-3.90625-3.90625-10.234375-3.90625-14.140625 0l-66.933594 66.929688-26.007813-26.011719c-3.90625-3.902343-10.238281-3.902343-14.144531 0l-55.863281 55.863281v-147.039062zm-198 175.324219 62.933594-62.933594 85.613281 85.609375h-148.546875zm176.820312 22.675781c-.027343-.03125-.054687-.0625-.082031-.09375l-66.578125-66.578125 59.859375-59.859375 27.257813 27.257812c.230468.230469.476562.449219.722656.652344v98.621094zm0 0"/><path d="m228 0h-218c-5.523438 0-10 4.476562-10 10v218c0 5.523438 4.476562 10 10 10h218c5.523438 0 10-4.476562 10-10v-218c0-5.523438-4.476562-10-10-10zm-10 218h-198v-198h198zm0 0"/><path d="m228 274h-70.246094c-5.523437 0-10 4.476562-10 10s4.476563 10 10 10h60.246094v71.164062l-20.910156-20.90625c-3.90625-3.90625-10.234375-3.90625-14.140625 0l-66.933594 66.929688-26.007813-26.011719c-3.90625-3.902343-10.238281-3.902343-14.144531 0l-55.863281 55.863281v-147.039062h57.753906c5.519532 0 10-4.476562 10-10s-4.480468-10-10-10h-67.753906c-5.523438 0-10 4.476562-10 10v218c0 5.523438 4.476562 10 10 10h218c5.523438 0 10-4.476562 10-10v-218c0-5.523438-4.476562-10-10-10zm-208 195.324219 62.933594-62.933594 85.613281 85.609375h-148.546875zm176.820312 22.675781c-.027343-.03125-.050781-.0625-.082031-.09375l-66.578125-66.578125 59.859375-59.859375 27.257813 27.257812c.230468.230469.476562.449219.722656.652344v98.621094zm0 0"/><path d="m335.5 377.203125h27.5v81.59375c0 5.523437 4.476562 10 10 10h40c5.523438 0 10-4.476563 10-10v-81.59375h27.5c5.523438 0 10-4.476563 10-10v-40c0-5.523437-4.476562-10-10-10h-115c-5.523438 0-10 4.476563-10 10v40c0 5.523437 4.476562 10 10 10zm10-40h95v20h-27.5c-5.523438 0-10 4.476563-10 10v81.59375h-20v-81.59375c0-5.523437-4.476562-10-10-10h-27.5zm0 0"/><path d="m502 274h-218c-5.523438 0-10 4.476562-10 10v218c0 5.523438 4.476562 10 10 10h218c5.523438 0 10-4.476562 10-10v-218c0-5.523438-4.476562-10-10-10zm-10 218h-198v-198h198zm0 0"/><path d="m61.5 103.203125h27.5v81.59375c0 5.523437 4.476562 10 10 10h40c5.523438 0 10-4.476563 10-10v-81.59375h27.5c5.523438 0 10-4.476563 10-10v-40c0-5.523437-4.476562-10-10-10h-115c-5.523438 0-10 4.476563-10 10v40c0 5.523437 4.476562 10 10 10zm10-40h95v20h-27.5c-5.523438 0-10 4.476563-10 10v81.59375h-20v-81.59375c0-5.523437-4.476562-10-10-10h-27.5zm0 0"/><path d="m124.820312 291.070312c1.867188-1.859374 2.929688-4.441406 2.929688-7.070312s-1.0625-5.210938-2.929688-7.070312c-1.859374-1.859376-4.429687-2.929688-7.070312-2.929688-2.628906 0-5.210938 1.070312-7.070312 2.929688-1.859376 1.859374-2.929688 4.429687-2.929688 7.070312 0 2.628906 1.070312 5.210938 2.929688 7.070312 1.859374 1.859376 4.441406 2.929688 7.070312 2.929688 2.640625 0 5.210938-1.070312 7.070312-2.929688zm0 0"/></svg>