<svg xmlns="http://www.w3.org/2000/svg" width="384" viewBox="0 0 384 384" height="384" version="1.0"><defs><clipPath id="a"><path d="M 118.171875 120 L 129 120 L 129 131 L 118.171875 131 Z M 118.171875 120"/></clipPath><clipPath id="b"><path d="M 118.171875 0 L 383.984375 0 L 383.984375 265.828125 L 118.171875 265.828125 Z M 118.171875 0"/></clipPath><clipPath id="c"><path d="M 174.28125 126 L 328.03125 126 L 328.03125 140 L 174.28125 140 Z M 174.28125 126"/></clipPath><clipPath id="d"><path d="M 174.28125 77 L 328.03125 77 L 328.03125 91 L 174.28125 91 Z M 174.28125 77"/></clipPath><clipPath id="e"><path d="M 174.28125 175 L 328.03125 175 L 328.03125 189 L 174.28125 189 Z M 174.28125 175"/></clipPath></defs><path fill="#ECEAEC" d="M 149.457031 260.636719 L 352.710938 260.636719 C 367.121094 260.636719 378.804688 248.953125 378.804688 234.539062 L 378.804688 31.289062 C 378.804688 16.875 367.121094 5.191406 352.710938 5.191406 L 149.457031 5.191406 C 135.046875 5.191406 123.363281 16.875 123.363281 31.289062 L 123.363281 234.539062 C 123.363281 248.953125 135.046875 260.636719 149.457031 260.636719 Z M 149.457031 260.636719"/><g clip-path="url(#a)"><path d="M 123.363281 120.515625 C 124.726562 120.515625 126.070312 121.070312 127.035156 122.035156 C 128 123.003906 128.554688 124.335938 128.554688 125.707031 C 128.554688 127.074219 128 128.410156 127.035156 129.378906 C 126.070312 130.34375 124.726562 130.898438 123.363281 130.898438 C 122 130.898438 120.65625 130.34375 119.691406 129.378906 C 118.726562 128.410156 118.171875 127.074219 118.171875 125.707031 C 118.171875 124.339844 118.726562 123.003906 119.691406 122.035156 C 120.65625 121.070312 122 120.515625 123.363281 120.515625 Z M 123.363281 120.515625"/></g><g clip-path="url(#b)"><path d="M 149.457031 0 L 352.710938 0 C 369.964844 0 384 14.035156 384 31.289062 L 384 234.539062 C 384 251.792969 369.964844 265.828125 352.710938 265.828125 L 149.457031 265.828125 C 132.207031 265.828125 118.171875 251.792969 118.171875 234.539062 L 118.171875 151.136719 C 118.171875 148.269531 120.496094 145.945312 123.363281 145.945312 C 126.230469 145.945312 128.554688 148.269531 128.554688 151.136719 L 128.554688 234.539062 C 128.554688 246.066406 137.933594 255.445312 149.457031 255.445312 L 352.710938 255.445312 C 364.238281 255.445312 373.613281 246.066406 373.613281 234.539062 L 373.613281 31.289062 C 373.613281 19.761719 364.238281 10.382812 352.710938 10.382812 L 149.457031 10.382812 C 137.933594 10.382812 128.554688 19.761719 128.554688 31.289062 L 128.554688 100.007812 C 128.554688 102.875 126.230469 105.199219 123.363281 105.199219 C 120.496094 105.199219 118.171875 102.875 118.171875 100.007812 L 118.171875 31.289062 C 118.171875 14.035156 132.207031 0 149.457031 0 Z M 149.457031 0"/></g><path d="M 251.085938 194.960938 C 234.609375 194.960938 218.136719 188.691406 205.597656 176.152344 C 203.570312 174.121094 203.570312 170.835938 205.597656 168.808594 C 207.625 166.78125 210.910156 166.78125 212.941406 168.808594 C 223.128906 178.996094 236.675781 184.609375 251.085938 184.609375 C 265.496094 184.609375 279.042969 178.996094 289.230469 168.808594 C 291.257812 166.78125 294.542969 166.78125 296.574219 168.808594 C 298.601562 170.835938 298.601562 174.121094 296.574219 176.152344 C 284.03125 188.691406 267.558594 194.960938 251.085938 194.960938 Z M 251.085938 194.960938"/><path d="M 284.910156 112.351562 C 284.910156 115.21875 282.585938 117.542969 279.71875 117.542969 C 276.851562 117.542969 274.527344 115.21875 274.527344 112.351562 C 274.527344 100.324219 284.308594 90.542969 296.332031 90.542969 C 308.355469 90.542969 318.140625 100.324219 318.140625 112.351562 C 318.140625 115.21875 315.8125 117.542969 312.949219 117.542969 C 310.082031 117.542969 307.757812 115.21875 307.757812 112.351562 C 307.757812 106.054688 302.632812 100.929688 296.332031 100.929688 C 290.035156 100.929688 284.910156 106.054688 284.910156 112.351562 Z M 284.910156 112.351562"/><path d="M 194.414062 112.351562 C 194.414062 115.21875 192.089844 117.542969 189.222656 117.542969 C 186.355469 117.542969 184.03125 115.21875 184.03125 112.351562 C 184.03125 100.324219 193.8125 90.542969 205.835938 90.542969 C 217.859375 90.542969 227.640625 100.324219 227.640625 112.351562 C 227.640625 115.21875 225.316406 117.542969 222.449219 117.542969 C 219.585938 117.542969 217.257812 115.21875 217.257812 112.351562 C 217.257812 106.054688 212.136719 100.929688 205.835938 100.929688 C 199.539062 100.929688 194.414062 106.054688 194.414062 112.351562 Z M 194.414062 112.351562"/><path fill="#ECEAEC" d="M 140.671875 22.511719 L 361.800781 22.511719 L 361.800781 243.644531 L 140.671875 243.644531 L 140.671875 22.511719"/><g clip-path="url(#c)"><path fill="#91DAFA" d="M 321.625 139.269531 L 180.6875 139.269531 C 177.148438 139.269531 174.28125 136.398438 174.28125 132.863281 C 174.28125 129.328125 177.148438 126.457031 180.6875 126.457031 L 321.625 126.457031 C 325.160156 126.457031 328.03125 129.328125 328.03125 132.863281 C 328.03125 136.398438 325.160156 139.269531 321.625 139.269531 Z M 321.625 139.269531"/></g><g clip-path="url(#d)"><path fill="#91DAFA" d="M 321.625 90.152344 L 180.6875 90.152344 C 177.148438 90.152344 174.28125 87.285156 174.28125 83.746094 C 174.28125 80.210938 177.148438 77.339844 180.6875 77.339844 L 321.625 77.339844 C 325.160156 77.339844 328.03125 80.210938 328.03125 83.746094 C 328.03125 87.285156 325.160156 90.152344 321.625 90.152344 Z M 321.625 90.152344"/></g><g clip-path="url(#e)"><path fill="#91DAFA" d="M 321.625 188.382812 L 180.6875 188.382812 C 177.148438 188.382812 174.28125 185.511719 174.28125 181.976562 C 174.28125 178.441406 177.148438 175.570312 180.6875 175.570312 L 321.625 175.570312 C 325.160156 175.570312 328.03125 178.441406 328.03125 181.976562 C 328.03125 185.511719 325.160156 188.382812 321.625 188.382812 Z M 321.625 188.382812"/></g><path fill="#91DAFA" d="M 260.648438 151.816406 L 260.648438 350.5625 C 260.648438 351.484375 260.601562 352.410156 260.511719 353.328125 C 260.421875 354.25 260.285156 355.164062 260.105469 356.070312 C 259.921875 356.980469 259.699219 357.875 259.429688 358.761719 C 259.160156 359.644531 258.851562 360.515625 258.496094 361.371094 C 258.140625 362.226562 257.746094 363.058594 257.3125 363.875 C 256.875 364.691406 256.398438 365.484375 255.886719 366.253906 C 255.371094 367.023438 254.820312 367.765625 254.234375 368.480469 C 253.648438 369.195312 253.027344 369.878906 252.371094 370.535156 C 251.71875 371.1875 251.035156 371.808594 250.320312 372.394531 C 249.605469 372.980469 248.863281 373.53125 248.09375 374.046875 C 247.324219 374.558594 246.53125 375.035156 245.714844 375.472656 C 244.898438 375.90625 244.0625 376.300781 243.210938 376.65625 C 242.355469 377.011719 241.484375 377.320312 240.601562 377.589844 C 239.714844 377.859375 238.820312 378.082031 237.910156 378.265625 C 237.003906 378.445312 236.089844 378.578125 235.171875 378.671875 C 234.25 378.761719 233.328125 378.804688 232.402344 378.804688 L 203.050781 378.804688 L 140.746094 305.300781 L 85.132812 239.703125 C 84.792969 239.300781 84.429688 238.917969 84.050781 238.558594 C 83.667969 238.195312 83.269531 237.851562 82.851562 237.535156 C 82.433594 237.214844 81.996094 236.917969 81.546875 236.648438 C 81.097656 236.375 80.632812 236.128906 80.15625 235.90625 C 79.679688 235.683594 79.191406 235.488281 78.691406 235.320312 C 78.191406 235.152344 77.6875 235.011719 77.171875 234.898438 C 76.660156 234.785156 76.140625 234.699219 75.617188 234.640625 C 75.09375 234.585938 74.570312 234.554688 74.042969 234.554688 C 73.515625 234.554688 72.992188 234.585938 72.46875 234.640625 C 71.945312 234.699219 71.425781 234.785156 70.914062 234.898438 C 70.398438 235.011719 69.894531 235.152344 69.394531 235.320312 C 68.894531 235.488281 68.40625 235.683594 67.929688 235.90625 C 67.453125 236.128906 66.988281 236.375 66.539062 236.648438 C 66.089844 236.917969 65.652344 237.214844 65.234375 237.535156 C 64.816406 237.851562 64.417969 238.195312 64.035156 238.558594 C 63.65625 238.917969 63.292969 239.300781 62.953125 239.703125 L 5.414062 307.597656 L 5.414062 151.816406 C 5.414062 150.894531 5.460938 149.96875 5.550781 149.050781 C 5.640625 148.128906 5.777344 147.214844 5.957031 146.308594 C 6.136719 145.398438 6.363281 144.503906 6.632812 143.617188 C 6.898438 142.734375 7.210938 141.863281 7.566406 141.007812 C 7.917969 140.152344 8.3125 139.320312 8.75 138.503906 C 9.1875 137.6875 9.660156 136.894531 10.175781 136.125 C 10.691406 135.355469 11.238281 134.613281 11.828125 133.898438 C 12.414062 133.183594 13.035156 132.5 13.6875 131.84375 C 14.34375 131.191406 15.027344 130.570312 15.742188 129.984375 C 16.457031 129.398438 17.199219 128.847656 17.96875 128.332031 C 18.738281 127.820312 19.53125 127.34375 20.347656 126.90625 C 21.160156 126.472656 21.996094 126.078125 22.851562 125.722656 C 23.707031 125.367188 24.574219 125.058594 25.460938 124.789062 C 26.347656 124.519531 27.242188 124.296875 28.148438 124.113281 C 29.058594 123.933594 29.96875 123.800781 30.890625 123.707031 C 31.8125 123.617188 32.734375 123.574219 33.660156 123.574219 L 232.402344 123.574219 C 233.328125 123.574219 234.25 123.617188 235.171875 123.707031 C 236.089844 123.800781 237.003906 123.933594 237.914062 124.117188 C 238.820312 124.296875 239.714844 124.519531 240.601562 124.789062 C 241.488281 125.058594 242.355469 125.371094 243.210938 125.722656 C 244.066406 126.078125 244.902344 126.472656 245.71875 126.910156 C 246.535156 127.34375 247.324219 127.820312 248.09375 128.335938 C 248.863281 128.847656 249.605469 129.398438 250.320312 129.984375 C 251.035156 130.574219 251.722656 131.191406 252.375 131.847656 C 253.027344 132.5 253.648438 133.1875 254.238281 133.902344 C 254.824219 134.617188 255.375 135.359375 255.886719 136.128906 C 256.402344 136.898438 256.875 137.6875 257.3125 138.503906 C 257.75 139.320312 258.144531 140.15625 258.496094 141.011719 C 258.851562 141.863281 259.164062 142.734375 259.429688 143.621094 C 259.699219 144.503906 259.925781 145.402344 260.105469 146.308594 C 260.285156 147.214844 260.421875 148.128906 260.511719 149.050781 C 260.601562 149.96875 260.648438 150.894531 260.648438 151.816406 Z M 260.648438 151.816406"/><path fill="#E76833" d="M 260.648438 325.234375 L 260.648438 350.5625 C 260.648438 351.484375 260.601562 352.410156 260.511719 353.328125 C 260.421875 354.25 260.285156 355.164062 260.105469 356.070312 C 259.921875 356.980469 259.699219 357.875 259.429688 358.761719 C 259.160156 359.644531 258.851562 360.515625 258.496094 361.371094 C 258.140625 362.226562 257.746094 363.058594 257.3125 363.875 C 256.875 364.691406 256.398438 365.484375 255.886719 366.253906 C 255.371094 367.023438 254.820312 367.765625 254.234375 368.480469 C 253.648438 369.195312 253.027344 369.878906 252.371094 370.535156 C 251.71875 371.1875 251.035156 371.808594 250.320312 372.394531 C 249.605469 372.980469 248.863281 373.53125 248.09375 374.046875 C 247.324219 374.558594 246.53125 375.035156 245.714844 375.472656 C 244.898438 375.90625 244.0625 376.300781 243.210938 376.65625 C 242.355469 377.011719 241.484375 377.320312 240.601562 377.589844 C 239.714844 377.859375 238.820312 378.082031 237.910156 378.265625 C 237.003906 378.445312 236.089844 378.578125 235.171875 378.671875 C 234.25 378.761719 233.328125 378.804688 232.402344 378.804688 L 203.050781 378.804688 L 140.746094 305.300781 L 181.15625 257.628906 C 181.496094 257.226562 181.855469 256.84375 182.238281 256.480469 C 182.621094 256.117188 183.019531 255.777344 183.4375 255.457031 C 183.855469 255.136719 184.289062 254.839844 184.742188 254.570312 C 185.191406 254.296875 185.65625 254.050781 186.132812 253.828125 C 186.609375 253.609375 187.097656 253.414062 187.597656 253.242188 C 188.09375 253.074219 188.601562 252.933594 189.113281 252.820312 C 189.628906 252.707031 190.148438 252.621094 190.671875 252.566406 C 191.195312 252.507812 191.71875 252.480469 192.246094 252.480469 C 192.769531 252.480469 193.296875 252.507812 193.820312 252.566406 C 194.34375 252.621094 194.859375 252.707031 195.375 252.820312 C 195.890625 252.933594 196.394531 253.074219 196.894531 253.242188 C 197.390625 253.414062 197.878906 253.609375 198.359375 253.828125 C 198.835938 254.050781 199.300781 254.296875 199.75 254.570312 C 200.199219 254.839844 200.632812 255.136719 201.050781 255.457031 C 201.472656 255.777344 201.871094 256.117188 202.253906 256.480469 C 202.632812 256.84375 202.992188 257.226562 203.332031 257.628906 Z M 260.648438 325.234375"/><path fill="#FFD549" d="M 203.050781 378.804688 L 33.660156 378.804688 C 32.734375 378.804688 31.8125 378.761719 30.890625 378.671875 C 29.96875 378.578125 29.054688 378.445312 28.148438 378.261719 C 27.242188 378.082031 26.34375 377.859375 25.460938 377.589844 C 24.574219 377.320312 23.703125 377.007812 22.851562 376.65625 C 21.996094 376.300781 21.160156 375.90625 20.34375 375.46875 C 19.527344 375.035156 18.734375 374.558594 17.964844 374.042969 C 17.195312 373.53125 16.457031 372.980469 15.738281 372.394531 C 15.023438 371.804688 14.339844 371.1875 13.6875 370.53125 C 13.03125 369.878906 12.410156 369.191406 11.824219 368.476562 C 11.238281 367.761719 10.6875 367.019531 10.171875 366.25 C 9.660156 365.480469 9.183594 364.691406 8.75 363.875 C 8.3125 363.058594 7.917969 362.222656 7.5625 361.367188 C 7.210938 360.515625 6.898438 359.644531 6.628906 358.757812 C 6.359375 357.875 6.136719 356.976562 5.957031 356.070312 C 5.777344 355.164062 5.640625 354.25 5.550781 353.328125 C 5.457031 352.410156 5.414062 351.484375 5.414062 350.5625 L 5.414062 307.597656 L 62.953125 239.703125 C 63.292969 239.300781 63.65625 238.917969 64.035156 238.558594 C 64.417969 238.195312 64.816406 237.851562 65.234375 237.535156 C 65.652344 237.214844 66.089844 236.917969 66.539062 236.648438 C 66.988281 236.375 67.453125 236.128906 67.929688 235.90625 C 68.40625 235.683594 68.894531 235.488281 69.394531 235.320312 C 69.894531 235.152344 70.398438 235.011719 70.914062 234.898438 C 71.425781 234.785156 71.945312 234.699219 72.46875 234.640625 C 72.992188 234.585938 73.515625 234.554688 74.042969 234.554688 C 74.570312 234.554688 75.09375 234.585938 75.617188 234.640625 C 76.140625 234.699219 76.660156 234.785156 77.171875 234.898438 C 77.6875 235.011719 78.191406 235.152344 78.691406 235.320312 C 79.191406 235.488281 79.679688 235.683594 80.15625 235.90625 C 80.632812 236.128906 81.097656 236.375 81.546875 236.648438 C 81.996094 236.917969 82.433594 237.214844 82.851562 237.535156 C 83.269531 237.851562 83.667969 238.195312 84.050781 238.558594 C 84.429688 238.917969 84.792969 239.300781 85.132812 239.703125 L 140.746094 305.300781 Z M 203.050781 378.804688"/><path fill="#FFD549" d="M 167.367188 188.796875 C 167.367188 189.496094 167.335938 190.191406 167.265625 190.886719 C 167.199219 191.578125 167.09375 192.265625 166.960938 192.949219 C 166.824219 193.632812 166.652344 194.308594 166.453125 194.976562 C 166.25 195.644531 166.015625 196.300781 165.746094 196.945312 C 165.480469 197.585938 165.183594 198.21875 164.855469 198.832031 C 164.527344 199.445312 164.167969 200.042969 163.78125 200.625 C 163.394531 201.203125 162.980469 201.761719 162.535156 202.300781 C 162.09375 202.839844 161.628906 203.355469 161.132812 203.847656 C 160.640625 204.339844 160.125 204.808594 159.585938 205.25 C 159.046875 205.695312 158.488281 206.109375 157.910156 206.496094 C 157.328125 206.882812 156.730469 207.242188 156.117188 207.570312 C 155.503906 207.898438 154.875 208.195312 154.230469 208.460938 C 153.585938 208.730469 152.929688 208.964844 152.261719 209.167969 C 151.597656 209.367188 150.921875 209.539062 150.238281 209.671875 C 149.554688 209.808594 148.863281 209.910156 148.171875 209.980469 C 147.476562 210.046875 146.78125 210.082031 146.085938 210.082031 C 145.386719 210.082031 144.691406 210.046875 144 209.980469 C 143.304688 209.910156 142.617188 209.808594 141.933594 209.671875 C 141.25 209.539062 140.574219 209.367188 139.90625 209.167969 C 139.238281 208.964844 138.582031 208.730469 137.941406 208.460938 C 137.296875 208.195312 136.667969 207.898438 136.050781 207.570312 C 135.4375 207.242188 134.839844 206.882812 134.261719 206.496094 C 133.679688 206.109375 133.121094 205.695312 132.582031 205.25 C 132.042969 204.808594 131.527344 204.339844 131.035156 203.847656 C 130.542969 203.355469 130.074219 202.839844 129.632812 202.300781 C 129.191406 201.761719 128.773438 201.203125 128.386719 200.625 C 128 200.042969 127.640625 199.445312 127.3125 198.832031 C 126.984375 198.21875 126.6875 197.585938 126.421875 196.945312 C 126.152344 196.300781 125.917969 195.644531 125.71875 194.976562 C 125.515625 194.308594 125.347656 193.632812 125.210938 192.949219 C 125.074219 192.265625 124.972656 191.578125 124.902344 190.886719 C 124.835938 190.191406 124.800781 189.496094 124.800781 188.796875 C 124.800781 188.101562 124.835938 187.40625 124.902344 186.710938 C 124.972656 186.019531 125.074219 185.332031 125.210938 184.648438 C 125.347656 183.964844 125.515625 183.289062 125.71875 182.621094 C 125.917969 181.953125 126.152344 181.296875 126.421875 180.652344 C 126.6875 180.011719 126.984375 179.378906 127.3125 178.765625 C 127.640625 178.152344 128 177.554688 128.386719 176.972656 C 128.773438 176.394531 129.191406 175.835938 129.632812 175.296875 C 130.074219 174.757812 130.542969 174.242188 131.035156 173.75 C 131.527344 173.257812 132.042969 172.789062 132.582031 172.347656 C 133.121094 171.902344 133.679688 171.488281 134.261719 171.101562 C 134.839844 170.714844 135.4375 170.355469 136.050781 170.027344 C 136.667969 169.699219 137.296875 169.402344 137.941406 169.136719 C 138.582031 168.867188 139.238281 168.632812 139.90625 168.429688 C 140.574219 168.230469 141.25 168.058594 141.933594 167.925781 C 142.617188 167.789062 143.304688 167.6875 144 167.617188 C 144.691406 167.550781 145.386719 167.515625 146.085938 167.515625 C 146.78125 167.515625 147.476562 167.550781 148.171875 167.617188 C 148.863281 167.6875 149.554688 167.789062 150.238281 167.925781 C 150.921875 168.058594 151.597656 168.230469 152.261719 168.429688 C 152.929688 168.632812 153.585938 168.867188 154.230469 169.136719 C 154.875 169.402344 155.503906 169.699219 156.117188 170.027344 C 156.730469 170.355469 157.328125 170.714844 157.910156 171.101562 C 158.488281 171.488281 159.046875 171.902344 159.585938 172.347656 C 160.125 172.789062 160.640625 173.257812 161.132812 173.75 C 161.628906 174.242188 162.09375 174.757812 162.535156 175.296875 C 162.980469 175.835938 163.394531 176.394531 163.78125 176.972656 C 164.167969 177.554688 164.527344 178.152344 164.855469 178.765625 C 165.183594 179.378906 165.480469 180.011719 165.746094 180.652344 C 166.015625 181.296875 166.25 181.953125 166.453125 182.621094 C 166.652344 183.289062 166.824219 183.964844 166.960938 184.648438 C 167.09375 185.332031 167.199219 186.019531 167.265625 186.710938 C 167.335938 187.40625 167.367188 188.101562 167.367188 188.796875 Z M 167.367188 188.796875"/><path d="M 232.402344 118.609375 L 33.660156 118.609375 C 32.570312 118.609375 31.488281 118.664062 30.40625 118.773438 C 29.324219 118.878906 28.25 119.039062 27.183594 119.253906 C 26.117188 119.464844 25.0625 119.730469 24.023438 120.046875 C 22.984375 120.363281 21.960938 120.730469 20.957031 121.148438 C 19.953125 121.5625 18.972656 122.027344 18.011719 122.542969 C 17.054688 123.054688 16.121094 123.613281 15.21875 124.21875 C 14.3125 124.820312 13.441406 125.46875 12.601562 126.160156 C 11.761719 126.847656 10.957031 127.578125 10.1875 128.347656 C 9.417969 129.117188 8.691406 129.921875 8 130.761719 C 7.308594 131.601562 6.664062 132.472656 6.058594 133.378906 C 5.453125 134.28125 4.894531 135.210938 4.382812 136.171875 C 3.871094 137.128906 3.40625 138.109375 2.988281 139.117188 C 2.570312 140.121094 2.207031 141.140625 1.890625 142.183594 C 1.574219 143.222656 1.308594 144.277344 1.09375 145.34375 C 0.882812 146.410156 0.722656 147.480469 0.613281 148.5625 C 0.507812 149.644531 0.453125 150.730469 0.449219 151.816406 L 0.449219 192.816406 C 0.449219 193.144531 0.480469 193.464844 0.546875 193.785156 C 0.609375 194.105469 0.703125 194.414062 0.828125 194.714844 C 0.953125 195.019531 1.105469 195.304688 1.285156 195.574219 C 1.46875 195.84375 1.671875 196.097656 1.902344 196.328125 C 2.132812 196.558594 2.386719 196.761719 2.65625 196.945312 C 2.925781 197.125 3.214844 197.277344 3.515625 197.402344 C 3.816406 197.527344 4.125 197.621094 4.445312 197.683594 C 4.765625 197.75 5.085938 197.78125 5.414062 197.78125 C 5.738281 197.78125 6.0625 197.75 6.382812 197.683594 C 6.703125 197.621094 7.011719 197.527344 7.3125 197.402344 C 7.613281 197.277344 7.898438 197.125 8.171875 196.945312 C 8.441406 196.761719 8.691406 196.558594 8.921875 196.328125 C 9.152344 196.097656 9.359375 195.84375 9.539062 195.574219 C 9.722656 195.304688 9.875 195.019531 10 194.714844 C 10.125 194.414062 10.21875 194.105469 10.28125 193.785156 C 10.34375 193.464844 10.375 193.144531 10.375 192.816406 L 10.375 151.816406 C 10.378906 151.054688 10.414062 150.296875 10.492188 149.535156 C 10.566406 148.777344 10.679688 148.023438 10.828125 147.277344 C 10.976562 146.53125 11.164062 145.792969 11.382812 145.0625 C 11.605469 144.332031 11.863281 143.617188 12.15625 142.914062 C 12.449219 142.207031 12.773438 141.519531 13.132812 140.847656 C 13.492188 140.175781 13.882812 139.523438 14.308594 138.890625 C 14.730469 138.253906 15.183594 137.644531 15.667969 137.054688 C 16.152344 136.464844 16.664062 135.902344 17.203125 135.363281 C 17.742188 134.824219 18.304688 134.3125 18.894531 133.828125 C 19.484375 133.34375 20.097656 132.890625 20.730469 132.46875 C 21.363281 132.042969 22.015625 131.652344 22.6875 131.292969 C 23.359375 130.933594 24.050781 130.605469 24.753906 130.3125 C 25.457031 130.023438 26.175781 129.765625 26.902344 129.542969 C 27.632812 129.320312 28.371094 129.136719 29.117188 128.988281 C 29.867188 128.835938 30.621094 128.726562 31.378906 128.648438 C 32.136719 128.574219 32.898438 128.535156 33.660156 128.535156 L 232.402344 128.535156 C 233.164062 128.535156 233.925781 128.574219 234.683594 128.648438 C 235.441406 128.726562 236.195312 128.835938 236.941406 128.988281 C 237.691406 129.136719 238.429688 129.320312 239.15625 129.542969 C 239.886719 129.765625 240.605469 130.023438 241.308594 130.3125 C 242.011719 130.605469 242.699219 130.933594 243.371094 131.292969 C 244.042969 131.652344 244.699219 132.042969 245.332031 132.46875 C 245.964844 132.890625 246.578125 133.34375 247.164062 133.828125 C 247.753906 134.3125 248.320312 134.824219 248.859375 135.363281 C 249.398438 135.902344 249.910156 136.464844 250.390625 137.054688 C 250.875 137.644531 251.328125 138.253906 251.753906 138.890625 C 252.175781 139.523438 252.570312 140.175781 252.929688 140.847656 C 253.289062 141.519531 253.613281 142.207031 253.90625 142.914062 C 254.199219 143.617188 254.453125 144.332031 254.675781 145.0625 C 254.898438 145.792969 255.085938 146.53125 255.234375 147.277344 C 255.382812 148.023438 255.496094 148.777344 255.570312 149.535156 C 255.644531 150.296875 255.683594 151.054688 255.683594 151.816406 L 255.683594 311.707031 L 207.128906 254.417969 C 206.21875 253.335938 205.199219 252.367188 204.078125 251.507812 C 202.953125 250.648438 201.75 249.917969 200.46875 249.320312 C 199.183594 248.726562 197.855469 248.273438 196.472656 247.96875 C 195.089844 247.660156 193.695312 247.507812 192.277344 247.507812 L 192.257812 247.507812 C 190.839844 247.507812 189.4375 247.660156 188.054688 247.964844 C 186.671875 248.269531 185.335938 248.71875 184.050781 249.3125 C 182.765625 249.910156 181.558594 250.636719 180.433594 251.496094 C 179.304688 252.355469 178.285156 253.328125 177.371094 254.410156 L 140.738281 297.628906 L 88.925781 236.503906 C 88.015625 235.421875 86.996094 234.453125 85.875 233.589844 C 84.75 232.730469 83.546875 232.003906 82.265625 231.40625 C 80.984375 230.808594 79.652344 230.359375 78.269531 230.050781 C 76.890625 229.746094 75.492188 229.59375 74.078125 229.59375 L 74.042969 229.59375 C 72.625 229.59375 71.226562 229.746094 69.839844 230.050781 C 68.457031 230.355469 67.125 230.804688 65.835938 231.402344 C 64.550781 231.996094 63.347656 232.722656 62.21875 233.582031 C 61.09375 234.441406 60.070312 235.414062 59.15625 236.496094 L 10.378906 294.066406 L 10.378906 252.605469 C 10.378906 252.28125 10.347656 251.957031 10.285156 251.640625 C 10.21875 251.320312 10.125 251.007812 10 250.707031 C 9.875 250.40625 9.722656 250.121094 9.542969 249.851562 C 9.363281 249.578125 9.15625 249.328125 8.925781 249.097656 C 8.695312 248.867188 8.445312 248.660156 8.171875 248.480469 C 7.902344 248.300781 7.617188 248.148438 7.316406 248.023438 C 7.015625 247.898438 6.703125 247.804688 6.382812 247.738281 C 6.066406 247.675781 5.742188 247.644531 5.417969 247.644531 C 5.089844 247.644531 4.769531 247.675781 4.449219 247.738281 C 4.128906 247.804688 3.816406 247.898438 3.515625 248.023438 C 3.214844 248.148438 2.929688 248.300781 2.660156 248.480469 C 2.386719 248.660156 2.136719 248.867188 1.90625 249.097656 C 1.675781 249.328125 1.472656 249.578125 1.289062 249.851562 C 1.109375 250.121094 0.957031 250.40625 0.832031 250.707031 C 0.707031 251.007812 0.613281 251.320312 0.546875 251.640625 C 0.484375 251.957031 0.453125 252.28125 0.453125 252.605469 L 0.453125 350.5625 C 0.453125 351.648438 0.507812 352.734375 0.617188 353.816406 C 0.722656 354.898438 0.882812 355.96875 1.097656 357.035156 C 1.3125 358.101562 1.574219 359.15625 1.890625 360.195312 C 2.207031 361.238281 2.574219 362.257812 2.992188 363.261719 C 3.40625 364.269531 3.871094 365.25 4.386719 366.207031 C 4.898438 367.167969 5.457031 368.097656 6.0625 369 C 6.664062 369.90625 7.3125 370.777344 8.003906 371.617188 C 8.691406 372.457031 9.421875 373.261719 10.191406 374.03125 C 10.960938 374.800781 11.765625 375.53125 12.605469 376.21875 C 13.445312 376.910156 14.316406 377.558594 15.222656 378.160156 C 16.125 378.765625 17.054688 379.324219 18.015625 379.835938 C 18.972656 380.351562 19.957031 380.816406 20.960938 381.230469 C 21.964844 381.648438 22.984375 382.015625 24.027344 382.332031 C 25.066406 382.648438 26.121094 382.914062 27.1875 383.125 C 28.253906 383.339844 29.328125 383.5 30.410156 383.605469 C 31.492188 383.714844 32.574219 383.769531 33.664062 383.769531 L 232.402344 383.769531 C 233.488281 383.769531 234.574219 383.714844 235.65625 383.605469 C 236.738281 383.5 237.8125 383.339844 238.878906 383.125 C 239.945312 382.914062 240.996094 382.648438 242.039062 382.332031 C 243.078125 382.015625 244.101562 381.648438 245.105469 381.230469 C 246.109375 380.816406 247.089844 380.351562 248.050781 379.835938 C 249.007812 379.324219 249.9375 378.765625 250.84375 378.160156 C 251.746094 377.558594 252.617188 376.910156 253.460938 376.21875 C 254.300781 375.53125 255.105469 374.800781 255.875 374.03125 C 256.640625 373.261719 257.371094 372.457031 258.0625 371.617188 C 258.75 370.777344 259.398438 369.90625 260.003906 369 C 260.605469 368.097656 261.164062 367.167969 261.679688 366.207031 C 262.191406 365.25 262.65625 364.269531 263.074219 363.261719 C 263.488281 362.257812 263.855469 361.238281 264.171875 360.195312 C 264.488281 359.15625 264.753906 358.101562 264.964844 357.035156 C 265.179688 355.96875 265.339844 354.898438 265.449219 353.816406 C 265.554688 352.734375 265.609375 351.648438 265.609375 350.5625 L 265.609375 151.816406 C 265.609375 150.730469 265.554688 149.644531 265.449219 148.5625 C 265.339844 147.480469 265.179688 146.410156 264.964844 145.34375 C 264.753906 144.277344 264.488281 143.222656 264.171875 142.183594 C 263.855469 141.140625 263.488281 140.121094 263.074219 139.117188 C 262.65625 138.109375 262.191406 137.128906 261.679688 136.171875 C 261.164062 135.210938 260.605469 134.28125 260.003906 133.378906 C 259.398438 132.472656 258.75 131.601562 258.0625 130.761719 C 257.371094 129.921875 256.640625 129.117188 255.875 128.347656 C 255.105469 127.578125 254.300781 126.847656 253.460938 126.160156 C 252.617188 125.46875 251.746094 124.820312 250.84375 124.21875 C 249.9375 123.613281 249.007812 123.054688 248.050781 122.542969 C 247.089844 122.027344 246.109375 121.5625 245.105469 121.148438 C 244.101562 120.730469 243.078125 120.363281 242.039062 120.046875 C 240.996094 119.730469 239.945312 119.464844 238.878906 119.253906 C 237.8125 119.039062 236.738281 118.878906 235.65625 118.773438 C 234.574219 118.664062 233.488281 118.609375 232.402344 118.609375 Z M 10.375 350.5625 L 10.375 309.417969 L 66.742188 242.910156 C 67.648438 241.832031 68.742188 240.996094 70.023438 240.402344 C 71.300781 239.808594 72.644531 239.507812 74.054688 239.507812 C 75.460938 239.507812 76.796875 239.808594 78.070312 240.402344 C 79.34375 240.996094 80.433594 241.835938 81.335938 242.910156 L 192.335938 373.84375 L 33.660156 373.84375 C 32.898438 373.84375 32.136719 373.804688 31.378906 373.730469 C 30.621094 373.652344 29.867188 373.542969 29.117188 373.390625 C 28.371094 373.242188 27.632812 373.058594 26.902344 372.835938 C 26.175781 372.613281 25.457031 372.355469 24.753906 372.066406 C 24.050781 371.773438 23.359375 371.445312 22.6875 371.085938 C 22.015625 370.726562 21.363281 370.335938 20.730469 369.910156 C 20.097656 369.488281 19.484375 369.035156 18.894531 368.550781 C 18.304688 368.066406 17.742188 367.554688 17.203125 367.015625 C 16.664062 366.476562 16.152344 365.914062 15.667969 365.324219 C 15.183594 364.734375 14.730469 364.125 14.308594 363.488281 C 13.882812 362.855469 13.492188 362.203125 13.132812 361.53125 C 12.773438 360.859375 12.449219 360.171875 12.15625 359.464844 C 11.863281 358.761719 11.605469 358.046875 11.382812 357.316406 C 11.164062 356.585938 10.976562 355.847656 10.828125 355.101562 C 10.679688 354.355469 10.566406 353.601562 10.492188 352.84375 C 10.414062 352.082031 10.378906 351.324219 10.375 350.5625 Z M 232.402344 373.84375 L 205.347656 373.84375 L 147.246094 305.304688 L 184.941406 260.832031 C 185.851562 259.753906 186.945312 258.917969 188.222656 258.320312 C 189.5 257.726562 190.847656 257.429688 192.257812 257.429688 C 193.660156 257.429688 195 257.730469 196.273438 258.324219 C 197.546875 258.917969 198.632812 259.753906 199.535156 260.832031 L 255.6875 327.050781 L 255.6875 350.5625 C 255.6875 351.324219 255.648438 352.082031 255.574219 352.84375 C 255.496094 353.601562 255.386719 354.355469 255.234375 355.101562 C 255.085938 355.847656 254.902344 356.585938 254.679688 357.316406 C 254.457031 358.046875 254.199219 358.761719 253.910156 359.46875 C 253.617188 360.171875 253.289062 360.859375 252.929688 361.53125 C 252.570312 362.203125 252.179688 362.855469 251.753906 363.492188 C 251.332031 364.125 250.878906 364.734375 250.394531 365.324219 C 249.910156 365.914062 249.398438 366.480469 248.859375 367.019531 C 248.320312 367.558594 247.757812 368.066406 247.167969 368.550781 C 246.578125 369.035156 245.964844 369.488281 245.332031 369.914062 C 244.699219 370.335938 244.046875 370.726562 243.375 371.089844 C 242.703125 371.449219 242.011719 371.773438 241.308594 372.066406 C 240.605469 372.359375 239.886719 372.613281 239.160156 372.835938 C 238.429688 373.058594 237.691406 373.242188 236.941406 373.394531 C 236.195312 373.542969 235.441406 373.652344 234.683594 373.730469 C 233.925781 373.804688 233.164062 373.84375 232.402344 373.84375 Z M 232.402344 373.84375"/><path d="M 5.414062 227.792969 C 5.738281 227.792969 6.0625 227.761719 6.382812 227.695312 C 6.699219 227.632812 7.011719 227.539062 7.3125 227.414062 C 7.613281 227.289062 7.898438 227.136719 8.171875 226.957031 C 8.441406 226.773438 8.691406 226.570312 8.921875 226.339844 C 9.152344 226.109375 9.359375 225.859375 9.539062 225.585938 C 9.71875 225.316406 9.875 225.03125 9.996094 224.730469 C 10.121094 224.429688 10.21875 224.117188 10.28125 223.796875 C 10.34375 223.480469 10.375 223.15625 10.375 222.828125 L 10.375 219.757812 C 10.375 219.433594 10.34375 219.109375 10.28125 218.789062 C 10.21875 218.472656 10.125 218.160156 10 217.859375 C 9.875 217.558594 9.722656 217.273438 9.539062 217 C 9.359375 216.730469 9.152344 216.480469 8.921875 216.25 C 8.691406 216.019531 8.441406 215.8125 8.171875 215.632812 C 7.898438 215.453125 7.613281 215.296875 7.3125 215.171875 C 7.011719 215.050781 6.703125 214.953125 6.382812 214.890625 C 6.0625 214.828125 5.738281 214.796875 5.414062 214.796875 C 5.085938 214.796875 4.765625 214.828125 4.445312 214.890625 C 4.125 214.953125 3.816406 215.050781 3.515625 215.171875 C 3.214844 215.296875 2.925781 215.453125 2.65625 215.632812 C 2.386719 215.8125 2.132812 216.019531 1.902344 216.25 C 1.671875 216.480469 1.46875 216.730469 1.285156 217 C 1.105469 217.273438 0.953125 217.558594 0.828125 217.859375 C 0.703125 218.160156 0.609375 218.472656 0.546875 218.789062 C 0.480469 219.109375 0.449219 219.433594 0.449219 219.757812 L 0.449219 222.828125 C 0.449219 223.15625 0.484375 223.480469 0.546875 223.796875 C 0.609375 224.117188 0.703125 224.429688 0.828125 224.730469 C 0.953125 225.03125 1.105469 225.316406 1.289062 225.585938 C 1.46875 225.859375 1.675781 226.109375 1.90625 226.339844 C 2.136719 226.570312 2.386719 226.773438 2.65625 226.957031 C 2.929688 227.136719 3.214844 227.289062 3.515625 227.414062 C 3.816406 227.539062 4.125 227.632812 4.445312 227.695312 C 4.765625 227.761719 5.085938 227.792969 5.414062 227.792969 Z M 5.414062 227.792969"/><path d="M 172.332031 188.796875 C 172.332031 187.9375 172.289062 187.082031 172.203125 186.226562 C 172.121094 185.371094 171.996094 184.519531 171.828125 183.675781 C 171.660156 182.835938 171.449219 182 171.199219 181.179688 C 170.949219 180.355469 170.660156 179.546875 170.332031 178.753906 C 170.003906 177.960938 169.636719 177.183594 169.230469 176.425781 C 168.824219 175.667969 168.382812 174.929688 167.90625 174.214844 C 167.429688 173.5 166.917969 172.8125 166.371094 172.144531 C 165.828125 171.480469 165.25 170.84375 164.644531 170.238281 C 164.035156 169.628906 163.398438 169.054688 162.734375 168.507812 C 162.070312 167.960938 161.378906 167.449219 160.664062 166.972656 C 159.949219 166.496094 159.214844 166.054688 158.457031 165.648438 C 157.699219 165.242188 156.921875 164.875 156.128906 164.546875 C 155.335938 164.21875 154.527344 163.929688 153.703125 163.679688 C 152.878906 163.429688 152.046875 163.222656 151.203125 163.054688 C 150.363281 162.886719 149.511719 162.761719 148.65625 162.675781 C 147.800781 162.589844 146.945312 162.550781 146.085938 162.550781 C 145.226562 162.550781 144.367188 162.589844 143.511719 162.675781 C 142.65625 162.757812 141.808594 162.886719 140.964844 163.050781 C 140.121094 163.21875 139.289062 163.429688 138.46875 163.679688 C 137.644531 163.925781 136.835938 164.214844 136.042969 164.546875 C 135.25 164.875 134.472656 165.242188 133.714844 165.644531 C 132.957031 166.050781 132.21875 166.492188 131.503906 166.96875 C 130.789062 167.445312 130.101562 167.957031 129.4375 168.503906 C 128.773438 169.046875 128.136719 169.625 127.527344 170.234375 C 126.921875 170.839844 126.34375 171.476562 125.796875 172.140625 C 125.253906 172.804688 124.742188 173.496094 124.265625 174.210938 C 123.785156 174.921875 123.34375 175.660156 122.9375 176.417969 C 122.535156 177.175781 122.167969 177.953125 121.835938 178.746094 C 121.507812 179.539062 121.21875 180.347656 120.96875 181.171875 C 120.71875 181.992188 120.511719 182.828125 120.34375 183.667969 C 120.175781 184.511719 120.050781 185.363281 119.964844 186.21875 C 119.878906 187.074219 119.839844 187.929688 119.839844 188.789062 C 119.835938 189.648438 119.878906 190.507812 119.964844 191.363281 C 120.046875 192.21875 120.171875 193.066406 120.339844 193.910156 C 120.507812 194.753906 120.714844 195.585938 120.964844 196.410156 C 121.214844 197.230469 121.503906 198.039062 121.832031 198.832031 C 122.160156 199.628906 122.527344 200.402344 122.933594 201.164062 C 123.339844 201.921875 123.78125 202.65625 124.257812 203.371094 C 124.734375 204.085938 125.246094 204.777344 125.789062 205.441406 C 126.335938 206.105469 126.914062 206.742188 127.519531 207.351562 C 128.128906 207.957031 128.761719 208.535156 129.429688 209.078125 C 130.09375 209.625 130.78125 210.136719 131.496094 210.613281 C 132.210938 211.09375 132.945312 211.535156 133.703125 211.941406 C 134.464844 212.34375 135.238281 212.710938 136.03125 213.042969 C 136.828125 213.371094 137.636719 213.660156 138.457031 213.910156 C 139.28125 214.160156 140.113281 214.367188 140.957031 214.535156 C 141.800781 214.703125 142.648438 214.832031 143.503906 214.914062 C 144.359375 215 145.214844 215.042969 146.074219 215.042969 C 146.933594 215.042969 147.792969 215 148.648438 214.914062 C 149.503906 214.828125 150.351562 214.703125 151.195312 214.535156 C 152.039062 214.367188 152.871094 214.160156 153.695312 213.910156 C 154.515625 213.660156 155.324219 213.371094 156.117188 213.039062 C 156.914062 212.710938 157.6875 212.34375 158.445312 211.9375 C 159.203125 211.535156 159.941406 211.09375 160.65625 210.613281 C 161.371094 210.136719 162.058594 209.625 162.722656 209.082031 C 163.386719 208.535156 164.023438 207.960938 164.632812 207.351562 C 165.238281 206.742188 165.816406 206.109375 166.363281 205.445312 C 166.90625 204.78125 167.417969 204.089844 167.898438 203.375 C 168.375 202.660156 168.816406 201.925781 169.222656 201.167969 C 169.628906 200.410156 169.996094 199.632812 170.324219 198.839844 C 170.652344 198.046875 170.945312 197.238281 171.195312 196.414062 C 171.445312 195.59375 171.652344 194.761719 171.820312 193.917969 C 171.992188 193.074219 172.117188 192.226562 172.203125 191.371094 C 172.289062 190.515625 172.332031 189.660156 172.332031 188.796875 Z M 129.765625 188.796875 C 129.765625 188.265625 129.792969 187.730469 129.84375 187.199219 C 129.898438 186.667969 129.976562 186.140625 130.078125 185.613281 C 130.183594 185.089844 130.3125 184.570312 130.46875 184.0625 C 130.625 183.550781 130.804688 183.046875 131.007812 182.550781 C 131.210938 182.058594 131.441406 181.574219 131.691406 181.105469 C 131.945312 180.632812 132.21875 180.175781 132.515625 179.730469 C 132.8125 179.285156 133.128906 178.855469 133.46875 178.445312 C 133.808594 178.03125 134.167969 177.632812 134.546875 177.257812 C 134.921875 176.878906 135.320312 176.519531 135.730469 176.179688 C 136.144531 175.839844 136.574219 175.523438 137.019531 175.226562 C 137.464844 174.929688 137.921875 174.65625 138.390625 174.402344 C 138.863281 174.152344 139.347656 173.921875 139.839844 173.71875 C 140.335938 173.511719 140.835938 173.332031 141.347656 173.179688 C 141.859375 173.023438 142.378906 172.894531 142.902344 172.789062 C 143.425781 172.683594 143.957031 172.605469 144.488281 172.554688 C 145.019531 172.5 145.550781 172.476562 146.085938 172.476562 C 146.621094 172.476562 147.15625 172.5 147.6875 172.554688 C 148.21875 172.605469 148.746094 172.683594 149.273438 172.789062 C 149.796875 172.894531 150.316406 173.023438 150.828125 173.179688 C 151.339844 173.335938 151.839844 173.515625 152.335938 173.71875 C 152.828125 173.921875 153.3125 174.152344 153.78125 174.402344 C 154.253906 174.65625 154.710938 174.929688 155.15625 175.226562 C 155.601562 175.523438 156.03125 175.84375 156.445312 176.183594 C 156.855469 176.523438 157.253906 176.878906 157.628906 177.257812 C 158.007812 177.636719 158.367188 178.03125 158.707031 178.445312 C 159.046875 178.859375 159.363281 179.289062 159.660156 179.734375 C 159.957031 180.175781 160.230469 180.636719 160.484375 181.105469 C 160.734375 181.578125 160.964844 182.0625 161.167969 182.554688 C 161.371094 183.050781 161.550781 183.550781 161.707031 184.0625 C 161.863281 184.574219 161.992188 185.09375 162.09375 185.617188 C 162.199219 186.140625 162.277344 186.671875 162.332031 187.203125 C 162.382812 187.734375 162.410156 188.269531 162.40625 188.800781 C 162.40625 189.335938 162.382812 189.871094 162.328125 190.402344 C 162.277344 190.933594 162.199219 191.460938 162.09375 191.988281 C 161.988281 192.511719 161.859375 193.03125 161.703125 193.539062 C 161.546875 194.050781 161.367188 194.554688 161.164062 195.050781 C 160.957031 195.542969 160.730469 196.023438 160.476562 196.496094 C 160.226562 196.96875 159.949219 197.425781 159.652344 197.871094 C 159.355469 198.316406 159.039062 198.742188 158.699219 199.15625 C 158.359375 199.570312 158 199.964844 157.621094 200.34375 C 157.242188 200.722656 156.847656 201.078125 156.433594 201.417969 C 156.019531 201.757812 155.589844 202.074219 155.148438 202.371094 C 154.703125 202.667969 154.242188 202.941406 153.773438 203.195312 C 153.300781 203.445312 152.816406 203.675781 152.324219 203.878906 C 151.828125 204.082031 151.328125 204.261719 150.816406 204.417969 C 150.304688 204.570312 149.785156 204.703125 149.261719 204.804688 C 148.738281 204.910156 148.207031 204.988281 147.675781 205.039062 C 147.144531 205.089844 146.609375 205.117188 146.074219 205.117188 C 145.542969 205.117188 145.007812 205.089844 144.476562 205.035156 C 143.945312 204.984375 143.417969 204.902344 142.894531 204.796875 C 142.371094 204.695312 141.855469 204.5625 141.34375 204.40625 C 140.832031 204.253906 140.332031 204.070312 139.835938 203.867188 C 139.34375 203.660156 138.863281 203.433594 138.390625 203.179688 C 137.921875 202.929688 137.460938 202.65625 137.019531 202.359375 C 136.574219 202.0625 136.148438 201.742188 135.734375 201.402344 C 135.320312 201.066406 134.925781 200.707031 134.546875 200.328125 C 134.171875 199.949219 133.8125 199.554688 133.472656 199.144531 C 133.136719 198.730469 132.816406 198.300781 132.519531 197.855469 C 132.222656 197.414062 131.949219 196.957031 131.699219 196.484375 C 131.445312 196.015625 131.21875 195.53125 131.011719 195.039062 C 130.808594 194.546875 130.628906 194.042969 130.472656 193.53125 C 130.316406 193.019531 130.1875 192.503906 130.082031 191.980469 C 129.976562 191.457031 129.898438 190.929688 129.847656 190.398438 C 129.792969 189.867188 129.765625 189.332031 129.765625 188.796875 Z M 129.765625 188.796875"/></svg>