<svg xmlns="http://www.w3.org/2000/svg" version="1.1" xmlns:xlink="http://www.w3.org/1999/xlink" xmlns:svgjs="http://svgjs.com/svgjs" width="512" height="512" x="0" y="0" viewBox="0 0 512 512" style="enable-background:new 0 0 512 512" xml:space="preserve" class=""><g><g xmlns="http://www.w3.org/2000/svg" id="_x35_9_x2C__odt_x2C__file_type_x2C__file_format_x2C__file_extension_x2C__document"><g id="XMLID_6846_"><g id="XMLID_6984_"><path id="XMLID_947_" d="m466 106v350c0 16.57-13.43 30-30 30h-280c-16.57 0-30-13.43-30-30 0-12.782 0-379.414 0-400 0-16.57 13.43-30 30-30h230l20 60z" fill="#a4c2f7" data-original="#a4c2f7" class=""></path><g fill="#fff"><path id="XMLID_946_" d="m126 186v60h-50c-16.56 0-30-13.439-30-30 0-16.57 13.43-30 30-30z" fill="#ffffff" data-original="#ffffff"></path><path id="XMLID_7063_" d="m416 271v120c0 13.81-11.19 25-25 25-9.825 0-285.311 0-300.67 0-24.48 0-44.33-19.85-44.33-44.33v-155.67c0 16.56 13.439 30 30 30h315c13.81 0 25 11.19 25 25z" fill="#ffffff" data-original="#ffffff"></path><path id="XMLID_944_" d="m466 106h-80v-80z" fill="#ffffff" data-original="#ffffff"></path></g><g id="XMLID_6986_"><g id="XMLID_4240_" fill="#418cfe"><path id="XMLID_4247_" d="m473.071 98.929-80-80c-1.854-1.854-4.413-2.929-7.071-2.929h-230c-22.056 0-40 17.944-40 40v120h-40c-22.056 0-40 17.944-40 40v155.67c0 29.958 24.372 54.33 54.33 54.33h25.67v30c0 22.056 17.944 40 40 40h280c22.056 0 40-17.944 40-40v-350c0-2.666-1.078-5.223-2.929-7.071zm-77.071-48.786 45.858 45.857h-45.858zm-320 145.857h40v40h-40c-11.045 0-20-8.954-20-20 0-11.028 8.972-20 20-20zm14.33 210c-18.93 0-34.33-15.4-34.33-34.33v-121.025c6.016 3.488 12.864 5.355 20 5.355h315c8.272 0 15 6.729 15 15v120c0 8.272-6.728 15-15 15zm365.67 50c0 11.028-8.972 20-20 20h-280c-11.028 0-20-8.972-20-20v-30h255c19.299 0 35-15.701 35-35v-120c0-19.299-15.701-35-35-35h-255v-180c0-11.028 8.972-20 20-20h220v70c0 5.523 4.478 10 10 10h70z" fill="#418cfe" data-original="#418cfe" class=""></path><path id="XMLID_4243_" d="m176 106h80c5.522 0 10-4.477 10-10s-4.478-10-10-10h-80c-5.523 0-10 4.477-10 10s4.477 10 10 10z" fill="#418cfe" data-original="#418cfe" class=""></path><path id="XMLID_4242_" d="m336 126h-160c-5.523 0-10 4.477-10 10s4.477 10 10 10h160c5.522 0 10-4.477 10-10s-4.478-10-10-10z" fill="#418cfe" data-original="#418cfe" class=""></path><path id="XMLID_4241_" d="m336 166h-160c-5.523 0-10 4.477-10 10s4.477 10 10 10h160c5.522 0 10-4.477 10-10s-4.478-10-10-10z" fill="#418cfe" data-original="#418cfe" class=""></path></g></g></g><g id="XMLID_6849_"><g id="XMLID_4254_"><g id="XMLID_4263_"><path id="XMLID_4264_" d="m356 275.997h-60c-5.522 0-10 4.478-10 10s4.478 10 10 10h20v80c0 5.522 4.478 10 10 10s10-4.478 10-10v-80h20c5.522 0 10-4.478 10-10s-4.478-10-10-10z" fill="#418cfe" data-original="#418cfe" class=""></path></g><g id="XMLID_4259_"><path id="XMLID_4260_" d="m221 275.997h-5c-5.523 0-10 4.478-10 10v90c0 5.522 4.477 10 10 10h5c30.327 0 55-24.673 55-55s-24.673-55-55-55zm5 89.644v-69.287c16.939 2.434 30 17.042 30 34.644 0 17.601-13.061 32.209-30 34.643z" fill="#418cfe" data-original="#418cfe" class=""></path></g><g id="XMLID_4255_"><path id="XMLID_4256_" d="m151 275.997c-19.299 0-35 15.701-35 35v40c0 19.299 15.701 35 35 35s35-15.701 35-35v-40c0-19.299-15.701-35-35-35zm15 75c0 8.271-6.729 15-15 15s-15-6.729-15-15v-40c0-8.272 6.729-15 15-15s15 6.728 15 15z" fill="#418cfe" data-original="#418cfe" class=""></path></g></g></g></g></g></g></svg>