<svg xmlns="http://www.w3.org/2000/svg" version="1.1" xmlns:xlink="http://www.w3.org/1999/xlink" xmlns:svgjs="http://svgjs.com/svgjs" width="512" height="512" x="0" y="0" viewBox="0 0 511.962 511.962" style="enable-background:new 0 0 512 512" xml:space="preserve" class=""><g><path xmlns="http://www.w3.org/2000/svg" id="XMLID_2631_" d="m117.981 501.962v-491.962h296l64 63.962v428z" fill="#eff3f3" data-original="#eff3f3" class=""></path><path xmlns="http://www.w3.org/2000/svg" id="XMLID_838_" d="m413.981 9.962v64h64z" fill="#ffe6c0" data-original="#ffe6c0"></path><path xmlns="http://www.w3.org/2000/svg" id="XMLID_1409_" d="m337.981 341.962h-264c-22.091 0-40 17.909-40 40v80c0 22.091 17.909 40 40 40h264c22.091 0 40-17.909 40-40v-80c0-22.091-17.909-40-40-40z" fill="#91def5" data-original="#91def5" class=""></path><path xmlns="http://www.w3.org/2000/svg" id="XMLID_1299_" d="m485.05 66.889-64-63.962c-1.875-1.874-4.418-2.927-7.069-2.927h-296c-5.523 0-10 4.478-10 10v321.962h-34c-27.57 0-50 22.43-50 50v80c0 27.57 22.43 50 50 50h264 140c5.523 0 10-4.478 10-10v-205c0-5.522-4.477-10-10-10s-10 4.478-10 10v195h-90.027c6.292-8.363 10.027-18.752 10.027-30v-80c0-27.57-22.43-50-50-50h-210v-311.962h276v53.962c0 5.523 4.477 10 10 10h54v123c0 5.522 4.477 10 10 10s10-4.478 10-10v-133c0-2.653-1.054-5.197-2.931-7.073zm-117.069 315.073v80c0 16.542-13.458 30-30 30h-264c-16.542 0-30-13.458-30-30v-80c0-16.542 13.458-30 30-30h264c16.542 0 30 13.458 30 30zm56-347.83 29.848 29.83h-29.848z" fill="#000000" data-original="#000000" class=""></path><path xmlns="http://www.w3.org/2000/svg" id="XMLID_1303_" d="m85.67 381.962v23.908 16.087.01 39.995c0 5.522 4.477 10 10 10s10-4.478 10-10v-15.857l22.679 22.679c1.953 1.952 4.512 2.929 7.071 2.929s5.119-.977 7.071-2.929c3.905-3.905 3.905-10.237 0-14.143l-22.682-22.682c16.478-.076 29.861-13.501 29.861-29.997 0-16.542-13.458-30-30-30h-24c-5.523 0-10 4.477-10 10zm20 10h14c5.514 0 10 4.486 10 10s-4.486 10-10 10h-14v-6.092z" fill="#000000" data-original="#000000" class=""></path><path xmlns="http://www.w3.org/2000/svg" id="XMLID_1304_" d="m263.67 471.962c5.523 0 10-4.478 10-10v-30h34c5.523 0 10-4.478 10-10s-4.477-10-10-10h-34v-6.092-13.908h34c5.523 0 10-4.478 10-10s-4.477-10-10-10h-44c-5.523 0-10 4.478-10 10v23.908 16.092 40c0 5.522 4.477 10 10 10z" fill="#000000" data-original="#000000" class=""></path><path xmlns="http://www.w3.org/2000/svg" id="XMLID_1321_" d="m179.67 391.962h12v70c0 5.522 4.477 10 10 10s10-4.478 10-10v-70h12c5.523 0 10-4.478 10-10s-4.477-10-10-10h-44c-5.523 0-10 4.478-10 10s4.477 10 10 10z" fill="#000000" data-original="#000000" class=""></path><path xmlns="http://www.w3.org/2000/svg" id="XMLID_1322_" d="m417.981 153.962h-124.334c-5.523 0-10 4.478-10 10s4.477 10 10 10h124.333c5.523 0 10-4.478 10-10s-4.476-10-9.999-10z" fill="#000000" data-original="#000000" class=""></path><path xmlns="http://www.w3.org/2000/svg" id="XMLID_1335_" d="m417.981 109.962h-124.334c-5.523 0-10 4.478-10 10s4.477 10 10 10h124.333c5.523 0 10-4.478 10-10s-4.476-10-9.999-10z" fill="#000000" data-original="#000000" class=""></path><path xmlns="http://www.w3.org/2000/svg" id="XMLID_1363_" d="m417.981 197.962h-124.334c-5.523 0-10 4.478-10 10s4.477 10 10 10h124.333c5.523 0 10-4.478 10-10s-4.476-10-9.999-10z" fill="#000000" data-original="#000000" class=""></path><path xmlns="http://www.w3.org/2000/svg" id="XMLID_1364_" d="m417.981 285.962h-238.529c-5.523 0-10 4.478-10 10s4.477 10 10 10h238.529c5.523 0 10-4.478 10-10s-4.477-10-10-10z" fill="#000000" data-original="#000000" class=""></path><path xmlns="http://www.w3.org/2000/svg" id="XMLID_1372_" d="m417.981 241.962h-238.529c-5.523 0-10 4.478-10 10s4.477 10 10 10h238.529c5.523 0 10-4.478 10-10s-4.477-10-10-10z" fill="#000000" data-original="#000000" class=""></path><path xmlns="http://www.w3.org/2000/svg" id="XMLID_1375_" d="m176.034 217.359c1.128.411 2.282.605 3.417.605 4.086 0 7.922-2.523 9.399-6.586l3.206-8.817h44.529l4.102 9.399c2.208 5.063 8.101 7.376 13.165 5.166 5.062-2.208 7.375-8.103 5.166-13.164l-6.659-15.26c-.012-.029-.026-.058-.038-.087l-31.703-72.653c-1.636-3.75-5.401-6.097-9.479-5.996-4.088.128-7.687 2.733-9.084 6.578l-32 88c-1.888 5.19.789 10.929 5.979 12.815zm36.262-70.458 15.561 35.66h-28.528z" fill="#000000" data-original="#000000" class=""></path><path xmlns="http://www.w3.org/2000/svg" id="XMLID_1380_" d="m477.981 241.962c-2.63 0-5.21 1.069-7.07 2.93-1.86 1.86-2.93 4.44-2.93 7.07s1.07 5.21 2.93 7.069c1.86 1.86 4.44 2.931 7.07 2.931s5.21-1.07 7.07-2.931c1.86-1.859 2.93-4.439 2.93-7.069s-1.07-5.21-2.93-7.07-4.44-2.93-7.07-2.93z" fill="#000000" data-original="#000000" class=""></path></g></svg>