<svg xmlns="http://www.w3.org/2000/svg" width="384" viewBox="0 0 384 384" height="384" version="1.0"><path fill="#FFB13B" d="M 362.449219 329.144531 L 338.9375 329.144531 C 330.28125 329.144531 323.265625 322.125 323.265625 313.46875 L 323.265625 156.84375 L 362.449219 156.84375 C 371.105469 156.84375 378.121094 163.859375 378.121094 172.515625 L 378.121094 313.46875 C 378.121094 322.125 371.105469 329.144531 362.449219 329.144531 Z M 362.449219 329.144531"/><path fill="#FFF" d="M 323.265625 313.46875 L 323.230469 54.855469 L 5.878906 54.855469 L 5.878906 313.46875 C 5.878906 322.125 12.894531 329.144531 21.550781 329.144531 L 338.9375 329.144531 C 330.28125 329.144531 323.265625 322.125 323.265625 313.46875 Z M 323.265625 313.46875"/><path fill="#FFB13B" d="M 45.0625 94.042969 L 117.550781 94.042969 L 117.550781 159.34375 L 45.0625 159.34375 Z M 45.0625 94.042969"/><path fill="#FFB13B" d="M 45.0625 187.164062 L 284.082031 187.164062 L 284.082031 229.484375 L 45.0625 229.484375 Z M 45.0625 187.164062"/><path d="M 362.449219 150.964844 L 338.949219 150.964844 L 338.949219 162.722656 L 362.449219 162.722656 C 367.851562 162.722656 372.246094 167.113281 372.246094 172.515625 L 372.246094 313.46875 C 372.246094 318.871094 367.851562 323.265625 362.449219 323.265625 L 338.9375 323.265625 C 333.535156 323.265625 329.144531 318.871094 329.144531 313.46875 L 329.144531 48.980469 L 0 48.980469 L 0 313.46875 C 0 325.351562 9.667969 335.019531 21.550781 335.019531 L 362.449219 335.019531 C 374.332031 335.019531 384 325.351562 384 313.46875 L 384 172.515625 C 384 160.632812 374.332031 150.964844 362.449219 150.964844 Z M 21.550781 323.265625 C 16.148438 323.265625 11.753906 318.871094 11.753906 313.46875 L 11.753906 60.734375 L 317.355469 60.734375 L 317.355469 313.46875 C 317.355469 316.996094 318.238281 320.324219 319.746094 323.265625 Z M 21.550781 323.265625"/><path d="M 143.019531 88.164062 L 284.082031 88.164062 L 284.082031 99.917969 L 143.019531 99.917969 Z M 143.019531 88.164062"/><path d="M 143.019531 153.464844 L 284.082031 153.464844 L 284.082031 165.222656 L 143.019531 165.222656 Z M 143.019531 153.464844"/><path d="M 123.429688 88.164062 L 39.183594 88.164062 L 39.183594 165.222656 L 123.429688 165.222656 Z M 111.671875 153.46875 L 50.9375 153.46875 L 50.9375 99.917969 L 111.671875 99.917969 Z M 111.671875 153.46875"/><path d="M 45.0625 251.425781 L 154.777344 251.425781 L 154.777344 263.179688 L 45.0625 263.179688 Z M 45.0625 251.425781"/><path d="M 174.367188 251.425781 L 284.082031 251.425781 L 284.082031 263.179688 L 174.367188 263.179688 Z M 174.367188 251.425781"/><path d="M 45.0625 284.082031 L 154.777344 284.082031 L 154.777344 295.835938 L 45.0625 295.835938 Z M 45.0625 284.082031"/><path d="M 174.367188 284.082031 L 258.21875 284.082031 L 258.21875 295.835938 L 174.367188 295.835938 Z M 174.367188 284.082031"/><path d="M 272.328125 284.082031 L 284.082031 284.082031 L 284.082031 295.835938 L 272.328125 295.835938 Z M 272.328125 284.082031"/><path d="M 39.183594 235.363281 L 77.15625 235.363281 L 77.15625 223.609375 L 50.9375 223.609375 L 50.9375 193.042969 L 278.203125 193.042969 L 278.203125 223.609375 L 142.203125 223.609375 L 142.203125 235.363281 L 289.957031 235.363281 L 289.957031 181.289062 L 39.183594 181.289062 Z M 39.183594 235.363281"/><path d="M 143.019531 120.820312 L 258.21875 120.820312 L 258.21875 132.574219 L 143.019531 132.574219 Z M 143.019531 120.820312"/><path d="M 272.328125 120.820312 L 284.082031 120.820312 L 284.082031 132.574219 L 272.328125 132.574219 Z M 272.328125 120.820312"/><path d="M 90.875 223.605469 L 102.628906 223.605469 L 102.628906 235.359375 L 90.875 235.359375 Z M 90.875 223.605469"/><path d="M 116.734375 223.605469 L 128.492188 223.605469 L 128.492188 235.359375 L 116.734375 235.359375 Z M 116.734375 223.605469"/></svg>