<svg xmlns="http://www.w3.org/2000/svg" width="384" viewBox="0 0 384 384" height="384" version="1.0"><defs><clipPath id="a"><path d="M 118.171875 120 L 129 120 L 129 131 L 118.171875 131 Z M 118.171875 120"/></clipPath><clipPath id="b"><path d="M 118.171875 0 L 383.984375 0 L 383.984375 265.828125 L 118.171875 265.828125 Z M 118.171875 0"/></clipPath><clipPath id="c"><path d="M 174.28125 126 L 328.03125 126 L 328.03125 140 L 174.28125 140 Z M 174.28125 126"/></clipPath><clipPath id="d"><path d="M 174.28125 77 L 328.03125 77 L 328.03125 91 L 174.28125 91 Z M 174.28125 77"/></clipPath><clipPath id="e"><path d="M 174.28125 175 L 328.03125 175 L 328.03125 189 L 174.28125 189 Z M 174.28125 175"/></clipPath><clipPath id="f"><path d="M 0.339844 238 L 11 238 L 11 249 L 0.339844 249 Z M 0.339844 238"/></clipPath><clipPath id="g"><path d="M 0.339844 118.160156 L 265.5 118.160156 L 265.5 383.660156 L 0.339844 383.660156 Z M 0.339844 118.160156"/></clipPath></defs><path fill="#ECEAEC" d="M 149.457031 260.636719 L 352.710938 260.636719 C 367.121094 260.636719 378.804688 248.953125 378.804688 234.539062 L 378.804688 31.289062 C 378.804688 16.875 367.121094 5.191406 352.710938 5.191406 L 149.457031 5.191406 C 135.046875 5.191406 123.363281 16.875 123.363281 31.289062 L 123.363281 234.539062 C 123.363281 248.953125 135.046875 260.636719 149.457031 260.636719 Z M 149.457031 260.636719"/><g clip-path="url(#a)"><path d="M 123.363281 120.515625 C 124.726562 120.515625 126.070312 121.070312 127.035156 122.035156 C 128 123.003906 128.554688 124.335938 128.554688 125.707031 C 128.554688 127.074219 128 128.410156 127.035156 129.378906 C 126.070312 130.34375 124.726562 130.898438 123.363281 130.898438 C 122 130.898438 120.65625 130.34375 119.691406 129.378906 C 118.726562 128.410156 118.171875 127.074219 118.171875 125.707031 C 118.171875 124.339844 118.726562 123.003906 119.691406 122.035156 C 120.65625 121.070312 122 120.515625 123.363281 120.515625 Z M 123.363281 120.515625"/></g><g clip-path="url(#b)"><path d="M 149.457031 0 L 352.710938 0 C 369.964844 0 384 14.035156 384 31.289062 L 384 234.539062 C 384 251.792969 369.964844 265.828125 352.710938 265.828125 L 149.457031 265.828125 C 132.207031 265.828125 118.171875 251.792969 118.171875 234.539062 L 118.171875 151.136719 C 118.171875 148.269531 120.496094 145.945312 123.363281 145.945312 C 126.230469 145.945312 128.554688 148.269531 128.554688 151.136719 L 128.554688 234.539062 C 128.554688 246.066406 137.933594 255.445312 149.457031 255.445312 L 352.710938 255.445312 C 364.238281 255.445312 373.613281 246.066406 373.613281 234.539062 L 373.613281 31.289062 C 373.613281 19.761719 364.238281 10.382812 352.710938 10.382812 L 149.457031 10.382812 C 137.933594 10.382812 128.554688 19.761719 128.554688 31.289062 L 128.554688 100.007812 C 128.554688 102.875 126.230469 105.199219 123.363281 105.199219 C 120.496094 105.199219 118.171875 102.875 118.171875 100.007812 L 118.171875 31.289062 C 118.171875 14.035156 132.207031 0 149.457031 0 Z M 149.457031 0"/></g><path d="M 251.085938 194.960938 C 234.609375 194.960938 218.136719 188.691406 205.597656 176.152344 C 203.570312 174.121094 203.570312 170.835938 205.597656 168.808594 C 207.625 166.78125 210.910156 166.78125 212.941406 168.808594 C 223.128906 178.996094 236.675781 184.609375 251.085938 184.609375 C 265.496094 184.609375 279.042969 178.996094 289.230469 168.808594 C 291.257812 166.78125 294.542969 166.78125 296.574219 168.808594 C 298.601562 170.835938 298.601562 174.121094 296.574219 176.152344 C 284.03125 188.691406 267.558594 194.960938 251.085938 194.960938 Z M 251.085938 194.960938"/><path d="M 284.910156 112.351562 C 284.910156 115.21875 282.585938 117.542969 279.71875 117.542969 C 276.851562 117.542969 274.527344 115.21875 274.527344 112.351562 C 274.527344 100.324219 284.308594 90.542969 296.332031 90.542969 C 308.355469 90.542969 318.140625 100.324219 318.140625 112.351562 C 318.140625 115.21875 315.8125 117.542969 312.949219 117.542969 C 310.082031 117.542969 307.757812 115.21875 307.757812 112.351562 C 307.757812 106.054688 302.632812 100.929688 296.332031 100.929688 C 290.035156 100.929688 284.910156 106.054688 284.910156 112.351562 Z M 284.910156 112.351562"/><path d="M 194.414062 112.351562 C 194.414062 115.21875 192.089844 117.542969 189.222656 117.542969 C 186.355469 117.542969 184.03125 115.21875 184.03125 112.351562 C 184.03125 100.324219 193.8125 90.542969 205.835938 90.542969 C 217.859375 90.542969 227.640625 100.324219 227.640625 112.351562 C 227.640625 115.21875 225.316406 117.542969 222.449219 117.542969 C 219.585938 117.542969 217.257812 115.21875 217.257812 112.351562 C 217.257812 106.054688 212.136719 100.929688 205.835938 100.929688 C 199.539062 100.929688 194.414062 106.054688 194.414062 112.351562 Z M 194.414062 112.351562"/><path fill="#ECEAEC" d="M 140.671875 22.511719 L 361.800781 22.511719 L 361.800781 243.644531 L 140.671875 243.644531 L 140.671875 22.511719"/><g clip-path="url(#c)"><path fill="#2980B9" d="M 321.625 139.269531 L 180.6875 139.269531 C 177.148438 139.269531 174.28125 136.398438 174.28125 132.863281 C 174.28125 129.328125 177.148438 126.457031 180.6875 126.457031 L 321.625 126.457031 C 325.160156 126.457031 328.03125 129.328125 328.03125 132.863281 C 328.03125 136.398438 325.160156 139.269531 321.625 139.269531 Z M 321.625 139.269531"/></g><g clip-path="url(#d)"><path fill="#2980B9" d="M 321.625 90.152344 L 180.6875 90.152344 C 177.148438 90.152344 174.28125 87.285156 174.28125 83.746094 C 174.28125 80.210938 177.148438 77.339844 180.6875 77.339844 L 321.625 77.339844 C 325.160156 77.339844 328.03125 80.210938 328.03125 83.746094 C 328.03125 87.285156 325.160156 90.152344 321.625 90.152344 Z M 321.625 90.152344"/></g><g clip-path="url(#e)"><path fill="#2980B9" d="M 321.625 188.382812 L 180.6875 188.382812 C 177.148438 188.382812 174.28125 185.511719 174.28125 181.976562 C 174.28125 178.441406 177.148438 175.570312 180.6875 175.570312 L 321.625 175.570312 C 325.160156 175.570312 328.03125 178.441406 328.03125 181.976562 C 328.03125 185.511719 325.160156 188.382812 321.625 188.382812 Z M 321.625 188.382812"/></g><path fill="#2980B9" d="M 31.589844 378.472656 L 234.589844 378.472656 C 248.984375 378.472656 260.652344 366.804688 260.652344 352.410156 L 260.652344 149.40625 C 260.652344 135.015625 248.984375 123.34375 234.589844 123.34375 L 31.589844 123.34375 C 17.195312 123.34375 5.527344 135.015625 5.527344 149.40625 L 5.527344 352.410156 C 5.527344 366.804688 17.195312 378.472656 31.589844 378.472656 Z M 31.589844 378.472656"/><g clip-path="url(#f)"><path d="M 5.527344 238.527344 C 6.886719 238.527344 8.226562 239.082031 9.191406 240.046875 C 10.15625 241.007812 10.710938 242.34375 10.710938 243.710938 C 10.710938 245.074219 10.15625 246.410156 9.191406 247.378906 C 8.226562 248.34375 6.886719 248.898438 5.527344 248.898438 C 4.164062 248.898438 2.824219 248.34375 1.859375 247.378906 C 0.894531 246.410156 0.339844 245.074219 0.339844 243.710938 C 0.339844 242.347656 0.894531 241.007812 1.859375 240.046875 C 2.824219 239.082031 4.164062 238.527344 5.527344 238.527344 Z M 5.527344 238.527344"/></g><g clip-path="url(#g)"><path d="M 31.589844 118.160156 L 234.589844 118.160156 C 251.824219 118.160156 265.839844 132.175781 265.839844 149.40625 L 265.839844 352.410156 C 265.839844 369.640625 251.824219 383.660156 234.589844 383.660156 L 31.589844 383.660156 C 14.355469 383.660156 0.339844 369.640625 0.339844 352.410156 L 0.339844 269.109375 C 0.339844 266.246094 2.660156 263.925781 5.527344 263.925781 C 8.390625 263.925781 10.710938 266.246094 10.710938 269.109375 L 10.710938 352.410156 C 10.710938 363.921875 20.078125 373.289062 31.589844 373.289062 L 234.589844 373.289062 C 246.101562 373.289062 255.46875 363.921875 255.46875 352.410156 L 255.46875 149.40625 C 255.46875 137.894531 246.101562 128.53125 234.589844 128.53125 L 31.589844 128.53125 C 20.078125 128.53125 10.710938 137.894531 10.710938 149.40625 L 10.710938 218.042969 C 10.710938 220.90625 8.390625 223.230469 5.527344 223.230469 C 2.660156 223.230469 0.339844 220.90625 0.339844 218.042969 L 0.339844 149.40625 C 0.339844 132.175781 14.355469 118.160156 31.589844 118.160156 Z M 31.589844 118.160156"/></g><path d="M 133.089844 312.878906 C 116.636719 312.878906 100.183594 306.617188 87.65625 294.09375 C 85.632812 292.066406 85.632812 288.785156 87.65625 286.757812 C 89.683594 284.734375 92.964844 284.734375 94.992188 286.757812 C 105.167969 296.933594 118.699219 302.539062 133.089844 302.539062 C 147.480469 302.539062 161.011719 296.933594 171.1875 286.757812 C 173.214844 284.734375 176.496094 284.734375 178.523438 286.757812 C 180.546875 288.785156 180.546875 292.066406 178.523438 294.09375 C 165.996094 306.617188 149.542969 312.878906 133.089844 312.878906 Z M 133.089844 312.878906"/><path d="M 166.875 230.371094 C 166.875 233.234375 164.550781 235.558594 161.6875 235.558594 C 158.824219 235.558594 156.503906 233.234375 156.503906 230.371094 C 156.503906 218.363281 166.273438 208.59375 178.28125 208.59375 C 190.289062 208.59375 200.0625 218.363281 200.0625 230.371094 C 200.0625 233.234375 197.738281 235.558594 194.875 235.558594 C 192.011719 235.558594 189.691406 233.234375 189.691406 230.371094 C 189.691406 224.082031 184.574219 218.964844 178.28125 218.964844 C 171.992188 218.964844 166.875 224.082031 166.875 230.371094 Z M 166.875 230.371094"/><path d="M 76.488281 230.371094 C 76.488281 233.234375 74.167969 235.558594 71.304688 235.558594 C 68.441406 235.558594 66.117188 233.234375 66.117188 230.371094 C 66.117188 218.363281 75.890625 208.59375 87.898438 208.59375 C 99.90625 208.59375 109.675781 218.363281 109.675781 230.371094 C 109.675781 233.234375 107.355469 235.558594 104.492188 235.558594 C 101.628906 235.558594 99.304688 233.234375 99.304688 230.371094 C 99.304688 224.082031 94.1875 218.964844 87.898438 218.964844 C 81.605469 218.964844 76.488281 224.082031 76.488281 230.371094 Z M 76.488281 230.371094"/><path fill="#2980B9" d="M 22.511719 140.671875 L 243.011719 140.671875 L 243.011719 361.171875 L 22.511719 361.171875 L 22.511719 140.671875"/><g fill="#FFF"><g><g><path d="M 58.5 1.4375 C 52.375 1.4375 48.175781 -1.800781 45.90625 -8.28125 L 8.28125 -114.65625 C 6.957031 -118.5 7.222656 -121.738281 9.078125 -124.375 C 10.941406 -127.019531 14.097656 -128.34375 18.546875 -128.34375 C 21.785156 -128.34375 24.300781 -127.59375 26.09375 -126.09375 C 27.894531 -124.59375 29.335938 -122.222656 30.421875 -118.984375 L 59.21875 -33.296875 L 89.453125 -118.796875 C 91.734375 -125.160156 95.578125 -128.34375 100.984375 -128.34375 C 103.859375 -128.34375 106.132812 -127.5625 107.8125 -126 C 109.5 -124.4375 110.941406 -121.976562 112.140625 -118.625 L 141.84375 -32.046875 L 171.546875 -118.984375 C 172.617188 -122.097656 174.054688 -124.4375 175.859375 -126 C 177.660156 -127.5625 180.117188 -128.34375 183.234375 -128.34375 C 187.078125 -128.34375 189.898438 -127.019531 191.703125 -124.375 C 193.503906 -121.738281 193.742188 -118.5 192.421875 -114.65625 L 154.4375 -8.09375 C 153.238281 -4.851562 151.675781 -2.453125 149.75 -0.890625 C 147.832031 0.660156 145.253906 1.4375 142.015625 1.4375 C 138.773438 1.4375 136.195312 0.660156 134.28125 -0.890625 C 132.363281 -2.453125 130.800781 -4.914062 129.59375 -8.28125 L 100.265625 -91.625 L 70.734375 -8.09375 C 69.535156 -4.851562 68.003906 -2.453125 66.140625 -0.890625 C 64.285156 0.660156 61.738281 1.4375 58.5 1.4375 Z M 58.5 1.4375" transform="translate(32.743 310.33)"/></g></g></g></svg>