<svg id="Capa_1" enable-background="new 0 0 512 512" height="512" viewBox="0 0 512 512" width="512" xmlns="http://www.w3.org/2000/svg"><g><g><path d="m87.661 328.145h-16.032c-22.136 0-40.081-17.945-40.081-40.081 0-13.282 10.767-24.048 24.048-24.048h32.065z" fill="#3c91be"/><path d="m475.756 82.965-70.772-70.769c-3.007-3.007-7.085-4.695-11.336-4.695h-297.971c-8.854 0-16.032 7.178-16.032 16.032v244.134l16.032 236.833h368.742c8.854 0 16.032-7.178 16.032-16.032v-394.166c.001-4.252-1.688-8.33-4.695-11.337z" fill="#e9f6ff"/><path d="m103.694 464.419v-456.919h-8.016c-8.854 0-16.032 7.178-16.032 16.032v464.935c0 8.854 7.179 16.032 16.032 16.032h368.742c8.854 0 16.032-7.178 16.032-16.032v-8.016h-360.726c-8.84.001-16.032-7.192-16.032-16.032z" fill="#d9edff"/><path d="m352.194 312.113h-296.597c-13.282 0-24.048-10.767-24.048-24.048v144.29c0 13.282 10.767 24.048 24.048 24.048h296.597c8.854 0 16.032-7.178 16.032-16.032v-112.226c0-8.855-7.178-16.032-16.032-16.032z" fill="#7dc3ee"/><path d="m256 175.839h-56.113c-4.427 0-8.016-3.589-8.016-8.016v-24.048c0-4.427 3.589-8.016 8.016-8.016h56.113c4.427 0 8.016 3.589 8.016 8.016v24.048c0 4.427-3.589 8.016-8.016 8.016z" fill="#7dc3ee"/><path d="m480.452 94.302c0-4.252-1.689-8.33-4.696-11.337l-70.772-70.769c-3.007-3.007-7.085-4.695-11.336-4.695h-1.373v80.161c0 4.427 3.589 8.016 8.016 8.016h80.161z" fill="#d9edff"/><path d="m55.597 456.403h296.597c8.854 0 16.032-7.178 16.032-16.032v-8.016h-288.581c-13.282 0-24.048-10.767-24.048-24.048v-96.194c-13.282 0-24.048-10.767-24.048-24.048v144.29c-.001 13.281 10.766 24.048 24.048 24.048z" fill="#64acdc"/></g><g><path d="m481.059 77.662-70.772-70.77c-4.445-4.444-10.354-6.892-16.64-6.892h-297.97c-12.975 0-23.532 10.557-23.532 23.532v232.984h-16.548c-17.396 0-31.548 14.153-31.548 31.548v144.29c0 17.396 14.152 31.549 31.548 31.549h296.597c12.976 0 23.532-10.557 23.532-23.532v-112.225c0-12.976-10.557-23.533-23.532-23.533h-296.597c-9.125 0-16.548-7.423-16.548-16.548s7.423-16.548 16.548-16.548h16.548v8.535c0 4.142 3.358 7.5 7.5 7.5s7.5-3.358 7.5-7.5v-256.52c0-4.705 3.828-8.532 8.532-8.532h289.097v72.661c0 8.556 6.96 15.517 15.516 15.517h72.661v385.29c0 4.705-3.828 8.532-8.532 8.532h-368.742c-4.705 0-8.532-3.827-8.532-8.532 0-4.142-3.358-7.5-7.5-7.5s-7.5 3.358-7.5 7.5c0 12.976 10.557 23.532 23.532 23.532h368.742c12.976 0 23.532-10.557 23.532-23.532v-394.166c.001-6.285-2.447-12.195-6.892-16.64zm-425.462 241.951h296.597c4.705 0 8.532 3.828 8.532 8.533v112.226c0 4.705-3.828 8.532-8.532 8.532h-296.597c-9.125 0-16.548-7.424-16.548-16.549v-117.44c4.813 2.979 10.483 4.698 16.548 4.698zm344.177-231.952v-70.068l70.587 70.585h-70.071c-.284 0-.516-.232-.516-.517z"/><path d="m191.871 263.5h176.354c4.142 0 7.5-3.358 7.5-7.5s-3.358-7.5-7.5-7.5h-176.354c-4.142 0-7.5 3.358-7.5 7.5s3.358 7.5 7.5 7.5z"/><path d="m191.871 223.419h176.354c4.142 0 7.5-3.358 7.5-7.5s-3.358-7.5-7.5-7.5h-176.354c-4.142 0-7.5 3.358-7.5 7.5s3.358 7.5 7.5 7.5z"/><path d="m304.097 183.339h64.129c4.142 0 7.5-3.358 7.5-7.5 0-4.143-3.358-7.5-7.5-7.5h-64.129c-4.142 0-7.5 3.357-7.5 7.5 0 4.141 3.358 7.5 7.5 7.5z"/><path d="m304.097 143.258h64.129c4.142 0 7.5-3.357 7.5-7.5 0-4.142-3.358-7.5-7.5-7.5h-64.129c-4.142 0-7.5 3.358-7.5 7.5s3.358 7.5 7.5 7.5z"/><path d="m291.1 425.113c8.979 0 17.035-2.947 23.294-8.522 1.226-1.093 2.392-2.295 3.465-3.574 2.662-3.174 2.247-7.904-.927-10.566s-7.905-2.247-10.566.927c-.607.725-1.263 1.401-1.949 2.012-3.519 3.134-8 4.724-13.318 4.724-14.256 0-25.854-11.598-25.854-25.855 0-14.256 11.598-25.854 25.854-25.854 5.182 0 10.179 1.525 14.45 4.411 3.433 2.318 8.095 1.416 10.413-2.016 2.319-3.433 1.417-8.095-2.016-10.414-6.761-4.568-14.661-6.982-22.848-6.982-22.527 0-40.854 18.327-40.854 40.854s18.328 40.855 40.856 40.855z"/><path d="m195.814 425.113c22.527 0 40.854-18.328 40.854-40.855s-18.327-40.854-40.854-40.854-40.855 18.327-40.855 40.854 18.328 40.855 40.855 40.855zm0-66.71c14.256 0 25.854 11.599 25.854 25.854 0 14.257-11.598 25.855-25.854 25.855s-25.855-11.598-25.855-25.855c0-14.255 11.599-25.854 25.855-25.854z"/><path d="m199.887 183.339h56.113c8.556 0 15.516-6.961 15.516-15.517v-24.048c0-8.556-6.96-15.517-15.516-15.517h-56.113c-8.556 0-15.516 6.961-15.516 15.517v24.048c0 8.556 6.961 15.517 15.516 15.517zm-.516-39.565c0-.285.231-.517.516-.517h56.113c.285 0 .516.231.516.517v24.048c0 .285-.231.517-.516.517h-56.113c-.285 0-.516-.231-.516-.517z"/><path d="m80.292 416.653c.007 1.989.805 3.895 2.216 5.296 1.405 1.395 3.305 2.177 5.284 2.177h.028c.554-.002 13.623-.052 18.842-.144 19.107-.334 32.975-17.04 32.975-39.725 0-23.846-13.52-39.868-33.642-39.868h-18.334c-1.992 0-3.901.792-5.308 2.202-1.407 1.409-2.196 3.32-2.192 5.312 0 0 .047 24.901.047 32.282 0 9.001.084 32.468.084 32.468zm25.704-57.263c13.745 0 18.642 12.847 18.642 24.868 0 16.861-9.16 24.568-18.237 24.727-2.547.044-7.144.08-11.134.104-.025-7.657-.059-19.195-.059-24.902 0-4.767-.02-16.834-.033-24.797z"/></g></g></svg>