<?xml version="1.0" encoding="UTF-8"?><svg xmlns="http://www.w3.org/2000/svg" xmlns:xlink="http://www.w3.org/1999/xlink" contentScriptType="text/ecmascript" width="375" zoomAndPan="magnify" contentStyleType="text/css" viewBox="0 0 375 374.999991" height="374.999991" preserveAspectRatio="xMidYMid meet" version="1.0"><defs><clipPath id="clip-0"><path d="M 74.851562 149 L 270 149 L 270 292 L 74.851562 292 Z M 74.851562 149 " clip-rule="nonzero"/></clipPath><clipPath id="clip-1"><path d="M 112 84 L 299.851562 84 L 299.851562 235 L 112 235 Z M 112 84 " clip-rule="nonzero"/></clipPath></defs><rect x="-37.5" width="450" fill="rgb(100%, 100%, 100%)" y="-37.499999" height="449.999989" fill-opacity="1"/><rect x="-37.5" width="450" fill="rgb(100%, 100%, 100%)" y="-37.499999" height="449.999989" fill-opacity="1"/><rect x="-37.5" width="450" fill="rgb(88.62915%, 90.979004%, 94.119263%)" y="-37.499999" height="449.999989" fill-opacity="1"/><g clip-path="url(#clip-0)"><path fill="rgb(38.42926%, 41.178894%, 46.269226%)" d="M 133.445312 248.921875 C 118.4375 248.921875 105.085938 239.292969 100.238281 224.957031 L 99.914062 223.878906 C 98.769531 220.082031 98.289062 216.890625 98.289062 213.695312 L 98.289062 149.652344 L 75.546875 225.71875 C 72.621094 236.90625 79.289062 248.507812 90.472656 251.597656 L 235.433594 290.496094 C 237.242188 290.964844 239.050781 291.191406 240.835938 291.191406 C 250.171875 291.191406 258.703125 284.980469 261.09375 275.832031 L 269.539062 248.921875 Z M 133.445312 248.921875 " fill-opacity="1" fill-rule="nonzero"/></g><path fill="rgb(38.42926%, 41.178894%, 46.269226%)" d="M 159.226562 150.292969 C 169.566406 150.292969 177.976562 141.863281 177.976562 131.503906 C 177.976562 121.144531 169.566406 112.714844 159.226562 112.714844 C 148.886719 112.714844 140.476562 121.144531 140.476562 131.503906 C 140.476562 141.863281 148.886719 150.292969 159.226562 150.292969 Z M 159.226562 150.292969 " fill-opacity="1" fill-rule="nonzero"/><g clip-path="url(#clip-1)"><path fill="rgb(38.42926%, 41.178894%, 46.269226%)" d="M 276.410156 84.535156 L 135.789062 84.535156 C 122.871094 84.535156 112.351562 95.078125 112.351562 108.019531 L 112.351562 211.347656 C 112.351562 224.292969 122.871094 234.832031 135.789062 234.832031 L 276.410156 234.832031 C 289.328125 234.832031 299.847656 224.292969 299.847656 211.347656 L 299.847656 108.019531 C 299.847656 95.078125 289.328125 84.535156 276.410156 84.535156 Z M 135.789062 103.324219 L 276.410156 103.324219 C 279 103.324219 281.097656 105.425781 281.097656 108.019531 L 281.097656 174.703125 L 251.484375 140.078125 C 248.34375 136.386719 243.796875 134.414062 238.910156 134.304688 C 234.054688 134.332031 229.5 136.492188 226.386719 140.230469 L 191.570312 182.105469 L 180.226562 170.765625 C 173.8125 164.34375 163.378906 164.34375 156.976562 170.765625 L 131.101562 196.683594 L 131.101562 108.019531 C 131.101562 105.425781 133.203125 103.324219 135.789062 103.324219 Z M 135.789062 103.324219 " fill-opacity="1" fill-rule="nonzero"/></g></svg>