<svg xmlns="http://www.w3.org/2000/svg" version="1.1" xmlns:xlink="http://www.w3.org/1999/xlink" xmlns:svgjs="http://svgjs.com/svgjs" width="512" height="512" x="0" y="0" viewBox="0 0 512 512" style="enable-background:new 0 0 512 512" xml:space="preserve" class=""><g><g xmlns="http://www.w3.org/2000/svg"><g><path d="m376.811 463.752h-351.622c-9.77 0-17.689-7.92-17.689-17.689v-337.687l261.586-36.092 125.414 36.092v337.687c0 9.77-7.92 17.689-17.689 17.689z" fill="#f9f7f8" data-original="#f9f7f8" class=""></path><path d="m370.041 108.376v337.687c0 9.769-7.92 17.689-17.689 17.689h24.459c9.77 0 17.689-7.92 17.689-17.689v-337.687z" fill="#efedef" data-original="#efedef"></path><path d="m376.811 48.248h-351.622c-9.77 0-17.689 7.92-17.689 17.689v42.439h387v-42.439c0-9.769-7.92-17.689-17.689-17.689z" fill="#eb5569" data-original="#eb5569"></path><path d="m376.811 48.248h-24.459c9.77 0 17.689 7.92 17.689 17.689v42.439h24.459v-42.439c0-9.769-7.92-17.689-17.689-17.689z" fill="#e53950" data-original="#e53950"></path><path d="m246.315 284.858-49.854-33.787c-6.378-4.322-14.993.246-14.993 7.951v67.574c0 7.704 8.616 12.273 14.993 7.951l49.854-33.787c5.622-3.81 5.622-12.092 0-15.902z" fill="#eb5569" data-original="#eb5569"></path><circle cx="417.802" cy="147.579" fill="#ffe177" r="68.18" data-original="#ffe177"></circle><path d="m417.802 79.399c-4.065 0-8.039.376-11.908 1.058 31.974 5.636 56.272 33.532 56.272 67.123s-24.298 61.487-56.272 67.123c3.869.682 7.844 1.058 11.908 1.058 37.655 0 68.18-30.525 68.18-68.18s-30.525-68.182-68.18-68.182z" fill="#ffd15b" data-original="#ffd15b"></path><circle cx="436.319" cy="230.195" fill="#f68157" r="68.18" data-original="#f68157"></circle><path d="m436.319 162.014c-4.065 0-8.039.376-11.908 1.058 31.974 5.636 56.272 33.532 56.272 67.123s-24.298 61.487-56.272 67.123c3.869.682 7.844 1.058 11.908 1.058 37.655 0 68.18-30.525 68.18-68.18s-30.525-68.182-68.18-68.182z" fill="#f26b38" data-original="#f26b38"></path><circle cx="389.666" cy="312.543" fill="#ffe177" r="68.18" data-original="#ffe177"></circle><path d="m389.666 244.363c-4.065 0-8.039.376-11.908 1.058 31.974 5.636 56.272 33.532 56.272 67.123s-24.298 61.487-56.272 67.123c3.869.682 7.844 1.058 11.908 1.058 37.655 0 68.18-30.525 68.18-68.18s-30.525-68.182-68.18-68.182z" fill="#ffd15b" data-original="#ffd15b"></path></g><g><path d="m45.25 70.812c-4.142 0-7.5 3.357-7.5 7.5s3.358 7.5 7.5 7.5h7.926c4.142 0 7.5-3.357 7.5-7.5s-3.358-7.5-7.5-7.5z" fill="#000000" data-original="#000000"></path><path d="m81.8 85.812h7.927c4.142 0 7.5-3.357 7.5-7.5s-3.358-7.5-7.5-7.5h-7.927c-4.142 0-7.5 3.357-7.5 7.5s3.358 7.5 7.5 7.5z" fill="#000000" data-original="#000000"></path><path d="m126.277 85.812c4.142 0 7.5-3.357 7.5-7.5s-3.358-7.5-7.5-7.5h-7.927c-4.142 0-7.5 3.357-7.5 7.5s3.358 7.5 7.5 7.5z" fill="#000000" data-original="#000000"></path><path d="m143.452 398.236c4.142 0 7.5-3.357 7.5-7.5v-4.83h172.076c4.143 0 7.5-3.357 7.5-7.5s-3.357-7.5-7.5-7.5h-172.076v-4.83c0-4.143-3.358-7.5-7.5-7.5s-7.5 3.357-7.5 7.5v4.83h-56.98c-4.142 0-7.5 3.357-7.5 7.5s3.358 7.5 7.5 7.5h56.979v4.83c.001 4.142 3.359 7.5 7.501 7.5z" fill="#000000" data-original="#000000"></path><path d="m137.287 154.297c4.142 0 7.5-3.357 7.5-7.5s-3.358-7.5-7.5-7.5h-61.432c-4.142 0-7.5 3.357-7.5 7.5s3.358 7.5 7.5 7.5z" fill="#000000" data-original="#000000"></path><path d="m191.076 343.707c3.357 0 6.701-.992 9.593-2.951l49.854-33.787c4.702-3.187 7.509-8.479 7.509-14.16 0-5.68-2.807-10.973-7.509-14.159l-49.854-33.787c-5.254-3.56-12.002-3.927-17.61-.951-5.607 2.974-9.091 8.764-9.091 15.11v67.574c0 6.348 3.483 12.138 9.091 15.111 2.522 1.338 5.274 2 8.017 2zm-2.108-84.685c0-1.046.608-1.588 1.118-1.858.268-.143.611-.265 1.002-.265.356 0 .752.102 1.165.382l49.854 33.787c.804.544.924 1.325.924 1.741 0 .417-.12 1.198-.924 1.742l-49.854 33.787c-.867.588-1.656.389-2.167.118-.51-.271-1.119-.813-1.119-1.86v-67.574z" fill="#000000" data-original="#000000"></path><path d="m511.119 218.624c-.629-4.094-4.453-6.905-8.552-6.274-4.094.629-6.903 4.458-6.274 8.552.469 3.054.707 6.181.707 9.293 0 24.205-14.697 46.142-36.513 55.656-2.832-7.489-6.819-14.415-11.744-20.559 6.48-3.952 10.599-10.652 11.714-17.28 1.888-11.232-4.2-21.38-15.148-25.25-5.769-2.039-12.14-4.495-15.647-7.246-.83-.651-1.179-2.331-.849-4.086.175-.929.988-4.031 4.101-4.969 7.337-2.212 13.793 1.37 14.039 1.51 3.53 2.11 8.104.984 10.249-2.534 2.156-3.536 1.038-8.151-2.499-10.308-.297-.181-4.716-2.821-11.28-3.915v-1.336c0-4.143-3.357-7.5-7.5-7.5s-7.5 3.357-7.5 7.5v2.271c-7.369 2.289-12.86 8.597-14.35 16.503-1.388 7.362 1.038 14.515 6.332 18.666 5.201 4.079 12.641 7.018 19.904 9.586 5.589 1.976 5.755 6.249 5.355 8.621-.613 3.648-3.477 7.566-8.393 8.226-13.012-10.556-29.583-16.889-47.605-16.889-4.613 0-9.132.415-13.519 1.21-.337-2.604-.508-5.237-.508-7.878 0-15.418 5.78-29.511 15.287-40.227 19.775-22.172 52.618-27.013 77.802-11.083 7.184 4.572 13.373 10.541 18.237 17.896 2.283 3.454 6.937 4.404 10.393 2.119 3.455-2.284 4.404-6.938 2.119-10.393-3.251-4.917-7.012-9.376-11.186-13.327 3.448-8.77 5.192-18.03 5.192-27.602 0-41.73-33.95-75.681-75.681-75.681-5.418 0-10.704.573-15.803 1.66v-7.622c0-13.89-11.3-25.189-25.188-25.189h-283.339c-4.142 0-7.5 3.357-7.5 7.5s3.358 7.5 7.5 7.5h283.339c5.618 0 10.188 4.571 10.188 10.189v12.517c-11.301 5.055-21.144 12.803-28.71 22.423h-343.289v-34.937c0-5.618 4.571-10.189 10.189-10.189h39.283c4.142 0 7.5-3.357 7.5-7.5s-3.358-7.5-7.5-7.5h-39.283c-13.889-.001-25.189 11.299-25.189 25.189v380.126c0 13.89 11.3 25.189 25.189 25.189h157.522c4.142 0 7.5-3.357 7.5-7.5s-3.358-7.5-7.5-7.5h-157.522c-5.618 0-10.189-4.571-10.189-10.189v-330.187h334.086c-4.469 9.648-6.965 20.39-6.965 31.703 0 20.991 8.581 40.738 23.726 55.018-3.362 8.555-5.209 17.864-5.209 27.597 0 4.05.322 8.086.959 12.063-27.875 11.171-47.613 38.467-47.613 70.285 0 40.838 32.513 74.224 73.014 75.634v57.885c0 5.618-4.57 10.189-10.188 10.189h-165.1c-4.142 0-7.5 3.357-7.5 7.5s3.358 7.5 7.5 7.5h165.1c13.889 0 25.188-11.3 25.188-25.189v-58.844c35.885-5.906 63.347-37.144 63.347-74.676 0-4.107-.329-8.139-.962-12.07 27.999-11.235 47.617-38.428 47.617-70.276 0-3.872-.296-7.765-.881-11.571zm-138.023-30.021c-10.24-11.128-15.975-25.661-15.975-41.023 0-33.459 27.222-60.681 60.681-60.681s60.681 27.222 60.681 60.681c0 6.196-.91 12.226-2.712 18.016-10.322-6.312-22.121-10.114-34.489-10.92-2.058-6.701-7.211-11.956-14.492-14.529-5.769-2.039-12.139-4.495-15.647-7.247-.829-.651-1.179-2.331-.848-4.086.175-.928.987-4.031 4.1-4.968 7.334-2.213 13.781 1.363 14.038 1.509 3.53 2.11 8.105.984 10.25-2.534 2.156-3.536 1.038-8.151-2.499-10.308-.296-.181-4.715-2.819-11.279-3.913v-1.338c0-4.143-3.357-7.5-7.5-7.5s-7.5 3.357-7.5 7.5v2.272c-7.368 2.288-12.86 8.596-14.35 16.503-1.388 7.362 1.039 14.516 6.331 18.666 5.201 4.079 12.641 7.019 19.905 9.587.922.326 1.729.724 2.42 1.193-17.678 2.855-33.326 11.855-44.673 24.731-.021.024-.042.048-.063.072-.032.037-.065.074-.097.11-2.269 2.576-4.37 5.317-6.282 8.207zm16.571 184.621c-33.459 0-60.681-27.222-60.681-60.681 0-33.562 27.325-60.681 60.681-60.681 33.459 0 60.68 27.222 60.68 60.681s-27.222 60.681-60.68 60.681z" fill="#000000" data-original="#000000"></path><path d="m398.655 305.111c-5.77-2.039-12.141-4.495-15.647-7.246-.83-.651-1.179-2.331-.849-4.086.175-.929.988-4.031 4.101-4.969 7.34-2.213 13.793 1.371 14.039 1.511 3.529 2.106 8.104.983 10.249-2.535 2.156-3.536 1.038-8.151-2.499-10.308-.297-.181-4.716-2.821-11.28-3.915v-1.337c0-4.143-3.357-7.5-7.5-7.5s-7.5 3.357-7.5 7.5v2.272c-7.369 2.289-12.86 8.597-14.35 16.503-1.388 7.362 1.038 14.515 6.331 18.666 5.2 4.078 12.64 7.018 19.905 9.586 5.589 1.976 5.755 6.249 5.355 8.621-.669 3.981-4.019 8.285-9.792 8.323-6.085.029-7.829-.235-12.421-3.238-3.465-2.266-8.113-1.296-10.382 2.171-2.268 3.466-1.296 8.114 2.171 10.382 5.011 3.278 8.779 4.73 13.182 5.323v2.026c0 4.143 3.357 7.5 7.5 7.5s7.5-3.357 7.5-7.5v-2.807c9.541-2.993 15.641-11.4 17.035-19.693 1.888-11.233-4.2-21.38-15.148-25.25z" fill="#000000" data-original="#000000"></path></g></g></g></svg>