<svg xmlns="http://www.w3.org/2000/svg" version="1.1" xmlns:xlink="http://www.w3.org/1999/xlink" xmlns:svgjs="http://svgjs.com/svgjs" width="512" height="512" x="0" y="0" viewBox="0 0 512 512" style="enable-background:new 0 0 512 512" xml:space="preserve" class=""><g><g xmlns="http://www.w3.org/2000/svg"><g><path d="m96.519 328.492h-61.305c-15.306 0-27.714 12.408-27.714 27.714v119.434c0 15.306 12.408 27.714 27.714 27.714h61.305c15.306 0 27.714-12.408 27.714-27.714v-119.434c0-15.306-12.408-27.714-27.714-27.714z" fill="#f98797" data-original="#f98797"></path><path d="m286.652 260.762h-61.305c-15.306 0-27.714 12.408-27.714 27.714v187.164c0 15.306 12.408 27.714 27.714 27.714h61.305c15.306 0 27.714-12.408 27.714-27.714v-187.164c.001-15.306-12.407-27.714-27.714-27.714z" fill="#eed491" data-original="#eed491"></path><path d="m476.786 193.032h-61.305c-15.306 0-27.714 12.408-27.714 27.714v254.894c0 15.306 12.408 27.714 27.714 27.714h61.305c15.306 0 27.714-12.408 27.714-27.714v-254.894c0-15.306-12.408-27.714-27.714-27.714z" fill="#7cdcf9" data-original="#7cdcf9"></path><path d="m435.294 9.018-55.439 12.854c-10.67 2.474-14.459 15.714-6.715 23.459l8.323 8.323-125.996 117.824-83.132-70.971c-6.797-5.803-16.867-5.574-23.395.53l-85.933 80.36c-5.045 4.718-5.31 12.632-.592 17.676l6.904 7.382c4.718 5.045 12.631 5.31 17.676.592l74.472-69.642 83.132 70.971c6.797 5.804 16.869 5.574 23.395-.53l138.316-129.346 9.415 9.415c7.745 7.745 20.985 3.955 23.459-6.715l12.854-55.438c2.331-10.058-6.688-19.076-16.744-16.744z" fill="#71d5b4" data-original="#71d5b4" class=""></path><path d="m47.141 358.892c0-10.547 1.49-20.746 4.266-30.4h-16.193c-15.306 0-27.714 12.408-27.714 27.714v119.434c0 15.306 12.408 27.714 27.714 27.714h61.305c15.306 0 27.714-12.408 27.714-27.714v-11.883c-44.668-13.929-77.092-55.61-77.092-104.865z" fill="#e35b70" data-original="#e35b70"></path><path d="m239.141 328.814c0-24.339 5.447-47.402 15.174-68.053h-28.968c-15.306 0-27.714 12.408-27.714 27.714v187.165c0 15.306 12.408 27.714 27.714 27.714h61.305c15.306 0 27.714-12.408 27.714-27.714v-11.171c-45.173-28.259-75.225-78.443-75.225-135.655z" fill="#f9c772" data-original="#f9c772"></path><path d="m429.141 263.232c0-24.656 4.347-48.296 12.309-70.2h-25.969c-15.306 0-27.714 12.408-27.714 27.714v254.894c0 15.306 12.408 27.714 27.714 27.714h61.305c15.306 0 27.714-12.408 27.714-27.714v-53.377c-46-37.684-75.359-94.927-75.359-159.031z" fill="#2fc9f5" data-original="#2fc9f5"></path><path d="m198.902 144.445c0-6.881.347-13.681 1.02-20.385l-27.588-23.552c-6.797-5.803-16.867-5.573-23.395.53l-85.933 80.359c-5.045 4.717-5.31 12.631-.592 17.676l6.904 7.382c4.718 5.045 12.631 5.309 17.676.592l74.472-69.642 39.153 33.425c-1.127-8.636-1.717-17.441-1.717-26.385z" fill="#31c695" data-original="#31c695" class=""></path></g><g><path d="m35.214 510.857h61.305c19.417 0 35.214-15.797 35.214-35.214v-119.434c0-19.417-15.797-35.214-35.214-35.214h-61.305c-19.417 0-35.214 15.797-35.214 35.214v119.434c0 19.417 15.797 35.214 35.214 35.214zm-20.214-154.648c0-11.146 9.068-20.214 20.214-20.214h61.305c11.146 0 20.214 9.068 20.214 20.214v119.434c0 11.146-9.068 20.214-20.214 20.214h-61.305c-11.146 0-20.214-9.068-20.214-20.214z" fill="#000000" data-original="#000000" class=""></path><path d="m197.634 425.945c-4.142 0-7.5 3.358-7.5 7.5v42.198c0 19.417 15.797 35.214 35.214 35.214h61.305c19.417 0 35.214-15.797 35.214-35.214v-187.164c0-19.417-15.797-35.214-35.214-35.214h-61.305c-19.417 0-35.214 15.797-35.214 35.214v114.966c0 4.142 3.358 7.5 7.5 7.5s7.5-3.358 7.5-7.5v-114.966c0-11.146 9.068-20.214 20.214-20.214h61.305c11.146 0 20.214 9.068 20.214 20.214v187.164c0 11.146-9.068 20.214-20.214 20.214h-61.305c-11.146 0-20.214-9.068-20.214-20.214v-42.198c0-4.142-3.358-7.5-7.5-7.5z" fill="#000000" data-original="#000000" class=""></path><path d="m504.5 282.556c4.142 0 7.5-3.358 7.5-7.5v-54.307c0-19.417-15.797-35.214-35.214-35.214h-61.305c-19.417 0-35.214 15.797-35.214 35.214v254.894c0 19.417 15.797 35.214 35.214 35.214h61.305c19.417 0 35.214-15.797 35.214-35.214v-170.587c0-4.142-3.358-7.5-7.5-7.5s-7.5 3.358-7.5 7.5v170.587c0 11.146-9.068 20.214-20.214 20.214h-61.305c-11.146 0-20.214-9.068-20.214-20.214v-254.894c0-11.146 9.068-20.214 20.214-20.214h61.305c11.146 0 20.214 9.068 20.214 20.214v54.307c0 4.142 3.358 7.5 7.5 7.5z" fill="#000000" data-original="#000000" class=""></path><path d="m410.422 93.221c11.917 11.918 32.261 6.096 36.068-10.324l12.854-55.438c3.582-15.446-10.266-29.334-25.744-25.744l-55.438 12.854c-16.417 3.806-22.244 24.15-10.324 36.068l2.839 2.839-115.438 107.95-78.035-66.619c-9.708-8.289-24.061-7.964-33.387.755l-85.932 80.36c-8.058 7.534-8.482 20.219-.947 28.277l6.904 7.382c7.535 8.057 20.219 8.482 28.277.947l69.577-65.064 78.035 66.618c9.682 8.268 24.037 7.99 33.388-.755l133.016-124.392zm-147.551 109.151c-3.743 3.5-9.504 3.631-13.402.303l-83.132-70.971c-2.893-2.47-7.196-2.389-9.992.226l-74.472 69.642c-2.016 1.886-5.19 1.779-7.075-.237l-6.904-7.382c-1.889-2.02-1.784-5.185.237-7.076l85.932-80.359c3.744-3.5 9.506-3.631 13.403-.304l83.132 70.971c2.903 2.478 7.204 2.381 9.992-.226l125.995-117.825c3.094-2.893 3.18-7.783.181-10.781l-8.323-8.323c-3.581-3.582-1.838-9.703 3.105-10.849l55.438-12.854c4.65-1.078 8.823 3.091 7.744 7.744l-12.854 55.438c-1.146 4.94-7.265 6.689-10.849 3.105l-9.415-9.415c-2.859-2.86-7.472-2.938-10.426-.175z" fill="#000000" data-original="#000000" class=""></path></g></g></g></svg>