<svg xmlns="http://www.w3.org/2000/svg" version="1.1" xmlns:xlink="http://www.w3.org/1999/xlink" xmlns:svgjs="http://svgjs.com/svgjs" width="512" height="512" x="0" y="0" viewBox="0 0 512 512" style="enable-background:new 0 0 512 512" xml:space="preserve" class=""><g><g xmlns="http://www.w3.org/2000/svg"><g><path d="m210.089 420.511h-181.716v-27.659l125.929-125.929h28.177c30.908 36.631 50.969 82.71 55.221 133.293z" fill="#df75a5" data-original="#df75a5" class=""></path><path d="m484.205 440.806h-436.85c-16.168 0-30.613-9.652-36.8-24.589s-2.798-31.977 8.634-43.41l295.667-295.668c7.926-7.926 20.776-7.926 28.701 0s7.926 20.775 0 28.7l-294.376 294.375 435.024.002c11.208 0 20.294 9.086 20.294 20.294.001 11.21-9.085 20.296-20.294 20.296z" fill="#9dc6fb" data-original="#9dc6fb" class=""></path><path d="m38.874 372.806c-11.436 11.436-14.825 28.473-8.635 43.42 6.19 14.937 20.629 24.587 36.804 24.587h-19.686c-16.175 0-30.614-9.65-36.804-24.587-6.19-14.947-2.801-31.984 8.635-43.42l295.669-295.658c6.555-6.555 16.479-7.692 24.191-3.399-1.613.893-3.136 2.029-4.505 3.399z" fill="#80b4fb" data-original="#80b4fb"></path><path d="m363.05 376.466c-7.334 0-13.795-5.315-15.006-12.789-8.698-53.681-30.206-105.411-62.197-149.597-4.929-6.809-3.406-16.325 3.403-21.255 6.811-4.929 16.326-3.405 21.255 3.403 34.763 48.014 58.134 104.233 67.589 162.579 1.345 8.298-4.292 16.115-12.59 17.46-.824.134-1.645.199-2.454.199z" fill="#ffe07d" data-original="#ffe07d"></path></g><g><path d="m484.21 392.714h-239.722c-5.154-45.984-22.991-89.034-51.911-125.287l156.288-156.283c10.829-10.842 10.828-28.474-.003-39.304-5.252-5.252-12.232-8.144-19.657-8.144-7.426 0-14.405 2.894-19.648 8.144l-295.673 295.663c-13.579 13.591-17.608 33.837-10.262 51.585 4.954 11.938 14.269 21.131 26.228 25.885 3.85 1.53 8.209-.35 9.74-4.199 1.53-3.849-.35-8.21-4.199-9.74-8.164-3.245-14.525-9.529-17.911-17.688-5.017-12.121-2.263-25.954 7.014-35.239l295.673-295.663c2.413-2.417 5.624-3.748 9.039-3.748 3.418 0 6.632 1.332 9.051 3.751 4.985 4.985 4.983 13.103 0 18.093l-294.381 294.37c-2.145 2.145-2.786 5.371-1.625 8.173 1.16 2.803 3.896 4.63 6.929 4.63h435.03c7.053 0 12.79 5.742 12.79 12.8 0 7.052-5.737 12.79-12.79 12.79h-421.85c-4.143 0-7.5 3.358-7.5 7.5s3.357 7.5 7.5 7.5h421.85c15.323 0 27.79-12.467 27.79-27.79 0-15.329-12.467-27.799-27.79-27.799zm-302.307-114.612c26.184 33.314 42.477 72.635 47.49 114.612h-162.106z" fill="#000000" data-original="#000000"></path><path d="m293.648 198.899c3.448-2.497 8.288-1.722 10.789 1.727 3.872 5.341 7.698 10.948 11.374 16.664 2.239 3.483 6.878 4.493 10.365 2.252 3.483-2.24 4.492-6.881 2.252-10.365-3.826-5.95-7.812-11.79-11.847-17.355-7.353-10.142-21.587-12.417-31.73-5.073-10.147 7.347-12.425 21.582-5.077 31.733 31.312 43.244 52.358 93.865 60.863 146.398 1.803 11.058 11.229 19.083 22.412 19.083 1.271 0 2.52-.104 3.646-.296 5.994-.968 11.251-4.213 14.803-9.138 3.551-4.925 4.97-10.938 3.995-16.926-6.915-42.658-20.901-83.757-41.568-122.154-1.964-3.646-6.51-5.014-10.159-3.049-3.647 1.963-5.013 6.511-3.05 10.159 19.875 36.924 33.323 76.438 39.972 117.45.331 2.035-.151 4.076-1.356 5.749-1.206 1.672-2.991 2.774-5.094 3.114-.362.062-.762.093-1.188.093-3.794 0-6.994-2.732-7.606-6.489-8.876-54.825-30.84-107.659-63.519-152.789-2.499-3.452-1.726-8.292 1.723-10.788z" fill="#000000" data-original="#000000"></path><path d="m450.7 257.986c.208 0 .419-.002.629-.006 16.017-.323 29.214-13.099 30.044-29.086.441-8.513-2.542-16.599-8.4-22.769-5.775-6.083-13.894-9.571-22.273-9.571-2.429 0-4.54.118-6.441.344l2.648-15.989h22.16c4.143 0 7.5-3.358 7.5-7.5s-3.357-7.5-7.5-7.5h-28.52c-3.669 0-6.8 2.654-7.399 6.274l-5.649 34.101c-.462 2.79.698 5.596 2.979 7.268s5.322 1.912 7.844.631c.062-.032.285-.141.639-.301 3.125-1.406 5.63-2.328 11.739-2.328 4.349 0 8.396 1.74 11.396 4.899 2.998 3.158 4.524 7.3 4.298 11.663-.424 8.171-7.174 14.701-15.366 14.866-5.828.146-11.257-2.994-14.094-8.123-2.005-3.624-6.567-4.938-10.193-2.933-3.625 2.005-4.938 6.568-2.934 10.193 5.436 9.831 15.698 15.867 26.893 15.867z" fill="#000000" data-original="#000000"></path><path d="m356.606 227.994c1.349 2.285 3.805 3.687 6.458 3.687h30.429c-.044 6.648-.091 13.075-.138 18.738-.033 4.142 3.297 7.527 7.438 7.561h.062c4.113 0 7.465-3.318 7.499-7.439.026-3.307.082-10.347.14-18.86h2.236c4.143 0 7.5-3.358 7.5-7.5s-3.357-7.5-7.5-7.5h-2.145c.103-18.91.152-38.737-.067-41.366-.468-5.622-3.815-10.197-8.528-11.657-4.659-1.443-9.646.399-13.338 4.928-4.371 5.362-25.887 44.234-30.156 51.972-1.281 2.324-1.239 5.152.11 7.436zm37.067-42.615c.017 7.602-.024 19.14-.089 31.302h-17.779c6.814-12.207 13.508-23.965 17.868-31.302z" fill="#000000" data-original="#000000"></path><path d="m486.163 164.803c10.89 0 19.749-8.859 19.749-19.749s-8.859-19.748-19.749-19.748c-10.889 0-19.748 8.859-19.748 19.748s8.859 19.749 19.748 19.749zm0-24.497c2.618 0 4.749 2.13 4.749 4.748s-2.131 4.749-4.749 4.749-4.748-2.13-4.748-4.749c0-2.618 2.13-4.748 4.748-4.748z" fill="#000000" data-original="#000000"></path></g></g></g></svg>