<svg xmlns="http://www.w3.org/2000/svg" version="1.1" xmlns:xlink="http://www.w3.org/1999/xlink" xmlns:svgjs="http://svgjs.com/svgjs" width="512" height="512" x="0" y="0" viewBox="0 0 511.059 511.059" style="enable-background:new 0 0 512 512" xml:space="preserve" class=""><g><g xmlns="http://www.w3.org/2000/svg"><g id="XMLID_725_"><g><g><path d="m363.174 193.381v275.51c0 19.14-15.52 34.67-34.67 34.67h-146.58c-19.15 0-34.67-15.53-34.67-34.67v-275.51c0-19.14 15.52-34.67 34.67-34.67h27.77 96.76 22.05c19.15 0 34.67 15.53 34.67 34.67z" fill="#f9f7f8" data-original="#f9f7f8" class=""></path></g></g></g><path d="m219.362 468.891v-275.51c0-19.14 15.52-34.67 34.67-34.67h-44.338-27.77c-19.15 0-34.67 15.53-34.67 34.67v275.51c0 19.14 15.52 34.67 34.67 34.67h72.108c-19.15 0-34.67-15.53-34.67-34.67z" fill="#efedef" data-original="#efedef"></path><path d="m214.692 220.672c0 11.729 7.959 21.863 19.354 24.643 2.02.493 4.05.73 6.054.73 9.301 0 18.029-5.125 22.467-13.682l38.256-73.653h-86.131z" fill="#efedef" data-original="#efedef"></path><path d="m290.875 188.713h36.34c3.29 0 5.957 2.667 5.957 5.957v62.006c0 3.29-2.667 5.957-5.957 5.957h-144.002c-3.29 0-5.957-2.667-5.957-5.957v-62.006c0-3.29 2.667-5.957 5.957-5.957h26.479z" fill="#c8effe" data-original="#c8effe" class=""></path><path d="m177.256 363.121v-62.006c0-3.29 2.667-5.957 5.957-5.957h144.002c3.29 0 5.957 2.667 5.957 5.957v62.006c0 3.29-2.667 5.957-5.957 5.957h-144.002c-3.29 0-5.957-2.667-5.957-5.957z" fill="#99e6fc" data-original="#99e6fc" class=""></path><path d="m183.213 295.157c-3.29 0-5.957 2.667-5.957 5.957v62.006c0 3.29 2.667 5.957 5.957 5.957h36.149v-73.921h-36.149z" fill="#62dbfb" data-original="#62dbfb"></path><path d="m177.256 469.565v-62.006c0-3.29 2.667-5.957 5.957-5.957h144.002c3.29 0 5.957 2.667 5.957 5.957v62.006c0 3.29-2.667 5.957-5.957 5.957h-144.002c-3.29 0-5.957-2.667-5.957-5.957z" fill="#62dbfb" data-original="#62dbfb"></path><path d="m219.362 401.602h-36.149c-3.29 0-5.957 2.667-5.957 5.958v62.006c0 3.29 2.667 5.957 5.957 5.957h36.79c-.416-2.147-.641-4.363-.641-6.632z" fill="#01d0fb" data-original="#01d0fb"></path><g><g id="XMLID_724_"><g><path d="m474.684 241.631c.16 4.39-3.32 8.05-7.72 8.05h-25.19c-4.13 0-7.58-3.24-7.75-7.37-1.13-27.91-8.67-54.17-21.18-77.34h.01l35.8-19.27c15.51 28.72 24.79 61.3 26.03 95.93z" fill="#eb5569" data-original="#eb5569" class=""></path><path d="m448.654 145.701-35.8 19.27h-.01c-15.5-28.74-38.65-52.74-66.72-69.27-.79-.48-1.59-.94-2.4-1.4l.01-.01 20.07-35.35c35.78 20.35 65.28 50.48 84.85 86.76z" fill="#f07281" data-original="#f07281"></path><path d="m62.404 145.701 35.8 19.27c-12.51 23.17-20.04 49.43-21.17 77.34-.17 4.13-3.62 7.37-7.75 7.37h-25.19c-4.4 0-7.88-3.66-7.72-8.05 1.25-34.63 10.53-67.2 26.03-95.93z" fill="#fee97d" data-original="#fee97d"></path><path d="m167.324 94.291.01.02c-29.15 16.57-53.18 41.11-69.13 70.66l-35.8-19.27c19.57-36.28 49.07-66.42 84.85-86.77z" fill="#c2fae3" data-original="#c2fae3"></path><path d="m343.734 94.291-.01.01c.81.46 1.61.92 2.4 1.4l-.02.03c-26.57-15.1-57.66-23.78-90.89-23.78-27.82 0-54.13 6.08-77.55 16.92-3.51 1.7-6.96 3.51-10.33 5.44l-.01-.02-20.07-35.36c10.97-6.24 22.53-11.56 34.57-15.86l-.01-.04c23.25-7.94 48-12.08 73.4-12.08 30.18 0 59.45 5.85 86.39 16.98 7.64 3.25 15.04 6.93 22.2 11.01z" fill="#6cf5c2" data-original="#6cf5c2"></path></g></g></g><path d="m219.684 188.713h-4.992-5-26.479c-3.29 0-5.957 2.667-5.957 5.957v62.006c0 3.29 2.667 5.957 5.957 5.957h36.149v-17.107c0-3.471 3.855-5.569 6.755-3.66 2.371 1.561 5.038 2.743 7.93 3.448 2.02.493 4.05.73 6.054.73 9.301 0 18.029-5.125 22.467-13.682l22.672-43.65h-65.556z" fill="#99e6fc" data-original="#99e6fc" class=""></path><path d="m246.464 125.113h-30.893c-2.072 0-3.751-1.679-3.751-3.751v-109.199c0-2.576 2.088-4.664 4.664-4.664h74.736c3.03 0 5.255 2.844 4.527 5.784l-22.25 89.875h22.219c2.639 0 4.339 2.798 3.122 5.14l-58.455 112.54c-.176.34-.69.214-.69-.169v-95.559" fill="#fee97d" data-original="#fee97d"></path><path d="m257.029 112.549h-18.981c-2.072 0-3.751-1.679-3.751-3.751v-101.298h-17.813c-2.576 0-4.664 2.088-4.664 4.664v109.198c0 2.072 1.679 3.751 3.751 3.751h24.121v95.559c0 .383.514.508.69.168l21.787-41.945v-61.207c0-2.838-2.301-5.139-5.14-5.139z" fill="#fee45a" data-original="#fee45a"></path><g><path d="m328.501 151.213h-22.044c-4.143 0-7.5 3.357-7.5 7.5s3.357 7.5 7.5 7.5h22.044c14.982 0 27.171 12.189 27.171 27.172v275.502c0 14.982-12.188 27.172-27.171 27.172h-146.573c-14.982 0-27.172-12.189-27.172-27.172v-275.502c0-14.982 12.189-27.172 27.172-27.172h27.765c4.142 0 7.5-3.357 7.5-7.5s-3.358-7.5-7.5-7.5h-27.765c-23.253 0-42.172 18.918-42.172 42.172v275.502c0 23.254 18.918 42.172 42.172 42.172h146.574c23.253 0 42.171-18.918 42.171-42.172v-275.502c-.001-23.254-18.919-42.172-42.172-42.172z" fill="#000000" data-original="#000000" class=""></path><path d="m340.672 194.67c0-7.42-6.037-13.457-13.457-13.457h-36.34c-4.143 0-7.5 3.357-7.5 7.5s3.357 7.5 7.5 7.5h34.797v58.921h-140.916v-58.921h24.937c4.142 0 7.5-3.357 7.5-7.5s-3.358-7.5-7.5-7.5h-26.479c-7.42 0-13.458 6.037-13.458 13.457v62.006c0 7.421 6.037 13.458 13.458 13.458h144.002c7.42 0 13.457-6.037 13.457-13.458v-62.006z" fill="#000000" data-original="#000000" class=""></path><path d="m340.672 301.114c0-7.42-6.037-13.457-13.457-13.457h-144.002c-7.42 0-13.458 6.037-13.458 13.457v62.007c0 7.42 6.037 13.457 13.458 13.457h91.042c4.143 0 7.5-3.357 7.5-7.5s-3.357-7.5-7.5-7.5h-89.5v-58.921h140.917v58.921h-19.454c-4.143 0-7.5 3.357-7.5 7.5s3.357 7.5 7.5 7.5h20.997c7.42 0 13.457-6.037 13.457-13.457z" fill="#000000" data-original="#000000" class=""></path><path d="m327.215 394.102h-144.002c-7.42 0-13.457 6.037-13.457 13.457v62.007c0 7.42 6.037 13.457 13.457 13.457h144.002c7.42 0 13.457-6.037 13.457-13.457v-62.007c0-7.42-6.037-13.457-13.457-13.457zm-1.543 73.92h-140.916v-58.921h140.917v58.921z" fill="#000000" data-original="#000000" class=""></path><path d="m215.571 132.612h16.621v89.556c0 3.457 2.363 6.466 5.721 7.286.594.145 1.19.215 1.781.215 2.749 0 5.342-1.519 6.654-4.044l59.146-113.868c1.789-3.445 1.654-7.482-.361-10.8-2.015-3.317-5.535-5.298-9.417-5.298h-12.636l4.218-17.033c.995-4.021-1.457-8.088-5.478-9.083-4.022-.993-8.088 1.457-9.083 5.478l-6.521 26.336c-.555 2.239-.048 4.608 1.374 6.425s3.6 2.878 5.906 2.878h15.664l-41.968 80.799v-58.882c3.8-.366 6.772-3.567 6.772-7.463 0-4.143-3.358-7.5-7.5-7.5h-27.144v-102.614h68.276l-7.176 28.983c-.995 4.021 1.457 8.088 5.478 9.083 4.021.994 8.088-1.457 9.083-5.478l8.047-32.503c.904-3.656.092-7.454-2.229-10.419-2.322-2.965-5.813-4.666-9.579-4.666h-74.736c-6.707 0-12.164 5.456-12.164 12.163v109.198c0 6.204 5.047 11.251 11.251 11.251z" fill="#000000" data-original="#000000" class=""></path><path d="m455.366 142.38c-.039-.078-.07-.158-.112-.236-.04-.075-.088-.143-.131-.216-27.694-51.273-74.761-91.23-132.952-109.094-3.957-1.213-8.156 1.008-9.371 4.969-1.216 3.96 1.009 8.155 4.969 9.371 12.501 3.837 24.448 8.773 35.756 14.672l-12.696 22.366c-9.059-4.683-18.574-8.661-28.491-11.836-3.946-1.265-8.166.911-9.43 4.855-1.264 3.945.911 8.167 4.855 9.43 68.142 21.816 115.871 84.491 118.769 155.957.33 8.166 7.024 14.562 15.24 14.562h25.195c4.165 0 8.051-1.651 10.943-4.649 2.863-2.969 4.42-7.04 4.271-11.171-1.275-35.404-10.763-69.102-26.815-98.98zm-101.501-50.748 12.708-22.387c29.774 18.333 54.358 43.685 71.792 73.475l-22.698 12.221c-15.154-25.558-36.309-47.389-61.802-63.309zm113.251 150.483c-.062.063-.109.063-.147.063h-25.195c-.149 0-.25-.11-.252-.168-1.06-26.149-7.646-51.212-18.731-73.87l22.688-12.216c12.97 26.263 20.612 55.439 21.714 85.974.001.04.005.132-.077.217z" fill="#000000" data-original="#000000" class=""></path><path d="m188.65 83.814c-1.711-3.771-6.155-5.442-9.928-3.731-2.871 1.302-5.7 2.684-8.494 4.126l-12.693-22.362c8.614-4.493 17.561-8.413 26.806-11.711 3.901-1.392 5.935-5.683 4.543-9.584s-5.683-5.937-9.584-4.543c-42.339 15.105-78.96 42.248-105.903 78.492-27.464 36.944-42.859 80.811-44.521 126.857-.149 4.131 1.408 8.202 4.272 11.171 2.892 2.998 6.778 4.649 10.943 4.649h25.195c8.215 0 14.91-6.396 15.24-14.561 1.394-34.358 12.947-67.113 33.413-94.725 2.466-3.327 1.769-8.024-1.559-10.491-3.329-2.467-8.025-1.77-10.492 1.56-3.818 5.151-7.344 10.47-10.585 15.931l-22.623-12.18c3.881-6.613 8.132-13.044 12.755-19.263 16.25-21.859 36.27-40.166 59.056-54.197l12.698 22.37c-10.399 6.482-20.16 13.987-29.168 22.46-3.018 2.838-3.163 7.584-.325 10.602 1.476 1.569 3.468 2.361 5.465 2.361 1.842 0 3.689-.675 5.137-2.037 13.788-12.967 29.473-23.486 46.622-31.265 3.771-1.711 5.441-6.156 3.73-9.929zm-100.478 84.275c-11.218 22.949-17.583 48.016-18.634 73.922-.002.057-.103.167-.252.167h-25.195c-.039 0-.086 0-.147-.063-.083-.086-.079-.178-.078-.217 1.089-30.178 8.503-59.348 21.688-85.988z" fill="#000000" data-original="#000000" class=""></path></g></g></g></svg>