<svg xmlns="http://www.w3.org/2000/svg" xmlns:xlink="http://www.w3.org/1999/xlink" width="512" zoomAndPan="magnify" viewBox="0 0 384 383.999986" height="512" preserveAspectRatio="xMidYMid meet" version="1.0"><defs><g/><clipPath id="id1"><path d="M 7.5 7.5 L 231 7.5 L 231 231 L 7.5 231 Z M 7.5 7.5 " clip-rule="nonzero"/></clipPath><clipPath id="id2"><path d="M 153.332031 153.332031 L 376.832031 153.332031 L 376.832031 376.832031 L 153.332031 376.832031 Z M 153.332031 153.332031 " clip-rule="nonzero"/></clipPath><clipPath id="id3"><path d="M 36 38 L 149 38 L 149 151 L 36 151 Z M 36 38 " clip-rule="nonzero"/></clipPath><clipPath id="id4"><path d="M 201.652344 95 L 92.9375 203.714844 L -15.78125 95 L 92.9375 -13.71875 Z M 201.652344 95 " clip-rule="nonzero"/></clipPath><clipPath id="id5"><path d="M 201.652344 95 L 92.9375 203.714844 L -15.78125 95 L 92.9375 -13.71875 Z M 201.652344 95 " clip-rule="nonzero"/></clipPath></defs><g clip-path="url(#id1)"><path fill="#eceaec" d="M 205.390625 7.5 L 33.109375 7.5 C 18.984375 7.5 7.5 18.984375 7.5 33.109375 L 7.5 205.390625 C 7.5 219.515625 18.984375 231 33.109375 231 L 205.390625 231 C 219.515625 231 231 219.515625 231 205.390625 L 231 33.109375 C 231 18.984375 219.515625 7.5 205.390625 7.5 Z M 205.390625 7.5 " fill-opacity="1" fill-rule="nonzero"/><path fill="#000000" d="M 205.390625 231 L 33.109375 231 C 18.984375 231 7.5 219.515625 7.5 205.390625 L 7.5 33.109375 C 7.5 18.984375 18.984375 7.5 33.109375 7.5 L 205.390625 7.5 C 219.515625 7.5 231 18.984375 231 33.109375 L 231 205.390625 C 231 219.515625 219.515625 231 205.390625 231 Z M 33.109375 21.46875 C 26.695312 21.46875 21.46875 26.695312 21.46875 33.109375 L 21.46875 205.390625 C 21.46875 211.808594 26.695312 217.03125 33.109375 217.03125 L 205.390625 217.03125 C 211.804688 217.03125 217.03125 211.808594 217.03125 205.390625 L 217.03125 33.109375 C 217.03125 26.695312 211.804688 21.46875 205.390625 21.46875 Z M 33.109375 21.46875 " fill-opacity="1" fill-rule="nonzero"/></g><g clip-path="url(#id2)"><path fill="#ffafbf" d="M 351.222656 153.332031 L 178.945312 153.332031 C 164.816406 153.332031 153.332031 164.816406 153.332031 178.945312 L 153.332031 351.222656 C 153.332031 365.351562 164.816406 376.832031 178.945312 376.832031 L 351.222656 376.832031 C 365.351562 376.832031 376.832031 365.351562 376.832031 351.222656 L 376.832031 178.945312 C 376.832031 164.816406 365.351562 153.332031 351.222656 153.332031 Z M 351.222656 153.332031 " fill-opacity="1" fill-rule="nonzero"/><path fill="#000000" d="M 351.222656 376.832031 L 178.945312 376.832031 C 164.816406 376.832031 153.332031 365.351562 153.332031 351.222656 L 153.332031 178.945312 C 153.332031 164.816406 164.816406 153.332031 178.945312 153.332031 L 351.222656 153.332031 C 365.351562 153.332031 376.832031 164.816406 376.832031 178.945312 L 376.832031 351.222656 C 376.832031 365.351562 365.351562 376.832031 351.222656 376.832031 Z M 178.945312 167.300781 C 172.527344 167.300781 167.300781 172.527344 167.300781 178.945312 L 167.300781 351.222656 C 167.300781 357.640625 172.527344 362.863281 178.945312 362.863281 L 351.222656 362.863281 C 357.640625 362.863281 362.863281 357.640625 362.863281 351.222656 L 362.863281 178.945312 C 362.863281 172.527344 357.640625 167.300781 351.222656 167.300781 Z M 178.945312 167.300781 " fill-opacity="1" fill-rule="nonzero"/></g><g clip-path="url(#id3)"><g clip-path="url(#id4)"><g clip-path="url(#id5)"><path fill="#000000" d="M 38.105469 49.175781 L 104.523438 132.179688 L 86.84375 136.808594 C 81.464844 138.226562 82.183594 146.058594 87.71875 146.488281 L 143.421875 150.777344 C 146.429688 151.007812 148.941406 148.496094 148.707031 145.488281 L 144.421875 89.789062 C 144.003906 84.238281 136.164062 83.535156 134.757812 88.898438 L 130.097656 106.574219 L 47.117188 40.164062 C 41.179688 35.382812 33.324219 43.234375 38.105469 49.175781 Z M 38.105469 49.175781 " fill-opacity="1" fill-rule="nonzero"/></g></g></g><g fill="#000000" fill-opacity="1"><g transform="translate(203.727281, 293.616656)"><g><path d="M 20.40625 0.6875 C 14.738281 0.6875 10.40625 -1.453125 7.40625 -5.734375 C 4.414062 -10.023438 2.921875 -16.140625 2.921875 -24.078125 C 2.921875 -32.097656 4.414062 -38.191406 7.40625 -42.359375 C 10.40625 -46.535156 14.738281 -48.625 20.40625 -48.625 C 26.113281 -48.625 30.453125 -46.535156 33.421875 -42.359375 C 36.390625 -38.191406 37.875 -32.117188 37.875 -24.140625 C 37.875 -16.160156 36.378906 -10.023438 33.390625 -5.734375 C 30.398438 -1.453125 26.070312 0.6875 20.40625 0.6875 Z M 20.40625 -6.453125 C 23.488281 -6.453125 25.765625 -7.878906 27.234375 -10.734375 C 28.703125 -13.597656 29.4375 -18.066406 29.4375 -24.140625 C 29.4375 -30.210938 28.703125 -34.617188 27.234375 -37.359375 C 25.765625 -40.109375 23.488281 -41.484375 20.40625 -41.484375 C 17.363281 -41.484375 15.09375 -40.109375 13.59375 -37.359375 C 12.101562 -34.617188 11.359375 -30.210938 11.359375 -24.140625 C 11.359375 -18.066406 12.101562 -13.597656 13.59375 -10.734375 C 15.09375 -7.878906 17.363281 -6.453125 20.40625 -6.453125 Z M 20.40625 -6.453125 "/></g></g></g><g fill="#000000" fill-opacity="1"><g transform="translate(244.522604, 293.616656)"><g><path d="M 10.609375 0 C 8.117188 0 6.875 -1.222656 6.875 -3.671875 C 6.875 -6.023438 8.117188 -7.203125 10.609375 -7.203125 L 18.21875 -7.203125 L 18.21875 -38.015625 L 12.4375 -34.546875 C 11.351562 -33.910156 10.367188 -33.75 9.484375 -34.0625 C 8.597656 -34.382812 7.925781 -34.953125 7.46875 -35.765625 C 7.019531 -36.578125 6.882812 -37.472656 7.0625 -38.453125 C 7.25 -39.429688 7.882812 -40.238281 8.96875 -40.875 L 18.359375 -46.515625 C 19.265625 -47.054688 20.171875 -47.519531 21.078125 -47.90625 C 21.984375 -48.289062 22.820312 -48.484375 23.59375 -48.484375 C 24.550781 -48.484375 25.34375 -48.222656 25.96875 -47.703125 C 26.601562 -47.179688 26.921875 -46.332031 26.921875 -45.15625 L 26.921875 -7.203125 L 33.859375 -7.203125 C 36.359375 -7.203125 37.609375 -6.023438 37.609375 -3.671875 C 37.609375 -1.222656 36.359375 0 33.859375 0 Z M 10.609375 0 "/></g></g></g><g fill="#000000" fill-opacity="1"><g transform="translate(285.317927, 293.616656)"><g><path d="M 20.40625 0.6875 C 14.738281 0.6875 10.40625 -1.453125 7.40625 -5.734375 C 4.414062 -10.023438 2.921875 -16.140625 2.921875 -24.078125 C 2.921875 -32.097656 4.414062 -38.191406 7.40625 -42.359375 C 10.40625 -46.535156 14.738281 -48.625 20.40625 -48.625 C 26.113281 -48.625 30.453125 -46.535156 33.421875 -42.359375 C 36.390625 -38.191406 37.875 -32.117188 37.875 -24.140625 C 37.875 -16.160156 36.378906 -10.023438 33.390625 -5.734375 C 30.398438 -1.453125 26.070312 0.6875 20.40625 0.6875 Z M 20.40625 -6.453125 C 23.488281 -6.453125 25.765625 -7.878906 27.234375 -10.734375 C 28.703125 -13.597656 29.4375 -18.066406 29.4375 -24.140625 C 29.4375 -30.210938 28.703125 -34.617188 27.234375 -37.359375 C 25.765625 -40.109375 23.488281 -41.484375 20.40625 -41.484375 C 17.363281 -41.484375 15.09375 -40.109375 13.59375 -37.359375 C 12.101562 -34.617188 11.359375 -30.210938 11.359375 -24.140625 C 11.359375 -18.066406 12.101562 -13.597656 13.59375 -10.734375 C 15.09375 -7.878906 17.363281 -6.453125 20.40625 -6.453125 Z M 20.40625 -6.453125 "/></g></g></g></svg>