<svg xmlns="http://www.w3.org/2000/svg" version="1.1" xmlns:xlink="http://www.w3.org/1999/xlink" xmlns:svgjs="http://svgjs.com/svgjs" width="512" height="512" x="0" y="0" viewBox="0 0 512 512" style="enable-background:new 0 0 512 512" xml:space="preserve" class=""><g><g xmlns="http://www.w3.org/2000/svg"><g><path d="m483.765 454.977h-408.526c-5.806 0-10.513-4.707-10.513-12.183v-177.944-89.174-155.065c0-5.792-4.686-10.493-10.478-10.511l-25.983-.08c-5.818-.018-10.543 4.693-10.543 10.511v184.313 91.768 185.33c0 11.067 8.972 20.039 20.039 20.039h446.004c5.806 0 10.513-4.707 10.513-10.513v-25.978c0-5.807-4.707-10.513-10.513-10.513z" fill="#dc72a9" data-original="#dc72a9"></path><path d="m190.204 252.992h-60.117c-5.534 0-10.02 4.486-10.02 10.02v188.957h80.157v-188.957c-.001-5.534-4.487-10.02-10.02-10.02z" fill="#ffcd69" data-original="#ffcd69"></path><path d="m430.673 252.992h-60.117c-5.534 0-10.02 4.486-10.02 10.02v188.957h80.157v-188.957c0-5.534-4.486-10.02-10.02-10.02z" fill="#66e0f7" data-original="#66e0f7"></path><path d="m350.517 315.63h-60.117c-5.534 0-10.02 4.486-10.02 10.02v126.319h80.157v-126.319c-.001-5.534-4.487-10.02-10.02-10.02z" fill="#8481e2" data-original="#8481e2"></path><path d="m270.36 178.851h-60.117c-5.534 0-10.02 4.486-10.02 10.02v263.099h80.157v-263.1c0-5.534-4.486-10.019-10.02-10.019z" fill="#ffdcd5" data-original="#ffdcd5" class=""></path><circle cx="160.145" cy="95.952" fill="#ffcd69" r="20.039" data-original="#ffcd69"></circle><circle cx="400.615" cy="95.952" fill="#66e0f7" r="20.039" data-original="#66e0f7"></circle><circle cx="320.458" cy="136.03" fill="#8481e2" r="20.039" data-original="#8481e2"></circle><circle cx="240.301" cy="46.99" fill="#ffdcd5" r="20.039" data-original="#ffdcd5" class=""></circle></g><g><circle cx="64.626" cy="220.264" r="10" fill="#000000" data-original="#000000" class=""></circle><path d="m483.765 444.957h-33.053v-181.945c0-11.05-8.99-20.039-20.039-20.039h-60.117c-11.049 0-20.039 8.989-20.039 20.039v42.599h-60.117v-116.741c0-11.05-8.99-20.039-20.039-20.039h-60.117c-11.049 0-20.039 8.989-20.039 20.039v54.103h-60.117c-11.049 0-20.039 8.989-20.039 20.039v181.942h-34.824c-.146-.187-.477-.844-.477-2.159v-177.945c0-5.533-4.486-10.02-10.02-10.02s-10.02 4.486-10.02 10.02v177.944c0 12.657 8.827 22.202 20.532 22.202h408.526c.272 0 .493.221.493.493v25.978c0 .272-.221.493-.493.493h-446.005c-5.525 0-10.02-4.495-10.02-10.02v-461.41c0-.061 0-.204.144-.347.145-.145.29-.144.348-.144l25.984.081c.27.001.489.221.489.49v155.066c0 5.533 4.486 10.02 10.02 10.02s10.02-4.486 10.02-10.02v-155.065c0-11.286-9.182-20.495-20.466-20.529l-25.985-.082c-.022 0-.043 0-.064 0-5.471 0-10.617 2.126-14.493 5.991-3.892 3.88-6.035 9.043-6.035 14.539v461.411c0 16.575 13.484 30.059 30.058 30.059h446.004c11.321 0 20.532-9.21 20.532-20.532v-25.978c0-11.323-9.21-20.533-20.532-20.533zm-113.209-181.945h60.117v181.945l-60.117-.001zm-20.039 62.638v119.306l-60.117-.001v-119.305zm-140.274-136.78h60.117v256.085l-60.117-.001zm-80.157 74.142h60.117v181.942l-60.117-.001z" fill="#000000" data-original="#000000" class=""></path><path d="m160.145 126.011c9.415 0 17.829-4.354 23.345-11.151 1.011-1.156 1.869-2.502 2.64-3.826l30.26-45.857c5.496 7.209 14.168 11.872 23.912 11.872 7.727 0 14.78-2.932 20.11-7.74l31.235 75.278c3.695 12.418 15.209 21.502 28.811 21.502 10.209 0 19.241-5.121 24.676-12.924.013-.017 30.474-40.557 30.474-40.557 5.395 8.073 14.589 13.402 25.007 13.402 16.574 0 30.059-13.484 30.059-30.059s-13.484-30.059-30.059-30.059c-10.178 0-19.185 5.09-24.626 12.853-.021.027-30.526 40.624-30.526 40.624-5.395-8.071-14.588-13.399-25.005-13.399-7.662 0-14.661 2.886-19.975 7.623 0 0-32.392-78.053-32.407-78.088-4.521-10.893-15.265-18.575-27.774-18.575-9.384 0-17.774 4.324-23.291 11.083-1.072 1.247-32.945 49.763-32.945 49.763-5.496-7.215-14.172-11.884-23.921-11.884-16.574 0-30.059 13.484-30.059 30.059s13.484 30.06 30.059 30.06zm250.489-30.059c0 5.524-4.495 10.02-10.02 10.02s-10.02-4.495-10.02-10.02c0-5.524 4.495-10.02 10.02-10.02s10.02 4.496 10.02 10.02zm-90.176 30.059c5.525 0 10.02 4.495 10.02 10.02s-4.495 10.02-10.02 10.02-10.02-4.495-10.02-10.02 4.495-10.02 10.02-10.02zm-70.137-79.021c0 5.524-4.495 10.02-10.02 10.02s-10.02-4.495-10.02-10.02c0-1.623.396-3.152 1.084-4.509l1.284-1.945c1.839-2.177 4.585-3.565 7.652-3.565 5.525 0 10.02 4.495 10.02 10.019zm-90.176 38.942c5.525 0 10.02 4.495 10.02 10.02 0 1.66-.412 3.224-1.13 4.604l-1.177 1.784c-1.839 2.217-4.614 3.632-7.713 3.632-5.525 0-10.02-4.495-10.02-10.02 0-5.524 4.495-10.02 10.02-10.02z" fill="#000000" data-original="#000000" class=""></path></g></g></g></svg>