<svg xmlns="http://www.w3.org/2000/svg" version="1.1" xmlns:xlink="http://www.w3.org/1999/xlink" xmlns:svgjs="http://svgjs.com/svgjs" width="512" height="512" x="0" y="0" viewBox="0 0 512 512" style="enable-background:new 0 0 512 512" xml:space="preserve" class=""><g><g xmlns="http://www.w3.org/2000/svg"><g><path clip-rule="evenodd" d="m502 255.986c0-135.862-110.152-245.986-246.014-245.986s-245.986 110.124-245.986 245.986 110.124 246.014 245.986 246.014c41.272 0 80.134-10.176 114.291-28.119-9.921-12.557-15.817-28.431-15.817-45.665 0-40.733 33.023-73.756 73.756-73.756 17.234 0 33.108 5.896 45.665 15.817 17.943-34.157 28.119-73.02 28.119-114.291zm-318.41-44.73 94.732-94.732c32.201-32.229 84.924-32.229 117.154 0 32.201 32.201 32.201 84.924 0 117.154l-66.953 66.925-.142.142-94.704 94.732c-32.229 32.201-84.953 32.201-117.154 0-32.229-32.229-32.229-84.953 0-117.154l66.925-66.953c.057-.029.086-.086.142-.114z" fill="#fff1a0" fill-rule="evenodd" data-original="#fff1a0" class=""></path></g><g><path clip-rule="evenodd" d="m395.476 233.678c32.201-32.229 32.201-84.953 0-117.154-32.229-32.229-84.953-32.229-117.154 0l-94.732 94.732c21.656-21.571 52.525-28.629 80.219-21.174l44.05-44.021c15.902-15.93 42.15-15.93 58.081 0 15.902 15.902 15.902 42.15 0 58.081l-44.05 44.021-22.904 22.903c-5.046 5.046-11.112 8.504-17.574 10.346-13.946 3.968-29.621.539-40.506-10.346-10.856-10.856-14.315-26.56-10.318-40.478-6.463 1.842-12.557 5.272-17.603 10.318l-22.904 22.904c3.657 13.493 10.743 26.248 21.288 36.793s23.3 17.66 36.793 21.288c27.694 7.455 58.563.425 80.219-21.146l.142-.142z" fill="#cbf4fb" fill-rule="evenodd" data-original="#cbf4fb"></path></g><g><path clip-rule="evenodd" d="m183.59 211.256-.142.113c.057-.028.086-.085.142-.113zm80.219-21.174c-27.694-7.455-58.563-.397-80.219 21.174l-.142.113-66.925 66.953c-32.229 32.201-32.229 84.924 0 117.154 32.201 32.201 84.924 32.201 117.154 0l94.704-94.732c-21.656 21.571-52.525 28.601-80.219 21.146l-44.021 44.05c-15.93 15.902-42.179 15.902-58.081 0-15.93-15.93-15.93-42.179 0-58.081l44.021-44.05 22.904-22.904c5.046-5.046 11.14-8.475 17.603-10.318 13.918-3.997 29.621-.539 40.478 10.318 10.885 10.885 14.315 26.588 10.346 40.506 6.463-1.842 12.529-5.301 17.574-10.346l22.904-22.903c-3.628-13.493-10.743-26.248-21.288-36.793-10.544-10.544-23.3-17.631-36.793-21.287z" fill="#98eaf9" fill-rule="evenodd" data-original="#98eaf9" class=""></path></g><g><path clip-rule="evenodd" d="m248.162 321.89c-13.493-3.628-26.248-10.743-36.793-21.288s-17.631-23.3-21.288-36.793l-44.021 44.05c-15.93 15.902-15.93 42.15 0 58.081 15.902 15.902 42.15 15.902 58.081 0z" fill="#fff1a0" fill-rule="evenodd" data-original="#fff1a0" class=""></path></g><g><path clip-rule="evenodd" d="m271.066 240.906c-10.857-10.856-26.56-14.315-40.478-10.318-3.997 13.918-.539 29.621 10.318 40.478 10.885 10.885 26.56 14.315 40.506 10.346 3.969-13.918.539-29.621-10.346-40.506z" fill="#ffec80" fill-rule="evenodd" data-original="#ffec80"></path></g><g><path clip-rule="evenodd" d="m365.94 204.141c15.902-15.93 15.902-42.179 0-58.081-15.93-15.93-42.179-15.93-58.081 0l-44.05 44.021c13.493 3.657 26.248 10.743 36.793 21.288s17.659 23.3 21.288 36.793z" fill="#fff1a0" fill-rule="evenodd" data-original="#fff1a0" class=""></path></g><g><path clip-rule="evenodd" d="m473.881 370.277c-12.557-9.921-28.431-15.817-45.665-15.817-40.733 0-73.756 33.023-73.756 73.756 0 17.234 5.896 33.108 15.817 45.665 13.464 17.064 34.327 28.034 57.741 28.119h.198.198c40.591-.113 73.473-32.995 73.586-73.586v-.198-.198c-.085-23.415-11.055-44.277-28.119-57.741z" fill="#a0e5a5" fill-rule="evenodd" data-original="#a0e5a5"></path></g><g><path d="m336.889 82.352c-24.866 0-48.178 9.626-65.637 27.1l-94.874 94.846c-.003.003-.006.007-.009.01l-66.913 66.941c-17.478 17.463-27.104 40.774-27.104 65.641 0 24.864 9.624 48.183 27.101 65.658 18.094 18.094 41.858 27.138 65.636 27.138 23.771 0 47.555-9.049 65.661-27.139l161.8-161.8c36.181-36.213 36.18-95.111-.003-131.294-17.477-17.476-40.794-27.101-65.658-27.101zm-110.28 306.049c-28.413 28.389-74.626 28.394-103.014.003-13.699-13.698-21.243-31.993-21.243-51.516 0-19.521 7.543-37.808 21.244-51.497l66.92-66.948c19.007-18.99 45.972-25.257 70.243-18.844.281.09.565.165.852.229 11.699 3.243 22.743 9.435 31.92 18.611 7.62 7.622 13.429 16.85 17.013 26.935l-17.959 17.951c-1.426-11.013-6.389-21.431-14.448-29.49-19.894-19.895-52.289-19.898-72.224.002l-22.669 22.678c-.078.074-.152.152-.228.228l-44.021 44.039c-9.598 9.58-14.884 22.403-14.884 36.107 0 13.7 5.283 26.528 14.877 36.122 9.948 9.948 23.019 14.921 36.098 14.921 13.076 0 26.162-4.975 36.128-14.924l40.069-40.095c6.077 1.226 12.323 1.862 18.673 1.862 3.679 0 7.318-.236 10.916-.652zm55.304-202.273 33.022-33.003c5.802-5.812 13.598-9.013 21.953-9.013 8.357 0 16.164 3.203 21.979 9.02 11.898 11.897 11.896 32.022.002 43.938l-33.035 33.02c-4.516-9.529-10.646-18.275-18.162-25.792-7.7-7.702-16.437-13.747-25.759-18.17zm-9.042 86.75c-.962.087-1.934.135-2.914.135-8.358 0-16.164-3.203-21.98-9.02-6.545-6.545-9.71-15.667-8.866-24.805 8.95-.814 18.211 2.114 24.885 8.789 6.559 6.56 9.729 15.722 8.875 24.901zm-86.716 9.015c4.525 9.544 10.65 18.288 18.143 25.781 7.598 7.598 16.302 13.707 25.755 18.191l-32.975 32.997c-11.923 11.9-32.048 11.905-43.945.006-5.816-5.815-9.02-13.622-9.02-21.979 0-8.355 3.201-16.151 9.021-21.961zm202.251-55.288-66.955 66.927-.001.001-.001.001c-13.685 13.697-31.972 21.24-51.492 21.24-6.495 0-12.849-.853-18.948-2.472-.003-.001-.005-.001-.008-.002-12.23-3.248-23.422-9.629-32.56-18.769-7.589-7.589-13.394-16.815-17.002-26.928l17.954-17.961c1.416 11.01 6.377 21.429 14.443 29.495 9.593 9.593 22.422 14.877 36.122 14.877 13.704 0 26.526-5.286 36.099-14.876l66.961-66.932c19.891-19.926 19.889-52.322-.006-72.217-9.594-9.594-22.422-14.877-36.122-14.877-13.704 0-26.527 5.286-36.1 14.875l-40.095 40.07c-9.727-1.98-19.708-2.386-29.545-1.235l54.247-54.23c13.685-13.696 31.972-21.24 51.492-21.24 19.522 0 37.817 7.545 51.516 21.243 28.388 28.387 28.386 74.6.001 103.01z" fill="#000000" data-original="#000000" class=""></path><path d="m486.276 367.917c16.849-34.669 25.724-73.196 25.724-111.932 0-51.975-15.516-102.049-44.87-144.809-3.126-4.554-9.35-5.711-13.903-2.585-4.554 3.125-5.711 9.351-2.585 13.903 27.056 39.416 41.358 85.575 41.358 133.491 0 34.937-7.427 68.401-22.045 99.654-12.299-7.096-26.547-11.18-41.739-11.18-46.184 0-83.756 37.572-83.756 83.756 0 15.192 4.083 29.44 11.18 41.739-31.254 14.619-64.718 22.046-99.655 22.046-130.123 0-235.985-105.876-235.985-236.015 0-130.123 105.862-235.985 235.985-235.985 48.324 0 94.766 14.488 134.304 41.898 4.536 3.147 10.769 2.019 13.915-2.521 3.147-4.538 2.019-10.769-2.521-13.915-42.9-29.741-93.281-45.462-145.698-45.462-68.38 0-132.664 26.626-181.012 74.974s-74.973 112.631-74.973 181.011c0 68.382 26.626 132.671 74.973 181.026 48.349 48.357 112.634 74.989 181.012 74.989 38.735 0 77.263-8.875 111.931-25.724 15.247 15.839 36.635 25.724 60.3 25.724 46.199 0 83.784-37.585 83.784-83.784 0-23.665-9.885-45.053-25.724-60.299zm-58.06 124.083c-35.155 0-63.756-28.613-63.756-63.784 0-35.155 28.601-63.756 63.756-63.756 35.171 0 63.784 28.601 63.784 63.756 0 35.171-28.613 63.784-63.784 63.784z" fill="#000000" data-original="#000000" class=""></path><path d="m459.581 401.104c-4.234-3.544-10.54-2.988-14.088 1.246l-26.115 31.186-9.646-8.163c-4.217-3.568-10.527-3.042-14.094 1.174-3.567 4.217-3.042 10.526 1.174 14.094l17.319 14.655c1.812 1.533 4.104 2.366 6.46 2.366.284 0 .57-.012.855-.037 2.651-.228 5.103-1.502 6.812-3.542l32.569-38.891c3.546-4.235 2.987-10.543-1.246-14.088z" fill="#000000" data-original="#000000" class=""></path><path d="m422.873 89.127c1.949 1.949 4.499 2.922 7.051 2.922 2.56 0 5.121-.98 7.077-2.937 3.905-3.905 3.892-10.251-.014-14.156-3.906-3.904-10.236-3.904-14.143 0-3.905 3.905-3.905 10.237 0 14.143z" fill="#000000" data-original="#000000" class=""></path></g></g></g></svg>