<svg xmlns="http://www.w3.org/2000/svg" xmlns:xlink="http://www.w3.org/1999/xlink" width="512" zoomAndPan="magnify" viewBox="0 0 384 383.999986" height="512" preserveAspectRatio="xMidYMid meet" version="1.0"><defs><clipPath id="id1"><path d="M 9.398438 8.773438 L 376.148438 8.773438 L 376.148438 376.273438 L 9.398438 376.273438 Z M 9.398438 8.773438 " clip-rule="nonzero"/></clipPath></defs><g clip-path="url(#id1)"><path fill="#ffffff" d="M 9.398438 8.777344 L 376.148438 8.777344 L 376.148438 376.273438 L 9.398438 376.273438 L 9.398438 8.777344 " fill-opacity="1" fill-rule="nonzero"/></g><path fill="#ebe7f2" d="M 6.546875 358.363281 L 377.453125 358.363281 L 377.453125 377.453125 L 6.546875 377.453125 Z M 6.546875 358.363281 " fill-opacity="1" fill-rule="nonzero"/><path fill="#ebe7f2" d="M 49.703125 293.652344 L 90.347656 293.652344 L 90.347656 334.296875 L 49.703125 334.296875 Z M 49.703125 293.652344 " fill-opacity="1" fill-rule="nonzero"/><path fill="#ebe7f2" d="M 131.019531 293.652344 L 171.664062 293.652344 L 171.664062 334.296875 L 131.019531 334.296875 Z M 131.019531 293.652344 " fill-opacity="1" fill-rule="nonzero"/><path fill="#ebe7f2" d="M 212.335938 293.652344 L 252.980469 293.652344 L 252.980469 334.296875 L 212.335938 334.296875 Z M 212.335938 293.652344 " fill-opacity="1" fill-rule="nonzero"/><path fill="#ebe7f2" d="M 90.371094 252.980469 L 131.019531 252.980469 L 131.019531 293.628906 L 90.371094 293.628906 Z M 90.371094 252.980469 " fill-opacity="1" fill-rule="nonzero"/><path fill="#ebe7f2" d="M 171.664062 252.980469 L 212.335938 252.980469 L 212.335938 293.628906 L 171.664062 293.628906 Z M 171.664062 252.980469 " fill-opacity="1" fill-rule="nonzero"/><path fill="#ebe7f2" d="M 49.703125 212.335938 L 90.347656 212.335938 L 90.347656 252.980469 L 49.703125 252.980469 Z M 49.703125 212.335938 " fill-opacity="1" fill-rule="nonzero"/><path fill="#ebe7f2" d="M 131.019531 212.335938 L 171.664062 212.335938 L 171.664062 252.980469 L 131.019531 252.980469 Z M 131.019531 212.335938 " fill-opacity="1" fill-rule="nonzero"/><path fill="#ebe7f2" d="M 90.371094 171.664062 L 131.019531 171.664062 L 131.019531 212.335938 L 90.371094 212.335938 Z M 90.371094 171.664062 " fill-opacity="1" fill-rule="nonzero"/><path fill="#ebe7f2" d="M 49.703125 131.019531 L 90.347656 131.019531 L 90.347656 171.664062 L 49.703125 171.664062 Z M 49.703125 131.019531 " fill-opacity="1" fill-rule="nonzero"/><path fill="#846f75" d="M 382.910156 6.546875 L 382.910156 377.453125 C 382.910156 380.464844 380.464844 382.910156 377.453125 382.910156 L 6.546875 382.910156 C 3.535156 382.910156 1.089844 380.464844 1.089844 377.453125 L 1.089844 6.546875 C 1.089844 3.535156 3.535156 1.089844 6.546875 1.089844 L 377.453125 1.089844 C 380.464844 1.089844 382.910156 3.535156 382.910156 6.546875 Z M 372 12 L 12 12 L 12 372 L 372 372 Z M 49.703125 339.753906 C 46.691406 339.753906 44.246094 337.308594 44.246094 334.296875 L 44.246094 90.347656 C 44.246094 87.339844 46.691406 84.894531 49.703125 84.894531 L 90.371094 84.894531 C 93.382812 84.894531 95.824219 87.339844 95.824219 90.347656 L 95.824219 125.5625 L 131.019531 125.5625 C 134.027344 125.5625 136.472656 128.007812 136.472656 131.019531 L 136.472656 166.210938 L 171.664062 166.210938 C 174.675781 166.210938 177.121094 168.65625 177.121094 171.664062 L 177.121094 206.878906 L 212.335938 206.878906 C 215.34375 206.878906 217.789062 209.324219 217.789062 212.335938 L 217.789062 247.527344 L 252.980469 247.527344 C 255.992188 247.527344 258.4375 249.972656 258.4375 252.980469 L 258.4375 288.175781 L 293.652344 288.175781 C 296.660156 288.175781 299.105469 290.617188 299.105469 293.628906 L 299.105469 334.296875 C 299.105469 337.308594 296.660156 339.753906 293.652344 339.753906 Z M 55.15625 328.84375 L 288.195312 328.84375 L 288.195312 299.105469 L 252.980469 299.105469 C 249.972656 299.105469 247.527344 296.660156 247.527344 293.652344 L 247.527344 258.4375 L 212.335938 258.4375 C 209.324219 258.4375 206.878906 255.992188 206.878906 252.980469 L 206.878906 217.789062 L 171.664062 217.789062 C 168.65625 217.789062 166.210938 215.34375 166.210938 212.335938 L 166.210938 177.121094 L 131.019531 177.121094 C 128.007812 177.121094 125.5625 174.675781 125.5625 171.664062 L 125.5625 136.472656 L 90.371094 136.472656 C 87.339844 136.472656 84.917969 134.027344 84.917969 131.019531 L 84.917969 95.804688 L 55.15625 95.804688 Z M 55.15625 328.84375 " fill-opacity="1" fill-rule="evenodd"/><path fill="#f9b087" d="M 174.480469 83.171875 C 177.25 83.171875 179.5 85.394531 179.5 88.167969 L 179.5 118.820312 C 179.5 121.570312 177.25 123.816406 174.480469 123.816406 L 143.847656 123.816406 C 141.078125 123.816406 138.828125 121.59375 138.828125 118.820312 L 138.828125 88.167969 C 138.828125 85.394531 141.078125 83.171875 143.847656 83.171875 Z M 174.480469 83.171875 " fill-opacity="1" fill-rule="nonzero"/><path fill="#f9b087" d="M 219.839844 128.507812 L 219.839844 159.164062 C 219.839844 161.933594 217.59375 164.160156 214.820312 164.160156 L 184.1875 164.160156 C 181.417969 164.160156 179.171875 161.933594 179.171875 159.164062 L 179.171875 128.507812 C 179.171875 125.761719 181.417969 123.511719 184.1875 123.511719 L 214.820312 123.511719 C 217.59375 123.511719 219.839844 125.761719 219.839844 128.507812 Z M 219.839844 128.507812 " fill-opacity="1" fill-rule="nonzero"/><path fill="#f9b087" d="M 220.144531 47.519531 L 220.144531 78.152344 C 220.144531 80.921875 217.898438 83.171875 215.148438 83.171875 L 184.496094 83.171875 C 181.722656 83.171875 179.5 80.921875 179.5 78.152344 L 179.5 47.519531 C 179.5 44.75 181.722656 42.5 184.496094 42.5 L 215.148438 42.5 C 217.898438 42.5 220.144531 44.75 220.144531 47.519531 Z M 220.144531 47.519531 " fill-opacity="1" fill-rule="nonzero"/><path fill="#f9b087" d="M 138.828125 47.519531 L 138.828125 78.152344 C 138.828125 80.921875 136.605469 83.171875 133.832031 83.171875 L 103.179688 83.171875 C 100.429688 83.171875 98.183594 80.921875 98.183594 78.152344 L 98.183594 47.519531 C 98.183594 44.75 100.429688 42.5 103.179688 42.5 L 133.832031 42.5 C 136.605469 42.5 138.828125 44.75 138.828125 47.519531 Z M 138.828125 47.519531 " fill-opacity="1" fill-rule="nonzero"/><path fill="#f9b087" d="M 255.492188 164.160156 C 258.238281 164.160156 260.488281 166.40625 260.488281 169.179688 L 260.488281 199.8125 C 260.488281 202.582031 258.261719 204.828125 255.492188 204.828125 L 224.835938 204.828125 C 222.066406 204.828125 219.839844 202.582031 219.839844 199.8125 L 219.839844 169.179688 C 219.839844 166.40625 222.066406 164.160156 224.835938 164.160156 Z M 255.492188 164.160156 " fill-opacity="1" fill-rule="nonzero"/><path fill="#f9b087" d="M 336.808594 164.160156 C 339.554688 164.160156 341.804688 166.40625 341.804688 169.179688 L 341.804688 199.8125 C 341.804688 202.582031 339.554688 204.828125 336.808594 204.828125 L 306.152344 204.828125 C 303.382812 204.828125 301.15625 202.582031 301.15625 199.8125 L 301.15625 169.179688 C 301.15625 166.40625 303.382812 164.160156 306.152344 164.160156 Z M 336.808594 164.160156 " fill-opacity="1" fill-rule="nonzero"/><path fill="#f9b087" d="M 341.804688 250.472656 L 341.804688 281.128906 C 341.804688 283.898438 339.554688 286.125 336.808594 286.125 L 306.152344 286.125 C 303.382812 286.125 301.15625 283.898438 301.15625 281.128906 L 301.15625 250.472656 C 301.15625 247.722656 303.382812 245.476562 306.152344 245.476562 L 336.808594 245.476562 C 339.554688 245.476562 341.804688 247.722656 341.804688 250.472656 Z M 341.804688 250.472656 " fill-opacity="1" fill-rule="nonzero"/><path fill="#f9b087" d="M 255.796875 83.171875 C 258.566406 83.171875 260.816406 85.394531 260.792969 88.167969 L 260.792969 118.820312 C 260.792969 121.570312 258.566406 123.816406 255.796875 123.816406 L 225.140625 123.816406 C 222.394531 123.816406 220.144531 121.59375 220.144531 118.820312 L 220.144531 88.167969 C 220.144531 85.394531 222.394531 83.171875 225.140625 83.171875 Z M 255.796875 83.171875 " fill-opacity="1" fill-rule="nonzero"/><path fill="#f9b087" d="M 301.15625 209.824219 L 301.15625 240.480469 C 301.15625 243.230469 298.910156 245.476562 296.136719 245.476562 L 265.503906 245.476562 C 262.734375 245.476562 260.488281 243.230469 260.488281 240.480469 L 260.488281 209.824219 C 260.488281 207.054688 262.734375 204.828125 265.503906 204.828125 L 296.136719 204.828125 C 298.910156 204.828125 301.15625 207.054688 301.15625 209.824219 Z M 301.15625 209.824219 " fill-opacity="1" fill-rule="nonzero"/><path fill="#f9b087" d="M 301.15625 128.507812 L 301.15625 159.164062 C 301.15625 161.933594 298.910156 164.160156 296.136719 164.160156 L 265.503906 164.160156 C 262.734375 164.160156 260.488281 161.933594 260.488281 159.164062 L 260.488281 128.507812 C 260.488281 125.761719 262.734375 123.511719 265.503906 123.511719 L 296.136719 123.511719 C 298.910156 123.511719 301.15625 125.761719 301.15625 128.507812 Z M 301.15625 128.507812 " fill-opacity="1" fill-rule="nonzero"/><path fill="#f9b087" d="M 301.460938 47.519531 L 301.460938 78.152344 C 301.460938 80.921875 299.214844 83.171875 296.464844 83.171875 L 265.8125 83.171875 C 263.039062 83.171875 260.792969 80.921875 260.792969 78.152344 L 260.792969 47.519531 C 260.792969 44.75 263.039062 42.5 265.8125 42.5 L 296.464844 42.5 C 299.214844 42.5 301.460938 44.75 301.460938 47.519531 Z M 301.460938 47.519531 " fill-opacity="1" fill-rule="nonzero"/><path fill="#f9b087" d="M 341.804688 87.863281 L 341.804688 118.496094 C 341.804688 121.265625 339.554688 123.511719 336.808594 123.511719 L 306.152344 123.511719 C 303.382812 123.511719 301.15625 121.265625 301.15625 118.496094 L 301.15625 87.863281 C 301.15625 85.089844 303.382812 82.84375 306.152344 82.84375 L 336.808594 82.84375 C 339.554688 82.84375 341.804688 85.089844 341.804688 87.863281 Z M 341.804688 87.863281 " fill-opacity="1" fill-rule="nonzero"/></svg>