<svg id="Capa_1" enable-background="new 0 0 512 512" height="512" viewBox="0 0 512 512" width="512" xmlns="http://www.w3.org/2000/svg"><g><g><path d="m132 428h336c4.418 0 8-3.582 8-8v-240c0-4.418-3.582-8-8-8h-336c-4.418 0-8 3.582-8 8v240c0 4.418 3.582 8 8 8z" fill="#edf4ff"/><path d="m388 372h-352c-17.673 0-32-14.327-32-32v-256c0-17.673 14.327-32 32-32h352c17.673 0 32 14.327 32 32v256c0 17.673-14.327 32-32 32z" fill="#dbeaff"/><path d="m28 324v-270.869c-13.777 3.569-24 15.975-24 30.869v240z" fill="#c3ddff"/><path d="m340 188-90.028 38.583c-14.17 6.073-30.056 6.827-44.738 2.123l-25.242-8.087c-12.886-4.129-26.986-1.462-37.475 7.087l-98.517 80.294 192 8z" fill="#b3e59f"/><path d="m36 372h352c17.673 0 32-14.327 32-32v-168l-35.502-15.215c-12.317-5.279-26.619-2.323-35.836 7.405l-114.292 120.641c-8.238 8.695-21.626 9.986-31.373 3.023l-25.492-18.208c-8.468-6.048-19.349-7.602-29.17-4.164l-144.335 50.518v24c0 17.673 14.327 32 32 32z" fill="#95d6a4"/><circle cx="92" cy="140" fill="#fff" r="32"/><path d="m415.562 348h-355.562c-17.645 0-32-14.355-32-32v-5.6-2.8l-24 8.4v24c0 17.673 14.326 32 32 32h352c14.894 0 27.3-10.222 30.869-24z" fill="#78c2a4"/></g><g><path d="m425.222 338.833v-252.444c0-21.535-17.521-39.056-39.056-39.056h-347.11c-21.535 0-39.056 17.52-39.056 39.056v252.444c0 21.535 17.521 39.056 39.056 39.056h347.111c21.535 0 39.055-17.52 39.055-39.056zm-386.166-276.5h347.111c13.264 0 24.056 10.791 24.056 24.056v75.404l-24.554-10.523c-14.963-6.413-32.54-2.781-43.737 9.037l-25.895 27.333-68.494 31.556c-12.667 5.836-26.957 6.707-40.238 2.451l-24.064-7.71c-15.111-4.842-31.498-1.776-43.837 8.199l-84.684 68.462c-.062.05-.116.105-.175.157l-39.545 13.841v-218.207c0-13.265 10.792-24.056 24.056-24.056zm249.216 154.613-59.046 62.327c-5.518 5.826-14.604 6.701-21.133 2.037l-25.138-17.956c-10.321-7.372-23.631-9.272-35.603-5.082l-50.766 17.768 52.248-42.239c8.396-6.788 19.548-8.873 29.83-5.579l24.063 7.71c16.863 5.403 35.008 4.298 51.091-3.112zm-273.272 121.887v-18.345l137.308-48.058c7.373-2.581 15.571-1.411 21.929 3.13l25.138 17.956c12.588 8.991 30.103 7.302 40.741-3.927l112.704-118.966c6.896-7.28 17.722-9.516 26.938-5.567l30.463 13.056v160.721c0 13.264-10.792 24.056-24.056 24.056h-347.109c-13.264 0-24.056-10.791-24.056-24.056z"/><path d="m449.274 149.111h12c4.142 0 7.5-3.358 7.5-7.5s-3.358-7.5-7.5-7.5h-12c-4.142 0-7.5 3.358-7.5 7.5s3.358 7.5 7.5 7.5z"/><path d="m505.071 421.197c-4.128-.398-7.787 2.626-8.182 6.75-.6 6.255-3.587 11.95-8.411 16.034-3.161 2.677-3.554 7.409-.877 10.57 1.483 1.752 3.598 2.653 5.728 2.653 1.712 0 3.434-.583 4.843-1.776 7.826-6.626 12.673-15.877 13.649-26.049.395-4.123-2.627-7.787-6.75-8.182z"/><path d="m504.5 307.466c-4.142 0-7.5 3.358-7.5 7.5v24.365c0 4.142 3.358 7.5 7.5 7.5s7.5-3.358 7.5-7.5v-24.365c0-4.142-3.358-7.5-7.5-7.5z"/><path d="m178.366 449.667h-24.365c-4.142 0-7.5 3.358-7.5 7.5s3.358 7.5 7.5 7.5h24.365c4.142 0 7.5-3.358 7.5-7.5s-3.358-7.5-7.5-7.5z"/><path d="m122.543 449.445c-6.224-.849-11.794-4.062-15.685-9.047-2.549-3.265-7.262-3.846-10.527-1.298-3.265 2.549-3.846 7.262-1.298 10.527 6.312 8.086 15.362 13.3 25.484 14.68.344.047.685.07 1.022.07 3.692 0 6.909-2.728 7.422-6.488.56-4.104-2.314-7.885-6.418-8.444z"/><path d="m504.5 193.763c-4.142 0-7.5 3.358-7.5 7.5v24.365c0 4.142 3.358 7.5 7.5 7.5s7.5-3.358 7.5-7.5v-24.365c0-4.142-3.358-7.5-7.5-7.5z"/><path d="m504.5 250.615c-4.142 0-7.5 3.358-7.5 7.5v24.365c0 4.142 3.358 7.5 7.5 7.5s7.5-3.358 7.5-7.5v-24.365c0-4.142-3.358-7.5-7.5-7.5z"/><path d="m504.5 364.317c-4.142 0-7.5 3.358-7.5 7.5v24.365c0 4.142 3.358 7.5 7.5 7.5s7.5-3.358 7.5-7.5v-24.365c0-4.142-3.358-7.5-7.5-7.5z"/><path d="m405.771 449.667h-24.365c-4.142 0-7.5 3.358-7.5 7.5s3.358 7.5 7.5 7.5h24.365c4.142 0 7.5-3.358 7.5-7.5s-3.357-7.5-7.5-7.5z"/><path d="m462.623 449.667h-24.365c-4.142 0-7.5 3.358-7.5 7.5s3.358 7.5 7.5 7.5h24.365c4.142 0 7.5-3.358 7.5-7.5s-3.358-7.5-7.5-7.5z"/><path d="m235.218 449.667h-24.365c-4.142 0-7.5 3.358-7.5 7.5s3.358 7.5 7.5 7.5h24.365c4.142 0 7.5-3.358 7.5-7.5s-3.358-7.5-7.5-7.5z"/><path d="m487.687 154.156c4.994 3.88 8.22 9.444 9.083 15.666.521 3.753 3.734 6.47 7.419 6.47.343 0 .69-.024 1.04-.072 4.103-.569 6.968-4.356 6.398-8.459-1.403-10.118-6.638-19.156-14.738-25.45-3.271-2.541-7.982-1.949-10.524 1.321-2.541 3.271-1.949 7.982 1.322 10.524z"/><path d="m348.92 449.667h-24.365c-4.142 0-7.5 3.358-7.5 7.5s3.358 7.5 7.5 7.5h24.365c4.142 0 7.5-3.358 7.5-7.5s-3.358-7.5-7.5-7.5z"/><path d="m292.069 449.667h-24.365c-4.142 0-7.5 3.358-7.5 7.5s3.358 7.5 7.5 7.5h24.365c4.142 0 7.5-3.358 7.5-7.5s-3.358-7.5-7.5-7.5z"/><path d="m101.778 413.947v-12c0-4.142-3.358-7.5-7.5-7.5s-7.5 3.358-7.5 7.5v12c0 4.142 3.358 7.5 7.5 7.5s7.5-3.358 7.5-7.5z"/><path d="m94.278 180.667c21.535 0 39.056-17.52 39.056-39.056 0-3.303-.415-6.587-1.231-9.76-1.033-4.011-5.121-6.426-9.134-5.393-4.011 1.033-6.425 5.122-5.393 9.133.503 1.952.758 3.978.758 6.02 0 13.264-10.792 24.056-24.056 24.056s-24.056-10.791-24.056-24.056c0-13.264 10.792-24.055 24.056-24.055 2.042 0 4.068.255 6.022.758 4.014 1.031 8.101-1.382 9.133-5.393s-1.382-8.1-5.393-9.133c-3.175-.817-6.459-1.232-9.762-1.232-21.535 0-39.056 17.52-39.056 39.055s17.521 39.056 39.056 39.056z"/><path d="m465.056 165.667h-15.782c-4.142 0-7.5 3.358-7.5 7.5s3.358 7.5 7.5 7.5h15.782c.214 0 .389.175.389.389v236.667c0 .214-.174.389-.389.389h-331.334c-.214 0-.389-.175-.389-.389v-15.775c0-4.142-3.358-7.5-7.5-7.5s-7.5 3.358-7.5 7.5v15.775c0 8.486 6.903 15.389 15.389 15.389h331.333c8.485 0 15.389-6.903 15.389-15.389v-236.667c0-8.486-6.903-15.389-15.388-15.389z"/></g></g></svg>