<svg xmlns="http://www.w3.org/2000/svg" xmlns:xlink="http://www.w3.org/1999/xlink" width="512" zoomAndPan="magnify" viewBox="0 0 384 383.999986" height="512" preserveAspectRatio="xMidYMid meet" version="1.0"><defs><g/><clipPath id="id1"><path d="M 7.5 7.5 L 231 7.5 L 231 231 L 7.5 231 Z M 7.5 7.5 " clip-rule="nonzero"/></clipPath><clipPath id="id2"><path d="M 153.332031 153.332031 L 376.832031 153.332031 L 376.832031 376.832031 L 153.332031 376.832031 Z M 153.332031 153.332031 " clip-rule="nonzero"/></clipPath><clipPath id="id3"><path d="M 36 38 L 149 38 L 149 151 L 36 151 Z M 36 38 " clip-rule="nonzero"/></clipPath><clipPath id="id4"><path d="M 201.652344 95 L 92.9375 203.714844 L -15.78125 95 L 92.9375 -13.71875 Z M 201.652344 95 " clip-rule="nonzero"/></clipPath><clipPath id="id5"><path d="M 201.652344 95 L 92.9375 203.714844 L -15.78125 95 L 92.9375 -13.71875 Z M 201.652344 95 " clip-rule="nonzero"/></clipPath></defs><g clip-path="url(#id1)"><path fill="#eceaec" d="M 205.390625 7.5 L 33.109375 7.5 C 18.984375 7.5 7.5 18.984375 7.5 33.109375 L 7.5 205.390625 C 7.5 219.515625 18.984375 231 33.109375 231 L 205.390625 231 C 219.515625 231 231 219.515625 231 205.390625 L 231 33.109375 C 231 18.984375 219.515625 7.5 205.390625 7.5 Z M 205.390625 7.5 " fill-opacity="1" fill-rule="nonzero"/><path fill="#000000" d="M 205.390625 231 L 33.109375 231 C 18.984375 231 7.5 219.515625 7.5 205.390625 L 7.5 33.109375 C 7.5 18.984375 18.984375 7.5 33.109375 7.5 L 205.390625 7.5 C 219.515625 7.5 231 18.984375 231 33.109375 L 231 205.390625 C 231 219.515625 219.515625 231 205.390625 231 Z M 33.109375 21.46875 C 26.695312 21.46875 21.46875 26.695312 21.46875 33.109375 L 21.46875 205.390625 C 21.46875 211.808594 26.695312 217.03125 33.109375 217.03125 L 205.390625 217.03125 C 211.804688 217.03125 217.03125 211.808594 217.03125 205.390625 L 217.03125 33.109375 C 217.03125 26.695312 211.804688 21.46875 205.390625 21.46875 Z M 33.109375 21.46875 " fill-opacity="1" fill-rule="nonzero"/></g><g clip-path="url(#id2)"><path fill="#ffafbf" d="M 351.222656 153.332031 L 178.945312 153.332031 C 164.816406 153.332031 153.332031 164.816406 153.332031 178.945312 L 153.332031 351.222656 C 153.332031 365.351562 164.816406 376.832031 178.945312 376.832031 L 351.222656 376.832031 C 365.351562 376.832031 376.832031 365.351562 376.832031 351.222656 L 376.832031 178.945312 C 376.832031 164.816406 365.351562 153.332031 351.222656 153.332031 Z M 351.222656 153.332031 " fill-opacity="1" fill-rule="nonzero"/><path fill="#000000" d="M 351.222656 376.832031 L 178.945312 376.832031 C 164.816406 376.832031 153.332031 365.351562 153.332031 351.222656 L 153.332031 178.945312 C 153.332031 164.816406 164.816406 153.332031 178.945312 153.332031 L 351.222656 153.332031 C 365.351562 153.332031 376.832031 164.816406 376.832031 178.945312 L 376.832031 351.222656 C 376.832031 365.351562 365.351562 376.832031 351.222656 376.832031 Z M 178.945312 167.300781 C 172.527344 167.300781 167.300781 172.527344 167.300781 178.945312 L 167.300781 351.222656 C 167.300781 357.640625 172.527344 362.863281 178.945312 362.863281 L 351.222656 362.863281 C 357.640625 362.863281 362.863281 357.640625 362.863281 351.222656 L 362.863281 178.945312 C 362.863281 172.527344 357.640625 167.300781 351.222656 167.300781 Z M 178.945312 167.300781 " fill-opacity="1" fill-rule="nonzero"/></g><g clip-path="url(#id3)"><g clip-path="url(#id4)"><g clip-path="url(#id5)"><path fill="#000000" d="M 38.105469 49.175781 L 104.523438 132.179688 L 86.84375 136.808594 C 81.464844 138.226562 82.183594 146.058594 87.71875 146.488281 L 143.421875 150.777344 C 146.429688 151.007812 148.941406 148.496094 148.707031 145.488281 L 144.421875 89.789062 C 144.003906 84.238281 136.164062 83.535156 134.757812 88.898438 L 130.097656 106.574219 L 47.117188 40.164062 C 41.179688 35.382812 33.324219 43.234375 38.105469 49.175781 Z M 38.105469 49.175781 " fill-opacity="1" fill-rule="nonzero"/></g></g></g><g fill="#000000" fill-opacity="1"><g transform="translate(175.098289, 293.616656)"><g><path d="M 5.71875 0.546875 C 4.125 0.546875 2.988281 0.00390625 2.3125 -1.078125 C 1.632812 -2.171875 1.65625 -3.488281 2.375 -5.03125 L 20.328125 -44.8125 C 20.921875 -46.125 21.632812 -47.0625 22.46875 -47.625 C 23.3125 -48.195312 24.273438 -48.484375 25.359375 -48.484375 C 26.398438 -48.484375 27.335938 -48.195312 28.171875 -47.625 C 29.015625 -47.0625 29.734375 -46.125 30.328125 -44.8125 L 48.34375 -5.03125 C 49.070312 -3.445312 49.117188 -2.117188 48.484375 -1.046875 C 47.847656 0.015625 46.757812 0.546875 45.21875 0.546875 C 43.945312 0.546875 42.957031 0.238281 42.25 -0.375 C 41.550781 -0.988281 40.929688 -1.929688 40.390625 -3.203125 L 36.984375 -11.078125 L 13.59375 -11.078125 L 10.265625 -3.203125 C 9.679688 -1.878906 9.070312 -0.921875 8.4375 -0.328125 C 7.800781 0.253906 6.894531 0.546875 5.71875 0.546875 Z M 25.234375 -38.484375 L 16.59375 -18.015625 L 34 -18.015625 L 25.359375 -38.484375 Z M 25.234375 -38.484375 "/></g></g></g><g fill="#000000" fill-opacity="1"><g transform="translate(225.68449, 293.616656)"><g><path d="M 21.765625 0.6875 C 18.722656 0.6875 15.757812 0.347656 12.875 -0.328125 C 10 -1.015625 7.5 -2.039062 5.375 -3.40625 C 4.332031 -4.082031 3.695312 -4.914062 3.46875 -5.90625 C 3.238281 -6.90625 3.316406 -7.847656 3.703125 -8.734375 C 4.085938 -9.617188 4.695312 -10.226562 5.53125 -10.5625 C 6.375 -10.90625 7.34375 -10.738281 8.4375 -10.0625 C 10.425781 -8.882812 12.53125 -8.019531 14.75 -7.46875 C 16.976562 -6.925781 19.316406 -6.65625 21.765625 -6.65625 C 25.335938 -6.65625 27.941406 -7.253906 29.578125 -8.453125 C 31.210938 -9.660156 32.03125 -11.21875 32.03125 -13.125 C 32.03125 -14.707031 31.453125 -15.953125 30.296875 -16.859375 C 29.140625 -17.765625 27.15625 -18.515625 24.34375 -19.109375 L 16.859375 -20.671875 C 8.335938 -22.484375 4.078125 -26.859375 4.078125 -33.796875 C 4.078125 -36.785156 4.867188 -39.390625 6.453125 -41.609375 C 8.046875 -43.835938 10.242188 -45.5625 13.046875 -46.78125 C 15.859375 -48.007812 19.101562 -48.625 22.78125 -48.625 C 25.5 -48.625 28.082031 -48.28125 30.53125 -47.59375 C 32.976562 -46.914062 35.175781 -45.921875 37.125 -44.609375 C 38.03125 -43.972656 38.570312 -43.191406 38.75 -42.265625 C 38.9375 -41.335938 38.828125 -40.472656 38.421875 -39.671875 C 38.015625 -38.878906 37.367188 -38.335938 36.484375 -38.046875 C 35.597656 -37.753906 34.566406 -37.945312 33.390625 -38.625 C 31.710938 -39.570312 30.007812 -40.25 28.28125 -40.65625 C 26.5625 -41.070312 24.707031 -41.28125 22.71875 -41.28125 C 19.582031 -41.28125 17.128906 -40.617188 15.359375 -39.296875 C 13.597656 -37.984375 12.71875 -36.265625 12.71875 -34.140625 C 12.71875 -32.503906 13.257812 -31.195312 14.34375 -30.21875 C 15.4375 -29.25 17.296875 -28.492188 19.921875 -27.953125 L 27.34375 -26.390625 C 31.820312 -25.429688 35.160156 -23.929688 37.359375 -21.890625 C 39.554688 -19.859375 40.65625 -17.140625 40.65625 -13.734375 C 40.65625 -10.878906 39.882812 -8.363281 38.34375 -6.1875 C 36.8125 -4.007812 34.628906 -2.316406 31.796875 -1.109375 C 28.960938 0.0859375 25.617188 0.6875 21.765625 0.6875 Z M 21.765625 0.6875 "/></g></g></g><g fill="#000000" fill-opacity="1"><g transform="translate(268.587575, 293.616656)"><g><path d="M 27.546875 0.6875 C 22.554688 0.6875 18.28125 -0.320312 14.71875 -2.34375 C 11.164062 -4.363281 8.4375 -7.21875 6.53125 -10.90625 C 4.625 -14.601562 3.671875 -18.96875 3.671875 -24 C 3.671875 -29.03125 4.625 -33.378906 6.53125 -37.046875 C 8.4375 -40.722656 11.164062 -43.570312 14.71875 -45.59375 C 18.28125 -47.613281 22.554688 -48.625 27.546875 -48.625 C 30.035156 -48.625 32.476562 -48.304688 34.875 -47.671875 C 37.28125 -47.035156 39.390625 -46.128906 41.203125 -44.953125 C 42.378906 -44.179688 43.082031 -43.257812 43.3125 -42.1875 C 43.539062 -41.125 43.40625 -40.148438 42.90625 -39.265625 C 42.40625 -38.378906 41.65625 -37.789062 40.65625 -37.5 C 39.664062 -37.207031 38.554688 -37.46875 37.328125 -38.28125 C 35.921875 -39.1875 34.398438 -39.84375 32.765625 -40.25 C 31.140625 -40.664062 29.488281 -40.875 27.8125 -40.875 C 22.957031 -40.875 19.257812 -39.410156 16.71875 -36.484375 C 14.1875 -33.554688 12.921875 -29.394531 12.921875 -24 C 12.921875 -18.601562 14.1875 -14.429688 16.71875 -11.484375 C 19.257812 -8.546875 22.957031 -7.078125 27.8125 -7.078125 C 29.53125 -7.078125 31.226562 -7.289062 32.90625 -7.71875 C 34.582031 -8.144531 36.171875 -8.8125 37.671875 -9.71875 C 38.898438 -10.488281 39.988281 -10.738281 40.9375 -10.46875 C 41.882812 -10.195312 42.597656 -9.640625 43.078125 -8.796875 C 43.554688 -7.960938 43.703125 -7.046875 43.515625 -6.046875 C 43.335938 -5.054688 42.726562 -4.175781 41.6875 -3.40625 C 39.875 -2.082031 37.707031 -1.066406 35.1875 -0.359375 C 32.675781 0.335938 30.128906 0.6875 27.546875 0.6875 Z M 27.546875 0.6875 "/></g></g></g><g fill="#000000" fill-opacity="1"><g transform="translate(314.822274, 293.616656)"><g><path d="M 9.59375 0.546875 C 6.6875 0.546875 5.234375 -0.945312 5.234375 -3.9375 L 5.234375 -44 C 5.234375 -46.988281 6.6875 -48.484375 9.59375 -48.484375 C 12.488281 -48.484375 13.9375 -46.988281 13.9375 -44 L 13.9375 -3.9375 C 13.9375 -0.945312 12.488281 0.546875 9.59375 0.546875 Z M 9.59375 0.546875 "/></g></g></g><g fill="#000000" fill-opacity="1"><g transform="translate(333.996082, 293.616656)"><g><path d="M 9.59375 0.546875 C 6.6875 0.546875 5.234375 -0.945312 5.234375 -3.9375 L 5.234375 -44 C 5.234375 -46.988281 6.6875 -48.484375 9.59375 -48.484375 C 12.488281 -48.484375 13.9375 -46.988281 13.9375 -44 L 13.9375 -3.9375 C 13.9375 -0.945312 12.488281 0.546875 9.59375 0.546875 Z M 9.59375 0.546875 "/></g></g></g></svg>