<svg height="512" viewBox="0 0 60 46" width="512" xmlns="http://www.w3.org/2000/svg"><g id="Page-1" fill="none" fill-rule="evenodd"><g id="024---Text-Magnification"><path id="Shape" d="m42.94 43.64-15.99-41.36c-.2928586-.77244339-1.0339073-1.28241237-1.86-1.28h-6.18c-.8245856.00243583-1.5631515.51069618-1.86 1.28l-15.98 41.36c-.11849097.3070691-.07829257.652782.10749452.9244707.18578708.2716886.49336931.4345581.82250548.4355293h6.31c.41490277-.0004709.7874865-.2541449.94-.64l3.33-8.72c.1484243-.3846519.5177072-.6387821.93-.64h16.98c.4149028.0004709.7874865.2541449.94.64l3.33 8.72c.1484243.3846519.5177072.6387821.93.64h6.31c.3296171-.0010145.6378715-.163281.8252864-.4344344.1874148-.2711534.2302617-.6168633.1147136-.9255656zm-15.63-15.64h-10.62c-.3471028.0013591-.6723603-.169232-.8685805-.4555532-.1962201-.2863213-.2379434-.6512226-.1114195-.9744468l5.31-13.89c.1517909-.4100178.5427872-.6821984.98-.6821984s.8282091.2721806.98.6821984l5.32 13.89c.1220147.3248622.0769624.6889069-.120565.9742243-.1975274.2853173-.5224148.45563-.869435.4557757z" fill="#e81e63" fill-rule="nonzero"/><path id="Path" d="m42.94 43.64-15.99-41.36c-.2928586-.77244339-1.0339073-1.28241237-1.86-1.28l-3-.00000852c.8260927-.00240385 1.5671414.50756513 1.86 1.28000852l15.99 41.36c.1155481.3087023.0727012.6544122-.1147136.9255656-.1874149.2711534-.4956693.4334199-.8252864.4344344h3c.3296171-.0010145.6378715-.163281.8252864-.4344344.1874148-.2711534.2302617-.6168633.1147136-.9255656z" fill="#ac1457"/><g fill-rule="nonzero"><path id="Shape" d="m58.93 43.64-8.11-21.35c-.2949182-.7766455-1.0392444-1.2901111-1.87-1.29h-2.9c-.8307556-.0001111-1.5750818.5133545-1.87 1.29l-4.71 12.39 2.29 5.93.79-1.98c.1516273-.380721.5201962-.6303967.93-.63h8.04c.4098038-.0003967.7783727.249279.93.63l2.3 5.74c.1516273.380721.5201962.6303967.93.63h2.32c.3291362-.0009712.6367184-.1638407.8225055-.4355293.1857871-.2716887.2259855-.6174016.1074945-.9244707zm-9.03-9.64h-4.79c-.1697334.0014032-.3288179-.0825574-.4234363-.2234785-.0946184-.140921-.1121123-.3199496-.0465637-.4765215l2.39-5.98c.0717708-.1977422.2596359-.3294128.47-.3294128s.3982292.1316706.47.3294128l2.4 5.98c.0634003.1566074.0449596.334468-.0492212.4747372-.0941807.1402692-.2518258.2246641-.4207788.2252628z" fill="#ac1457"/><path id="Shape" d="m22 11c-.8523967-.0041662-1.6174312.5223435-1.918 1.32l-5.311 13.894c-.2412483.6311577-.1564833 1.3406111.2266722 1.8971654.3831554.5565542 1.015635.8889379 1.6913278.8888346h10.625c.6756928.0001033 1.3081724-.3322804 1.6913278-.8888346.3831555-.5565543.4679205-1.2660077.2266722-1.8971654l-5.313-13.894c-.3002152-.7983776-1.0660585-1.3251692-1.919-1.32zm-5.354 15.977c-.0114047-.0133667-.0137636-.0322372-.006-.048l5.411-13.894 5.263 13.965z" fill="#000"/><path id="Shape" d="m51.524 39 2.3 5.735c.2983034.7656405 1.0373079 1.2685134 1.859 1.265h2.317c.65787-.0009294 1.2732104-.325326 1.6457011-.8675847.3724908-.5422586.4544883-1.2330215.2192989-1.8474153l-8.109-21.354c-.4401009-1.1653131-1.5573566-1.9349958-2.803-1.931h-2.9c-1.24556-.0021171-2.3615941.7691422-2.8 1.935l-3.783 9.95-11.583-29.966c-.4508011-1.15299543-1.5600208-1.91375043-2.798-1.919h-6.174c-1.2386234.00470922-2.348702.76550955-2.8 1.919l-15.979 41.36c-.2376556.6149105-.15702581 1.3074397.21554351 1.851303.37256932.5438632.98921837.8691966 1.64845649.869697h6.312c.82832296-.0030697 1.57011573-.5134739 1.869-1.286l3.329-8.714h16.984l3.328 8.714c.2987513.7721871 1.0400428 1.2825195 1.868 1.286h6.31c.6595919.0001588 1.2768496-.3249041 1.6498908-.8688726.3730413-.5439684.4538921-1.236887.2161092-1.8521274l-1.03-2.666.646-1.613zm-15.834 5-3.328-8.714c-.2987513-.7721871-1.0400428-1.2825195-1.868-1.286h-16.984c-.8280451.0031999-1.5694795.5136306-1.868 1.286l-3.33 8.714h-6.312l15.981-41.36c.1505677-.38473236.5208568-.63846365.934-.64h6.174c.4127776.00194559.7825666.25560576.933.64l15.978 41.36zm4.854-9.324 4.572-12.027c.1464095-.3905823.5198787-.6492605.937-.649h2.9c.4153778-.0000555.7875409.2566773.935.645l8.112 21.355h-2.322l-2.3-5.735c-.2983723-.7642461-1.0355762-1.2667045-1.856-1.265h-8.04c-.6848606.0025956-1.319333.3603381-1.676.945z" fill="#000"/><path id="Shape" d="m45.108 35h4.792c.5002797.0003026.9680983-.247683 1.2486482-.661895.28055-.414212.3372555-.9406487.1513518-1.405105l-2.4-5.985c-.2283393-.5731844-.7830079-.9492823-1.4-.9492823s-1.1716607.3760979-1.4.9492823l-2.394 5.986c-.1856068.4646753-.1284682.9911745.1525017 1.4052143.2809699.4140397.7491261.6616199 1.2494983.6607857zm2.392-6.166 1.669 4.166h-3.333z" fill="#000"/></g></g></g></svg>