<svg xmlns="http://www.w3.org/2000/svg" version="1.1" xmlns:xlink="http://www.w3.org/1999/xlink" xmlns:svgjs="http://svgjs.com/svgjs" width="512" height="512" x="0" y="0" viewBox="0 0 64 64" style="enable-background:new 0 0 512 512" xml:space="preserve" class=""><g><g xmlns="http://www.w3.org/2000/svg" id="Electric_Plug-2" data-name="Electric Plug"><circle cx="32" cy="32" fill="#57a4ff" r="29" data-original="#57a4ff" class=""></circle><path d="m61 32a29 29 0 0 1 -51.41 18.41 29 29 0 0 0 40.82-40.82 28.93 28.93 0 0 1 10.59 22.41z" fill="#2488ff" data-original="#2488ff"></path><path d="m55.33 14.32c-.07.06-.13.13-.2.18a3.986 3.986 0 0 1 -5.45-.18l-2.83-2.83 5.66-5.65 2.82 2.83a3.978 3.978 0 0 1 0 5.65z" fill="#ffdaaa" data-original="#ffdaaa"></path><path d="m44 28-12 24v-16h-12l12-24v16z" fill="#ffde55" data-original="#ffde55" class=""></path><path d="m17.15 52.51-5.66 5.65-2.82-2.83a3.978 3.978 0 0 1 0-5.65c.07-.06.13-.13.2-.18a3.986 3.986 0 0 1 5.45.18z" fill="#ffdaaa" data-original="#ffdaaa"></path><path d="m44.85 27.47a1 1 0 0 0 -.85-.47h-11v-15a1 1 0 0 0 -1.89-.45l-12 24a1 1 0 0 0 .89 1.45h11v15a1 1 0 0 0 .77.97.908.908 0 0 0 .23.03 1 1 0 0 0 .89-.55l12-24a1.007 1.007 0 0 0 -.04-.98zm-11.85 20.29v-11.76a1 1 0 0 0 -1-1h-10.38l9.38-18.76v11.76a1 1 0 0 0 1 1h10.38z" fill="#000000" data-original="#000000" class=""></path><path d="m56.41 14.58a4.988 4.988 0 0 0 -.37-6.62l-2.83-2.83a1.024 1.024 0 0 0 -1.41 0l-.71.71-2.83-2.83-1.41 1.41 2.83 2.83-1.42 1.42-2.83-2.83-1.41 1.41 2.83 2.83-.71.71a1 1 0 0 0 0 1.41l2.83 2.83a4.936 4.936 0 0 0 5.9.84 27.678 27.678 0 0 1 5.13 16.13 28.025 28.025 0 0 1 -38.62 25.92l-.76 1.85a30.025 30.025 0 0 0 41.38-27.77 29.669 29.669 0 0 0 -5.59-17.42zm-1.78-.96a3.03 3.03 0 0 1 -4.25 0l-2.12-2.13 4.25-4.24 2.12 2.12a3.012 3.012 0 0 1 0 4.25z" fill="#000000" data-original="#000000" class=""></path><path d="m32 2a30.037 30.037 0 0 0 -30 30 29.669 29.669 0 0 0 5.59 17.42 4.988 4.988 0 0 0 .37 6.62l2.83 2.83a.967.967 0 0 0 .7.29.99.99 0 0 0 .71-.29l.71-.71 2.83 2.83 1.41-1.41-2.83-2.83 1.42-1.42 2.83 2.83 1.41-1.41-2.83-2.83.71-.71a1 1 0 0 0 0-1.41l-2.83-2.83a4.987 4.987 0 0 0 -5.9-.84 27.678 27.678 0 0 1 -5.13-16.13 28.031 28.031 0 0 1 28-28 27.733 27.733 0 0 1 10.62 2.09l.76-1.86a29.93 29.93 0 0 0 -11.38-2.23zm-22.63 48.38a3.03 3.03 0 0 1 4.25 0l2.12 2.13-4.25 4.24-2.12-2.12a3.012 3.012 0 0 1 0-4.25z" fill="#000000" data-original="#000000" class=""></path></g></g></svg>