<?xml version="1.0" encoding="iso-8859-1"?>
<!-- Generator: Adobe Illustrator 19.0.0, SVG Export Plug-In . SVG Version: 6.00 Build 0)  -->
<svg version="1.1" id="Capa_1" xmlns="http://www.w3.org/2000/svg" xmlns:xlink="http://www.w3.org/1999/xlink" x="0px" y="0px"
	 viewBox="0 0 511.999 511.999" style="enable-background:new 0 0 511.999 511.999;" xml:space="preserve">
<g>
	<path style="fill:#DCFFB6;" d="M339.649,73.391L266.15,30.957c-22.068-12.741-50.545-5.111-63.285,16.957l-24.927,43.172
		l139.842,80.738l3.389-1.958l24.411-14.093l11.027-19.097C369.347,114.609,361.717,86.131,339.649,73.391z"/>
	<polygon style="fill:#8EECF0;" points="317.78,171.824 177.939,91.086 129.849,174.38 221.601,227.353 237.876,217.955 	"/>
	<polygon style="fill:#30B6C9;" points="221.601,227.353 129.849,174.38 81.76,257.674 125.421,282.883 154.582,266.045 	"/>
	<g>
		<path style="fill:#F0F0FA;" d="M125.421,282.883l-43.661-25.208L16.192,371.242c-12.741,22.067-5.111,50.543,16.957,63.286
			l2.848,1.645v-80.135c0-24.266,18.907-44.33,42.716-46.188L125.421,282.883z"/>
		<path style="fill:#F0F0FA;" d="M179.79,309.707l-97.462,0.001c-1.215,0-2.42,0.047-3.613,0.141
			c-23.81,1.857-42.716,21.921-42.716,46.187v80.135v4.731c0,25.481,20.848,46.329,46.329,46.329l131.134,0.001V309.707H179.79
			L179.79,309.707z M113.653,378.516c10.578,6.107,14.235,19.757,8.128,30.335c-6.107,10.578-19.757,14.235-30.335,8.129
			c-10.578-6.107-14.235-19.757-8.128-30.335C89.425,376.066,103.075,372.409,113.653,378.516z"/>
	</g>
	<polygon style="fill:#FD4848;" points="213.46,309.707 213.46,487.233 309.641,487.233 309.641,309.707 290.849,309.707 	"/>
	<polygon style="fill:#FFA18B;" points="309.641,309.707 309.641,487.233 405.82,487.233 405.82,309.707 401.906,309.707 	"/>
	<path style="fill:#DCFFB6;" d="M405.82,309.707v177.526l49.851-0.001c25.481,0,46.329-20.847,46.329-46.329v-84.867
		c0-25.481-20.848-46.329-46.329-46.329l-21.663-0.001L405.82,309.707L405.82,309.707z"/>
	<path style="fill:#9797A6;" d="M179.79,309.707l-25.208-43.661l-29.161,16.837l-46.706,26.965c1.193-0.094,2.397-0.141,3.613-0.141
		H179.79z"/>
	<polygon style="fill:#FFCF33;" points="154.582,266.045 179.79,309.707 213.46,309.707 290.849,309.707 237.876,217.955 
		221.601,227.353 	"/>
	<polygon style="fill:#FFF0A8;" points="237.876,217.955 290.849,309.707 309.641,309.707 401.906,309.707 321.169,169.866 
		317.78,171.824 	"/>
	<path style="fill:#87DD60;" d="M321.169,169.866l80.737,139.84h3.915h28.188l19.096-11.025
		c22.068-12.741,29.698-41.217,16.957-63.286l-42.434-73.499c-12.741-22.067-41.218-29.698-63.286-16.956l-18.762,10.833
		L321.169,169.866z"/>
</g>
<path d="M118.652,369.856c-15.377-8.879-35.115-3.591-43.994,11.789c-8.879,15.379-3.591,35.115,11.789,43.994
	c5.06,2.921,10.588,4.309,16.048,4.309c11.139,0,21.987-5.777,27.946-16.096C139.319,398.471,134.031,378.735,118.652,369.856z
	 M113.12,403.851c-3.366,5.83-10.845,7.834-16.675,4.468c-5.83-3.366-7.834-10.846-4.468-16.674
	c2.259-3.912,6.371-6.102,10.593-6.102c2.069,0,4.166,0.526,6.083,1.633C114.481,390.541,116.486,398.022,113.12,403.851z"/>
<path d="M455.67,497.231c31.06,0,56.329-25.269,56.329-56.329v-84.867c0-27.136-19.288-49.848-44.873-55.155
	c8.278-7.264,14.241-16.83,17.169-27.757c3.904-14.566,1.924-29.742-5.574-42.727l-42.434-73.499
	c-7.498-12.986-19.649-22.287-34.217-26.19c-10.792-2.892-21.913-2.546-32.234,0.87c8.444-24.91-1.559-53.204-25.187-66.846
	L271.15,22.297c-12.988-7.498-28.161-9.477-42.728-5.574c-14.567,3.903-26.72,13.204-34.217,26.191l-40.442,70.047
	c-0.003,0.005,0.003-0.005,0,0l0,0c-2.761,4.783-1.123,10.899,3.66,13.659c1.575,0.909,3.294,1.341,4.991,1.341
	c3.456,0,6.817-1.793,8.669-5.001l10.517-18.216l116.181,67.078l-76.18,43.982c-0.007,0.004,0.013-0.008,0.007-0.004
	s0,0-0.007,0.004l0,0l-86.753-50.086c-4.783-2.762-10.899-1.123-13.659,3.66L7.532,366.241
	c-15.109,26.171-6.753,59.554,18.491,75.644c0.529,30.606,25.574,55.345,56.304,55.345H455.67c0.007,0,0,0,0.007,0
	S455.664,497.231,455.67,497.231 M396.894,150.025c9.408,2.521,17.247,8.513,22.073,16.872l42.434,73.499
	c4.827,8.36,6.097,18.145,3.576,27.553c-2.521,9.408-8.514,17.246-16.873,22.073l-16.776,9.686h-23.649l-72.85-126.18l0,0
	c0.012-0.007-0.012,0.007,0,0l34.514-19.926C377.701,148.775,387.486,147.504,396.894,150.025z M85.419,271.333l20.002,11.549
	L75.547,300.13c-2.585,0.312-5.119,0.789-7.585,1.44L85.419,271.333z M150.921,279.706
	C150.935,279.698,150.908,279.713,150.921,279.706L150.921,279.706l11.549,20.001h-46.192L150.921,279.706z M185.562,299.707
	l-17.321-30.001l65.975-38.09c0.013-0.007-0.013,0.007,0,0l0,0l39.313,68.091l0,0c-0.003,0,0.006,0,0.003,0s0,0-0.003,0H185.562z
	 M296.622,299.707c-0.003,0,0,0-0.003,0S296.625,299.707,296.622,299.707L296.622,299.707l-45.086-78.091l65.973-38.09
	l67.076,116.18H296.622z M299.641,319.706c0.005,0,0,0,0.005,0S299.636,319.706,299.641,319.706L299.641,319.706v157.526H223.46
	V319.706H299.641z M319.64,319.706h76.18v157.526h-76.18V319.706z M211.525,52.914c4.827-8.36,12.665-14.352,22.073-16.872
	c9.407-2.521,19.192-1.25,27.553,3.576l73.498,42.434c17.347,10.016,23.313,32.278,13.297,49.625l-9.687,16.777l-20.48,11.825
	L191.599,87.426L211.525,52.914z M125.421,271.335c-0.003,0.002,0.007-0.004,0.003-0.002S125.424,271.333,125.421,271.335
	L125.421,271.335l-30.002-17.321l38.09-65.974l68.093,39.313L125.421,271.335z M24.852,376.241l1.147-1.985v40.142
	C18.691,403.276,17.758,388.528,24.852,376.241z M45.998,440.903v-84.867c0-20.032,16.297-36.33,36.33-36.33h121.134
	c0.005,0,0,0,0.005,0s-0.01,0-0.005,0l0,0v157.526H82.326C62.294,477.232,45.998,460.935,45.998,440.903z M492,440.903
	c0,20.032-16.297,36.33-36.33,36.33h-39.851V319.706h39.851c20.032,0,36.33,16.297,36.33,36.33V440.903z"/>
<path d="M142.915,151.731c1.577,0.913,3.299,1.346,4.999,1.346c3.453,0,6.811-1.79,8.665-4.993l0.135-0.233
	c2.766-4.78,1.133-10.898-3.647-13.663c-4.781-2.767-10.898-1.133-13.663,3.647l-0.135,0.233
	C136.502,142.848,138.135,148.965,142.915,151.731z"/>
<path d="M179.139,381.584c-5.523,0-10,4.477-10,10v0.269c0,5.523,4.477,10,10,10s10-4.477,10-10v-0.269
	C189.138,386.061,184.661,381.584,179.139,381.584z"/>
<path d="M179.139,410.583c-5.523,0-10,4.477-10,10v31.034c0,5.523,4.477,10,10,10s10-4.477,10-10v-31.034
	C189.138,415.06,184.661,410.583,179.139,410.583z"/>
<g>
</g>
<g>
</g>
<g>
</g>
<g>
</g>
<g>
</g>
<g>
</g>
<g>
</g>
<g>
</g>
<g>
</g>
<g>
</g>
<g>
</g>
<g>
</g>
<g>
</g>
<g>
</g>
<g>
</g>
</svg>
