<svg xmlns="http://www.w3.org/2000/svg" version="1.1" xmlns:xlink="http://www.w3.org/1999/xlink" xmlns:svgjs="http://svgjs.com/svgjs" width="512" height="512" x="0" y="0" viewBox="0 0 512 512" style="enable-background:new 0 0 512 512" xml:space="preserve" class=""><g><path fill="#fff5f4" d="M408.306 29.512H103.694C50.567 29.512 7.5 72.579 7.5 125.705v192.387c0 53.126 43.067 96.194 96.194 96.194h128.258v52.13c0 12.399 13.473 20.105 24.161 13.818l112.113-65.949h40.081c53.126 0 96.194-43.068 96.194-96.194V125.705c-.001-53.126-43.068-96.193-96.195-96.193z" data-original="#6f6571" class="" opacity="1"></path><path fill="#fdc202" d="m322.996 138.871-5.156 5.156c-2.901 2.901-3.224 7.588-.563 10.71 6.013 7.055 15.464 22.421 18.12 51.168-29.616.467-52.742 27.66-46.224 58.542 3.822 18.106 18.472 32.727 36.584 36.522 31.108 6.518 58.502-17.044 58.502-47.005 0-64.16-35.947-102.644-50.298-115.451-3.168-2.827-7.963-2.644-10.965.358z" data-original="#ffffff" class="" opacity="1"></path><path fill="#ebe0da" d="M103.694 390.237c-39.845 0-72.145-32.301-72.145-72.145V62.226C16.625 79.173 7.5 101.349 7.5 125.705v192.387c0 53.126 43.067 96.194 96.194 96.194h128.258v52.13c0 12.399 13.473 20.105 24.161 13.818l112.113-65.949h40.081c24.357 0 46.532-9.125 63.479-24.048z" data-original="#5d5360" class="" opacity="1"></path><path fill="#fdc202" d="M341.788 282.156c-18.112-3.795-32.762-18.415-36.583-36.522-2.372-11.239-.781-21.97 3.583-31.122-15.113 10.49-23.957 29.369-19.616 49.934 3.822 18.106 18.471 32.726 36.583 36.522 23.428 4.909 44.738-7.251 53.838-26.349-10.373 7.216-23.69 10.495-37.805 7.537z" data-original="#eceaec" class="" opacity="1"></path><path fill="#fdc202" d="m162.673 138.871-5.156 5.156c-2.901 2.901-3.224 7.588-.563 10.71 6.013 7.055 15.464 22.421 18.12 51.168-29.616.467-52.742 27.66-46.224 58.542 3.822 18.106 18.472 32.727 36.584 36.522 31.108 6.518 58.502-17.044 58.502-47.005 0-64.16-35.947-102.644-50.298-115.451-3.168-2.827-7.963-2.644-10.965.358z" data-original="#ffffff" class="" opacity="1"></path><path fill="#fdc202" d="M181.466 282.156c-18.112-3.795-32.762-18.415-36.583-36.522-2.372-11.239-.781-21.97 3.583-31.122-15.113 10.49-23.957 29.369-19.616 49.934 3.822 18.106 18.471 32.726 36.583 36.522 23.428 4.909 44.738-7.251 53.838-26.349-10.373 7.216-23.69 10.495-37.805 7.537z" data-original="#eceaec" class="" opacity="1"></path><path d="M504.5 277.497a7.5 7.5 0 0 0 7.5-7.5V125.705c0-57.177-46.517-103.693-103.693-103.693H103.693C46.517 22.012 0 68.528 0 125.705v192.387c0 57.177 46.517 103.693 103.693 103.693h120.758v44.63c0 8.547 4.429 16.184 11.849 20.427 3.667 2.097 7.678 3.145 11.687 3.145 4.102 0 8.202-1.097 11.928-3.289l110.353-64.914h38.039c57.177 0 103.693-46.517 103.693-103.693V302.06a7.5 7.5 0 0 0-15 0v16.031c0 48.906-39.788 88.693-88.693 88.693h-40.081c-1.337 0-2.65.357-3.803 1.036L252.31 473.771c-3.849 2.265-7.27.791-8.562.052s-4.296-2.939-4.296-7.407v-52.13a7.5 7.5 0 0 0-7.5-7.5H103.693C54.788 406.786 15 366.998 15 318.092V125.705c0-48.906 39.788-88.693 88.693-88.693h304.613c48.906 0 88.693 39.788 88.693 88.693v144.292a7.502 7.502 0 0 0 7.501 7.5z" fill="#000000" data-original="#000000" class=""></path><path d="M292.67 219.343c-10.395 13.027-14.345 30.032-10.836 46.653 4.417 20.922 21.45 37.927 42.384 42.313a57.808 57.808 0 0 0 11.856 1.235c12.766 0 25.125-4.292 35.117-12.406 13.07-10.616 20.567-26.353 20.567-43.175 0-66.72-36.928-106.878-52.804-121.046-6.107-5.451-15.446-5.164-21.262.65l-5.156 5.156c-5.68 5.68-6.105 14.851-.968 20.879 4.551 5.339 12.196 17.259 15.473 39.542-13.477 2.225-25.701 9.335-34.371 20.199zm42.844-5.939a7.5 7.5 0 0 0 7.35-8.189c-2.742-29.682-12.324-46.479-19.88-55.343-.042-.05-.054-.33.158-.542l5.156-5.156a.568.568 0 0 1 .39-.173c.097 0 .193.032.278.107 14.37 12.824 47.792 49.199 47.792 109.855 0 12.284-5.476 23.777-15.024 31.532-9.546 7.754-22.099 10.72-34.44 8.133-15.205-3.186-27.576-15.535-30.783-30.73-2.618-12.401.182-24.547 7.884-34.199 7.603-9.528 18.945-15.102 31.119-15.295zM148.773 223.727c3.087-2.761 3.353-7.502.591-10.59s-7.503-3.353-10.59-.591c-15.036 13.445-21.489 33.427-17.263 53.45 4.416 20.923 21.449 37.927 42.384 42.314a57.808 57.808 0 0 0 11.856 1.235c12.765 0 25.125-4.291 35.116-12.406 13.071-10.616 20.567-26.353 20.567-43.175 0-66.719-36.927-106.877-52.804-121.046-6.107-5.451-15.447-5.166-21.262.65l-5.156 5.156c-5.68 5.68-6.105 14.851-.967 20.879 5.034 5.906 13.853 19.865 16.359 46.992.381 4.125 4.038 7.151 8.158 6.778a7.5 7.5 0 0 0 6.778-8.158c-2.743-29.681-12.325-46.478-19.88-55.343-.042-.05-.055-.33.158-.542l5.156-5.156c.174-.174.459-.252.668-.066 14.37 12.824 47.792 49.2 47.792 109.855 0 12.284-5.476 23.777-15.024 31.532-9.547 7.754-22.102 10.719-34.44 8.133-15.205-3.186-27.576-15.535-30.783-30.73-3.103-14.706 1.602-29.349 12.586-39.171z" fill="#000000" data-original="#000000" class=""></path></g></svg>