<svg xmlns="http://www.w3.org/2000/svg" version="1.1" xmlns:xlink="http://www.w3.org/1999/xlink" xmlns:svgjs="http://svgjs.com/svgjs" width="512" height="512" x="0" y="0" viewBox="0 0 512 512" style="enable-background:new 0 0 512 512" xml:space="preserve" class=""><g><g xmlns="http://www.w3.org/2000/svg"><g><path d="m277.123 233.827c0 13.267-10.747 24.021-24.004 24.021-13.257 0-24.004-10.755-24.004-24.021v-101.9c0-13.267 10.747-24.022 24.004-24.022 13.257 0 24.004 10.755 24.004 24.022z" fill="#f4b184" data-original="#f4b184" class=""></path><path d="m253.119 107.906c-3.184 0-6.22.626-9 1.752 8.796 3.564 15.004 12.189 15.004 22.27v101.9c0 10.081-6.208 18.705-15.004 22.269 2.78 1.126 5.816 1.752 9 1.752 13.257 0 24.004-10.755 24.004-24.021v-101.9c0-13.267-10.747-24.022-24.004-24.022z" fill="#eaa678" data-original="#eaa678"></path><path d="m301.231 251.018h-.207c-13.2 0-23.901-10.701-23.901-23.901v-112.785c0-13.2 10.701-23.901 23.901-23.901h.207c13.2 0 23.901 10.701 23.901 23.901v112.785c-.001 13.201-10.701 23.901-23.901 23.901z" fill="#f4b184" data-original="#f4b184" class=""></path><path d="m301.231 90.432h-.207c-3.146 0-6.146.614-8.897 1.718 8.793 3.53 15.004 12.128 15.004 22.183v112.785c0 10.054-6.211 18.653-15.004 22.183 2.751 1.104 5.751 1.718 8.897 1.718h.207c13.2 0 23.901-10.701 23.901-23.901v-112.786c-.001-13.2-10.701-23.9-23.901-23.9z" fill="#eaa678" data-original="#eaa678"></path><path d="m337.528 162.921h-60.405-19.638c-7.023 0-12.715 5.916-12.715 13.215.031 1.907.079 3.939.762 7.458 2.794 13.55 13.05 24.467 26.544 27.351l5.047 1.079 48.008 10.262v4.711c0 13.267-10.747 24.021-24.004 24.021s-24.004-10.755-24.004-24.021v.121 1.106 5.603c0 13.267-10.747 24.021-24.004 24.021s-24.004-10.755-24.004-24.021v-15.454c0 13.257-10.747 24.004-24.004 24.004s-24.004-10.747-24.004-24.004v-6.35l-.355-.429c-1.943 11.315-11.788 19.926-23.649 19.926-13.257 0-24.004-10.755-24.004-24.021v74.296s0 56.41 32.108 94.716c7.18 8.565 11.25 19.47 11.25 30.829v32.51h148.674v-32.766c0-7.588 2.675-14.937 7.586-20.718 11.457-13.487 32.421-41.833 37.904-74.141 11.902-70.135 18.145-149.304-33.093-149.304z" fill="#ffc89f" data-original="#ffc89f" class=""></path><g><path d="m337.528 162.921h-18c51.239 0 44.995 79.169 33.094 149.304-5.482 32.308-26.447 51.654-37.904 65.141-4.911 5.781-7.586 13.13-7.586 20.718v41.766h18v-32.766c0-7.588 2.675-14.937 7.586-20.718 11.457-13.487 32.421-41.833 37.904-74.141 11.901-70.135 18.144-149.304-33.094-149.304z" fill="#f7bc94" data-original="#f7bc94"></path></g><path d="m205.111 242.377c-13.257 0-24.004-10.747-24.004-24.004v-71.311c0-13.257 10.747-24.004 24.004-24.004 13.257 0 24.004 10.747 24.004 24.004v71.311c0 13.257-10.747 24.004-24.004 24.004z" fill="#f4b184" data-original="#f4b184" class=""></path><path d="m205.111 123.058c-3.184 0-6.22.625-9 1.751 8.796 3.561 15.004 12.18 15.004 22.253v71.311c0 10.073-6.208 18.692-15.004 22.253 2.78 1.126 5.816 1.751 9 1.751 13.257 0 24.004-10.747 24.004-24.004v-71.311c0-13.257-10.747-24.004-24.004-24.004z" fill="#eaa678" data-original="#eaa678"></path><path d="m157.103 231.521c-13.257 0-24.004-10.755-24.004-24.021v-38.488c0-13.267 10.747-24.022 24.004-24.022 13.257 0 24.004 10.755 24.004 24.022v38.488c0 13.266-10.747 24.021-24.004 24.021z" fill="#f4b184" data-original="#f4b184" class=""></path><path d="m157.103 144.99c-3.184 0-6.22.626-9 1.752 8.796 3.564 15.004 12.189 15.004 22.27v38.488c0 10.081-6.208 18.706-15.004 22.269 2.78 1.126 5.816 1.752 9 1.752 13.257 0 24.004-10.755 24.004-24.021v-38.488c0-13.267-10.747-24.022-24.004-24.022z" fill="#eaa678" data-original="#eaa678"></path><path d="m218.719 388.848h64.149v166.154h-64.149z" fill="#e6e2e6" transform="matrix(0 -1 1 0 -221.131 722.719)" data-original="#e6e2e6"></path><path d="m315.871 439.851h18v64.149h-18z" fill="#d8d1d7" data-original="#d8d1d7"></path></g><g><path d="m256 58.96c4.151 0 7.515-3.364 7.515-7.515v-43.93c0-4.15-3.364-7.515-7.515-7.515s-7.515 3.365-7.515 7.515v43.931c0 4.15 3.364 7.514 7.515 7.514z" fill="#000000" data-original="#000000" class=""></path><path d="m75.739 224.192h-43.931c-4.151 0-7.515 3.364-7.515 7.515 0 4.15 3.364 7.515 7.515 7.515h43.931c4.151 0 7.515-3.365 7.515-7.515-.001-4.15-3.365-7.515-7.515-7.515z" fill="#000000" data-original="#000000" class=""></path><path d="m480.192 224.192h-43.931c-4.151 0-7.515 3.364-7.515 7.515 0 4.15 3.364 7.515 7.515 7.515h43.931c4.151 0 7.515-3.365 7.515-7.515s-3.365-7.515-7.515-7.515z" fill="#000000" data-original="#000000" class=""></path><path d="m419.841 67.866c-2.935-2.935-7.693-2.935-10.628 0l-31.063 31.063c-6.667 7.247 3.277 17.267 10.628 10.627l31.064-31.064c2.934-2.934 2.934-7.692-.001-10.626z" fill="#000000" data-original="#000000" class=""></path><path d="m446.019 157.262c-1.514-3.865-5.879-5.768-9.738-4.256l-15.182 5.948c-9.037 4.116-3.902 17.202 5.481 13.994l15.182-5.948c3.865-1.514 5.77-5.874 4.257-9.738z" fill="#000000" data-original="#000000" class=""></path><path d="m319.015 70.864c2.902 1.405 8.42-.29 9.739-4.256l6.121-15.624c1.514-3.864-.391-8.224-4.255-9.738-3.868-1.514-8.224.392-9.739 4.256l-6.121 15.624c-1.514 3.864.391 8.224 4.255 9.738z" fill="#000000" data-original="#000000" class=""></path><path d="m183.247 66.608c4.069 9.298 17.147 3.551 13.994-5.482l-6.121-15.624c-1.515-3.865-5.872-5.768-9.739-4.256-3.864 1.514-5.769 5.874-4.255 9.738z" fill="#000000" data-original="#000000" class=""></path><path d="m133.85 109.556c2.934-2.934 2.934-7.693 0-10.627l-31.064-31.064c-2.935-2.935-7.693-2.935-10.628 0-2.934 2.934-2.934 7.693 0 10.627l31.064 31.064c2.596 2.517 7.325 3.19 10.628 0z" fill="#000000" data-original="#000000" class=""></path><path d="m90.901 158.954-15.182-5.948c-3.864-1.514-8.224.392-9.738 4.256-1.514 3.865.391 8.224 4.256 9.738l15.182 5.948c.9.353 1.827.52 2.739.52 3.002 0 5.838-1.812 6.999-4.775 1.514-3.866-.391-8.225-4.256-9.739z" fill="#000000" data-original="#000000" class=""></path><path d="m351.492 361.222c-3.45-2.304-8.117-1.375-10.422 2.077-4.265 6.388-8.952 12.598-13.93 18.458-6.055 7.127-9.389 16.227-9.389 25.623v25.316h-133.935v-25.059c0-13.01-4.626-25.695-13.027-35.717-29.971-35.755-30.415-89.542-30.416-90.074 0-4.15-3.364-7.515-7.515-7.515s-7.515 3.365-7.515 7.515c0 2.419.386 59.714 33.927 99.729 6.137 7.321 9.517 16.577 9.517 26.063v25.059h-1.243c-4.151 0-7.515 3.365-7.515 7.515v64.275c0 4.15 3.364 7.515 7.515 7.515h44.064c4.151 0 7.515-3.365 7.515-7.515s-3.364-7.515-7.515-7.515h-36.549v-49.246h151.45v49.246h-84.842c-4.151 0-7.515 3.365-7.515 7.515s3.364 7.515 7.515 7.515h92.357c4.151 0 7.515-3.365 7.515-7.515v-64.277c0-4.15-3.364-7.515-7.515-7.515h-1.243v-25.315c0-5.835 2.065-11.479 5.814-15.893 5.351-6.299 10.389-12.975 14.975-19.843 2.304-3.452 1.374-8.118-2.078-10.422z" fill="#000000" data-original="#000000" class=""></path><path d="m337.688 155.224h-4.907v-41.048c0-17.415-14.16-31.583-31.565-31.583-14.425 0-26.612 9.735-30.366 22.981-5.059-3.451-11.165-5.472-17.736-5.472-13.725 0-25.427 8.814-29.764 21.079-5.173-3.707-11.503-5.898-18.338-5.898-15.819 0-28.954 11.696-31.219 26.894-4.887-3.109-10.677-4.918-16.884-4.918-17.405 0-31.566 14.168-31.566 31.583v86.791c0 4.15 3.364 7.515 7.515 7.515s7.515-3.365 7.515-7.515v-21.339c4.813 2.974 10.477 4.695 16.536 4.695 7.446 0 14.294-2.599 19.697-6.93 5.122 10.531 15.929 17.808 28.406 17.808 6.797 0 13.093-2.167 18.251-5.836 4.263 12.399 16.03 21.337 29.851 21.337 11.355 0 21.325-6.032 26.888-15.06 2.305 2.097 4.922 3.853 7.77 5.2-17.178 10.948-37.533 29.503-49.978 59.922-3.419 9.293 9.632 14.582 13.91 5.691 21.281-52.014 70.093-65.118 70.566-65.24 2.66-.671 4.744-2.738 5.434-5.393 0 0 6.809-26.247 6.818-26.289.868-4.059-1.719-8.052-5.778-8.92l-55.065-11.771c-12.409-2.652-21.416-14.229-21.416-27.528 0-3.158 2.344-5.726 5.226-5.726h80.2c9.222 0 16.25 3.013 21.485 9.212 19.851 23.503 11.94 86.37 4.263 131.613-1.477 8.702-4.3 17.81-8.393 27.07-3.673 9.254 9.354 14.825 13.746 6.076 4.597-10.398 7.781-20.705 9.466-30.633 8.87-52.272 16.022-115.858-7.599-143.825-8.152-9.65-19.244-14.543-32.969-14.543zm-53.009-41.048c0-9.128 7.418-16.554 16.536-16.554s16.536 7.426 16.536 16.554v41.048h-33.072zm-127.77 109.782c-9.118 0-16.536-7.426-16.536-16.554v-38.563c0-9.128 7.418-16.554 16.536-16.554s16.536 7.426 16.536 16.554v38.563c0 9.128-7.418 16.554-16.536 16.554zm48.103 10.878c-9.118 0-16.537-7.418-16.537-16.536v-71.451c0-9.118 7.419-16.537 16.537-16.537s16.536 7.418 16.536 16.537v71.451c0 9.118-7.418 16.536-16.536 16.536zm79.667-13.607 33.004 7.055c-.687 8.5-7.803 15.21-16.468 15.21-9.118 0-16.536-7.426-16.536-16.554zm-47.446-45.249c0 20.028 13.581 37.541 32.417 42.015v15.789c0 9.128-7.418 16.554-16.536 16.554s-16.536-7.426-16.536-16.554v-102.1c0-9.128 7.418-16.554 16.536-16.554s16.536 7.426 16.536 16.554v23.54h-12.161c-11.17 0-20.256 9.311-20.256 20.756z" fill="#000000" data-original="#000000" class=""></path></g></g></g></svg>