<svg xmlns="http://www.w3.org/2000/svg" version="1.1" xmlns:xlink="http://www.w3.org/1999/xlink" xmlns:svgjs="http://svgjs.com/svgjs" width="512" height="512" x="0" y="0" viewBox="0 0 512 512" style="enable-background:new 0 0 512 512" xml:space="preserve" class=""><g><g xmlns="http://www.w3.org/2000/svg"><g><g><path d="m401.94 465.556h-374.44c-11.046 0-20-8.954-20-20v-322.746h414.44v322.746c0 11.046-8.955 20-20 20z" fill="#e8edf2" data-original="#e8edf2" class=""></path></g><g><path d="m421.79 197.924c.05 0 .1-.002.15-.002v-75.112h-102.814c13.845 43.507 54.63 75.114 102.664 75.114z" fill="#c5d3dd" data-original="#c5d3dd"></path></g><g><path d="m33.757 445.556v-322.745h-26.257v322.746c0 11.046 8.954 20 20 20h26.257c-11.046-.001-20-8.955-20-20.001z" fill="#c5d3dd" data-original="#c5d3dd"></path></g><g><g><g><path d="m401.94 64.451h-374.44c-11.046 0-20 8.954-20 20v50.897h414.44v-50.897c0-11.046-8.955-20-20-20z" fill="#90d8f9" data-original="#90d8f9"></path></g></g></g><g><g><g><path d="m401.94 64.451h-84.738c-2.035 8.258-3.122 16.885-3.122 25.763 0 16.108 3.561 31.398 9.926 45.134h97.934v-50.897c0-11.046-8.955-20-20-20z" fill="#75cef9" data-original="#75cef9"></path></g></g></g><g><g><g><path d="m53.757 64.451h-26.257c-11.046 0-20 8.954-20 20v50.896h26.257v-50.896c0-11.046 8.954-20 20-20z" fill="#75cef9" data-original="#75cef9"></path></g></g></g><g><g><circle cx="421.79" cy="90.214" fill="#ffd064" r="82.71" data-original="#ffd064"></circle></g></g><g><g><path d="m355.809 90.214c0-42.856 32.595-78.098 74.346-82.291-2.751-.276-5.541-.419-8.365-.419-45.679 0-82.71 37.03-82.71 82.71s37.031 82.71 82.71 82.71c2.824 0 5.614-.143 8.365-.419-41.752-4.193-74.346-39.435-74.346-82.291z" fill="#ebb044" data-original="#ebb044"></path></g></g><g><g><g><path d="m382.027 358.16-165.271-36.358c-6.199-1.364-11.722 4.159-10.358 10.358l36.358 165.271c1.476 6.708 9.781 9.136 14.637 4.279l28.213-28.214c3.395-3.395 8.899-3.395 12.294 0l28.46 28.46c3.395 3.395 8.899 3.395 12.294 0l47.898-47.898c3.395-3.395 3.395-8.899 0-12.294l-28.46-28.46c-3.395-3.395-3.395-8.899 0-12.294l28.213-28.214c4.858-4.855 2.43-13.16-4.278-14.636z" fill="#dd636e" data-original="#dd636e"></path></g></g></g><g><g><g><g><path d="m264.885 475.302-33.038-150.18-15.091-3.32c-6.199-1.364-11.722 4.159-10.358 10.358l36.358 165.271c1.476 6.708 9.781 9.136 14.637 4.279l22.13-22.13c-4.857 4.858-13.162 2.43-14.638-4.278z" fill="#c63d4f" data-original="#c63d4f"></path></g></g><g><g><path d="m348.49 479.828-28.46-28.46c-3.395-3.395-8.899-3.395-12.294 0l-22.13 22.13c3.395-3.395 8.899-3.395 12.294 0l28.46 28.46c3.395 3.395 8.899 3.395 12.294 0l22.13-22.13c-3.395 3.395-8.899 3.395-12.294 0z" fill="#c63d4f" data-original="#c63d4f"></path></g></g></g></g></g><g><path d="m7.5 203.424c4.142 0 7.5-3.357 7.5-7.5v-53.076h299.08c4.142 0 7.5-3.357 7.5-7.5s-3.358-7.5-7.5-7.5h-299.08v-43.397c0-6.893 5.607-12.5 12.5-12.5h280.42c4.142 0 7.5-3.357 7.5-7.5s-3.358-7.5-7.5-7.5h-280.42c-15.164 0-27.5 12.337-27.5 27.5v111.473c0 4.142 3.358 7.5 7.5 7.5z" fill="#000000" data-original="#000000"></path><path d="m197.4 458.056h-169.9c-6.893 0-12.5-5.607-12.5-12.5v-212.052c0-4.143-3.358-7.5-7.5-7.5s-7.5 3.357-7.5 7.5v212.053c0 15.163 12.336 27.5 27.5 27.5h169.9c4.142 0 7.5-3.357 7.5-7.5s-3.358-7.501-7.5-7.501z" fill="#000000" data-original="#000000"></path><path d="m421.94 199.263c-4.142 0-7.5 3.357-7.5 7.5v231.12c0 4.143 3.358 7.5 7.5 7.5s7.5-3.357 7.5-7.5v-231.12c0-4.142-3.358-7.5-7.5-7.5z" fill="#000000" data-original="#000000"></path><path d="m45.153 94.572c-4.142 0-7.5 3.357-7.5 7.5s3.358 7.5 7.5 7.5h7.68c4.142 0 7.5-3.357 7.5-7.5s-3.358-7.5-7.5-7.5z" fill="#000000" data-original="#000000"></path><path d="m82.596 94.572c-4.142 0-7.5 3.357-7.5 7.5s3.358 7.5 7.5 7.5h7.68c4.142 0 7.5-3.357 7.5-7.5s-3.358-7.5-7.5-7.5z" fill="#000000" data-original="#000000"></path><path d="m120.04 94.572c-4.142 0-7.5 3.357-7.5 7.5s3.358 7.5 7.5 7.5h7.68c4.142 0 7.5-3.357 7.5-7.5s-3.358-7.5-7.5-7.5z" fill="#000000" data-original="#000000"></path><path d="m421.79.004c-49.742 0-90.21 40.468-90.21 90.21s40.468 90.21 90.21 90.21 90.21-40.468 90.21-90.21-40.469-90.21-90.21-90.21zm0 165.42c-41.471 0-75.21-33.739-75.21-75.21s33.739-75.21 75.21-75.21 75.21 33.739 75.21 75.21-33.74 75.21-75.21 75.21z" fill="#000000" data-original="#000000"></path><path d="m421.79 60.866c6.029 0 10.934 4.905 10.934 10.934 0 4.143 3.358 7.5 7.5 7.5s7.5-3.357 7.5-7.5c0-11.693-7.78-21.599-18.434-24.824v-10.141c0-4.143-3.358-7.5-7.5-7.5s-7.5 3.357-7.5 7.5v10.141c-10.654 3.225-18.434 13.131-18.434 24.823 0 14.3 11.634 25.934 25.934 25.934.199 0 .396-.008.591-.023 5.755.309 10.343 5.088 10.343 10.918 0 6.028-4.905 10.934-10.934 10.934s-10.934-4.905-10.934-10.934c0-4.143-3.358-7.5-7.5-7.5s-7.5 3.357-7.5 7.5c0 11.692 7.78 21.598 18.434 24.823v10.141c0 4.143 3.358 7.5 7.5 7.5s7.5-3.357 7.5-7.5v-10.141c10.654-3.225 18.434-13.131 18.434-24.824 0-14.3-11.634-25.934-25.934-25.934-.199 0-.396.008-.591.023-5.755-.309-10.342-5.088-10.342-10.918-.001-6.027 4.904-10.932 10.933-10.932z" fill="#000000" data-original="#000000"></path><path d="m208.741 288.458c11.893 0 22.967 5.904 29.623 15.793 2.313 3.438 6.975 4.349 10.41 2.034 3.436-2.313 4.347-6.974 2.034-10.409-9.448-14.037-25.174-22.418-42.067-22.418-13.54 0-26.268 5.272-35.842 14.847-9.574 9.573-14.847 22.303-14.846 35.842 0 15.926 7.635 31.123 20.424 40.653 1.346 1.003 2.917 1.487 4.476 1.486 2.288 0 4.547-1.043 6.02-3.019 2.475-3.321 1.789-8.021-1.532-10.495-9.143-6.813-14.387-17.247-14.387-28.626 0-9.533 3.712-18.495 10.453-25.235 6.739-6.741 15.701-10.453 25.234-10.453z" fill="#000000" data-original="#000000"></path><path d="m275.621 308.266c.953 4.031 4.996 6.524 9.024 5.573 4.031-.953 6.526-4.993 5.574-9.024-8.965-37.927-42.47-64.415-81.478-64.415-46.177 0-83.745 37.568-83.745 83.746 0 19.125 6.619 37.826 18.636 52.659 11.837 14.609 28.409 24.916 46.662 29.021.555.124 1.107.185 1.653.185 3.43-.001 6.526-2.369 7.311-5.856.909-4.041-1.63-8.054-5.671-8.963-31.052-6.984-53.59-35.181-53.59-67.046 0-37.906 30.839-68.746 68.745-68.746 32.019 0 59.521 21.739 66.879 52.866z" fill="#000000" data-original="#000000"></path><path d="m363.396 408.002c-.289-.288-.349-.618-.349-.843 0-.226.061-.556.35-.844l28.213-28.214c4.185-4.186 5.753-10.313 4.093-15.995-1.661-5.681-6.283-10-12.064-11.271l-165.271-36.357c-5.422-1.191-11.003.441-14.929 4.366-3.926 3.926-5.557 9.507-4.364 14.929l36.357 165.271c1.271 5.78 5.59 10.402 11.271 12.063 5.68 1.663 11.809.092 15.994-4.092l28.213-28.214c.466-.465 1.223-.465 1.688 0l28.46 28.46c3.157 3.156 7.303 4.734 11.45 4.734s8.293-1.578 11.45-4.734l47.899-47.899c3.058-3.059 4.743-7.125 4.743-11.45s-1.685-8.392-4.743-11.45zm17.854 40.754-47.898 47.898c-.465.467-1.223.465-1.688 0l-28.46-28.46c-3.157-3.156-7.303-4.734-11.45-4.734-4.146 0-8.294 1.578-11.451 4.734l-28.213 28.214c-.124.123-.499.501-1.179.302-.679-.198-.793-.718-.831-.889l-36.357-165.271c-.093-.424.015-.794.322-1.101s.676-.415 1.1-.321l165.271 36.357c.171.037.691.151.889.83s-.178 1.056-.302 1.179l-28.213 28.214c-3.059 3.059-4.744 7.125-4.744 11.451 0 4.325 1.685 8.392 4.743 11.45l28.46 28.46c.289.288.349.617.349.843s-.06.556-.348.844z" fill="#000000" data-original="#000000"></path></g></g></g></svg>