<svg xmlns="http://www.w3.org/2000/svg" version="1.1" xmlns:xlink="http://www.w3.org/1999/xlink" xmlns:svgjs="http://svgjs.com/svgjs" width="512" height="512" x="0" y="0" viewBox="0 0 512 512" style="enable-background:new 0 0 512 512" xml:space="preserve" class=""><g><g xmlns="http://www.w3.org/2000/svg"><circle cx="431.423" cy="159.78" fill="#78c2a4" r="73.077" data-original="#78c2a4"></circle><path d="m442.524 87.54c13.56 13.267 21.976 31.77 21.976 52.24 0 40.36-32.718 73.077-73.077 73.077-3.774 0-7.481-.286-11.101-.838 13.177 12.891 31.211 20.838 51.101 20.838 40.359 0 73.077-32.718 73.077-73.077 0-36.586-26.885-66.892-61.976-72.24z" fill="#66b394" data-original="#66b394"></path><path d="m358.345 159.779c0-.782.012-1.561.037-2.337h-315.391c-19.601 0-35.491 15.89-35.491 35.491v196.873c0 19.601 15.89 35.491 35.491 35.491h352.941c19.601 0 35.491-15.89 35.491-35.491v-156.95c-40.36.001-73.078-32.717-73.078-73.077z" fill="#ffc250" data-original="#ffc250" class=""></path><path d="m391.423 220.947v91.441c0 51.312-41.597 92.91-92.91 92.91h-287.462c5.753 11.839 17.893 20 31.94 20h352.941c19.601 0 35.491-15.89 35.491-35.491v-156.95c-14.766 0-28.508-4.379-40-11.91z" fill="#ebb044" data-original="#ebb044"></path><path d="m394.462 357.895h-43.869c-.57 0-1.032-.462-1.032-1.032v-23.926c0-.57.462-1.032 1.032-1.032h43.869c.57 0 1.032.462 1.032 1.032v23.926c.001.57-.462 1.032-1.032 1.032z" fill="#f6f9f9" data-original="#f6f9f9"></path><path d="m394.462 331.905h-5.094c-1.977 9.248-5.33 17.987-9.835 25.99h14.929c.57 0 1.032-.462 1.032-1.032v-23.926c.001-.57-.462-1.032-1.032-1.032z" fill="#e7ecf1" data-original="#e7ecf1"></path><path d="m457.2 127.841-35.856 35.856c-.8.8-2.097.8-2.897 0l-12.8-12.8c-.8-.8-2.097-.8-2.897 0l-16.246 16.246c-.8.8-.8 2.097 0 2.897l31.944 31.944c.8.8 2.097.8 2.897 0l55-55c.8-.8.8-2.097 0-2.897l-16.246-16.246c-.802-.801-2.099-.801-2.899 0z" fill="#f6f9f9" data-original="#f6f9f9"></path><path d="m464.071 131.814c.284 2.616.429 5.274.429 7.965 0 7.893-1.251 15.493-3.566 22.614l15.409-15.409c.8-.8.8-2.097 0-2.897z" fill="#e7ecf1" data-original="#e7ecf1"></path><path d="m378.325 209.989h-370.825v48.233h423.923v-25.365c-20.915 0-39.777-8.786-53.098-22.868z" fill="#407093" data-original="#407093"></path><path d="m391.423 220.947v37.275h40v-25.365c-.005 0-.01 0-.015 0-14.76-.003-28.497-4.382-39.985-11.91z" fill="#365e7d" data-original="#365e7d"></path><path d="m178.956 337.4c-4.142 0-7.5 3.357-7.5 7.5s3.358 7.5 7.5 7.5h30.863c4.142 0 7.5-3.357 7.5-7.5s-3.358-7.5-7.5-7.5z" fill="#000000" data-original="#000000"></path><path d="m235.482 337.4c-4.142 0-7.5 3.357-7.5 7.5s3.358 7.5 7.5 7.5h30.863c4.142 0 7.5-3.357 7.5-7.5s-3.358-7.5-7.5-7.5z" fill="#000000" data-original="#000000"></path><path d="m292.008 337.4c-4.142 0-7.5 3.357-7.5 7.5s3.358 7.5 7.5 7.5h30.863c4.142 0 7.5-3.357 7.5-7.5s-3.358-7.5-7.5-7.5z" fill="#000000" data-original="#000000"></path><path d="m350.593 324.405c-4.705 0-8.532 3.827-8.532 8.532v23.926c0 4.705 3.827 8.532 8.532 8.532h43.87c4.705 0 8.532-3.827 8.532-8.532v-23.926c0-4.705-3.828-8.532-8.532-8.532zm37.402 25.991h-30.934v-10.99h30.934z" fill="#000000" data-original="#000000"></path><path d="m426.646 207.287 55.001-55.001c3.73-3.732 3.731-9.772-.001-13.503l-16.243-16.242c-3.727-3.733-9.772-3.74-13.507-.004l-32.002 32.001-8.947-8.946c-3.723-3.721-9.78-3.718-13.502.001l-16.245 16.245c-3.732 3.73-3.736 9.773-.001 13.506l31.94 31.939c3.733 3.739 9.782 3.735 13.507.004zm-22.449-47.232 8.942 8.941c3.732 3.738 9.781 3.735 13.507.004l32.001-32.001 8.537 8.536-47.29 47.29-24.235-24.234z" fill="#000000" data-original="#000000"></path><path d="m431.423 79.202c-20.397 0-39.86 7.638-54.803 21.506-3.036 2.817-3.213 7.562-.396 10.599s7.562 3.213 10.6.396c12.16-11.285 27.999-17.5 44.599-17.5 36.159 0 65.577 29.418 65.577 65.577s-29.418 65.577-65.577 65.577c-36.16 0-65.578-29.418-65.578-65.577 0-7.274 1.181-14.417 3.511-21.229 1.34-3.92-.751-8.184-4.67-9.523-3.92-1.338-8.183.751-9.523 4.67-1.805 5.278-3.049 10.714-3.722 16.246h-308.45c-23.705-.002-42.991 19.285-42.991 42.99v196.873c0 23.705 19.286 42.991 42.991 42.991h352.94c23.706 0 42.991-19.286 42.991-42.991v-52.927c0-4.143-3.358-7.5-7.5-7.5s-7.5 3.357-7.5 7.5v52.927c0 15.435-12.557 27.991-27.991 27.991h-352.94c-15.434 0-27.991-12.557-27.991-27.991v-124.085h43.099c4.142 0 7.5-3.357 7.5-7.5s-3.358-7.5-7.5-7.5h-43.099v-33.233h360.242c12.843 12.506 29.831 20.774 48.681 22.522v10.712h-330.824c-4.142 0-7.5 3.357-7.5 7.5s3.358 7.5 7.5 7.5h330.824v36.158c0 4.143 3.358 7.5 7.5 7.5s7.5-3.357 7.5-7.5v-61.87c40.927-3.796 73.077-38.33 73.077-80.232 0-44.43-36.147-80.577-80.577-80.577zm-416.423 113.732c0-15.435 12.557-27.991 27.991-27.991h308.018c.872 13.725 5.196 26.527 12.111 37.546h-348.12z" fill="#000000" data-original="#000000"></path></g></g></svg>