<svg id="Capa_1" enable-background="new 0 0 512 512" height="512" viewBox="0 0 512 512" width="512" xmlns="http://www.w3.org/2000/svg"><g><g><path clip-rule="evenodd" d="m10 120.12h456.823v-77.273c0-11.282-9.212-20.495-20.494-20.495h-415.835c-11.282 0-20.494 9.213-20.494 20.495z" fill="#ff7d95" fill-rule="evenodd"/></g><g><path clip-rule="evenodd" d="m10 386.692c0 11.254 9.212 20.495 20.494 20.495h98.729v-104.628h337.6v-182.439h-456.823z" fill="#fff" fill-rule="evenodd"/></g><g><path clip-rule="evenodd" d="m129.223 407.187v82.46h372.777v-187.088h-35.177-337.6z" fill="#a0e5a5" fill-rule="evenodd"/></g><g><path d="m502 292.56h-25.177v-249.713c0-16.815-13.68-30.495-30.494-30.495h-415.835c-16.814.001-30.494 13.68-30.494 30.495v343.845c0 16.815 13.68 30.495 30.494 30.495h88.729v72.46c0 5.523 4.477 10 10 10h44.985c5.523 0 10-4.477 10-10s-4.477-10-10-10h-34.985v-167.087h352.777v167.088h-227.992c-5.523 0-10 4.477-10 10s4.477 10 10 10h237.992c5.523 0 10-4.477 10-10v-187.088c0-5.523-4.477-10-10-10zm-471.506-260.207h415.834c5.787 0 10.494 4.708 10.494 10.495v67.273h-436.822v-67.274c0-5.786 4.708-10.494 10.494-10.494zm98.729 260.207c-5.523 0-10 4.477-10 10v94.627h-88.729c-5.787 0-10.494-4.708-10.494-10.495v-256.572h436.823v162.44z"/><path d="m360.752 81.25c5.523 0 10-4.477 10-10s-4.477-10-10-10h-.057c-5.523 0-9.972 4.477-9.972 10s4.506 10 10.029 10z"/><path d="m410.868 81.25c5.523 0 10-4.477 10-10s-4.477-10-10-10h-.057c-5.523 0-9.972 4.477-9.972 10s4.506 10 10.029 10z"/><path d="m310.637 81.25c5.523 0 10-4.477 10-10s-4.477-10-10-10h-.057c-5.523 0-9.972 4.477-9.972 10s4.506 10 10.029 10z"/><path d="m65.955 81.25h139.519c5.523 0 10-4.477 10-10s-4.477-10-10-10h-139.519c-5.523 0-10 4.477-10 10s4.477 10 10 10z"/><path d="m157.187 158.689c-5.391-1.2-10.733 2.202-11.931 7.592l-19.445 87.506c-1.198 5.392 2.201 10.733 7.592 11.931.731.163 1.46.24 2.179.24 4.584 0 8.717-3.172 9.752-7.833l19.445-87.506c1.199-5.39-2.201-10.732-7.592-11.93z"/><path d="m94.899 168.434c-4.252-3.523-10.556-2.933-14.081 1.319l-29.905 36.085c-3.067 3.701-3.067 9.061 0 12.762l29.905 36.085c1.978 2.386 4.831 3.62 7.705 3.62 2.248 0 4.509-.754 6.375-2.301 4.252-3.524 4.843-9.828 1.319-14.081l-24.617-29.704 24.617-29.705c3.525-4.252 2.934-10.556-1.318-14.08z"/><path d="m209.803 169.756c-3.523-4.253-9.826-4.847-14.08-1.325s-4.847 9.826-1.325 14.08l24.597 29.708-24.597 29.708c-3.522 4.254-2.929 10.558 1.325 14.08 1.866 1.545 4.125 2.298 6.372 2.298 2.875 0 5.73-1.235 7.708-3.623l29.877-36.085c3.063-3.7 3.063-9.055 0-12.755z"/><path d="m274.864 197.245h17.66c5.523 0 10-4.477 10-10s-4.477-10-10-10h-17.66c-5.523 0-10 4.477-10 10s4.477 10 10 10z"/><path d="m335.156 197.245h83.054c5.523 0 10-4.477 10-10s-4.477-10-10-10h-83.054c-5.523 0-10 4.477-10 10s4.477 10 10 10z"/><path d="m357.889 231.841h-83.025c-5.523 0-10 4.477-10 10s4.477 10 10 10h83.025c5.523 0 10-4.477 10-10s-4.477-10-10-10z"/><path d="m418.209 231.841h-17.688c-5.523 0-10 4.477-10 10s4.477 10 10 10h17.688c5.523 0 10-4.477 10-10s-4.477-10-10-10z"/><path d="m227.64 366.758c5.904 0 11.568 1.726 16.38 4.992 4.57 3.104 10.789 1.912 13.89-2.658 3.102-4.57 1.912-10.789-2.658-13.89-8.139-5.524-17.687-8.444-27.612-8.444-27.208 0-49.344 22.136-49.344 49.345 0 27.225 22.136 49.374 49.344 49.374 10.845 0 20.608-3.577 28.288-10.39 1.46-1.314 2.847-2.737 4.122-4.231 3.585-4.201 3.085-10.513-1.116-14.098-4.202-3.585-10.513-3.086-14.098 1.116-.707.828-1.475 1.617-2.233 2.299-3.967 3.52-9.001 5.304-14.962 5.304-16.181 0-29.344-13.177-29.344-29.374-.001-16.181 13.162-29.345 29.343-29.345z"/><path d="m323.307 425.477c-7.786 0-15.271-3.136-20.023-8.388-3.706-4.096-10.03-4.411-14.125-.707-4.096 3.706-4.412 10.029-.707 14.125 8.481 9.374 21.511 14.97 34.854 14.97 16.659 0 30.65-10.643 33.268-25.307 1.972-11.044-3.028-25.467-22.971-32.824-9.634-3.559-18.603-7.411-21.41-8.634-2.063-1.682-1.99-4.006-1.85-4.978.196-1.354 1.188-4.665 6.156-6.155 10.991-3.313 21.196 4.724 21.492 4.96 4.23 3.503 10.5 2.938 14.036-1.274 3.55-4.23 3-10.538-1.23-14.089-.745-.626-18.505-15.252-40.058-8.75-10.923 3.277-18.659 11.876-20.189 22.441-1.438 9.933 2.858 19.497 11.212 24.958.45.294.923.552 1.415.771.455.202 11.289 5 23.5 9.511 3.411 1.258 11.234 4.805 10.209 10.546-.774 4.338-6.065 8.824-13.579 8.824z"/><path d="m419.23 425.477c-7.763 0-15.255-3.142-20.04-8.405-3.715-4.087-10.04-4.388-14.126-.673-4.087 3.715-4.388 10.04-.673 14.126 8.639 9.502 21.336 14.952 34.838 14.952 16.667 0 30.664-10.647 33.281-25.316 1.97-11.042-3.035-25.462-22.984-32.814-9.634-3.559-18.602-7.411-21.41-8.634-2.054-1.676-1.981-3.997-1.841-4.967.196-1.357 1.187-4.676 6.142-6.165 11.012-3.317 21.223 4.718 21.525 4.959 4.229 3.503 10.5 2.938 14.036-1.274 3.55-4.23 3-10.538-1.23-14.089-.745-.625-18.505-15.246-40.091-8.749-10.917 3.281-18.648 11.886-20.176 22.457-1.435 9.928 2.858 19.485 11.204 24.942.45.294.924.552 1.416.771.455.202 11.289 5 23.503 9.513 3.413 1.258 11.242 4.803 10.218 10.538-.775 4.339-6.07 8.828-13.592 8.828z"/><path d="m219.108 479.647c-5.523 0-10 4.477-10 10s4.477 10 10 10h.057c5.523 0 9.972-4.477 9.972-10s-4.506-10-10.029-10z"/></g></g></svg>