<svg xmlns="http://www.w3.org/2000/svg" version="1.1" xmlns:xlink="http://www.w3.org/1999/xlink" xmlns:svgjs="http://svgjs.com/svgjs" width="512" height="512" x="0" y="0" viewBox="0 0 60 54" style="enable-background:new 0 0 512 512" xml:space="preserve" class=""><g><defs xmlns="http://www.w3.org/2000/svg"></defs><g xmlns="http://www.w3.org/2000/svg" id="Page-1" stroke="none" stroke-width="1" fill="none" fill-rule="evenodd"><g id="026---Electricity-Meter" fill-rule="nonzero"><g id="Icons_copy" transform="translate(1.000000, 1.000000)"><rect id="Rectangle-path" fill="#ff5722" x="0" y="0" width="58" height="52" rx="4" data-original="#ff5722"></rect><path d="M54,0 L51,0 C53.209139,0 55,1.790861 55,4 L55,48 C55,50.209139 53.209139,52 51,52 L54,52 C56.209139,52 58,50.209139 58,48 L58,4 C58,1.790861 56.209139,0 54,0 Z" id="Shape" fill="#d84315" data-original="#d84315"></path><rect id="Rectangle-path" fill="#f5f5f5" transform="translate(29.000000, 20.000000) rotate(90.000000) translate(-29.000000, -20.000000) " x="13" y="-5" width="32" height="50" data-original="#f5f5f5" class=""></rect><rect id="Rectangle-path" fill="#cfd8dc" x="51" y="4" width="3" height="32" data-original="#cfd8dc"></rect><circle id="Oval" fill="#ff9801" cx="29" cy="44" r="4" data-original="#ff9801"></circle><path d="M29,40 C28.4853157,40.0021695 27.9759276,40.1040471 27.5,40.3 C29.0110147,40.9085107 30.0007405,42.3740584 30.0007405,44.003 C30.0007405,45.6319416 29.0110147,47.0974893 27.5,47.706 C28.996414,48.3137595 30.711506,47.9619465 31.8478056,46.8141444 C32.9841052,45.6663423 33.3186267,43.947794 32.6958268,42.4575769 C32.0730269,40.9673599 30.6151229,39.9979121 29,40 Z" id="Shape" fill="#f57c00" data-original="#f57c00"></path></g><g id="Icons" fill="#000000"><path d="M55,0 L5,0 C2.23994685,0.00330611633 0.00330611633,2.23994685 0,5 L0,49 C0.00330611633,51.7600532 2.23994685,53.9966939 5,54 L55,54 C57.7600532,53.9966939 59.9966939,51.7600532 60,49 L60,5 C59.9966939,2.23994685 57.7600532,0.00330611633 55,0 Z M58,49 C58,50.6568542 56.6568542,52 55,52 L5,52 C3.34314575,52 2,50.6568542 2,49 L2,5 C2,3.34314575 3.34314575,2 5,2 L55,2 C56.6568542,2 58,3.34314575 58,5 L58,49 Z" id="Shape" fill="#000000" data-original="#000000" class=""></path><path d="M9,48 L6,48 L6,45 C6,44.4477153 5.55228475,44 5,44 C4.44771525,44 4,44.4477153 4,45 L4,49 C4,49.5522847 4.44771525,50 5,50 L9,50 C9.55228475,50 10,49.5522847 10,49 C10,48.4477153 9.55228475,48 9,48 Z" id="Shape" fill="#000000" data-original="#000000" class=""></path><path d="M55,4 L5,4 C4.44771525,4 4,4.44771525 4,5 L4,37 C4,37.5522847 4.44771525,38 5,38 L55,38 C55.5522847,38 56,37.5522847 56,37 L56,5 C56,4.44771525 55.5522847,4 55,4 Z M54,36 L28.088,36 L25.539,26.483 C30.6447823,25.3692603 35.9824454,26.2023451 40.506,28.819 C42.1201348,29.7394516 43.6005648,30.876691 44.906,32.199 C45.3024612,32.5433608 45.8977453,32.522397 46.269,32.151 L49.8,28.615 C50.0527654,28.3622346 50.1514815,27.993821 50.058963,27.648537 C49.9664444,27.3032531 49.6967469,27.0335556 49.351463,26.941037 C49.006179,26.8485185 48.6377654,26.9472346 48.385,27.2 L45.545,30.04 C44.5566515,29.1326263 43.4886809,28.316002 42.354,27.6 L44.366,24.114 C44.6376903,23.63614 44.4727416,23.0285795 43.9966943,22.7537255 C43.520647,22.4788714 42.9120058,22.6397864 42.634,23.114 L40.618,26.606 C39.4312964,25.9827453 38.1905564,25.4683085 36.911,25.069 L37.954,21.176 C38.0465318,20.8308814 37.9479161,20.4626136 37.6953006,20.2099195 C37.442685,19.9572253 37.0744479,19.8584951 36.7293006,19.9509195 C36.3841532,20.0433439 36.1145318,20.3128814 36.022,20.658 L34.98,24.548 C33.6705008,24.2631736 32.3389239,24.0915407 31,24.035 L31,20 C31,19.4477153 30.5522847,19 30,19 C29.4477153,19 29,19.4477153 29,20 L29,24.035 C27.6612821,24.0920949 26.3299992,24.2647368 25.021,24.551 L22.616,15.571 C22.5312837,15.2173001 22.2612096,14.9374841 21.9107323,14.8402928 C21.560255,14.7431014 21.1846428,14.8438612 20.9298642,15.1034153 C20.6750856,15.3629695 20.5813177,15.7403878 20.685,16.089 L23.09,25.072 C21.8098586,25.4705817 20.5687217,25.9850443 19.382,26.609 L17.366,23.117 C17.0879942,22.6427864 16.479353,22.4818714 16.0033057,22.7567255 C15.5272584,23.0315795 15.3623097,23.63914 15.634,24.117 L17.646,27.6 C16.5116154,28.3156766 15.4436743,29.131609 14.455,30.038 L11.615,27.198 C11.2237063,26.8072586 10.5897415,26.8077063 10.199,27.199 C9.80825857,27.5902938 9.80870628,28.2242585 10.2,28.615 L13.735,32.151 C14.1062407,32.5239249 14.7029752,32.5453462 15.1,32.2 C15.1358578,32.1692906 15.1692906,32.1358578 15.2,32.1 C17.5571416,29.7554583 20.4395914,28.0070646 23.608,27 L26.017,36 L6,36 L6,6 L54,6 L54,36 Z" id="Shape" fill="#000000" data-original="#000000" class=""></path><path d="M30,40 C27.2385763,40 25,42.2385763 25,45 C25,47.7614237 27.2385763,50 30,50 C32.7614237,50 35,47.7614237 35,45 C34.9966939,42.2399468 32.7600532,40.0033061 30,40 Z M30,48 C28.3431458,48 27,46.6568542 27,45 C27,43.3431458 28.3431458,42 30,42 C31.6568542,42 33,43.3431458 33,45 C33,46.6568542 31.6568542,48 30,48 Z" id="Shape" fill="#000000" data-original="#000000" class=""></path><path d="M9,14 C9.26519481,13.9999434 9.51950727,13.8945494 9.707,13.707 L13.707,9.707 C14.0859722,9.31462111 14.0805524,8.69091522 13.6948186,8.30518142 C13.3090848,7.91944763 12.6853789,7.91402779 12.293,8.293 L8.293,12.293 C8.00709208,12.5789943 7.92157809,13.0090366 8.07632202,13.3826546 C8.23106595,13.7562725 8.5956041,13.9999137 9,14 Z" id="Shape" fill="#000000" data-original="#000000" class=""></path><path d="M9,20 C9.26519481,19.9999434 9.51950727,19.8945494 9.707,19.707 L19.707,9.707 C20.0859722,9.31462111 20.0805524,8.69091522 19.6948186,8.30518142 C19.3090848,7.91944763 18.6853789,7.91402779 18.293,8.293 L8.293,18.293 C8.00709208,18.5789943 7.92157809,19.0090366 8.07632202,19.3826546 C8.23106595,19.7562725 8.5956041,19.9999137 9,20 Z" id="Shape" fill="#000000" data-original="#000000" class=""></path></g></g></g></g></svg>