<svg xmlns="http://www.w3.org/2000/svg" version="1.1" xmlns:xlink="http://www.w3.org/1999/xlink" xmlns:svgjs="http://svgjs.com/svgjs" width="512" height="512" x="0" y="0" viewBox="0 0 496 496" style="enable-background:new 0 0 512 512" xml:space="preserve" class=""><g> <circle xmlns="http://www.w3.org/2000/svg" style="" cx="360" cy="152" r="128" fill="#48c397" data-original="#48c397"></circle> <path xmlns="http://www.w3.org/2000/svg" style="" d="M360,248c-65.264,0-119.008-48.88-126.896-112c-0.656,5.256-1.104,10.568-1.104,16  c0,70.696,57.304,128,128,128s128-57.304,128-128c0-5.432-0.448-10.744-1.104-16C479.008,199.12,425.264,248,360,248z" fill="#0fa196" data-original="#0fa196"></path> <circle xmlns="http://www.w3.org/2000/svg" style="" cx="136" cy="152" r="128" fill="#39c3fc" data-original="#39c3fc"></circle> <path xmlns="http://www.w3.org/2000/svg" style="" d="M136,248C70.736,248,16.992,199.12,9.104,136C8.448,141.256,8,146.568,8,152  c0,70.696,57.304,128,128,128s128-57.304,128-128c0-5.432-0.448-10.744-1.104-16C255.008,199.12,201.264,248,136,248z" fill="#148ce0" data-original="#148ce0"></path> <circle xmlns="http://www.w3.org/2000/svg" style="" cx="248" cy="344" r="128" fill="#fea82f" data-original="#fea82f"></circle> <path xmlns="http://www.w3.org/2000/svg" style="" d="M248,440c-65.264,0-119.008-48.88-126.896-112c-0.656,5.256-1.104,10.568-1.104,16  c0,70.696,57.304,128,128,128s128-57.304,128-128c0-5.432-0.448-10.744-1.104-16C367.008,391.12,313.264,440,248,440z" fill="#ff8031" data-original="#ff8031"></path> <path xmlns="http://www.w3.org/2000/svg" d="M232,304h32c8.824,0,16,7.176,16,16h16c0-17.648-14.352-32-32-32h-8v-16h-16v16h-8c-17.648,0-32,14.352-32,32  s14.352,32,32,32h32c8.824,0,16,7.176,16,16s-7.176,16-16,16h-32c-8.824,0-16-7.176-16-16h-16c0,17.648,14.352,32,32,32h8v16h16v-16  h8c17.648,0,32-14.352,32-32s-14.352-32-32-32h-32c-8.824,0-16-7.176-16-16S223.176,304,232,304z" fill="#000000" data-original="#000000" class=""></path> <path xmlns="http://www.w3.org/2000/svg" d="M360,16c-44.816,0-86.8,22.368-112.04,58.968C223.408,39.392,182.4,16,136,16C61.008,16,0,77.008,0,152  c0,71.104,54.872,129.544,124.488,135.416C116.552,304.672,112,323.792,112,344c0,74.992,61.008,136,136,136  c28.408,0,55.704-8.776,78.936-25.384l-9.304-13.016C297.136,456.256,273.056,464,248,464c-66.168,0-120-53.832-120-120  s53.832-120,120-120s120,53.832,120,120c0,28.472-10.216,56.112-28.776,77.832l12.168,10.392C372.416,407.608,384,376.272,384,344  c0-20.184-4.536-39.28-12.456-56.52c24.224-2.048,47.328-10.52,67.392-24.864l-9.304-13.016  c-19.648,14.048-42.6,21.664-66.536,22.28c-22.136-35.2-59.856-59.576-103.48-63.288C267.704,190.912,272,171.6,272,152  c0-22.2-5.456-43.104-14.928-61.632C278.712,54.328,317.936,32,360,32c66.168,0,120,53.832,120,120  c0,28.472-10.216,56.112-28.776,77.832l12.168,10.392C484.416,215.608,496,184.272,496,152C496,77.008,434.992,16,360,16z   M132.928,271.848C68.184,270.192,16,217.128,16,152C16,85.832,69.832,32,136,32s120,53.832,120,120  c0,19.696-4.896,39.048-14.08,56.312C196,210.352,156,235.184,132.928,271.848z" fill="#000000" data-original="#000000" class=""></path> <path xmlns="http://www.w3.org/2000/svg" d="M360,96c13.232,0,24,10.768,24,24h16c0-22.056-17.944-40-40-40s-40,17.944-40,40v8h-16v16h16v16h-16v16h16v8  c0,22.056,17.944,40,40,40s40-17.944,40-40h-16c0,13.232-10.768,24-24,24s-24-10.768-24-24v-8h16v-16h-16v-16h16v-16h-16v-8  C336,106.768,346.768,96,360,96z" fill="#000000" data-original="#000000" class=""></path> <polygon xmlns="http://www.w3.org/2000/svg" points="190.072,85.208 177.928,74.792 136,123.704 94.072,74.792 81.928,85.208 128,138.96 128,160 112,160 112,176   128,176 128,192 112,192 112,208 128,208 128,216 144,216 144,208 160,208 160,192 144,192 144,176 160,176 160,160 144,160   144,138.96 " fill="#000000" data-original="#000000" class=""></polygon> <g xmlns="http://www.w3.org/2000/svg"> </g> <g xmlns="http://www.w3.org/2000/svg"> </g> <g xmlns="http://www.w3.org/2000/svg"> </g> <g xmlns="http://www.w3.org/2000/svg"> </g> <g xmlns="http://www.w3.org/2000/svg"> </g> <g xmlns="http://www.w3.org/2000/svg"> </g> <g xmlns="http://www.w3.org/2000/svg"> </g> <g xmlns="http://www.w3.org/2000/svg"> </g> <g xmlns="http://www.w3.org/2000/svg"> </g> <g xmlns="http://www.w3.org/2000/svg"> </g> <g xmlns="http://www.w3.org/2000/svg"> </g> <g xmlns="http://www.w3.org/2000/svg"> </g> <g xmlns="http://www.w3.org/2000/svg"> </g> <g xmlns="http://www.w3.org/2000/svg"> </g> <g xmlns="http://www.w3.org/2000/svg"> </g> </g></svg>