<svg xmlns="http://www.w3.org/2000/svg" version="1.1" xmlns:xlink="http://www.w3.org/1999/xlink" xmlns:svgjs="http://svgjs.com/svgjs" width="512" height="512" x="0" y="0" viewBox="0 0 512 512" style="enable-background:new 0 0 512 512" xml:space="preserve" class=""><g><g xmlns="http://www.w3.org/2000/svg"><g><path d="m368.226 7.5h-241.859c-4.252 0-8.33 1.689-11.337 4.695l-54.737 54.738c-3.007 3.007-4.696 7.085-4.696 11.337v355.655h320.645v-418.409c0-4.427-3.589-8.016-8.016-8.016z" fill="#fbf4db" data-original="#fbf4db" class=""></path><path d="m79.645 392.274v-312.629h40.081c4.427 0 8.016-3.589 8.016-8.016v-64.129h-1.375c-4.252 0-8.33 1.689-11.337 4.695l-54.737 54.738c-3.007 3.007-4.696 7.085-4.696 11.337v362.101c0 4.427 3.589 8.016 8.016 8.016h304.613c4.427 0 8.016-3.589 8.016-8.016v-16.032h-264.532c-17.709 0-32.065-14.356-32.065-32.065z" fill="#f8ebcc" data-original="#f8ebcc"></path><circle cx="360.21" cy="408.306" fill="#98db7c" r="96.194" data-original="#98db7c"></circle><path d="m376.242 488.468c-53.126 0-96.194-43.068-96.194-96.194 0-22.475 7.77-43.1 20.686-59.476-22.333 17.616-36.718 44.856-36.718 75.508 0 53.126 43.067 96.194 96.194 96.194 30.652 0 57.892-14.385 75.508-36.718-16.376 12.916-37.001 20.686-59.476 20.686z" fill="#77cc7d" data-original="#77cc7d"></path></g><g><path d="m360.209 304.613c-57.177 0-103.693 46.517-103.693 103.694s46.517 103.693 103.693 103.693 103.694-46.517 103.694-103.693-46.517-103.694-103.694-103.694zm0 192.387c-48.906 0-88.693-39.788-88.693-88.693s39.788-88.694 88.693-88.694 88.694 39.788 88.694 88.694-39.788 88.693-88.694 88.693z" fill="#000000" data-original="#000000" class=""></path><path d="m239.968 440.887h-176.355c-.285 0-.516-.231-.516-.516v-353.226h56.629c8.556 0 15.516-6.96 15.516-15.516v-56.629h232.984c.285 0 .516.231.516.516v264.532c0 4.142 3.358 7.5 7.5 7.5s7.5-3.358 7.5-7.5v-264.532c0-8.556-6.961-15.516-15.516-15.516h-241.859c-6.286 0-12.196 2.448-16.64 6.893l-54.738 54.737c-4.445 4.445-6.893 10.354-6.893 16.64v362.101c0 8.556 6.96 15.516 15.516 15.516h176.355c4.142 0 7.5-3.358 7.5-7.5s-3.357-7.5-7.499-7.5zm-119.726-423.296v54.038c0 .285-.231.516-.516.516h-54.039z" fill="#000000" data-original="#000000" class=""></path><path d="m189.158 114.422c-2.929-2.929-7.678-2.929-10.606 0l-3.463 3.463c-4.115-3.524-9.453-5.66-15.282-5.66h-32.065c-12.976 0-23.532 10.557-23.532 23.533v32.064c0 12.976 10.557 23.532 23.532 23.532h32.065c12.976 0 23.532-10.557 23.532-23.532v-32.064c0-1.531-.152-3.027-.433-4.478l6.252-6.252c2.929-2.928 2.929-7.677 0-10.606zm-20.819 53.401c0 4.705-3.828 8.532-8.532 8.532h-32.065c-4.705 0-8.532-3.828-8.532-8.532v-32.064c0-4.705 3.828-8.533 8.532-8.533h32.065c1.69 0 3.263.5 4.59 1.352l-18.568 18.568-3.363-6.725c-1.852-3.705-6.357-5.207-10.062-3.354-3.705 1.852-5.207 6.357-3.354 10.062l8.016 16.032c1.078 2.156 3.127 3.663 5.507 4.049.4.065.802.097 1.202.097 1.972 0 3.885-.779 5.303-2.197l19.261-19.261z" fill="#000000" data-original="#000000" class=""></path><path d="m189.158 210.616c-2.929-2.929-7.678-2.929-10.606 0l-3.463 3.463c-4.115-3.524-9.453-5.66-15.282-5.66h-32.065c-12.976 0-23.532 10.557-23.532 23.532v32.064c0 12.976 10.557 23.532 23.532 23.532h32.065c12.976 0 23.532-10.557 23.532-23.532v-32.064c0-1.531-.152-3.027-.432-4.477l6.252-6.252c2.928-2.928 2.928-7.677-.001-10.606zm-20.819 53.4c0 4.705-3.828 8.532-8.532 8.532h-32.065c-4.705 0-8.532-3.828-8.532-8.532v-32.064c0-4.705 3.828-8.532 8.532-8.532h32.065c1.69 0 3.263.5 4.59 1.352l-18.568 18.568-3.363-6.725c-1.852-3.705-6.357-5.208-10.062-3.354-3.705 1.852-5.207 6.357-3.354 10.062l8.016 16.032c1.078 2.156 3.127 3.663 5.507 4.049.4.065.802.097 1.202.097 1.972 0 3.885-.779 5.303-2.197l19.261-19.261z" fill="#000000" data-original="#000000" class=""></path><path d="m189.158 306.81c-2.929-2.929-7.678-2.929-10.606 0l-3.463 3.463c-4.115-3.524-9.453-5.66-15.282-5.66h-32.065c-12.976 0-23.532 10.557-23.532 23.532v32.064c0 12.976 10.557 23.532 23.532 23.532h32.065c12.976 0 23.532-10.557 23.532-23.532v-32.064c0-1.531-.152-3.027-.432-4.477l6.252-6.252c2.928-2.929 2.928-7.678-.001-10.606zm-20.819 53.399c0 4.705-3.828 8.532-8.532 8.532h-32.065c-4.705 0-8.532-3.828-8.532-8.532v-32.064c0-4.705 3.828-8.532 8.532-8.532h32.065c1.69 0 3.263.5 4.59 1.352l-18.568 18.568-3.363-6.725c-1.852-3.705-6.357-5.207-10.062-3.354-3.705 1.852-5.207 6.357-3.354 10.062l8.016 16.032c1.078 2.156 3.127 3.663 5.507 4.049.4.065.802.097 1.202.097 1.972 0 3.885-.779 5.303-2.197l19.261-19.261z" fill="#000000" data-original="#000000" class=""></path><path d="m215.919 143.258h56.113c4.142 0 7.5-3.358 7.5-7.5s-3.358-7.5-7.5-7.5h-56.113c-4.142 0-7.5 3.358-7.5 7.5s3.358 7.5 7.5 7.5z" fill="#000000" data-original="#000000" class=""></path><path d="m328.145 160.323h-112.226c-4.142 0-7.5 3.358-7.5 7.5s3.358 7.5 7.5 7.5h112.226c4.142 0 7.5-3.358 7.5-7.5s-3.358-7.5-7.5-7.5z" fill="#000000" data-original="#000000" class=""></path><path d="m215.919 239.452h56.113c4.142 0 7.5-3.358 7.5-7.5s-3.358-7.5-7.5-7.5h-56.113c-4.142 0-7.5 3.358-7.5 7.5s3.358 7.5 7.5 7.5z" fill="#000000" data-original="#000000" class=""></path><path d="m335.645 264.016c0-4.142-3.358-7.5-7.5-7.5h-112.226c-4.142 0-7.5 3.358-7.5 7.5s3.358 7.5 7.5 7.5h112.226c4.142 0 7.5-3.358 7.5-7.5z" fill="#000000" data-original="#000000" class=""></path><path d="m215.919 320.645c-4.142 0-7.5 3.358-7.5 7.5s3.358 7.5 7.5 7.5h48.097c4.142 0 7.5-3.358 7.5-7.5s-3.358-7.5-7.5-7.5z" fill="#000000" data-original="#000000" class=""></path><path d="m239.968 352.709h-24.048c-4.142 0-7.5 3.358-7.5 7.5s3.358 7.5 7.5 7.5h24.048c4.142 0 7.5-3.358 7.5-7.5s-3.358-7.5-7.5-7.5z" fill="#000000" data-original="#000000" class=""></path><path d="m403.003 378.955-54.453 54.453c-.202.201-.53.201-.73 0l-26.396-26.396c-2.928-2.929-7.677-2.929-10.606 0s-2.929 7.678 0 10.606l26.396 26.397c3.025 3.024 6.998 4.537 10.971 4.537s7.947-1.512 10.971-4.537l54.453-54.453c2.929-2.929 2.929-7.678 0-10.606-2.927-2.93-7.676-2.93-10.606-.001z" fill="#000000" data-original="#000000" class=""></path></g></g></g></svg>