<svg xmlns="http://www.w3.org/2000/svg" version="1.1" xmlns:xlink="http://www.w3.org/1999/xlink" xmlns:svgjs="http://svgjs.com/svgjs" width="512" height="512" x="0" y="0" viewBox="0 0 512 512" style="enable-background:new 0 0 512 512" xml:space="preserve" class=""><g><circle xmlns="http://www.w3.org/2000/svg" cx="256" cy="221.654" fill="#fc8086" r="70.711" data-original="#fc8086"></circle><path xmlns="http://www.w3.org/2000/svg" d="m203.472 268.984c12.942 14.354 31.679 23.382 52.528 23.382s39.586-9.028 52.528-23.382v-47.329c0-28.964-23.564-52.528-52.528-52.528s-52.528 23.564-52.528 52.528z" fill="#fa4954" data-original="#fa4954"></path><circle xmlns="http://www.w3.org/2000/svg" cx="27.703" cy="221.654" fill="#b9ea6a" r="20.203" data-original="#b9ea6a"></circle><path xmlns="http://www.w3.org/2000/svg" d="m449.951 392.372c-17.853 0-32.325 14.473-32.325 32.325v-20.203c0-17.853-14.473-32.325-32.325-32.325s-32.325 14.473-32.325 32.325v-30.305c0-17.853-14.473-32.325-32.325-32.325-17.853 0-32.325 14.473-32.325 32.325v-152.535c0-17.853-14.473-32.325-32.325-32.325s-32.325 14.473-32.325 32.325v236.245l-37.752-37.752c-12.624-12.624-33.091-12.624-45.715 0s-12.624 33.091 0 45.715l39.02 38.639h303.049v-79.803c-.002-17.854-14.474-32.326-32.327-32.326z" fill="#fcd0a3" data-original="#fcd0a3" class=""></path><g xmlns="http://www.w3.org/2000/svg" fill="#fba65c"><path d="m288.325 424.697v-203.043c0-13.173-7.889-24.517-19.193-29.547v222.488c0 5.579 4.523 10.102 10.102 10.102z" fill="#fba65c" data-original="#fba65c"></path><path d="m352.976 374.189v50.508h-10.102c-5.579 0-10.102-4.523-10.102-10.102v-70.388c11.839 4.799 20.204 16.416 20.204 29.982z" fill="#fba65c" data-original="#fba65c"></path><path d="m417.626 404.494v20.203h-10.102c-5.579 0-10.102-4.523-10.102-10.102v-40.083c11.84 4.799 20.204 16.415 20.204 29.982z" fill="#fba65c" data-original="#fba65c"></path><path d="m482.276 424.697v79.803h-20.203v-109.784c11.839 4.798 20.203 16.415 20.203 29.981z" fill="#fba65c" data-original="#fba65c"></path></g><circle xmlns="http://www.w3.org/2000/svg" cx="94.57" cy="60.224" fill="#fbe77b" r="20.203" data-original="#fbe77b"></circle><circle xmlns="http://www.w3.org/2000/svg" cx="484.297" cy="221.654" fill="#b9ea6a" r="20.203" data-original="#b9ea6a"></circle><circle xmlns="http://www.w3.org/2000/svg" cx="256" cy="27.703" fill="#fc8086" r="20.203" data-original="#fc8086"></circle><circle xmlns="http://www.w3.org/2000/svg" cx="417.43" cy="60.224" fill="#62d8f9" r="20.203" data-original="#62d8f9"></circle><path xmlns="http://www.w3.org/2000/svg" d="m364.243 229.154h93.391c3.28 11.642 13.987 20.204 26.663 20.204 15.275 0 27.703-12.428 27.703-27.704 0-15.275-12.428-27.703-27.703-27.703-12.676 0-23.384 8.561-26.663 20.203h-93.376c-1.605-23.685-10.798-45.878-26.404-63.746l66.026-66.026c4.194 2.35 8.87 3.533 13.55 3.533 7.095 0 14.188-2.7 19.59-8.101 10.801-10.802 10.801-28.377 0-39.178-5.232-5.232-12.189-8.114-19.589-8.114s-14.357 2.882-19.59 8.114c-8.963 8.963-10.48 22.588-4.568 33.139l-66.027 66.027c-19.746-17.245-44.767-26.664-71.246-26.664-26.48 0-51.502 9.42-71.247 26.663l-66.027-66.027c5.913-10.551 4.395-24.176-4.568-33.139-5.232-5.232-12.189-8.114-19.59-8.114-7.399 0-14.356 2.882-19.589 8.114-10.801 10.801-10.801 28.376 0 39.178 5.401 5.401 12.495 8.101 19.59 8.101 4.679 0 9.356-1.183 13.55-3.533l66.027 66.027c-15.607 17.87-24.799 40.062-26.404 63.746h-93.376c-3.28-11.642-13.987-20.203-26.663-20.203-15.275 0-27.703 12.428-27.703 27.703 0 15.276 12.428 27.704 27.703 27.704 12.676 0 23.384-8.562 26.663-20.204h93.391c2.865 41.698 29.437 78.105 68.417 93.467v33.03c0 4.142 3.357 7.5 7.5 7.5s7.5-3.358 7.5-7.5v-133.997c0-13.688 11.137-24.825 24.825-24.825s24.825 11.137 24.825 24.825v203.043c0 4.142 3.357 7.5 7.5 7.5s7.5-3.358 7.5-7.5v-50.508c0-13.688 11.137-24.825 24.825-24.825s24.825 11.137 24.825 24.825v30.305 20.203c0 4.142 3.357 7.5 7.5 7.5s7.5-3.358 7.5-7.5v-20.203c0-13.689 11.137-24.826 24.825-24.826s24.825 11.137 24.825 24.826v20.203c0 4.142 3.357 7.5 7.5 7.5s7.5-3.358 7.5-7.5c0-13.688 11.137-24.825 24.825-24.825s24.825 11.137 24.825 24.825v20.794c0 4.142 3.357 7.5 7.5 7.5s7.5-3.358 7.5-7.5v-20.794c0-21.959-17.865-39.825-39.825-39.825-9.959 0-19.076 3.675-26.066 9.739-4.406-17.196-20.034-29.942-38.584-29.942-9.384 0-18.02 3.262-24.833 8.712-.434-21.587-18.129-39.017-39.817-39.017-9.38 0-18.013 3.26-24.825 8.705v-20.447c38.981-15.363 65.553-51.769 68.419-93.468zm120.054-20.203c7.005 0 12.703 5.699 12.703 12.703 0 7.005-5.698 12.704-12.703 12.704s-12.703-5.699-12.703-12.704c0-7.004 5.698-12.703 12.703-12.703zm-75.849-157.709c2.399-2.399 5.589-3.721 8.982-3.721s6.582 1.321 8.981 3.721c4.953 4.953 4.953 13.012 0 17.965-4.95 4.953-13.012 4.954-17.964 0-4.952-4.953-4.952-13.012.001-17.965zm-322.86 17.965c-4.953-4.953-4.953-13.012 0-17.965 2.399-2.399 5.589-3.721 8.981-3.721 3.394 0 6.583 1.321 8.982 3.721 4.953 4.953 4.953 13.012 0 17.965-4.95 4.952-13.01 4.954-17.963 0zm-57.885 165.151c-7.005 0-12.703-5.699-12.703-12.704 0-7.004 5.698-12.703 12.703-12.703s12.703 5.699 12.703 12.703c0 7.005-5.698 12.704-12.703 12.704zm228.297-52.529c-21.96 0-39.825 17.866-39.825 39.825v49.115c-14.666-11.854-23.386-29.738-23.386-49.115 0-34.855 28.356-63.211 63.211-63.211 10.265 0 20.452 2.514 29.463 7.271 3.661 1.933 8.199.531 10.134-3.132 1.934-3.663.531-8.2-3.132-10.134-11.16-5.891-23.77-9.005-36.465-9.005-43.126 0-78.211 35.085-78.211 78.211 0 27.884 14.597 53.263 38.386 67.315v17.331c-32.501-15.274-53.691-48.07-53.691-84.646 0-24.988 9.728-48.471 27.393-66.126 17.653-17.663 41.137-27.39 66.124-27.39s48.471 9.727 66.127 27.393c17.662 17.652 27.39 41.135 27.39 66.124 0 36.576-21.19 69.372-53.691 84.646v-17.331c23.789-14.052 38.386-39.431 38.386-67.315 0-15.389-4.467-30.282-12.917-43.069-2.284-3.457-6.938-4.405-10.392-2.123-3.456 2.284-4.406 6.937-2.122 10.392 6.823 10.327 10.431 22.36 10.431 34.799 0 19.378-8.72 37.262-23.386 49.115v-49.115c-.002-21.959-17.867-39.825-39.827-39.825z" fill="#000000" data-original="#000000" class=""></path><path xmlns="http://www.w3.org/2000/svg" d="m169.132 55.701c1.131 0 2.278-.256 3.357-.798 18.101-9.082 37.389-15.078 57.424-17.884 3.835 10.706 14.079 18.387 26.087 18.387s22.252-7.682 26.087-18.387c20.034 2.806 39.323 8.802 57.424 17.884 1.079.542 2.227.798 3.357.798 2.747 0 5.394-1.515 6.709-4.138 1.858-3.702.362-8.209-3.34-10.067-19.884-9.976-41.092-16.508-63.123-19.475-2.628-12.559-13.786-22.021-27.114-22.021s-24.486 9.462-27.115 22.02c-22.031 2.967-43.239 9.499-63.123 19.475-3.702 1.857-5.198 6.365-3.34 10.067 1.316 2.624 3.963 4.139 6.71 4.139zm86.868-40.701c7.005 0 12.703 5.699 12.703 12.703 0 7.005-5.698 12.704-12.703 12.704s-12.703-5.699-12.703-12.704c0-7.004 5.698-12.703 12.703-12.703z" fill="#000000" data-original="#000000" class=""></path><path xmlns="http://www.w3.org/2000/svg" d="m223.675 383.214c-4.143 0-7.5 3.358-7.5 7.5v49.078l-24.948-24.949c-7.522-7.522-17.523-11.665-28.161-11.665-10.639 0-20.64 4.143-28.16 11.665-7.522 7.521-11.665 17.522-11.665 28.161 0 10.638 4.143 20.639 11.69 28.186l39.02 38.639c1.463 1.448 3.37 2.171 5.277 2.171 1.932 0 3.862-.742 5.329-2.223 2.915-2.943 2.892-7.692-.052-10.606l-38.994-38.613c-4.688-4.689-7.271-10.923-7.271-17.554s2.582-12.865 7.271-17.554c4.688-4.689 10.922-7.271 17.554-7.271 6.631 0 12.865 2.582 17.554 7.271l37.752 37.752c2.146 2.146 5.371 2.787 8.174 1.626s4.63-3.896 4.63-6.929v-67.185c0-4.142-3.358-7.5-7.5-7.5z" fill="#000000" data-original="#000000" class=""></path><path xmlns="http://www.w3.org/2000/svg" d="m482.276 473c-4.143 0-7.5 3.358-7.5 7.5v24c0 4.142 3.357 7.5 7.5 7.5s7.5-3.358 7.5-7.5v-24c0-4.142-3.357-7.5-7.5-7.5z" fill="#000000" data-original="#000000" class=""></path></g></svg>