<svg xmlns="http://www.w3.org/2000/svg" version="1.1" xmlns:xlink="http://www.w3.org/1999/xlink" xmlns:svgjs="http://svgjs.com/svgjs" width="512" height="512" x="0" y="0" viewBox="0 0 682.667 682.667" style="enable-background:new 0 0 512 512" xml:space="preserve" class=""><g><defs><clipPath id="a" clipPathUnits="userSpaceOnUse"><path d="M0 512h512V0H0Z" fill="#000000" data-original="#000000"></path></clipPath></defs><g clip-path="url(#a)" transform="matrix(1.33333 0 0 -1.33333 0 682.667)"><path d="M0 0h-329.223c-8.837 0-16-7.164-16-16v-421.097c0-8.828 7.156-16 16-16H0c8.838 0 16 7.163 16 16V-16C16-7.163 8.84 0 0 0" style="fill-opacity:1;fill-rule:nonzero;stroke:none" transform="translate(354.565 504.5)" fill="#9dc6fb" data-original="#9dc6fb" class=""></path><path d="M0 0h-28.346c8.816 0 16-7.14 16-16v-421.097c0-8.837-7.163-16-16-16H0c8.838 0 16 7.163 16 16V-16C16-7.152 8.826 0 0 0" style="fill-opacity:1;fill-rule:nonzero;stroke:none" transform="translate(354.565 504.5)" fill="#80b4fb" data-original="#80b4fb"></path><path d="M0 0c-8.836 0-16-7.163-16-16v-393.193h322.625c8.838 0 16 7.163 16 16V0Z" style="fill-opacity:1;fill-rule:nonzero;stroke:none" transform="translate(47.94 460.597)" fill="#80b4fb" data-original="#80b4fb"></path><path d="m0 0 12.81 29.527h-57.163L-31.542 0Z" style="fill-opacity:1;fill-rule:nonzero;stroke:none" transform="translate(489.849 101.772)" fill="#bed8fb" data-original="#bed8fb"></path><path d="m0 0-12.809-29.527H9.868L22.678 0Z" style="fill-opacity:1;fill-rule:nonzero;stroke:none" transform="translate(479.98 131.299)" fill="#9dc6fb" data-original="#9dc6fb" class=""></path><path d="M0 0h329.224c8.836 0 16 7.163 16 16v421.097c0 8.837-7.164 16-16 16H0c-8.837 0-16-7.163-16-16V16C-16 7.163-8.837 0 0 0" style="fill-opacity:1;fill-rule:nonzero;stroke:none" transform="translate(67.782 7.5)" fill="#e7ecf6" data-original="#e7ecf6" class=""></path><path d="M0 0c0-12.371-10.028-22.4-22.399-22.4C-34.771-22.4-44.8-12.371-44.8 0c0 12.371 10.029 22.4 22.401 22.4C-10.028 22.4 0 12.371 0 0" style="fill-opacity:1;fill-rule:nonzero;stroke:none" transform="translate(155.18 376.863)" fill="#e28086" data-original="#e28086"></path><path d="M0 0c0-12.371-10.028-22.4-22.399-22.4C-34.771-22.4-44.8-12.371-44.8 0c0 12.371 10.029 22.4 22.401 22.4C-10.028 22.4 0 12.371 0 0" style="fill-opacity:1;fill-rule:nonzero;stroke:none" transform="translate(155.18 280.485)" fill="#e28086" data-original="#e28086"></path><path d="M0 0c0-12.371-10.028-22.4-22.399-22.4C-34.771-22.4-44.8-12.371-44.8 0c0 12.371 10.029 22.4 22.401 22.4C-10.028 22.4 0 12.371 0 0" style="fill-opacity:1;fill-rule:nonzero;stroke:none" transform="translate(155.18 184.107)" fill="#e28086" data-original="#e28086"></path><path d="M0 0c0-12.371-10.028-22.4-22.399-22.4C-34.771-22.4-44.8-12.371-44.8 0c0 12.371 10.029 22.4 22.401 22.4C-10.028 22.4 0 12.371 0 0" style="fill-opacity:1;fill-rule:nonzero;stroke:none" transform="translate(155.18 87.73)" fill="#e28086" data-original="#e28086"></path><path d="m0 0 11.301 26.048h-31.542L-8.941 0C-6.929-4.64-2.013-4.64 0 0" style="fill-opacity:1;fill-rule:nonzero;stroke:none" transform="translate(478.548 75.725)" fill="#017197" data-original="#017197"></path><path d="M502.658 328.253h-57.162V131.299h57.162z" style="fill-opacity:1;fill-rule:nonzero;stroke:none" fill="#e28086" data-original="#e28086"></path><path d="M0 0h57.161v27.486c0 9.988-6.325 18.084-14.128 18.084H14.128C6.324 45.57-.001 37.474 0 27.486Z" style="fill-opacity:1;fill-rule:nonzero;stroke:none" transform="translate(445.497 328.253)" fill="#ecbe6b" data-original="#ecbe6b"></path><path d="M502.658 328.253H479.98V131.299h22.678z" style="fill-opacity:1;fill-rule:nonzero;stroke:none" fill="#dd636e" data-original="#dd636e"></path><path d="M0 0h-22.677C-14.874 0-8.55-8.097-8.55-18.084V-45.57h22.678v27.486C14.128-8.097 7.803 0 0 0" style="fill-opacity:1;fill-rule:nonzero;stroke:none" transform="translate(488.53 373.823)" fill="#eab14d" data-original="#eab14d"></path><path d="m0 0-4.433-10.217 6.869-15.83c2.011-4.64 6.927-4.64 8.94 0L22.677 0Z" style="fill-opacity:1;fill-rule:nonzero;stroke:none" transform="translate(467.172 101.772)" fill="#2b4d66" data-original="#2b4d66"></path><path d="M0 0h-28.347c8.837 0 16-7.163 16-16v-421.097c0-8.836-7.163-16-16-16H0c8.836 0 16 7.164 16 16V-16C16-7.163 8.836 0 0 0" style="fill-opacity:1;fill-rule:nonzero;stroke:none" transform="translate(397.006 460.597)" fill="#d8e2f1" data-original="#d8e2f1" class=""></path><path d="M0 0h329.224c8.836 0 16 7.163 16 16v421.097c0 8.837-7.164 16-16 16H0c-8.837 0-16-7.163-16-16V16C-16 7.163-8.837 0 0 0Z" style="stroke-width:15;stroke-linecap:round;stroke-linejoin:round;stroke-miterlimit:10;stroke-dasharray:none;stroke-opacity:1" transform="translate(67.782 7.5)" fill="none" stroke="#000000" stroke-width="15" stroke-linecap="round" stroke-linejoin="round" stroke-miterlimit="10" stroke-dasharray="none" stroke-opacity="" data-original="#000000" class=""></path><path d="M0 0c0-12.371-10.028-22.4-22.399-22.4C-34.771-22.4-44.8-12.371-44.8 0c0 12.371 10.029 22.4 22.401 22.4C-10.028 22.4 0 12.371 0 0Z" style="stroke-width:15;stroke-linecap:round;stroke-linejoin:round;stroke-miterlimit:10;stroke-dasharray:none;stroke-opacity:1" transform="translate(155.18 376.863)" fill="none" stroke="#000000" stroke-width="15" stroke-linecap="round" stroke-linejoin="round" stroke-miterlimit="10" stroke-dasharray="none" stroke-opacity="" data-original="#000000" class=""></path><path d="M0 0h167.312" style="stroke-width:15;stroke-linecap:round;stroke-linejoin:round;stroke-miterlimit:10;stroke-dasharray:none;stroke-opacity:1" transform="translate(187.097 392.512)" fill="none" stroke="#000000" stroke-width="15" stroke-linecap="round" stroke-linejoin="round" stroke-miterlimit="10" stroke-dasharray="none" stroke-opacity="" data-original="#000000" class=""></path><path d="M0 0h131.076" style="stroke-width:15;stroke-linecap:round;stroke-linejoin:round;stroke-miterlimit:10;stroke-dasharray:none;stroke-opacity:1" transform="translate(187.097 361.215)" fill="none" stroke="#000000" stroke-width="15" stroke-linecap="round" stroke-linejoin="round" stroke-miterlimit="10" stroke-dasharray="none" stroke-opacity="" data-original="#000000" class=""></path><path d="M0 0c0-12.371-10.028-22.4-22.399-22.4C-34.771-22.4-44.8-12.371-44.8 0c0 12.371 10.029 22.4 22.401 22.4C-10.028 22.4 0 12.371 0 0Z" style="stroke-width:15;stroke-linecap:round;stroke-linejoin:round;stroke-miterlimit:10;stroke-dasharray:none;stroke-opacity:1" transform="translate(155.18 280.485)" fill="none" stroke="#000000" stroke-width="15" stroke-linecap="round" stroke-linejoin="round" stroke-miterlimit="10" stroke-dasharray="none" stroke-opacity="" data-original="#000000" class=""></path><path d="M0 0h167.312" style="stroke-width:15;stroke-linecap:round;stroke-linejoin:round;stroke-miterlimit:10;stroke-dasharray:none;stroke-opacity:1" transform="translate(187.097 296.134)" fill="none" stroke="#000000" stroke-width="15" stroke-linecap="round" stroke-linejoin="round" stroke-miterlimit="10" stroke-dasharray="none" stroke-opacity="" data-original="#000000" class=""></path><path d="M0 0h131.076" style="stroke-width:15;stroke-linecap:round;stroke-linejoin:round;stroke-miterlimit:10;stroke-dasharray:none;stroke-opacity:1" transform="translate(187.097 264.837)" fill="none" stroke="#000000" stroke-width="15" stroke-linecap="round" stroke-linejoin="round" stroke-miterlimit="10" stroke-dasharray="none" stroke-opacity="" data-original="#000000" class=""></path><path d="M0 0c0-12.371-10.028-22.4-22.399-22.4C-34.771-22.4-44.8-12.371-44.8 0c0 12.371 10.029 22.4 22.401 22.4C-10.028 22.4 0 12.371 0 0Z" style="stroke-width:15;stroke-linecap:round;stroke-linejoin:round;stroke-miterlimit:10;stroke-dasharray:none;stroke-opacity:1" transform="translate(155.18 184.107)" fill="none" stroke="#000000" stroke-width="15" stroke-linecap="round" stroke-linejoin="round" stroke-miterlimit="10" stroke-dasharray="none" stroke-opacity="" data-original="#000000" class=""></path><path d="M0 0h167.312" style="stroke-width:15;stroke-linecap:round;stroke-linejoin:round;stroke-miterlimit:10;stroke-dasharray:none;stroke-opacity:1" transform="translate(187.097 199.756)" fill="none" stroke="#000000" stroke-width="15" stroke-linecap="round" stroke-linejoin="round" stroke-miterlimit="10" stroke-dasharray="none" stroke-opacity="" data-original="#000000" class=""></path><path d="M0 0h131.076" style="stroke-width:15;stroke-linecap:round;stroke-linejoin:round;stroke-miterlimit:10;stroke-dasharray:none;stroke-opacity:1" transform="translate(187.097 168.459)" fill="none" stroke="#000000" stroke-width="15" stroke-linecap="round" stroke-linejoin="round" stroke-miterlimit="10" stroke-dasharray="none" stroke-opacity="" data-original="#000000" class=""></path><path d="M0 0c0-12.371-10.028-22.4-22.399-22.4C-34.771-22.4-44.8-12.371-44.8 0c0 12.371 10.029 22.4 22.401 22.4C-10.028 22.4 0 12.371 0 0Z" style="stroke-width:15;stroke-linecap:round;stroke-linejoin:round;stroke-miterlimit:10;stroke-dasharray:none;stroke-opacity:1" transform="translate(155.18 87.73)" fill="none" stroke="#000000" stroke-width="15" stroke-linecap="round" stroke-linejoin="round" stroke-miterlimit="10" stroke-dasharray="none" stroke-opacity="" data-original="#000000" class=""></path><path d="M0 0h167.312" style="stroke-width:15;stroke-linecap:round;stroke-linejoin:round;stroke-miterlimit:10;stroke-dasharray:none;stroke-opacity:1" transform="translate(187.097 103.378)" fill="none" stroke="#000000" stroke-width="15" stroke-linecap="round" stroke-linejoin="round" stroke-miterlimit="10" stroke-dasharray="none" stroke-opacity="" data-original="#000000" class=""></path><path d="M0 0h131.076" style="stroke-width:15;stroke-linecap:round;stroke-linejoin:round;stroke-miterlimit:10;stroke-dasharray:none;stroke-opacity:1" transform="translate(187.097 72.081)" fill="none" stroke="#000000" stroke-width="15" stroke-linecap="round" stroke-linejoin="round" stroke-miterlimit="10" stroke-dasharray="none" stroke-opacity="" data-original="#000000" class=""></path><path d="m0 0 12.811-29.527 11.3-26.047c2.012-4.64 6.928-4.64 8.941 0l11.3 26.047h.001L57.162 0Z" style="stroke-width:15;stroke-linecap:round;stroke-linejoin:round;stroke-miterlimit:10;stroke-dasharray:none;stroke-opacity:1" transform="translate(445.496 131.299)" fill="none" stroke="#000000" stroke-width="15" stroke-linecap="round" stroke-linejoin="round" stroke-miterlimit="10" stroke-dasharray="none" stroke-opacity="" data-original="#000000" class=""></path><path d="M445.496 131.299h57.162v196.954h-57.162z" style="stroke-width:15;stroke-linecap:round;stroke-linejoin:round;stroke-miterlimit:10;stroke-dasharray:381, 35, 786, 0;stroke-dashoffset:0;stroke-opacity:1" fill="none" stroke="#000000" stroke-width="15" stroke-linecap="round" stroke-linejoin="round" stroke-miterlimit="10" stroke-dasharray="381, 35, 786, 0" stroke-dashoffset="0" stroke-opacity="" data-original="#000000" class=""></path><path d="M0 0h57.161v27.486c0 9.988-6.325 18.084-14.128 18.084H14.128C6.324 45.57-.001 37.474 0 27.486Z" style="stroke-width:15;stroke-linecap:round;stroke-linejoin:round;stroke-miterlimit:10;stroke-dasharray:none;stroke-opacity:1" transform="translate(445.497 328.253)" fill="none" stroke="#000000" stroke-width="15" stroke-linecap="round" stroke-linejoin="round" stroke-miterlimit="10" stroke-dasharray="none" stroke-opacity="" data-original="#000000" class=""></path><path d="M0 0c0 8.837 7.163 16 16 16h302.782v27.903c0 8.848-7.174 16-16 16H-26.44c-8.837 0-16-7.164-16-16v-421.096c0-8.828 7.155-16 16-16H0Z" style="stroke-width:15;stroke-linecap:round;stroke-linejoin:round;stroke-miterlimit:10;stroke-dasharray:590, 35, 800, 0;stroke-dashoffset:0;stroke-opacity:1" transform="translate(51.782 444.597)" fill="none" stroke="#000000" stroke-width="15" stroke-linecap="round" stroke-linejoin="round" stroke-miterlimit="10" stroke-dasharray="590, 35, 800, 0" stroke-dashoffset="0" stroke-opacity="" data-original="#000000" class=""></path></g></g></svg>