<svg xmlns="http://www.w3.org/2000/svg" version="1.1" xmlns:xlink="http://www.w3.org/1999/xlink" xmlns:svgjs="http://svgjs.com/svgjs" width="512" height="512" x="0" y="0" viewBox="0 0 512 512" style="enable-background:new 0 0 512 512" xml:space="preserve" class=""><g><path xmlns="http://www.w3.org/2000/svg" d="m407.561 14.425h-365.708c-17.592 0-31.853 14.292-31.853 31.922v52.011h429.414v-52.011c0-17.63-14.261-31.922-31.853-31.922z" fill="#ffbdbc" data-original="#ffbdbc" class=""></path><path xmlns="http://www.w3.org/2000/svg" d="m439.414 262.667v-164.309h-429.414v248.712c0 17.63 14.261 31.922 31.853 31.922h267.147" fill="#faf7f5" data-original="#faf7f5" class=""></path><path xmlns="http://www.w3.org/2000/svg" d="m406.972 497.575 62.117-42.379c20.608-14.06 32.911-37.348 32.911-62.295v-105.628c-32.202-3.055-70.648-23.987-95.028-46.635" fill="#9de3d1" data-original="#9de3d1"></path><path xmlns="http://www.w3.org/2000/svg" d="m406.972 240.638c-24.379 22.646-62.826 43.579-95.028 46.635v105.628c0 24.947 12.304 48.236 32.912 62.296l62.116 42.379z" fill="#e7f9e9" data-original="#e7f9e9"></path><path xmlns="http://www.w3.org/2000/svg" d="m153.102 184.996c-5.213-1.822-10.917.925-12.741 6.138l-6.669 19.068-6.584-19.341c-.011-.032-.023-.064-.034-.096-.013-.037-.026-.073-.039-.11-.019-.052-.039-.104-.058-.156-.008-.022-.016-.044-.025-.065-.026-.066-.052-.131-.079-.196-.002-.005-.004-.009-.006-.014-.506-1.214-1.23-2.281-2.109-3.169-.029-.029-.058-.057-.087-.086-.025-.025-.05-.05-.076-.074-.787-.762-1.71-1.404-2.749-1.884-.006-.003-.012-.005-.017-.008-.063-.029-.126-.057-.189-.085-.02-.009-.041-.017-.061-.026-.049-.021-.099-.042-.149-.063-.041-.017-.082-.033-.123-.049-.031-.012-.063-.025-.094-.037-.065-.025-.13-.049-.195-.072-.008-.003-.017-.006-.025-.009l-.005-.002c-.397-.142-.804-.258-1.218-.349-.009-.002-.018-.004-.026-.005-.07-.015-.14-.03-.211-.043-.025-.005-.051-.009-.076-.014-.054-.01-.107-.02-.161-.029-.036-.006-.071-.011-.107-.017-.044-.007-.089-.014-.133-.02-.041-.006-.083-.011-.124-.017-.038-.005-.076-.01-.115-.015-.047-.006-.094-.01-.141-.015-.034-.003-.067-.007-.101-.01-.051-.005-.102-.009-.154-.013-.029-.002-.058-.005-.087-.007-.053-.004-.105-.007-.158-.01-.029-.001-.059-.003-.088-.005-.052-.002-.104-.004-.156-.005-.029-.001-.058-.002-.087-.002-.055-.001-.11-.002-.164-.002-.026 0-.052 0-.078 0-.056 0-.113.001-.169.002-.025.001-.051.001-.076.002-.06.002-.12.004-.18.007-.02.001-.04.002-.06.003-.064.003-.129.008-.193.012-.017.001-.034.002-.051.004-.068.005-.136.012-.204.018-.013.001-.025.002-.038.004-.072.007-.143.016-.215.024-.01.001-.02.002-.03.004-.752.096-1.488.277-2.193.536-.023.009-.047.018-.07.026-.051.019-.101.038-.151.058-.041.016-.082.033-.123.05-.029.012-.058.024-.087.036-.059.025-.118.05-.176.076-.009.004-.019.008-.028.012-1.121.5-2.111 1.188-2.945 2.013-.025.025-.05.05-.075.075-.029.029-.058.058-.086.087-.05.052-.1.105-.149.158-.002.002-.005.005-.007.007-.641.693-1.191 1.487-1.623 2.367-.002.004-.004.008-.006.012-.031.062-.061.125-.09.188-.009.02-.018.039-.027.059-.022.048-.044.097-.065.146-.017.038-.033.076-.049.115-.014.033-.028.066-.041.099-.024.059-.047.117-.07.176-.005.014-.011.028-.017.043-.039.101-.076.203-.112.305l-7.014 19.723-6.612-19.283c-1.791-5.225-7.48-8.005-12.703-6.216-5.224 1.791-8.007 7.479-6.215 12.703l15.9 46.368c1.379 4.022 5.15 6.732 9.402 6.756h.057c4.229 0 8.004-2.662 9.422-6.649l7.005-19.699 6.662 19.571c1.375 4.038 5.159 6.759 9.425 6.777h.042c4.249 0 8.036-2.686 9.439-6.699l16.236-46.423c1.82-5.212-.929-10.916-6.141-12.739z" fill="#000000" data-original="#000000"></path><path xmlns="http://www.w3.org/2000/svg" d="m256.31 184.996c-5.213-1.822-10.917.925-12.741 6.138l-6.67 19.069-6.563-19.281c-.006-.018-.012-.035-.018-.053l-.002-.007c-.002-.004-.003-.008-.005-.013-.024-.07-.049-.141-.074-.211-.01-.028-.021-.057-.032-.085-.017-.045-.034-.09-.051-.134-.018-.047-.038-.094-.057-.14-.01-.024-.019-.047-.029-.07-.027-.064-.055-.129-.083-.192-.002-.004-.003-.007-.005-.011-.535-1.202-1.286-2.254-2.19-3.124-.021-.02-.041-.039-.062-.059-.034-.032-.069-.065-.103-.097-.048-.044-.097-.088-.146-.132-.008-.007-.015-.013-.023-.02-.589-.519-1.246-.973-1.964-1.347-.008-.004-.016-.008-.024-.012-.057-.03-.115-.059-.173-.088-.023-.011-.046-.022-.068-.033-.044-.022-.089-.043-.134-.064-.039-.018-.078-.036-.118-.054-.03-.014-.06-.027-.09-.04-.06-.026-.12-.052-.18-.077-.011-.005-.023-.01-.034-.014-.624-.258-1.275-.454-1.943-.582-.001 0-.002 0-.003-.001-.078-.015-.156-.029-.235-.042-.016-.003-.031-.005-.047-.007-.064-.011-.128-.021-.192-.03-.024-.003-.048-.006-.072-.01-.056-.008-.112-.015-.168-.022-.031-.004-.062-.007-.093-.01-.049-.005-.098-.011-.147-.015-.038-.004-.076-.007-.114-.01-.042-.003-.083-.007-.125-.01s-.084-.005-.126-.008c-.04-.002-.079-.005-.119-.006-.043-.002-.085-.003-.128-.004-.038-.001-.076-.002-.115-.003-.045-.001-.089-.001-.134-.001-.037 0-.074-.001-.111 0-.045 0-.09.001-.135.002-.037.001-.073.001-.11.002-.046.002-.093.003-.139.005-.035.002-.069.003-.103.005-.047.003-.095.006-.142.009-.035.002-.07.005-.105.007-.048.004-.095.008-.143.013-.033.003-.066.006-.099.009-.05.005-.1.011-.15.017-.031.004-.063.007-.094.011-.055.007-.109.015-.163.023-.025.004-.051.007-.077.011-.059.009-.118.019-.176.029-.023.004-.045.007-.068.011-.064.011-.128.024-.192.037-.017.003-.034.006-.05.01-.074.015-.147.031-.221.048-.007.002-.014.003-.021.005-.164.038-.327.08-.488.126-.019.005-.038.011-.057.017-.059.017-.118.035-.177.053-.047.015-.095.031-.142.046-.028.009-.057.018-.085.028-.011.004-.022.007-.033.011-.054.019-.108.038-.162.057-.009.003-.019.006-.028.01-1.402.508-2.623 1.3-3.62 2.288-.023.022-.044.045-.067.068-.03.03-.06.06-.089.09-.762.787-1.404 1.71-1.884 2.749-.002.005-.005.011-.007.016-.029.063-.057.126-.085.19-.009.021-.018.042-.027.063-.021.048-.041.097-.061.146-.018.045-.036.09-.054.135-.011.027-.021.054-.032.081-.028.072-.054.145-.08.217l-.003.007-.001.004c-.007.019-.014.038-.02.057l-7.018 19.736-6.612-19.283c-1.791-5.225-7.48-8.005-12.702-6.216-5.225 1.791-8.008 7.479-6.216 12.703l15.899 46.368c1.379 4.022 5.15 6.732 9.402 6.756h.058c4.229 0 8.003-2.661 9.421-6.649l7.005-19.699 6.662 19.57c1.375 4.038 5.159 6.76 9.425 6.778h.042c4.248 0 8.036-2.686 9.439-6.698l16.237-46.423c1.821-5.217-.928-10.921-6.141-12.744z" fill="#000000" data-original="#000000"></path><path xmlns="http://www.w3.org/2000/svg" d="m359.519 184.996c-5.212-1.822-10.917.925-12.741 6.138l-6.669 19.068-6.584-19.341c-.011-.032-.023-.064-.034-.096-.013-.037-.025-.073-.039-.11-.019-.052-.039-.104-.058-.156-.009-.022-.017-.044-.025-.065-.026-.066-.052-.131-.079-.196-.002-.005-.004-.009-.006-.014-.506-1.214-1.23-2.281-2.109-3.169-.029-.029-.058-.057-.087-.086-.025-.025-.05-.05-.075-.074-.787-.762-1.71-1.404-2.749-1.884-.006-.003-.012-.005-.017-.008-.063-.029-.126-.057-.189-.085-.02-.009-.04-.017-.061-.026-.049-.021-.099-.042-.149-.063-.041-.017-.082-.033-.123-.049-.032-.012-.063-.025-.094-.037-.065-.025-.13-.049-.195-.072-.008-.003-.017-.006-.025-.009-.002-.001-.003-.001-.005-.002-.475-.169-.963-.302-1.46-.398-.017-.003-.034-.006-.051-.009-.062-.012-.125-.023-.187-.034-.029-.005-.057-.009-.086-.014-.051-.008-.103-.016-.154-.024-.036-.005-.071-.01-.107-.014-.044-.006-.088-.012-.132-.017-.042-.005-.084-.009-.126-.014-.038-.004-.076-.008-.114-.012-.047-.004-.095-.008-.142-.012-.033-.003-.065-.005-.097-.008-.05-.003-.1-.006-.15-.009-.032-.002-.064-.004-.095-.005-.05-.002-.101-.004-.151-.005-.031-.001-.061-.002-.091-.003-.054-.001-.108-.002-.163-.002-.026 0-.053 0-.079 0-.057 0-.114.001-.171.002-.024.001-.048.001-.073.002-.062.002-.124.004-.186.007-.018.001-.035.001-.052.002-.068.003-.136.008-.204.013-.013.001-.026.002-.039.003-.074.006-.147.012-.22.02-.007.001-.014.001-.021.002-.079.008-.158.017-.236.027-.002 0-.004.001-.007.001-.759.096-1.501.279-2.212.542-.005.002-.009.003-.014.005-.07.026-.14.053-.21.08-.023.009-.046.019-.07.028-.048.019-.096.039-.143.059-.043.018-.085.036-.128.055-.026.012-.052.023-.078.035-.058.026-.116.053-.174.08-.009.004-.019.009-.028.013-.956.455-1.813 1.047-2.553 1.746-.018.017-.037.035-.055.053-.037.035-.073.07-.109.105-.044.043-.087.087-.13.131-.01.01-.021.021-.031.031-.711.733-1.318 1.585-1.786 2.539-.002.004-.004.008-.006.012-.03.062-.06.125-.09.188-.009.02-.018.039-.027.059-.022.048-.044.097-.065.146-.017.038-.033.076-.049.115-.014.033-.028.066-.042.099-.024.059-.047.117-.07.176-.005.014-.011.028-.017.043-.039.101-.076.203-.112.305l-7.014 19.723-6.612-19.283c-1.791-5.225-7.481-8.005-12.703-6.216-5.224 1.791-8.007 7.479-6.215 12.703l15.9 46.368c1.379 4.022 5.15 6.732 9.402 6.756h.057c4.228 0 8.004-2.662 9.422-6.649l7.005-19.699 6.662 19.571c1.375 4.038 5.159 6.759 9.425 6.777h.042c4.249 0 8.036-2.686 9.439-6.699l16.236-46.423c1.82-5.21-.928-10.914-6.14-12.737z" fill="#000000" data-original="#000000"></path><path xmlns="http://www.w3.org/2000/svg" d="m502.944 277.318c-16.061-1.524-35.302-8.37-53.53-18.467v-212.504c0-23.116-18.775-41.922-41.853-41.922h-365.707c-23.079 0-41.854 18.806-41.854 41.922v300.723c0 23.116 18.775 41.922 41.854 41.922h260.091v3.909c0 28.255 13.936 54.631 37.276 70.556l62.115 42.379c1.692 1.154 3.66 1.739 5.637 1.739 1.6 0 3.204-.383 4.67-1.158.335-.177.657-.372.965-.582v.001l62.116-42.379c23.341-15.925 37.276-42.301 37.276-70.556v-105.628c0-5.157-3.922-9.468-9.056-9.955zm-482.944-230.971c0-12.088 9.804-21.922 21.854-21.922h365.708c12.05 0 21.853 9.834 21.853 21.922v42.011h-409.415zm21.854 322.645c-12.05 0-21.854-9.834-21.854-21.922v-238.712h409.414v137.767c-5.535-4.023-10.79-8.313-15.617-12.795-.005-.004-.017-.018-.038-.04-3.608-3.915-9.764-3.997-13.437-.143-.102.107-.159.167-.163.171-25.065 23.28-61.672 41.358-89.065 43.991-5.166.497-9.15 4.757-9.15 9.947v81.736zm355.118 109.655-46.48-31.712c-17.876-12.196-28.548-32.395-28.548-54.035v-96.918c26.463-4.722 53.889-18.761 75.027-34.229v216.894zm95.028-85.746c0 21.639-10.672 41.839-28.547 54.035l-46.481 31.712v-216.893c21.138 15.467 48.564 29.507 75.028 34.228z" fill="#000000" data-original="#000000"></path><path xmlns="http://www.w3.org/2000/svg" d="m192.315 66.392h-90.729c-5.522 0-10-4.477-10-10s4.478-10 10-10h90.729c5.523 0 10 4.477 10 10s-4.477 10-10 10z" fill="#000000" data-original="#000000"></path><path xmlns="http://www.w3.org/2000/svg" d="m56.2 66.39c-4.174 0-8.014-2.695-9.415-6.631-1.381-3.88-.202-8.326 2.946-10.99 3.282-2.778 8.092-3.123 11.746-.864 3.496 2.161 5.336 6.418 4.523 10.446-.932 4.616-5.086 8.039-9.8 8.039z" fill="#000000" data-original="#000000"></path><path xmlns="http://www.w3.org/2000/svg" d="m385.331 66.392h-13.679c-5.522 0-10-4.477-10-10s4.478-10 10-10h13.679c5.522 0 10 4.477 10 10s-4.478 10-10 10z" fill="#000000" data-original="#000000"></path><path xmlns="http://www.w3.org/2000/svg" d="m323.352 66.392h-13.679c-5.523 0-10-4.477-10-10s4.477-10 10-10h13.679c5.522 0 10 4.477 10 10s-4.478 10-10 10z" fill="#000000" data-original="#000000"></path><path xmlns="http://www.w3.org/2000/svg" d="m261.372 66.392h-13.679c-5.523 0-10-4.477-10-10s4.477-10 10-10h13.679c5.522 0 10 4.477 10 10s-4.477 10-10 10z" fill="#000000" data-original="#000000"></path></g></svg>