<svg xmlns="http://www.w3.org/2000/svg" version="1.1" xmlns:xlink="http://www.w3.org/1999/xlink" xmlns:svgjs="http://svgjs.com/svgjs" width="512" height="512" x="0" y="0" viewBox="0 0 512 512" style="enable-background:new 0 0 512 512" xml:space="preserve" class=""><g><g xmlns="http://www.w3.org/2000/svg"><g><path d="m116.71 449.195c0-10.332 4.688-18.403 17.906-26.635 1.364-.849 3.215-3.288 3.215-3.288 25.983-14.354 69.664-23.772 119.169-23.772 79.675 0 144.265 24.4 144.265 54.5 0 2.324-.365 4.57-1.118 6.722 0 0-2.043 2.295-2.684 3.438-13.131 23.417-70.908 35.623-141.007 35.623-79.676.001-139.746-16.488-139.746-46.588z" fill="#bbf49b" data-original="#bbf49b"></path><path d="m400.147 456.722c-8.78 26.92-69.497 47.778-143.147 47.778-79.68 0-144.26-24.4-144.26-54.5 0-11.4 9.261-21.978 25.091-30.728-.72 2.2-1.091 4.448-1.091 6.728 0 30.1 64.58 54.5 144.26 54.5 49.51 0 93.167-9.428 119.147-23.778z" fill="#9be69d" data-original="#9be69d"></path><path d="m436.453 187.953c0-99.661-80.792-180.453-180.453-180.453-12.019 0-23.604 1.175-34.685 3.416 0 0-10.315 4.043-15.335 5.574-72.185 22.01-119.482 89.519-119.482 171.463 0 112.049 116.278 219.08 156.8 252.019 7.098 5.769 17.255 5.769 24.353 0 2.533-2.059 9.093-1.39 9.093-1.39 47.424-39.937 159.709-145.583 159.709-250.629z" fill="#fe99a0" data-original="#fe99a0"></path><path d="m276.96 438.4c-3.25 2.74-6.19 5.17-8.78 7.27-7.1 5.77-17.26 5.77-24.36 0-40.52-32.94-168.27-145.67-168.27-257.72 0-87.79 62.705-160.864 145.765-177.034-67.17 26.26-114.765 91.554-114.765 168.034 0 114.1 132.47 228.91 170.41 259.45z" fill="#fd8087" data-original="#fd8087" class=""></path><path d="m376.624 187.953c0 28.215-9.687 54.167-25.917 74.712-30.854 27.645-56.303 38.295-94.707 38.295-66.619 0-115.384-47.734-115.384-114.353 0-32.22 8.994-59.893 29.576-81.529 3.95-4.153 11.098-11.828 11.098-11.828 20.545-16.23 46.495-25.921 74.71-25.921 66.619 0 120.624 54.005 120.624 120.624z" fill="#f2fbff" data-original="#f2fbff" class=""></path><path d="m350.707 262.665c-22.08 27.97-56.297 45.915-94.707 45.915-66.62 0-120.62-54.01-120.62-120.63 0-38.4 17.94-72.61 45.91-94.7-16.23 20.54-25.91 46.49-25.91 74.7 0 66.62 54 120.63 120.62 120.63 28.21 0 54.167-9.675 74.707-25.915z" fill="#dfeef4" data-original="#dfeef4" class=""></path><g fill="#918291"><path d="m213.264 120.455c-7.767 0-14.063 6.296-14.063 14.063v106.872c0 7.767 6.296 14.063 14.063 14.063s14.063-6.296 14.063-14.063v-106.872c0-7.766-6.296-14.063-14.063-14.063z" fill="#918291" data-original="#918291" class=""></path><path d="m291.146 120.455h-29.757c-6.941-.141-14.353 6.149-14.063 14.063v106.475c0 7.572 5.819 14.088 13.383 14.444 8.076.38 14.743-6.055 14.743-14.047v-30.501c0-1.07.864-1.938 1.934-1.943 5.221-.025 10.523-.046 13.761-.046 24.71 0 44.813-19.838 44.813-44.222-.002-24.385-20.104-44.223-44.814-44.223zm0 60.319c-3.223 0-8.448.02-13.622.045-1.073.005-1.947-.867-1.952-1.94-.053-10.804-.041-16.421-.073-28.343-.003-1.075.868-1.955 1.943-1.955h13.704c9.045 0 16.687 7.371 16.687 16.096 0 8.726-7.642 16.097-16.687 16.097z" fill="#918291" data-original="#918291" class=""></path></g></g><g><path d="m381.964 413.94c-12.559-7.328-29.127-13.417-48.456-17.854 13.151-13.481 26.801-28.58 39.861-44.924 46.836-58.61 70.583-113.521 70.583-163.208 0-44.676-15.946-87.974-44.901-121.917-2.688-3.152-7.422-3.526-10.573-.839-3.151 2.688-3.527 7.422-.839 10.574 26.642 31.231 41.313 71.071 41.313 112.183 0 108.903-126.681 220.34-165.508 251.9-4.313 3.507-10.577 3.507-14.891 0-38.826-31.56-165.507-142.997-165.507-251.9.001-95.369 77.587-172.955 172.954-172.955 39.484 0 76.657 12.953 107.5 37.458 3.243 2.577 7.96 2.036 10.538-1.207 2.577-3.243 2.037-7.961-1.207-10.538-33.524-26.634-73.923-40.713-116.831-40.713-103.638 0-187.953 84.315-187.953 187.953 0 49.687 23.748 104.598 70.583 163.208 13.182 16.496 26.965 31.724 40.229 45.299-46.381 10.886-73.624 30.468-73.624 53.539 0 9.667 4.984 23.962 28.728 37.157 1.154.641 2.403.946 3.636.946 2.635 0 5.192-1.392 6.562-3.858 2.012-3.621.708-8.187-2.913-10.199-13.551-7.531-21.014-16.07-21.014-24.045 0-15.925 29.108-32.536 71.261-40.926 19.053 18.536 36.152 33.116 47.596 42.418 4.899 3.982 10.902 5.973 16.907 5.973 6.003 0 12.009-1.991 16.907-5.973 11.511-9.356 28.742-24.052 47.93-42.743 43.133 8.303 72.928 25.049 72.928 41.25 0 22.23-56.167 47-136.765 47-30.958 0-60.284-3.698-84.806-10.695-3.98-1.133-8.133 1.171-9.27 5.155-1.136 3.983 1.171 8.133 5.155 9.27 25.843 7.374 56.592 11.271 88.923 11.271 39.417 0 76.587-5.841 104.661-16.447 30.375-11.475 47.104-27.653 47.104-45.553 0-9.317-4.65-23.136-26.801-36.06z" fill="#000000" data-original="#000000" class=""></path><path d="m336.401 287.715c30.328-24.472 47.722-60.834 47.722-99.762 0-70.648-57.476-128.124-128.124-128.124s-128.124 57.476-128.124 128.124c0 70.647 57.476 128.124 128.124 128.124 16.734 0 33.01-3.179 48.376-9.449 3.835-1.565 5.675-5.943 4.111-9.778-1.565-3.835-5.94-5.675-9.778-4.111-13.559 5.533-27.928 8.338-42.709 8.338-62.376 0-113.124-50.747-113.124-113.124s50.747-113.124 113.124-113.124 113.124 50.747 113.124 113.124c0 34.371-15.36 66.478-42.142 88.088-3.223 2.601-3.728 7.323-1.127 10.547 2.602 3.223 7.324 3.728 10.547 1.127z" fill="#000000" data-original="#000000" class=""></path><path d="m194.111 179.109c-4.142 0-7.5 3.358-7.5 7.5v56.346c0 12.117 9.858 21.975 21.975 21.975s21.975-9.858 21.975-21.975v-110.002c0-12.117-9.858-21.975-21.975-21.975s-21.975 9.858-21.975 21.975v18.332c0 4.142 3.358 7.5 7.5 7.5s7.5-3.358 7.5-7.5v-18.332c0-3.846 3.129-6.975 6.975-6.975s6.975 3.129 6.975 6.975v110.002c0 3.846-3.129 6.975-6.975 6.975s-6.975-3.129-6.975-6.975v-56.346c0-4.142-3.358-7.5-7.5-7.5z" fill="#000000" data-original="#000000" class=""></path><path d="m348.549 163.996c0-29.234-24.056-53.018-53.625-53.018h-30.564c-5.741-.071-11.516 2.366-15.829 6.75-4.174 4.243-6.376 9.688-6.211 15.347v109.88c0 12.117 9.858 21.975 21.975 21.975s21.975-9.858 21.975-21.975v-25.919c3.382-.014 6.474-.023 8.654-.023 29.569 0 53.625-23.784 53.625-53.017zm-53.625 38.017c-3.754 0-10.199.027-16.192.058-4.127.021-7.462 3.373-7.462 7.5v33.384c0 3.846-3.129 6.975-6.975 6.975s-6.975-3.129-6.975-6.975c-.005-.228.009-109.946-.005-110.277-.077-2.088 1.163-3.672 1.909-4.43 1.365-1.388 3.252-2.272 4.833-2.272.145.007 30.441 0 30.866.002 21.298 0 38.625 17.055 38.625 38.018s-17.326 38.017-38.624 38.017z" fill="#000000" data-original="#000000" class=""></path><path d="m294.924 139.928h-16.111c-1.993 0-3.904.793-5.311 2.205-1.407 1.411-2.195 3.324-2.189 5.317.016 5.519.048 25.108.091 33.21.022 4.128 3.375 7.46 7.499 7.46 4.419-.022 11.715-.054 16.021-.056 13.375 0 24.676-11.022 24.676-24.068s-11.301-24.068-24.676-24.068zm0 33.135c-2.168 0-5.216.009-8.554.022-.016-4.312-.034-15.957-.039-18.158h8.593c5.154 0 9.676 4.237 9.676 9.068s-4.522 9.068-9.676 9.068z" fill="#000000" data-original="#000000" class=""></path></g></g></g></svg>