<svg xmlns="http://www.w3.org/2000/svg" version="1.1" xmlns:xlink="http://www.w3.org/1999/xlink" xmlns:svgjs="http://svgjs.com/svgjs" width="512" height="512" x="0" y="0" viewBox="0 0 64 64" style="enable-background:new 0 0 512 512" xml:space="preserve" class=""><g><g xmlns="http://www.w3.org/2000/svg"><g><g><path d="m62 4v4h-4.8-10.4-9.6-10.4-9.6-10.4-4.8v-4c0-1.1.9-2 2-2h56c1.1 0 2 .9 2 2z" fill="#ccd1d9" data-original="#ccd1d9"></path></g><g><path d="m60 52v6c0 2.21-1.79 4-4 4h-12v-10z" fill="#aab2bd" data-original="#aab2bd"></path></g><g><path d="m24 52h16v10h-16z" fill="#aab2bd" data-original="#aab2bd"></path></g><g><path d="m20 52v10h-12c-2.21 0-4-1.79-4-4v-6z" fill="#aab2bd" data-original="#aab2bd"></path></g><g><path d="m40 52h4v10h-4z" fill="#969faa" data-original="#969faa"></path></g><g><path d="m20 52h4v10h-4z" fill="#969faa" data-original="#969faa"></path></g><g><path d="m62 48v2c0 1.1-.9 2-2 2h-16-4-16-4-16c-1.1 0-2-.9-2-2v-2z" fill="#ccd1d9" data-original="#ccd1d9"></path></g><g><path d="m2 8v24 16h60v-16-24z" fill="#e6e9ed" data-original="#e6e9ed" class=""></path></g><g><path d="m57.2 8c.51.59.8 1.27.8 2 0 2.21-2.69 4-6 4s-6-1.79-6-4c0-.73.29-1.41.8-2z" fill="#ffeaa7" data-original="#ffeaa7" class=""></path></g><g><path d="m58 22c0 1.31-.94 2.47-2.4 3.2-1-.75-2.25-1.2-3.6-1.2s-2.6.45-3.6 1.2c-1.46-.73-2.4-1.89-2.4-3.2 0-2.21 2.69-4 6-4s6 1.79 6 4z" fill="#ffeaa7" data-original="#ffeaa7" class=""></path></g><g><path d="m38 22c0 1.31-.94 2.47-2.4 3.2-1-.75-2.25-1.2-3.6-1.2s-2.6.45-3.6 1.2c-1.46-.73-2.4-1.89-2.4-3.2 0-2.21 2.69-4 6-4s6 1.79 6 4z" fill="#ffeaa7" data-original="#ffeaa7" class=""></path></g><g><path d="m37.2 8c.51.59.8 1.27.8 2 0 2.21-2.69 4-6 4s-6-1.79-6-4c0-.73.29-1.41.8-2z" fill="#ffeaa7" data-original="#ffeaa7" class=""></path></g><g><path d="m17.2 8c.51.59.8 1.27.8 2 0 2.21-2.69 4-6 4s-6-1.79-6-4c0-.73.29-1.41.8-2z" fill="#ffeaa7" data-original="#ffeaa7" class=""></path></g><g><path d="m18 22c0 1.31-.94 2.47-2.4 3.2-1-.75-2.25-1.2-3.6-1.2s-2.6.45-3.6 1.2c-1.46-.73-2.4-1.89-2.4-3.2 0-2.21 2.69-4 6-4s6 1.79 6 4z" fill="#ffeaa7" data-original="#ffeaa7" class=""></path></g><g><path d="m58 32c0 1.1-.9 2-2 2h-4-4c-1.1 0-2-.9-2-2v-2c0-1.96.94-3.7 2.4-4.8 1-.75 2.25-1.2 3.6-1.2s2.6.45 3.6 1.2c.23.17.44.36.64.56 1.09 1.08 1.76 2.58 1.76 4.24z" fill="#fcd770" data-original="#fcd770" class=""></path></g><g><path d="m56 44h-8c-1.1 0-2-.9-2-2v-2c0-3.31 2.69-6 6-6 1.66 0 3.16.67 4.24 1.76 1.09 1.08 1.76 2.58 1.76 4.24v2c0 1.1-.9 2-2 2z" fill="#fcd770" data-original="#fcd770" class=""></path></g><g><path d="m36 44h-8c-1.1 0-2-.9-2-2v-2c0-3.31 2.69-6 6-6 1.66 0 3.16.67 4.24 1.76 1.09 1.08 1.76 2.58 1.76 4.24v2c0 1.1-.9 2-2 2z" fill="#fcd770" data-original="#fcd770" class=""></path></g><g><path d="m38 32c0 1.1-.9 2-2 2h-4-4c-1.1 0-2-.9-2-2v-2c0-1.96.94-3.7 2.4-4.8 1-.75 2.25-1.2 3.6-1.2s2.6.45 3.6 1.2c.23.17.44.36.64.56 1.09 1.08 1.76 2.58 1.76 4.24z" fill="#fcd770" data-original="#fcd770" class=""></path></g><g><path d="m18 32c0 1.1-.9 2-2 2h-4-4c-1.1 0-2-.9-2-2v-2c0-1.96.94-3.7 2.4-4.8 1-.75 2.25-1.2 3.6-1.2s2.6.45 3.6 1.2c.23.17.44.36.64.56 1.09 1.08 1.76 2.58 1.76 4.24z" fill="#fcd770" data-original="#fcd770" class=""></path></g><g><path d="m16 44h-8c-1.1 0-2-.9-2-2v-2c0-3.31 2.69-6 6-6 1.66 0 3.16.67 4.24 1.76 1.09 1.08 1.76 2.58 1.76 4.24v2c0 1.1-.9 2-2 2z" fill="#fcd770" data-original="#fcd770" class=""></path></g></g><g><path d="m60 1h-56c-1.654 0-3 1.346-3 3v46c0 1.302.839 2.402 2 2.816v5.184c0 2.757 2.243 5 5 5h48c2.757 0 5-2.243 5-5v-5.184c1.161-.414 2-1.514 2-2.816v-46c0-1.654-1.346-3-3-3zm-56 2h56c.552 0 1 .448 1 1v3h-58v-3c0-.552.448-1 1-1zm1.184 30c.329.924 1.093 1.634 2.049 1.888-1.37 1.279-2.233 3.095-2.233 5.112v2c0 1.654 1.346 3 3 3h8c1.654 0 3-1.346 3-3v-2c0-2.017-.863-3.833-2.234-5.112.956-.255 1.72-.965 2.049-1.888h6.369c.329.924 1.093 1.634 2.049 1.888-1.37 1.279-2.233 3.095-2.233 5.112v2c0 1.654 1.346 3 3 3h8c1.654 0 3-1.346 3-3v-2c0-2.017-.863-3.833-2.234-5.112.956-.255 1.72-.965 2.049-1.888h6.369c.329.924 1.093 1.634 2.049 1.888-1.37 1.279-2.233 3.095-2.233 5.112v2c0 1.654 1.346 3 3 3h8c1.654 0 3-1.346 3-3v-2c0-2.017-.863-3.833-2.234-5.112.956-.255 1.72-.965 2.049-1.888h2.185v14h-58v-14zm10.449-8.972c-1.061-.648-2.302-1.028-3.633-1.028s-2.572.38-3.633 1.028c-.863-.559-1.367-1.291-1.367-2.028 0-1.626 2.29-3 5-3s5 1.374 5 3c0 .737-.504 1.469-1.367 2.028zm-8.633 5.972c0-2.757 2.243-5 5-5s5 2.243 5 5v2c0 .552-.448 1-1 1h-8c-.552 0-1-.448-1-1zm5 5c2.757 0 5 2.243 5 5v2c0 .552-.448 1-1 1h-8c-.552 0-1-.448-1-1v-2c0-2.757 2.243-5 5-5zm23.633-10.972c-1.061-.648-2.302-1.028-3.633-1.028s-2.572.38-3.633 1.028c-.863-.559-1.367-1.291-1.367-2.028 0-1.626 2.29-3 5-3s5 1.374 5 3c0 .737-.504 1.469-1.367 2.028zm-8.633 5.972c0-2.757 2.243-5 5-5s5 2.243 5 5v2c0 .552-.448 1-1 1h-8c-.552 0-1-.448-1-1zm5 5c2.757 0 5 2.243 5 5v2c0 .552-.448 1-1 1h-8c-.552 0-1-.448-1-1v-2c0-2.757 2.243-5 5-5zm23.633-10.972c-1.061-.648-2.302-1.028-3.633-1.028s-2.572.38-3.633 1.028c-.863-.559-1.367-1.291-1.367-2.028 0-1.626 2.29-3 5-3s5 1.374 5 3c0 .737-.504 1.469-1.367 2.028zm-8.633 5.972c0-2.757 2.243-5 5-5s5 2.243 5 5v2c0 .552-.448 1-1 1h-8c-.552 0-1-.448-1-1zm5 5c2.757 0 5 2.243 5 5v2c0 .552-.448 1-1 1h-8c-.552 0-1-.448-1-1v-2c0-2.757 2.243-5 5-5zm7-4v-1c0-1.786-.679-3.414-1.784-4.652 1.133-.905 1.784-2.093 1.784-3.348 0-2.804-3.075-5-7-5s-7 2.196-7 5c0 1.255.651 2.443 1.784 3.348-1.105 1.238-1.784 2.866-1.784 4.652v1h-6v-1c0-1.786-.679-3.414-1.784-4.652 1.133-.905 1.784-2.093 1.784-3.348 0-2.804-3.075-5-7-5s-7 2.196-7 5c0 1.255.651 2.443 1.784 3.348-1.105 1.238-1.784 2.866-1.784 4.652v1h-6v-1c0-1.786-.679-3.414-1.784-4.652 1.133-.905 1.784-2.093 1.784-3.348 0-2.804-3.075-5-7-5s-7 2.196-7 5c0 1.255.651 2.443 1.784 3.348-1.105 1.238-1.784 2.866-1.784 4.652v1h-2v-22h2.154c-.091.328-.154.66-.154 1 0 2.804 3.075 5 7 5s7-2.196 7-5c0-.34-.063-.672-.154-1h6.307c-.09.328-.153.66-.153 1 0 2.804 3.075 5 7 5s7-2.196 7-5c0-.34-.063-.672-.154-1h6.307c-.09.328-.153.66-.153 1 0 2.804 3.075 5 7 5s7-2.196 7-5c0-.34-.063-.672-.154-1h2.154v22zm-42.304-22c.201.323.304.658.304 1 0 1.626-2.29 3-5 3s-5-1.374-5-3c0-.342.103-.677.304-1zm20 0c.201.323.304.658.304 1 0 1.626-2.29 3-5 3s-5-1.374-5-3c0-.342.103-.677.304-1zm20 0c.201.323.304.658.304 1 0 1.626-2.29 3-5 3s-5-1.374-5-3c0-.342.103-.677.304-1zm-51.696 49v-5h14v8h-11c-1.654 0-3-1.346-3-3zm38-5v8h-2v-8zm-4 8h-14v-8h14zm-16 0h-2v-8h2zm33 0h-11v-8h14v5c0 1.654-1.346 3-3 3zm4-10h-56c-.552 0-1-.448-1-1v-1h58v1c0 .552-.448 1-1 1z" fill="#000000" data-original="#000000" class=""></path><path d="m31 40c0-.552.448-1 1-1v-2c-1.654 0-3 1.346-3 3v1h2z" fill="#000000" data-original="#000000" class=""></path><path d="m11 40c0-.552.448-1 1-1v-2c-1.654 0-3 1.346-3 3v1h2z" fill="#000000" data-original="#000000" class=""></path><path d="m51 40c0-.552.448-1 1-1v-2c-1.654 0-3 1.346-3 3v1h2z" fill="#000000" data-original="#000000" class=""></path><path d="m31 30c0-.552.448-1 1-1v-2c-1.654 0-3 1.346-3 3v1h2z" fill="#000000" data-original="#000000" class=""></path><path d="m11 30c0-.552.448-1 1-1v-2c-1.654 0-3 1.346-3 3v1h2z" fill="#000000" data-original="#000000" class=""></path><path d="m51 30c0-.552.448-1 1-1v-2c-1.654 0-3 1.346-3 3v1h2z" fill="#000000" data-original="#000000" class=""></path></g></g></g></svg>