<svg xmlns="http://www.w3.org/2000/svg" version="1.1" xmlns:xlink="http://www.w3.org/1999/xlink" xmlns:svgjs="http://svgjs.com/svgjs" width="512" height="512" x="0" y="0" viewBox="0 0 511.995 511.995" style="enable-background:new 0 0 512 512" xml:space="preserve" class=""><g><g xmlns="http://www.w3.org/2000/svg"><g><path d="m386.019 255.998c0 77.332-52.69 140.021-130.021 140.021s-140.021-62.69-140.021-140.021 62.69-140.021 140.021-140.021 130.021 62.689 130.021 140.021z" fill="#80b4fb" data-original="#80b4fb" class=""></path><path d="m255.997 115.976c-4.555 0-9.057.225-13.5.65 70.997 6.793 126.521 66.594 126.521 139.371s-55.525 132.578-126.521 139.371c4.443.425 8.945.65 13.5.65 77.331 0 140.021-62.69 140.021-140.021s-62.689-140.021-140.021-140.021z" fill="#61a2f9" data-original="#61a2f9"></path><g fill="#b3e59f"><path d="m65.901 166.921c1.694-1.681 4.572-.897 5.181 1.41l20.648 78.3c.608 2.307-1.509 4.408-3.812 3.782l-21.785-5.93c-1.991 12.092-2.821 24.397-2.458 36.815 1.322 45.3 18.75 88.744 49.071 122.328 29.892 33.109 70.493 54.805 114.368 61.126 9.55 1.376 16.566 10.091 15.294 19.656-.929 6.987-5.858 12.443-12.159 14.395-2.387.739-4.97.976-7.608.602-52.125-7.387-100.362-33.087-135.825-72.366-35.877-39.738-56.497-91.134-58.062-144.721-.464-15.884.727-31.617 3.523-47.051l-22.491-6.122c-2.303-.627-3.063-3.511-1.369-5.192z" fill="#b3e59f" data-original="#b3e59f"></path><path d="m365.383 500.92c2.324.544 4.364-1.632 3.673-3.916l-6.749-22.306c14.564-5.823 28.529-13.17 41.743-21.995 44.583-29.772 77.194-74.53 91.826-126.03 14.463-50.904 10.637-105.426-10.772-153.522-3.895-8.75-14.104-12.718-22.871-8.939-8.901 3.837-12.807 14.649-8.884 23.512 17.945 40.545 21.115 86.483 8.921 129.401-12.366 43.524-39.932 81.355-77.621 106.523-10.332 6.899-21.2 12.727-32.505 17.459l-6.539-21.61c-.691-2.284-3.596-2.964-5.228-1.223l-55.396 59.063c-1.633 1.741-.769 4.596 1.555 5.139z" fill="#b3e59f" data-original="#b3e59f"></path><path d="m440.365 123.064c.668 2.291-1.394 4.446-3.712 3.879l-78.659-19.236c-2.318-.567-3.153-3.43-1.503-5.155l15.611-16.312c-9.675-7.522-20.091-14.125-31.176-19.735-40.436-20.463-86.93-25.889-130.915-15.279-43.507 10.495-82.059 35.943-108.566 71.66-5.75 7.747-16.69 9.367-24.438 3.617-7.747-5.749-9.367-16.69-3.617-24.438 31.375-42.276 76.988-72.392 128.428-84.801 52.045-12.555 107.05-6.138 154.884 18.069 14.179 7.175 27.434 15.732 39.661 25.557l16.116-16.84c1.65-1.724 4.548-1.015 5.216 1.275z" fill="#b3e59f" data-original="#b3e59f"></path></g><path d="m234.854 170.532h37.925c3.838 0 6.595 3.695 5.501 7.374l-17.308 58.235h30.565c4.296 0 7.069 4.546 5.103 8.366l-48.837 94.87c-1.953 3.793-7.71 2.027-7.201-2.208l8.182-68.011h-28.334c-3.543 0-6.24-3.179-5.662-6.675l14.403-87.149c.459-2.77 2.855-4.802 5.663-4.802z" fill="#ffe07d" data-original="#ffe07d" class=""></path></g><g><g><path d="m255.996 403.521c-81.344 0-147.521-66.178-147.521-147.522s66.178-147.521 147.521-147.521c81.344 0 147.522 66.178 147.522 147.521-.001 81.345-66.178 147.522-147.522 147.522zm0-280.043c-73.072 0-132.521 59.449-132.521 132.521s59.449 132.522 132.521 132.522 132.521-59.449 132.521-132.521-59.449-132.522-132.521-132.522z" fill="#000000" data-original="#000000" class=""></path></g><g><path d="m225.131 507.084c-1.178 0-2.36-.084-3.546-.252-53.86-7.633-103.701-34.185-140.339-74.765-37.07-41.06-58.376-94.163-59.992-149.528-.408-13.99.437-28.024 2.514-41.812l-15.954-4.343c-3.644-.991-6.504-3.875-7.466-7.525-.963-3.65.104-7.568 2.784-10.227l57.484-57.031s0 0 0-.001c2.681-2.658 6.608-3.691 10.251-2.702 3.643.992 6.503 3.876 7.465 7.525l20.649 78.3c.963 3.65-.104 7.569-2.784 10.228-2.681 2.658-6.609 3.694-10.251 2.702l-13.579-3.696c-1.06 8.973-1.462 18.064-1.196 27.126 1.271 43.52 18.012 85.257 47.141 117.521 28.711 31.801 67.73 52.657 109.87 58.728 13.738 1.979 23.455 14.571 21.659 28.069-1.28 9.624-8.101 17.697-17.375 20.569-2.399.742-4.854 1.114-7.335 1.114zm-206.024-283.172 15.138 4.121c3.755 1.021 6.104 4.745 5.41 8.573-2.706 14.933-3.853 30.239-3.406 45.495 1.513 51.807 21.447 101.496 56.131 139.913 34.288 37.978 80.922 62.825 131.311 69.966 1.475.21 2.934.095 4.338-.34 3.705-1.148 6.431-4.374 6.942-8.22.717-5.387-3.289-10.431-8.929-11.243-45.599-6.569-87.813-29.129-118.864-63.522-31.515-34.907-49.628-80.058-51.002-127.136-.375-12.813.485-25.684 2.555-38.253.345-2.095 1.562-3.944 3.348-5.092s3.975-1.483 6.022-.926l14.433 3.928-16.762-63.562z" fill="#000000" data-original="#000000" class=""></path></g><g><path d="m87.382 137.438c-5.172 0-10.385-1.597-14.848-4.909-11.056-8.204-13.375-23.873-5.17-34.93 32.418-43.682 79.542-74.8 132.691-87.623 53.773-12.973 110.606-6.344 160.029 18.667 12.489 6.321 24.417 13.764 35.54 22.17l11.432-11.945c2.61-2.728 6.508-3.866 10.177-2.968 3.667.896 6.602 3.705 7.658 7.329l22.671 77.738c1.057 3.622.092 7.567-2.518 10.295-2.609 2.728-6.512 3.864-10.176 2.97l-78.659-19.237c-3.666-.896-6.601-3.703-7.658-7.327-1.058-3.624-.093-7.57 2.518-10.298l9.732-10.168c-7.379-5.215-15.175-9.908-23.264-14.001-23.465-11.874-48.695-18.47-74.992-19.603-4.138-.179-7.348-3.678-7.17-7.816.179-4.139 3.658-7.348 7.816-7.17 28.443 1.226 55.736 8.36 81.118 21.204 11.436 5.787 22.335 12.686 32.392 20.507 1.676 1.303 2.721 3.255 2.876 5.372s-.594 4.201-2.061 5.734l-10.342 10.806 63.853 15.615-18.403-63.105-10.848 11.334c-2.689 2.813-7.084 3.097-10.116.661-11.829-9.506-24.731-17.82-38.35-24.713-46.245-23.402-99.425-29.605-149.738-17.469-49.74 12-93.836 41.114-124.164 81.98-1.586 2.138-2.245 4.767-1.855 7.4.39 2.634 1.781 4.958 3.92 6.545 4.413 3.273 10.669 2.348 13.945-2.065 27.551-37.123 67.621-63.574 112.83-74.481 7.034-1.696 14.241-3.019 21.422-3.932 4.096-.509 7.863 2.386 8.386 6.495.521 4.109-2.386 7.863-6.495 8.386-6.636.843-13.296 2.065-19.795 3.633-41.8 10.084-78.842 34.531-104.303 68.839-4.891 6.594-12.44 10.08-20.081 10.08z" fill="#000000" data-original="#000000" class=""></path></g><g><path d="m366.075 508.503c-.801 0-1.606-.091-2.403-.277l-78.847-18.442c-3.677-.86-6.639-3.64-7.731-7.252-1.093-3.612-.168-7.567 2.414-10.32l55.396-59.064c2.584-2.753 6.47-3.932 10.147-3.069 3.675.859 6.638 3.639 7.732 7.251l4.076 13.472c8.166-3.865 16.085-8.351 23.624-13.385 36.208-24.18 62.691-60.523 74.571-102.336 11.713-41.223 8.671-85.372-8.564-124.316-2.731-6.169-2.871-13.35-.383-19.698 2.453-6.258 7.125-11.136 13.156-13.736 12.495-5.385 27.159.347 32.691 12.776 22.123 49.699 26.077 106.032 11.136 158.622-7.967 28.039-20.972 54.053-38.653 77.318-2.507 3.297-7.212 3.939-10.51 1.434-3.298-2.507-3.939-7.212-1.434-10.51 16.546-21.771 28.714-46.109 36.167-72.342 13.983-49.217 10.287-101.928-10.409-148.423-2.21-4.964-8.067-7.251-13.051-5.101-2.326 1.003-4.147 2.933-5.128 5.434-1.037 2.647-.988 5.62.134 8.154 18.65 42.141 21.945 89.902 9.277 134.487-12.853 45.236-41.502 84.555-80.671 110.711-10.66 7.118-22.023 13.221-33.774 18.139-1.957.821-4.172.771-6.092-.133-1.921-.905-3.367-2.581-3.982-4.613l-4.332-14.315-44.969 47.946 64.007 14.971-4.542-15.012c-1.127-3.724.781-7.691 4.395-9.136 14.079-5.629 27.659-12.784 40.362-21.267 11.306-7.55 21.962-16.21 31.673-25.741 2.955-2.899 7.704-2.857 10.606.099 2.901 2.957 2.857 7.705-.099 10.606-10.379 10.187-21.768 19.442-33.851 27.511-11.648 7.778-23.989 14.513-36.768 20.069l4.787 15.822c1.094 3.612.168 7.568-2.415 10.321-2.023 2.155-4.848 3.345-7.743 3.345z" fill="#000000" data-original="#000000" class=""></path></g><g><path d="m244.501 348.975c-1.128.001-2.278-.168-3.421-.519-5.333-1.635-8.591-6.645-7.925-12.182l7.172-59.614h-19.878c-3.896 0-7.576-1.704-10.097-4.676-2.52-2.971-3.6-6.88-2.965-10.723l4.009-24.254c.675-4.087 4.537-6.852 8.622-6.177 4.087.675 6.852 4.536 6.177 8.622l-3.67 22.207h26.258c2.145 0 4.188.919 5.611 2.523s2.091 3.742 1.835 5.872l-5.74 47.716 38.161-74.129h-27.68c-2.367 0-4.596-1.118-6.012-3.016-1.415-1.897-1.852-4.352-1.178-6.621l16.637-55.973h-34.071l-3.677 22.246c-.675 4.087-4.53 6.854-8.622 6.177-4.087-.675-6.853-4.535-6.177-8.622l3.92-23.721c1.061-6.421 6.555-11.08 13.061-11.08h37.926c4.221 0 8.088 1.94 10.611 5.323s3.281 7.644 2.079 11.688l-14.444 48.598h20.512c4.654 0 8.879 2.372 11.303 6.346 2.424 3.973 2.599 8.815.47 12.953l-48.839 94.87c-2.004 3.899-5.834 6.166-9.968 6.166z" fill="#000000" data-original="#000000" class=""></path></g></g></g></g></svg>