<svg height="512" viewBox="0 0 64 64" width="512" xmlns="http://www.w3.org/2000/svg"><g id="_04-facebook" data-name="04-facebook"><rect fill="#5b79b8" height="62" rx="6" width="62" x="1" y="1"/><path d="m57 1h-50a6 6 0 0 0 -6 6v10a22 22 0 0 0 22 22h18a22 22 0 0 0 22-22v-10a6 6 0 0 0 -6-6z" fill="#6688cf"/><path d="m57 1h-50a6 6 0 0 0 -6 6v4a6 6 0 0 1 6-6h50a6 6 0 0 1 6 6v-4a6 6 0 0 0 -6-6z" fill="#739ae8"/><path d="m57 59h-50a6 6 0 0 1 -6-6v4a6 6 0 0 0 6 6h50a6 6 0 0 0 6-6v-4a6 6 0 0 1 -6 6z" fill="#4462a3"/><path d="m30 59h10v4h-10z" fill="#aeb2d4"/><path d="m43 21h11v-10h-12a12 12 0 0 0 -12 12v6h-8v10h8v20h10v-20h12l2-10h-14v-5a3 3 0 0 1 3-3z" fill="#fdfef9"/><g fill="#4462a3"><path d="m22 39h8v3h-8z"/><path d="m40 39v3h12l2-10h-.6l-1.4 7z"/><path d="m40 24v3a3 3 0 0 1 3-3h11v-3h-11a3 3 0 0 0 -3 3z"/></g><path d="m43 22h11a1 1 0 0 0 1-1v-10a1 1 0 0 0 -1-1h-12a13.049 13.049 0 0 0 -11.26 6.5l1.731 1a11.043 11.043 0 0 1 9.529-5.5h11v8h-10a4 4 0 0 0 -4 4v5a1 1 0 0 0 1 1h12.78l-1.6 8h-11.18a1 1 0 0 0 -1 1v17h2v-16h11a1 1 0 0 0 .98-.8l2-10a1 1 0 0 0 -.98-1.2h-13v-4a2 2 0 0 1 2-2z"/><path d="m29.18 20.835 1.972.33a11.075 11.075 0 0 1 .473-1.832l-1.885-.666a12.807 12.807 0 0 0 -.56 2.168z"/><path d="m62 57a5.006 5.006 0 0 1 -5 5h-16v-4h-2v4h-8v-23a1 1 0 0 0 -1-1h-7v-8h7a1 1 0 0 0 1-1v-6h-2v5h-7a1 1 0 0 0 -1 1v10a1 1 0 0 0 1 1h7v22h-22a5.006 5.006 0 0 1 -5-5v-50a5.006 5.006 0 0 1 5-5h2v-2h-2a7.008 7.008 0 0 0 -7 7v50a7.008 7.008 0 0 0 7 7h50a7.008 7.008 0 0 0 7-7v-2h-2z"/><path d="m57 0h-42v2h42c4.351 0 5 5.639 5 9v42h2v-42c0-9.928-4.9-11-7-11z"/><path d="m11 0h2v2h-2z"/></g></svg>