<svg id="Capa_1" enable-background="new 0 0 512 512" height="512" viewBox="0 0 512 512" width="512" xmlns="http://www.w3.org/2000/svg"><g><g><path d="m504.5 110.89v189.47l-32.223-60.785c-3.44-7.62-14.15-7.91-18-.49l-53.007 89.105-32.065-33.859c-4.55-5.13-12.79-4.27-16.18 1.69l-21.642 32.169-.766-175.105c0-6.69 4.44-12.58 10.88-14.42l2.003-1.666 141.88-40.539c9.58-2.73 19.12 4.46 19.12 14.43z" fill="#bde4ff"/><path d="m504.5 300.36v100.75c0 1.869-.335 3.641-.944 5.268 0 0-11.049 8.606-18.833 6.388l-110.617-32.574 78.191-154.702c3.317-6.393 15.894-4.161 15.894-4.161.717.773 1.332 1.687 1.808 2.742z" fill="#afefa5"/><path d="m401.27 321.98-9.802 36.084-21.448 24.516-24.991-13.415c-6.44-1.84-10.88-7.73-10.88-14.42l-4.649-26.555 23.09-40.79c3.39-5.96 11.63-6.82 16.18-1.69z" fill="#afefa5"/><path d="m343.5 136.999v166.461l-7 22.944-7 1.786v-175.88c0-6.69 4.44-12.58 10.88-14.42z" fill="#99dbff"/><path d="m503.556 406.378c-2.65 7.02-10.416 11.372-18.176 9.162l-102.279-29.223-5.718-5.317-7.363 1.58 6.53-12.66z" fill="#8ce1a4"/><path d="m376.55 369.92 1.961 10.293-8.491 2.367-29.64-8.47c-6.44-1.84-10.88-7.73-10.88-14.42v-31.5l14-24.73v42.65c0 8.48 5.62 15.94 13.78 18.27z" fill="#8ce1a4"/><path d="m407 194.25c0 4.236-.675 8.24-1.876 11.791 0 0-1.326 2.039-1.826 3.097-3.252 6.875-8.176 10.287-14.298 10.287-9.941 0-16.596-10.54-16.596-25.176 0-8.502 2.006-15.571 6.234-20.42 2.011-2.307 6.238-5.381 6.238-5.381 1.324-.457 2.705-.699 4.124-.699 9.941.001 18 11.865 18 26.501z" fill="#ffe07d"/><path d="m405.124 206.041c-2.94 8.72-9.064 14.709-16.124 14.709-9.94 0-18-11.86-18-26.5 0-12.55 5.926-23.071 13.876-25.801-1.2 3.55-1.876 7.561-1.876 11.801 0 14.64 8.06 26.5 18 26.5 1.42 0 2.804-.239 4.124-.709z" fill="#ffd064"/><g fill="#e8e8e8"><path d="m256 141c-8.284 0-15-6.716-15-15v-40c0-8.284 6.716-15 15-15 8.284 0 15 6.716 15 15v40c0 8.284-6.716 15-15 15z"/><path d="m256 241c-8.284 0-15-6.716-15-15v-40c0-8.284 6.716-15 15-15 8.284 0 15 6.716 15 15v40c0 8.284-6.716 15-15 15z"/><path d="m256 341c-8.284 0-15-6.716-15-15v-40c0-8.284 6.716-15 15-15 8.284 0 15 6.716 15 15v40c0 8.284-6.716 15-15 15z"/><path d="m256 441c-8.284 0-15-6.716-15-15v-40c0-8.284 6.716-15 15-15 8.284 0 15 6.716 15 15v40c0 8.284-6.716 15-15 15z"/></g><path d="m182.5 152.31v175.63l-24.22-31.94c-3.39-5.96-11.63-6.82-16.18-1.69l-31.05 41.277-48.816-96.481c-3.85-7.42-14.56-7.13-18 .49l-32.681 60.954-2.468-186.571c0-8.101 12.213-18.055 12.213-18.055 1.731-.139 3.526.025 5.322.536l145 41.43c6.44 1.84 10.88 7.73 10.88 14.42z" fill="#bde4ff"/><path d="m182.5 327.94v28.52l-1.543 3.178c0 6.69-4.028 12.032-10.468 13.872l-28.617 8.587-29.647-57.68 8.675-13.437 22.329-25.271c4.55-5.13 12.79-4.27 16.18 1.69z" fill="#afefa5"/><path d="m155.83 378.62-13.73 3.92-20.632-20.263-10.541-40.007 9.974-11.289z" fill="#8ce1a4"/><path d="m141 194.25c0 4.236-.675 8.24-1.876 11.791 0 0-1.326 2.039-1.826 3.097-3.252 6.875-8.176 10.287-14.298 10.287-9.941 0-16.596-10.54-16.596-25.176 0-8.502 2.006-15.571 6.234-20.42 2.011-2.307 6.238-5.381 6.238-5.381 1.324-.457 2.705-.699 4.124-.699 9.941.001 18 11.865 18 26.501z" fill="#ffe07d"/><path d="m139.124 206.041c-2.94 8.72-9.064 14.709-16.124 14.709-9.94 0-18-11.86-18-26.5 0-12.55 5.926-23.071 13.876-25.801-1.2 3.55-1.876 7.561-1.876 11.801 0 14.64 8.06 26.5 18 26.5 1.42 0 2.804-.239 4.124-.709z" fill="#ffd064"/><path d="m142.1 382.54-109.895 25.698c-9.58 2.73-19.12-4.46-19.12-14.43l-5.585-93.258 34.5-76.48c3.44-7.62 14.15-7.91 18-.49z" fill="#afefa5"/><path d="m182.5 356.46v3.23c0 6.69-4.44 12.58-10.88 14.42l-15.79 4.509-15.193 1.073-5.057-9.842z" fill="#8ce1a4"/><path d="m155.83 378.62-13.73 3.92-8.66-3.114 2.14-9.576 13.7-3.91z" fill="#80d696"/><path d="m21.5 95.909v173.606l-5.862 24.975-8.138 6.06v-189.66c0-8.17 6.41-14.481 14-14.981z" fill="#99dbff"/><path d="m142.1 382.54-115.48 33c-9.58 2.73-19.12-4.46-19.12-14.43v-100.56l14-31.035v114.331c0 9.3 8.9 16.015 17.842 13.462l96.208-27.458z" fill="#8ce1a4"/><path d="m468.192 221.329-51.923 100.654-33.169 64.337-4.589-6.107-8.491 2.367 31.25-60.6 50.73-98.4c3.32-6.39 11.723-7.064 16.192-2.251z" fill="#8ce1a4"/><path d="m389.62 373.68-6.52 12.64-13.08-3.74 6.53-12.66z" fill="#80d696"/></g><g><path d="m173.681 130.68-145-41.429c-6.851-1.958-14.042-.619-19.73 3.671s-8.951 10.839-8.951 17.964v42.864c0 4.142 3.358 7.5 7.5 7.5s7.5-3.358 7.5-7.5v-42.864c0-2.375 1.087-4.557 2.984-5.988 1.896-1.429 4.292-1.875 6.576-1.224l145 41.429c3.203.915 5.439 3.88 5.439 7.211v147.332l-9.073-15.956c-2.784-4.897-7.791-8.17-13.394-8.755-5.603-.583-11.178 1.582-14.916 5.798l-24.977 28.179-15.548-30.022c-1.905-3.678-6.428-5.115-10.109-3.21-3.678 1.905-5.115 6.431-3.21 10.109l32.069 61.91c1.334 2.575 3.953 4.052 6.666 4.052 1.162 0 2.341-.271 3.443-.842 3.678-1.905 5.115-6.431 3.21-10.109l-9.125-17.616 28.809-32.502c.742-.836 1.652-.878 2.131-.828.477.05 1.36.279 1.913 1.251-.008-.019 22.006 38.708 22.112 38.882v29.699c0 3.331-2.237 6.296-5.44 7.211l-145 41.429c-3.518.934-9.076-1.023-9.56-7.211v-99.161c.115-.203.238-.4.335-.617l33.502-74.184c.562-1.243 1.627-1.455 2.212-1.471.592-.015 1.66.139 2.287 1.349l14.184 27.383c1.905 3.678 6.432 5.116 10.109 3.21 3.678-1.905 5.115-6.431 3.21-10.109l-14.184-27.383c-3.112-6.006-9.235-9.63-16.009-9.444-6.763.182-12.694 4.125-15.479 10.291l-20.167 44.656v-76.885c0-4.142-3.358-7.5-7.5-7.5s-7.5 3.358-7.5 7.5v212.364c.165 13.643 13.204 25.962 28.681 21.634l145-41.429c9.609-2.744 16.319-11.64 16.319-21.633v-207.372c0-9.993-6.71-18.889-16.319-21.634z"/><path d="m503.05 92.923c-5.688-4.29-12.879-5.628-19.731-3.671l-34.604 9.887c-3.982 1.138-6.289 5.289-5.151 9.272 1.139 3.983 5.292 6.287 9.272 5.151l34.604-9.887c2.281-.651 4.681-.207 6.577 1.224s2.983 3.613 2.983 5.988v154.75l-20.168-44.657c-2.784-6.166-8.715-10.109-15.479-10.291-6.74-.179-12.897 3.437-16.009 9.444l-45.986 88.779-24.977-28.179c-3.736-4.215-9.305-6.382-14.915-5.798-5.603.585-10.609 3.858-13.394 8.755l-9.072 15.956v-147.332c0-3.331 2.236-6.296 5.439-7.211l76.621-21.892c3.982-1.138 6.289-5.289 5.15-9.272-1.138-3.984-5.292-6.291-9.271-5.151l-76.621 21.892c-9.608 2.745-16.318 11.642-16.318 21.634v207.371c0 9.993 6.71 18.889 16.318 21.634 3.746.753 53.439 15.866 57.69 16.184 3.264 0 6.267-2.147 7.208-5.441 1.138-3.983-1.169-8.134-5.151-9.272l-55.626-15.893c-3.203-.915-5.439-3.88-5.439-7.211v-29.699c.006-.01.014-.019.02-.029l22.093-38.853c.553-.972 1.436-1.201 1.913-1.25.481-.052 1.39-.008 2.131.829l28.809 32.502-9.125 17.616c-1.905 3.678-.469 8.204 3.21 10.109 1.103.571 2.281.842 3.443.842 2.713 0 5.332-1.477 6.665-4.052l62.504-120.668c.627-1.209 1.685-1.375 2.287-1.349.585.016 1.65.228 2.212 1.47l33.503 74.184c.102.225.214.442.335.652v99.125c0 2.375-1.088 4.557-2.983 5.988-1.896 1.43-4.294 1.875-6.577 1.224l-55.638-15.897c-3.98-1.139-8.135 1.168-9.271 5.151-1.139 3.983 1.168 8.134 5.15 9.272l55.638 15.897c4.639 1.642 13.927.889 19.731-3.671 5.688-4.291 8.95-10.838 8.95-17.963v-290.23c0-7.125-3.263-13.672-8.95-17.963z"/><path d="m256 63.5c-12.407 0-22.5 10.093-22.5 22.5v40c0 12.407 10.093 22.5 22.5 22.5 12.406 0 22.5-10.093 22.5-22.5v-40c0-12.407-10.094-22.5-22.5-22.5zm7.5 62.5c0 4.136-3.364 7.5-7.5 7.5s-7.5-3.364-7.5-7.5v-40c0-4.136 3.364-7.5 7.5-7.5s7.5 3.364 7.5 7.5z"/><path d="m256 163.5c-12.407 0-22.5 10.093-22.5 22.5v40c0 12.407 10.093 22.5 22.5 22.5 12.406 0 22.5-10.093 22.5-22.5v-40c0-12.407-10.094-22.5-22.5-22.5zm7.5 62.5c0 4.136-3.364 7.5-7.5 7.5s-7.5-3.364-7.5-7.5v-40c0-4.136 3.364-7.5 7.5-7.5s7.5 3.364 7.5 7.5z"/><path d="m256 263.5c-12.407 0-22.5 10.093-22.5 22.5v40c0 12.407 10.093 22.5 22.5 22.5 12.406 0 22.5-10.093 22.5-22.5v-40c0-12.407-10.094-22.5-22.5-22.5zm7.5 62.5c0 4.136-3.364 7.5-7.5 7.5s-7.5-3.364-7.5-7.5v-40c0-4.136 3.364-7.5 7.5-7.5s7.5 3.364 7.5 7.5z"/><path d="m256 363.5c-12.407 0-22.5 10.093-22.5 22.5v40c0 12.407 10.093 22.5 22.5 22.5 12.406 0 22.5-10.093 22.5-22.5v-40c0-12.407-10.094-22.5-22.5-22.5zm7.5 62.5c0 4.136-3.364 7.5-7.5 7.5s-7.5-3.364-7.5-7.5v-40c0-4.136 3.364-7.5 7.5-7.5s7.5 3.364 7.5 7.5z"/><path d="m148.5 194.25c0-19.065-11.201-34-25.5-34s-25.5 14.935-25.5 34 11.201 34 25.5 34 25.5-14.935 25.5-34zm-36 0c0-10.875 5.543-19 10.5-19s10.5 8.125 10.5 19-5.543 19-10.5 19-10.5-8.125-10.5-19z"/><path d="m363.5 194.25c0 19.065 11.201 34 25.5 34s25.5-14.935 25.5-34-11.201-34-25.5-34-25.5 14.935-25.5 34zm36 0c0 10.875-5.544 19-10.5 19s-10.5-8.125-10.5-19 5.544-19 10.5-19 10.5 8.125 10.5 19z"/></g></g></svg>