<svg xmlns="http://www.w3.org/2000/svg" version="1.1" xmlns:xlink="http://www.w3.org/1999/xlink" xmlns:svgjs="http://svgjs.com/svgjs" width="512" height="512" x="0" y="0" viewBox="0 0 512 512" style="enable-background:new 0 0 512 512" xml:space="preserve" class=""><g> <g xmlns="http://www.w3.org/2000/svg"> <g> <g> <path style="" d="M221.809,440L221.809,440c-10.062,0-18.219-8.157-18.219-18.219V90.219     c0-10.062,8.157-18.219,18.219-18.219h0c10.062,0,18.219,8.157,18.219,18.219v331.561C240.028,431.843,231.871,440,221.809,440z" fill="#8adff8" data-original="#8adff8" class=""></path> <path style="" d="M221.809,72c-3.822,0-7.365,1.182-10.295,3.192c4.784,3.284,7.925,8.786,7.925,15.027v331.561     c0,6.24-3.141,11.743-7.925,15.027c2.93,2.011,6.473,3.192,10.295,3.192c10.062,0,18.219-8.157,18.219-18.219V90.219     C240.028,80.157,231.871,72,221.809,72z" fill="#56c2e3" data-original="#56c2e3" class=""></path> <path style="" d="M24.432,374L24.432,374c-10.062,0-18.219-8.157-18.219-18.219V156.219     c0-10.062,8.157-18.219,18.219-18.219h0c10.062,0,18.219,8.157,18.219,18.219v199.561C42.651,365.843,34.494,374,24.432,374z" fill="#8adff8" data-original="#8adff8" class=""></path> <path style="" d="M90.224,316.159L90.224,316.159c-10.062,0-18.219-8.157-18.219-18.219v-83.878     c0-10.062,8.157-18.219,18.219-18.219h0c10.062,0,18.219,8.157,18.219,18.219v83.878     C108.444,308.001,100.286,316.159,90.224,316.159z" fill="#8adff8" data-original="#8adff8" class=""></path> <path style="" d="M156.017,346.723L156.017,346.723c-10.062,0-18.219-8.157-18.219-18.219V183.497     c0-10.062,8.157-18.219,18.219-18.219h0c10.062,0,18.219,8.157,18.219,18.219v145.007     C174.236,338.566,166.079,346.723,156.017,346.723z" fill="#8adff8" data-original="#8adff8" class=""></path> <path style="" d="M287.604,504.5h-0.004c-10.061,0-18.217-8.156-18.217-18.217V25.717     c0-10.061,8.156-18.217,18.217-18.217h0.004c10.061,0,18.217,8.156,18.217,18.217v460.565     C305.821,496.344,297.665,504.5,287.604,504.5z" fill="#8adff8" data-original="#8adff8" class=""></path> <path style="" d="M353.683,398.376L353.683,398.376c-10.062,0-18.219-9.123-18.219-20.376l-0.289-244     c0-11.253,8.157-20.376,18.219-20.376h0c10.062,0,18.219,9.123,18.219,20.376l0.289,244     C371.903,389.254,363.745,398.376,353.683,398.376z" fill="#8adff8" data-original="#8adff8" class=""></path> <path style="" d="M419.186,297.11L419.186,297.11c-10.062,0-18.219-8.157-18.219-18.219V233.11     c0-10.062,8.157-18.219,18.219-18.219h0c10.062,0,18.219,8.157,18.219,18.219v45.781     C437.406,288.953,429.249,297.11,419.186,297.11z" fill="#8adff8" data-original="#8adff8" class=""></path> <path style="" d="M484.993,349.966L484.993,349.966c-10.062,0-18.219-8.157-18.219-18.219V180.254     c0-10.062,8.157-18.219,18.219-18.219h0c10.062,0,18.219,8.157,18.219,18.219v151.492     C503.212,341.809,495.055,349.966,484.993,349.966z" fill="#8adff8" data-original="#8adff8" class=""></path> </g> <g> <path style="" d="M24.432,138c-3.74,0-7.214,1.13-10.106,3.063c4.89,3.267,8.113,8.834,8.113,15.157v199.561     c0,6.323-3.223,11.89-8.113,15.157C17.218,372.87,20.692,374,24.432,374c10.062,0,18.219-8.157,18.219-18.219V156.219     C42.651,146.157,34.494,138,24.432,138z" fill="#56c2e3" data-original="#56c2e3" class=""></path> <path style="" d="M90.224,195.841L90.224,195.841c-3.74,0-7.214,1.13-10.106,3.063     c4.89,3.267,8.113,8.834,8.113,15.157v83.878c0,6.323-3.223,11.89-8.113,15.157c2.892,1.932,6.366,3.063,10.106,3.063h0     c10.062,0,18.219-8.157,18.219-18.219v-83.878C108.444,203.999,100.286,195.841,90.224,195.841z" fill="#56c2e3" data-original="#56c2e3" class=""></path> <path style="" d="M156.017,165.277L156.017,165.277c-3.74,0-7.214,1.13-10.106,3.063     c4.89,3.267,8.113,8.834,8.113,15.157v145.007c0,6.323-3.223,11.89-8.113,15.157c2.892,1.932,6.366,3.063,10.106,3.063h0     c10.062,0,18.219-8.157,18.219-18.219V183.496C174.236,173.434,166.079,165.277,156.017,165.277z" fill="#56c2e3" data-original="#56c2e3" class=""></path> <path style="" d="M287.604,7.5h-0.004c-3.739,0-7.212,1.13-10.104,3.062c4.89,3.267,8.113,8.833,8.113,15.156     v460.565c0,6.322-3.223,11.889-8.113,15.156c2.892,1.932,6.365,3.062,10.104,3.062h0.004c10.061,0,18.217-8.156,18.217-18.217     V25.717C305.821,15.656,297.665,7.5,287.604,7.5z" fill="#56c2e3" data-original="#56c2e3" class=""></path> <path style="" d="M371.613,134c0-11.254-8.157-20.376-18.219-20.376h0c-3.74,0-7.214,1.264-10.106,3.425     c4.89,3.654,8.113,9.88,8.113,16.951l0.289,244c0,7.071-3.223,13.297-8.113,16.951c2.892,2.161,6.366,3.425,10.106,3.425h0     c10.062,0,18.219-9.123,18.219-20.376L371.613,134z" fill="#56c2e3" data-original="#56c2e3" class=""></path> <path style="" d="M419.186,214.89c-3.74,0-7.214,1.13-10.106,3.063c4.89,3.267,8.113,8.834,8.113,15.157v45.781     c0,6.323-3.223,11.89-8.113,15.157c2.892,1.932,6.366,3.063,10.106,3.063c10.062,0,18.219-8.157,18.219-18.219V233.11     C437.406,223.047,429.249,214.89,419.186,214.89z" fill="#56c2e3" data-original="#56c2e3" class=""></path> <path style="" d="M484.993,162.034L484.993,162.034c-3.74,0-7.214,1.13-10.106,3.063     c4.89,3.267,8.113,8.834,8.113,15.157v151.492c0,6.323-3.223,11.89-8.113,15.157c2.892,1.932,6.366,3.063,10.106,3.063h0     c10.062,0,18.219-8.157,18.219-18.219V180.254C503.212,170.191,495.055,162.034,484.993,162.034z" fill="#56c2e3" data-original="#56c2e3" class=""></path> </g> </g> <g> <g> <path d="M25.719,381.5C11.538,381.5,0,369.962,0,355.781V271c0-9.653,15-9.719,15,0v84.781c0,13.793,21.439,13.818,21.439,0     V156.219c0-13.793-21.439-13.818-21.439,0V239c0,9.653-15,9.719-15,0v-82.781C0,142.232,11.732,130.5,25.719,130.5     c13.989,0,25.72,11.732,25.72,25.719v199.562C51.439,369.962,39.901,381.5,25.719,381.5z" fill="#000000" data-original="#000000" class=""></path> </g> <g> <path d="M91.512,323.659c-14.182,0-25.719-11.538-25.719-25.72v-83.878c0-13.987,11.732-25.72,25.719-25.72     c13.989,0,25.719,11.732,25.719,25.72v83.878C117.231,312.121,105.693,323.659,91.512,323.659z M91.512,203.341     c-5.911,0-10.719,4.809-10.719,10.72v83.878c0,13.793,21.438,13.819,21.438,0v-83.878     C102.231,208.15,97.422,203.341,91.512,203.341z" fill="#000000" data-original="#000000" class=""></path> </g> <g> <path d="M157.304,354.223c-14.182,0-25.719-11.538-25.719-25.72V183.497c0-13.847,11.872-25.72,25.719-25.72     c13.85,0,25.719,11.871,25.719,25.72v145.007C183.023,342.686,171.486,354.223,157.304,354.223z M157.304,172.777     c-5.911,0-10.719,4.809-10.719,10.72v145.007c0,13.793,21.438,13.819,21.438,0V183.497     C168.023,177.586,163.215,172.777,157.304,172.777z" fill="#000000" data-original="#000000" class=""></path> </g> <g> <path d="M223.097,447.5c-14.182,0-25.72-11.538-25.72-25.719V389c0-9.653,15-9.719,15,0v32.781c0,13.793,21.439,13.818,21.439,0     V90.219c0-13.793-21.439-13.818-21.439,0V350c0,9.653-15,9.719-15,0V90.219c0-13.848,11.872-25.719,25.72-25.719     c13.849,0,25.719,11.871,25.719,25.719v331.562C248.816,435.962,237.278,447.5,223.097,447.5z" fill="#000000" data-original="#000000" class=""></path> </g> <g> <path d="M288.891,512c-14.185,0-25.722-11.537-25.722-25.717V185c0-9.653,15-9.719,15,0v301.283c0,13.791,21.439,13.816,21.439,0     V25.717c0-13.791-21.439-13.816-21.439,0V145c0,9.653-15,9.719-15,0V25.717c0-13.847,11.871-25.717,25.717-25.717     c13.849-0.001,25.722,11.868,25.722,25.717v460.565C314.608,500.463,303.072,512,288.891,512z" fill="#000000" data-original="#000000" class=""></path> </g> <g> <path d="M354.971,405.876c-14.182,0-25.719-12.505-25.719-27.876l-0.29-243.991c0-14.229,10.846-27.885,25.72-27.885     c14.867,0,25.719,13.65,25.719,27.876l0.289,243.991C380.69,393.371,369.152,405.876,354.971,405.876z M354.682,121.124     c-5.911,0-10.72,5.776-10.72,12.876l0.29,243.991c0,16.198,21.438,16.278,21.438,0.009l-0.289-243.991     C365.401,126.9,360.592,121.124,354.682,121.124z" fill="#000000" data-original="#000000" class=""></path> </g> <g> <path d="M420.474,304.61c-14.182,0-25.72-11.538-25.72-25.72v-45.78c0-13.987,11.732-25.72,25.72-25.72     c13.989,0,25.719,11.732,25.719,25.72v45.78C446.193,293.072,434.656,304.61,420.474,304.61z M420.474,222.39     c-5.911,0-10.72,4.809-10.72,10.72v45.78c0,5.911,4.809,10.72,10.72,10.72s10.719-4.809,10.719-10.72v-45.78     C431.193,227.199,426.385,222.39,420.474,222.39z" fill="#000000" data-original="#000000" class=""></path> </g> <g> <path d="M486.28,357.466c-14.182,0-25.719-11.538-25.719-25.72V180.254c0-13.987,11.732-25.72,25.719-25.72     c13.989,0,25.72,11.732,25.72,25.72v151.492C512,345.928,500.462,357.466,486.28,357.466z M486.28,169.534     c-5.911,0-10.719,4.809-10.719,10.72v151.492c0,13.793,21.439,13.819,21.439,0V180.254     C497,174.343,492.191,169.534,486.28,169.534z" fill="#000000" data-original="#000000" class=""></path> </g> </g> </g> </g></svg>