<svg xmlns="http://www.w3.org/2000/svg" version="1.1" xmlns:xlink="http://www.w3.org/1999/xlink" xmlns:svgjs="http://svgjs.com/svgjs" width="512" height="512" x="0" y="0" viewBox="0 0 512 512" style="enable-background:new 0 0 512 512" xml:space="preserve" class=""><g><g xmlns="http://www.w3.org/2000/svg"><g><path d="m483.54 38.909h-16.707-298.423-139.95c-8.174 0-14.807 6.655-14.807 14.876v312.663c0 8.211 6.634 14.876 14.807 14.876h455.08c8.174 0 14.807-6.664 14.807-14.876v-312.663c0-8.221-6.634-14.876-14.807-14.876z" fill="#bfdbff" data-original="#bfdbff"></path><path d="m486.951 35.378h-16.957-302.897-142.048c-8.296 0-15.029 6.906-15.029 15.437v261.295h491.96v-261.295c0-8.531-6.733-15.437-15.029-15.437z" fill="#ffffff" data-original="#ffffff" class=""></path><path d="m205.186 381.324-37.485 95.298h176.598l-37.485-95.298z" fill="#bfdbff" data-original="#bfdbff"></path></g><g><circle cx="374.667" cy="35.378" r="10" fill="#000000" data-original="#000000" class=""></circle><circle cx="256" cy="348.089" r="10" fill="#000000" data-original="#000000" class=""></circle><path d="m486.951 25.358h-67.633c-5.534 0-10.02 4.486-10.02 10.02s4.486 10.02 10.02 10.02h67.633c2.762 0 5.01 2.248 5.01 5.01v251.682h-471.922v-251.683c0-2.762 2.248-5.01 5.01-5.01h304.704c5.534 0 10.02-4.486 10.02-10.02s-4.486-10.02-10.02-10.02h-304.704c-13.812.001-25.049 11.238-25.049 25.05v315.887c0 13.812 11.237 25.049 25.049 25.049h166.207l-33.115 81.508c-1.255 3.089-.891 6.6.971 9.366s4.978 4.425 8.312 4.425h177.153c3.334 0 6.45-1.659 8.312-4.425s2.226-6.277.971-9.366l-33.115-81.508h166.207c13.812 0 25.049-11.237 25.049-25.049v-315.887c-.001-13.812-11.238-25.049-25.05-25.049zm-157.26 441.245h-147.382l30.577-75.259h86.228zm157.26-95.299h-461.902c-2.762 0-5.01-2.248-5.01-5.01v-44.165h471.922v44.165c0 2.763-2.248 5.01-5.01 5.01z" fill="#000000" data-original="#000000" class=""></path><g><circle cx="324.599" cy="167.352" r="10.02" fill="#000000" data-original="#000000" class=""></circle><circle cx="324.599" cy="207.43" r="10.02" fill="#000000" data-original="#000000" class=""></circle><path d="m152.469 224.634c5.534 0 10.02-4.486 10.02-10.02v-50.467h1.824c5.534 0 10.02-4.486 10.02-10.02 0-5.533-4.486-10.02-10.02-10.02h-1.824v-11.236c0-5.533-4.486-10.02-10.02-10.02s-10.02 4.486-10.02 10.02v11.236h-1.718c-5.534 0-10.02 4.486-10.02 10.02 0 5.533 4.486 10.02 10.02 10.02h1.718v50.467c0 5.534 4.486 10.02 10.02 10.02z" fill="#000000" data-original="#000000" class=""></path><path d="m202.846 224.634c5.534 0 10.02-4.486 10.02-10.02v-50.467h1.824c5.534 0 10.02-4.486 10.02-10.02 0-5.533-4.486-10.02-10.02-10.02h-1.824v-11.236c0-5.533-4.486-10.02-10.02-10.02s-10.02 4.486-10.02 10.02v11.236h-1.718c-5.534 0-10.02 4.486-10.02 10.02 0 5.533 4.486 10.02 10.02 10.02h1.718v50.467c.001 5.534 4.487 10.02 10.02 10.02z" fill="#000000" data-original="#000000" class=""></path><path d="m72.065 122.853c-5.534 0-10.02 4.486-10.02 10.02v81.742c0 5.533 4.486 10.02 10.02 10.02s10.02-4.486 10.02-10.02v-28.059c0-9.637 4.357-16.368 10.596-16.368 3.686 0 4.627.946 4.936 1.257.915.919 3.036 4.226 2.979 15.148l.103 28.059c.021 5.521 4.502 9.982 10.019 9.982h.038c5.534-.021 10.003-4.523 9.983-10.057l-.103-27.97c.072-13.871-2.728-23.18-8.811-29.296-4.728-4.753-11.169-7.163-19.143-7.163-3.78 0-7.335.7-10.596 1.996v-19.272c-.001-5.532-4.487-10.019-10.021-10.019z" fill="#000000" data-original="#000000" class=""></path><path d="m357.951 219.411c1.215.483 2.468.712 3.7.712 3.983 0 7.751-2.392 9.313-6.32l26.04-65.472c2.045-5.142-.465-10.968-5.607-13.013-5.141-2.046-10.968.465-13.013 5.608l-26.04 65.472c-2.046 5.142.465 10.968 5.607 13.013z" fill="#000000" data-original="#000000" class=""></path><path d="m405.047 219.411c1.215.483 2.468.712 3.7.712 3.983 0 7.751-2.392 9.313-6.32l26.04-65.472c2.045-5.142-.465-10.968-5.607-13.013-5.143-2.046-10.969.465-13.013 5.608l-26.04 65.472c-2.045 5.142.465 10.968 5.607 13.013z" fill="#000000" data-original="#000000" class=""></path><path d="m249.6 145.803c-1.82-2.515-4.772-4.157-8.114-4.157-5.534 0-10.02 4.486-10.02 10.02v79.836c0 5.533 4.486 10.02 10.02 10.02s10.02-4.486 10.02-10.02v-23.958c4.416 2.053 9.331 3.207 14.513 3.207 19.052 0 34.552-15.5 34.552-34.553 0-19.052-15.5-34.552-34.552-34.552-5.938 0-11.532 1.507-16.419 4.157zm30.933 30.395c0 8.003-6.511 14.514-14.513 14.514s-14.513-6.511-14.513-14.514c0-8.002 6.511-14.513 14.513-14.513s14.513 6.511 14.513 14.513z" fill="#000000" data-original="#000000" class=""></path></g></g></g></g></svg>