<svg xmlns="http://www.w3.org/2000/svg" version="1.1" xmlns:xlink="http://www.w3.org/1999/xlink" xmlns:svgjs="http://svgjs.com/svgjs" width="512" height="512" x="0" y="0" viewBox="0 0 511.995 511.995" style="enable-background:new 0 0 512 512" xml:space="preserve" class=""><g> <g xmlns="http://www.w3.org/2000/svg" id="XMLID_1695_"> <g id="XMLID_292_"> <g id="XMLID_293_"> <path id="XMLID_294_" style="" d="M504.498,62.316v398.14c0,5.008-4.06,9.068-9.068,9.068H16.565     c-5.008,0-9.068-4.06-9.068-9.068V62.304c0-10.955,8.881-19.836,19.836-19.836h457.329     C495.611,42.469,504.498,51.355,504.498,62.316z" fill="#e2fffe" data-original="#e2fffe" class=""></path> <path id="XMLID_295_" style="" d="M504.498,62.316v70.932h-497V62.316c0-10.96,8.886-19.847,19.836-19.847h457.329     C495.611,42.469,504.498,51.355,504.498,62.316z" fill="#b0d1cf" data-original="#b0d1cf" class=""></path> <path id="XMLID_1632_" style="" d="M504.495,117.382H7.5V62.31c0-10.956,8.882-19.838,19.838-19.838h457.318     c10.956,0,19.838,8.882,19.838,19.838V117.382z" fill="#f9b767" data-original="#f9b767" class=""></path> </g> <polyline id="XMLID_306_" style="" points="377.323,297.877 255.998,297.877 255.998,176.563   " fill="#ffffff" data-original="#ffffff"></polyline> <path id="XMLID_307_" style="" d="M255.998,435.072c-75.649,0-137.194-61.545-137.194-137.194    c0-75.643,61.545-137.183,137.194-137.183c75.65,0,137.194,61.54,137.194,137.183    C393.192,373.527,331.647,435.072,255.998,435.072z" fill="#b0d1cf" data-original="#b0d1cf" class=""></path> <path id="XMLID_310_" style="" d="M377.323,297.877c0,5.384-0.351,10.677-1.031,15.868    c-7.776,59.518-58.668,105.457-120.294,105.457c-67.01,0-121.326-54.315-121.326-121.326c0-61.615,45.939-112.507,105.457-120.283    c5.191-0.68,10.485-1.032,15.868-1.032C323.008,176.563,377.323,230.878,377.323,297.877z" fill="#f9b767" data-original="#f9b767" class=""></path> <path id="XMLID_313_" style="" d="M255.003,333.159c-9.158,0-17.769-3.566-24.245-10.043    c-13.368-13.368-13.369-35.12-0.001-48.489c6.476-6.477,15.087-10.043,24.245-10.043c9.158,0,17.768,3.566,24.245,10.042    c13.368,13.37,13.368,35.122,0,48.49C272.771,329.593,264.161,333.159,255.003,333.159z" fill="#ef9d45" data-original="#ef9d45"></path> <path id="XMLID_317_" style="" d="M377.323,297.877c0,5.384-0.351,10.677-1.031,15.868H240.129V177.594    c5.191-0.68,10.485-1.032,15.868-1.032C323.008,176.563,377.323,230.878,377.323,297.877z" fill="#ef9d45" data-original="#ef9d45"></path> <path id="XMLID_320_" style="" d="M377.323,297.877H255.998V176.563    C323.008,176.563,377.323,230.878,377.323,297.877z" fill="#ff433e" data-original="#ff433e"></path> <path id="XMLID_323_" style="" d="M289.253,297.877h-33.256V264.61c8.784,0.238,17.013,3.774,23.247,10.02    C285.683,281.068,289.015,289.433,289.253,297.877z" fill="#d61e00" data-original="#d61e00"></path> <g id="XMLID_325_"> <circle id="XMLID_1629_" style="" cx="255.003" cy="298.872" r="18.419" fill="#e2fffe" data-original="#e2fffe" class=""></circle> </g> </g> <g id="XMLID_156_"> <path id="XMLID_281_" d="M484.657,34.972H369.64c-4.143,0-7.5,3.358-7.5,7.5s3.357,7.5,7.5,7.5h115.017    c6.803,0,12.338,5.535,12.338,12.338v47.572H15V62.31c0-6.803,5.535-12.338,12.338-12.338h311.684c4.143,0,7.5-3.358,7.5-7.5    s-3.357-7.5-7.5-7.5H27.338C12.264,34.972,0,47.236,0,62.31v164.043c0,4.142,3.358,7.5,7.5,7.5s7.5-3.358,7.5-7.5V124.883h481.995    v335.573c0,0.864-0.703,1.567-1.567,1.567H16.568c-0.865,0-1.568-0.703-1.568-1.567V256.971c0-4.142-3.358-7.5-7.5-7.5    s-7.5,3.358-7.5,7.5v203.484c0,9.135,7.432,16.567,16.568,16.567h478.859c9.136,0,16.567-7.432,16.567-16.567V62.31    C511.995,47.236,499.731,34.972,484.657,34.972z" fill="#000000" data-original="#000000" class=""></path> <path id="XMLID_164_" d="M74.159,73.812c-4.142,0-7.5,3.358-7.5,7.5s3.358,7.5,7.5,7.5H341.69c4.143,0,7.5-3.358,7.5-7.5    s-3.357-7.5-7.5-7.5H74.159z" fill="#000000" data-original="#000000" class=""></path> <path id="XMLID_585_" d="M385.46,80.578v-1.303c0-4.142-3.357-7.5-7.5-7.5s-7.5,3.358-7.5,7.5v1.303c0,4.142,3.357,7.5,7.5,7.5    S385.46,84.72,385.46,80.578z" fill="#000000" data-original="#000000" class=""></path> <path id="XMLID_594_" d="M415.398,80.578v-1.303c0-4.142-3.357-7.5-7.5-7.5s-7.5,3.358-7.5,7.5v1.303c0,4.142,3.357,7.5,7.5,7.5    S415.398,84.72,415.398,80.578z" fill="#000000" data-original="#000000" class=""></path> <path id="XMLID_161_" d="M445.336,80.578v-1.303c0-4.142-3.357-7.5-7.5-7.5s-7.5,3.358-7.5,7.5v1.303c0,4.142,3.357,7.5,7.5,7.5    S445.336,84.72,445.336,80.578z" fill="#000000" data-original="#000000" class=""></path> <path id="XMLID_159_" d="M342.422,383.353c3.116,2.726,7.854,2.408,10.582-0.709c20.518-23.464,31.817-53.566,31.817-84.761    c0-71.034-57.79-128.825-128.824-128.825s-128.825,57.791-128.825,128.825s57.791,128.825,128.825,128.825    c26.081,0,51.208-7.761,72.664-22.443c3.419-2.339,4.293-7.007,1.954-10.425c-2.339-3.418-7.006-4.293-10.425-1.954    c-18.95,12.968-41.148,19.822-64.193,19.822c-62.763,0-113.825-51.062-113.825-113.825c0-60.243,47.045-109.696,106.325-113.571    v89.484c-4.334,1.116-8.435,3.362-11.822,6.75c-10.106,10.105-10.106,26.549,0,36.654c5.053,5.053,11.689,7.579,18.327,7.579    c6.636,0,13.275-2.527,18.327-7.579c3.323-3.322,5.629-7.389,6.77-11.822h89.474c-1.637,24.858-11.383,48.549-27.86,67.393    C338.987,375.888,339.304,380.626,342.422,383.353z M369.568,290.377h-90.069c-0.447-1.292-0.993-2.548-1.641-3.753l26.334-26.334    c2.929-2.929,2.929-7.678,0-10.606c-2.93-2.929-7.678-2.929-10.607,0l-26.343,26.344c-1.211-0.648-2.463-1.195-3.744-1.637    v-90.078C320.295,188.024,365.852,233.58,369.568,290.377z M262.724,306.592c-4.257,4.258-11.184,4.257-15.442,0    c-4.257-4.257-4.257-11.184,0-15.441c2.128-2.128,4.924-3.193,7.721-3.193c2.794,0,5.59,1.064,7.718,3.191    c0.001,0.001,0.001,0.001,0.002,0.002c0.001,0.001,0.002,0.002,0.003,0.003c2.06,2.062,3.195,4.802,3.195,7.718    C265.921,301.788,264.786,304.53,262.724,306.592z" fill="#000000" data-original="#000000" class=""></path> <path id="XMLID_651_" d="M218.56,364.808v1.302c0,4.142,3.358,7.5,7.5,7.5c4.142,0,7.5-3.358,7.5-7.5v-1.302    c0-4.142-3.358-7.5-7.5-7.5C221.918,357.308,218.56,360.666,218.56,364.808z" fill="#000000" data-original="#000000" class=""></path> <path id="XMLID_158_" d="M248.498,364.808v1.302c0,4.142,3.358,7.5,7.5,7.5c4.143,0,7.5-3.358,7.5-7.5v-1.302    c0-4.142-3.357-7.5-7.5-7.5C251.855,357.308,248.498,360.666,248.498,364.808z" fill="#000000" data-original="#000000" class=""></path> <path id="XMLID_157_" d="M278.435,364.808v1.302c0,4.142,3.357,7.5,7.5,7.5c4.143,0,7.5-3.358,7.5-7.5v-1.302    c0-4.142-3.357-7.5-7.5-7.5C281.792,357.308,278.435,360.666,278.435,364.808z" fill="#000000" data-original="#000000" class=""></path> </g> </g> </g></svg>