<svg xmlns="http://www.w3.org/2000/svg" version="1.1" xmlns:xlink="http://www.w3.org/1999/xlink" xmlns:svgjs="http://svgjs.com/svgjs" width="512" height="512" x="0" y="0" viewBox="0 0 512.979 512.979" style="enable-background:new 0 0 512 512" xml:space="preserve" class=""><g><g xmlns="http://www.w3.org/2000/svg"><g><g><ellipse cx="321.4" cy="177.263" fill="#ff5781" rx="168.948" ry="169.382" data-original="#ff5781" class=""></ellipse><path d="m321.4 7.882c-6.768 0-13.44.411-20 1.187 83.879 9.92 148.948 81.434 148.948 168.195s-65.069 158.274-148.948 168.194c6.56.776 13.232 1.187 20 1.187 93.308 0 168.948-75.835 168.948-169.382s-75.641-169.381-168.948-169.381z" fill="#ff4170" data-original="#ff4170"></path></g><g><path d="m141.564 483.626c0 11.739-26.658 21.255-59.541 21.255s-59.541-9.516-59.541-21.255c0-6.342 0-33.897 0-33.897h119.083c-.001 0-.001 22.158-.001 33.897z" fill="#ffe563" data-original="#ffe563"></path><path d="m101.564 449.729v33.897c0 9.234-16.498 17.089-39.541 20.023 6.252.796 12.982 1.233 20 1.233 32.884 0 59.541-9.516 59.541-21.255s0-33.897 0-33.897h-40z" fill="#ffdc2e" data-original="#ffdc2e"></path><path d="m141.564 449.729c0 11.739-26.658 21.256-59.541 21.256s-59.541-9.516-59.541-21.256c0-6.342 0-33.897 0-33.897h119.083c-.001-.001-.001 22.158-.001 33.897z" fill="#ffb700" data-original="#ffb700"></path><path d="m101.564 415.831v33.897c0 9.234-16.498 17.089-39.541 20.023 6.252.796 12.982 1.233 20 1.233 32.884 0 59.541-9.516 59.541-21.255s0-33.897 0-33.897h-40z" fill="#f5b000" data-original="#f5b000"></path><path d="m141.564 415.831c0 11.739-26.658 21.256-59.541 21.256s-59.541-9.516-59.541-21.256c0-6.342 0-33.897 0-33.897h119.083c-.001 0-.001 22.158-.001 33.897z" fill="#ffe563" data-original="#ffe563"></path><path d="m101.564 381.934v33.897c0 9.234-16.498 17.089-39.541 20.023 6.252.796 12.982 1.233 20 1.233 32.884 0 59.541-9.516 59.541-21.255s0-33.897 0-33.897h-40z" fill="#ffdc2e" data-original="#ffdc2e"></path><g><path d="m141.564 381.934c0 11.739-26.658 21.256-59.541 21.256s-59.541-9.516-59.541-21.256c0-6.342 0-33.897 0-33.897h119.083c-.001 0-.001 22.158-.001 33.897z" fill="#ffb700" data-original="#ffb700"></path><path d="m101.564 348.037v33.897c0 9.234-16.498 17.089-39.541 20.023 6.252.796 12.982 1.233 20 1.233 32.884 0 59.541-9.516 59.541-21.256 0-11.739 0-33.897 0-33.897z" fill="#f5b000" data-original="#f5b000"></path><ellipse cx="82.023" cy="348.037" fill="#ffe563" rx="59.541" ry="21.256" data-original="#ffe563"></ellipse></g><path d="m260.646 483.626c0 11.739-26.658 21.255-59.541 21.255s-59.541-9.516-59.541-21.255c0-6.342 0-33.897 0-33.897h119.083c-.001 0-.001 22.158-.001 33.897z" fill="#ffb700" data-original="#ffb700"></path><path d="m220.646 449.729v33.897c0 9.234-16.498 17.089-39.541 20.023 6.252.796 12.982 1.233 20 1.233 32.884 0 59.541-9.516 59.541-21.255s0-33.897 0-33.897h-40z" fill="#f5b000" data-original="#f5b000"></path><path d="m260.646 449.729c0 11.739-26.658 21.256-59.541 21.256s-59.541-9.516-59.541-21.256c0-6.342 0-33.897 0-33.897h119.083c-.001-.001-.001 22.158-.001 33.897z" fill="#ffe563" data-original="#ffe563"></path><path d="m220.646 415.831v33.897c0 9.234-16.498 17.089-39.541 20.023 6.252.796 12.982 1.233 20 1.233 32.884 0 59.541-9.516 59.541-21.255s0-33.897 0-33.897h-40z" fill="#ffdc2e" data-original="#ffdc2e"></path><path d="m260.646 415.831c0 11.739-26.658 21.256-59.541 21.256s-59.541-9.516-59.541-21.256c0-6.342 0-33.897 0-33.897h119.083c-.001 0-.001 22.158-.001 33.897z" fill="#ffb700" data-original="#ffb700"></path><path d="m220.646 381.934v33.897c0 9.234-16.498 17.089-39.541 20.023 6.252.796 12.982 1.233 20 1.233 32.884 0 59.541-9.516 59.541-21.255s0-33.897 0-33.897h-40z" fill="#f5b000" data-original="#f5b000"></path><path d="m260.646 381.934c0 11.739-26.658 21.256-59.541 21.256s-59.541-9.516-59.541-21.256c0-6.342 0-33.897 0-33.897h119.083c-.001 0-.001 22.158-.001 33.897z" fill="#ffe563" data-original="#ffe563"></path><path d="m220.646 348.037v33.897c0 9.234-16.498 17.089-39.541 20.023 6.252.796 12.982 1.233 20 1.233 32.884 0 59.541-9.516 59.541-21.256 0-11.739 0-33.897 0-33.897z" fill="#ffdc2e" data-original="#ffdc2e"></path><path d="m260.646 347.498c0 11.739-26.658 21.256-59.541 21.256s-59.541-9.516-59.541-21.256c0-6.342 0-33.897 0-33.897h119.083c-.001 0-.001 22.158-.001 33.897z" fill="#ffb700" data-original="#ffb700"></path><path d="m220.646 313.601v33.897c0 9.234-16.498 17.089-39.541 20.023 6.252.796 12.982 1.233 20 1.233 32.884 0 59.541-9.516 59.541-21.255s0-33.897 0-33.897h-40z" fill="#f5b000" data-original="#f5b000"></path><g><path d="m260.646 313.063c0 11.739-26.658 21.256-59.541 21.256s-59.541-9.516-59.541-21.256c0-6.342 0-33.897 0-33.897h119.083c-.001-.001-.001 22.158-.001 33.897z" fill="#ffe563" data-original="#ffe563"></path><path d="m220.646 279.165v33.897c0 9.234-16.498 17.089-39.541 20.023 6.252.796 12.982 1.233 20 1.233 32.884 0 59.541-9.516 59.541-21.255s0-33.897 0-33.897h-40z" fill="#ffdc2e" data-original="#ffdc2e"></path><ellipse cx="201.105" cy="279.165" fill="#ffb700" rx="59.541" ry="21.256" data-original="#ffb700"></ellipse></g><path d="m379.729 449.729v33.897c0 11.739-26.658 21.255-59.541 21.255s-59.541-9.516-59.541-21.255c0-6.342 0-33.897 0-33.897z" fill="#ffe563" data-original="#ffe563"></path><path d="m339.729 449.729v33.897c0 9.234-16.498 17.089-39.541 20.023 6.252.796 12.982 1.233 20 1.233 32.884 0 59.541-9.516 59.541-21.255s0-33.897 0-33.897h-40z" fill="#ffdc2e" data-original="#ffdc2e"></path><g><path d="m379.729 449.729c0 11.739-26.658 21.256-59.541 21.256s-59.541-9.516-59.541-21.256c0-6.342 0-33.897 0-33.897h119.083c-.001-.001-.001 22.158-.001 33.897z" fill="#ffb700" data-original="#ffb700"></path><path d="m339.729 415.831v33.897c0 9.234-16.498 17.089-39.541 20.023 6.252.796 12.982 1.233 20 1.233 32.884 0 59.541-9.516 59.541-21.255s0-33.897 0-33.897h-40z" fill="#f5b000" data-original="#f5b000"></path><ellipse cx="320.188" cy="415.831" fill="#ffe563" rx="59.541" ry="21.256" data-original="#ffe563"></ellipse></g></g></g><g><path d="m272.701 249.85c3.305 2.243 8.195 1.281 10.417-1.994l90.115-132.762c2.327-3.427 1.435-8.091-1.993-10.417-3.426-2.325-8.091-1.435-10.417 1.994l-90.115 132.762c-2.327 3.426-1.434 8.091 1.993 10.417z" fill="#000000" data-original="#000000" class=""></path><path d="m370.778 251.144c15.607 0 28.306-15.607 28.306-34.792-1.599-46.175-55.018-46.164-56.612 0 0 19.185 12.698 34.792 28.306 34.792zm0-54.584c7.213 0 13.306 9.063 13.306 19.792s-6.093 19.792-13.306 19.792-13.307-9.063-13.307-19.792 6.095-19.792 13.307-19.792z" fill="#000000" data-original="#000000" class=""></path><path d="m300.327 138.175c0-19.185-12.698-34.792-28.306-34.792-37.538 1.855-37.524 67.738 0 69.584 15.608 0 28.306-15.608 28.306-34.792zm-41.612 0c0-10.729 6.094-19.792 13.307-19.792s13.306 9.063 13.306 19.792-6.093 19.792-13.306 19.792-13.307-9.064-13.307-19.792z" fill="#000000" data-original="#000000" class=""></path><path d="m268.147 345.939c184.077 54.869 311.51-175.585 168.175-302.9-3.14-2.703-7.875-2.351-10.578.789-2.702 3.139-2.35 7.874.789 10.577 133.056 118.529 11.001 331.513-158.386 275.725v-50.965c0-6.428-3.89-15.479-22.418-22.093-21.139-7.546-45.527-8.215-67.591-5.096-70.721-138.054 74.019-287.588 213.908-220.316 3.717 1.816 8.211.275 10.03-3.447 1.818-3.721.276-8.212-3.445-10.031-150.892-72.725-308.534 86.271-235.715 236.881-2.242.615-4.397 1.282-6.434 2.009-18.528 6.615-22.418 15.666-22.418 22.093v49.922c-15.253-7.219-31.701-9.53-51.947-9.805-9.929.338-9.932 14.654-.008 15 15.048.008 29.083 2.067 39.521 5.798 10.273 3.672 12.435 7.379 12.435 7.957 0 .579-2.166 4.292-12.461 7.966-23.876 8.524-55.295 8.52-79.16 0-10.295-3.675-12.461-7.388-12.461-7.966 0-.68 2.632-4.954 15.141-8.853 9.38-3.284 5.111-16.947-4.463-14.32-21.223 6.615-25.678 16.253-25.678 23.173v135.589c0 6.428 3.89 15.479 22.418 22.093 27.118 9.68 62.137 9.677 89.246 0 6.739-2.406 11.535-5.135 14.918-7.942 3.383 2.807 8.179 5.536 14.918 7.942 27.119 9.68 62.138 9.677 89.247 0 6.739-2.406 11.535-5.135 14.918-7.942 3.383 2.807 8.179 5.536 14.918 7.942 27.118 9.68 62.137 9.677 89.246 0 18.528-6.615 22.418-15.666 22.418-22.093v-67.795c0-6.428-3.89-15.479-22.418-22.093-27.118-9.68-62.137-9.677-89.246 0-2.795.998-5.252 2.052-7.418 3.144-.008-9.777.014-38.793-.008-48.993.012-.271.005-1.656.007-1.95zm104.082 103.79c0 .579-2.166 4.292-12.461 7.966-23.876 8.524-55.295 8.52-79.16 0-10.295-3.675-12.461-7.388-12.461-7.966v-14.947c2.166 1.091 4.623 2.146 7.418 3.144 27.118 9.68 62.137 9.677 89.246 0 2.795-.998 5.252-2.052 7.418-3.144zm-119.082-136.666c0 .579-2.166 4.292-12.461 7.966-23.876 8.524-55.296 8.521-79.161 0-10.295-3.675-12.461-7.388-12.461-7.966v-14.947c2.166 1.091 4.623 2.146 7.418 3.144 27.119 9.68 62.138 9.677 89.247 0 2.795-.998 5.252-2.052 7.418-3.144zm-96.665 22.093c29.692 10.345 67.959 10.054 96.665-3.143v15.486c0 .579-2.166 4.292-12.461 7.967-23.878 8.524-55.294 8.519-79.161 0-10.295-3.675-12.461-7.388-12.461-7.967v-15.486c2.166 1.091 4.622 2.145 7.418 3.143zm-22.418 80.675c0 .579-2.166 4.292-12.461 7.967-23.878 8.524-55.293 8.52-79.16 0-10.295-3.675-12.461-7.388-12.461-7.967v-14.947c2.166 1.091 4.623 2.146 7.418 3.144 27.118 9.68 62.137 9.677 89.246 0 2.795-.998 5.252-2.052 7.418-3.144zm-104.082 18.95c2.166 1.091 4.623 2.146 7.418 3.144 27.118 9.68 62.137 9.677 89.246 0 2.795-.998 5.252-2.052 7.418-3.144v14.947c0 .579-2.166 4.292-12.461 7.966-23.876 8.524-55.295 8.52-79.16 0-10.295-3.675-12.461-7.388-12.461-7.966zm119.082 0c2.166 1.091 4.623 2.146 7.418 3.144 27.119 9.68 62.138 9.677 89.247 0 2.795-.998 5.252-2.052 7.418-3.144v14.947c0 .579-2.166 4.292-12.461 7.966-23.876 8.524-55.296 8.521-79.161 0-10.295-3.675-12.461-7.388-12.461-7.966zm91.622-10.983c-23.878 8.524-55.294 8.519-79.161 0-10.295-3.675-12.461-7.388-12.461-7.967v-14.947c2.166 1.091 4.623 2.146 7.418 3.144 27.119 9.68 62.138 9.677 89.247 0 2.795-.998 5.252-2.052 7.418-3.144v14.947c0 .579-2.166 4.292-12.461 7.967zm12.461-41.864c0 .579-2.166 4.291-12.461 7.966-23.878 8.524-55.294 8.519-79.161 0-10.295-3.675-12.461-7.388-12.461-7.966v-15.486c2.166 1.091 4.623 2.146 7.418 3.144 27.119 9.68 62.138 9.677 89.247 0 2.795-.998 5.252-2.052 7.418-3.144zm-91.622-110.735c23.868-8.52 55.3-8.518 79.161 0 10.295 3.675 12.461 7.388 12.461 7.966s-2.166 4.292-12.461 7.967c-23.878 8.524-55.294 8.519-79.161 0-10.295-3.675-12.461-7.388-12.461-7.967s2.166-4.291 12.461-7.966zm-124.125 98.931c29.692 10.344 67.958 10.054 96.664-3.143v14.948c0 .579-2.166 4.292-12.461 7.966-23.878 8.524-55.293 8.52-79.16 0-10.295-3.675-12.461-7.388-12.461-7.966v-14.948c2.165 1.091 4.622 2.145 7.418 3.143zm84.203 121.463c-23.878 8.524-55.293 8.52-79.16 0-10.295-3.675-12.461-7.388-12.461-7.966v-14.948c31.165 14.019 72.925 14.016 104.082 0v14.948c0 .578-2.166 4.291-12.461 7.966zm119.083 0c-23.878 8.524-55.294 8.519-79.161 0-10.295-3.675-12.461-7.388-12.461-7.966v-14.948c31.165 14.019 72.926 14.016 104.083 0v14.948c0 .578-2.166 4.29-12.461 7.966zm119.082 0c-23.878 8.524-55.293 8.52-79.16 0-10.295-3.675-12.461-7.388-12.461-7.966v-14.948c31.165 14.019 72.925 14.016 104.082 0v14.948c0 .578-2.166 4.291-12.461 7.966zm-79.16-83.728c23.878-8.524 55.293-8.52 79.16 0 10.295 3.675 12.461 7.388 12.461 7.966s-2.166 4.292-12.461 7.967c-23.878 8.524-55.293 8.52-79.16 0-10.295-3.675-12.461-7.388-12.461-7.967s2.166-4.291 12.461-7.966z" fill="#000000" data-original="#000000" class=""></path></g></g></g></svg>