<svg xmlns="http://www.w3.org/2000/svg" version="1.1" xmlns:xlink="http://www.w3.org/1999/xlink" xmlns:svgjs="http://svgjs.com/svgjs" width="512" height="512" x="0" y="0" viewBox="0 0 64 64" style="enable-background:new 0 0 512 512" xml:space="preserve" class=""><g><g xmlns="http://www.w3.org/2000/svg"><g><g><path d="m55 14c-.81 0-1.59.15-2.32.4-1.17-4.82-5.5-8.4-10.68-8.4-2.89 0-5.52 1.12-7.49 2.94-2.19-4.12-6.52-6.94-11.51-6.94-6.15 0-11.29 4.28-12.64 10.02-.12-.01-.24-.02-.36-.02-4.42 0-8 3.58-8 8s3.58 8 8 8h45c3.87 0 7-3.13 7-7s-3.13-7-7-7z" fill="#e6e9ed" data-original="#e6e9ed" class=""></path></g><g><path d="m48 18h-26c-1.1 0-2 .9-2 2v8 2 10.67c.74-.26 1.57-.07 2.13.49l.71.71c.04.04.09.09.11.14.33.37.5.84.5 1.32 0 .32-.08.64-.23.94-.27.54-.3 1.17-.06 1.72v.01h8.84v4h-6v.5c0 .89-.58 1.69-1.43 1.97-.57.19-1.04.62-1.26 1.18-.05.12-.1.23-.15.35h26.84v-12-12-2-8c0-1.1-.9-2-2-2z" fill="#fcd770" data-original="#fcd770" class=""></path></g><g><path d="m20.67 59.45c.53 0 1.06-.21 1.46-.61l.71-.71c.63-.63.79-1.6.38-2.4-.15-.29-.22-.61-.22-.93 0-.27.05-.54.16-.79v-.01h26.84v6c0 1.1-.9 2-2 2h-26c-1.1 0-2-.9-2-2v-.67c.22.08.44.12.67.12z" fill="#ffc729" data-original="#ffc729"></path></g><g><path d="m42 22h4v4h-4z" fill="#ff826e" data-original="#ff826e" class=""></path></g><g><path d="m24 22h8v4h-8z" fill="#ff826e" data-original="#ff826e" class=""></path></g><g><path d="m24 34h4v4h-4z" fill="#ff826e" data-original="#ff826e" class=""></path></g><g><path d="m38 34h8v4h-8z" fill="#ff826e" data-original="#ff826e" class=""></path></g><g><path d="m42 46h4v4h-4z" fill="#ff826e" data-original="#ff826e" class=""></path></g><g><path d="m23.16 46h8.84v4h-6v-.5c0-.89-.58-1.69-1.43-1.97-.57-.19-1.04-.62-1.26-1.18-.05-.12-.1-.23-.15-.35z" fill="#ff826e" data-original="#ff826e" class=""></path></g><g><path d="m20 40.67c.74-.26 1.57-.07 2.13.49l.71.71c.04.04.09.09.11.14.33.37.5.84.5 1.32 0 .32-.08.64-.23.94-.27.54-.3 1.17-.06 1.72v.01c.05.12.1.23.15.35.22.56.69.99 1.26 1.18.85.28 1.43 1.08 1.43 1.97v.5.5c0 .89-.58 1.69-1.43 1.97-.57.19-1.04.62-1.26 1.18-.05.12-.1.23-.15.35v.01c-.11.25-.16.52-.16.79 0 .32.07.64.22.93.41.8.25 1.77-.38 2.4l-.71.71c-.4.4-.93.61-1.46.61-.23 0-.45-.04-.67-.12l-.27-.11c-.54-.27-1.17-.3-1.72-.06-.12.05-.24.1-.36.15-.56.22-.99.69-1.18 1.26-.28.85-1.08 1.43-1.97 1.43h-1c-.89 0-1.69-.58-1.97-1.43-.19-.57-.62-1.04-1.18-1.26-.12-.05-.24-.1-.36-.15-.25-.11-.52-.16-.79-.16-.32 0-.64.07-.93.22-.8.41-1.77.25-2.4-.38l-.71-.71c-.4-.4-.61-.93-.61-1.46 0-.32.08-.64.23-.94.27-.54.3-1.17.06-1.72-.05-.12-.1-.24-.15-.36-.22-.56-.69-.99-1.26-1.18-.85-.28-1.43-1.08-1.43-1.97v-1c0-.89.58-1.69 1.43-1.97.57-.19 1.04-.62 1.26-1.18.05-.12.1-.24.15-.36.11-.25.16-.52.16-.79 0-.32-.07-.64-.22-.93-.41-.8-.25-1.77.38-2.4l.71-.71c.4-.4.93-.61 1.46-.61.32 0 .64.08.94.23.54.27 1.17.3 1.72.06l.36-.15c.56-.22.99-.69 1.18-1.26.28-.85 1.08-1.43 1.97-1.43h1c.89 0 1.69.58 1.97 1.43.19.57.62 1.04 1.18 1.26l.36.15c.25.11.52.16.79.16.32 0 .64-.07.93-.22.09-.04.18-.08.27-.11zm0 9.33c0-3.31-2.69-6-6-6s-6 2.69-6 6 2.69 6 6 6 6-2.69 6-6z" fill="#a0d468" data-original="#a0d468"></path></g><g><path d="m14 44c3.31 0 6 2.69 6 6s-2.69 6-6 6-6-2.69-6-6 2.69-6 6-6zm2 6c0-1.1-.9-2-2-2s-2 .9-2 2 .9 2 2 2 2-.9 2-2z" fill="#b4dd7f" data-original="#b4dd7f"></path></g></g><g><path d="m14 43c-3.859 0-7 3.141-7 7s3.141 7 7 7 7-3.141 7-7-3.141-7-7-7zm0 12c-2.757 0-5-2.243-5-5s2.243-5 5-5 5 2.243 5 5-2.243 5-5 5z" fill="#000000" data-original="#000000" class=""></path><path d="m14 47c-1.654 0-3 1.346-3 3s1.346 3 3 3 3-1.346 3-3-1.346-3-3-3zm0 4c-.552 0-1-.448-1-1s.448-1 1-1 1 .448 1 1-.448 1-1 1z" fill="#000000" data-original="#000000" class=""></path><path d="m55 13c-.548 0-1.095.058-1.636.173-1.626-4.86-6.161-8.173-11.364-8.173-2.657 0-5.173.881-7.225 2.434-2.565-3.995-6.971-6.434-11.775-6.434-6.253 0-11.656 4.076-13.409 10.009-4.774.215-8.591 4.166-8.591 8.991 0 4.963 4.037 9 9 9h9v10.96c-.203.041-.408.044-.595-.037-.128-.056-.258-.108-.391-.16-.279-.109-.496-.345-.596-.647-.414-1.266-1.588-2.116-2.92-2.116h-.996c-1.332 0-2.506.851-2.921 2.115-.1.303-.316.538-.597.647-.132.052-.262.104-.391.161-.272.117-.591.104-.873-.038-1.188-.6-2.619-.371-3.561.569l-.705.706c-.94.942-1.169 2.373-.568 3.56.143.283.156.602.037.875-.056.128-.108.258-.16.391-.109.279-.345.496-.647.596-1.266.414-2.116 1.588-2.116 2.92v.996c0 1.332.851 2.506 2.115 2.921.303.1.538.316.647.597.052.132.104.262.161.391.118.272.104.591-.038.873-.601 1.188-.372 2.618.569 3.561l.705.706c.941.94 2.371 1.169 3.56.568.282-.142.602-.156.875-.037.128.056.258.108.391.16.279.109.496.345.596.647.415 1.265 1.589 2.115 2.921 2.115h.996c1.332 0 2.506-.851 2.921-2.115.1-.303.316-.538.597-.647.132-.052.262-.104.391-.161.187-.081.394-.077.598-.035.022 1.634 1.355 2.958 2.995 2.958h26c1.654 0 3-1.346 3-3v-31h4c4.411 0 8-3.589 8-8s-3.589-8-8-8zm-34.819 45.329c-.813-.411-1.752-.443-2.57-.088-.106.046-.213.091-.32.133-.839.326-1.484 1.015-1.771 1.888-.146.441-.556.738-1.022.738h-.996c-.466 0-.876-.297-1.021-.74-.287-.872-.933-1.56-1.771-1.886-.108-.042-.215-.087-.32-.132-.378-.164-.781-.246-1.186-.246-.473 0-.947.111-1.387.333-.415.21-.915.13-1.244-.198l-.703-.705c-.329-.329-.409-.829-.199-1.245.411-.814.443-1.752.088-2.57-.046-.106-.091-.213-.133-.32-.326-.839-1.015-1.484-1.888-1.771-.441-.146-.738-.556-.738-1.022v-.996c0-.466.297-.876.74-1.021.872-.287 1.56-.933 1.886-1.771.042-.108.087-.215.132-.32.356-.819.324-1.757-.087-2.572-.21-.415-.13-.915.198-1.244l.705-.705c.329-.328.83-.407 1.245-.198.814.411 1.753.444 2.57.088.106-.046.213-.091.32-.133.839-.326 1.484-1.015 1.771-1.888.146-.441.556-.738 1.022-.738h.996c.466 0 .876.297 1.021.74.287.872.933 1.56 1.771 1.886.108.042.215.087.32.132.82.356 1.758.324 2.572-.087.416-.211.917-.129 1.244.198l.704.705c.329.329.409.829.199 1.245-.411.814-.443 1.752-.088 2.57.046.106.091.213.133.32.326.839 1.015 1.484 1.888 1.771.441.146.738.556.738 1.022v.996c0 .466-.297.876-.74 1.021-.872.287-1.56.933-1.886 1.771-.042.108-.087.215-.132.32-.356.819-.324 1.757.087 2.572.21.415.13.915-.198 1.244l-.705.704c-.328.329-.828.409-1.245.199zm28.819 1.671c0 .552-.448 1-1 1h-26c-.404 0-.748-.243-.906-.588.645-.091 1.261-.382 1.746-.867l.706-.705c.94-.942 1.169-2.373.568-3.56-.045-.09-.055-.186-.074-.28h24.96zm0-7h-23.292c.662-.471 1.116-1.187 1.25-2h6.042v-6h-8.96c.019-.094.029-.19.074-.279.276-.546.369-1.143.306-1.721h24.58zm-23.292-6h5.292v2h-4.042c-.133-.813-.588-1.529-1.25-2zm23.292-6h-25.615l-.545-.545c-.508-.509-1.161-.803-1.84-.877v-8.578h28zm0-12h-28v-9c0-.552.448-1 1-1h26c.552 0 1 .448 1 1zm6-2h-4v-7c0-1.654-1.346-3-3-3h-26c-1.654 0-3 1.346-3 3v7h-9c-3.859 0-7-3.141-7-7s3.141-7 7-7c.053 0 .104.004.156.008l.985.043.189-.805c1.281-5.443 6.079-9.246 11.67-9.246 4.23 0 8.101 2.205 10.271 5.796-.481.513-.937 1.055-1.329 1.658l1.676 1.092c1.855-2.847 4.988-4.546 8.382-4.546 4.624 0 8.616 3.141 9.707 7.638l.261 1.075 1.043-.367c.652-.23 1.321-.346 1.989-.346 3.309 0 6 2.691 6 6s-2.691 6-6 6z" fill="#000000" data-original="#000000" class=""></path><path d="m47 45h-6v6h6zm-2 4h-2v-2h2z" fill="#000000" data-original="#000000" class=""></path><path d="m29 33h-6v6h6zm-2 4h-2v-2h2z" fill="#000000" data-original="#000000" class=""></path><path d="m47 33h-10v6h10zm-2 4h-6v-2h6z" fill="#000000" data-original="#000000" class=""></path><path d="m41 27h6v-6h-6zm2-4h2v2h-2z" fill="#000000" data-original="#000000" class=""></path><path d="m23 27h10v-6h-10zm2-4h6v2h-6z" fill="#000000" data-original="#000000" class=""></path><path d="m41 57h2v2h-2z" fill="#000000" data-original="#000000" class=""></path><path d="m45 57h2v2h-2z" fill="#000000" data-original="#000000" class=""></path><path d="m37 57h2v2h-2z" fill="#000000" data-original="#000000" class=""></path><path d="m24.778 7.198c.654.148 1.29.38 1.89.69l.918-1.777c-.75-.388-1.545-.678-2.364-.864z" fill="#000000" data-original="#000000" class=""></path><path d="m13.247 12.778 1.951.443c.831-3.662 4.04-6.221 7.802-6.221v-2c-4.702 0-8.713 3.198-9.753 7.778z" fill="#000000" data-original="#000000" class=""></path></g></g></g></svg>