<svg xmlns="http://www.w3.org/2000/svg" version="1.1" xmlns:xlink="http://www.w3.org/1999/xlink" xmlns:svgjs="http://svgjs.com/svgjs" width="512" height="512" x="0" y="0" viewBox="0 0 512 512" style="enable-background:new 0 0 512 512" xml:space="preserve" class=""><g><g xmlns="http://www.w3.org/2000/svg"><g><path d="m237.563 349.891h45.835v144.131c0 5.511-4.467 9.978-9.978 9.978h-25.879c-5.511 0-9.978-4.467-9.978-9.978z" fill="#cd8051" data-original="#cd8051"></path><path d="m237.563 349.891h45.835v18h-45.835z" fill="#bc6e45" data-original="#bc6e45" class=""></path><path d="m237.563 181.368h45.835v48.095h-45.835z" fill="#cd8051" data-original="#cd8051"></path><path d="m237.563 181.368h45.835v18h-45.835z" fill="#bc6e45" data-original="#bc6e45" class=""></path><path d="m247.541 8h25.879c5.511 0 9.978 4.467 9.978 9.978v42.962h-45.835v-42.962c0-5.511 4.467-9.978 9.978-9.978z" fill="#cd8051" data-original="#cd8051"></path><path d="m237.563 42.94h45.835v18h-45.835z" fill="#bc6e45" data-original="#bc6e45" class=""></path><path d="m380.251 181.368h-275.319c-11.021 0-19.956-8.935-19.956-19.956v-80.515c0-11.022 8.935-19.956 19.956-19.956h275.319c4.312 0 8.508 1.396 11.959 3.98l53.778 40.258c10.663 7.982 10.663 23.97 0 31.952l-53.778 40.258c-3.452 2.583-7.647 3.979-11.959 3.979z" fill="#f4de7f" data-original="#f4de7f" class=""></path><path d="m445.988 119.13-53.778 40.258c-3.452 2.584-7.648 3.981-11.959 3.981h-275.319c-11.021 0-19.956-8.935-19.956-19.956v18c0 11.021 8.935 19.956 19.956 19.956h275.319c4.312 0 8.508-1.396 11.959-3.981l53.778-40.258c8.083-6.05 10.032-16.699 5.861-24.976-1.331 2.642-3.281 5.045-5.861 6.976z" fill="#eacb61" data-original="#eacb61" class=""></path><path d="m131.749 349.891h275.319c11.021 0 19.956-8.935 19.956-19.956v-80.515c0-11.022-8.935-19.956-19.956-19.956h-275.319c-4.312 0-8.508 1.396-11.959 3.98l-53.778 40.258c-10.663 7.982-10.663 23.97 0 31.952l53.778 40.258c3.452 2.583 7.647 3.979 11.959 3.979z" fill="#f4de7f" data-original="#f4de7f" class=""></path><path d="m407.068 331.891h-275.319c-4.312 0-8.508-1.396-11.959-3.981l-53.778-40.258c-2.58-1.931-4.53-4.334-5.861-6.976-4.171 8.277-2.221 18.925 5.861 24.976l53.778 40.258c3.452 2.584 7.648 3.981 11.959 3.981h275.319c11.021 0 19.956-8.935 19.956-19.956v-18c.001 11.021-8.934 19.956-19.956 19.956z" fill="#eacb61" data-original="#eacb61" class=""></path></g><g><path d="m104.636 188.737h31.941c4.15 0 7.515-3.364 7.515-7.515s-3.365-7.515-7.515-7.515h-31.941c-6.882 0-12.48-5.599-12.48-12.48v-80.673c0-6.882 5.599-12.48 12.48-12.48h216.667c4.15 0 7.515-3.364 7.515-7.515s-3.365-7.515-7.515-7.515h-30.337v-35.531c0-9.657-7.856-17.513-17.512-17.513h-25.93c-9.657 0-17.513 7.856-17.513 17.513v35.531h-125.375c-15.169 0-27.51 12.34-27.51 27.51v80.673c0 15.169 12.341 27.51 27.51 27.51zm140.405-171.224c0-1.369 1.114-2.483 2.483-2.483h25.93c1.369 0 2.483 1.114 2.483 2.483v35.531h-30.896z" fill="#000000" data-original="#000000" class=""></path><path d="m450.863 98.868-53.883-40.337c-4.727-3.538-10.581-5.487-16.486-5.487h-29.133c-4.15 0-7.515 3.364-7.515 7.515s3.365 7.515 7.515 7.515h29.133c2.679 0 5.335.883 7.479 2.489l53.884 40.337c3.178 2.38 5.001 6.021 5.001 9.991 0 3.971-1.823 7.612-5.001 9.991l-53.884 40.337c-2.144 1.606-4.8 2.489-7.479 2.489h-213.858c-4.15 0-7.515 3.364-7.515 7.515s3.365 7.515 7.515 7.515h63.376v33.16h-98.506c-5.904 0-11.759 1.948-16.486 5.487l-53.883 40.335c-7.006 5.244-11.024 13.271-11.024 22.022s4.018 16.779 11.024 22.022l53.884 40.337c4.727 3.539 10.582 5.487 16.486 5.487h98.506v136.898c0 9.656 7.856 17.513 17.513 17.513h25.93c9.656 0 17.512-7.856 17.512-17.513v-136.897h45.366c4.15 0 7.515-3.364 7.515-7.515s-3.365-7.515-7.515-7.515h-204.828c-2.679 0-5.335-.885-7.479-2.489l-53.883-40.337c-3.178-2.38-5.001-6.021-5.001-9.991 0-3.971 1.823-7.612 5.001-9.991l53.883-40.337c2.145-1.605 4.801-2.489 7.48-2.489h275.858c6.882 0 12.48 5.599 12.48 12.48v80.673c0 6.882-5.599 12.48-12.48 12.48h-40.973c-4.15 0-7.515 3.364-7.515 7.515s3.365 7.515 7.515 7.515h40.973c15.169 0 27.51-12.34 27.51-27.51v-80.673c0-15.169-12.341-27.51-27.51-27.51h-116.399v-33.16h89.528c5.905 0 11.759-1.949 16.486-5.487l53.884-40.337c7.006-5.244 11.024-13.271 11.024-22.022s-4.019-16.777-11.025-22.021zm-174.926 395.619c0 1.369-1.114 2.483-2.483 2.483h-25.93c-1.369 0-2.483-1.114-2.483-2.483v-136.898h30.896zm0-272.591h-30.896v-33.16h30.896z" fill="#000000" data-original="#000000" class=""></path></g></g></g></svg>