<svg id="Capa_1" enable-background="new 0 0 512 512" height="512" viewBox="0 0 512 512" width="512" xmlns="http://www.w3.org/2000/svg"><g><path d="m270.564 498.694 183.33-173.783c3.614-3.426 5.905-8.017 6.47-12.965l32.04-280.877c1.433-12.56-8.391-23.569-21.033-23.569h-430.741c-12.642 0-22.466 11.008-21.034 23.569l32.04 280.877c.564 4.948 2.855 9.539 6.47 12.965l183.33 173.783c8.167 7.741 20.962 7.741 29.128 0z" fill="#fdb97e"/><path d="m471.37 7.5h-19.457c12.642 0 22.466 11.008 21.033 23.569l-32.04 280.877c-.564 4.948-2.855 9.539-6.469 12.965l-183.33 173.783c-1.477 1.401-3.11 2.539-4.835 3.433 7.813 4.046 17.604 2.908 24.293-3.433l183.33-173.783c3.614-3.426 5.905-8.017 6.469-12.965l32.04-280.877c1.433-12.56-8.391-23.569-21.034-23.569z" fill="#fea95c"/><path d="m92.275 298.848-27.172-238.202c-.55-4.82 3.22-9.045 8.072-9.045h365.652c4.851 0 8.621 4.224 8.072 9.045l-27.171 238.201c-.217 1.899-1.096 3.66-2.483 4.975l-155.655 147.549c-3.134 2.971-8.044 2.971-11.178 0l-155.654-147.548c-1.387-1.315-2.266-3.077-2.483-4.975z" fill="#f5f8f9"/><path d="m438.826 51.602h-24.758c4.851 0 8.621 4.224 8.072 9.045l-27.171 238.201c-.217 1.899-1.096 3.66-2.483 4.975l-148.864 141.111 6.79 6.437c3.134 2.971 8.044 2.971 11.178 0l155.653-147.548c1.387-1.315 2.266-3.076 2.483-4.975l27.171-238.201c.55-4.821-3.219-9.045-8.071-9.045z" fill="#e8edf2"/><path d="m7.5 223.377h497v147.707h-497z" fill="#fedbbd"/><path d="m478 223.377h26.5v147.707h-26.5z" fill="#feca9c"/><g><path d="m227.125 125.157c-3.392-2.378-8.07-1.553-10.446 1.839l-17.387 24.816c-1.81 2.584-1.81 6.023 0 8.607l17.387 24.817c1.459 2.083 3.785 3.197 6.149 3.197 1.485 0 2.987-.441 4.297-1.358 3.393-2.377 4.216-7.054 1.839-10.446l-14.372-20.514 14.372-20.513c2.377-3.392 1.554-8.068-1.839-10.445z"/><path d="m295.322 126.996c-2.376-3.393-7.054-4.215-10.446-1.839-3.393 2.377-4.216 7.054-1.839 10.446l14.372 20.513-14.372 20.514c-2.377 3.393-1.554 8.069 1.839 10.446 1.31.918 2.811 1.358 4.297 1.358 2.364 0 4.69-1.115 6.149-3.197l17.387-24.817c1.81-2.584 1.81-6.023 0-8.607z"/><path d="m270.743 125.738c-3.73-1.808-8.216-.244-10.018 3.484l-22.862 47.255c-1.805 3.729-.244 8.214 3.484 10.018 1.053.51 2.165.751 3.261.751 2.786 0 5.463-1.56 6.757-4.235l22.862-47.255c1.805-3.729.245-8.214-3.484-10.018z"/><path d="m206.803 98.223h98.396c4.143 0 7.5-3.357 7.5-7.5s-3.357-7.5-7.5-7.5h-98.396c-4.143 0-7.5 3.357-7.5 7.5s3.357 7.5 7.5 7.5z"/><path d="m59.708 289.73h-14.15c-4.143 0-7.5 3.357-7.5 7.5s3.357 7.5 7.5 7.5h14.15c4.143 0 7.5-3.357 7.5-7.5s-3.357-7.5-7.5-7.5z"/><path d="m452.293 304.73h14.15c4.143 0 7.5-3.357 7.5-7.5s-3.357-7.5-7.5-7.5h-14.15c-4.143 0-7.5 3.357-7.5 7.5s3.357 7.5 7.5 7.5z"/><path d="m256 414.29c4.143 0 7.5-3.357 7.5-7.5v-8.75c0-4.143-3.357-7.5-7.5-7.5s-7.5 3.357-7.5 7.5v8.75c0 4.142 3.357 7.5 7.5 7.5z"/><path d="m334.21 257.346c-.843-4.136-4.373-7.189-8.587-7.428-4.311-.23-8.239 2.531-9.449 6.673l-16.591 58.197-17.192-58.276c-1.151-3.966-5.094-6.878-9.523-6.583-4.212.284-7.71 3.376-8.523 7.606l-14.001 77.567c-.735 4.076 1.973 7.977 6.049 8.713 4.072.733 7.978-1.972 8.713-6.049l9.725-53.877 15.949 54.062c.591 2.012 1.875 3.751 3.582 4.939 3.188 2.218 7.334 2.181 10.448.126 1.816-1.199 3.187-3.014 3.793-5.148l15.401-54.027 10.32 54.001c.777 4.069 4.713 6.741 8.774 5.958 4.068-.777 6.736-4.705 5.958-8.774z"/><path d="m368.083 257.404v79.586c0 3.651 2.63 6.772 6.229 7.392.531.091 1.041.18 9.812.18 4.231 0 10.388-.021 19.394-.071 4.143-.023 7.481-3.4 7.458-7.542-.023-4.128-3.376-7.458-7.499-7.458h-.043c-7.15.04-14.862.067-20.283.067h-.067v-72.153c0-4.143-3.357-7.5-7.5-7.5s-7.501 3.356-7.501 7.499z"/><path d="m163.646 249.904c-4.143 0-7.5 3.357-7.5 7.5v30.961h-40.121v-30.961c0-4.143-3.357-7.5-7.5-7.5s-7.5 3.357-7.5 7.5v79.653c0 4.143 3.357 7.5 7.5 7.5s7.5-3.357 7.5-7.5v-33.692h40.121v33.692c0 4.143 3.357 7.5 7.5 7.5s7.5-3.357 7.5-7.5v-79.653c0-4.143-3.357-7.5-7.5-7.5z"/><path d="m242.373 249.904h-43.989c-4.143 0-7.5 3.357-7.5 7.5s3.357 7.5 7.5 7.5h14.406v72.153c0 4.143 3.357 7.5 7.5 7.5s7.5-3.357 7.5-7.5v-72.153h14.583c4.143 0 7.5-3.357 7.5-7.5s-3.357-7.5-7.5-7.5z"/><path d="m504.5 215.876h-25.629l20.986-183.957c.924-8.107-1.662-16.25-7.096-22.339-5.433-6.087-13.23-9.58-21.391-9.58h-360.581c-4.143 0-7.5 3.357-7.5 7.5s3.357 7.5 7.5 7.5h360.581c3.948 0 7.571 1.622 10.199 4.568 2.629 2.945 3.831 6.729 3.383 10.651l-21.179 185.656h-27.033l17.61-154.381c.504-4.418-.905-8.855-3.866-12.173s-7.21-5.221-11.657-5.221h-365.652c-4.447 0-8.696 1.903-11.658 5.222-2.961 3.317-4.37 7.754-3.866 12.172l17.611 154.381h-27.035l-21.179-185.656c-.447-3.923.754-7.705 3.383-10.65 2.628-2.946 6.251-4.569 10.199-4.569h41.159c4.143 0 7.5-3.357 7.5-7.5s-3.357-7.5-7.5-7.5h-41.159c-8.161 0-15.958 3.492-21.392 9.581s-8.019 14.23-7.094 22.338l20.984 183.957h-25.628c-4.143 0-7.5 3.357-7.5 7.5v147.707c0 4.143 3.357 7.5 7.5 7.5h96.325l132.451 125.554c5.531 5.242 12.626 7.863 19.724 7.863 7.096 0 14.194-2.621 19.725-7.862l132.185-125.301c.087-.083.172-.167.254-.253h96.336c4.143 0 7.5-3.357 7.5-7.5v-147.708c0-4.142-3.357-7.5-7.5-7.5zm-239.095 277.374c-5.274 4.999-13.535 4.999-18.81 0l-120.967-114.667h37.095l31.385 29.751c1.451 1.375 3.307 2.057 5.159 2.057 1.986 0 3.97-.785 5.444-2.34 2.85-3.007 2.723-7.754-.283-10.604l-19.9-18.864h142.945l-71.043 67.344c-.24.229-.616.229-.858 0l-29.979-28.417c-3.006-2.85-7.753-2.725-10.603.284-2.85 3.006-2.723 7.753.284 10.603l29.978 28.417c3.015 2.856 6.881 4.285 10.749 4.285 3.867 0 7.735-1.429 10.749-4.285l82.527-78.23h37.094zm231.595-129.667h-482v-132.707h326.689c4.143 0 7.5-3.357 7.5-7.5s-3.357-7.5-7.5-7.5h-251.331l-17.803-156.08c-.008-.069-.032-.277.153-.485.187-.209.397-.209.467-.209h365.651c.069 0 .279 0 .466.208.186.208.161.417.153.486l-17.804 156.08h-50.952c-4.143 0-7.5 3.357-7.5 7.5s3.357 7.5 7.5 7.5h126.311z"/></g></g></svg>