<svg height="512pt" viewBox="0 -41 512 512" width="512pt" xmlns="http://www.w3.org/2000/svg"><path d="m475.5 402.5h-439v-311c0-11.046875 8.953125-20 20-20h398.875c11.09375 0 20.070312 9.03125 20 20.125zm0 0" fill="#8175ba"/><path d="m475.5 392.5h-30l-.128906-300.878906c.070312-11.089844-8.902344-20.121094-19.992188-20.121094h30c11.089844 0 20.0625 9.03125 19.992188 20.121094zm0 0" fill="#575293"/><path d="m489.5 422.5h-467c-8.285156 0-15-6.714844-15-15s6.714844-15 15-15h467c8.285156 0 15 6.714844 15 15s-6.714844 15-15 15zm0 0" fill="#d8d8d8"/><path d="m504.5 407.5c0 4.140625-1.679688 7.890625-4.398438 10.601562-2.710937 2.71875-6.460937 4.398438-10.601562 4.398438h-30c4.140625 0 7.890625-1.679688 10.601562-4.398438 2.71875-2.710937 4.398438-6.460937 4.398438-10.601562 0-1.75-.300781-3.429688-.859375-5-2.050781-5.820312-7.609375-10-14.140625-10h30c8.28125 0 15 6.71875 15 15zm0 0" fill="#afafaf"/><path d="m440.5 362.5h-369c-2.761719 0-5-2.238281-5-5v-251c0-2.761719 2.238281-5 5-5h369c2.761719 0 5 2.238281 5 5v251c0 2.761719-2.238281 5-5 5zm0 0" fill="#fafeff"/><path d="m440.5 362.5h-309v-30h314v25c0 2.761719-2.238281 5-5 5zm0 0" fill="#e8e8e8"/><path d="m141.5 362.5h-70c-2.761719 0-5-2.238281-5-5v-251c0-2.761719 2.238281-5 5-5h70zm0 0" fill="#d8d8d8"/><path d="m394.5 137.5h-277c-11.046875 0-20-8.953125-20-20v-90c0-11.046875 8.953125-20 20-20h277c11.046875 0 20 8.953125 20 20v90c0 11.046875-8.953125 20-20 20zm0 0" fill="#f2d67c"/><path d="m414.5 27.5v90c0 11.050781-8.949219 20-20 20h-30c11.050781 0 20-8.949219 20-20v-90c0-11.050781-8.949219-20-20-20h30c11.050781 0 20 8.949219 20 20zm0 0" fill="#e2b061"/><path d="m489.5 385h-6.503906l-.121094-293.328125c.046875-7.378906-2.792969-14.324219-7.992188-19.558594-5.203124-5.230469-12.128906-8.113281-19.507812-8.113281h-40.875c-4.144531 0-7.5 3.355469-7.5 7.5v46c0 6.894531-5.605469 12.5-12.5 12.5h-277c-6.894531 0-12.5-5.605469-12.5-12.5v-90c0-6.894531 5.605469-12.5 12.5-12.5h277c6.894531 0 12.5 5.605469 12.5 12.5v9c0 4.144531 3.355469 7.5 7.5 7.5s7.5-3.355469 7.5-7.5v-9c0-15.164062-12.335938-27.5-27.5-27.5h-277c-15.164062 0-27.5 12.335938-27.5 27.5v36.5h-33.5c-15.164062 0-27.5 12.335938-27.5 27.5v293.5h-6.5c-12.40625 0-22.5 10.09375-22.5 22.5s10.09375 22.5 22.5 22.5h44.25c4.144531 0 7.5-3.355469 7.5-7.5s-3.355469-7.5-7.5-7.5h-44.25c-4.136719 0-7.5-3.363281-7.5-7.5s3.363281-7.5 7.5-7.5h467c4.136719 0 7.5 3.363281 7.5 7.5s-3.363281 7.5-7.5 7.5h-387.75c-4.144531 0-7.5 3.355469-7.5 7.5s3.355469 7.5 7.5 7.5h387.75c12.40625 0 22.5-10.09375 22.5-22.5s-10.09375-22.5-22.5-22.5zm-67.5-267.5v-8.5h16v216h-289v-180h245.5c15.164062 0 27.5-12.335938 27.5-27.5zm-273 222.5h289v15h-289zm-31.5-195h16.5v210h-60v-246h16v8.5c0 15.164062 12.335938 27.5 27.5 27.5zm-73.5-53.5c0-6.894531 5.605469-12.5 12.5-12.5h33.5v15h-18.5c-6.894531 0-12.5 5.605469-12.5 12.5v251c0 6.894531 5.605469 12.5 12.5 12.5h369c6.894531 0 12.5-5.605469 12.5-12.5v-251c0-6.894531-5.605469-12.5-12.5-12.5h-18.5v-15h33.375c3.355469 0 6.503906 1.3125 8.867188 3.6875 2.363281 2.378906 3.652343 5.535156 3.632812 8.941406l.121094 293.371094h-423.996094zm0 0"/><path d="m221 197.5h57c4.144531 0 7.5-3.355469 7.5-7.5s-3.355469-7.5-7.5-7.5h-57c-4.144531 0-7.5 3.355469-7.5 7.5s3.355469 7.5 7.5 7.5zm0 0"/><path d="m308 197.5h37c4.144531 0 7.5-3.355469 7.5-7.5s-3.355469-7.5-7.5-7.5h-37c-4.144531 0-7.5 3.355469-7.5 7.5s3.355469 7.5 7.5 7.5zm0 0"/><path d="m375 197.5h27c4.144531 0 7.5-3.355469 7.5-7.5s-3.355469-7.5-7.5-7.5h-27c-4.144531 0-7.5 3.355469-7.5 7.5s3.355469 7.5 7.5 7.5zm0 0"/><path d="m345 212.5h-62c-4.144531 0-7.5 3.355469-7.5 7.5s3.355469 7.5 7.5 7.5h62c4.144531 0 7.5-3.355469 7.5-7.5s-3.355469-7.5-7.5-7.5zm0 0"/><path d="m375 227.5h27c4.144531 0 7.5-3.355469 7.5-7.5s-3.355469-7.5-7.5-7.5h-27c-4.144531 0-7.5 3.355469-7.5 7.5s3.355469 7.5 7.5 7.5zm0 0"/><path d="m345 242.5h-62c-4.144531 0-7.5 3.355469-7.5 7.5s3.355469 7.5 7.5 7.5h62c4.144531 0 7.5-3.355469 7.5-7.5s-3.355469-7.5-7.5-7.5zm0 0"/><path d="m375 257.5h27c4.144531 0 7.5-3.355469 7.5-7.5s-3.355469-7.5-7.5-7.5h-27c-4.144531 0-7.5 3.355469-7.5 7.5s3.355469 7.5 7.5 7.5zm0 0"/><path d="m278 272.5h-57c-4.144531 0-7.5 3.355469-7.5 7.5s3.355469 7.5 7.5 7.5h57c4.144531 0 7.5-3.355469 7.5-7.5s-3.355469-7.5-7.5-7.5zm0 0"/><path d="m345 272.5h-37c-4.144531 0-7.5 3.355469-7.5 7.5s3.355469 7.5 7.5 7.5h37c4.144531 0 7.5-3.355469 7.5-7.5s-3.355469-7.5-7.5-7.5zm0 0"/><path d="m375 287.5h27c4.144531 0 7.5-3.355469 7.5-7.5s-3.355469-7.5-7.5-7.5h-27c-4.144531 0-7.5 3.355469-7.5 7.5s3.355469 7.5 7.5 7.5zm0 0"/><path d="m92.5 178.75c0 5.515625 4.484375 10 10 10s10-4.484375 10-10-4.484375-10-10-10-10 4.484375-10 10zm0 0"/><path d="m102.5 206.75c-5.515625 0-10 4.484375-10 10s4.484375 10 10 10 10-4.484375 10-10-4.484375-10-10-10zm0 0"/><path d="m102.5 245.25c-5.515625 0-10 4.484375-10 10s4.484375 10 10 10 10-4.484375 10-10-4.484375-10-10-10zm0 0"/><path d="m102.5 285.25c-5.515625 0-10 4.484375-10 10s4.484375 10 10 10 10-4.484375 10-10-4.484375-10-10-10zm0 0"/><path d="m173.75 108.75c4.144531 0 7.5-3.355469 7.5-7.5v-58c0-4.144531-3.355469-7.5-7.5-7.5s-7.5 3.355469-7.5 7.5v21.5h-20v-21.5c0-4.144531-3.355469-7.5-7.5-7.5s-7.5 3.355469-7.5 7.5v58c0 4.144531 3.355469 7.5 7.5 7.5s7.5-3.355469 7.5-7.5v-21.5h20v21.5c0 4.144531 3.355469 7.5 7.5 7.5zm0 0"/><path d="m221.25 108.75c4.144531 0 7.5-3.355469 7.5-7.5v-50.5h10c4.144531 0 7.5-3.355469 7.5-7.5s-3.355469-7.5-7.5-7.5h-35c-4.144531 0-7.5 3.355469-7.5 7.5s3.355469 7.5 7.5 7.5h10v50.5c0 4.144531 3.355469 7.5 7.5 7.5zm0 0"/><path d="m315.75 108.75c4.144531 0 7.5-3.355469 7.5-7.5v-58c0-3.046875-1.84375-5.792969-4.664062-6.945312-2.828126-1.148438-6.0625-.480469-8.195313 1.699218l-18.140625 18.527344-18.140625-18.527344c-2.132813-2.179687-5.371094-2.847656-8.195313-1.699218-2.820312 1.152343-4.664062 3.898437-4.664062 6.945312v58c0 4.144531 3.355469 7.5 7.5 7.5s7.5-3.355469 7.5-7.5v-39.621094l10.640625 10.867188c1.410156 1.441406 3.34375 2.253906 5.359375 2.253906s3.949219-.8125 5.359375-2.253906l10.640625-10.867188v39.621094c0 4.144531 3.355469 7.5 7.5 7.5zm0 0"/><path d="m345.75 35.75c-4.144531 0-7.5 3.355469-7.5 7.5v58.5c0 4.144531 3.355469 7.5 7.5 7.5h27.5c4.144531 0 7.5-3.355469 7.5-7.5s-3.355469-7.5-7.5-7.5h-20v-51c0-4.144531-3.355469-7.5-7.5-7.5zm0 0"/></svg>