<svg id="Layer_1" enable-background="new 0 0 512 512" height="512" viewBox="0 0 512 512" width="512" xmlns="http://www.w3.org/2000/svg"><g><g><g><path d="m446.778 256.004c0 134.57-5.86 244.52-5.86 244.52s-14.48.7-38.75 1.51c-33.75 1.12-86.43 2.47-145.39 2.47-101.34 0-184.14-3.98-184.14-3.98s-5.86-109.95-5.86-244.52 5.86-244.52 5.86-244.52 82.8-3.98 184.14-3.98c38.64 0 44.38.58 70.96 1.29 1.44.04 2.95.08 4.52.12 0 0 62.22 50.44 111.72 111.73 1.42 43.97 2.8 69.97 2.8 135.36z" fill="#e1fff8"/><path d="m446.778 256.004c0 134.57-5.86 244.52-5.86 244.52s-14.48.7-38.75 1.51c8.79-242.38-.37-380.13-.37-380.13-18.64-35.75-53.63-85.2-74.06-113.11 1.44.04 2.95.08 4.52.12 0 0 62.22 50.44 111.72 111.73 1.42 43.97 2.8 69.97 2.8 135.36z" fill="#c5deed"/><path d="m443.978 120.644c-14.38.7-28.76 1.08-42.18 1.26-38.74.53-69.54-.61-69.54-.61-2.62-45.52-1-91.05-.29-106.69.17-3.67.29-5.69.29-5.69s62.22 50.44 111.72 111.73z" fill="#97b3bf"/><path d="m443.978 120.644c-14.38.7-28.76 1.08-42.18 1.26-17.4-33.38-49.07-78.71-69.83-107.3.17-3.67.29-5.69.29-5.69s62.22 50.44 111.72 111.73z" fill="#708ea0"/></g><path d="m471.003 374.968c0 45.23-1.96 81.83-1.96 81.83-.99.05-14.07.6-35.85 1.3-38.3 1.22-103.51 2.87-177.19 2.87-115.52 0-210.22-4.05-213.04-4.17 0 0-1.96-36.6-1.96-81.83 0-45.24 1.9-81.83 1.9-81.83s95.82-4.17 213.1-4.17c73.71 0 138.94 1.65 177.23 2.87 22.64.73 35.87 1.3 35.87 1.3s1.9 36.59 1.9 81.83z" fill="#8ad2ff"/><path d="m471.003 374.968c0 45.23-1.96 81.83-1.96 81.83-.99.05-14.07.6-35.85 1.3.6-13.76 1.81-45.78 1.81-83.13s-1.17-69.36-1.77-83.13c22.64.73 35.87 1.3 35.87 1.3s1.9 36.59 1.9 81.83z" fill="#77b4f2"/></g><g><path d="m154.261 16.254c35.028-.832 69.519-1.254 102.515-1.254 29.09 0 39.625.334 54.207.797 3.973.126 8.307.264 13.419.408-.747 17.428-2.158 61.695.371 105.516.223 3.862 3.346 6.92 7.211 7.063.337.012 20.782.746 49.098.746 16.655 0 36.034-.254 55.643-1.057.164 4.888.327 9.579.486 14.163.233 6.717.458 13.204.668 19.744.13 4.058 3.461 7.259 7.492 7.259.081 0 .164-.001.245-.004 4.14-.133 7.389-3.597 7.255-7.737-.21-6.553-.436-13.052-.669-19.782-.239-6.894-.486-14.031-.735-21.717-.053-1.631-.636-3.2-1.661-4.47-49.425-61.201-112.194-112.334-112.822-112.844-1.286-1.042-2.88-1.63-4.535-1.672-8.627-.217-15.195-.425-20.99-.609-14.72-.467-25.355-.804-54.683-.804-33.115 0-67.726.423-102.872 1.258-4.141.099-7.418 3.535-7.32 7.676.099 4.141 3.507 7.406 7.677 7.32zm274.263 97.515c-38.32 1.307-74.49.618-89.139.23-1.72-35.471-.977-70.303-.296-89.489 18.429 15.953 55.831 49.794 89.435 89.259z"/><path d="m476.565 456.52c.263-5.196 1.935-39.96 1.935-81.561 0-44.91-1.893-81.85-1.912-82.217-.201-3.86-3.302-6.936-7.164-7.104-.224-.01-5.621-.241-15.237-.591.059-9.776.089-19.517.089-29.046 0-21.9-.158-41.043-.484-58.522-.077-4.141-3.502-7.462-7.638-7.359-4.142.077-7.436 3.497-7.359 7.638.324 17.385.481 36.437.481 58.243 0 9.36-.029 18.924-.087 28.526-37.498-1.238-105.98-3.067-183.19-3.067-76.156 0-143.821 1.78-181.637 3.016-.057-9.574-.086-19.121-.086-28.475 0-113.999 4.265-211.347 5.51-237.334 7.388-.315 20.485-.839 37.717-1.39 4.14-.132 7.389-3.596 7.256-7.736s-3.609-7.384-7.736-7.256c-27.53.88-44.581 1.693-44.75 1.702-3.844.185-6.925 3.249-7.129 7.092-.059 1.102-5.869 111.69-5.869 244.923 0 9.523.03 19.244.088 28.99-10.586.381-16.554.637-16.79.647-3.862.168-6.963 3.244-7.164 7.104-.019.368-1.912 37.307-1.912 82.217 0 40.932 1.619 75.245 1.921 81.288-.009.125-.015.25-.018.377-.089 4.078 3.097 7.479 7.172 7.656.265.011 7.778.334 20.955.795.905 22.464 1.607 35.704 1.615 35.848.205 3.843 3.285 6.908 7.129 7.092.523.025 53.113 2.523 124.605 3.546.037.001.073.001.109.001 4.092 0 7.438-3.288 7.497-7.393.06-4.142-3.25-7.547-7.392-7.607-56.369-.807-100.92-2.532-117.31-3.23-.282-5.861-.718-15.34-1.222-27.757 38.5 1.226 104.023 2.88 177.437 2.88 74.412 0 140.717-1.699 178.992-2.93-.505 12.444-.942 21.942-1.224 27.81-21.753.936-92.493 3.664-176.987 3.664-6.691 0-13.3-.017-19.81-.05h-.039c-4.124 0-7.478 3.333-7.499 7.462-.021 4.142 3.32 7.517 7.462 7.538 6.535.033 13.169.05 19.885.05 100.149 0 181.103-3.822 184.5-3.984 3.845-.185 6.927-3.249 7.132-7.093.008-.144.711-13.405 1.617-35.903 12.211-.432 19.145-.729 19.399-.74 4.075-.178 7.232-3.579 7.144-7.656 0-.036-.001-.07-.002-.104zm-14.691-6.949c-24.035.933-107.9 3.885-205.874 3.885-97.973 0-181.838-2.953-205.873-3.885-.553-12.627-1.626-41.413-1.626-74.613 0-33.194 1.042-61.977 1.579-74.612 23.966-.93 107.876-3.887 205.92-3.887s181.955 2.957 205.921 3.887c.538 12.635 1.58 41.418 1.58 74.612-.001 33.2-1.075 61.987-1.627 74.613z"/><path d="m138.021 82.022h122.783c4.142 0 7.5-3.358 7.5-7.5s-3.358-7.5-7.5-7.5h-122.783c-4.142 0-7.5 3.358-7.5 7.5s3.358 7.5 7.5 7.5z"/><path d="m138.021 137.022h92.783c4.142 0 7.5-3.358 7.5-7.5s-3.358-7.5-7.5-7.5h-92.783c-4.142 0-7.5 3.358-7.5 7.5s3.358 7.5 7.5 7.5z"/><path d="m168.003 327.502c-4.142 0-7.5 3.358-7.5 7.5v33.674h-30.783v-33.674c0-4.142-3.358-7.5-7.5-7.5s-7.5 3.358-7.5 7.5v82.348c0 4.142 3.358 7.5 7.5 7.5s7.5-3.358 7.5-7.5v-33.674h30.783v33.674c0 4.142 3.358 7.5 7.5 7.5s7.5-3.358 7.5-7.5v-82.348c0-4.143-3.358-7.5-7.5-7.5z"/><path d="m248.003 327.067h-50c-4.142 0-7.5 3.358-7.5 7.5s3.358 7.5 7.5 7.5h17.5v75.282c0 4.142 3.358 7.5 7.5 7.5s7.5-3.358 7.5-7.5v-75.282h17.5c4.142 0 7.5-3.358 7.5-7.5s-3.358-7.5-7.5-7.5z"/><path d="m334.375 327.258c-3.403-.784-6.898.885-8.428 4.026l-21.101 43.349-21.101-43.349c-1.529-3.141-5.023-4.809-8.428-4.026-3.404.785-5.816 3.815-5.816 7.309v82.782c0 4.142 3.358 7.5 7.5 7.5s7.5-3.358 7.5-7.5v-50.238l13.601 27.941c1.256 2.58 3.874 4.217 6.744 4.217s5.488-1.637 6.744-4.217l13.601-27.941v50.238c0 4.142 3.358 7.5 7.5 7.5s7.5-3.358 7.5-7.5v-82.782c0-3.493-2.411-6.524-5.816-7.309z"/><path d="m403.474 409.849h-32.283v-74.848c0-4.142-3.358-7.5-7.5-7.5s-7.5 3.358-7.5 7.5v82.348c0 4.142 3.358 7.5 7.5 7.5h39.783c4.142 0 7.5-3.358 7.5-7.5s-3.358-7.5-7.5-7.5z"/></g></g></svg>