<svg height="512pt" viewBox="-16 0 511 512" width="512pt" xmlns="http://www.w3.org/2000/svg"><g fill-rule="evenodd"><path d="m8.085938 113.210938c.339843-21.058594 2.75-27.945313 20.046874-46.707032l32.804688-35.652344c16.699219-18.109374 18.203125-23.292968 42.898438-23.292968h285.351562c13.890625 0 25.261719 11.363281 25.261719 25.25v446.382812c0 13.886719-11.371094 25.25-25.261719 25.25h-355.867188c-13.894531 0-25.261718-11.363281-25.261718-25.25v-357.226562c0-3.171875 0-6.09375.027344-8.753906zm0 0" fill="#e6e6e6"/><path d="m389.1875 7.558594c13.890625 0 25.261719 11.363281 25.261719 25.25v446.382812c0 13.886719-11.371094 25.25-25.261719 25.25 0-166.636718 0-341.042968 0-496.882812zm0 0" fill="#bdbdbd"/><path d="m103.863281 87.957031c.027344 13.886719-11.371093 25.253907-25.261719 25.253907h-70.515624c.339843-21.058594 2.75-27.945313 20.046874-46.707032l32.804688-35.652344c16.699219-18.109374 18.203125-23.292968 42.898438-23.292968l.027343 44.859375zm0 0" fill="#bdbdbd"/><path d="m437.246094 259.101562h-251.753906c-19.082032 0-34.703126-15.585937-34.703126-34.6875v-120.699218c0-19.074219 15.621094-34.6875 34.703126-34.6875h251.753906c19.082031 0 34.703125 15.613281 34.703125 34.6875v120.699218c0 19.101563-15.621094 34.6875-34.703125 34.6875zm0 0" fill="#ff7b83"/><path d="m433.703125 224.414062v-120.699218c0-19.074219-15.625-34.6875-34.707031-34.6875h38.25c19.082031 0 34.703125 15.613281 34.703125 34.6875v120.699218c0 19.101563-15.621094 34.6875-34.703125 34.6875h-38.25c19.082031 0 34.707031-15.585937 34.707031-34.6875zm0 0" fill="#e63e49"/></g><path d="m232.304688 195.226562c1.417968 1.414063 3.148437 2.125 5.191406 2.125 2.039062 0 3.769531-.738281 5.1875-2.210937 1.390625-1.476563 2.097656-3.175781 2.097656-5.101563v-51.777343c0-2.097657-.707031-3.855469-2.152344-5.300781-1.449218-1.445313-3.148437-2.152344-5.132812-2.152344-1.929688 0-3.628906.765625-5.074219 2.296875-1.476563 1.527343-2.214844 3.257812-2.214844 5.15625v18.394531h-27.558593v-18.394531c0-2.039063-.710938-3.769531-2.128907-5.242188-1.417969-1.472656-3.117187-2.210937-5.101562-2.210937-1.957031 0-3.6875.765625-5.160157 2.296875-1.476562 1.53125-2.210937 3.257812-2.210937 5.15625v51.777343c0 2.039063.707031 3.769532 2.152344 5.1875 1.445312 1.414063 3.175781 2.125 5.21875 2.125 2.039062 0 3.769531-.710937 5.132812-2.125 1.386719-1.417968 2.097657-3.148437 2.097657-5.1875v-20.148437h27.558593v20.148437c0 2.039063.710938 3.769532 2.097657 5.1875zm0 0"/><path d="m276.59375 195.082031c1.617188 1.445313 3.375 2.15625 5.304688 2.15625 1.925781 0 3.597656-.710937 5.015624-2.15625 1.390626-1.445312 2.101563-3.144531 2.101563-5.128906v-45.117187h9.636719c1.816406 0 3.347656-.621094 4.652344-1.925782 1.273437-1.277344 1.925781-2.835937 1.925781-4.648437 0-1.84375-.652344-3.429688-1.925781-4.761719-1.304688-1.332031-2.835938-1.984375-4.652344-1.984375h-33.851563c-1.816406 0-3.347656.652344-4.59375 1.984375-1.277343 1.332031-1.898437 2.863281-1.898437 4.589844 0 1.929687.652344 3.515625 1.984375 4.761718 1.304687 1.277344 2.777343 1.898438 4.394531 1.898438h9.753906v45.203125c0 1.984375.707032 3.683594 2.152344 5.128906zm0 0"/><path d="m328.933594 190.320312 5.132812-35.761718 10.804688 36.839844c1.246094 3.910156 3.742187 5.839843 7.484375 5.839843 2.210937 0 3.855469-.398437 4.90625-1.25 1.046875-.847656 1.898437-2.378906 2.550781-4.589843l10.832031-36.839844 5.214844 35.761718c.710937 4.621094 3.175781 6.917969 7.371094 6.917969 2.097656 0 3.859375-.710937 5.246093-2.097656 1.363282-1.417969 2.070313-3.230469 2.070313-5.441406l-.199219-1.445313-8.363281-49.707031c-.425781-2.210937-1.558594-4.054687-3.375-5.527344-1.839844-1.472656-3.910156-2.210937-6.265625-2.210937-4.988281 0-8.191406 2.4375-9.640625 7.285156l-10.347656 34.316406-10.179688-34.316406c-1.558593-4.847656-4.789062-7.285156-9.640625-7.285156-2.40625 0-4.535156.738281-6.40625 2.238281-1.871094 1.503906-2.976562 3.34375-3.316406 5.5l-8.394531 49.707031c-.113281.28125-.167969.765625-.167969 1.445313 0 2.152343.679688 3.9375 2.070312 5.386719 1.386719 1.441406 3.144532 2.152343 5.300782 2.152343 4.222656 0 6.632812-2.296875 7.3125-6.917969zm0 0"/><path d="m419.101562 132.960938c-1.503906-1.445313-3.234374-2.152344-5.132812-2.152344-1.984375 0-3.714844.707031-5.132812 2.152344-1.445313 1.445312-2.183594 3.148437-2.183594 5.132812v50.699219c0 2.039062.738281 3.824219 2.210937 5.355469 1.476563 1.53125 3.207031 2.292968 5.191407 2.292968h23.589843c.964844 0 1.84375-.195312 2.609375-.535156.792969-.371094 1.472656-.851562 2.070313-1.445312 1.332031-1.332032 1.984375-2.890626 1.984375-4.675782 0-.964844-.171875-1.84375-.539063-2.609375-.339843-.792969-.824219-1.472656-1.445312-2.097656-1.363281-1.246094-2.949219-1.867187-4.765625-1.867187h-16.214844v-45.117188c-.003906-1.988281-.742188-3.6875-2.242188-5.132812zm0 0"/><path d="m82.484375 375.722656c1.617187-2.070312 2.667969-4.589844 3.234375-7.539062.539062-2.976563.851562-6.746094.933594-11.363282.085937-4.734374.257812-7.933593.539062-9.578124.285156-1.644532.878906-2.75 1.816406-3.34375.9375-.570313 2.550782-.992188 4.933594-1.277344 1.558594-.167969 2.835938-.820313 3.828125-1.925782.992188-1.105468 1.472657-2.636718 1.472657-4.5625 0-4.28125-2.945313-6.40625-8.902344-6.40625-5.699219 0-10.261719 1.503907-13.664063 4.449219-3.433593 2.945313-5.191406 6.886719-5.304687 11.847657-.167969 7.960937-.28125 13.007812-.367188 15.105468-.058594 2.125-.367187 4.050782-.878906 5.808594-.480469 1.785156-1.359375 3.230469-2.609375 4.363281-1.21875 1.132813-3.289063 2.496094-6.207031 4.109375-2.355469 1.332032-3.519532 3.316406-3.519532 5.949219 0 1.84375.398438 3.175781 1.222657 4.027344.792969.847656 2.152343 1.785156 4.082031 2.832031 1.925781 1.078125 3.484375 2.210938 4.675781 3.402344 1.191407 1.21875 2.097657 3.03125 2.695313 5.441406.253906.960938.425781 3.085938.539062 6.402344.113282 3.289062.253906 7.652344.367188 13.09375.058594 3.230468.851562 6.09375 2.410156 8.585937 1.589844 2.46875 3.828125 4.394531 6.722656 5.78125 2.863282 1.359375 6.152344 2.042969 9.839844 2.042969 5.953125 0 8.902344-2.183594 8.902344-6.492188 0-1.867187-.484375-3.398437-1.503906-4.53125-1.019532-1.136718-2.269532-1.816406-3.800782-1.984374-1.871094-.257813-3.203125-.511719-3.96875-.765626-.765625-.285156-1.417968-.851562-1.953125-1.730468-.539062-.875-.910156-2.179688-1.109375-3.851563-.167968-1.703125-.253906-4.308593-.253906-7.851562 0-4.734375-.339844-8.613281-.992188-11.648438-.625-3.003906-1.757812-5.496093-3.375-7.453125-1.613281-1.953125-3.855468-3.710937-6.746093-5.300781 3.03125-1.667969 5.355469-3.570313 6.941406-5.636719zm0 0"/><path d="m351.277344 386.660156c-1.617188 1.957032-2.75 4.449219-3.402344 7.453125-.621094 3.035157-.964844 6.917969-.964844 11.648438 0 3.542969-.082031 6.152343-.28125 7.851562-.171875 1.671875-.539062 2.976563-1.078125 3.855469-.539062.878906-1.21875 1.441406-1.984375 1.726562-.765625.253907-2.070312.511719-3.941406.765626-1.53125.171874-2.777344.851562-3.800781 1.984374-1.019531 1.132813-1.527344 2.664063-1.527344 4.535157 0 4.304687 2.976563 6.488281 8.902344 6.488281 3.683593 0 6.972656-.679688 9.867187-2.039062 2.890625-1.390626 5.128906-3.316407 6.691406-5.78125 1.585938-2.496094 2.382813-5.359376 2.4375-8.589844.113282-5.441406.226563-9.804688.367188-13.089844.085938-3.316406.285156-5.441406.539062-6.40625.597657-2.410156 1.503907-4.222656 2.695313-5.441406 1.191406-1.191406 2.75-2.324219 4.679687-3.402344 1.898438-1.046875 3.289063-1.984375 4.082032-2.832031.792968-.851563 1.191406-2.183594 1.191406-4.023438 0-2.636719-1.164062-4.621093-3.515625-5.953125-2.894531-1.613281-4.964844-2.976562-6.210937-4.109375-1.21875-1.132812-2.097657-2.578125-2.609376-4.363281-.480468-1.757812-.792968-3.683594-.851562-5.808594-.082031-2.097656-.226562-7.144531-.367188-15.105468-.140624-4.960938-1.898437-8.898438-5.300781-11.847657-3.433593-2.945312-7.96875-4.449219-13.695312-4.449219-5.925781 0-8.902344 2.125-8.902344 6.40625 0 1.925782.507813 3.457032 1.472656 4.5625.992188 1.105469 2.296875 1.757813 3.855469 1.925782 2.355469.285156 4 .710937 4.933594 1.277344.9375.59375 1.53125 1.699218 1.816406 3.34375.253906 1.644531.453125 4.847656.539062 9.578124.085938 4.621094.398438 8.390626.9375 11.363282.566407 2.949218 1.613282 5.472656 3.230469 7.539062 1.589844 2.070313 3.914063 3.96875 6.917969 5.640625-2.867188 1.585938-5.105469 3.34375-6.722656 5.296875zm0 0"/><path d="m124.847656 414.453125h65.863282c4.175781 0 7.558593-3.382813 7.558593-7.554687 0-4.175782-3.382812-7.558594-7.558593-7.558594h-65.863282c-4.175781 0-7.558594 3.382812-7.558594 7.558594 0 4.171874 3.382813 7.554687 7.558594 7.554687zm0 0"/><path d="m298.339844 399.339844h-67.535156c-4.175782 0-7.558594 3.382812-7.558594 7.558594 0 4.171874 3.386718 7.554687 7.558594 7.554687h67.539062c4.171875 0 7.554688-3.382813 7.554688-7.554687 0-4.175782-3.382813-7.558594-7.558594-7.558594zm0 0"/><path d="m117.289062 354.976562c0 4.175782 3.382813 7.558594 7.558594 7.558594h173.492188c4.175781 0 7.558594-3.382812 7.558594-7.558594 0-4.171874-3.382813-7.554687-7.558594-7.554687h-173.492188c-4.175781 0-7.558594 3.382813-7.558594 7.554687zm0 0"/><path d="m437.246094 61.46875h-15.238282v-28.660156c0-18.089844-14.722656-32.808594-32.820312-32.808594h-285.351562s0 0-.003907 0c-24.105469 0-29.605469 4.835938-43.355469 20.117188-1.542968 1.710937-3.222656 3.578124-5.101562 5.617187l-32.800781 35.648437c-18.796875 20.398438-21.609375 28.929688-22.007813 51.09375-.023437.238282-.039062.484376-.039062.730469 0 .128907.011718.25.019531.375-.035156 2.597657-.046875 5.375-.046875 8.382813v228.988281c0 4.171875 3.382812 7.554687 7.558594 7.554687 4.171875 0 7.554687-3.382812 7.554687-7.554687v-228.988281c0-.410156 0-.800782 0-1.199219h62.988281c8.757813 0 17.007813-3.433594 23.230469-9.667969 6.199219-6.210937 9.605469-14.4375 9.589844-23.144531l-.027344-72.839844h277.789063c9.761718 0 17.707031 7.9375 17.707031 17.695313v28.660156h-221.398437c-23.300782 0-42.261719 18.949219-42.261719 42.246094v120.699218c0 23.292969 18.960937 42.242188 42.261719 42.242188h60.992187c4.171875 0 7.554687-3.382812 7.554687-7.554688 0-4.175781-3.382812-7.558593-7.554687-7.558593h-60.992187c-14.96875 0-27.144532-12.171875-27.144532-27.128907v-120.699218c0-14.960938 12.175782-27.128906 27.144532-27.128906h251.753906c14.96875 0 27.148437 12.167968 27.148437 27.128906v120.699218c0 14.960938-12.179687 27.132813-27.148437 27.132813h-156.144532c-4.171874 0-7.554687 3.382813-7.554687 7.558594 0 4.171875 3.382813 7.554687 7.554687 7.554687h125.792969v212.53125c0 9.757813-7.945312 17.695313-17.707031 17.695313h-355.867188c-9.761718 0-17.707031-7.9375-17.707031-17.695313v-90.632812c0-4.171875-3.382812-7.554688-7.554687-7.554688s-7.558594 3.382813-7.558594 7.554688v90.632812c0 18.089844 14.722656 32.808594 32.820312 32.808594h355.867188c18.097656 0 32.820312-14.71875 32.820312-32.808594v-212.53125h15.238282c23.304687 0 42.265625-18.949218 42.265625-42.246094v-120.699218c-.003907-23.292969-18.960938-42.246094-42.265625-42.246094zm-346.113282 38.953125c-3.363281 3.371094-7.816406 5.230469-12.53125 5.230469h-62.707031c.847657-13.324219 4.230469-19.304688 17.796875-34.03125l32.800782-35.644532c1.917968-2.082031 3.640624-3.996093 5.21875-5.75 9.949218-11.054687 12.792968-14.214843 24.570312-14.929687l.023438 72.675781c.011718 4.675782-1.824219 9.097656-5.171876 12.449219zm0 0"/></svg>