<svg xmlns="http://www.w3.org/2000/svg" version="1.1" xmlns:xlink="http://www.w3.org/1999/xlink" xmlns:svgjs="http://svgjs.com/svgjs" width="512" height="512" x="0" y="0" viewBox="0 0 256 256" style="enable-background:new 0 0 512 512" xml:space="preserve" class=""><g><g xmlns="http://www.w3.org/2000/svg" id="Layer_44"><g><g><g><path d="m18.65 169.706c-1.978 0-3.582 1.604-3.582 3.582v25.179c0 1.978 1.604 3.582 3.582 3.582h94.792v-32.342h-94.792z" fill="#f5c84c" data-original="#f5c84c"></path></g></g><g><g><path d="m168.886 169.706h-55.443v32.342h55.443c1.978 0 3.582-1.604 3.582-3.582v-25.179c-.001-1.978-1.604-3.581-3.582-3.581z" fill="#dae6f1" data-original="#dae6f1"></path></g></g><g><g><ellipse cx="214.403" cy="185.877" fill="#f5c84c" rx="26.528" ry="26.529" transform="matrix(.998 -.071 .071 .998 -12.637 15.667)" data-original="#f5c84c"></ellipse></g></g><g><g><path d="m168.886 101.797h-150.236c-1.978 0-3.582 1.603-3.582 3.582v25.179c0 1.978 1.604 3.582 3.582 3.582h150.235c1.978 0 3.582-1.603 3.582-3.582v-25.179c0-1.978-1.603-3.582-3.581-3.582z" fill="#b2e26d" data-original="#b2e26d" class=""></path></g></g><g><g><ellipse cx="214.403" cy="117.968" fill="#b2e26d" rx="26.528" ry="26.529" transform="matrix(.995 -.099 .099 .995 -10.581 21.701)" data-original="#b2e26d" class=""></ellipse></g></g><g><g><path d="m168.886 33.889h-150.236c-1.978 0-3.582 1.604-3.582 3.582v25.179c0 1.978 1.604 3.582 3.582 3.582h150.235c1.978 0 3.582-1.604 3.582-3.582v-25.179c0-1.979-1.603-3.582-3.581-3.582z" fill="#b2e26d" data-original="#b2e26d" class=""></path></g></g><g><g><ellipse cx="214.403" cy="50.06" fill="#b2e26d" rx="26.528" ry="26.528" transform="matrix(.383 -.924 .924 .383 86.105 228.985)" data-original="#b2e26d" class=""></ellipse></g></g><g><g><path d="m250.8 151.818c-4.5-.8-8-4.3-8.9-8.7 0-.2-.4-.2-.4 0-.9 4.4-4.4 7.9-8.9 8.7-.2 0-.2.3 0 .4 4.5.8 8 4.3 8.9 8.7 0 .2.4.2.4 0 .9-4.4 4.4-7.9 8.9-8.7.2-.1.2-.4 0-.4z" fill="#f5c84c" data-original="#f5c84c"></path></g></g><g><g><path d="m12.876 83.178c-3.158-.562-5.613-3.017-6.245-6.104 0-.14-.281-.14-.281 0-.631 3.087-3.087 5.543-6.245 6.104-.14 0-.14.21 0 .281 3.158.561 5.613 3.017 6.245 6.104 0 .14.281.14.281 0 .631-3.087 3.087-5.543 6.245-6.104.14-.07.14-.281 0-.281z" fill="#f5c84c" data-original="#f5c84c"></path></g></g><g><g><path d="m70.7 223.068h-2.3v-2.3c0-1.7-1.4-3.2-3.2-3.2s-3.2 1.4-3.2 3.2v2.3h-2.3c-1.7 0-3.2 1.4-3.2 3.2s1.4 3.2 3.2 3.2h2.3v2.3c0 1.7 1.4 3.2 3.2 3.2s3.2-1.4 3.2-3.2v-2.3h2.3c1.7 0 3.2-1.4 3.2-3.2s-1.4-3.2-3.2-3.2z" fill="#70d6f9" data-original="#70d6f9"></path></g></g><g><g><path d="m93.8 212.968c-1.878 0-3.4 1.522-3.4 3.4s1.522 3.4 3.4 3.4 3.4-1.522 3.4-3.4-1.522-3.4-3.4-3.4z" fill="#fc657e" data-original="#fc657e"></path></g></g><g><g><path d="m252.6 125.968c-1.878 0-3.4 1.522-3.4 3.4s1.522 3.4 3.4 3.4 3.4-1.522 3.4-3.4-1.522-3.4-3.4-3.4z" fill="#87d147" data-original="#87d147"></path></g></g><g><g><g><path d="m168.886 167.206h-150.236c-3.354 0-6.082 2.728-6.082 6.082v25.179c0 3.354 2.729 6.082 6.082 6.082h150.235c3.354 0 6.082-2.728 6.082-6.082v-25.179c.001-3.354-2.728-6.082-6.081-6.082zm1.082 31.26c0 .596-.485 1.082-1.082 1.082h-150.236c-.597 0-1.082-.485-1.082-1.082v-25.179c0-.596.485-1.082 1.082-1.082h150.235c.597 0 1.082.485 1.082 1.082v25.179z" fill="#000000" data-original="#000000" class=""></path></g></g></g><g><g><path d="m34.743 169.362c-1.381 0-2.5 1.119-2.5 2.5v28.03c0 1.381 1.119 2.5 2.5 2.5s2.5-1.119 2.5-2.5v-28.03c0-1.381-1.119-2.5-2.5-2.5z" fill="#000000" data-original="#000000" class=""></path></g></g><g><g><path d="m54.418 169.362c-1.381 0-2.5 1.119-2.5 2.5v28.03c0 1.381 1.119 2.5 2.5 2.5s2.5-1.119 2.5-2.5v-28.03c0-1.381-1.119-2.5-2.5-2.5z" fill="#000000" data-original="#000000" class=""></path></g></g><g><g><path d="m74.093 169.362c-1.381 0-2.5 1.119-2.5 2.5v28.03c0 1.381 1.119 2.5 2.5 2.5s2.5-1.119 2.5-2.5v-28.03c0-1.381-1.119-2.5-2.5-2.5z" fill="#000000" data-original="#000000" class=""></path></g></g><g><g><path d="m93.768 169.362c-1.381 0-2.5 1.119-2.5 2.5v28.03c0 1.381 1.119 2.5 2.5 2.5s2.5-1.119 2.5-2.5v-28.03c0-1.381-1.12-2.5-2.5-2.5z" fill="#000000" data-original="#000000" class=""></path></g></g><g><g><path d="m113.442 169.362c-1.381 0-2.5 1.119-2.5 2.5v28.03c0 1.381 1.119 2.5 2.5 2.5s2.5-1.119 2.5-2.5v-28.03c0-1.381-1.119-2.5-2.5-2.5z" fill="#000000" data-original="#000000" class=""></path></g></g><g><g><path d="m133.117 169.362c-1.381 0-2.5 1.119-2.5 2.5v28.03c0 1.381 1.119 2.5 2.5 2.5s2.5-1.119 2.5-2.5v-28.03c0-1.381-1.119-2.5-2.5-2.5z" fill="#000000" data-original="#000000" class=""></path></g></g><g><g><path d="m152.792 169.362c-1.381 0-2.5 1.119-2.5 2.5v28.03c0 1.381 1.119 2.5 2.5 2.5s2.5-1.119 2.5-2.5v-28.03c0-1.381-1.119-2.5-2.5-2.5z" fill="#000000" data-original="#000000" class=""></path></g></g><g><g><g><path d="m214.403 156.848c-16.007 0-29.029 13.022-29.029 29.029s13.022 29.028 29.029 29.028c16.006 0 29.028-13.022 29.028-29.028s-13.022-29.029-29.028-29.029zm0 53.057c-13.25 0-24.029-10.779-24.029-24.028 0-13.25 10.779-24.029 24.029-24.029 13.249 0 24.028 10.779 24.028 24.029.001 13.249-10.779 24.028-24.028 24.028z" fill="#000000" data-original="#000000" class=""></path></g></g></g><g><g><path d="m214.403 169.341c-9.118 0-16.536 7.418-16.536 16.536s7.418 16.535 16.536 16.535c2.82 0 5.604-.723 8.054-2.091 1.205-.673 1.636-2.197.963-3.402-.674-1.206-2.195-1.635-3.402-.963-1.704.953-3.646 1.456-5.614 1.456-6.361 0-11.536-5.175-11.536-11.535 0-6.361 5.175-11.536 11.536-11.536 6.36 0 11.535 5.175 11.535 11.536 0 1.381 1.119 2.5 2.5 2.5s2.5-1.119 2.5-2.5c-.001-9.118-7.418-16.536-16.536-16.536z" fill="#000000" data-original="#000000" class=""></path></g></g><g><g><path d="m234.412 183.916c-.977-.976-2.561-.976-3.535 0l-2.64 2.64-2.641-2.64c-.977-.977-2.559-.977-3.535 0-.977.976-.977 2.559 0 3.535l4.408 4.408c.469.469 1.104.732 1.768.732s1.299-.264 1.768-.732l4.407-4.408c.977-.976.977-2.559 0-3.535z" fill="#000000" data-original="#000000" class=""></path></g></g><g><g><g><path d="m168.886 99.297h-150.236c-3.354 0-6.082 2.728-6.082 6.082v25.179c0 3.354 2.729 6.082 6.082 6.082h150.235c3.354 0 6.082-2.729 6.082-6.082v-25.179c.001-3.354-2.728-6.082-6.081-6.082zm1.082 31.261c0 .597-.485 1.082-1.082 1.082h-150.236c-.597 0-1.082-.485-1.082-1.082v-25.179c0-.596.485-1.082 1.082-1.082h150.235c.597 0 1.082.485 1.082 1.082v25.179z" fill="#000000" data-original="#000000" class=""></path></g></g></g><g><g><path d="m34.743 101.454c-1.381 0-2.5 1.119-2.5 2.5v28.03c0 1.381 1.119 2.5 2.5 2.5s2.5-1.119 2.5-2.5v-28.03c0-1.381-1.119-2.5-2.5-2.5z" fill="#000000" data-original="#000000" class=""></path></g></g><g><g><path d="m54.418 101.454c-1.381 0-2.5 1.119-2.5 2.5v28.03c0 1.381 1.119 2.5 2.5 2.5s2.5-1.119 2.5-2.5v-28.03c0-1.381-1.119-2.5-2.5-2.5z" fill="#000000" data-original="#000000" class=""></path></g></g><g><g><path d="m74.093 101.454c-1.381 0-2.5 1.119-2.5 2.5v28.03c0 1.381 1.119 2.5 2.5 2.5s2.5-1.119 2.5-2.5v-28.03c0-1.381-1.119-2.5-2.5-2.5z" fill="#000000" data-original="#000000" class=""></path></g></g><g><g><path d="m93.768 101.454c-1.381 0-2.5 1.119-2.5 2.5v28.03c0 1.381 1.119 2.5 2.5 2.5s2.5-1.119 2.5-2.5v-28.03c0-1.381-1.12-2.5-2.5-2.5z" fill="#000000" data-original="#000000" class=""></path></g></g><g><g><path d="m113.442 101.454c-1.381 0-2.5 1.119-2.5 2.5v28.03c0 1.381 1.119 2.5 2.5 2.5s2.5-1.119 2.5-2.5v-28.03c0-1.381-1.119-2.5-2.5-2.5z" fill="#000000" data-original="#000000" class=""></path></g></g><g><g><path d="m133.117 101.454c-1.381 0-2.5 1.119-2.5 2.5v28.03c0 1.381 1.119 2.5 2.5 2.5s2.5-1.119 2.5-2.5v-28.03c0-1.381-1.119-2.5-2.5-2.5z" fill="#000000" data-original="#000000" class=""></path></g></g><g><g><path d="m152.792 101.454c-1.381 0-2.5 1.119-2.5 2.5v28.03c0 1.381 1.119 2.5 2.5 2.5s2.5-1.119 2.5-2.5v-28.03c0-1.381-1.119-2.5-2.5-2.5z" fill="#000000" data-original="#000000" class=""></path></g></g><g><g><g><path d="m214.403 88.94c-16.007 0-29.029 13.022-29.029 29.028s13.022 29.028 29.029 29.028c16.006 0 29.028-13.022 29.028-29.028s-13.022-29.028-29.028-29.028zm0 53.057c-13.25 0-24.029-10.779-24.029-24.028s10.779-24.028 24.029-24.028c13.249 0 24.028 10.779 24.028 24.028s-10.779 24.028-24.028 24.028z" fill="#000000" data-original="#000000" class=""></path></g></g></g><g><g><path d="m225.449 112.045c-.977-.977-2.559-.977-3.535 0l-9.563 9.563-5.205-5.205c-.977-.977-2.559-.976-3.535 0-.977.977-.977 2.56 0 3.536l6.973 6.973c.469.469 1.104.732 1.768.732s1.299-.263 1.768-.732l11.331-11.331c.975-.977.975-2.56-.002-3.536z" fill="#000000" data-original="#000000" class=""></path></g></g><g><g><g><path d="m168.886 31.389h-150.236c-3.354 0-6.082 2.728-6.082 6.082v25.179c0 3.354 2.729 6.082 6.082 6.082h150.235c3.354 0 6.082-2.728 6.082-6.082v-25.179c.001-3.354-2.728-6.082-6.081-6.082zm1.082 31.26c0 .596-.485 1.082-1.082 1.082h-150.236c-.597 0-1.082-.485-1.082-1.082v-25.178c0-.596.485-1.082 1.082-1.082h150.235c.597 0 1.082.485 1.082 1.082v25.178z" fill="#000000" data-original="#000000" class=""></path></g></g></g><g><g><path d="m34.743 33.545c-1.381 0-2.5 1.119-2.5 2.5v28.03c0 1.381 1.119 2.5 2.5 2.5s2.5-1.119 2.5-2.5v-28.03c0-1.381-1.119-2.5-2.5-2.5z" fill="#000000" data-original="#000000" class=""></path></g></g><g><g><path d="m54.418 33.545c-1.381 0-2.5 1.119-2.5 2.5v28.03c0 1.381 1.119 2.5 2.5 2.5s2.5-1.119 2.5-2.5v-28.03c0-1.381-1.119-2.5-2.5-2.5z" fill="#000000" data-original="#000000" class=""></path></g></g><g><g><path d="m74.093 33.545c-1.381 0-2.5 1.119-2.5 2.5v28.03c0 1.381 1.119 2.5 2.5 2.5s2.5-1.119 2.5-2.5v-28.03c0-1.381-1.119-2.5-2.5-2.5z" fill="#000000" data-original="#000000" class=""></path></g></g><g><g><path d="m93.768 33.545c-1.381 0-2.5 1.119-2.5 2.5v28.03c0 1.381 1.119 2.5 2.5 2.5s2.5-1.119 2.5-2.5v-28.03c0-1.381-1.12-2.5-2.5-2.5z" fill="#000000" data-original="#000000" class=""></path></g></g><g><g><path d="m113.442 33.545c-1.381 0-2.5 1.119-2.5 2.5v28.03c0 1.381 1.119 2.5 2.5 2.5s2.5-1.119 2.5-2.5v-28.03c0-1.381-1.119-2.5-2.5-2.5z" fill="#000000" data-original="#000000" class=""></path></g></g><g><g><path d="m133.117 33.545c-1.381 0-2.5 1.119-2.5 2.5v28.03c0 1.381 1.119 2.5 2.5 2.5s2.5-1.119 2.5-2.5v-28.03c0-1.381-1.119-2.5-2.5-2.5z" fill="#000000" data-original="#000000" class=""></path></g></g><g><g><path d="m152.792 33.545c-1.381 0-2.5 1.119-2.5 2.5v28.03c0 1.381 1.119 2.5 2.5 2.5s2.5-1.119 2.5-2.5v-28.03c0-1.381-1.119-2.5-2.5-2.5z" fill="#000000" data-original="#000000" class=""></path></g></g><g><g><g><path d="m214.403 21.032c-16.007 0-29.029 13.022-29.029 29.028s13.022 29.028 29.029 29.028c16.006 0 29.028-13.022 29.028-29.028s-13.022-29.028-29.028-29.028zm0 53.056c-13.25 0-24.029-10.779-24.029-24.028s10.779-24.028 24.029-24.028c13.249 0 24.028 10.779 24.028 24.028s-10.779 24.028-24.028 24.028z" fill="#000000" data-original="#000000" class=""></path></g></g></g><g><g><path d="m225.449 44.137c-.977-.977-2.559-.977-3.535 0l-9.563 9.563-5.205-5.205c-.977-.977-2.559-.977-3.535 0-.977.976-.977 2.559 0 3.535l6.973 6.973c.488.488 1.128.732 1.768.732s1.279-.244 1.768-.732l11.331-11.331c.975-.976.975-2.559-.002-3.535z" fill="#000000" data-original="#000000" class=""></path></g></g></g></g></g></svg>