<svg id="Layer_3" height="512" viewBox="0 0 64 64" width="512" xmlns="http://www.w3.org/2000/svg" data-name="Layer 3"><path d="m20 18h42v40h-42z" fill="#e2e7f6"/><path d="m59 51.781v-33.781h-39v35.781h37a2 2 0 0 0 2-2z" fill="#eff2f9"/><circle cx="39" cy="39" fill="#f9d266" r="13"/><path d="m49 38a12.988 12.988 0 0 0 -7.463-11.748 12.991 12.991 0 0 0 -8.074 24.5 12.991 12.991 0 0 0 15.537-12.752z" fill="#fce797"/><path d="m46.721 49.46a13 13 0 1 0 -11.442-22.92 13 13 0 0 1 11.442 22.92z" fill="#f6b940"/><path d="m20 18v-16h32l10 10v6z" fill="#f6b940"/><path d="m57.831 13.007v-5.176l-5.831-5.831h-32v13.007h35.831a2 2 0 0 0 2-2z" fill="#f9d266"/><path d="m32.72 58-20.261 4-10.459-52.977 18-3.417v52.394z" fill="#f4a93c"/><path d="m52 2v10h10" fill="#f4a93c"/><g fill="#f2f2f2"><path d="m36 15h-5a1 1 0 0 1 -1-1v-8a1 1 0 0 1 1-1h5a1 1 0 0 1 1 1v3h-2v-2h-3v6h3v-2h2v3a1 1 0 0 1 -1 1z"/><path d="m27 5h2v10h-2z"/><path d="m43 15h-3a2 2 0 0 1 -2-2v-6a2 2 0 0 1 2-2h3a2 2 0 0 1 2 2v6a2 2 0 0 1 -2 2zm-3-8v6h3v-6z"/></g><path d="m32 40h14v4h-14z" fill="#f6b940"/><path d="m32 40v-7l4 4 3-5 3 5 4-4v7" fill="#f9d266"/><path d="m62.707 11.293-10-10a1 1 0 0 0 -.707-.293h-32a1 1 0 0 0 -1 1v2.778l-17.187 3.262a1 1 0 0 0 -.794 1.176l10.46 52.978a1 1 0 0 0 .98.806.989.989 0 0 0 .194-.019l20.164-3.981h29.183a1 1 0 0 0 1-1v-46a1 1 0 0 0 -.293-.707zm-9.707-6.879 6.586 6.586h-6.586zm-2-1.414v9a1 1 0 0 0 1 1h9v4h-40v-14zm-37.753 57.825-10.071-51.008 15.824-3.003v51.186a1 1 0 0 0 1 1h2.492zm7.753-3.825v-38h40v38z"/><path d="m31 15h5a1 1 0 0 0 1-1v-3h-2v2h-3v-6h3v2h2v-3a1 1 0 0 0 -1-1h-5a1 1 0 0 0 -1 1v8a1 1 0 0 0 1 1z"/><path d="m27 5h2v10h-2z"/><path d="m40 15h3a2 2 0 0 0 2-2v-6a2 2 0 0 0 -2-2h-3a2 2 0 0 0 -2 2v6a2 2 0 0 0 2 2zm0-8h3v6h-3z"/><path d="m43 23a13.884 13.884 0 0 0 -8.163 2.632 14 14 0 1 0 12.292 24.744 14 14 0 0 0 -4.129-27.376zm-16 16a12 12 0 1 1 12 12 12.013 12.013 0 0 1 -12-12zm24.332 6.617a13.976 13.976 0 0 0 -10.309-20.454 12.237 12.237 0 0 1 1.977-.163 11.987 11.987 0 0 1 8.332 20.617z"/><path d="m46.383 32.076a1 1 0 0 0 -1.09.217l-3.093 3.094-2.341-3.9a1.039 1.039 0 0 0 -1.714 0l-2.341 3.9-3.095-3.094a1 1 0 0 0 -1.709.707v11a1 1 0 0 0 1 1h14a1 1 0 0 0 1-1v-11a1 1 0 0 0 -.617-.924zm-11.09 5.631a1 1 0 0 0 1.564-.192l2.143-3.571 2.143 3.571a1 1 0 0 0 .735.478.986.986 0 0 0 .829-.286l2.293-2.293v3.586h-12v-3.586zm9.707 5.293h-12v-2h12z"/></svg>