<svg height="512pt" viewBox="0 0 512 512" width="512pt" xmlns="http://www.w3.org/2000/svg"><g fill-rule="evenodd"><path d="m30 30h452v452h-452zm0 0" fill="#fbf7f6"/><path d="m10 10h40v40h-40zm0 0" fill="#8481e2"/><path d="m462 10h40v40h-40zm0 0" fill="#8481e2"/><path d="m462 462h40v40h-40zm0 0" fill="#8481e2"/><path d="m10 462h40v40h-40zm0 0" fill="#8481e2"/><path d="m80 400h352v-111.417969l-51.371094-51.367187-59.398437 59.398437-121.214844-121.214843-120.015625 120.015624zm0 0" fill="#45e08c"/><path d="m200.015625 175.398438 121.214844 121.214843 59.398437-59.398437 51.371094 51.367187v-176.582031h-352v183.414062zm95.332031 11.414062c0-14.292969 11.589844-25.878906 25.882813-25.878906s25.882812 11.585937 25.882812 25.878906c0 14.296875-11.589843 25.882812-25.882812 25.882812s-25.882813-11.585937-25.882813-25.882812zm0 0" fill="#99ebfb"/><path d="m347.113281 186.8125c0 14.296875-11.589843 25.882812-25.882812 25.882812s-25.882813-11.585937-25.882813-25.882812c0-14.292969 11.589844-25.878906 25.882813-25.878906s25.882812 11.585937 25.882812 25.878906zm0 0" fill="#ffc234"/></g><path d="m50 0h-40c-5.523438 0-10 4.476562-10 10v40c0 5.523438 4.476562 10 10 10h40c5.523438 0 10-4.476562 10-10v-40c0-5.523438-4.476562-10-10-10zm-10 40h-20v-20h20zm0 0"/><path d="m502 0h-40c-5.523438 0-10 4.476562-10 10v40c0 5.523438 4.476562 10 10 10h40c5.519531 0 10-4.476562 10-10v-40c0-5.523438-4.476562-10-10-10zm-10 40h-20v-20h20zm0 0"/><path d="m50 452h-40c-5.523438 0-10 4.480469-10 10v40c0 5.523438 4.476562 10 10 10h40c5.523438 0 10-4.476562 10-10v-40c0-5.523438-4.476562-10-10-10zm-10 40h-20v-20h20zm0 0"/><path d="m502 452h-40c-5.523438 0-10 4.480469-10 10v40c0 5.523438 4.476562 10 10 10h40c5.519531 0 10-4.476562 10-10v-40c0-5.523438-4.476562-10-10-10zm-10 40h-20v-20h20zm0 0"/><path d="m96 40h20c5.523438 0 10-4.476562 10-10s-4.476562-10-10-10h-20c-5.523438 0-10 4.476562-10 10s4.480469 10 10 10zm0 0"/><path d="m156 40h20c5.523438 0 10-4.476562 10-10s-4.476562-10-10-10h-20c-5.523438 0-10 4.476562-10 10s4.476562 10 10 10zm0 0"/><path d="m216 40h20c5.523438 0 10-4.476562 10-10s-4.476562-10-10-10h-20c-5.523438 0-10 4.476562-10 10s4.476562 10 10 10zm0 0"/><path d="m276 40h20c5.523438 0 10-4.476562 10-10s-4.476562-10-10-10h-20c-5.523438 0-10 4.476562-10 10s4.476562 10 10 10zm0 0"/><path d="m336 40h20c5.519531 0 10-4.476562 10-10s-4.480469-10-10-10h-20c-5.523438 0-10 4.476562-10 10s4.476562 10 10 10zm0 0"/><path d="m396 40h20c5.519531 0 10-4.476562 10-10s-4.480469-10-10-10h-20c-5.523438 0-10 4.476562-10 10s4.476562 10 10 10zm0 0"/><path d="m20 416c0 5.523438 4.476562 10 10 10s10-4.476562 10-10v-20c0-5.523438-4.476562-10-10-10s-10 4.476562-10 10zm0 0"/><path d="m20 356c0 5.523438 4.476562 10 10 10s10-4.476562 10-10v-20c0-5.523438-4.476562-10-10-10s-10 4.476562-10 10zm0 0"/><path d="m20 296c0 5.523438 4.476562 10 10 10s10-4.476562 10-10v-20c0-5.523438-4.476562-10-10-10s-10 4.476562-10 10zm0 0"/><path d="m20 236c0 5.523438 4.476562 10 10 10s10-4.476562 10-10v-20c0-5.519531-4.476562-10-10-10s-10 4.480469-10 10zm0 0"/><path d="m20 176c0 5.523438 4.476562 10 10 10s10-4.476562 10-10v-20c0-5.519531-4.476562-10-10-10s-10 4.480469-10 10zm0 0"/><path d="m30 126c5.523438 0 10-4.476562 10-10v-20c0-5.519531-4.476562-10-10-10s-10 4.480469-10 10v20c0 5.523438 4.476562 10 10 10zm0 0"/><path d="m416 472h-20c-5.523438 0-10 4.480469-10 10 0 5.523438 4.476562 10 10 10h20c5.519531 0 10-4.476562 10-10 0-5.519531-4.480469-10-10-10zm0 0"/><path d="m356 472h-20c-5.523438 0-10 4.480469-10 10 0 5.523438 4.476562 10 10 10h20c5.519531 0 10-4.476562 10-10 0-5.519531-4.476562-10-10-10zm0 0"/><path d="m296 472h-20c-5.523438 0-10 4.480469-10 10 0 5.523438 4.476562 10 10 10h20c5.523438 0 10-4.476562 10-10 0-5.519531-4.476562-10-10-10zm0 0"/><path d="m236 472h-20c-5.523438 0-10 4.480469-10 10 0 5.523438 4.476562 10 10 10h20c5.523438 0 10-4.476562 10-10 0-5.519531-4.476562-10-10-10zm0 0"/><path d="m176 472h-20c-5.523438 0-10 4.480469-10 10 0 5.523438 4.476562 10 10 10h20c5.523438 0 10-4.476562 10-10 0-5.519531-4.476562-10-10-10zm0 0"/><path d="m116 472h-20c-5.523438 0-10 4.480469-10 10 0 5.523438 4.476562 10 10 10h20c5.523438 0 10-4.476562 10-10 0-5.519531-4.476562-10-10-10zm0 0"/><path d="m482 126c5.523438 0 10-4.476562 10-10v-20c0-5.519531-4.476562-10-10-10s-10 4.480469-10 10v20c0 5.523438 4.476562 10 10 10zm0 0"/><path d="m472 176c0 5.523438 4.476562 10 10 10s10-4.476562 10-10v-20c0-5.519531-4.476562-10-10-10s-10 4.480469-10 10zm0 0"/><path d="m472 236c0 5.523438 4.476562 10 10 10s10-4.476562 10-10v-20c0-5.519531-4.476562-10-10-10s-10 4.480469-10 10zm0 0"/><path d="m472 296c0 5.523438 4.476562 10 10 10s10-4.476562 10-10v-20c0-5.523438-4.476562-10-10-10s-10 4.476562-10 10zm0 0"/><path d="m472 356c0 5.523438 4.476562 10 10 10s10-4.476562 10-10v-20c0-5.523438-4.476562-10-10-10s-10 4.476562-10 10zm0 0"/><path d="m472 416c0 5.523438 4.476562 10 10 10s10-4.476562 10-10v-20c0-5.523438-4.476562-10-10-10s-10 4.476562-10 10zm0 0"/><path d="m442 112c0-5.519531-4.480469-10-10-10h-242c-5.523438 0-10 4.480469-10 10 0 5.523438 4.476562 10 10 10h232v142.441406l-34.300781-34.296875c-3.90625-3.90625-10.234375-3.90625-14.140625 0l-52.328125 52.328125-114.144531-114.144531c-1.875-1.875-4.417969-2.929687-7.070313-2.929687s-5.195313 1.054687-7.070313 2.929687l-102.945312 102.941406v-149.269531h10c5.523438 0 10-4.476562 10-10 0-5.519531-4.476562-10-10-10h-20c-5.523438 0-10 4.480469-10 10v288c0 5.523438 4.476562 10 10 10h242c5.519531 0 10-4.476562 10-10s-4.480469-10-10-10h-232v-90.441406l110.015625-110.015625 114.144531 114.140625c1.875 1.875 4.417969 2.929687 7.070313 2.929687 2.652343 0 5.195312-1.054687 7.070312-2.929687l52.328125-52.328125 41.371094 41.371093v97.273438h-10c-5.523438 0-10 4.476562-10 10s4.476562 10 10 10h20c5.519531 0 10-4.476562 10-10zm0 0"/><path d="m357.113281 186.8125c0-19.785156-16.097656-35.882812-35.882812-35.882812-19.785157 0-35.882813 16.097656-35.882813 35.882812s16.097656 35.882812 35.882813 35.882812c19.785156 0 35.882812-16.097656 35.882812-35.882812zm-51.765625 0c0-8.757812 7.125-15.882812 15.882813-15.882812 8.757812 0 15.882812 7.125 15.882812 15.882812s-7.125 15.882812-15.882812 15.882812c-8.757813 0-15.882813-7.125-15.882813-15.882812zm0 0"/><path d="m145.003906 122c5.523438 0 10-4.476562 10-10 0-5.519531-4.476562-10-10-10h-.007812c-5.523438 0-9.996094 4.480469-9.996094 10 0 5.523438 4.480469 10 10.003906 10zm0 0"/><path d="m367 390h-.003906c-5.523438 0-9.996094 4.476562-9.996094 10s4.480469 10 10 10c5.523438 0 10-4.476562 10-10s-4.476562-10-10-10zm0 0"/></svg>