<?xml version="1.0" encoding="UTF-8"?>
<svg xmlns="http://www.w3.org/2000/svg" width="512" height="512" viewBox="0 0 128 128"><g><rect x="37" y="37" width="54" height="54" fill="#e6f2ff"/><polygon points="91 77.555 75.701 63.744 64 74.308 52.299 63.744 37 77.555 37 91 91 91 91 77.555" fill="#c3ea21"/><circle cx="64" cy="52.786" r="6.393" fill="#ffd92e"/><g><path d="M64,44.643a8.143,8.143,0,1,0,8.143,8.143A8.152,8.152,0,0,0,64,44.643Zm0,12.786a4.643,4.643,0,1,1,4.643-4.643A4.648,4.648,0,0,1,64,57.429Z"/><path d="M7,21.287a1.751,1.751,0,0,0,1.75-1.75V11.225L26.1,28.579A1.75,1.75,0,0,0,28.579,26.1L11.225,8.75h8.312a1.75,1.75,0,0,0,0-3.5H7A1.751,1.751,0,0,0,5.25,7V19.537A1.751,1.751,0,0,0,7,21.287Z"/><path d="M121,5.25H108.463a1.75,1.75,0,0,0,0,3.5h8.312L99.421,26.1a1.75,1.75,0,0,0,2.475,2.475L119.25,11.225v8.312a1.75,1.75,0,1,0,3.5,0V7A1.751,1.751,0,0,0,121,5.25Z"/><path d="M121,106.713a1.751,1.751,0,0,0-1.75,1.75v8.312L101.9,99.421a1.75,1.75,0,0,0-2.475,2.475l17.354,17.354h-8.312a1.75,1.75,0,0,0,0,3.5H121a1.751,1.751,0,0,0,1.75-1.75V108.463A1.751,1.751,0,0,0,121,106.713Z"/><path d="M19.537,119.25H11.225L28.579,101.9A1.75,1.75,0,1,0,26.1,99.421L8.75,116.775v-8.312a1.75,1.75,0,0,0-3.5,0V121A1.751,1.751,0,0,0,7,122.75H19.537a1.75,1.75,0,1,0,0-3.5Z"/><path d="M55.254,15.018h4.189a1.75,1.75,0,0,0,0-3.5H55.254a1.75,1.75,0,1,0,0,3.5Z"/><path d="M41.952,15.018h4.189a1.75,1.75,0,0,0,0-3.5H41.952a1.75,1.75,0,0,0,0,3.5Z"/><path d="M32.839,11.518h-4.19a1.75,1.75,0,0,0,0,3.5h4.19a1.75,1.75,0,0,0,0-3.5Z"/><path d="M95.161,15.018h4.19a1.75,1.75,0,0,0,0-3.5h-4.19a1.75,1.75,0,0,0,0,3.5Z"/><path d="M81.859,15.018h4.189a1.75,1.75,0,0,0,0-3.5H81.859a1.75,1.75,0,0,0,0,3.5Z"/><path d="M68.557,15.018h4.189a1.75,1.75,0,0,0,0-3.5H68.557a1.75,1.75,0,0,0,0,3.5Z"/><path d="M59.443,112.982H55.254a1.75,1.75,0,1,0,0,3.5h4.189a1.75,1.75,0,1,0,0-3.5Z"/><path d="M46.141,112.982H41.952a1.75,1.75,0,0,0,0,3.5h4.189a1.75,1.75,0,0,0,0-3.5Z"/><path d="M32.839,112.982h-4.19a1.75,1.75,0,0,0,0,3.5h4.19a1.75,1.75,0,0,0,0-3.5Z"/><path d="M99.351,112.982h-4.19a1.75,1.75,0,0,0,0,3.5h4.19a1.75,1.75,0,0,0,0-3.5Z"/><path d="M86.048,112.982H81.859a1.75,1.75,0,0,0,0,3.5h4.189a1.75,1.75,0,0,0,0-3.5Z"/><path d="M72.746,112.982H68.557a1.75,1.75,0,1,0,0,3.5h4.189a1.75,1.75,0,1,0,0-3.5Z"/><path d="M112.982,59.443a1.75,1.75,0,1,0,3.5,0V55.254a1.75,1.75,0,1,0-3.5,0Z"/><path d="M112.982,46.141a1.75,1.75,0,0,0,3.5,0V41.952a1.75,1.75,0,0,0-3.5,0Z"/><path d="M114.732,34.589a1.751,1.751,0,0,0,1.75-1.75v-4.19a1.75,1.75,0,0,0-3.5,0v4.19A1.751,1.751,0,0,0,114.732,34.589Z"/><path d="M112.982,99.351a1.75,1.75,0,0,0,3.5,0v-4.19a1.75,1.75,0,0,0-3.5,0Z"/><path d="M112.982,86.048a1.75,1.75,0,0,0,3.5,0V81.859a1.75,1.75,0,0,0-3.5,0Z"/><path d="M112.982,72.746a1.75,1.75,0,1,0,3.5,0V68.557a1.75,1.75,0,1,0-3.5,0Z"/><path d="M15.018,55.254a1.75,1.75,0,1,0-3.5,0v4.189a1.75,1.75,0,0,0,3.5,0Z"/><path d="M15.018,41.952a1.75,1.75,0,0,0-3.5,0v4.189a1.75,1.75,0,0,0,3.5,0Z"/><path d="M15.018,28.649a1.75,1.75,0,0,0-3.5,0v4.19a1.75,1.75,0,0,0,3.5,0Z"/><path d="M13.268,93.411a1.751,1.751,0,0,0-1.75,1.75v4.19a1.75,1.75,0,0,0,3.5,0v-4.19A1.751,1.751,0,0,0,13.268,93.411Z"/><path d="M15.018,81.859a1.75,1.75,0,0,0-3.5,0v4.189a1.75,1.75,0,0,0,3.5,0Z"/><path d="M15.018,68.557a1.75,1.75,0,0,0-3.5,0v4.189a1.75,1.75,0,0,0,3.5,0Z"/><path d="M59.178,92.75a1.75,1.75,0,0,0,0-3.5h-4.5a1.75,1.75,0,0,0,0,3.5Z"/><path d="M91,35.25H81.093a1.75,1.75,0,0,0,0,3.5H89.25V73.618L76.874,62.445a1.749,1.749,0,0,0-2.346,0L64,71.95,53.472,62.445a1.749,1.749,0,0,0-2.346,0L38.75,73.618V38.75H71.73a1.75,1.75,0,0,0,0-3.5H37A1.751,1.751,0,0,0,35.25,37V91A1.751,1.751,0,0,0,37,92.75h8.441a1.75,1.75,0,0,0,0-3.5H38.75V78.333L52.3,66.1l10.528,9.5a1.749,1.749,0,0,0,2.346,0L75.7,66.1,89.25,78.333V89.25H68.834a1.75,1.75,0,0,0,0,3.5H91A1.751,1.751,0,0,0,92.75,91V37A1.751,1.751,0,0,0,91,35.25Z"/></g></g></svg>
