<svg id="Layer_1" enable-background="new 0 0 512.042 512.042" height="512" viewBox="0 0 512.042 512.042" width="512" xmlns="http://www.w3.org/2000/svg"><g><g clip-rule="evenodd" fill-rule="evenodd"><path d="m233.071 66.02h176.409l-16.31-28.249c-15.286-26.476-49.455-35.632-75.93-20.346z" fill="#e7e9ef"/><path d="m409.48 66.02h-176.409-163.051c-33 0-60 27-60 60v260.002c0 33 27 60 60 60h32.542 176.409 163.051c33 0 60-27 60-60v-260.002c0-33-27-60-60-60zm-339.46 45h372.002c8.25 0 15 6.75 15 15v209.879 50.123c0 8.25-6.75 15-15 15h-167.629-204.373c-8.25 0-15-6.75-15-15v-68.396-191.606c0-8.25 6.75-15 15-15z" fill="#fff"/><path d="m442.022 111.02h-372.002c-8.25 0-15 6.75-15 15v191.606l54.104-77.913 41.202-59.333c15.44-22.209 48.208-21.426 62.863.69l40.368 58.133 66.603 95.913 36.967-53.235c15.44-22.209 48.208-21.427 62.863.69l37.032 53.329v-209.88c0-8.25-6.75-15-15-15zm-142.801 81.159c0-16.568 13.432-30 30-30s30 13.432 30 30-13.432 30-30 30-30-13.432-30-30z" fill="#ccf5fc"/><path d="m253.557 239.202-40.368-58.133c-14.654-22.116-47.423-22.898-62.863-.69l-41.202 59.333c11.168 5.14 15.148 18.252 30.949 18.252 19.651 0 21.016-20.286 40.667-20.286s21.016 20.286 40.667 20.286c16.354.001 20.045-14.047 32.15-18.762z" fill="#fff"/><path d="m221.407 257.965c-19.651 0-21.016-20.286-40.667-20.286s-21.016 20.286-40.667 20.286c-15.8 0-19.781-13.112-30.949-18.252l-54.104 77.913v68.396c0 8.25 6.75 15 15 15h204.373l45.767-65.907-66.603-95.913c-12.105 4.715-15.796 18.763-32.15 18.763z" fill="#cbe558"/><path d="m320.16 335.115-45.767 65.907h167.629c8.25 0 15-6.75 15-15v-50.123l-37.032-53.329c-14.654-22.116-47.423-22.899-62.863-.69z" fill="#5cd0b3"/><circle cx="329.221" cy="192.179" fill="#ffea60" r="30"/><path d="m278.971 446.022h-176.409l16.31 28.249c15.286 26.476 49.454 35.632 75.931 20.346z" fill="#e7e9ef"/></g><g><path d="m442.022 56.02h-26.768l-13.422-23.249c-8.729-15.119-22.878-25.948-39.841-30.493-16.964-4.545-34.632-2.241-49.75 6.487l-81.848 47.255s0 0-.001 0h-160.372c-38.599 0-70 31.402-70 70v260.002c0 38.598 31.401 70 70 70h26.769l13.422 23.249c8.729 15.118 22.878 25.948 39.841 30.493 5.688 1.524 11.455 2.278 17.18 2.278 11.346 0 22.521-2.963 32.57-8.765l81.848-47.254h.001 160.371c38.599 0 70-31.402 70-70v-260.003c0-38.598-31.402-70-70-70zm-119.781-29.934c10.492-6.058 22.771-7.65 34.573-4.489 11.804 3.163 21.64 10.683 27.697 21.175l7.649 13.249h-121.768zm-132.439 459.87c-10.49 6.057-22.767 7.652-34.573 4.489-11.804-3.163-21.64-10.683-27.697-21.174l-7.649-13.249h121.768zm302.22-99.934c0 27.57-22.43 50-50 50h-372.002c-27.57 0-50-22.43-50-50v-260.002c0-27.57 22.43-50 50-50h372.002c27.57 0 50 22.43 50 50z"/><path d="m442.022 101.02h-372.002c-13.785 0-25 11.215-25 25v260.001c0 13.785 11.215 25 25 25h65.717c5.522 0 10-4.477 10-10s-4.478-10-10-10h-65.717c-2.71 0-5-2.29-5-5v-65.264l46.499-66.961c.418.398.84.803 1.274 1.223 5.662 5.463 13.415 12.946 27.279 12.946s21.618-7.484 27.279-12.948c5.134-4.956 7.848-7.337 13.388-7.337 5.541 0 8.255 2.382 13.39 7.338 5.66 5.464 13.413 12.948 27.277 12.948s21.618-7.483 27.279-12.947c.762-.735 1.495-1.441 2.216-2.107l57.084 82.205-38.822 55.906h-43.426c-5.522 0-10 4.477-10 10s4.478 10 10 10h216.285c13.785 0 25-11.215 25-25v-260.003c0-13.785-11.215-25-25-25zm-207.224 139.607c-5.136 4.956-7.85 7.338-13.392 7.338-5.54 0-8.254-2.382-13.388-7.337-5.661-5.464-13.415-12.948-27.279-12.948s-21.617 7.483-27.277 12.948c-5.135 4.956-7.849 7.338-13.39 7.338s-8.256-2.382-13.391-7.338c-1.148-1.108-2.355-2.265-3.647-3.414l35.502-51.125c5.307-7.633 13.642-11.99 22.909-11.99.11 0 .222 0 .331.002 9.335.104 17.962 4.774 23.076 12.493.04.061.081.121.122.18l34.437 49.592c-1.664 1.417-3.175 2.874-4.613 4.261zm-13.338-65.178c-8.787-13.192-23.529-21.17-39.46-21.348-.181-.002-.358-.003-.539-.003-15.693 0-30.371 7.664-39.35 20.578l-77.091 111.017v-159.673c0-2.71 2.29-5 5-5h372.002c2.71 0 5 2.29 5 5v177.946l-18.761-27.017c-8.787-13.192-23.529-21.17-39.461-21.347-15.897-.226-30.806 7.512-39.887 20.575l-28.754 41.407zm220.562 215.573h-148.51l71.826-103.434c5.37-7.724 13.862-12.073 23.239-11.988 9.335.104 17.962 4.774 23.076 12.493.04.061.081.121.122.18l35.246 50.757v46.991c.001 2.711-2.289 5.001-4.999 5.001z"/><path d="m369.221 192.178c0-22.056-17.944-40-40-40s-40 17.944-40 40 17.944 40 40 40 40-17.943 40-40zm-40 20c-11.028 0-20-8.972-20-20s8.972-20 20-20 20 8.972 20 20-8.972 20-20 20z"/><path d="m180.74 391.022h-.007c-5.522 0-9.996 4.477-9.996 10s4.48 10 10.003 10 10-4.477 10-10-4.478-10-10-10z"/></g></g></svg>