<svg height="512pt" viewBox="0 0 512.001 512" width="512pt" xmlns="http://www.w3.org/2000/svg"><g fill-rule="evenodd"><path d="m58.484375 51.8125v-37.582031c0-3.679688-2.996094-6.671875-6.671875-6.671875h-37.582031c-3.679688 0-6.671875 2.992187-6.671875 6.671875v37.582031c0 3.679688 2.992187 6.671875 6.671875 6.671875h37.582031c3.675781 0 6.671875-2.992187 6.671875-6.671875zm0 0" fill="#e6e6e6"/><path d="m274.792969 58.484375c3.679687 0 6.671875-2.992187 6.671875-6.671875v-37.582031c0-3.679688-2.992188-6.671875-6.671875-6.671875h-37.582031c-3.679688 0-6.671876 2.992187-6.671876 6.671875v37.582031c0 3.679688 2.992188 6.671875 6.671876 6.671875zm0 0" fill="#e6e6e6"/><path d="m497.769531 58.484375c3.679688 0 6.675781-2.992187 6.675781-6.671875v-37.582031c0-3.679688-2.996093-6.671875-6.675781-6.671875h-37.582031c-3.675781 0-6.671875 2.992187-6.671875 6.671875v37.582031c0 3.679688 2.996094 6.671875 6.671875 6.671875zm0 0" fill="#e6e6e6"/><path d="m504.445312 274.792969v-37.582031c0-3.679688-2.996093-6.671876-6.675781-6.671876h-37.582031c-3.675781 0-6.671875 2.992188-6.671875 6.671876v37.582031c0 3.675781 2.996094 6.671875 6.671875 6.671875h37.582031c3.679688 0 6.675781-2.996094 6.675781-6.671875zm0 0" fill="#e6e6e6"/><path d="m58.484375 274.792969v-37.582031c0-3.679688-2.996094-6.671876-6.671875-6.671876h-37.582031c-3.679688 0-6.671875 2.992188-6.671875 6.671876v37.582031c0 3.675781 2.992187 6.671875 6.671875 6.671875h37.582031c3.675781 0 6.671875-2.996094 6.671875-6.671875zm0 0" fill="#e6e6e6"/><path d="m58.484375 497.773438v-37.582032c0-3.679687-2.996094-6.671875-6.671875-6.671875h-37.582031c-3.679688 0-6.671875 2.992188-6.671875 6.671875v37.582032c0 3.675781 2.992187 6.671874 6.671875 6.671874h37.582031c3.675781 0 6.671875-2.996093 6.671875-6.671874zm0 0" fill="#e6e6e6"/><path d="m274.792969 504.445312c3.679687 0 6.671875-2.996093 6.671875-6.671874v-37.582032c0-3.679687-2.992188-6.671875-6.671875-6.671875h-37.582031c-3.679688 0-6.671876 2.992188-6.671876 6.671875v37.582032c0 3.675781 2.992188 6.671874 6.671876 6.671874zm0 0" fill="#e6e6e6"/><path d="m504.445312 497.773438v-37.582032c0-3.679687-2.996093-6.671875-6.675781-6.671875h-37.582031c-3.675781 0-6.671875 2.992188-6.671875 6.671875v37.582032c0 3.675781 2.996094 6.671874 6.671875 6.671874h37.582031c3.679688 0 6.675781-2.996093 6.675781-6.671874zm0 0" fill="#e6e6e6"/><path d="m106.785156 118.734375v209.664063l85.199219-58.367188c24.523437-17.421875 29.65625-7.160156 51.871094 16.054688 23.378906 24.40625 23.09375 27.058593 46.820312 8.238281l31.449219-24.949219c21.953125-17.050781 31.191406-5.789062 56.371094 16.820312l26.71875 24.011719v-191.472656c0-5.445313-4.476563-9.921875-9.925782-9.921875h-278.578124c-5.445313 0-9.925782 4.476562-9.925782 9.921875zm0 0" fill="#ade3f7"/><path d="m106.785156 318.246094v79.070312c0 5.445313 4.480469 9.921875 9.925782 9.921875h278.578124c5.449219 0 9.925782-4.476562 9.925782-9.921875v-97.234375l-26.71875-24.039062c-25.179688-22.609375-34.417969-33.871094-56.371094-16.820313l-31.449219 24.953125c-9.324219 7.382813-14.914062 11.460938-19.734375 12.230469-7.414062 1.167969-12.886718-5.617188-27.085937-20.445312-22.214844-23.210938-27.34375-33.476563-51.871094-16.054688zm0 0" fill="#98e38d"/><path d="m106.785156 118.734375v199.511719l27.261719-18.644532c-1.796875-10.296874-2.738281-20.875-2.738281-31.683593 0-68.347657 37.640625-127.914063 93.328125-159.109375h-107.925781c-5.445313.003906-9.925782 4.480468-9.925782 9.925781zm0 0" fill="#86bfdb"/><path d="m106.785156 397.316406c0 5.445313 4.480469 9.921875 9.925782 9.921875h79.382812c-29.742188-25.089843-51.328125-59.507812-60.253906-98.742187-.683594-2.9375-1.28125-5.902344-1.792969-8.894532l-27.261719 18.644532zm0 0" fill="#51b87c"/><path d="m271.199219 306.5c33.160156 34.386719 79.695312 55.800781 131.222656 55.800781.941406 0 1.851563-.027343 2.792969-.027343v-62.191407l-26.71875-24.035156c-25.179688-22.613281-34.417969-33.875-56.371094-16.824219l-31.449219 24.953125c-9.324219 7.382813-14.914062 11.460938-19.734375 12.230469-4.820312.738281-8.808594-1.855469-14.914062-7.84375 4.675781 6.304688 9.753906 12.289062 15.171875 17.9375zm0 0" fill="#51b87c"/><path d="m295.265625 176.703125c0 16.226563 13.144531 29.371094 29.371094 29.371094 16.191406 0 29.335937-13.148438 29.335937-29.371094 0-16.195313-13.144531-29.339844-29.335937-29.339844-16.226563 0-29.371094 13.144531-29.371094 29.339844zm0 0" fill="#ffd45e"/><path d="m313.085938 174.679688c0-11.890626 7.101562-22.15625 17.28125-26.75-1.855469-.367188-3.765626-.566407-5.730469-.566407-16.226563 0-29.371094 13.144531-29.371094 29.339844 0 16.226563 13.144531 29.371094 29.371094 29.371094 4.304687 0 8.378906-.941407 12.058593-2.597657-13.457031-2.679687-23.609374-14.542968-23.609374-28.796874zm0 0" fill="#ffac38"/></g><path d="m497.769531 66.039062c7.847657 0 14.230469-6.382812 14.230469-14.230468v-37.578125c0-7.847657-6.382812-14.230469-14.230469-14.230469h-37.582031c-7.84375 0-14.226562 6.382812-14.226562 14.230469v11.234375h-156.941407v-11.234375c0-7.847657-6.382812-14.230469-14.226562-14.230469h-37.582031c-7.847657 0-14.230469 6.382812-14.230469 14.230469v11.234375h-156.941407v-11.234375c0-7.847657-6.382812-14.230469-14.226562-14.230469h-37.582031c-7.847657 0-14.230469 6.382812-14.230469 14.230469v37.582031c0 7.84375 6.382812 14.226562 14.230469 14.226562h11.234375v156.945313h-11.234375c-7.847657 0-14.230469 6.378906-14.230469 14.226563v37.582031c0 7.847656 6.382812 14.230469 14.230469 14.230469h11.234375v156.9375h-11.234375c-7.847657 0-14.230469 6.382812-14.230469 14.230468v37.582032c0 7.84375 6.382812 14.226562 14.230469 14.226562h37.582031c7.84375 0 14.226562-6.382812 14.226562-14.226562v-11.234376h156.941407v11.234376c0 7.84375 6.382812 14.226562 14.230469 14.226562h37.582031c7.84375 0 14.226562-6.382812 14.226562-14.226562v-11.234376h156.941407v11.234376c0 7.84375 6.382812 14.226562 14.230468 14.226562h37.582032c7.84375 0 14.226562-6.382812 14.226562-14.226562v-37.582032c0-7.847656-6.382812-14.230468-14.226562-14.230468h-11.234376v-156.9375h11.234376c7.84375 0 14.226562-6.386719 14.226562-14.230469v-37.582031c0-7.847657-6.382812-14.226563-14.226562-14.226563h-11.234376v-156.945313zm-36.695312-50.925781h35.8125v35.8125h-35.8125zm-222.980469 0h35.8125v35.8125h-35.8125zm-222.980469 0h35.8125v35.8125h-35.8125zm0 222.980469h35.8125v35.816406h-35.8125zm35.8125 258.792969h-35.8125v-35.8125h35.8125zm222.980469 0h-35.8125v-35.8125h35.8125zm222.980469 0h-35.8125v-35.8125h35.8125zm0-222.980469h-35.8125v-35.8125h35.8125zm-25.464844-50.921875h-11.234375c-7.84375 0-14.226562 6.378906-14.226562 14.226563v37.582031c0 7.847656 6.382812 14.230469 14.226562 14.230469h11.234375v156.9375h-11.234375c-7.84375 0-14.226562 6.382812-14.226562 14.230468v11.234375h-156.941407v-11.234375c0-7.847656-6.382812-14.230468-14.226562-14.230468h-37.582031c-7.847657 0-14.230469 6.382812-14.230469 14.230468v11.234375h-156.941407v-11.234375c0-7.847656-6.382812-14.230468-14.226562-14.230468h-11.234375v-156.9375h11.234375c7.84375 0 14.226562-6.386719 14.226562-14.230469v-37.582031c0-7.847657-6.382812-14.226563-14.226562-14.226563h-11.234375v-156.945313h11.234375c7.84375 0 14.226562-6.382812 14.226562-14.230468v-11.230469h156.941407v11.230469c0 7.847656 6.382812 14.230468 14.230469 14.230468h37.582031c7.84375 0 14.226562-6.382812 14.226562-14.230468v-11.230469h156.941407v11.230469c0 7.847656 6.382812 14.230468 14.230468 14.230468h11.230469zm0 0"/><path d="m361.53125 176.703125c0-20.34375-16.550781-36.898437-36.894531-36.898437-20.363281 0-36.929688 16.554687-36.929688 36.898437 0 20.363281 16.566407 36.925781 36.929688 36.925781 20.34375 0 36.894531-16.5625 36.894531-36.925781zm-58.710938 0c0-12.011719 9.785157-21.78125 21.816407-21.78125 12.007812 0 21.78125 9.769531 21.78125 21.78125 0 12.027344-9.773438 21.8125-21.78125 21.8125-12.03125 0-21.816407-9.785156-21.816407-21.8125zm0 0"/><path d="m395.292969 101.253906-116.394531-.054687s0 0-.003907 0c-4.171875 0-7.554687 3.378906-7.554687 7.550781-.003906 4.175781 3.378906 7.558594 7.550781 7.5625l116.398437.058594c1.28125 0 2.367188 1.082031 2.367188 2.363281v164.382813l-14.109375-12.695313c-1.816406-1.625-3.542969-3.195313-5.203125-4.699219-21.363281-19.378906-35.480469-32.175781-60.917969-12.421875l-31.449219 24.953125c-5.882812 4.664063-13.945312 11.050782-16.878906 10.707032-2.757812-.320313-8.441406-6.300782-15.644531-13.878907-1.292969-1.363281-2.671875-2.8125-4.140625-4.347656-2.175781-2.269531-4.183594-4.414063-6.0625-6.421875-17.546875-18.753906-28.144531-30.078125-55.585938-10.605469l-8.496093 5.804688c-3.445313 2.355469-4.332031 7.058593-1.976563 10.503906 2.351563 3.449219 7.054688 4.335937 10.5 1.976563l8.554688-5.84375c.039062-.023438.078125-.050782.113281-.078126 10.878906-7.730468 15.222656-7.871093 18.035156-6.984374 4.617188 1.449218 10.15625 7.367187 17.820313 15.554687 1.914062 2.046875 3.960937 4.234375 6.179687 6.550781 1.457031 1.519532 2.820313 2.957032 4.101563 4.308594 10.742187 11.300781 16.660156 17.527344 24.859375 18.476562 8.734375 1.011719 16.332031-4.613281 28.011719-13.878906l31.390624-24.90625c14.882813-11.554687 19.484376-8.175781 41.433594 11.730469 1.675782 1.519531 3.421875 3.101563 5.25 4.742187l24.214844 21.789063v93.867187c0 1.28125-1.085938 2.363282-2.367188 2.363282h-278.578124c-1.28125 0-2.367188-1.082032-2.367188-2.363282v-75.085937l43.503906-29.800781c3.441406-2.359375 4.324219-7.0625 1.964844-10.507813-2.359375-3.441406-7.0625-4.320312-10.507812-1.960937l-34.960938 23.945312v-185.175781c0-1.28125 1.085938-2.363281 2.367188-2.363281h127.113281c4.175781 0 7.558593-3.386719 7.558593-7.558594 0-4.175781-3.382812-7.558594-7.558593-7.558594h-127.113281c-9.640626 0-17.480469 7.84375-17.480469 17.480469v199.558594.015625 79.007812c0 9.640625 7.839843 17.480469 17.480469 17.480469h278.578124c9.640626 0 17.480469-7.839844 17.480469-17.480469v-278.582031c0-9.636719-7.839843-17.480469-17.476562-17.480469zm0 0"/></svg>