<svg id="Capa_1" enable-background="new 0 0 512 512" height="512" viewBox="0 0 512 512" width="512" xmlns="http://www.w3.org/2000/svg"><g><g><path d="m504.5 63.5v215.5l-44.16-24.35c-3.49-2.48-8.17-2.46-11.65.05l-75.19 54.35-30-11.37-43.81-29.66c-3.17-2.15-7.3-2.3-10.62-.38l-34.96 20.53-42.41-25.54c-3.19-1.92-7.2-1.91-10.38.04l-32.82 20.09-31 16.74-63.87-50.19c-3.61-2.83-8.67-2.85-12.3-.05l-49.436 34.6-2.745-218.488c0-8.28 5.156-16.277 13.436-16.277l.915-.595h466c8.28 0 15 6.72 15 15z" fill="#bde4ff"/><path d="m504.5 279v168.5l-2.138 1.543c0 8.28-8.997 12.511-17.277 12.511l-455.574-2.894c-8.28 0-15-6.72-15-15l-7.011-159.8 53.83-41.6c3.63-2.8 8.69-2.78 12.3.05l63.87 50.19 31-16.74 32.82-20.09c3.18-1.95 7.19-1.96 10.38-.04l42.41 25.54 9.784-2.096 4.939-6.55 20.237-11.884c3.32-1.92 7.45-1.77 10.62.38l43.81 29.66 30 11.37 75.19-54.35c3.48-2.51 8.16-2.53 11.65-.05z" fill="#afefa5"/><path d="m23.5 48.5v223l-8 21.968-8-9.608v-220.36c0-8.28 6.72-15 15-15z" fill="#99dbff"/><g fill="#f9f8f9"><path d="m138.5 103.5v-20c0-2.761 2.239-5 5-5h20c2.761 0 5 2.239 5 5v20c0 2.761-2.239 5-5 5h-20c-2.761 0-5-2.239-5-5z"/><path d="m403.5 368.5v-20c0-2.761 2.239-5 5-5h20c2.761 0 5 2.239 5 5v20c0 2.761-2.239 5-5 5h-20c-2.761 0-5-2.239-5-5z"/></g><path d="m425.5 156c0-38.384-31.116-69.5-69.5-69.5-16.561 0-31.77 5.793-43.71 15.463 0 0-22.694 32.215-22.694 54.037 0 38.384 28.02 65.553 66.404 65.553 23.729 0 41.459-9.772 57.22-26.095 7.744-11.208 12.28-24.803 12.28-39.458z" fill="#ffe07d"/><path d="m413.273 195.382c-12.54 18.2-33.513 30.118-57.273 30.118-38.38 0-69.5-31.12-69.5-69.5 0-22.02 10.244-41.664 26.234-54.394-7.71 11.19-12.234 24.774-12.234 39.394 0 38.38 31.12 69.5 69.5 69.5 16.36 0 31.403-5.648 43.273-15.118z" fill="#ffd064"/><g fill="#f9f8f9"><path d="m163.5 198.5h-20c-2.761 0-5 2.239-5 5v155c0 8.284 6.716 15 15 15h155c2.761 0 5-2.239 5-5v-20c0-2.761-2.239-5-5-5h-138c-1.105 0-2-.895-2-2v-138c0-2.761-2.239-5-5-5z"/><path d="m78.5 143.5v20c0 2.761 2.239 5 5 5h258c1.105 0 2 .895 2 2v258c0 2.761 2.239 5 5 5h20c2.761 0 5-2.239 5-5v-275c0-8.284-6.716-15-15-15h-275c-2.761 0-5 2.239-5 5z"/></g><g><path d="m313.39 308.11c-1.41 2.34-3.89 3.64-6.43 3.64-1.32 0-2.66-.35-3.87-1.08l-48.98-29.5 14.723-8.646 41.997 25.296c3.55 2.14 4.7 6.75 2.56 10.29z" fill="#8ce1a4"/></g><path d="m504.5 447.5v1c0 8.284-6.716 15-15 15h-467c-8.284 0-15-6.716-15-15v-164.64l16-12.36v155c0 11.598 9.402 21 21 21z" fill="#8ce1a4"/></g><g><path d="m489.5 41h-467c-12.407 0-22.5 10.093-22.5 22.5v48.16c0 4.142 3.358 7.5 7.5 7.5s7.5-3.358 7.5-7.5v-48.16c0-4.136 3.364-7.5 7.5-7.5h467c4.136 0 7.5 3.364 7.5 7.5v200.977l-32.317-22.945c-6.113-4.341-14.306-4.308-20.383.086l-63.3 45.757v-58.538c30.882-10.573 52-39.749 52-72.837 0-2.284-.101-4.588-.301-6.849-.365-4.126-4.006-7.183-8.131-6.811-4.126.364-7.175 4.005-6.811 8.131.161 1.824.243 3.684.243 5.529 0 24.869-14.812 46.992-37 56.752v-59.252c0-12.407-10.093-22.5-22.5-22.5h-59.253c9.76-22.19 31.88-37 56.753-37 20.629 0 39.85 10.221 51.416 27.341 2.318 3.432 6.982 4.335 10.414 2.016s4.335-6.981 2.016-10.414c-14.36-21.254-38.227-33.943-63.846-33.943-33.094 0-62.264 21.116-72.838 52h-199.662c-6.893 0-12.5 5.607-12.5 12.5v20c0 6.893 5.607 12.5 12.5 12.5h104.564c4.142 0 7.5-3.358 7.5-7.5s-3.358-7.5-7.5-7.5h-102.064v-15h272.5c4.136 0 7.5 3.364 7.5 7.5v272.5h-15v-135.288c0-.011 0-.022 0-.033v-122.179c0-4.142-3.358-7.5-7.5-7.5h-120.436c-4.142 0-7.5 3.358-7.5 7.5s3.358 7.5 7.5 7.5h58.567c7.099 26.358 28.015 47.269 54.369 54.368v46.177l-32.103-21.739c-5.52-3.738-12.812-3.995-18.558-.668l-31.521 18.105-38.247-23.035c-5.614-3.382-12.575-3.356-18.165.065l-21.406 13.102v-58.875c0-6.893-5.607-12.5-12.5-12.5h-20c-6.893 0-12.5 5.607-12.5 12.5v74.355l-52.739-41.438c-6.314-4.961-15.159-4.997-21.512-.088l-41.749 32.255v-121.924c0-4.142-3.358-7.5-7.5-7.5s-7.5 3.358-7.5 7.5v301.84c0 12.407 10.093 22.5 22.5 22.5h467c12.407 0 22.5-10.093 22.5-22.5v-385c0-12.407-10.093-22.5-22.5-22.5zm-192.19 135h38.69v38.691c-18.093-6.19-32.5-20.596-38.69-38.691zm192.19 280h-467c-4.136 0-7.5-3.364-7.5-7.5v-160.96l50.92-39.341c.908-.702 2.171-.696 3.073.013l62.007 48.719v61.569c0 12.407 10.093 22.5 22.5 22.5h72.5c4.142 0 7.5-3.358 7.5-7.5s-3.358-7.5-7.5-7.5h-72.5c-4.136 0-7.5-3.364-7.5-7.5v-152.5h15v137.5c0 4.142 3.358 7.5 7.5 7.5h137.5v15h-45c-4.142 0-7.5 3.358-7.5 7.5s3.358 7.5 7.5 7.5h47.5c6.893 0 12.5-5.607 12.5-12.5v-20c0-6.893-5.607-12.5-12.5-12.5h-132.5v-56.038l29.236-17.895c.799-.49 1.794-.493 2.596-.01l82.799 49.868c1.211.729 2.545 1.076 3.862 1.076 2.543 0 5.024-1.294 6.432-3.631 2.137-3.548.993-8.157-2.555-10.294l-29.851-17.978 24.313-13.965c.824-.477 1.866-.44 2.654.094l40.514 27.433v133.84c0 6.893 5.607 12.5 12.5 12.5h20c6.893 0 12.5-5.607 12.5-12.5v-122.617l72.088-52.108c.868-.628 2.037-.632 2.912-.012l41 29.11v165.627c0 4.136-3.364 7.5-7.5 7.5z"/><path d="m163.5 116c6.893 0 12.5-5.607 12.5-12.5v-20c0-6.893-5.607-12.5-12.5-12.5h-20c-6.893 0-12.5 5.607-12.5 12.5v20c0 6.893 5.607 12.5 12.5 12.5zm-17.5-30h15v15h-15z"/><path d="m428.5 336h-20c-6.893 0-12.5 5.607-12.5 12.5v20c0 6.893 5.607 12.5 12.5 12.5h20c6.893 0 12.5-5.607 12.5-12.5v-20c0-6.893-5.607-12.5-12.5-12.5zm-2.5 30h-15v-15h15z"/></g></g></svg>