<svg id="Capa_1" enable-background="new 0 0 512 512" height="512" viewBox="0 0 512 512" width="512" xmlns="http://www.w3.org/2000/svg"><g><path d="m270.564 498.694 183.33-173.783c3.614-3.426 5.905-8.017 6.47-12.965l32.04-280.877c1.433-12.561-8.391-23.569-21.033-23.569h-430.741c-12.642 0-22.466 11.008-21.034 23.569l32.04 280.877c.564 4.948 2.855 9.539 6.47 12.965l183.33 173.783c8.167 7.741 20.962 7.741 29.128 0z" fill="#ffe177"/><path d="m471.37 7.5h-19.457c12.642 0 22.466 11.008 21.033 23.569l-32.04 280.877c-.564 4.948-2.855 9.539-6.469 12.965l-183.33 173.783c-1.477 1.401-3.11 2.539-4.835 3.433 7.813 4.046 17.604 2.908 24.293-3.433l183.33-173.783c3.614-3.426 5.905-8.017 6.469-12.965l32.04-280.877c1.433-12.561-8.391-23.569-21.034-23.569z" fill="#ffd15b"/><path d="m92.275 298.847-27.172-238.201c-.55-4.82 3.22-9.045 8.072-9.045h365.652c4.851 0 8.621 4.224 8.072 9.045l-27.171 238.201c-.217 1.899-1.096 3.66-2.483 4.975l-155.655 147.549c-3.134 2.971-8.044 2.971-11.178 0l-155.654-147.549c-1.387-1.314-2.266-3.076-2.483-4.975z" fill="#f5f8f9"/><path d="m438.826 51.601h-24.758c4.851 0 8.621 4.224 8.072 9.045l-27.171 238.201c-.217 1.899-1.096 3.66-2.483 4.975l-148.864 141.112 6.79 6.437c3.134 2.971 8.044 2.971 11.178 0l155.653-147.548c1.387-1.315 2.266-3.076 2.483-4.975l27.171-238.201c.55-4.821-3.219-9.046-8.071-9.046z" fill="#e8edf2"/><path d="m464.411 371.084h-416.821c-22.141 0-40.09-17.949-40.09-40.09v-67.528c0-22.141 17.949-40.09 40.09-40.09h416.821c22.141 0 40.09 17.949 40.09 40.09v67.528c-.001 22.141-17.949 40.09-40.09 40.09z" fill="#fff3be"/><path d="m464.411 223.376h-27.5c22.141 0 40.09 17.949 40.09 40.09v67.528c0 22.141-17.949 40.089-40.09 40.089h27.5c22.141 0 40.09-17.949 40.09-40.089v-67.528c-.001-22.141-17.949-40.09-40.09-40.09z" fill="#fedba6"/><g><path d="m227.125 125.156c-3.393-2.378-8.07-1.552-10.446 1.839l-17.387 24.817c-1.81 2.584-1.81 6.023 0 8.607l17.387 24.816c1.459 2.083 3.785 3.197 6.149 3.197 1.486 0 2.987-.441 4.297-1.358 3.393-2.377 4.216-7.054 1.839-10.446l-14.372-20.513 14.372-20.514c2.377-3.391 1.554-8.068-1.839-10.445z"/><path d="m295.322 126.995c-2.376-3.392-7.053-4.215-10.446-1.839-3.393 2.377-4.216 7.054-1.839 10.446l14.372 20.514-14.372 20.513c-2.377 3.393-1.554 8.069 1.839 10.446 1.31.918 2.811 1.358 4.297 1.358 2.363-.001 4.69-1.115 6.149-3.197l17.387-24.816c1.81-2.584 1.81-6.023 0-8.607z"/><path d="m270.743 125.737c-3.73-1.808-8.216-.244-10.018 3.484l-22.862 47.256c-1.805 3.729-.244 8.214 3.484 10.018 1.053.51 2.165.751 3.261.751 2.786 0 5.463-1.56 6.757-4.235l22.862-47.256c1.805-3.729.245-8.214-3.484-10.018z"/><path d="m206.803 98.223h98.396c4.143 0 7.5-3.357 7.5-7.5s-3.357-7.5-7.5-7.5h-98.396c-4.143 0-7.5 3.357-7.5 7.5s3.357 7.5 7.5 7.5z"/><path d="m134.708 289.729h-14.15c-4.143 0-7.5 3.357-7.5 7.5s3.357 7.5 7.5 7.5h14.15c4.143 0 7.5-3.357 7.5-7.5s-3.357-7.5-7.5-7.5z"/><path d="m391.443 289.729h-14.15c-4.143 0-7.5 3.357-7.5 7.5s3.357 7.5 7.5 7.5h14.15c4.143 0 7.5-3.357 7.5-7.5s-3.357-7.5-7.5-7.5z"/><path d="m256 414.289c4.143 0 7.5-3.357 7.5-7.5v-8.75c0-4.143-3.357-7.5-7.5-7.5s-7.5 3.357-7.5 7.5v8.75c0 4.143 3.357 7.5 7.5 7.5z"/><path d="m478.624 218.044 21.232-186.125c.924-8.108-1.662-16.25-7.096-22.339-5.432-6.088-13.229-9.58-21.39-9.58h-360.581c-4.143 0-7.5 3.357-7.5 7.5s3.357 7.5 7.5 7.5h360.581c3.948 0 7.571 1.622 10.199 4.568 2.629 2.945 3.831 6.729 3.383 10.651l-21.179 185.656h-27.033l17.61-154.38c.504-4.419-.905-8.855-3.866-12.174-2.961-3.317-7.21-5.221-11.657-5.221h-365.652c-4.447 0-8.696 1.903-11.658 5.222-2.961 3.317-4.37 7.755-3.866 12.172l17.611 154.381h-27.036l-21.178-185.656c-.447-3.923.754-7.705 3.383-10.65 2.628-2.947 6.251-4.569 10.199-4.569h41.159c4.143 0 7.5-3.357 7.5-7.5s-3.357-7.5-7.5-7.5h-41.159c-8.161 0-15.958 3.492-21.392 9.581s-8.019 14.23-7.094 22.338l21.231 186.125c-19.319 6.059-33.375 24.13-33.375 45.422v67.528c0 26.241 21.349 47.59 47.59 47.59h56.236l132.45 125.554c5.531 5.242 12.626 7.862 19.724 7.862 7.096 0 14.194-2.621 19.725-7.862l132.087-125.209c.118-.112.231-.227.34-.345h56.259c26.24 0 47.589-21.349 47.589-47.59v-67.528c0-21.293-14.056-39.364-33.376-45.422zm-213.219 275.207c-5.274 4.999-13.536 4.999-18.809 0l-120.967-114.667h37.095l31.385 29.75c1.45 1.375 3.306 2.057 5.158 2.057 1.986 0 3.97-.784 5.444-2.341 2.85-3.006 2.723-7.753-.284-10.603l-19.9-18.863h142.945l-71.042 67.343c-.24.23-.62.229-.858.001l-29.979-28.418c-3.008-2.85-7.754-2.722-10.604.283-2.85 3.007-2.723 7.754.283 10.604l29.979 28.419c3.014 2.855 6.881 4.283 10.748 4.283s7.734-1.429 10.749-4.284l82.527-78.23h37.093zm231.595-162.257c0 17.97-14.619 32.59-32.589 32.59h-416.821c-17.97 0-32.59-14.62-32.59-32.59v-67.528c0-17.97 14.62-32.59 32.59-32.59h294.1c4.143 0 7.5-3.357 7.5-7.5s-3.357-7.5-7.5-7.5h-251.331l-17.804-156.08c-.008-.069-.032-.277.154-.485.186-.209.396-.209.466-.209h365.651c.069 0 .279 0 .466.208.186.209.161.417.153.486l-17.804 156.08h-50.952c-4.143 0-7.5 3.357-7.5 7.5s3.357 7.5 7.5 7.5h93.722c17.97 0 32.589 14.62 32.589 32.59z"/><path d="m222.245 250.561c-4.143 0-7.5 3.357-7.5 7.5v62.611c0 3.104-1.609 5.925-4.198 7.362-4.982 2.769-10.31-2.23-10.621-2.529-2.923-2.896-7.64-2.896-10.564.009-2.938 2.92-2.952 7.669-.033 10.607 3.473 3.493 10.188 7.812 18.009 7.812 3.351 0 6.904-.793 10.49-2.783 7.352-4.082 11.918-11.928 11.918-20.478v-62.611c-.001-4.143-3.358-7.5-7.501-7.5z"/><path d="m303.177 290.812c-9.995-3.688-19.272-7.711-21.711-8.781-2.315-1.723-3.437-4.456-3.013-7.412.544-3.786 3.474-6.831 7.839-8.146 12.311-3.708 23.474 5.243 23.675 5.407 3.171 2.638 7.88 2.221 10.537-.94 2.665-3.171 2.256-7.901-.915-10.567-.701-.589-17.398-14.354-37.623-8.263-9.951 2.998-16.986 10.806-18.36 20.377-1.281 8.925 2.585 17.51 10.089 22.402 2.216 1.447 19.626 8.274 24.291 9.995 8.404 3.101 12.682 7.918 11.735 13.22-.947 5.307-7.17 10.796-15.941 10.796-8.423 0-16.551-3.42-21.742-9.148-2.782-3.07-7.526-3.302-10.594-.521-3.069 2.781-3.303 7.524-.521 10.594 7.987 8.814 20.271 14.076 32.857 14.076 15.149 0 28.351-9.957 30.708-23.16 1.786-10.011-2.874-23.129-21.311-29.929z"/></g></g></svg>