<svg xmlns="http://www.w3.org/2000/svg" version="1.1" xmlns:xlink="http://www.w3.org/1999/xlink" xmlns:svgjs="http://svgjs.com/svgjs" width="512" height="512" x="0" y="0" viewBox="0 0 512 512" style="enable-background:new 0 0 512 512" xml:space="preserve" class=""><g><path fill="#f9f8f9" d="M453.31 460.125c0 24.508-19.907 44.375-44.464 44.375H103.154c-24.557 0-44.464-19.867-44.464-44.375V51.875C58.69 27.367 78.597 7.5 103.154 7.5h190.303c8.857 0 17.35 3.516 23.606 9.773l126.505 126.521a33.245 33.245 0 0 1 9.742 23.508z" data-original="#f9f8f9" class=""></path><path fill="#e3e0e4" d="M133.15 504.5h-30c-24.55 0-44.46-19.87-44.46-44.38V51.88c0-24.51 19.91-44.38 44.46-44.38h30c-24.55 0-44.46 19.87-44.46 44.38v408.24c0 24.51 19.91 44.38 44.46 44.38zM453.31 167.3v16.24H337.35c-33.12 0-60.06-26.95-60.06-60.07V7.5h16.17c8.85 0 17.35 3.52 23.6 9.77l126.51 126.52c6.24 6.24 9.74 14.7 9.74 23.51z" data-original="#e3e0e4"></path><path fill="#faf063" d="M450.32 153.54H337.35c-16.6 0-30.06-13.46-30.06-30.07V10.51a33.04 33.04 0 0 1 9.77 6.76l126.51 126.52c2.85 2.85 5.12 6.15 6.75 9.75zM435 438.5H77c-22.091 0-40-17.909-40-40v-146c0-22.091 17.909-40 40-40h358c22.091 0 40 17.909 40 40v146c0 22.091-17.909 40-40 40z" data-original="#faf063"></path><path fill="#f3d332" d="M102 438.5H77c-22.09 0-40-17.91-40-40v-146c0-22.09 17.91-40 40-40h25c-22.09 0-40 17.91-40 40v146c0 22.09 17.91 40 40 40z" data-original="#f3d332"></path><path d="M37 344.506a7.5 7.5 0 0 0 7.5-7.5V252.5c0-17.921 14.58-32.5 32.5-32.5h299.958c4.142 0 7.5-3.357 7.5-7.5s-3.358-7.5-7.5-7.5H77a47.39 47.39 0 0 0-10.81 1.256V51.875C66.19 31.542 82.772 15 103.154 15H152.5c4.142 0 7.5-3.357 7.5-7.5S156.642 0 152.5 0h-49.346C74.501 0 51.19 23.271 51.19 51.875v160.781C38.149 221.132 29.5 235.821 29.5 252.5v84.506a7.5 7.5 0 0 0 7.5 7.5z" fill="#000000" data-original="#000000" class=""></path><path d="M460.81 212.656v-45.354c0-10.88-4.24-21.111-11.938-28.811L322.367 11.971C314.648 4.251 304.381 0 293.457 0H187.5c-4.142 0-7.5 3.357-7.5 7.5s3.358 7.5 7.5 7.5h105.957c2.144 0 4.273.274 6.334.798v107.673c0 20.714 16.85 37.566 37.56 37.566h107.694c.505 2.025.765 4.125.765 6.265v38.954A47.39 47.39 0 0 0 435 205h-20.255c-4.142 0-7.5 3.357-7.5 7.5s3.358 7.5 7.5 7.5H435c17.92 0 32.5 14.579 32.5 32.5v146c0 17.921-14.58 32.5-32.5 32.5H77c-17.92 0-32.5-14.579-32.5-32.5v-26.494c0-4.143-3.358-7.5-7.5-7.5s-7.5 3.357-7.5 7.5V398.5c0 16.679 8.649 31.368 21.69 39.844v21.781c0 28.604 23.311 51.875 51.964 51.875h182.251c4.142 0 7.5-3.357 7.5-7.5s-3.358-7.5-7.5-7.5H103.154c-20.382 0-36.964-16.542-36.964-36.875v-15.381A47.39 47.39 0 0 0 77 446h358a47.39 47.39 0 0 0 10.81-1.256v15.381c0 20.333-16.582 36.875-36.964 36.875h-88.441c-4.142 0-7.5 3.357-7.5 7.5s3.358 7.5 7.5 7.5h88.441c28.653 0 51.964-23.271 51.964-51.875v-21.781c13.041-8.477 21.69-23.165 21.69-39.844v-146c0-16.679-8.649-31.368-21.69-39.844zm-146.018-89.185V25.609l120.413 120.428h-97.853c-12.44 0-22.56-10.123-22.56-22.566z" fill="#000000" data-original="#000000" class=""></path><path d="M278.167 268.504v113.992c0 4.143 3.358 7.5 7.5 7.5s7.5-3.357 7.5-7.5V268.504c0-4.143-3.358-7.5-7.5-7.5s-7.5 3.357-7.5 7.5zM371.531 276.421c4.142 0 7.5-3.357 7.5-7.5s-3.358-7.5-7.5-7.5h-45.863a7.5 7.5 0 0 0-7.5 7.5v113.158c0 4.143 3.358 7.5 7.5 7.5s7.5-3.357 7.5-7.5v-50.15h34.72c4.142 0 7.5-3.357 7.5-7.5s-3.358-7.5-7.5-7.5h-34.72v-40.508zM197.465 276.004c9.92 0 19.488 2.921 27.668 8.448a7.501 7.501 0 0 0 8.398-12.43c-10.67-7.208-23.142-11.019-36.066-11.019-35.563 0-64.496 28.933-64.496 64.496s28.933 64.496 64.496 64.496c17.297 0 31.9-6.732 42.23-19.469 9.332-11.506 14.472-27.497 14.472-45.027a7.5 7.5 0 0 0-7.5-7.5h-34.101c-4.142 0-7.5 3.357-7.5 7.5s3.358 7.5 7.5 7.5h26.207c-2.199 20.785-13.855 41.996-41.308 41.996-27.292 0-49.496-22.204-49.496-49.496s22.204-49.495 49.496-49.495z" fill="#000000" data-original="#000000" class=""></path></g></svg>