<svg xmlns="http://www.w3.org/2000/svg" version="1.1" xmlns:xlink="http://www.w3.org/1999/xlink" xmlns:svgjs="http://svgjs.com/svgjs" width="512" height="512" x="0" y="0" viewBox="0 0 412.17 512" style="enable-background:new 0 0 512 512" xml:space="preserve" class=""><g><g data-name="Layer 2"><g data-name="Icon file"><path fill="#c3e3f7" d="M402.17 361.71V371H35a25 25 0 0 0-24.8 22.09l.43-176a25 25 0 0 1 25-25h25.15l341.39-.07z" data-original="#c3e3f7" class=""></path><path fill="#c3e3f7" d="M60.78 373.18V421H35a25 25 0 0 1-25-25.1 22.69 22.69 0 0 1 .17-2.75A25 25 0 0 1 35 371h25.78zM401.7 98.55h-59.78a30.12 30.12 0 0 1-30.12-30.11V12.28a29.91 29.91 0 0 1 8.55 5.33l71.7 63.73a30.12 30.12 0 0 1 9.65 17.21z" data-original="#c3e3f7" class=""></path><g fill="#0096ff"><path d="M60.78 202.12a10 10 0 0 1-10-10V70.24A70.32 70.32 0 0 1 121 0h179.35A40.22 40.22 0 0 1 327 10.14l71.7 63.73a40 40 0 0 1 13.47 30v88.2a10 10 0 0 1-20 0v-88.2a20.89 20.89 0 0 0-.31-3.54 20.23 20.23 0 0 0-6.45-11.5l-71.69-63.75A20.29 20.29 0 0 0 300.35 20H121a50.3 50.3 0 0 0-50.22 50.24v121.88a10 10 0 0 1-10 10z" fill="#0096ff" data-original="#0096ff" class=""></path><path d="M401.66 108.56h-59.74a40.17 40.17 0 0 1-40.12-40.12V12.31a10 10 0 0 1 20 0v56.13a20.15 20.15 0 0 0 20.12 20.12h59.74a10 10 0 0 1 0 20zM80.42 381H60.78a10 10 0 1 1 0-20h19.64a10 10 0 1 1 0 20z" fill="#0096ff" data-original="#0096ff" class=""></path><path d="M58.19 431H35a35 35 0 0 1-35-35.18 32.81 32.81 0 0 1 .24-3.91A35 35 0 0 1 35 361h10.54a10 10 0 1 1 0 20H35a15 15 0 0 0-14.86 13.21 12.27 12.27 0 0 0-.11 1.63A15 15 0 0 0 35 411h23.19a10 10 0 0 1 0 20z" fill="#0096ff" data-original="#0096ff" class=""></path><path d="M10.13 403.12a10 10 0 0 1-10-10l.43-176a35 35 0 0 1 35-34.95h25.22l341.39-.07a10 10 0 0 1 10 10v169.61a10 10 0 0 1-20 0V202.05l-331.39.07H35.53a15 15 0 0 0-15 15l-.43 176a10 10 0 0 1-9.97 10z" fill="#0096ff" data-original="#0096ff" class=""></path><path d="M60.78 381H45.54a10 10 0 0 1 0-20h356.63a10 10 0 0 1 0 20z" fill="#0096ff" data-original="#0096ff" class=""></path><path d="M352 512H111a60.27 60.27 0 0 1-60.2-60.2v-78.62a10 10 0 0 1 20 0v78.62A40.24 40.24 0 0 0 111 492h241a40.25 40.25 0 0 0 40.21-40.2v-90.09a10 10 0 0 1 20 0v90.09A60.28 60.28 0 0 1 352 512zM175.84 332.88a50.24 50.24 0 1 1 28.1-91.88 10 10 0 0 1-11.2 16.57 30.24 30.24 0 1 0-16.9 55.31c6.18 0 11.37-1.83 15.43-5.45a22.64 22.64 0 0 0 2.26-2.33 10 10 0 1 1 15.32 12.9 43.44 43.44 0 0 1-4.27 4.41c-7.73 6.83-17.67 10.47-28.74 10.47zM95.37 332.88a10 10 0 0 1-10-10v-80.47a10 10 0 1 1 20 0v80.47a10 10 0 0 1-10 10zM276.43 332.88a50.24 50.24 0 1 1 50.24-50.23 50.29 50.29 0 0 1-50.24 50.23zm0-80.47a30.24 30.24 0 1 0 30.24 30.24 30.27 30.27 0 0 0-30.24-30.24z" fill="#0096ff" data-original="#0096ff" class=""></path></g></g></g></g></svg>