<svg id="Capa_1" enable-background="new 0 0 512 512" height="512" viewBox="0 0 512 512" width="512" xmlns="http://www.w3.org/2000/svg"><g><g><path clip-rule="evenodd" d="m97.498 39.345v263.699h246.405c11.342 0 20.601 9.238 20.601 20.555v113.777h102.428c-19.27 0-35.04-15.734-35.04-34.962v-197.528-165.541c0-6.063-4.977-11.057-11.082-11.057h-312.231c-6.105-.001-11.081 4.965-11.081 11.057zm243.801 200.733h-190.099c-5.671 0-10.33-4.648-10.33-10.335v-16.976-111.207c0-5.659 4.658-10.307 10.33-10.307h226.99c5.671 0 10.33 4.648 10.33 10.307v94.723 33.46c0 5.687-4.658 10.335-10.33 10.335z" fill="#fff" fill-rule="evenodd"/></g><g><path clip-rule="evenodd" d="m378.19 91.253h-226.99c-5.671 0-10.33 4.648-10.33 10.307v111.207l59.171-59.068c15.046-15.012 39.669-15.012 54.715 0l44.877 44.806 32.406-32.334c7.234-7.218 19.068-7.218 26.301 0l30.179 30.111v-94.722c0-5.659-4.658-10.307-10.329-10.307z" fill="#66e0f7" fill-rule="evenodd"/></g><g><path clip-rule="evenodd" d="m200.041 153.699-59.171 59.068v16.976c0 5.687 4.658 10.335 10.33 10.335h190.099l-41.665-41.573-44.877-44.806c-15.047-15.012-39.67-15.012-54.716 0z" fill="#a0e5a5" fill-rule="evenodd"/></g><g><path clip-rule="evenodd" d="m332.04 166.171-32.406 32.334 41.665 41.573h36.891c5.671 0 10.33-4.648 10.33-10.335v-33.46l-30.179-30.111c-7.234-7.219-19.068-7.219-26.301-.001z" fill="#d0f2d2" fill-rule="evenodd"/></g><g><path clip-rule="evenodd" d="m97.498 303.044h-66.868c-11.342 0-20.63 9.238-20.63 20.555v139.529c0 11.317 9.288 20.584 20.63 20.584h313.272c11.342 0 20.601-9.267 20.601-20.584v-25.752-113.777c0-11.317-9.259-20.555-20.601-20.555z" fill="#ffcd69" fill-rule="evenodd"/></g><g><path clip-rule="evenodd" d="m431.892 204.886v197.529c0 19.227 15.769 34.962 35.04 34.962 19.299 0 35.068-15.734 35.068-34.962v-191.38c0-3.378-2.778-6.149-6.163-6.149z" fill="#ccf5fc" fill-rule="evenodd"/></g><g><path d="m495.837 194.886h-53.945v-155.541c0-11.611-9.458-21.058-21.082-21.058h-312.23c-11.625 0-21.082 9.446-21.082 21.058v86.062c0 5.522 4.477 10 10 10s10-4.478 10-10v-86.062c0-.573.496-1.058 1.082-1.058h312.23c.566 0 1.082.504 1.082 1.058v363.069c0 9.229 2.799 17.816 7.595 24.962h-54.983v-103.776c0-16.849-13.728-30.556-30.601-30.556h-236.405v-76.178c0-5.522-4.477-10-10-10s-10 4.478-10 10v76.178h-56.868c-16.889 0-30.63 13.707-30.63 30.556v139.528c0 16.864 13.741 30.585 30.63 30.585h313.272c16.874 0 30.601-13.721 30.601-30.585v-15.752h92.428c24.851 0 45.068-20.17 45.068-44.962v-191.379c.001-8.905-7.25-16.149-16.162-16.149zm-141.333 268.242c0 5.837-4.755 10.585-10.601 10.585h-313.273c-5.862 0-10.63-4.748-10.63-10.585v-139.528c0-5.82 4.769-10.556 10.63-10.556h313.272c5.846 0 10.601 4.735 10.601 10.556v139.528zm137.496-60.714c0 13.764-11.246 24.962-25.068 24.962-13.807 0-25.04-11.198-25.04-24.962v-187.528h50.108z"/><path d="m84.217 338.023h-32.523c-5.523 0-10 4.478-10 10v46.514c-.057.434-.087.875-.087 1.324s.03.891.087 1.324v41.548c0 5.522 4.477 10 10 10s10-4.478 10-10v-32.872h20.439c10.139 0 19.114-4.042 25.272-11.381 5.302-6.319 8.222-14.638 8.222-23.423 0-16.415-10.789-33.034-31.41-33.034zm-2.084 47.838h-20.439v-27.838h22.522c10.86 0 11.411 10.857 11.411 13.034 0 1.516-.378 14.804-13.494 14.804z"/><path d="m303.944 380.896h-6.221c-5.523 0-10 4.478-10 10s4.477 10 10 10h6.221c4.168 0 8.952.928 8.952 8.159v7.68c0 7.962-4.249 11.999-12.627 11.999h-23.553c-8.072 0-8.576-8.621-8.576-8.708v-49.801c0-7.526 3.996-12.201 10.428-12.201h36.284c5.523 0 10-4.478 10-10s-4.477-10-10-10h-36.284c-17.631 0-30.428 13.543-30.428 32.201v49.801c0 11.921 8.866 28.708 28.576 28.708h23.553c19.515 0 32.627-12.859 32.627-31.999v-7.68c0-14.017-8.952-28.159-28.952-28.159z"/><path d="m207.014 340.131c-5.523 0-10 4.478-10 10v55.158l-39.828-60.647c-2.426-3.693-6.988-5.356-11.224-4.092-4.234 1.267-7.135 5.161-7.135 9.581v88.603c0 5.522 4.477 10 10 10s10-4.478 10-10v-55.158l39.828 60.647c1.883 2.867 5.054 4.512 8.359 4.512.953 0 1.917-.137 2.864-.42 4.234-1.267 7.135-5.161 7.135-9.581v-88.603c.001-5.523-4.476-10-9.999-10z"/><path d="m378.19 250.078c11.21 0 20.33-9.122 20.33-20.335v-128.183c0-11.197-9.12-20.307-20.33-20.307h-226.99c-11.21 0-20.33 9.109-20.33 20.307v128.184c0 11.213 9.12 20.335 20.33 20.335h226.99zm0-20h-32.755l-31.639-31.579 25.306-25.249c3.356-3.35 8.817-3.35 12.175 0l27.242 27.181v29.312c.001.169-.188.335-.329.335zm-226.99-128.825h226.99c.159 0 .33.18.33.307v70.618l-13.115-13.086c-11.146-11.122-29.282-11.122-40.428 0l-25.335 25.279-37.822-37.75c-18.979-18.937-49.861-18.937-68.843.002l-42.106 42.033v-87.096c-.001-.127.17-.307.329-.307zm-.33 128.49v-12.828l56.234-56.136c11.19-11.167 29.398-11.166 40.587-.001l44.74 44.656c.042.044.078.092.122.135.047.047.099.087.146.133l24.423 24.377h-165.922c-.141-.001-.33-.167-.33-.336z"/><path d="m97.498 181.165c5.523 0 10-4.506 10-10.028s-4.477-10-10-10-10 4.478-10 10v.058c0 5.522 4.477 9.97 10 9.97z"/></g></g></svg>