<svg xmlns="http://www.w3.org/2000/svg" version="1.1" xmlns:xlink="http://www.w3.org/1999/xlink" xmlns:svgjs="http://svgjs.com/svgjs" width="512" height="512" x="0" y="0" viewBox="0 0 682.667 682.667" style="enable-background:new 0 0 512 512" xml:space="preserve" class=""><g><defs><clipPath id="a" clipPathUnits="userSpaceOnUse"><path d="M0 512h512V0H0Z" fill="#000000" data-original="#000000"></path></clipPath></defs><g clip-path="url(#a)" transform="matrix(1.33333 0 0 -1.33333 0 682.667)"><path d="M0 0h-477c-5.523 0-10 4.477-10 10v412.479c0 22.091 17.909 40 40 40h417c22.091 0 40-17.909 40-40V10C10 4.477 5.523 0 0 0" style="fill-opacity:1;fill-rule:nonzero;stroke:none" transform="translate(494.5 24.76)" fill="#f8f3f1" data-original="#f8f3f1" class=""></path><path d="M0 0h-30c22.091 0 40-17.909 40-40v-412.479c0-5.523-4.477-10-10-10h30c5.523 0 10 4.477 10 10V-40C40-17.909 22.091 0 0 0" style="fill-opacity:1;fill-rule:nonzero;stroke:none" transform="translate(464.5 487.24)" fill="#e2e2e2" data-original="#e2e2e2"></path><path d="M0 0v34.936c0 22.091-17.909 40-40 40h-417c-22.091 0-40-17.909-40-40V0Z" style="fill-opacity:1;fill-rule:nonzero;stroke:none" transform="translate(504.5 412.304)" fill="#99e6fc" data-original="#99e6fc"></path><path d="M0 0h-30c22.091 0 40-17.909 40-40v-34.936h30V-40C40-17.909 22.091 0 0 0" style="fill-opacity:1;fill-rule:nonzero;stroke:none" transform="translate(464.5 487.24)" fill="#62dbfb" data-original="#62dbfb"></path><path d="M0 0a7.5 7.5 0 1 0-15 0A7.5 7.5 0 0 0 0 0" style="fill-opacity:1;fill-rule:nonzero;stroke:none" transform="translate(455.514 449.772)" fill="#000000" data-original="#000000"></path><path d="M0 0a7.5 7.5 0 1 0-15 0A7.5 7.5 0 0 0 0 0" style="fill-opacity:1;fill-rule:nonzero;stroke:none" transform="translate(416.01 449.772)" fill="#000000" data-original="#000000"></path><path d="M0 0a7.5 7.5 0 1 0-15 0A7.5 7.5 0 0 0 0 0" style="fill-opacity:1;fill-rule:nonzero;stroke:none" transform="translate(376.506 449.772)" fill="#000000" data-original="#000000"></path><path d="M0 0h-257.504c-9.353 0-16.934 7.582-16.934 16.934V237.89c0 8.769 7.108 15.878 15.877 15.878H-3.847c10.73 0 19.429-8.699 19.429-19.429V15.582C15.582 6.976 8.606 0 0 0" style="fill-opacity:1;fill-rule:nonzero;stroke:none" transform="translate(385.428 102.315)" fill="#ffe177" data-original="#ffe177" class=""></path><path d="M0 0h-40.114c9.823 0 17.786-7.963 17.786-17.786v-223.34c0-6.982-5.66-12.642-12.642-12.642H5.144c6.982 0 12.642 5.66 12.642 12.642v223.34C17.786-7.963 9.823 0 0 0" style="fill-opacity:1;fill-rule:nonzero;stroke:none" transform="translate(383.224 356.083)" fill="#ffd15b" data-original="#ffd15b"></path><path d="M0 0v-43.709c0-8.973 7.274-16.247 16.248-16.247h150.968L55.23 52.03a2.264 2.264 0 0 1-3.2 0z" style="fill-opacity:1;fill-rule:nonzero;stroke:none" transform="translate(110.99 162.272)" fill="#3ec3a4" data-original="#3ec3a4"></path><path d="M0 0v78.159l-66.898 66.899c-3.66 3.659-9.593 3.659-13.252 0L-238.113-12.906h225.207C-5.778-12.906 0-7.128 0 0" style="fill-opacity:1;fill-rule:nonzero;stroke:none" transform="translate(401.01 115.221)" fill="#bbf49b" data-original="#bbf49b"></path><path d="M0 0a9.371 9.371 0 0 1-13.252 0l-13.431-13.431L17.62-57.733a31.295 31.295 0 0 0 9.165-22.127v-65.197c0-7.129-5.779-12.907-12.906-12.907h40.113c7.128 0 12.906 5.779 12.906 12.907v78.158z" style="fill-opacity:1;fill-rule:nonzero;stroke:none" transform="translate(334.112 260.279)" fill="#9be69d" data-original="#9be69d"></path><path d="M0 0c0-17.421-14.123-31.544-31.544-31.544S-63.088-17.421-63.088 0s14.123 31.544 31.544 31.544S0 17.421 0 0" style="fill-opacity:1;fill-rule:nonzero;stroke:none" transform="translate(256.926 278.175)" fill="#fd8087" data-original="#fd8087"></path><path d="M0 0h333.13c22.092 0 40-17.909 40-40v-412.479c0-5.523-4.477-10-10-10h-477c-5.523 0-10 4.477-10 10V-40c0 22.091 17.909 40 40 40H-35" style="stroke-width:15;stroke-linecap:round;stroke-linejoin:round;stroke-miterlimit:10;stroke-dasharray:none;stroke-opacity:1" transform="translate(131.37 487.24)" fill="none" stroke="#000000" stroke-width="15" stroke-linecap="round" stroke-linejoin="round" stroke-miterlimit="10" stroke-dasharray="none" stroke-opacity="" data-original="#000000" class=""></path><path d="M0 0h491.922" style="stroke-width:15;stroke-linecap:round;stroke-linejoin:round;stroke-miterlimit:10;stroke-dasharray:none;stroke-opacity:1" transform="translate(7.5 412.304)" fill="none" stroke="#000000" stroke-width="15" stroke-linecap="round" stroke-linejoin="round" stroke-miterlimit="10" stroke-dasharray="none" stroke-opacity="" data-original="#000000" class=""></path><path d="M0 0h-172.199c-8.057 0-14.588 6.532-14.588 14.589v224.59c0 8.057 6.531 14.589 14.588 14.589h40" style="stroke-width:15;stroke-linecap:round;stroke-linejoin:round;stroke-miterlimit:10;stroke-dasharray:none;stroke-opacity:1" transform="translate(297.777 102.315)" fill="none" stroke="#000000" stroke-width="15" stroke-linecap="round" stroke-linejoin="round" stroke-miterlimit="10" stroke-dasharray="none" stroke-opacity="" data-original="#000000" class=""></path><path d="M0 0h185.509c8.057 0 14.588-6.532 14.588-14.589v-224.59c0-8.057-6.531-14.589-14.588-14.589h-53.31" style="stroke-width:15;stroke-linecap:round;stroke-linejoin:round;stroke-miterlimit:10;stroke-dasharray:none;stroke-opacity:1" transform="translate(200.912 356.083)" fill="none" stroke="#000000" stroke-width="15" stroke-linecap="round" stroke-linejoin="round" stroke-miterlimit="10" stroke-dasharray="none" stroke-opacity="" data-original="#000000" class=""></path><path d="m0 0-50.728 50.728a7.357 7.357 0 0 1-10.406 0l-45.038-45.037" style="stroke-width:15;stroke-linecap:round;stroke-linejoin:round;stroke-miterlimit:10;stroke-dasharray:none;stroke-opacity:1" transform="translate(220.551 159.97)" fill="none" stroke="#000000" stroke-width="15" stroke-linecap="round" stroke-linejoin="round" stroke-miterlimit="10" stroke-dasharray="none" stroke-opacity="" data-original="#000000" class=""></path><path d="M0 0c0-17.421-14.123-31.544-31.544-31.544S-63.088-17.421-63.088 0s14.123 31.544 31.544 31.544S0 17.421 0 0Z" style="stroke-width:15;stroke-linecap:round;stroke-linejoin:round;stroke-miterlimit:10;stroke-dasharray:none;stroke-opacity:1" transform="translate(256.926 278.175)" fill="none" stroke="#000000" stroke-width="15" stroke-linecap="round" stroke-linejoin="round" stroke-miterlimit="10" stroke-dasharray="none" stroke-opacity="" data-original="#000000" class=""></path><path d="m0 0-64.633 64.633c-3.667 3.667-9.612 3.667-13.278 0L-234.989-92.444" style="stroke-width:15;stroke-linecap:round;stroke-linejoin:round;stroke-miterlimit:10;stroke-dasharray:none;stroke-opacity:1" transform="translate(398.758 195.632)" fill="none" stroke="#000000" stroke-width="15" stroke-linecap="round" stroke-linejoin="round" stroke-miterlimit="10" stroke-dasharray="none" stroke-opacity="" data-original="#000000" class=""></path><path d="m0 0-27.723 25.371L0 50.743" style="stroke-width:15;stroke-linecap:round;stroke-linejoin:round;stroke-miterlimit:10;stroke-dasharray:none;stroke-opacity:1" transform="translate(77.064 192.828)" fill="none" stroke="#000000" stroke-width="15" stroke-linecap="round" stroke-linejoin="round" stroke-miterlimit="10" stroke-dasharray="none" stroke-opacity="" data-original="#000000" class=""></path><path d="m0 0 27.723 25.371L0 50.743" style="stroke-width:15;stroke-linecap:round;stroke-linejoin:round;stroke-miterlimit:10;stroke-dasharray:none;stroke-opacity:1" transform="translate(434.936 192.828)" fill="none" stroke="#000000" stroke-width="15" stroke-linecap="round" stroke-linejoin="round" stroke-miterlimit="10" stroke-dasharray="none" stroke-opacity="" data-original="#000000" class=""></path></g></g></svg>