<svg id="Capa_1" enable-background="new 0 0 512 512" height="512" viewBox="0 0 512 512" width="512" xmlns="http://www.w3.org/2000/svg"><g><g><path d="m442.185 102.01v390.49c0 6.63-5.37 12-12 12h-321.14c-6.62 0-12-5.37-12-12v-473c0-6.63 5.38-12 12-12h238.63c1.73 0 3.43.37 4.97 1.08 1.3.58 2.49 1.4 3.52 2.43l82.51 82.52c1.02 1.03 1.84 2.21 2.43 3.51.71 1.54 1.08 3.24 1.08 4.97z" fill="#eaf6ff"/><path d="m122.045 492.5v-473c0-6.63 5.38-12 12-12h-25c-6.62 0-12 5.37-12 12v473c0 6.63 5.38 12 12 12h25c-6.62 0-12-5.37-12-12z" fill="#d8ecfe"/><path d="m346.805 404.63-39.5 50.14c-2.27 2.88-5.75 4.57-9.42 4.57h-216.07c-6.63 0-12-5.37-12-12v-100.28c0-6.62 5.37-12 12-12h216.07c3.67 0 7.15 1.69 9.42 4.58l39.5 50.14c3.43 4.35 3.43 10.49 0 14.85z" fill="#ffe07d"/><path d="m105.815 459.34h-24c-6.63 0-12-5.37-12-12v-100.28c0-6.62 5.37-12 12-12h24c-6.63 0-12 5.38-12 12v100.28c0 6.63 5.37 12 12 12z" fill="#ffd064"/><path d="m441.105 97.04h-73.46c-8.28 0-15-6.72-15-15v-73.46c1.3.58 2.49 1.4 3.52 2.43l82.51 82.52c1.02 1.03 1.84 2.21 2.43 3.51z" fill="#d8ecfe"/><path d="m161.071 297.15v-162.196c0-4.418 3.582-8 8-8h201.097c4.418 0 8 3.582 8 8v162.196c0 4.418-3.582 8-8 8h-201.097c-4.418 0-8-3.582-8-8z" fill="#26a6fe"/><path d="m186.071 297.15v-162.196c0-4.418 3.582-8 8-8h-25c-4.418 0-8 3.582-8 8v162.196c0 4.418 3.582 8 8 8h25c-4.418 0-8-3.582-8-8z" fill="#0593fc"/><path d="m378.17 241.35v55.8c0 4.42-3.58 8-8 8h-116.04l70.04-121.32c4.62-8 16.17-8 20.79 0z" fill="#95d6a4"/><circle cx="261.255" cy="178.489" fill="#ffe07d" r="17.5"/><path d="m268.755 178.489c0-4.765 1.91-9.08 5-12.236-3.177-3.245-7.6-5.264-12.5-5.264-9.665 0-17.5 7.835-17.5 17.5s7.835 17.5 17.5 17.5c4.9 0 9.323-2.019 12.5-5.264-3.089-3.155-5-7.47-5-12.236z" fill="#ffd064"/><path d="m275.39 305.15h-106.32c-4.42 0-8-3.58-8-8v-26.51l36.81-63.76c4.61-8 16.16-8 20.78 0z" fill="#b3e59f"/><path d="m186.075 227.32v69.83c0 4.42 3.58 8 8 8h-25c-2.21 0-4.21-.89-5.66-2.34-1.44-1.45-2.34-3.45-2.34-5.66v-26.53z" fill="#95d6a4"/></g><g><path d="m257.036 435.822c.261.006.52.009.779.009 18.983-.002 32.82-14.713 33.759-36.052.099-2.268-.736-4.519-2.29-6.178-1.558-1.661-3.756-2.641-6.03-2.688l-17.197-.361c-.054-.001-.107-.002-.161-.002-4.069 0-7.41 3.255-7.496 7.343-.087 4.141 3.2 7.568 7.341 7.655l9.897.208c-2.078 8.247-7.659 15.276-18.288 15.07-6.4-.135-12.286-2.829-16.573-7.587-4.283-4.754-6.348-10.904-5.814-17.319.961-11.552 10.805-20.771 22.408-20.986 4.949-.1 9.68 1.354 13.684 4.185 3.382 2.392 8.063 1.586 10.453-1.797 2.391-3.383 1.586-8.062-1.797-10.453-6.632-4.687-14.451-7.064-22.619-6.933-19.2.358-35.486 15.618-37.078 34.74-.881 10.584 2.535 20.742 9.619 28.604 6.986 7.752 16.974 12.324 27.403 12.542z"/><path d="m443.978 88.227-82.52-82.521c-3.68-3.68-8.575-5.706-13.784-5.706h-238.629c-10.752 0-19.5 8.748-19.5 19.5v308.06h-7.73c-10.752 0-19.5 8.748-19.5 19.5v100.28c0 10.752 8.748 19.5 19.5 19.5h7.73v25.66c0 10.752 8.748 19.5 19.5 19.5h321.14c10.752 0 19.5-8.748 19.5-19.5v-390.49c0-5.207-2.027-10.103-5.707-13.783zm-19.901 1.313h-56.432c-4.136 0-7.5-3.364-7.5-7.5v-56.433zm6.108 407.46h-321.14c-2.481 0-4.5-2.019-4.5-4.5v-25.66h193.33c6 0 11.581-2.703 15.322-7.43l39.492-50.143c5.595-7.111 5.592-17.034-.003-24.128l-39.493-50.146c-3.729-4.724-9.312-7.434-15.318-7.434h-102.4c-4.142 0-7.5 3.357-7.5 7.5s3.358 7.5 7.5 7.5h102.4c1.386 0 2.678.629 3.539 1.721l39.492 50.145c1.289 1.635 1.287 3.925-.003 5.564l-39.479 50.125c-.867 1.097-2.161 1.726-3.55 1.726h-216.059c-2.481 0-4.5-2.019-4.5-4.5v-100.28c0-2.481 2.019-4.5 4.5-4.5h78.66c4.142 0 7.5-3.357 7.5-7.5s-3.358-7.5-7.5-7.5h-55.93v-308.06c0-2.481 2.019-4.5 4.5-4.5h236.1v67.04c0 12.406 10.094 22.5 22.5 22.5h67.04v387.96c0 2.481-2.018 4.5-4.5 4.5z"/><path d="m370.165 119.45h-35.28c-4.143 0-7.5 3.357-7.5 7.5s3.357 7.5 7.5 7.5h35.28c.271 0 .5.229.5.5v78.409l-19.215-33.281c-3.526-6.104-9.84-9.749-16.89-9.749-7.051 0-13.364 3.645-16.891 9.75l-52.914 91.658-39.606-68.609c-3.526-6.105-9.838-9.749-16.888-9.749-.003 0-.006 0-.009 0-7.049.003-13.357 3.65-16.873 9.75l-22.814 39.518v-107.697c0-.271.229-.5.5-.5h130.819c4.143 0 7.5-3.357 7.5-7.5s-3.357-7.5-7.5-7.5h-130.819c-8.547 0-15.5 6.953-15.5 15.5v162.2c0 8.547 6.953 15.5 15.5 15.5h201.1c8.547 0 15.5-6.953 15.5-15.5v-162.2c0-8.547-6.954-15.5-15.5-15.5zm-201.6 177.7v-24.501l35.808-62.024c1.167-2.025 3.106-2.245 3.886-2.245h.002c.783 0 2.727.22 3.898 2.25l50.235 87.021h-93.329c-.276-.001-.5-.225-.5-.501zm201.6.5h-90.45l-6.299-10.911 57.244-99.158c1.173-2.031 3.118-2.251 3.9-2.251.781 0 2.727.22 3.899 2.25l32.205 55.779v53.791c.001.276-.224.5-.499.5z"/><path d="m236.25 178.489c0 13.785 11.215 25 25 25 13.786 0 25-11.215 25-25s-11.215-25-25-25-25 11.215-25 25zm35 0c0 5.514-4.486 10-10 10s-10-4.486-10-10 4.486-10 10-10 10 4.487 10 10z"/><path d="m135.99 358.573c-.001 0-.002 0-.003 0-4.141 0-7.498 3.355-7.5 7.497l-.022 48.554c-.058 1.161-1.458 3.095-3.492 4.168-2.444 1.296-5.784-2.329-5.926-2.486-2.674-3.121-7.37-3.512-10.521-.863-3.171 2.665-3.582 7.396-.917 10.567 2.813 3.348 9.004 8.096 16.309 8.096 2.581 0 5.301-.593 8.06-2.049 6.835-3.609 11.344-10.346 11.487-17.162.001-.051.001-.103.001-.154l.022-48.664c0-4.142-3.356-7.502-7.498-7.504z"/></g></g><path d="m157.767 365.917-1.279 60.888c-.087 4.141 3.2 7.568 7.341 7.655.054.001.107.002.161.002 4.069 0 7.41-3.255 7.496-7.343l.399-18.99c3.441.055 7.26.118 9.456.164.179.004.358.006.537.006 6.38 0 12.457-2.401 17.163-6.795 4.915-4.588 7.698-10.755 7.837-17.365 0-.001 0-.001 0-.001.139-6.61-2.383-12.889-7.101-17.679-4.645-4.716-10.824-7.39-17.4-7.527l-16.954-.357c-.57-.018-2.993-.033-5.098 1.785-2.466 2.129-2.552 5.093-2.558 5.557zm34.112 17.904c-.053 2.529-1.146 4.915-3.076 6.717-1.965 1.834-4.498 2.807-7.149 2.758-2.181-.046-5.953-.109-9.379-.163.057-3.543.123-7.478.17-9.719.04-1.899.115-5.976.183-9.685l9.434.197c2.645.056 5.14 1.141 7.026 3.056 1.853 1.882 2.845 4.311 2.791 6.839z"/></svg>