<svg xmlns="http://www.w3.org/2000/svg" xmlns:xlink="http://www.w3.org/1999/xlink" width="512" zoomAndPan="magnify" viewBox="0 0 384 383.999986" height="512" preserveAspectRatio="xMidYMid meet" version="1.0"><defs><g/></defs><path fill="#ebebf5" d="M 304.5 5.625 L 154.5 5.625 L 42 118.125 L 42 340.875 C 42 361.585938 58.789062 378.375 79.5 378.375 L 304.5 378.375 C 325.210938 378.375 342 361.585938 342 340.875 L 342 43.125 C 342 22.414062 325.210938 5.625 304.5 5.625 Z M 304.5 5.625 " fill-opacity="1" fill-rule="nonzero"/><path fill="#8fe673" d="M 42 184.5 L 342 184.5 C 350.285156 184.5 357 191.214844 357 199.5 L 357 297 C 357 305.285156 350.285156 312 342 312 L 42 312 C 33.714844 312 27 305.285156 27 297 L 27 199.5 C 27 191.214844 33.714844 184.5 42 184.5 Z M 42 184.5 " fill-opacity="1" fill-rule="nonzero"/><path fill="#8fe673" d="M 57 297 L 57 199.5 C 57 191.214844 63.714844 184.5 72 184.5 L 42 184.5 C 33.714844 184.5 27 191.214844 27 199.5 L 27 297 C 27 305.285156 33.714844 312 42 312 L 72 312 C 63.714844 312 57 305.285156 57 297 Z M 57 297 " fill-opacity="1" fill-rule="nonzero"/><path fill="#000000" d="M 347.625 179.660156 L 347.625 95.761719 C 347.625 92.65625 345.105469 90.136719 342 90.136719 C 338.894531 90.136719 336.375 92.65625 336.375 95.761719 L 336.375 178.875 L 47.625 178.875 L 47.625 123.75 L 113.886719 123.75 C 139.382812 123.75 160.125 103.007812 160.125 77.511719 L 160.125 11.25 L 304.5 11.25 C 322.078125 11.25 336.375 25.550781 336.375 43.125 L 336.375 74.761719 C 336.375 77.867188 338.894531 80.386719 342 80.386719 C 345.105469 80.386719 347.625 77.867188 347.625 74.761719 L 347.625 43.125 C 347.625 19.34375 328.28125 0 304.5 0 L 154.5 0 C 153.007812 0 151.578125 0.59375 150.523438 1.648438 L 38.023438 114.148438 C 36.96875 115.203125 36.375 116.632812 36.375 118.125 L 36.375 179.660156 C 27.730469 182.117188 21.375 190.078125 21.375 199.5 L 21.375 297 C 21.375 306.421875 27.730469 314.382812 36.375 316.839844 L 36.375 340.875 C 36.375 364.65625 55.71875 384 79.5 384 L 304.5 384 C 328.28125 384 347.625 364.65625 347.625 340.875 L 347.625 316.839844 C 356.269531 314.382812 362.625 306.421875 362.625 297 L 362.625 199.5 C 362.625 190.078125 356.269531 182.117188 347.625 179.660156 Z M 113.886719 112.5 L 55.578125 112.5 L 148.875 19.203125 L 148.875 77.511719 C 148.875 96.804688 133.179688 112.5 113.886719 112.5 Z M 351.375 297 C 351.375 302.167969 347.167969 306.375 342 306.375 L 248.675781 306.375 C 245.566406 306.375 243.050781 308.894531 243.050781 312 C 243.050781 315.105469 245.566406 317.625 248.675781 317.625 L 336.375 317.625 L 336.375 340.875 C 336.375 358.453125 322.078125 372.75 304.5 372.75 L 79.5 372.75 C 61.921875 372.75 47.625 358.453125 47.625 340.875 L 47.625 317.625 L 227.675781 317.625 C 230.78125 317.625 233.300781 315.105469 233.300781 312 C 233.300781 308.894531 230.78125 306.375 227.675781 306.375 L 42 306.375 C 36.832031 306.375 32.625 302.167969 32.625 297 L 32.625 199.5 C 32.625 194.332031 36.832031 190.125 42 190.125 L 342 190.125 C 347.167969 190.125 351.375 194.332031 351.375 199.5 Z M 351.375 297 " fill-opacity="1" fill-rule="nonzero"/><g fill="#000000" fill-opacity="1"><g transform="translate(111.052733, 276.814197)"><g><path d="M 32.40625 0.796875 C 26.53125 0.796875 21.5 -0.382812 17.3125 -2.75 C 13.132812 -5.125 9.921875 -8.484375 7.671875 -12.828125 C 5.429688 -17.179688 4.3125 -22.316406 4.3125 -28.234375 C 4.3125 -34.160156 5.429688 -39.28125 7.671875 -43.59375 C 9.921875 -47.914062 13.132812 -51.265625 17.3125 -53.640625 C 21.5 -56.015625 26.53125 -57.203125 32.40625 -57.203125 C 35.332031 -57.203125 38.207031 -56.828125 41.03125 -56.078125 C 43.863281 -55.328125 46.347656 -54.257812 48.484375 -52.875 C 49.867188 -51.96875 50.691406 -50.890625 50.953125 -49.640625 C 51.222656 -48.390625 51.0625 -47.242188 50.46875 -46.203125 C 49.882812 -45.160156 49.003906 -44.460938 47.828125 -44.109375 C 46.660156 -43.765625 45.359375 -44.078125 43.921875 -45.046875 C 42.265625 -46.109375 40.476562 -46.878906 38.5625 -47.359375 C 36.644531 -47.835938 34.695312 -48.078125 32.71875 -48.078125 C 27.007812 -48.078125 22.660156 -46.359375 19.671875 -42.921875 C 16.691406 -39.484375 15.203125 -34.585938 15.203125 -28.234375 C 15.203125 -21.890625 16.691406 -16.984375 19.671875 -13.515625 C 22.660156 -10.046875 27.007812 -8.3125 32.71875 -8.3125 C 34.75 -8.3125 36.75 -8.566406 38.71875 -9.078125 C 40.695312 -9.585938 42.5625 -10.375 44.3125 -11.4375 C 45.757812 -12.34375 47.039062 -12.632812 48.15625 -12.3125 C 49.28125 -12 50.117188 -11.347656 50.671875 -10.359375 C 51.234375 -9.367188 51.40625 -8.285156 51.1875 -7.109375 C 50.976562 -5.941406 50.265625 -4.90625 49.046875 -4 C 46.910156 -2.457031 44.359375 -1.269531 41.390625 -0.4375 C 38.429688 0.382812 35.4375 0.796875 32.40625 0.796875 Z M 32.40625 0.796875 "/></g></g></g><g fill="#000000" fill-opacity="1"><g transform="translate(165.447447, 276.814197)"><g><path d="M 25.59375 0.796875 C 22.019531 0.796875 18.539062 0.398438 15.15625 -0.390625 C 11.769531 -1.191406 8.820312 -2.394531 6.3125 -4 C 5.09375 -4.800781 4.347656 -5.785156 4.078125 -6.953125 C 3.816406 -8.128906 3.910156 -9.238281 4.359375 -10.28125 C 4.816406 -11.320312 5.535156 -12.039062 6.515625 -12.4375 C 7.503906 -12.84375 8.640625 -12.644531 9.921875 -11.84375 C 12.265625 -10.457031 14.742188 -9.441406 17.359375 -8.796875 C 19.972656 -8.160156 22.71875 -7.84375 25.59375 -7.84375 C 29.8125 -7.84375 32.878906 -8.546875 34.796875 -9.953125 C 36.722656 -11.367188 37.6875 -13.195312 37.6875 -15.4375 C 37.6875 -17.300781 37.003906 -18.765625 35.640625 -19.828125 C 34.273438 -20.898438 31.941406 -21.785156 28.640625 -22.484375 L 19.84375 -24.3125 C 9.8125 -26.445312 4.796875 -31.597656 4.796875 -39.765625 C 4.796875 -43.285156 5.726562 -46.347656 7.59375 -48.953125 C 9.46875 -51.566406 12.054688 -53.59375 15.359375 -55.03125 C 18.660156 -56.476562 22.472656 -57.203125 26.796875 -57.203125 C 29.992188 -57.203125 33.03125 -56.800781 35.90625 -56 C 38.789062 -55.195312 41.382812 -54.023438 43.6875 -52.484375 C 44.75 -51.734375 45.382812 -50.8125 45.59375 -49.71875 C 45.8125 -48.625 45.679688 -47.609375 45.203125 -46.671875 C 44.722656 -45.742188 43.960938 -45.101562 42.921875 -44.75 C 41.878906 -44.40625 40.664062 -44.632812 39.28125 -45.4375 C 37.300781 -46.5625 35.296875 -47.363281 33.265625 -47.84375 C 31.242188 -48.320312 29.0625 -48.5625 26.71875 -48.5625 C 23.039062 -48.5625 20.160156 -47.785156 18.078125 -46.234375 C 15.992188 -44.691406 14.953125 -42.664062 14.953125 -40.15625 C 14.953125 -38.238281 15.59375 -36.707031 16.875 -35.5625 C 18.15625 -34.414062 20.34375 -33.519531 23.4375 -32.875 L 32.15625 -31.046875 C 37.4375 -29.921875 41.367188 -28.15625 43.953125 -25.75 C 46.546875 -23.351562 47.84375 -20.15625 47.84375 -16.15625 C 47.84375 -12.800781 46.9375 -9.84375 45.125 -7.28125 C 43.3125 -4.71875 40.738281 -2.726562 37.40625 -1.3125 C 34.070312 0.09375 30.132812 0.796875 25.59375 0.796875 Z M 25.59375 0.796875 "/></g></g></g><g fill="#000000" fill-opacity="1"><g transform="translate(215.922548, 276.814197)"><g><path d="M 28.5625 0.640625 C 25.84375 0.640625 23.894531 -0.691406 22.71875 -3.359375 L 1.84375 -50.234375 C 0.988281 -52.265625 1.023438 -53.90625 1.953125 -55.15625 C 2.890625 -56.414062 4.265625 -57.046875 6.078125 -57.046875 C 7.628906 -57.046875 8.789062 -56.710938 9.5625 -56.046875 C 10.332031 -55.378906 10.984375 -54.378906 11.515625 -53.046875 L 28.71875 -13.125 L 45.921875 -53.125 C 46.503906 -54.40625 47.195312 -55.378906 48 -56.046875 C 48.800781 -56.710938 49.921875 -57.046875 51.359375 -57.046875 C 53.066406 -57.046875 54.359375 -56.40625 55.234375 -55.125 C 56.117188 -53.84375 56.109375 -52.210938 55.203125 -50.234375 L 34.3125 -3.359375 C 33.726562 -2.023438 32.992188 -1.023438 32.109375 -0.359375 C 31.234375 0.304688 30.050781 0.640625 28.5625 0.640625 Z M 28.5625 0.640625 "/></g></g></g></svg>