<svg xmlns="http://www.w3.org/2000/svg" version="1.1" xmlns:xlink="http://www.w3.org/1999/xlink" xmlns:svgjs="http://svgjs.com/svgjs" width="512" height="512" x="0" y="0" viewBox="0 0 512.0005 512" style="enable-background:new 0 0 512 512" xml:space="preserve" class=""><g><g xmlns="http://www.w3.org/2000/svg" fill-rule="evenodd"><path d="m10 252.628906c5.507812 0 10-4.488281 10-10 0-5.507812-4.492188-10-10-10s-10 4.492188-10 10c0 5.511719 4.492188 10 10 10zm0 0" fill="#000000" data-original="#000000" class=""></path><path d="m53.078125 10h236.9375c23.695313 0 43.082031 19.386719 43.082031 43.082031v379.097657c0 23.695312-19.386718 43.082031-43.082031 43.082031h-236.9375c-23.691406 0-43.078125-19.386719-43.078125-43.082031v-379.097657c0-23.695312 19.386719-43.082031 43.078125-43.082031zm0 0" fill="#ffdda0" data-original="#ffdda0" class=""></path><path d="m417.546875 329.125 84.453125 84.453125zm-84.449219-203.882812c65.960938 0 119.433594 53.472656 119.433594 119.433593 0 32.980469-13.367188 62.839844-34.980469 84.449219-21.613281 21.613281-51.472656 34.984375-84.453125 34.984375-65.960937 0-119.433594-53.472656-119.433594-119.433594 0-65.964843 53.472657-119.433593 119.433594-119.433593zm0 0" fill="#67e4dc" data-original="#67e4dc"></path></g><path xmlns="http://www.w3.org/2000/svg" d="m279.785156 394.792969c5.523438 0 10-4.476563 10-10 0-5.523438-4.476562-10-10-10h-216.472656c-5.523438 0-10 4.476562-10 10 0 5.523437 4.476562 10 10 10zm0 0" fill="#000000" data-original="#000000" class=""></path><path xmlns="http://www.w3.org/2000/svg" d="m63.3125 110.46875h216.476562c5.519532 0 10-4.480469 10-10 0-5.523438-4.480468-10-10-10h-216.476562c-5.523438 0-10 4.476562-10 10 0 5.519531 4.476562 10 10 10zm0 0" fill="#000000" data-original="#000000" class=""></path><path xmlns="http://www.w3.org/2000/svg" d="m509.070312 406.507812-77.644531-77.648437c20.125-23.433594 31.101563-52.964844 31.101563-84.1875 0-4.800781-.269532-9.683594-.8125-14.511719-.613282-5.488281-5.566406-9.445312-11.050782-8.824218-5.488281.613281-9.4375 5.5625-8.824218 11.046874.457031 4.097657.6875 8.230469.6875 12.289063 0 29.222656-11.371094 56.691406-32.027344 77.359375-.007812.007812-.015625.015625-.023438.023438-.003906.007812-.015624.015624-.023437.019531-20.664063 20.65625-48.136719 32.03125-77.355469 32.03125-60.34375 0-109.433594-49.089844-109.433594-109.433594s49.089844-109.429687 109.433594-109.429687c29.230469 0 56.710938 11.378906 77.375 32.046874 3.90625 3.902344 10.234375 3.90625 14.144532 0 3.902343-3.90625 3.902343-10.238281 0-14.144531-22.074219-22.070312-50.714844-35.183593-81.519532-37.523437v-62.539063c0-29.269531-23.8125-53.082031-53.082031-53.082031h-236.9375c-29.265625 0-53.078125 23.8125-53.078125 53.082031v149.546875c0 5.523438 4.476562 10 10 10s10-4.476562 10-10v-149.546875c0-18.242187 14.839844-33.082031 33.078125-33.082031h236.9375c18.242187 0 33.082031 14.839844 33.082031 33.082031v62.539063c-35.695312 2.742187-67.378906 20.03125-89.128906 45.929687h-170.65625c-5.523438 0-10 4.476563-10 10 0 5.519531 4.476562 10 10 10h156.824219c-8.625 15.371094-14.203125 32.671875-15.910157 51.078125h-140.914062c-5.523438 0-10 4.480469-10 10 0 5.523438 4.476562 10 10 10h140.601562c1.117188 18.308594 6.046876 35.597656 14.015626 51.082032h-154.617188c-5.523438 0-10 4.480468-10 10 0 5.523437 4.476562 10 10 10h167.359375c21.78125 28.15625 54.882813 47.128906 92.425781 50.011718v58.457032c0 18.242187-14.839844 33.078124-33.082031 33.078124h-236.9375c-18.238281.003907-33.078125-14.835937-33.078125-33.078124v-149.550782c0-5.519531-4.476562-10-10-10s-10 4.480469-10 10v149.550782c0 29.269531 23.8125 53.082031 53.078125 53.082031h236.9375c29.269531 0 53.082031-23.8125 53.082031-53.082031v-58.457032c27.492188-2.089844 53.265625-12.757812 74.183594-30.722656l77.648438 77.648438c1.953124 1.953124 4.511718 2.929687 7.070312 2.929687s5.117188-.976563 7.070312-2.929687c3.90625-3.90625 3.90625-10.238282 0-14.140626zm0 0" fill="#000000" data-original="#000000" class=""></path><path xmlns="http://www.w3.org/2000/svg" d="m440.71875 202.824219c5.507812 0 10-4.492188 10-10 0-5.507813-4.492188-10-10-10s-10 4.492187-10 10c0 5.507812 4.492188 10 10 10zm0 0" fill-rule="evenodd" fill="#000000" data-original="#000000" class=""></path></g></svg>