<svg xmlns="http://www.w3.org/2000/svg" version="1.1" xmlns:xlink="http://www.w3.org/1999/xlink" xmlns:svgjs="http://svgjs.com/svgjs" width="512" height="512" x="0" y="0" viewBox="0 0 512 512" style="enable-background:new 0 0 512 512" xml:space="preserve" class=""><g><g xmlns="http://www.w3.org/2000/svg"><g><g><path d="m208.64 7.496v100.688c0 15.579 12.629 28.209 28.209 28.209h100.688z" fill="#efe7e4" data-original="#efe7e4"></path></g></g><g><g><path d="m208.64 7.496v38.873l90.023 90.023h38.874z" fill="#eadfda" data-original="#eadfda"></path></g></g><g><g><path d="m208.64 7.496h-144.495c-8.279 0-14.991 6.712-14.991 14.991v369.497c0 8.279 6.712 14.991 14.991 14.991h258.4c8.279 0 14.991-6.712 14.991-14.991v-255.592h-100.687c-15.579 0-28.209-12.629-28.209-28.209z" fill="#f6f1f1" data-original="#f6f1f1" class=""></path></g></g><g><path d="m299.507 136.392v217.562c0 8.279-6.712 14.991-14.991 14.991h-235.362v23.038c0 8.279 6.712 14.991 14.991 14.991h258.4c8.279 0 14.991-6.712 14.991-14.991v-255.591z" fill="#efe7e4" data-original="#efe7e4"></path></g><g><g><g><path d="m202.781 459.943c59.414 59.414 156.089 59.414 215.504 0 59.414-59.414 59.414-156.089 0-215.504l-33.156 33.156c41.133 41.133 41.133 108.059 0 149.192s-108.059 41.133-149.192 0z" fill="#86f1a7" data-original="#86f1a7"></path></g></g><g><g><path d="m418.285 244.439-9.305 9.305c17.615 24.841 27.971 55.192 27.971 87.963 0 84.081-68.161 152.242-152.242 152.242-15.574 0-30.599-2.344-44.749-6.689 57.449 29.971 130.139 20.868 178.325-27.317 59.414-59.414 59.414-156.089 0-215.504z" fill="#78d0b1" data-original="#78d0b1"></path></g></g><g><g><path d="m235.937 426.787c-41.133-41.133-41.133-108.059 0-149.192s108.059-41.133 149.192 0l27.558.342c1.639.02 3.014-1.233 3.145-2.867l2.453-30.631c-59.414-59.414-156.089-59.414-215.504 0s-59.414 156.089 0 215.504l29.696-1.589c1.632-.087 2.92-1.421 2.949-3.056z" fill="#698ed5" data-original="#698ed5" class=""></path></g></g><g><g><path d="m416.59 265.605 1.695-21.166c-18.49-18.49-40.588-31.222-64.049-38.204 26.05 13.397 47.732 34.086 62.354 59.37z" fill="#4073c8" data-original="#4073c8"></path></g></g></g><g><path d="m93.076 184.388h104.219c4.14 0 7.495-3.355 7.495-7.495s-3.356-7.495-7.495-7.495h-104.219c-4.14 0-7.495 3.355-7.495 7.495s3.355 7.495 7.495 7.495z" fill="#000000" data-original="#000000" class=""></path><path d="m93.076 221.932h51.62c4.14 0 7.495-3.355 7.495-7.495s-3.356-7.495-7.495-7.495h-51.62c-4.14 0-7.495 3.355-7.495 7.495s3.355 7.495 7.495 7.495z" fill="#000000" data-original="#000000" class=""></path><path d="m93.076 146.782h45.596c4.14 0 7.495-3.355 7.495-7.495s-3.356-7.495-7.495-7.495h-45.596c-4.14 0-7.495 3.355-7.495 7.495s3.355 7.495 7.495 7.495z" fill="#000000" data-original="#000000" class=""></path><path d="m423.585 239.139c-22.361-22.36-49.753-36.698-78.565-43.016.003-.081.012-.159.012-.241v-59.489c-.006-1.973-.803-3.905-2.195-5.301l-77.537-77.536c-2.927-2.926-7.673-2.926-10.6 0-2.927 2.928-2.927 7.673 0 10.601l64.741 64.74h-82.593c-11.421 0-20.713-9.292-20.713-20.713v-82.593l14.501 14.502c2.927 2.926 7.673 2.926 10.6 0 2.927-2.928 2.927-7.673 0-10.601l-27.296-27.297c-1.396-1.392-3.327-2.189-5.3-2.195h-144.495c-12.399 0-22.486 10.088-22.486 22.486v296.587c0 4.14 3.356 7.495 7.495 7.495s7.495-3.355 7.495-7.495v-296.587c0-4.133 3.362-7.495 7.495-7.495h136.999v93.193c0 19.687 16.017 35.704 35.704 35.704h93.193v49.688c-47.171-5.75-96.431 9.435-132.56 45.563-43.316 43.316-56.522 105.505-39.64 160.341h-93.695c-4.133 0-7.495-3.362-7.495-7.495v-35.586c0-4.14-3.356-7.495-7.495-7.495s-7.495 3.355-7.495 7.495v35.586c0 12.399 10.087 22.486 22.486 22.486h99.147c7.782 18.464 19.171 35.755 34.189 50.774.004.004.009.008.014.013 30.149 30.141 70.292 46.742 113.037 46.742 42.751 0 82.901-16.606 113.052-46.757 30.151-30.152 46.756-70.301 46.756-113.052 0-42.752-16.605-82.901-46.756-113.052zm-215.504 10.601c28.246-28.247 65.349-42.369 102.452-42.369 36.039 0 72.078 13.324 100 39.973l-1.846 23.048-20.474-.254c-44.212-41.886-114.254-41.166-157.576 2.157-43.291 43.292-44.04 113.263-2.25 157.478l-.382 21.314-22.237 1.191c-54.165-56.666-53.396-146.83 2.313-202.538zm33.156 171.746c-38.209-38.209-38.209-100.381 0-138.591 24.083-24.084 57.683-32.972 88.804-26.697v135.785c0 4.133-3.362 7.495-7.495 7.495h-53.455c-4.14 0-7.495 3.355-7.495 7.495s3.356 7.495 7.495 7.495h53.455c12.399 0 22.486-10.088 22.486-22.486v-131.483c12.695 4.755 24.603 12.202 34.797 22.396 38.209 38.21 38.209 100.382 0 138.591-18.478 18.479-43.088 28.655-69.296 28.655s-50.818-10.176-69.296-28.655zm171.748 33.156c-27.32 27.32-63.705 42.367-102.452 42.367-32.74 0-63.793-10.744-89.116-30.557l11.458-.613c5.533-.295 9.946-4.865 10.045-10.406l.224-12.527c19.354 14.426 42.76 22.226 67.388 22.226 30.213 0 58.587-11.735 79.897-33.044 39.946-39.946 43.67-102.608 11.174-146.792l10.99.137c5.591.067 10.267-4.219 10.71-9.764l1.051-13.126c44.817 56.814 41.034 139.697-11.369 192.099z" fill="#000000" data-original="#000000" class=""></path></g></g></g></svg>