<svg xmlns="http://www.w3.org/2000/svg" version="1.1" xmlns:xlink="http://www.w3.org/1999/xlink" xmlns:svgjs="http://svgjs.com/svgjs" width="512" height="512" x="0" y="0" viewBox="0 0 512 512" style="enable-background:new 0 0 512 512" xml:space="preserve" class=""><g><g xmlns="http://www.w3.org/2000/svg"><g><path d="m354.565 7.5c-10.9 0-318.357 0-329.223 0-8.837 0-16 7.164-16 16v421.097c0 8.828 7.155 16 16 16h26.44 302.783c8.837 0 16-7.164 16-16 0-4.946 0-416.225 0-421.097 0-8.837-7.16-16-16-16z" fill="#9dc6fb" data-original="#9dc6fb" class=""></path><path d="m354.565 7.5c-16.364 0-11.716 0-28.346 0 8.816 0 16 7.14 16 16v421.097c0 8.836-7.163 16-16 16h28.346c8.837 0 16-7.164 16-16 0-4.946 0-416.225 0-421.097 0-8.848-7.174-16-16-16z" fill="#80b4fb" data-original="#80b4fb"></path><path d="m47.94 51.403c-8.837 0-16 7.164-16 16v393.193h19.843 302.783c8.837 0 16-7.164 16-16v-393.193z" fill="#80b4fb" data-original="#80b4fb"></path><path d="m489.849 410.228 12.809-29.527h-57.162l12.81 29.527z" fill="#bed8fb" data-original="#bed8fb"></path><path d="m479.981 380.701-12.81 29.527h22.678l12.809-29.527z" fill="#9dc6fb" data-original="#9dc6fb" class=""></path><path d="m67.782 504.5h329.223c8.837 0 16-7.163 16-16v-421.097c0-8.837-7.163-16-16-16h-329.223c-8.837 0-16 7.163-16 16v421.097c0 8.837 7.164 16 16 16z" fill="#e7ecf6" data-original="#e7ecf6" class=""></path><g fill="#e28086"><circle cx="132.78" cy="135.137" r="22.4" fill="#e28086" data-original="#e28086"></circle><circle cx="132.78" cy="231.515" r="22.4" fill="#e28086" data-original="#e28086"></circle><circle cx="132.78" cy="327.893" r="22.4" fill="#e28086" data-original="#e28086"></circle><circle cx="132.78" cy="424.27" r="22.4" fill="#e28086" data-original="#e28086"></circle></g><path d="m478.548 436.276 11.3-26.048h-31.542l11.3 26.048c2.013 4.639 6.929 4.639 8.942 0z" fill="#017297" data-original="#017297"></path><path d="m502.658 183.747h-57.162v196.954h57.162c0-8.454 0-188.539 0-196.954z" fill="#e28086" data-original="#e28086"></path><path d="m445.497 183.747h57.161v-27.486c0-9.988-6.325-18.084-14.128-18.084h-28.905c-7.803 0-14.128 8.097-14.128 18.084z" fill="#ecbe6b" data-original="#ecbe6b"></path><path d="m502.658 183.747h-22.677v196.954h22.677z" fill="#dd636e" data-original="#dd636e"></path><path d="m488.53 138.177h-22.677c7.803 0 14.128 8.096 14.128 18.084v27.486h22.677v-27.486c0-9.988-6.325-18.084-14.128-18.084z" fill="#eab14d" data-original="#eab14d"></path><path d="m467.171 410.228-4.432 10.217 6.868 15.831c2.012 4.639 6.928 4.639 8.941 0l11.301-26.048z" fill="#2b4d66" data-original="#2b4d66"></path><path d="m397.005 51.403h-28.346c8.836 0 16 7.164 16 16v421.097c0 8.836-7.164 16-16 16h28.346c8.837 0 16-7.164 16-16v-421.097c0-8.836-7.163-16-16-16z" fill="#d8e2f1" data-original="#d8e2f1"></path></g><g><path d="m397.006 43.903h-18.941v-20.403c0-12.958-10.542-23.5-23.5-23.5h-209.72c-4.143 0-7.5 3.357-7.5 7.5s3.357 7.5 7.5 7.5h209.72c4.687 0 8.5 3.813 8.5 8.5v20.403h-295.283c-12.958 0-23.5 10.542-23.5 23.5v385.693h-18.94c-4.687 0-8.5-3.813-8.5-8.5v-421.096c0-4.687 3.813-8.5 8.5-8.5h84.419c4.143 0 7.5-3.357 7.5-7.5s-3.357-7.5-7.5-7.5h-84.419c-12.958 0-23.5 10.542-23.5 23.5v421.097c0 12.958 10.542 23.5 23.5 23.5h18.94v20.403c0 12.958 10.542 23.5 23.5 23.5h329.224c12.958 0 23.5-10.542 23.5-23.5v-421.097c0-12.958-10.542-23.5-23.5-23.5zm8.5 444.597c0 4.687-3.813 8.5-8.5 8.5h-329.224c-4.687 0-8.5-3.813-8.5-8.5 0-4.864 0-416.153 0-421.097 0-4.687 3.813-8.5 8.5-8.5h329.224c4.687 0 8.5 3.813 8.5 8.5z" fill="#000000" data-original="#000000" class=""></path><path d="m132.78 105.236c-16.487 0-29.9 13.413-29.9 29.9s13.413 29.9 29.9 29.9c16.486 0 29.899-13.413 29.899-29.9s-13.412-29.9-29.899-29.9zm0 44.801c-8.216 0-14.9-6.685-14.9-14.9s6.685-14.9 14.9-14.9 14.899 6.685 14.899 14.9-6.683 14.9-14.899 14.9z" fill="#000000" data-original="#000000" class=""></path><path d="m354.408 111.988h-167.311c-4.143 0-7.5 3.357-7.5 7.5s3.357 7.5 7.5 7.5h167.312c4.143 0 7.5-3.357 7.5-7.5s-3.358-7.5-7.501-7.5z" fill="#000000" data-original="#000000" class=""></path><path d="m187.097 158.285h131.076c4.143 0 7.5-3.357 7.5-7.5s-3.357-7.5-7.5-7.5h-131.076c-4.143 0-7.5 3.357-7.5 7.5s3.357 7.5 7.5 7.5z" fill="#000000" data-original="#000000" class=""></path><path d="m132.78 201.614c-16.487 0-29.9 13.413-29.9 29.9s13.413 29.9 29.9 29.9c16.486 0 29.899-13.413 29.899-29.9s-13.412-29.9-29.899-29.9zm0 44.801c-8.216 0-14.9-6.685-14.9-14.9s6.685-14.9 14.9-14.9 14.899 6.685 14.899 14.9-6.683 14.9-14.899 14.9z" fill="#000000" data-original="#000000" class=""></path><path d="m354.408 208.366h-167.311c-4.143 0-7.5 3.357-7.5 7.5s3.357 7.5 7.5 7.5h167.312c4.143 0 7.5-3.357 7.5-7.5s-3.358-7.5-7.501-7.5z" fill="#000000" data-original="#000000" class=""></path><path d="m187.097 254.663h131.076c4.143 0 7.5-3.357 7.5-7.5s-3.357-7.5-7.5-7.5h-131.076c-4.143 0-7.5 3.357-7.5 7.5s3.357 7.5 7.5 7.5z" fill="#000000" data-original="#000000" class=""></path><path d="m132.78 297.992c-16.487 0-29.9 13.413-29.9 29.9s13.413 29.9 29.9 29.9c16.486 0 29.899-13.413 29.899-29.9s-13.412-29.9-29.899-29.9zm0 44.801c-8.216 0-14.9-6.685-14.9-14.9s6.685-14.9 14.9-14.9 14.899 6.685 14.899 14.9-6.683 14.9-14.899 14.9z" fill="#000000" data-original="#000000" class=""></path><path d="m354.408 304.744h-167.311c-4.143 0-7.5 3.357-7.5 7.5s3.357 7.5 7.5 7.5h167.312c4.143 0 7.5-3.357 7.5-7.5s-3.358-7.5-7.501-7.5z" fill="#000000" data-original="#000000" class=""></path><path d="m187.097 351.041h131.076c4.143 0 7.5-3.357 7.5-7.5s-3.357-7.5-7.5-7.5h-131.076c-4.143 0-7.5 3.357-7.5 7.5s3.357 7.5 7.5 7.5z" fill="#000000" data-original="#000000" class=""></path><path d="m132.78 394.37c-16.487 0-29.9 13.413-29.9 29.9s13.413 29.9 29.9 29.9c16.486 0 29.899-13.413 29.899-29.9s-13.412-29.9-29.899-29.9zm0 44.801c-8.216 0-14.9-6.685-14.9-14.9s6.685-14.9 14.9-14.9 14.899 6.685 14.899 14.9-6.683 14.9-14.899 14.9z" fill="#000000" data-original="#000000" class=""></path><path d="m354.408 401.122h-167.311c-4.143 0-7.5 3.357-7.5 7.5s3.357 7.5 7.5 7.5h167.312c4.143 0 7.5-3.357 7.5-7.5s-3.358-7.5-7.501-7.5z" fill="#000000" data-original="#000000" class=""></path><path d="m318.173 432.419h-131.076c-4.143 0-7.5 3.357-7.5 7.5s3.357 7.5 7.5 7.5h131.076c4.143 0 7.5-3.357 7.5-7.5s-3.358-7.5-7.5-7.5z" fill="#000000" data-original="#000000" class=""></path><path d="m488.53 130.677h-28.905c-11.673 0-21.63 10.996-21.628 25.584 0 10.752-.001 80.598-.001 97.208 0 4.143 3.357 7.5 7.5 7.5s7.5-3.357 7.5-7.5v-62.222h42.162v181.954h-42.162v-84.732c0-4.143-3.357-7.5-7.5-7.5s-7.5 3.357-7.5 7.5v92.232c0 .92.198 2.01.617 2.978.001.002.002.005.003.008l24.11 55.572c4.626 10.668 18.081 10.654 22.701.002l24.111-55.574c.002-.005.003-.01.006-.016.417-.967.614-2.048.614-2.97 0-7.736 0-219.652 0-224.44 0-14.108-9.702-25.584-21.628-25.584zm-35.533 45.57v-19.987c0-5.98 3.368-10.583 6.628-10.583h28.905c3.135 0 6.628 4.347 6.628 10.584v19.986zm21.08 251.486-17.151-39.532h34.303z" fill="#000000" data-original="#000000" class=""></path></g></g></g></svg>