<svg xmlns="http://www.w3.org/2000/svg" xmlns:xlink="http://www.w3.org/1999/xlink" width="512" zoomAndPan="magnify" viewBox="0 0 384 383.999986" height="512" preserveAspectRatio="xMidYMid meet" version="1.0"><defs><g/></defs><path fill="#ebebf5" d="M 304.5 5.625 L 154.5 5.625 L 42 118.125 L 42 340.875 C 42 361.585938 58.789062 378.375 79.5 378.375 L 304.5 378.375 C 325.210938 378.375 342 361.585938 342 340.875 L 342 43.125 C 342 22.414062 325.210938 5.625 304.5 5.625 Z M 304.5 5.625 " fill-opacity="1" fill-rule="nonzero"/><path fill="#a3d4ff" d="M 42 184.5 L 342 184.5 C 350.285156 184.5 357 191.214844 357 199.5 L 357 297 C 357 305.285156 350.285156 312 342 312 L 42 312 C 33.714844 312 27 305.285156 27 297 L 27 199.5 C 27 191.214844 33.714844 184.5 42 184.5 Z M 42 184.5 " fill-opacity="1" fill-rule="nonzero"/><path fill="#a3d4ff" d="M 57 297 L 57 199.5 C 57 191.214844 63.714844 184.5 72 184.5 L 42 184.5 C 33.714844 184.5 27 191.214844 27 199.5 L 27 297 C 27 305.285156 33.714844 312 42 312 L 72 312 C 63.714844 312 57 305.285156 57 297 Z M 57 297 " fill-opacity="1" fill-rule="nonzero"/><path fill="#000000" d="M 347.625 179.660156 L 347.625 95.761719 C 347.625 92.652344 345.105469 90.136719 342 90.136719 C 338.894531 90.136719 336.375 92.652344 336.375 95.761719 L 336.375 178.875 L 47.625 178.875 L 47.625 123.75 L 113.886719 123.75 C 139.382812 123.75 160.125 103.007812 160.125 77.511719 L 160.125 11.25 L 304.5 11.25 C 322.078125 11.25 336.375 25.546875 336.375 43.125 L 336.375 74.761719 C 336.375 77.867188 338.894531 80.386719 342 80.386719 C 345.105469 80.386719 347.625 77.867188 347.625 74.761719 L 347.625 43.125 C 347.625 19.34375 328.28125 0 304.5 0 L 154.5 0 C 153.007812 0 151.578125 0.59375 150.523438 1.648438 L 38.023438 114.148438 C 36.96875 115.203125 36.375 116.632812 36.375 118.125 L 36.375 179.660156 C 27.730469 182.117188 21.375 190.078125 21.375 199.5 L 21.375 297 C 21.375 306.421875 27.730469 314.382812 36.375 316.839844 L 36.375 340.875 C 36.375 364.65625 55.71875 384 79.5 384 L 304.5 384 C 328.28125 384 347.625 364.65625 347.625 340.875 L 347.625 316.839844 C 356.269531 314.382812 362.625 306.421875 362.625 297 L 362.625 199.5 C 362.625 190.078125 356.269531 182.117188 347.625 179.660156 Z M 113.886719 112.5 L 55.578125 112.5 L 148.875 19.203125 L 148.875 77.511719 C 148.875 96.804688 133.179688 112.5 113.886719 112.5 Z M 351.375 297 C 351.375 302.167969 347.167969 306.375 342 306.375 L 248.675781 306.375 C 245.566406 306.375 243.050781 308.894531 243.050781 312 C 243.050781 315.105469 245.566406 317.625 248.675781 317.625 L 336.375 317.625 L 336.375 340.875 C 336.375 358.453125 322.078125 372.75 304.5 372.75 L 79.5 372.75 C 61.921875 372.75 47.625 358.453125 47.625 340.875 L 47.625 317.625 L 227.675781 317.625 C 230.78125 317.625 233.300781 315.105469 233.300781 312 C 233.300781 308.894531 230.78125 306.375 227.675781 306.375 L 42 306.375 C 36.832031 306.375 32.625 302.167969 32.625 297 L 32.625 199.5 C 32.625 194.332031 36.832031 190.125 42 190.125 L 342 190.125 C 347.167969 190.125 351.375 194.332031 351.375 199.5 Z M 351.375 297 " fill-opacity="1" fill-rule="nonzero"/><g fill="#000000" fill-opacity="1"><g transform="translate(107.920897, 276.814065)"><g><path d="M 8.078125 0.640625 C 6.742188 0.640625 5.648438 0.28125 4.796875 -0.4375 C 3.941406 -1.15625 3.445312 -2.0625 3.3125 -3.15625 C 3.1875 -4.25 3.550781 -5.359375 4.40625 -6.484375 L 21.046875 -28.71875 L 5.28125 -49.84375 C 4.425781 -51.007812 4.050781 -52.140625 4.15625 -53.234375 C 4.257812 -54.328125 4.738281 -55.234375 5.59375 -55.953125 C 6.445312 -56.679688 7.515625 -57.046875 8.796875 -57.046875 C 10.773438 -57.046875 12.5625 -55.953125 14.15625 -53.765625 L 26.875 -36.15625 L 39.59375 -53.765625 C 41.195312 -55.953125 43.015625 -57.046875 45.046875 -57.046875 C 46.378906 -57.046875 47.46875 -56.695312 48.3125 -56 C 49.164062 -55.300781 49.644531 -54.40625 49.75 -53.3125 C 49.863281 -52.226562 49.46875 -51.070312 48.5625 -49.84375 L 32.796875 -28.71875 L 49.359375 -6.484375 C 50.210938 -5.359375 50.582031 -4.25 50.46875 -3.15625 C 50.363281 -2.0625 49.882812 -1.15625 49.03125 -0.4375 C 48.1875 0.28125 47.070312 0.640625 45.6875 0.640625 C 43.757812 0.640625 41.96875 -0.476562 40.3125 -2.71875 L 26.875 -21.125 L 13.515625 -2.71875 C 11.867188 -0.476562 10.054688 0.640625 8.078125 0.640625 Z M 8.078125 0.640625 "/></g></g></g><g fill="#000000" fill-opacity="1"><g transform="translate(161.67568, 276.814065)"><g><path d="M 10.953125 0.640625 C 7.859375 0.640625 6.3125 -0.957031 6.3125 -4.15625 L 6.3125 -52.234375 C 6.3125 -55.441406 7.914062 -57.046875 11.125 -57.046875 C 12.457031 -57.046875 13.507812 -56.789062 14.28125 -56.28125 C 15.050781 -55.769531 15.757812 -54.90625 16.40625 -53.6875 L 34.875 -19.515625 L 53.359375 -53.6875 C 53.992188 -54.90625 54.6875 -55.769531 55.4375 -56.28125 C 56.1875 -56.789062 57.226562 -57.046875 58.5625 -57.046875 C 61.65625 -57.046875 63.203125 -55.441406 63.203125 -52.234375 L 63.203125 -4.15625 C 63.203125 -0.957031 61.65625 0.640625 58.5625 0.640625 C 55.46875 0.640625 53.921875 -0.957031 53.921875 -4.15625 L 53.921875 -38 L 38.875 -10.5625 C 38.34375 -9.65625 37.78125 -8.988281 37.1875 -8.5625 C 36.601562 -8.132812 35.804688 -7.921875 34.796875 -7.921875 C 33.785156 -7.921875 32.957031 -8.144531 32.3125 -8.59375 C 31.675781 -9.050781 31.117188 -9.707031 30.640625 -10.5625 L 15.59375 -37.84375 L 15.59375 -4.15625 C 15.59375 -0.957031 14.046875 0.640625 10.953125 0.640625 Z M 10.953125 0.640625 "/></g></g></g><g fill="#000000" fill-opacity="1"><g transform="translate(231.108936, 276.814065)"><g><path d="M 11.359375 0 C 7.890625 0 6.15625 -1.757812 6.15625 -5.28125 L 6.15625 -51.4375 C 6.15625 -54.90625 7.863281 -56.640625 11.28125 -56.640625 C 14.695312 -56.640625 16.40625 -54.90625 16.40625 -51.4375 L 16.40625 -8.71875 L 39.59375 -8.71875 C 42.582031 -8.71875 44.078125 -7.28125 44.078125 -4.40625 C 44.078125 -1.46875 42.582031 0 39.59375 0 Z M 11.359375 0 "/></g></g></g></svg>