<svg xmlns="http://www.w3.org/2000/svg" version="1.1" xmlns:xlink="http://www.w3.org/1999/xlink" xmlns:svgjs="http://svgjs.com/svgjs" width="512" height="512" x="0" y="0" viewBox="0 0 512.017 512.017" style="enable-background:new 0 0 512 512" xml:space="preserve" class=""><g><g xmlns="http://www.w3.org/2000/svg" id="XMLID_2417_"><path id="XMLID_2485_" d="m10 30.032h416v364h-416z" fill="#f9f9f9" data-original="#f9f9f9" class=""></path><path id="XMLID_2477_" d="m10 30.032h416v88h-416z" fill="#f5737f" transform="matrix(-1 0 0 -1 436 148.063)" data-original="#f5737f" class=""></path><g id="XMLID_1078_"><path id="XMLID_2561_" d="m425.292 365.906 68.726 68.726c10.719 10.719 10.634 28.343-.189 39.165-10.822 10.822-28.447 10.907-39.165.189l-68.726-68.726z" fill="#79b2ff" data-original="#79b2ff"></path><circle id="XMLID_2559_" cx="327.689" cy="307.491" fill="#cee3ff" r="110.209" data-original="#cee3ff" class=""></circle></g><path id="XMLID_2615_" d="m153.472 324.032h-71.472c-13.255 0-24-10.745-24-24 0-13.255 10.745-24 24-24h71.472c13.255 0 24 10.745 24 24 0 13.254-10.746 24-24 24z" fill="#ffcb7c" data-original="#ffcb7c"></path><circle id="XMLID_2469_" cx="289.479" cy="307.491" fill="#f9f9f9" r="24" data-original="#f9f9f9" class=""></circle><g id="XMLID_94_"><g id="XMLID_95_"><path id="XMLID_114_" d="m359.558 64.031h-141.058c-5.522 0-10 4.477-10 10s4.478 10 10 10h141.058c5.522 0 10-4.477 10-10s-4.478-10-10-10z" fill="#000000" data-original="#000000" class=""></path><path id="XMLID_113_" d="m102.45 64.03c-2.631 0-5.21 1.07-7.07 2.93s-2.93 4.44-2.93 7.07c0 2.64 1.069 5.21 2.93 7.07 1.86 1.86 4.439 2.93 7.07 2.93 2.63 0 5.21-1.07 7.069-2.93 1.86-1.86 2.931-4.44 2.931-7.07s-1.07-5.21-2.931-7.07c-1.859-1.86-4.439-2.93-7.069-2.93z" fill="#000000" data-original="#000000" class=""></path><path id="XMLID_112_" d="m53.899 64.03c-2.63 0-5.21 1.07-7.069 2.93-1.86 1.86-2.931 4.44-2.931 7.07s1.07 5.21 2.931 7.07c1.859 1.86 4.439 2.93 7.069 2.93 2.641 0 5.21-1.07 7.07-2.93s2.93-4.44 2.93-7.07-1.069-5.21-2.93-7.07c-1.86-1.86-4.429-2.93-7.07-2.93z" fill="#000000" data-original="#000000" class=""></path><path id="XMLID_111_" d="m151 64.03c-2.63 0-5.21 1.07-7.07 2.93s-2.93 4.44-2.93 7.07 1.069 5.21 2.93 7.07c1.86 1.86 4.44 2.93 7.07 2.93s5.21-1.07 7.069-2.93c1.86-1.86 2.931-4.44 2.931-7.07s-1.07-5.21-2.931-7.07c-1.859-1.86-4.439-2.93-7.069-2.93z" fill="#000000" data-original="#000000" class=""></path><path id="XMLID_106_" d="m501.089 427.56-66.039-66.038c8.213-16.254 12.848-34.61 12.848-54.031 0-18.663-4.276-36.346-11.898-52.122v-225.338c0-5.523-4.478-10-10-10h-416c-5.522 0-10 4.477-10 10v364c0 5.522 4.478 10 10 10h62.735c5.522 0 10-4.478 10-10s-4.478-10-10-10h-52.735v-256h396v97.996c-21.979-23.808-53.431-38.745-88.312-38.745-66.283 0-120.209 53.925-120.209 120.209 0 29.056 10.363 55.736 27.586 76.541h-72.329c-5.522 0-10 4.478-10 10s4.478 10 10 10h93.409c20.004 14.863 44.764 23.669 71.543 23.669 19.333 0 37.611-4.594 53.81-12.738l66.094 66.094c7.289 7.288 16.873 10.929 26.48 10.929 9.697 0 19.418-3.709 26.827-11.117 14.75-14.749 14.834-38.663.19-53.309zm-481.089-319.529v-68h396v68zm207.479 199.46c0-55.255 44.953-100.209 100.209-100.209s100.21 44.954 100.21 100.209c0 55.256-44.954 100.21-100.21 100.21s-100.209-44.954-100.209-100.21zm259.279 159.235c-6.95 6.951-18.176 7.037-25.022.188l-62.723-62.722c9.604-7.102 18.117-15.596 25.237-25.186l62.696 62.696c6.848 6.847 6.763 18.073-.188 25.024z" fill="#000000" data-original="#000000" class=""></path><path id="XMLID_103_" d="m82 334.032h71.472c18.748 0 34-15.252 34-34s-15.252-34-34-34h-71.472c-18.748 0-34 15.252-34 34s15.252 34 34 34zm0-48h71.472c7.72 0 14 6.28 14 14s-6.28 14-14 14h-71.472c-7.72 0-14-6.28-14-14s6.28-14 14-14z" fill="#000000" data-original="#000000" class=""></path><path id="XMLID_102_" d="m64.98 238.158h95.353c5.522 0 10-4.477 10-10s-4.478-10-10-10h-95.353c-5.522 0-10 4.477-10 10s4.478 10 10 10z" fill="#000000" data-original="#000000" class=""></path><path id="XMLID_101_" d="m64.98 190.158h97.756c5.522 0 10-4.477 10-10s-4.478-10-10-10h-97.756c-5.522 0-10 4.477-10 10s4.478 10 10 10z" fill="#000000" data-original="#000000" class=""></path><path id="XMLID_100_" d="m241.667 190.158c5.522 0 10-4.477 10-10s-4.478-10-10-10h-30.681c-5.522 0-10 4.477-10 10s4.478 10 10 10z" fill="#000000" data-original="#000000" class=""></path><path id="XMLID_97_" d="m399.898 307.491c0-5.522-4.478-10-10-10h-67.922c-4.28-13.883-17.228-24-32.497-24-18.748 0-34 15.252-34 34s15.252 34 34 34c15.269 0 28.217-10.117 32.497-24h17.922v8.197c0 5.522 4.478 10 10 10s10-4.478 10-10v-8.197h20v3.51c0 5.522 4.478 10 10 10s10-4.478 10-10zm-110.419 14c-7.72 0-14-6.28-14-14s6.28-14 14-14 14 6.28 14 14-6.28 14-14 14z" fill="#000000" data-original="#000000" class=""></path><path id="XMLID_96_" d="m117.729 384.031c-2.63 0-5.199 1.069-7.06 2.93-1.87 1.859-2.94 4.439-2.94 7.07 0 2.63 1.07 5.21 2.94 7.069 1.85 1.86 4.43 2.931 7.06 2.931 2.641 0 5.221-1.07 7.08-2.931 1.86-1.859 2.931-4.439 2.931-7.069 0-2.631-1.07-5.211-2.931-7.07-1.87-1.861-4.439-2.93-7.08-2.93z" fill="#000000" data-original="#000000" class=""></path></g></g></g></g></svg>