<svg xmlns="http://www.w3.org/2000/svg" version="1.1" xmlns:xlink="http://www.w3.org/1999/xlink" xmlns:svgjs="http://svgjs.com/svgjs" width="512" height="512" x="0" y="0" viewBox="0 0 512.004 512.004" style="enable-background:new 0 0 512 512" xml:space="preserve" class=""><g><g xmlns="http://www.w3.org/2000/svg"><g><path d="m361.41 216.422c-3.805-20.967-10.992-40.77-20.977-58.82-5.652-10.216-19.014-13.131-28.492-6.313l-6.996 5.033c16.84 23.796 27.507 52.268 29.681 83.085h7.52c12.171 0 21.437-11.009 19.264-22.985z" fill="#dbedff" data-original="#dbedff" class=""></path><g><path d="m327.729 185.512c7.759-5.582 17.823-5.375 25.198-.438-3.462-9.525-7.645-18.707-12.494-27.472-5.651-10.216-19.014-13.131-28.492-6.313l-6.996 5.033c7.154 10.108 13.179 21.067 17.927 32.684z" fill="#b5dcff" data-original="#b5dcff"></path></g><path d="m330.718 354.047h144v61.419h-144z" fill="#ffe02f" data-original="#ffe02f"></path><path d="m330.718 384.757h144v30.709h-144z" fill="#fbc700" data-original="#fbc700"></path><path d="m171.719 86.81c-90.756 0-164.328 73.572-164.328 164.328s73.572 164.328 164.328 164.328h164.328v-164.328c0-90.755-73.572-164.328-164.328-164.328z" fill="#1ca8ff" data-original="#1ca8ff" class=""></path><path d="m56.659 251.138c0-82.383 60.625-150.602 139.694-162.489-8.036-1.208-16.261-1.839-24.634-1.839-90.756 0-164.328 73.572-164.328 164.328s73.572 164.328 164.328 164.328h49.268c-90.755 0-164.328-73.572-164.328-164.328z" fill="#0094fd" data-original="#0094fd" class=""></path><path d="m270.333 221.648c-12.68-42.462-52.028-73.419-98.613-73.419s-85.933 30.957-98.613 73.419z" fill="#ffe02f" data-original="#ffe02f"></path><path d="m73.106 280.628c12.68 42.462 52.028 73.419 98.613 73.419s85.933-30.957 98.613-73.419z" fill="#ffe02f" data-original="#ffe02f"></path><path d="m189.397 149.753c-5.744-.995-11.649-1.523-17.678-1.523-46.585 0-85.933 30.957-98.614 73.419h35.356c11.04-36.967 42.294-65.204 80.936-71.896z" fill="#fbc700" data-original="#fbc700"></path><path d="m108.462 280.628h-35.356c12.68 42.462 52.028 73.419 98.614 73.419 6.029 0 11.933-.529 17.678-1.523-38.643-6.692-69.897-34.929-80.936-71.896z" fill="#fbc700" data-original="#fbc700"></path><path d="m496.824 344.596h-16.874c-4.181 0-7.571 3.39-7.571 7.571v65.179c0 4.181 3.39 7.571 7.571 7.571h16.874c4.181 0 7.571-3.389 7.571-7.571v-65.179c0-4.181-3.389-7.571-7.571-7.571z" fill="#dbedff" data-original="#dbedff" class=""></path><path d="m496.824 391.584h-16.874c-4.181 0-7.571-3.389-7.571-7.571v33.333c0 4.181 3.39 7.571 7.571 7.571h16.874c4.181 0 7.571-3.389 7.571-7.571v-33.333c0 4.181-3.39 7.571-7.571 7.571z" fill="#b5dcff" data-original="#b5dcff"></path><path d="m234.977 221.648c-11.116-23.802-35.254-40.303-63.258-40.303s-52.142 16.501-63.258 40.303z" fill="#fbc700" data-original="#fbc700"></path><path d="m189.397 183.606c-5.646-1.475-11.569-2.261-17.678-2.261-28.004 0-52.142 16.501-63.258 40.303h35.355c8.692-18.61 25.345-32.756 45.581-38.042z" fill="#eab900" data-original="#eab900"></path><path d="m108.461 280.628c11.116 23.802 35.254 40.303 63.258 40.303s52.142-16.501 63.258-40.303z" fill="#fbc700" data-original="#fbc700"></path><path d="m143.817 280.628h-35.355c11.116 23.802 35.254 40.303 63.258 40.303 6.108 0 12.032-.786 17.678-2.26-20.237-5.286-36.89-19.432-45.581-38.043z" fill="#eab900" data-original="#eab900"></path><path d="m278.194 220.648h-212.95c-4.741 0-8.585 3.844-8.585 8.585v43.809c0 4.742 3.844 8.585 8.585 8.585h212.949c4.741 0 8.585-3.844 8.585-8.585v-43.809c.001-4.741-3.843-8.585-8.584-8.585z" fill="#dbedff" data-original="#dbedff" class=""></path><path d="m90.659 273.043v-43.809c0-4.741 3.844-8.585 8.585-8.585h-34c-4.741 0-8.585 3.844-8.585 8.585v43.809c0 4.742 3.844 8.585 8.585 8.585h34c-4.741 0-8.585-3.843-8.585-8.585z" fill="#b5dcff" data-original="#b5dcff"></path></g><g><path d="m275.855 214.287c-15.129-42.403-55.527-73.419-104.027-73.419-48.447 0-88.88 30.968-104.027 73.419h-2.448c-8.869 0-16.085 7.216-16.085 16.085v41.81c0 8.869 7.216 16.085 16.085 16.085h2.447c15.11 42.347 55.47 73.419 104.027 73.419 48.453 0 88.882-30.974 104.027-73.419h2.447c8.869 0 16.085-7.216 16.085-16.085v-41.81c0-8.869-7.216-16.085-16.085-16.085zm-104.027-58.42c38.417 0 73.239 23.569 87.961 58.419h-20.108c-13.463-24.631-39.581-40.303-67.853-40.303-28.271 0-54.389 15.672-67.853 40.303h-20.108c14.722-34.85 49.544-58.419 87.961-58.419zm50.101 58.42h-100.201c11.617-15.669 30.2-25.303 50.101-25.303 19.9 0 38.484 9.634 50.1 25.303zm-50.101 132.399c-38.417 0-73.239-23.568-87.961-58.419h20.108c13.464 24.631 39.583 40.303 67.853 40.303 28.271 0 54.39-15.672 67.853-40.303h20.108c-14.722 34.85-49.544 58.419-87.961 58.419zm-50.1-58.419h100.201c-11.616 15.669-30.199 25.303-50.101 25.303-19.9 0-38.483-9.634-50.1-25.303zm157.66-57.895v41.81c0 .598-.486 1.085-1.085 1.085h-212.949c-.599 0-1.085-.487-1.085-1.085v-41.81c0-.598.486-1.085 1.085-1.085h212.949c.598 0 1.085.487 1.085 1.085z" fill="#000000" data-original="#000000" class=""></path><path d="m496.934 337.235h-16.875c-6.323 0-11.739 3.919-13.972 9.451h-122.43v-33.659c0-4.142-3.357-7.5-7.5-7.5s-7.5 3.358-7.5 7.5v95.078h-156.829c-86.475 0-156.828-70.353-156.828-156.828s70.353-156.829 156.828-156.829c81.092 0 147.708 61.791 155.956 140.288.437.875.872 14.229.872 16.54v26.75c0 4.142 3.357 7.5 7.5 7.5s7.5-3.358 7.5-7.5v-26.75c0-1.418-.02-2.831-.054-4.241 16.746-.214 29.271-15.41 26.296-31.814-3.892-21.442-11.224-42.003-21.794-61.112-7.277-13.156-25.02-19.141-40.495-8.008-31.461-40.524-80.624-66.653-135.781-66.653-94.746 0-171.828 77.082-171.828 171.829s77.082 171.828 171.828 171.828h214.994c4.143 0 7.5-3.358 7.5-7.5s-3.357-7.5-7.5-7.5h-43.166v-46.419h12.692v5.99c0 4.142 3.357 7.5 7.5 7.5s7.5-3.358 7.5-7.5v-5.99h12.096v5.99c0 4.142 3.357 7.5 7.5 7.5s7.5-3.358 7.5-7.5v-5.99h12.097v5.99c0 4.142 3.357 7.5 7.5 7.5s7.5-3.358 7.5-7.5v-5.99h12.096v5.99c0 4.142 3.357 7.5 7.5 7.5s7.5-3.358 7.5-7.5v-5.99h12.352v46.419h-43.166c-4.143 0-7.5 3.358-7.5 7.5s3.357 7.5 7.5 7.5h44.264c2.234 5.532 7.65 9.451 13.972 9.451h16.875c8.31 0 15.07-6.761 15.07-15.07v-65.18c0-8.311-6.761-15.071-15.07-15.071zm-161.955-175.865c9.778 17.677 16.561 36.696 20.159 56.529 1.227 6.758-3.517 14.146-12.558 14.146-2.899-25.876-11.77-51.296-26.237-73.749 7.923-5.699 15.535-2.532 18.636 3.074zm161.955 256.185-16.945-.07.07-65.25h16.875l.07.071z" fill="#000000" data-original="#000000" class=""></path></g></g></g></svg>