<svg height="512" viewBox="0 0 60 60" width="512" xmlns="http://www.w3.org/2000/svg"><g id="Page-1" fill="none" fill-rule="evenodd"><g id="002---Text-Box"><path id="Path" d="m10 2v2c0 .55228475-.44771525 1-1 1h-3c-.55228475 0-1 .44771525-1 1v3c0 .55228475-.44771525 1-1 1h-2c-.55228475 0-1-.44771525-1-1v-6c.0032948-1.10320187.89679813-1.9967052 2-2h6c.26521649 0 .5195704.10535684.70710678.29289322s.29289322.44189029.29289322.70710678z" fill="#02a8f3"/><path id="Path" d="m10 56v2c0 .5522847-.44771525 1-1 1h-6c-1.10320187-.0032948-1.9967052-.8967981-2-2v-6c0-.5522847.44771525-1 1-1h2c.55228475 0 1 .4477153 1 1v3c0 .5522847.44771525 1 1 1h3c.55228475 0 1 .4477153 1 1z" fill="#02a8f3"/><path id="Path" d="m59 51v6c-.0032948 1.1032019-.8967981 1.9967052-2 2h-6c-.5522847 0-1-.4477153-1-1v-2c0-.5522847.4477153-1 1-1h3c.5522847 0 1-.4477153 1-1v-3c0-.5522847.4477153-1 1-1h2c.5522847 0 1 .4477153 1 1z" fill="#02a8f3"/><path id="Path" d="m58 50h-2c-.1776341.0045183-.3506058.0577936-.5.154.3048904.1733879.4951395.4952895.5.846v6c-.0032948 1.1032019-.8967981 1.9967052-2 2h3c1.1032019-.0032948 1.9967052-.8967981 2-2v-6c0-.2652165-.1053568-.5195704-.2928932-.7071068s-.4418903-.2928932-.7071068-.2928932z" fill="#0377bb"/><path id="Path" d="m59 3v6c0 .55228475-.4477153 1-1 1h-2c-.5522847 0-1-.44771525-1-1v-3c0-.55228475-.4477153-1-1-1h-3c-.5522847 0-1-.44771525-1-1v-2c0-.55228475.4477153-1 1-1h6c1.1032019.0032948 1.9967052.89679813 2 2z" fill="#02a8f3"/><path id="Path" d="m57 1h-3c1.1032019.0032948 1.9967052.89679813 2 2v6c-.0048605.35071054-.1951096.67261212-.5.846.1493942.09620642.3223659.1494817.5.154h2c.5522847 0 1-.44771525 1-1v-6c-.0032948-1.10320187-.8967981-1.9967052-2-2z" fill="#0377bb"/><path id="Path" d="m57 10v40h-1c-.5522847 0-1 .4477153-1 1v3c0 .5522847-.4477153 1-1 1h-3c-.5522847 0-1 .4477153-1 1v1h-40v-1c0-.5522847-.44771525-1-1-1h-3c-.55228475 0-1-.4477153-1-1v-3c0-.5522847-.44771525-1-1-1h-1v-40h1c.55228475 0 1-.44771525 1-1v-3c0-.55228475.44771525-1 1-1h3c.55228475 0 1-.44771525 1-1v-1h40v1c0 .55228475.4477153 1 1 1h3c.5522847 0 1 .44771525 1 1v3c0 .55228475.4477153 1 1 1z" fill="#f4f4f4"/><path id="Path" d="m56 10c-.5522847 0-1-.44771525-1-1v-3c0-.55228475-.4477153-1-1-1h-3c.5522847 0 1 .44771525 1 1v3c0 .55228475.4477153 1 1 1h1v40h-1c-.5522847 0-1 .4477153-1 1v3c0 .5522847-.4477153 1-1 1h3c.5522847 0 1-.4477153 1-1v-3c0-.5522847.4477153-1 1-1h1v-40z" fill="#ced7db"/><g fill="#000"><path id="Shape" d="m2 11v2c0 .5522847.44771525 1 1 1s1-.4477153 1-1v-2c1.1045695 0 2-.8954305 2-2v-3h3c1.1045695 0 2-.8954305 2-2h2c.5522847 0 1-.44771525 1-1s-.4477153-1-1-1h-2c0-1.1045695-.8954305-2-2-2h-6c-1.65685425 0-3 1.34314575-3 3v6c0 1.1045695.8954305 2 2 2zm0-8c0-.55228475.44771525-1 1-1h6v2h-3c-1.1045695 0-2 .8954305-2 2v3h-2z" fill-rule="nonzero"/><path id="Path" d="m4 29c0-.5522847-.44771525-1-1-1s-1 .4477153-1 1v2c0 .5522847.44771525 1 1 1s1-.4477153 1-1z"/><path id="Path" d="m4 23c0-.5522847-.44771525-1-1-1s-1 .4477153-1 1v2c0 .5522847.44771525 1 1 1s1-.4477153 1-1z"/><path id="Path" d="m4 17c0-.5522847-.44771525-1-1-1s-1 .4477153-1 1v2c0 .5522847.44771525 1 1 1s1-.4477153 1-1z"/><path id="Path" d="m4 35c0-.5522847-.44771525-1-1-1s-1 .4477153-1 1v2c0 .5522847.44771525 1 1 1s1-.4477153 1-1z"/><path id="Path" d="m3 40c-.55228475 0-1 .4477153-1 1v2c0 .5522847.44771525 1 1 1s1-.4477153 1-1v-2c0-.5522847-.44771525-1-1-1z"/><path id="Shape" d="m3 60h6c1.1045695 0 2-.8954305 2-2h2c.5522847 0 1-.4477153 1-1s-.4477153-1-1-1h-2c0-1.1045695-.8954305-2-2-2h-3v-3c0-1.1045695-.8954305-2-2-2v-2c0-.5522847-.44771525-1-1-1s-1 .4477153-1 1v2c-1.1045695 0-2 .8954305-2 2v6c0 1.6568542 1.34314575 3 3 3zm-1-9h2v3c0 1.1045695.8954305 2 2 2h3v2h-6c-.55228475 0-1-.4477153-1-1z" fill-rule="nonzero"/><path id="Path" d="m31 58c.5522847 0 1-.4477153 1-1s-.4477153-1-1-1h-2c-.5522847 0-1 .4477153-1 1s.4477153 1 1 1z"/><path id="Path" d="m25 58c.5522847 0 1-.4477153 1-1s-.4477153-1-1-1h-2c-.5522847 0-1 .4477153-1 1s.4477153 1 1 1z"/><path id="Path" d="m19 58c.5522847 0 1-.4477153 1-1s-.4477153-1-1-1h-2c-.5522847 0-1 .4477153-1 1s.4477153 1 1 1z"/><path id="Shape" d="m58 49v-2c0-.5522847-.4477153-1-1-1s-1 .4477153-1 1v2c-1.1045695 0-2 .8954305-2 2v3h-3c-1.1045695 0-2 .8954305-2 2h-2c-.5522847 0-1 .4477153-1 1s.4477153 1 1 1h2c0 1.1045695.8954305 2 2 2h6c1.6568542 0 3-1.3431458 3-3v-6c0-1.1045695-.8954305-2-2-2zm0 8c0 .5522847-.4477153 1-1 1h-6v-2h3c1.1045695 0 2-.8954305 2-2v-3h2z" fill-rule="nonzero"/><path id="Path" d="m56 31c0 .5522847.4477153 1 1 1s1-.4477153 1-1v-2c0-.5522847-.4477153-1-1-1s-1 .4477153-1 1z"/><path id="Path" d="m56 37c0 .5522847.4477153 1 1 1s1-.4477153 1-1v-2c0-.5522847-.4477153-1-1-1s-1 .4477153-1 1z"/><path id="Path" d="m56 43c0 .5522847.4477153 1 1 1s1-.4477153 1-1v-2c0-.5522847-.4477153-1-1-1s-1 .4477153-1 1z"/><path id="Shape" d="m57 0h-6c-1.1045695 0-2 .8954305-2 2h-2c-.5522847 0-1 .44771525-1 1s.4477153 1 1 1h2c0 1.1045695.8954305 2 2 2h3v3c0 1.1045695.8954305 2 2 2v2c0 .5522847.4477153 1 1 1s1-.4477153 1-1v-2c1.1045695 0 2-.8954305 2-2v-6c0-1.65685425-1.3431458-3-3-3zm-1 9v-3c0-1.1045695-.8954305-2-2-2h-3v-2h6c.5522847 0 1 .44771525 1 1v6z" fill-rule="nonzero"/><path id="Path" d="m29 4h2c.5522847 0 1-.44771525 1-1s-.4477153-1-1-1h-2c-.5522847 0-1 .44771525-1 1s.4477153 1 1 1z"/><path id="Path" d="m35 4h2c.5522847 0 1-.44771525 1-1s-.4477153-1-1-1h-2c-.5522847 0-1 .44771525-1 1s.4477153 1 1 1z"/><path id="Path" d="m41 4h2c.5522847 0 1-.44771525 1-1s-.4477153-1-1-1h-2c-.5522847 0-1 .44771525-1 1s.4477153 1 1 1z"/><path id="Path" d="m23 4h2c.5522847 0 1-.44771525 1-1s-.4477153-1-1-1h-2c-.5522847 0-1 .44771525-1 1s.4477153 1 1 1z"/><path id="Path" d="m17 4h2c.5522847 0 1-.44771525 1-1s-.4477153-1-1-1h-2c-.5522847 0-1 .44771525-1 1s.4477153 1 1 1z"/><path id="Path" d="m56 25c0 .5522847.4477153 1 1 1s1-.4477153 1-1v-2c0-.5522847-.4477153-1-1-1s-1 .4477153-1 1z"/><path id="Path" d="m57 20c.5522847 0 1-.4477153 1-1v-2c0-.5522847-.4477153-1-1-1s-1 .4477153-1 1v2c0 .5522847.4477153 1 1 1z"/><path id="Path" d="m37 58c.5522847 0 1-.4477153 1-1s-.4477153-1-1-1h-2c-.5522847 0-1 .4477153-1 1s.4477153 1 1 1z"/><path id="Path" d="m43 58c.5522847 0 1-.4477153 1-1s-.4477153-1-1-1h-2c-.5522847 0-1 .4477153-1 1s.4477153 1 1 1z"/><path id="Shape" d="m9 15v10c0 .5522847.44771525 1 1 1 .5522847 0 1-.4477153 1-1v-5h8v5c0 .5522847.4477153 1 1 1s1-.4477153 1-1v-10c0-3.3137085-2.6862915-6-6-6s-6 2.6862915-6 6zm6-4c2.209139 0 4 1.790861 4 4v3h-8v-3c0-2.209139 1.790861-4 4-4z" fill-rule="nonzero"/><path id="Path" d="m27 13h23c.5522847 0 1-.4477153 1-1s-.4477153-1-1-1h-23c-.5522847 0-1 .4477153-1 1s.4477153 1 1 1z"/><path id="Path" d="m50 17h-23c-.5522847 0-1 .4477153-1 1s.4477153 1 1 1h23c.5522847 0 1-.4477153 1-1s-.4477153-1-1-1z"/><path id="Path" d="m50 23h-23c-.5522847 0-1 .4477153-1 1s.4477153 1 1 1h23c.5522847 0 1-.4477153 1-1s-.4477153-1-1-1z"/><path id="Path" d="m50 29h-40c-.55228475 0-1 .4477153-1 1s.44771525 1 1 1h40c.5522847 0 1-.4477153 1-1s-.4477153-1-1-1z"/><path id="Path" d="m50 35h-40c-.55228475 0-1 .4477153-1 1s.44771525 1 1 1h40c.5522847 0 1-.4477153 1-1s-.4477153-1-1-1z"/><path id="Path" d="m50 41h-40c-.55228475 0-1 .4477153-1 1s.44771525 1 1 1h40c.5522847 0 1-.4477153 1-1s-.4477153-1-1-1z"/><path id="Path" d="m51 48c0-.5522847-.4477153-1-1-1h-40c-.55228475 0-1 .4477153-1 1s.44771525 1 1 1h40c.5522847 0 1-.4477153 1-1z"/></g></g></g></svg>