<svg xmlns="http://www.w3.org/2000/svg" version="1.1" xmlns:xlink="http://www.w3.org/1999/xlink" xmlns:svgjs="http://svgjs.com/svgjs" width="512" height="512" x="0" y="0" viewBox="0 0 128 128" style="enable-background:new 0 0 512 512" xml:space="preserve" class=""><g><g xmlns="http://www.w3.org/2000/svg"><g fill="#e6e7e8"><path d="m61.992 68.118v-50.52c0-.265-.105-.52-.293-.707s-.442-.293-.707-.293c-28.615.005-51.894 23.288-51.894 51.902 0 28.619 23.283 51.902 51.902 51.902 12.797 0 25.093-4.704 34.623-13.245.411-.369.446-1 .077-1.412z" fill="#e6e7e8" data-original="#e6e7e8" class=""></path><path d="m71 11.598h-.008c-.552 0-1 .448-1 1v50.902c0 .246.091.484.255.667l33.964 37.913c.177.197.425.316.69.331.018.001.037.001.055.001.246 0 .483-.09.667-.255 10.981-9.842 17.279-23.932 17.279-38.658 0-28.618-23.283-51.901-51.902-51.901z" fill="#e6e7e8" data-original="#e6e7e8" class=""></path></g><g><path d="m56.992 64.5v-50.902c-28.109.004-50.894 22.792-50.894 50.902 0 28.113 22.79 50.902 50.902 50.902 13.049 0 24.947-4.916 33.955-12.99z" fill="#fa759e" data-original="#fa759e" class=""></path><path d="m67 8.598c-.003 0-.005 0-.008 0v50.902l33.964 37.913c10.399-9.32 16.947-22.849 16.947-37.913-.001-28.113-22.79-50.902-50.903-50.902z" fill="#6dc9f7" data-original="#6dc9f7" class=""></path><path d="m67 8.598c-.003 0-.005 0-.008 0v1.059c27.033 1.216 48.577 23.511 48.577 50.844 0 14.198-5.821 27.03-15.197 36.262l.583.651c10.399-9.32 16.947-22.849 16.947-37.913 0-28.114-22.789-50.903-50.902-50.903z" fill="#ffffff" data-original="#ffffff" class=""></path><g fill="#3a2c60"><path d="m57.992 64.118v-50.52c0-.265-.105-.52-.293-.707s-.442-.293-.707-.293c-6.038.001-11.954 1.03-17.584 3.058-.52.188-.789.76-.602 1.28.187.519.759.789 1.28.602 5.102-1.838 10.448-2.822 15.907-2.93v49.892c0 .246.091.484.255.667l33.29 37.161c-9.054 7.794-20.568 12.074-32.538 12.074-27.516 0-49.902-22.386-49.902-49.902 0-15.476 7.004-29.82 19.217-39.356.436-.34.513-.968.173-1.403-.34-.437-.969-.512-1.403-.173-12.703 9.917-19.987 24.836-19.987 40.932 0 28.619 23.283 51.902 51.902 51.902 12.797 0 25.093-4.704 34.623-13.245.411-.369.446-1 .077-1.412z" fill="#3a2c60" data-original="#3a2c60" class=""></path><path d="m28.917 23.04c.189 0 .381-.054.551-.167 2.14-1.418 4.404-2.678 6.729-3.746.502-.23.722-.824.492-1.326-.23-.503-.825-.723-1.326-.492-2.419 1.11-4.774 2.421-6.999 3.896-.46.305-.586.926-.281 1.386.192.291.51.449.834.449z" fill="#3a2c60" data-original="#3a2c60" class=""></path><path d="m67 7.598h-.008c-.552 0-1 .448-1 1v50.902c0 .246.091.484.255.667l33.964 37.913c.177.197.425.316.69.331.018.001.037.001.055.001.246 0 .483-.09.667-.255 10.981-9.842 17.279-23.932 17.279-38.658 0-28.618-23.283-51.901-51.902-51.901zm34.026 88.395-33.034-36.875v-49.511c27.061.529 48.911 22.707 48.911 49.893-.001 13.825-5.775 27.067-15.877 36.493z" fill="#3a2c60" data-original="#3a2c60" class=""></path></g><g><path d="m34.996 54.466v1.916c1.266.131 2.353.392 3.256.782.906.39 1.695.982 2.371 1.774.532.605.943 1.225 1.232 1.863.289.64.435 1.225.435 1.759 0 .592-.217 1.103-.648 1.535-.431.431-.956.648-1.57.648-1.159 0-1.912-.627-2.254-1.882-.392-1.479-1.331-2.461-2.823-2.946v7.384c1.468.401 2.636.769 3.506 1.1.868.332 1.647.81 2.334 1.438.732.652 1.298 1.428 1.693 2.334.398.906.596 1.897.596 2.972 0 1.35-.317 2.612-.95 3.79s-1.565 2.138-2.795 2.885c-1.23.745-2.692 1.189-4.384 1.331v1.699c0 .698-.067 1.206-.204 1.525-.136.319-.435.48-.896.48-.426 0-.726-.131-.896-.39-.172-.261-.258-.663-.258-1.208v-2.071c-1.385-.155-2.595-.48-3.63-.976-1.036-.497-1.899-1.115-2.592-1.856-.693-.739-1.204-1.509-1.535-2.306-.332-.799-.499-1.583-.499-2.353 0-.568.222-1.079.667-1.535.444-.456.997-.683 1.66-.683.532 0 .982.123 1.348.372.368.25.622.599.764 1.047.319.971.597 1.714.835 2.227.235.515.594.986 1.074 1.412s1.115.752 1.908.976v-8.253c-1.585-.439-2.911-.926-3.977-1.466-1.064-.538-1.929-1.303-2.59-2.298-.663-.993-.995-2.272-.995-3.833 0-2.035.648-3.704 1.944-5.006 1.296-1.301 3.168-2.058 5.618-2.272v-1.88c0-.995.372-1.492 1.118-1.492.758.001 1.137.486 1.137 1.457zm-2.253 12.175v-6.798c-.995.297-1.77.687-2.325 1.173-.556.484-.835 1.217-.835 2.199 0 .935.26 1.643.78 2.121.522.48 1.314.915 2.38 1.305zm2.253 5.271v7.775c1.195-.237 2.117-.715 2.769-1.438s.976-1.563.976-2.521c0-1.029-.317-1.824-.95-2.386-.633-.561-1.564-1.039-2.795-1.43z" fill="#ffffff" data-original="#ffffff" class=""></path></g><g fill="#fff"><path d="m103.506 52.03c-.208-.742-.527-1.363-.958-1.862s-.951-.873-1.558-1.122-1.317-.374-2.127-.374c-1.683 0-2.911.512-3.685 1.535s-1.161 2.548-1.161 4.573c0 1.267.21 2.332.631 3.194s1.002 1.501 1.745 1.916c.743.416 1.587.623 2.532.623 1.516 0 2.711-.483 3.583-1.449.873-.966 1.309-2.441 1.309-4.425 0-.996-.104-1.866-.311-2.609zm-3.023 5.547c-.28.66-.8.989-1.558.989-.748 0-1.27-.322-1.566-.966s-.444-1.662-.444-3.054c0-.904.06-1.638.18-2.205.119-.566.324-.994.615-1.285s.696-.436 1.215-.436c.737 0 1.252.309 1.542.927.291.618.437 1.597.437 2.937 0 1.403-.14 2.434-.421 3.093z" fill="#ffffff" data-original="#ffffff" class=""></path><path d="m86.554 47.8c.873-.966 1.309-2.441 1.309-4.425 0-.997-.104-1.864-.312-2.602-.208-.737-.525-1.363-.95-1.877-.426-.514-.945-.896-1.558-1.145s-1.324-.374-2.135-.374c-1.122 0-2.044.234-2.766.701s-1.244 1.153-1.565 2.057c-.322.904-.483 2.031-.483 3.381 0 1.257.208 2.322.623 3.194.415.873.994 1.514 1.737 1.924s1.582.615 2.516.615c1.517 0 2.711-.483 3.584-1.449zm-5.383-2.259c-.109-.582-.164-1.335-.164-2.259 0-.893.055-1.628.164-2.205.109-.576.312-1.013.607-1.309.296-.296.693-.444 1.192-.444.737 0 1.252.309 1.543.927s.436 1.608.436 2.968c0 1.413-.138 2.446-.413 3.101-.275.654-.797.982-1.566.982-.509 0-.909-.148-1.2-.444-.29-.297-.49-.735-.599-1.317z" fill="#ffffff" data-original="#ffffff" class=""></path><path d="m98.052 37.478c-.645-.398-1.49-.199-1.888.445l-13.104 21.19c-.398.644-.199 1.489.445 1.888.225.139.474.205.72.205.459 0 .908-.231 1.168-.65l13.105-21.19c.398-.644.199-1.489-.446-1.888z" fill="#ffffff" data-original="#ffffff" class=""></path></g></g></g></g></svg>