<svg width="58" height="21" viewBox="0 0 58 21" fill="none" xmlns="http://www.w3.org/2000/svg">
<path d="M24.6812 8.16663V14H23.2058V11.0915L22.4782 14H21.2097L20.4821 11.0915V14H19V8.16663H20.8159L21.8573 11.6683L22.872 8.16663H24.6812Z" fill="#3B5998"/>
<path d="M26.832 9.62496V10.3418H28.3007V11.7177H26.832V12.5416H28.501V14H25.35V8.16663H28.501V9.62496H26.832Z" fill="#3B5998"/>
<path d="M32.7713 8.16663V9.61672H31.5163V14H30.0342V9.61672H28.7925V8.16663H32.7713Z" fill="#3B5998"/>
<path d="M36.2042 13.1184H34.6287L34.395 14H32.8395L34.5686 8.16663H36.2776L38 14H36.4378L36.2042 13.1184ZM35.8437 11.7424L35.4164 10.1193L34.9892 11.7424H35.8437Z" fill="#3B5998"/>
<path d="M7.48359 21L0 10.5244L7.48359 0H19L11.5164 10.5244L19 21H7.48359Z" fill="#3B5998"/>
<path d="M50.3499 21L57.8335 10.5244L50.3499 0H38.8335L46.3171 10.5244L38.8335 21H50.3499Z" fill="#3B5998"/>
</svg>
