<svg xmlns="http://www.w3.org/2000/svg" version="1.1" xmlns:xlink="http://www.w3.org/1999/xlink" xmlns:svgjs="http://svgjs.com/svgjs" width="512" height="512" x="0" y="0" viewBox="0 0 512 512" style="enable-background:new 0 0 512 512" xml:space="preserve" class=""><g><g xmlns="http://www.w3.org/2000/svg" id="_16.Podium" data-name="16.Podium"><path d="m53.29 311.69h123.88a0 0 0 0 1 0 0v189.31a0 0 0 0 1 0 0h-123.36a34.31 34.31 0 0 1 -34.31-34.31v-121.21a33.79 33.79 0 0 1 33.79-33.79z" fill="#8bd5ef" data-original="#8bd5ef" class=""></path><path d="m334.83 259.1h123.88a33.79 33.79 0 0 1 33.79 33.79v173.8a34.31 34.31 0 0 1 -34.31 34.31h-123.36a0 0 0 0 1 0 0v-241.9a0 0 0 0 1 0 0z" fill="#8bd5ef" data-original="#8bd5ef" class=""></path><path d="m271.54 20.66 11.91 24.16a17.33 17.33 0 0 0 13 9.48l26.64 3.87a17.34 17.34 0 0 1 9.61 29.57l-19.28 18.8a17.34 17.34 0 0 0 -5 15.35l4.58 26.54a17.33 17.33 0 0 1 -25.14 18.28l-23.83-12.54a17.34 17.34 0 0 0 -16.12 0l-23.83 12.54a17.33 17.33 0 0 1 -25.08-18.28l4.55-26.54a17.34 17.34 0 0 0 -5-15.35l-19.28-18.8a17.34 17.34 0 0 1 9.61-29.57l26.64-3.87a17.33 17.33 0 0 0 13-9.48l11.91-24.16a17.33 17.33 0 0 1 31.11 0z" fill="#8bd5ef" data-original="#8bd5ef" class=""></path><g fill="#1d71a0"><path d="m177.17 507h-123.36a40.35 40.35 0 0 1 -40.31-40.31v-57.89a6 6 0 0 1 12 0v57.89a28.34 28.34 0 0 0 28.31 28.31h117.36v-177.31h-117.88a27.83 27.83 0 0 0 -27.79 27.79v16.52a6 6 0 0 1 -12 0v-16.52a39.84 39.84 0 0 1 39.79-39.79h123.88a6 6 0 0 1 6 6v189.31a6 6 0 0 1 -6 6z" fill="#1d71a0" data-original="#1d71a0"></path><path d="m19.5 395.9a6 6 0 0 1 -6-6v-9a6 6 0 0 1 12 0v9a6 6 0 0 1 -6 6z" fill="#1d71a0" data-original="#1d71a0"></path><path d="m334.83 507h-157.66a6 6 0 0 1 -6-6v-260.69a39.84 39.84 0 0 1 39.83-39.79h90a39.84 39.84 0 0 1 39.79 39.79v260.69a6 6 0 0 1 -5.96 6zm-151.66-12h145.66v-254.69a27.81 27.81 0 0 0 -27.83-27.79h-90a27.81 27.81 0 0 0 -27.79 27.79z" fill="#1d71a0" data-original="#1d71a0"></path><path d="m458.19 507h-123.36a6 6 0 0 1 -6-6v-241.9a6 6 0 0 1 6-6h123.88a39.84 39.84 0 0 1 39.79 39.79v173.8a40.35 40.35 0 0 1 -40.31 40.31zm-117.36-12h117.36a28.34 28.34 0 0 0 28.31-28.31v-173.8a27.83 27.83 0 0 0 -27.79-27.79h-117.88z" fill="#1d71a0" data-original="#1d71a0"></path><path d="m296 174.73a23.33 23.33 0 0 1 -10.9-2.73l-23.83-12.54a11.35 11.35 0 0 0 -10.54 0l-23.83 12.54a23.33 23.33 0 0 1 -33.84-24.6l4.55-26.55a11.33 11.33 0 0 0 -3.26-10l-19.28-18.85a23.34 23.34 0 0 1 12.93-39.76l26.64-3.88a11.3 11.3 0 0 0 8.53-6.2l11.91-24.16a23.32 23.32 0 0 1 41.84 0l11.91 24.15a11.3 11.3 0 0 0 8.53 6.2l26.64 3.89a23.34 23.34 0 0 1 12.93 39.76l-19.28 18.8a11.33 11.33 0 0 0 -3.26 10l4.55 26.55a23.39 23.39 0 0 1 -23 27.31zm-40-28.55a23.42 23.42 0 0 1 10.86 2.68l23.82 12.54a11.33 11.33 0 0 0 16.43-12l-4.55-26.55a23.35 23.35 0 0 1 6.71-20.65l19.28-18.8a11.34 11.34 0 0 0 -6.28-19.34l-26.64-3.87a23.33 23.33 0 0 1 -17.56-12.77l-11.91-24.1a11.33 11.33 0 0 0 -20.32 0l-11.91 24.15a23.33 23.33 0 0 1 -17.56 12.77l-26.64 3.87a11.34 11.34 0 0 0 -6.28 19.34l19.28 18.8a23.35 23.35 0 0 1 6.71 20.65l-4.55 26.55a11.33 11.33 0 0 0 16.43 12l23.82-12.54a23.42 23.42 0 0 1 10.86-2.73z" fill="#1d71a0" data-original="#1d71a0"></path></g></g></g></svg>