<svg xmlns="http://www.w3.org/2000/svg" version="1.1" xmlns:xlink="http://www.w3.org/1999/xlink" xmlns:svgjs="http://svgjs.com/svgjs" width="512" height="512" x="0" y="0" viewBox="0 0 512 512" style="enable-background:new 0 0 512 512" xml:space="preserve" class=""><g><g xmlns="http://www.w3.org/2000/svg"><g><path d="m247.575 420.249-.512.001c-1.965 0-3.877.58-5.529 1.678-8.202 5.444-17.752 8.322-27.621 8.322-13.796 0-27.113-5.784-36.537-15.868-9.557-10.227-14.296-23.579-13.345-37.598 1.708-25.179 22.013-45.154 47.231-46.465.88-.046 1.772-.069 2.651-.069 9.824 0 19.338 2.854 27.515 8.253 1.731 1.144 3.68 1.747 5.638 1.747h.665l.166-91.738 164.756-48.417 91.847 56.315-.43 223.09-28.522 22.223-228.144-4.426z" fill="#aad8de" data-original="#aad8de" class=""></path><g><path d="m410.02 266.267v.169c0 3.978 1.218 7.844 3.412 11.162 4.523 6.843 6.989 15.164 6.535 24.082-1.017 20.016-17.088 36.417-37.081 37.81-23.386 1.63-42.866-16.862-42.866-39.9 0-8.163 2.443-15.755 6.646-22.079 2.182-3.283 3.354-7.131 3.354-11.073v-.296c0-5.516-4.467-9.991-9.983-10l-84.037-.142-26.915-130.447 27.375-118.053h218.04c16.569 0 30 13.431 30 30v218.91l-84.463-.143c-5.529-.009-10.017 4.47-10.017 10z" fill="#94ccd4" data-original="#94ccd4" class=""></path></g><g><path d="m7.5 255.59v-218.09c0-16.569 13.431-30 30-30h55.5 35 128l.308 84.232c-.01 5.53 4.47 10.018 10 10.018h.511c3.937 0 7.781-1.169 11.061-3.347 6.33-4.202 13.924-6.653 22.089-6.653 23.013 0 41.489 19.437 39.905 42.789-1.357 20.008-17.746 36.114-37.773 37.156-8.937.465-17.276-2.012-24.138-6.542-3.315-2.189-7.176-3.402-11.148-3.402h-.665c-5.516 0-9.99 4.466-10 9.982l-.029 83.858h-248.621z" fill="#aad8de" data-original="#aad8de" class=""></path></g><path d="m256 256-.16 84.53v.11c-.32 5.23-4.67 9.38-9.98 9.38h-.3c-3.94 0-7.79-1.17-11.07-3.35-6.32-4.21-13.92-6.65-22.08-6.65-23.04 0-41.53 19.48-39.9 42.87 1.39 19.99 17.79 36.06 37.81 37.08 8.92.45 17.24-2.02 24.08-6.54 3.32-2.19 7.19-3.41 11.16-3.41h.17c5.24 0 9.55 4.05 9.97 9.19v.02l-.113 60.27-8.629 17.798-193.208.452c-16.57 0-30-13.43-30-30l-6.009-200.152 7.087-11.954 66.902.086c5.53.01 10.02-4.47 10.02-10v-.09c0-3.97-1.21-7.83-3.4-11.14-4.55-6.88-7.02-15.25-6.54-24.21 1.08-20.03 17.22-36.38 37.23-37.7 23.32-1.54 42.71 16.92 42.71 39.91 0 8.16-2.45 15.75-6.65 22.08-2.18 3.28-3.35 7.12-3.35 11.06v.22c0 5.51 4.47 9.99 9.98 10z" fill="#94ccd4" data-original="#94ccd4" class=""></path><g><path d="m504.07 479.5c-2.37 14.19-14.7 25-29.57 25h-218.91l-12.718-14.862 12.758-10.138z" fill="#94ccd4" data-original="#94ccd4" class=""></path></g><g><path d="m32.5 7.93v247.71l-.45.73-10.03 16.25-13.82-16.21-.7-.82v-218.09c0-14.87 10.81-27.2 25-29.57z" fill="#94ccd4" data-original="#94ccd4" class=""></path><path d="m255.59 479.5-.05 25h-218.04c-16.569 0-30-13.431-30-30v-218.91l25.001.05v203.86c0 11.046 8.954 20 20 20z" fill="#6fbbc6" data-original="#6fbbc6"></path></g></g><g><path d="m474.5 0h-346.5c-4.142 0-7.5 3.357-7.5 7.5s3.358 7.5 7.5 7.5h120.707l.101 76.719c-.144 8.608 7.667 17.928 18.011 17.531 5.419 0 10.679-1.59 15.21-4.599 5.322-3.533 11.526-5.401 17.94-5.401 17.386-.401 34.092 15.914 32.423 34.782-1.091 16.081-14.566 29.335-30.68 30.172-7.023.363-13.801-1.473-19.614-5.31-3.552-2.353-9.905-4.794-15.946-4.645-9.632 0-17.482 7.836-17.5 17.469l-.029 16.268c-.007 4.143 3.344 7.506 7.486 7.514h.014c4.136 0 7.492-3.35 7.499-7.486l.03-16.268c.002-1.376 1.124-2.496 2.5-2.496 2.059-.02 4.149.247 7.68 2.161 8.509 5.617 18.42 8.298 28.66 7.773 23.956-1.246 43.244-20.221 44.865-44.138 2.479-25.955-20.301-51.313-47.388-50.797-9.375 0-18.448 2.733-26.237 7.905-1.283.85-4.031 2.032-7.425 2.095-.901 0-1.495-.46-1.769-.733-.273-.274-.732-.869-.731-1.812l-.027-76.704h210.72c12.406 0 22.5 10.094 22.5 22.5v211h-76.949c-.011 0-.021 0-.031 0-4.584 0-8.927 1.815-12.231 5.113-3.348 3.343-5.269 7.955-5.269 12.653-.025 4.126 1.313 10.32 4.655 15.468 3.824 5.787 5.658 12.552 5.302 19.564-.832 16.369-13.777 29.571-30.112 30.71-17.367 1.634-35.211-13.488-34.845-32.419 0-6.42 1.864-12.619 5.394-17.928 2.277-3.412 4.663-9.551 4.606-15.52 0-9.711-7.837-17.626-17.482-17.643h-76.524l.046-25.486c.008-4.143-3.345-7.506-7.486-7.514-.005 0-.009 0-.014 0-4.135 0-7.492 3.35-7.5 7.486l-.046 25.514h-76.631c-1.378-.002-2.633-1.261-2.633-2.64v-.221c0-2.456.725-4.845 2.1-6.913 5.168-7.79 7.9-16.859 7.9-26.227.542-25.919-23.645-49.873-50.704-47.394-23.921 1.578-42.934 20.829-44.226 44.782-.551 10.285 2.137 20.227 7.774 28.749 1.41 2.132 2.155 4.553 2.155 7.093 0 .762-.326 1.524-.893 2.091-.333.333-.884.729-1.583.729-.001 0-.002 0-.003 0l-76.77-.047v-211c0-12.406 10.093-22.5 22.5-22.5h55.5c4.142 0 7.5-3.357 7.5-7.5s-3.358-7.5-7.5-7.5h-55.5c-20.678 0-37.5 16.822-37.5 37.5v437c0 20.678 16.822 37.5 37.5 37.5h437c20.678 0 37.5-16.822 37.5-37.5v-31.5c0-4.143-3.357-7.5-7.5-7.5s-7.5 3.357-7.5 7.5v31.5c0 12.406-10.094 22.5-22.5 22.5h-210.99c-.056-3.203.111-75.009-.049-78.364-.719-9.037-8.507-16.116-17.731-16.116h-.17c-5.39 0-10.677 1.607-15.295 4.653-5.788 3.825-12.553 5.655-19.563 5.307-16.372-.834-29.574-13.778-30.709-30.111-.339-4.859.364-9.587 2.087-14.052 1.492-3.863-.431-8.206-4.295-9.697-3.864-1.496-8.206.429-9.698 4.295-2.522 6.53-3.551 13.427-3.058 20.496 1.662 23.894 20.969 42.831 44.914 44.05 10.225.515 20.117-2.172 28.587-7.769 1.365-.858 3.561-1.889 7.031-2.172 1.358 0 2.853 1.099 2.945 2.267.029.283-.005 77.009.005 77.214h-211.011c-12.407-.001-22.5-10.095-22.5-22.501v-211l76.717.051h.03c4.569 0 8.903-1.815 12.207-5.113 3.366-3.36 5.296-7.991 5.296-12.798 0-5.401-1.606-10.684-4.645-15.277-3.849-5.819-5.684-12.622-5.306-19.668.883-16.378 13.881-29.542 30.235-30.621 17.334-1.556 35.079 13.54 34.716 32.427 0 6.408-1.867 12.609-5.396 17.929-3.012 4.531-4.604 9.791-4.604 15.211v.221c0 9.709 7.898 17.622 17.62 17.64h76.63l-.009 76.763c0 .76-.488 1.868-2.93 2.256-2.456.127-4.855-.725-6.912-2.092-7.767-5.174-16.84-7.908-26.238-7.908-4.131 0-8.235.532-12.195 1.582-4.004 1.062-6.389 5.168-5.328 9.172s5.167 6.384 9.171 5.328c2.707-.718 5.517-1.082 8.352-1.082 6.429 0 12.626 1.864 17.929 5.396 3.41 2.276 9.549 4.661 15.521 4.604 9.029 0 16.556-6.784 17.529-15.674.362-2.284-.014-76.041.112-78.345h76.523c1.33.002 2.496 1.237 2.496 2.643-.005 1.814-.326 3.956-2.1 7.218-5.168 7.775-7.9 16.846-7.9 26.229-.517 26.29 23.829 49.814 50.888 47.382 23.896-1.665 42.833-20.973 44.05-44.911.521-10.232-2.166-20.121-7.769-28.597-.859-1.336-1.965-3.768-2.169-7.197 0-.745.315-1.487.866-2.037.334-.333.888-.729 1.647-.729h.004 76.962v144.497c0 4.143 3.357 7.5 7.5 7.5s7.5-3.357 7.5-7.5v-370.5c0-20.678-16.822-37.5-37.5-37.5z" fill="#000000" data-original="#000000" class=""></path><path d="m60.768 418.95c0 .552.064 1.089.177 1.607.078 1.887.856 3.68 2.201 5.016 1.405 1.395 3.305 2.177 5.284 2.177h.028c.684-.003 16.823-.065 23.261-.177 22.605-.396 39.012-20.298 39.012-47.323 0-28.411-15.997-47.5-39.806-47.5h-22.657c-1.992 0-3.901.792-5.308 2.202-1.407 1.409-2.196 3.32-2.192 5.313v.066.003zm30.158-71.2c18.29 0 24.806 16.788 24.806 32.5 0 15.364-7.596 32.033-24.274 32.325-3.541.062-10.273.108-15.553.139-.031-9.377-.079-25.09-.079-32.552 0-6.256-.027-22.689-.044-32.412z" fill="#000000" data-original="#000000" class=""></path><path d="m86.959 44.393c-4.063.804-6.706 4.749-5.902 8.813.56 2.404 15.167 77.483 15.877 79.854 1.318 3.71 4.836 6.19 8.768 6.19h.063c3.958-.027 7.473-2.563 8.747-6.31.022-.065.043-.132.064-.197l17.179-55.5 17.102 55.514c.031.102.065.203.101.303 1.318 3.71 4.836 6.19 8.768 6.19h.063c3.958-.027 7.473-2.563 8.747-6.31.493-1.491 15.581-78.299 15.904-79.58.808-4.063-1.83-8.011-5.892-8.819-4.064-.813-8.011 1.829-8.82 5.892l-11.2 56.277-17.612-57.168c-1.219-3.959-5.418-6.179-9.375-4.96-2.734.843-4.638 3.106-5.153 5.73l-17.457 56.401-11.16-56.418c-.802-4.064-4.746-6.707-8.812-5.902z" fill="#000000" data-original="#000000" class=""></path><path d="m409.376 401.041c0-15.6-13.219-28.291-29.468-28.291h-21.259c-.004 0-.009.001-.013.001s-.008-.001-.013-.001c-4.143 0-7.5 3.357-7.5 7.5v80c0 4.143 3.357 7.5 7.5 7.5s7.5-3.357 7.5-7.5v-29.27l30.122 34.225c1.482 1.685 3.553 2.545 5.633 2.545 1.76 0 3.527-.616 4.952-1.87 3.109-2.736 3.411-7.476.675-10.585l-23.136-26.287c14.14-2.071 25.007-13.823 25.007-27.967zm-29.468 13.291c-3.146 0-8.928.026-13.653.051-.025-4.646-.052-10.29-.052-13.342 0-2.571-.016-8.438-.03-13.291h13.735c7.843 0 14.468 6.087 14.468 13.291s-6.625 13.291-14.468 13.291z" fill="#000000" data-original="#000000" class=""></path><path d="m420.25 179.25c26.191 0 47.5-21.309 47.5-47.5s-21.309-47.5-47.5-47.5-47.5 21.309-47.5 47.5 21.309 47.5 47.5 47.5zm0-80c17.921 0 32.5 14.579 32.5 32.5s-14.579 32.5-32.5 32.5-32.5-14.579-32.5-32.5 14.579-32.5 32.5-32.5z" fill="#000000" data-original="#000000" class=""></path></g></g></g></svg>