<svg xmlns="http://www.w3.org/2000/svg" version="1.1" xmlns:xlink="http://www.w3.org/1999/xlink" xmlns:svgjs="http://svgjs.com/svgjs" width="512" height="512" x="0" y="0" viewBox="0 0 512 512" style="enable-background:new 0 0 512 512" xml:space="preserve" class=""><g> <circle xmlns="http://www.w3.org/2000/svg" style="" cx="256" cy="256" r="248.5" fill="#ee8700" data-original="#ee8700"></circle> <circle xmlns="http://www.w3.org/2000/svg" style="" cx="286" cy="256" r="184" fill="#ff7956" data-original="#ff7956"></circle> <circle xmlns="http://www.w3.org/2000/svg" style="" cx="256" cy="256" r="184" fill="#fff5cc" data-original="#fff5cc" class=""></circle> <circle xmlns="http://www.w3.org/2000/svg" style="" cx="276" cy="256" r="17.667" fill="#ffc477" data-original="#ffc477"></circle> <circle xmlns="http://www.w3.org/2000/svg" style="" cx="256" cy="256" r="17.667" fill="#787680" data-original="#787680"></circle> <path xmlns="http://www.w3.org/2000/svg" style="" d="M37.5,256C37.5,123.794,140.742,15.701,271,7.945C266.038,7.65,261.036,7.5,256,7.5  C118.757,7.5,7.5,118.757,7.5,256S118.757,504.5,256,504.5c5.036,0,10.038-0.15,15-0.445C140.742,496.299,37.5,388.206,37.5,256z" fill="#ff7956" data-original="#ff7956"></path> <path xmlns="http://www.w3.org/2000/svg" style="" d="M102,256c0-96.57,74.395-175.764,169-183.397C266.053,72.204,261.05,72,256,72  C154.38,72,72,154.38,72,256s82.38,184,184,184c5.05,0,10.053-0.204,15-0.603C176.395,431.764,102,352.57,102,256z" fill="#ffc477" data-original="#ffc477"></path> <path xmlns="http://www.w3.org/2000/svg" style="" d="M258.333,256c0-6.045,3.036-11.381,7.667-14.566c-2.843-1.956-6.288-3.101-10-3.101  c-9.757,0-17.667,7.91-17.667,17.667s7.91,17.667,17.667,17.667c3.712,0,7.157-1.145,10-3.101  C261.37,267.381,258.333,262.045,258.333,256z" fill="#57565c" data-original="#57565c"></path> <path xmlns="http://www.w3.org/2000/svg" d="M437.02,74.98C388.667,26.629,324.38,0,256,0S123.333,26.629,74.98,74.98C26.629,123.332,0,187.62,0,256  s26.629,132.668,74.98,181.02C123.333,485.371,187.62,512,256,512s132.667-26.629,181.02-74.98C485.371,388.668,512,324.38,512,256  S485.371,123.332,437.02,74.98z M256,497c-110.163,0-203.3-74.298-231.932-175.417h27.554v-15H20.34  C16.842,290.268,15,273.345,15,256C15,123.112,123.112,15,256,15c124.39,0,227.072,94.728,239.695,215.833H479v15h17.788  C496.929,249.205,497,252.594,497,256C497,388.888,388.888,497,256,497z" fill="#000000" data-original="#000000" class=""></path> <path xmlns="http://www.w3.org/2000/svg" d="M256,45V30c-60.367,0-117.121,23.508-159.806,66.194C53.508,138.88,30,195.634,30,256h15C45,139.654,139.654,45,256,45z" fill="#000000" data-original="#000000" class=""></path> <path xmlns="http://www.w3.org/2000/svg" d="M131.161,444.42c4.296,2.852,8.741,5.587,13.21,8.131l7.42-13.037c-4.173-2.375-8.323-4.929-12.335-7.592L131.161,444.42z" fill="#000000" data-original="#000000" class=""></path> <path xmlns="http://www.w3.org/2000/svg" d="M73.706,362.324l-12.949,7.57c2.599,4.446,5.385,8.857,8.281,13.112l12.4-8.439  C78.734,370.595,76.133,366.476,73.706,362.324z" fill="#000000" data-original="#000000" class=""></path> <path xmlns="http://www.w3.org/2000/svg" d="M102.599,400.878l-10.902,10.303c3.535,3.741,7.245,7.409,11.027,10.901l10.177-11.02  C109.368,407.8,105.902,404.373,102.599,400.878z" fill="#000000" data-original="#000000" class=""></path> <path xmlns="http://www.w3.org/2000/svg" d="M120.145,417.451l-9.664,11.473c3.939,3.318,8.043,6.542,12.196,9.581l8.857-12.105  C127.656,423.562,123.824,420.551,120.145,417.451z" fill="#000000" data-original="#000000" class=""></path> <path xmlns="http://www.w3.org/2000/svg" d="M87.053,382.425l-12.003,8.996c3.085,4.117,6.355,8.183,9.719,12.084l11.36-9.795  C92.988,390.066,89.935,386.27,87.053,382.425z" fill="#000000" data-original="#000000" class=""></path> <path xmlns="http://www.w3.org/2000/svg" d="M153.476,457.46c4.592,2.341,9.322,4.551,14.059,6.566l5.875-13.801c-4.42-1.882-8.835-3.944-13.121-6.129L153.476,457.46z" fill="#000000" data-original="#000000" class=""></path> <path xmlns="http://www.w3.org/2000/svg" d="M467,256c0,116.346-94.654,211-211,211v15c60.367,0,117.121-23.508,159.806-66.194C458.492,373.12,482,316.366,482,256H467z  " fill="#000000" data-original="#000000" class=""></path> <g xmlns="http://www.w3.org/2000/svg"> <path style="" d="M300.052,34.293c-5.051-0.998-10.202-1.833-15.311-2.481l-1.888,14.881   c4.768,0.604,9.576,1.384,14.29,2.315L300.052,34.293z" fill="#ffffff" data-original="#ffffff"></path> <path style="" d="M325.085,40.757c-4.899-1.571-9.924-2.993-14.936-4.227l-3.583,14.566   c4.677,1.15,9.366,2.477,13.937,3.943L325.085,40.757z" fill="#ffffff" data-original="#ffffff"></path> <path style="" d="M462.942,214.604l14.712-2.926c-7.514-37.778-24.796-73.279-49.979-102.665   c-24.953-29.116-57.042-51.547-92.802-64.865l-5.235,14.057C397.719,83.562,448.798,143.49,462.942,214.604z" fill="#ffffff" data-original="#ffffff"></path> </g> <path xmlns="http://www.w3.org/2000/svg" d="M447.5,256c0-105.594-85.907-191.5-191.5-191.5S64.5,150.406,64.5,256S150.407,447.5,256,447.5S447.5,361.594,447.5,256z   M79.5,256c0-24.663,5.085-48.161,14.261-69.5h27.063v-15h-19.75c29.995-54.775,88.195-92,154.926-92  c97.322,0,176.5,79.178,176.5,176.5S353.322,432.5,256,432.5S79.5,353.322,79.5,256z" fill="#000000" data-original="#000000" class=""></path> <path xmlns="http://www.w3.org/2000/svg" d="M323.969,383.739l7.058,13.236c33.154-17.68,59.128-46.574,73.137-81.361l-13.914-5.604  C377.555,341.532,354.017,367.717,323.969,383.739z" fill="#000000" data-original="#000000" class=""></path> <path xmlns="http://www.w3.org/2000/svg" d="M370.688,168.304l11.914-9.113c-3.172-4.147-6.591-8.188-10.16-12.01l-10.962,10.238  C364.714,160.883,367.813,164.545,370.688,168.304z" fill="#000000" data-original="#000000" class=""></path> <path xmlns="http://www.w3.org/2000/svg" d="M354.765,150.688l10.27-10.934c-3.81-3.578-7.842-7.008-11.984-10.193l-9.145,11.891  C347.66,144.338,351.313,147.445,354.765,150.688z" fill="#000000" data-original="#000000" class=""></path> <path xmlns="http://www.w3.org/2000/svg" d="M383.524,188.277l13.241-7.047c-2.455-4.612-5.169-9.156-8.067-13.508l-12.483,8.316  C378.84,179.981,381.3,184.1,383.524,188.277z" fill="#000000" data-original="#000000" class=""></path> <path xmlns="http://www.w3.org/2000/svg" d="M344.527,123.441c-4.348-2.909-8.889-5.632-13.498-8.094l-7.066,13.232c4.174,2.229,8.286,4.694,12.223,7.328  L344.527,123.441z" fill="#000000" data-original="#000000" class=""></path> <g xmlns="http://www.w3.org/2000/svg"> <path style="" d="M122.071,310.001l-13.907,5.621c5.942,14.702,14.037,28.42,24.059,40.773l11.648-9.451   C134.789,335.75,127.454,323.32,122.071,310.001z" fill="#ffffff" data-original="#ffffff"></path> <path style="" d="M158.409,382.021c4.133,3.206,8.471,6.241,12.893,9.021l7.981-12.701   c-4.006-2.517-7.936-5.267-11.68-8.171L158.409,382.021z" fill="#ffffff" data-original="#ffffff"></path> <path style="" d="M150.099,354.127l-11.006,10.191c3.55,3.834,7.332,7.536,11.242,11.004l9.953-11.223   C156.745,360.957,153.317,357.602,150.099,354.127z" fill="#ffffff" data-original="#ffffff"></path> </g> <path xmlns="http://www.w3.org/2000/svg" d="M179.126,276.333h-10.215L157.173,256l11.739-20.333h10.215v-15h-75v15h9.198v40.666h-9.198v15h75L179.126,276.333  L179.126,276.333z M151.592,276.333h-6.158l3.079-5.333L151.592,276.333z M128.324,275.967v-39.934L139.852,256L128.324,275.967z   M148.512,241l-3.079-5.333h6.158L148.512,241z" fill="#000000" data-original="#000000" class=""></path> <path xmlns="http://www.w3.org/2000/svg" d="M332.874,235.667h8.833v40.666h-8.833v15h75v-15h-8.833v-40.666h8.833v-15h-75V235.667z M356.707,235.667h6.167v40.666  h-6.167V235.667z M384.04,276.333h-6.167v-40.666h6.167V276.333z" fill="#000000" data-original="#000000" class=""></path> <path xmlns="http://www.w3.org/2000/svg" d="M305.667,152h-10.274v-40.667h10.274v-15h-99.333v15h11.291l11.74,20.334L217.625,152h-11.292v15h99.333L305.667,152  L305.667,152z M280.392,152h-7.18v-40.667h7.18V152z M258.212,151.633l-11.528-19.966l11.528-19.966V151.633z M234.945,111.333  h6.159l-3.08,5.334L234.945,111.333z M238.025,146.667l3.079,5.333h-6.158L238.025,146.667z" fill="#000000" data-original="#000000" class=""></path> <path xmlns="http://www.w3.org/2000/svg" d="M293.5,400.667h-7.985V360h7.985v-15h-75v15h7.055l11.975,40.667H218.5v15h75V400.667z M270.515,400.667h-12.932  L269.558,360h0.957V400.667z M253.922,360l-6.366,21.617L241.191,360H253.922z" fill="#000000" data-original="#000000" class=""></path> <path xmlns="http://www.w3.org/2000/svg" d="M301.363,200.029l-33.682,33.683c-3.493-1.838-7.468-2.879-11.681-2.879c-13.877,0-25.167,11.29-25.167,25.167  c0,13.877,11.29,25.167,25.167,25.167c13.877,0,25.167-11.29,25.167-25.167c0-4.213-1.041-8.188-2.879-11.681l33.682-33.682  L301.363,200.029z M256,266.167c-5.606,0-10.167-4.561-10.167-10.167s4.561-10.167,10.167-10.167s10.167,4.561,10.167,10.167  S261.606,266.167,256,266.167z" fill="#000000" data-original="#000000" class=""></path> <rect xmlns="http://www.w3.org/2000/svg" x="174.632" y="200.247" transform="matrix(-0.7071 -0.7071 0.7071 -0.7071 207.7464 501.5444)" width="66.229" height="15" fill="#000000" data-original="#000000" class=""></rect> <g xmlns="http://www.w3.org/2000/svg"> </g> <g xmlns="http://www.w3.org/2000/svg"> </g> <g xmlns="http://www.w3.org/2000/svg"> </g> <g xmlns="http://www.w3.org/2000/svg"> </g> <g xmlns="http://www.w3.org/2000/svg"> </g> <g xmlns="http://www.w3.org/2000/svg"> </g> <g xmlns="http://www.w3.org/2000/svg"> </g> <g xmlns="http://www.w3.org/2000/svg"> </g> <g xmlns="http://www.w3.org/2000/svg"> </g> <g xmlns="http://www.w3.org/2000/svg"> </g> <g xmlns="http://www.w3.org/2000/svg"> </g> <g xmlns="http://www.w3.org/2000/svg"> </g> <g xmlns="http://www.w3.org/2000/svg"> </g> <g xmlns="http://www.w3.org/2000/svg"> </g> <g xmlns="http://www.w3.org/2000/svg"> </g> </g></svg>