<svg xmlns="http://www.w3.org/2000/svg" version="1.1" xmlns:xlink="http://www.w3.org/1999/xlink" xmlns:svgjs="http://svgjs.com/svgjs" width="512" height="512" x="0" y="0" viewBox="0 0 511 511" style="enable-background:new 0 0 512 512" xml:space="preserve" class=""><g><g xmlns="http://www.w3.org/2000/svg"><g><path d="m122.882 479.029h-73.412v-90.624c0-5.523 4.477-10 10-10h53.412c5.523 0 10 4.477 10 10z" fill="#ffe27a" data-original="#ffe27a"></path><path d="m235.765 479.029h-73.412v-145.206c0-5.523 4.477-10 10-10h53.412c5.523 0 10 4.477 10 10z" fill="#ffba57" data-original="#ffba57"></path><path d="m348.647 479.029h-73.412v-199.788c0-5.523 4.477-10 10-10h53.412c5.523 0 10 4.477 10 10z" fill="#98db7c" data-original="#98db7c"></path><path d="m461.53 479.029h-73.412v-254.37c0-5.523 4.477-10 10-10h53.412c5.523 0 10 4.477 10 10z" fill="#8bcaff" data-original="#8bcaff"></path><path d="m49.47 461.029h73.412v18h-73.412z" fill="#f9cf58" data-original="#f9cf58"></path><path d="m162.353 461.029h73.412v18h-73.412z" fill="#ffac3e" data-original="#ffac3e"></path><path d="m275.235 461.029h73.412v18h-73.412z" fill="#82d361" data-original="#82d361"></path><path d="m388.118 461.029h73.412v18h-73.412z" fill="#6cc4ff" data-original="#6cc4ff"></path><path d="m390.981 114.638 31.235 21.718-10.477-104.368-101.579 26.456 31.235 21.718s-57.223 111.594-263.976 175.397c-10.647 3.286-7.723 19.056 3.393 18.284 82.838-5.755 219.63-35.326 310.169-159.205z" fill="#ff4755" data-original="#ff4755"></path><g><g><g><path d="m382.024 108.312c-2.225-1.572-5.286-1.063-6.913 1.122-93.003 124.975-212.318 140.713-294.3 146.408-1.208.084-2.313-.037-3.32-.307l-.073.023c-10.574 3.336-7.612 19.049 3.449 18.28 82.844-5.763 219.595-35.349 310.113-159.201z" fill="#fc2b3a" data-original="#fc2b3a"></path></g></g></g></g><g><path d="m503.5 471.529h-34.47v-140.353c0-4.142-3.358-7.5-7.5-7.5s-7.5 3.358-7.5 7.5v140.353h-58.412v-246.87c0-1.378 1.121-2.5 2.5-2.5h53.412c1.378 0 2.5 1.122 2.5 2.5v76.517c0 4.142 3.358 7.5 7.5 7.5s7.5-3.358 7.5-7.5v-76.517c0-9.649-7.85-17.5-17.5-17.5h-53.412c-9.649 0-17.5 7.851-17.5 17.5v246.871h-24.471v-192.289c0-9.649-7.851-17.5-17.5-17.5h-53.412c-9.65 0-17.5 7.851-17.5 17.5v192.289h-24.471v-137.707c0-9.649-7.85-17.5-17.5-17.5h-53.412c-9.649 0-17.5 7.851-17.5 17.5v65.582c0 4.142 3.358 7.5 7.5 7.5s7.5-3.358 7.5-7.5v-65.582c0-1.379 1.122-2.5 2.5-2.5h53.412c1.379 0 2.5 1.121 2.5 2.5v137.706h-58.412v-42.124c0-4.142-3.358-7.5-7.5-7.5s-7.5 3.358-7.5 7.5v42.124h-24.471v-83.124c0-9.649-7.85-17.5-17.5-17.5h-53.411c-9.649 0-17.5 7.851-17.5 17.5v83.124h-34.47c-4.142 0-7.5 3.358-7.5 7.5s3.358 7.5 7.5 7.5h496c4.142 0 7.5-3.358 7.5-7.5s-3.358-7.5-7.5-7.5zm-220.765-192.288c0-1.378 1.122-2.5 2.5-2.5h53.412c1.378 0 2.5 1.122 2.5 2.5v192.289h-58.412zm-225.765 109.164c0-1.378 1.122-2.5 2.5-2.5h53.412c1.379 0 2.5 1.122 2.5 2.5v83.124h-58.412z" fill="#000000" data-original="#000000"></path><path d="m80.089 281.368c.411 0 .826-.015 1.242-.043 55.312-3.842 107.325-15.913 154.596-35.878 63.652-26.884 116.347-67.408 156.729-120.509l25.278 17.576c4.98 3.713 12.568-.75 11.744-6.907l-10.477-104.368c-.341-4.457-5.054-7.736-9.353-6.509l-101.578 26.456c-6.064 1.368-7.608 10.038-2.392 13.416l25.509 17.736c-5.075 7.974-16.257 23.785-35.754 43.125-2.941 2.918-2.96 7.666-.043 10.606 2.917 2.941 7.666 2.96 10.606.043 30.057-29.815 41.405-51.615 41.873-52.528 1.713-3.342.691-7.436-2.392-9.58l-17.85-12.411 77.325-20.139 7.976 79.447-17.865-12.421c-3.346-2.326-7.933-1.556-10.337 1.732-39.298 53.77-91.393 94.621-154.835 121.416-56.977 24.064-112.91 32.169-149.798 34.732-2.155.552-2.808-3.405-.662-3.635 82.175-25.359 150.802-61.009 203.975-105.959 3.164-2.674 3.56-7.406.886-10.569-2.673-3.163-7.407-3.561-10.569-.886-51.622 43.639-118.479 78.32-198.714 103.081-8.332 2.571-13.221 10.652-11.625 19.214 1.517 8.142 8.354 13.762 16.505 13.762z" fill="#000000" data-original="#000000"></path></g></g></g></svg>