<svg xmlns="http://www.w3.org/2000/svg" version="1.1" xmlns:xlink="http://www.w3.org/1999/xlink" xmlns:svgjs="http://svgjs.com/svgjs" width="512" height="512" x="0" y="0" viewBox="0 0 256 256" style="enable-background:new 0 0 512 512" xml:space="preserve" class=""><g><rect xmlns="http://www.w3.org/2000/svg" fill="#efefef" height="236.49" rx="10" width="241.08" x="7.46" y="9.75" data-original="#efefef" class=""></rect><path xmlns="http://www.w3.org/2000/svg" d="m238.54 238.74h-198.19a2.5 2.5 0 0 1 0-5h195.65v-180.31a2.5 2.5 0 1 1 5 0v182.81a2.5 2.5 0 0 1 -2.46 2.5zm-208.19 0h-12.89a2.5 2.5 0 0 1 0-5h12.89a2.5 2.5 0 1 1 0 5z" fill="#ffffff" data-original="#ffffff"></path><path xmlns="http://www.w3.org/2000/svg" d="m238.54 9.75h-173l11 26.64a10 10 0 0 0 9.25 6.19h162.75v-22.83a10 10 0 0 0 -10-10z" fill="#72c2e9" data-original="#72c2e9"></path><circle xmlns="http://www.w3.org/2000/svg" cx="226.94" cy="26.17" fill="#fc5d3d" r="5.73" data-original="#fc5d3d"></circle><circle xmlns="http://www.w3.org/2000/svg" cx="198.46" cy="26.17" fill="#f0c020" r="5.73" data-original="#f0c020"></circle><circle xmlns="http://www.w3.org/2000/svg" cx="169.97" cy="26.17" fill="#13bf6d" r="5.73" data-original="#13bf6d"></circle><rect xmlns="http://www.w3.org/2000/svg" fill="#f0c020" height="63.5" rx="10" width="186.42" x="34.79" y="68.5" data-original="#f0c020"></rect><path xmlns="http://www.w3.org/2000/svg" d="m211.21 124.5h-151.5a2.5 2.5 0 0 1 0-5h149v-41a2.5 2.5 0 0 1 5 0v43.5a2.5 2.5 0 0 1 -2.5 2.5zm-161.5 0h-4.92a2.5 2.5 0 1 1 0-5h4.92a2.5 2.5 0 1 1 0 5z" fill="#f8e5b0" data-original="#f8e5b0"></path><path xmlns="http://www.w3.org/2000/svg" d="m122.8 103.53-7.15-7.15a6 6 0 0 0 -8.47 0 6 6 0 0 0 0 8.47l11.38 11.38a6 6 0 0 0 8.47 0l21.79-21.79a6 6 0 0 0 0-8.46 6 6 0 0 0 -8.47 0z" fill="#13bf6d" data-original="#13bf6d"></path><path xmlns="http://www.w3.org/2000/svg" d="m50.5 27h-20.72a2.5 2.5 0 0 0 0 5h20.72a2.5 2.5 0 0 0 0-5z" fill="#000000" data-original="#000000" class=""></path><path xmlns="http://www.w3.org/2000/svg" d="m235.17 26.17a8.23 8.23 0 1 0 -8.23 8.22 8.24 8.24 0 0 0 8.23-8.22zm-11.46 0a3.23 3.23 0 1 1 3.23 3.22 3.23 3.23 0 0 1 -3.23-3.22z" fill="#000000" data-original="#000000" class=""></path><path xmlns="http://www.w3.org/2000/svg" d="m206.68 26.17a8.23 8.23 0 1 0 -8.22 8.22 8.23 8.23 0 0 0 8.22-8.22zm-11.45 0a3.23 3.23 0 1 1 3.23 3.22 3.23 3.23 0 0 1 -3.23-3.22z" fill="#000000" data-original="#000000" class=""></path><path xmlns="http://www.w3.org/2000/svg" d="m178.2 26.17a8.23 8.23 0 1 0 -8.2 8.22 8.24 8.24 0 0 0 8.2-8.22zm-11.45 0a3.23 3.23 0 1 1 3.25 3.22 3.23 3.23 0 0 1 -3.25-3.22z" fill="#000000" data-original="#000000" class=""></path><circle xmlns="http://www.w3.org/2000/svg" cx="118.54" cy="42.58" r="2.5" fill="#000000" data-original="#000000" class=""></circle><path xmlns="http://www.w3.org/2000/svg" d="m251 236.25v-216.5a12.52 12.52 0 0 0 -12.5-12.5h-221.04a12.51 12.51 0 0 0 -12.46 12.5v175.49a2.5 2.5 0 0 0 5 0v-175.49a7.53 7.53 0 0 1 7.5-7.5h46.38l10.34 25.09a12.45 12.45 0 0 0 11.56 7.74h22.76a2.5 2.5 0 0 0 0-5h-22.76a7.47 7.47 0 0 1 -6.94-4.65l-9.55-23.18h169.25a7.53 7.53 0 0 1 7.5 7.5v20.33h-117.5a2.5 2.5 0 1 0 0 5h117.46v191.17a7.54 7.54 0 0 1 -7.5 7.5h-221.04a7.54 7.54 0 0 1 -7.5-7.5v-21a2.5 2.5 0 0 0 -5 0v21a12.53 12.53 0 0 0 12.5 12.5h221.08a12.54 12.54 0 0 0 12.46-12.5z" fill="#000000" data-original="#000000" class=""></path><circle xmlns="http://www.w3.org/2000/svg" cx="7.46" cy="205.24" r="2.5" fill="#000000" data-original="#000000" class=""></circle><path xmlns="http://www.w3.org/2000/svg" d="m78.25 149.55h-43.46a2.5 2.5 0 1 0 0 5h43.46a2.5 2.5 0 0 0 0-5z" fill="#000000" data-original="#000000" class=""></path><path xmlns="http://www.w3.org/2000/svg" d="m78.25 169.13h-43.46a2.5 2.5 0 1 0 0 5h43.46a2.5 2.5 0 0 0 0-5z" fill="#000000" data-original="#000000" class=""></path><path xmlns="http://www.w3.org/2000/svg" d="m78.25 188.72h-43.46a2.5 2.5 0 1 0 0 5h43.46a2.5 2.5 0 1 0 0-5z" fill="#000000" data-original="#000000" class=""></path><path xmlns="http://www.w3.org/2000/svg" d="m78.25 208.31h-43.46a2.5 2.5 0 1 0 0 5h43.46a2.5 2.5 0 0 0 0-5z" fill="#000000" data-original="#000000" class=""></path><path xmlns="http://www.w3.org/2000/svg" d="m149.73 149.55h-43.46a2.5 2.5 0 1 0 0 5h43.46a2.5 2.5 0 0 0 0-5z" fill="#000000" data-original="#000000" class=""></path><path xmlns="http://www.w3.org/2000/svg" d="m149.73 169.13h-43.46a2.5 2.5 0 1 0 0 5h43.46a2.5 2.5 0 1 0 0-5z" fill="#000000" data-original="#000000" class=""></path><path xmlns="http://www.w3.org/2000/svg" d="m149.73 188.72h-43.46a2.5 2.5 0 0 0 0 5h43.46a2.5 2.5 0 0 0 0-5z" fill="#000000" data-original="#000000" class=""></path><path xmlns="http://www.w3.org/2000/svg" d="m149.73 208.31h-43.46a2.5 2.5 0 1 0 0 5h43.46a2.5 2.5 0 0 0 0-5z" fill="#000000" data-original="#000000" class=""></path><path xmlns="http://www.w3.org/2000/svg" d="m221.21 149.55h-43.46a2.5 2.5 0 0 0 0 5h43.46a2.5 2.5 0 0 0 0-5z" fill="#000000" data-original="#000000" class=""></path><path xmlns="http://www.w3.org/2000/svg" d="m221.21 169.13h-43.46a2.5 2.5 0 0 0 0 5h43.46a2.5 2.5 0 1 0 0-5z" fill="#000000" data-original="#000000" class=""></path><path xmlns="http://www.w3.org/2000/svg" d="m221.21 188.72h-43.46a2.5 2.5 0 0 0 0 5h43.46a2.5 2.5 0 0 0 0-5z" fill="#000000" data-original="#000000" class=""></path><path xmlns="http://www.w3.org/2000/svg" d="m221.21 208.31h-43.46a2.5 2.5 0 0 0 0 5h43.46a2.5 2.5 0 0 0 0-5z" fill="#000000" data-original="#000000" class=""></path><path xmlns="http://www.w3.org/2000/svg" d="m68.93 68.5a2.5 2.5 0 1 0 -2.49 2.5 2.5 2.5 0 0 0 2.49-2.5z" fill="#000000" data-original="#000000" class=""></path><path xmlns="http://www.w3.org/2000/svg" d="m44.79 71h11.65a2.5 2.5 0 0 0 0-5h-11.65a12.51 12.51 0 0 0 -12.5 12.5v43.5a12.52 12.52 0 0 0 12.5 12.5h166.42a12.52 12.52 0 0 0 12.5-12.5v-43.5a12.51 12.51 0 0 0 -12.5-12.5h-134.77a2.5 2.5 0 0 0 0 5h134.77a7.52 7.52 0 0 1 7.5 7.5v43.5a7.53 7.53 0 0 1 -7.5 7.5h-166.42a7.53 7.53 0 0 1 -7.5-7.5v-43.5a7.52 7.52 0 0 1 7.5-7.5z" fill="#000000" data-original="#000000" class=""></path><path xmlns="http://www.w3.org/2000/svg" d="m128.8 118 21.78-21.79a8.49 8.49 0 0 0 -12-12l-15.78 15.79-5.38-5.38a8.49 8.49 0 0 0 -12 12l11.38 11.38a8.49 8.49 0 0 0 12 0zm-19.8-19.85a3.49 3.49 0 0 1 4.93 0l7.07 7.15a2.49 2.49 0 0 0 3.53 0l17.56-17.56a3.49 3.49 0 0 1 4.93 4.93l-21.79 21.79a3.56 3.56 0 0 1 -4.93 0l-11.3-11.38a3.49 3.49 0 0 1 0-4.93z" fill="#000000" data-original="#000000" class=""></path></g></svg>