<svg xmlns="http://www.w3.org/2000/svg" version="1.1" xmlns:xlink="http://www.w3.org/1999/xlink" xmlns:svgjs="http://svgjs.com/svgjs" width="512" height="512" x="0" y="0" viewBox="0 0 512 512" style="enable-background:new 0 0 512 512" xml:space="preserve" class=""><g><path xmlns="http://www.w3.org/2000/svg" d="m76.148438 384h-34.148438c-17.671875 0-32-14.328125-32-32v-310c0-17.671875 14.328125-32 32-32h388c17.671875 0 32 14.328125 32 32v310c0 17.671875-14.328125 32-32 32zm0 0" fill="#ffffff" data-original="#ffffff" class=""></path><path xmlns="http://www.w3.org/2000/svg" d="m430 10h-388c-17.671875 0-32 14.328125-32 32v40h452v-40c0-17.671875-14.328125-32-32-32zm0 0" fill="#6a80ff" data-original="#6a80ff" class=""></path><path xmlns="http://www.w3.org/2000/svg" d="m64 128.128906h344v192h-344zm0 0" fill="#c9f3ff" data-original="#c9f3ff"></path><path xmlns="http://www.w3.org/2000/svg" d="m276 276h206v206h-206zm0 0" fill="#ffc66c" data-original="#ffc66c"></path><g xmlns="http://www.w3.org/2000/svg" fill="#4dbaf6"><path d="m462 462h40v40h-40zm0 0" fill="#4dbaf6" data-original="#4dbaf6"></path><path d="m256 462h40v40h-40zm0 0" fill="#4dbaf6" data-original="#4dbaf6"></path><path d="m462 256h40v40h-40zm0 0" fill="#4dbaf6" data-original="#4dbaf6"></path><path d="m256 256h40v40h-40zm0 0" fill="#4dbaf6" data-original="#4dbaf6"></path></g><path xmlns="http://www.w3.org/2000/svg" d="m204.824219 56h200.175781c5.523438 0 10-4.476562 10-10s-4.476562-10-10-10h-200.175781c-5.523438 0-10 4.476562-10 10s4.476562 10 10 10zm0 0" fill="#000000" data-original="#000000" class=""></path><path xmlns="http://www.w3.org/2000/svg" d="m96.359375 56c2.628906 0 5.210937-1.070312 7.070313-2.929688 1.859374-1.859374 2.929687-4.441406 2.929687-7.070312s-1.070313-5.210938-2.929687-7.070312c-1.863282-1.859376-4.441407-2.929688-7.070313-2.929688-2.640625 0-5.210937 1.070312-7.070313 2.929688-1.859374 1.859374-2.929687 4.441406-2.929687 7.070312s1.070313 5.210938 2.929687 7.070312c1.859376 1.859376 4.429688 2.929688 7.070313 2.929688zm0 0" fill="#000000" data-original="#000000" class=""></path><path xmlns="http://www.w3.org/2000/svg" d="m59.609375 56c2.628906 0 5.210937-1.070312 7.070313-2.929688 1.859374-1.859374 2.929687-4.441406 2.929687-7.070312s-1.070313-5.210938-2.929687-7.070312c-1.863282-1.859376-4.441407-2.929688-7.070313-2.929688s-5.210937 1.070312-7.070313 2.929688c-1.859374 1.859374-2.929687 4.441406-2.929687 7.070312s1.070313 5.210938 2.929687 7.070312c1.859376 1.859376 4.441407 2.929688 7.070313 2.929688zm0 0" fill="#000000" data-original="#000000" class=""></path><path xmlns="http://www.w3.org/2000/svg" d="m133.109375 56c2.628906 0 5.210937-1.070312 7.070313-2.929688 1.859374-1.859374 2.917968-4.441406 2.917968-7.070312s-1.058594-5.210938-2.917968-7.070312c-1.871094-1.859376-4.441407-2.929688-7.070313-2.929688-2.640625 0-5.210937 1.070312-7.078125 2.929688-1.859375 1.859374-2.933594 4.441406-2.933594 7.070312s1.070313 5.210938 2.933594 7.070312c1.859375 1.859376 4.4375 2.929688 7.078125 2.929688zm0 0" fill="#000000" data-original="#000000" class=""></path><path xmlns="http://www.w3.org/2000/svg" d="m502 306c5.523438 0 10-4.476562 10-10v-40c0-5.523438-4.476562-10-10-10h-30v-204c0-23.160156-18.839844-42-42-42h-388c-23.160156 0-42 18.839844-42 42v310c0 23.160156 18.839844 42 42 42h224v58h-10c-5.523438 0-10 4.476562-10 10v40c0 5.523438 4.476562 10 10 10h40c5.523438 0 10-4.476562 10-10v-10h146v10c0 5.523438 4.476562 10 10 10h40c5.523438 0 10-4.476562 10-10v-40c0-5.523438-4.476562-10-10-10h-10v-146zm-10-20h-20v-20h20zm-450-266h388c12.132812 0 22 9.867188 22 22v30h-431.890625c-.039063 0-.074219.003906-.109375.007812v-30.007812c0-12.132812 9.867188-22 22-22zm0 354c-12.132812 0-22-9.867188-22-22v-260.007812c.035156 0 .074219.007812.109375.007812h431.890625v163.667969c0 .054687.007812.109375.007812.167969 0 .054687-.007812.109374-.007812.164062v10h-34v-137.871094c0-5.523437-4.476562-10-10-10h-344c-5.523438 0-10 4.476563-10 10v53.203125c0 5.523438 4.476562 10 10 10s10-4.476562 10-10v-43.203125h324v127.871094h-92v-10c0-5.523438-4.476562-10-10-10h-40c-5.523438 0-10 4.476562-10 10v40c0 5.523438 4.476562 10 10 10h10v4.128906h-192v-45.347656c0-5.519531-4.476562-10-10-10s-10 4.480469-10 10v55.347656c0 5.519532 4.476562 10 10 10h202v43.871094zm224-88v-20h20v20zm20 206h-20v-20h20zm206 0h-20v-20h20zm-20-40h-10c-5.523438 0-10 4.476562-10 10v10h-146v-10c0-5.523438-4.476562-10-10-10h-10v-146h10c5.523438 0 10-4.476562 10-10v-10h146v10c0 5.523438 4.476562 10 10 10h10zm0 0" fill="#000000" data-original="#000000" class=""></path><path xmlns="http://www.w3.org/2000/svg" d="m433 315.277344h-22.742188c-5.519531 0-10 4.476562-10 10 0 5.007812 3.6875 9.144531 8.492188 9.875l-11.777344 11.777344c-3.90625 3.90625-3.90625 10.234374 0 14.140624 1.953125 1.953126 4.511719 2.929688 7.070313 2.929688 2.558593 0 5.117187-.976562 7.070312-2.929688l11.886719-11.882812v1.167969c0 5.523437 4.476562 10 10 10s10-4.476563 10-10v-25.078125c0-5.523438-4.476562-10-10-10zm0 0" fill="#000000" data-original="#000000" class=""></path><path xmlns="http://www.w3.org/2000/svg" d="m346.886719 396.929688-11.886719 11.882812v-1.167969c0-5.523437-4.476562-10-10-10s-10 4.476563-10 10v25.078125c0 5.523438 4.476562 10 10 10h22.742188c5.519531 0 10-4.476562 10-10 0-5.007812-3.6875-9.144531-8.492188-9.875l11.777344-11.777344c3.90625-3.90625 3.90625-10.234374 0-14.140624s-10.234375-3.90625-14.140625 0zm0 0" fill="#000000" data-original="#000000" class=""></path><path xmlns="http://www.w3.org/2000/svg" d="m432.722656 400.257812c-5.007812 0-9.144531 3.6875-9.875 8.492188l-11.777344-11.777344c-3.902343-3.902344-10.234374-3.90625-14.140624 0-3.90625 3.902344-3.90625 10.234375 0 14.140625l11.882812 11.886719h-1.167969c-5.523437 0-10 4.476562-10 10s4.476563 10 10 10h25.078125c5.523438 0 10-4.476562 10-10v-22.742188c0-5.523437-4.476562-10-10-10zm0 0" fill="#000000" data-original="#000000" class=""></path><path xmlns="http://www.w3.org/2000/svg" d="m349.1875 335h1.171875c5.519531 0 10-4.476562 10-10s-4.480469-10-10-10h-25.082031c-5.523438 0-10 4.476562-10 10v22.742188c0 5.519531 4.476562 10 10 10 5.007812 0 9.144531-3.6875 9.875-8.492188l11.777344 11.777344c1.953124 1.953125 4.511718 2.929687 7.070312 2.929687s5.117188-.976562 7.070312-2.929687c3.90625-3.902344 3.90625-10.234375 0-14.140625zm0 0" fill="#000000" data-original="#000000" class=""></path><path xmlns="http://www.w3.org/2000/svg" d="m64 234.128906c2.628906 0 5.210938-1.070312 7.070312-2.929687 1.859376-1.859375 2.929688-4.4375 2.929688-7.070313 0-2.640625-1.070312-5.207031-2.929688-7.070312-1.859374-1.867188-4.441406-2.929688-7.070312-2.929688s-5.210938 1.0625-7.070312 2.929688c-1.859376 1.863281-2.929688 4.441406-2.929688 7.070312 0 2.632813 1.070312 5.199219 2.929688 7.070313 1.859374 1.859375 4.441406 2.929687 7.070312 2.929687zm0 0" fill="#000000" data-original="#000000" class=""></path></g></svg>