<svg xmlns="http://www.w3.org/2000/svg" version="1.1" xmlns:xlink="http://www.w3.org/1999/xlink" xmlns:svgjs="http://svgjs.com/svgjs" width="512" height="512" x="0" y="0" viewBox="0 0 256 256" style="enable-background:new 0 0 512 512" xml:space="preserve" class=""><g><g xmlns="http://www.w3.org/2000/svg"><g><g><path d="m47.661 30.075c-.974 11.564-13.024 13.39-13.024 13.39 10.346.487 12.925 14.059 12.925 14.059.221-9.677 13.321-14.202 13.321-14.202-9.813-.588-13.222-13.247-13.222-13.247z" fill="#d7e057" data-original="#d7e057"></path></g></g><g><g><path d="m60.973 41.824c-8.605-.515-11.833-12.024-11.864-12.141-.191-.703-.862-1.163-1.583-1.102-.725.066-1.298.642-1.359 1.367-.86 10.215-11.313 11.963-11.754 12.032-.763.115-1.313.79-1.273 1.561.04.77.657 1.384 1.427 1.421 9.028.425 11.499 12.719 11.523 12.843.137.711.759 1.217 1.472 1.217.042 0 .085-.001.127-.005.764-.064 1.357-.693 1.374-1.459.195-8.509 12.192-12.777 12.313-12.819.675-.235 1.092-.914.994-1.623-.099-.708-.683-1.249-1.397-1.292zm-13.566 10.345c-1.356-3.13-3.709-6.907-7.587-8.876 2.931-1.405 6.409-3.913 8.202-8.273 1.551 3.071 4.199 6.88 8.334 8.723-3.008 1.639-6.922 4.405-8.949 8.426z" fill="#3a312a" data-original="#3a312a"></path></g></g><g><g><path d="m25.962 47.055c-.689 8.179-9.212 9.471-9.212 9.471 7.318.344 9.142 9.944 9.142 9.944.156-6.845 9.422-10.045 9.422-10.045-6.941-.416-9.352-9.37-9.352-9.37z" fill="#d7e057" data-original="#d7e057"></path></g></g><g><g><path d="m35.404 54.927c-5.766-.345-7.972-8.185-7.994-8.264-.19-.702-.854-1.163-1.582-1.102-.726.065-1.299.643-1.36 1.368-.579 6.871-7.646 8.067-7.942 8.114-.763.115-1.313.79-1.273 1.561.04.77.657 1.384 1.428 1.421 6.035.284 7.723 8.644 7.739 8.726.135.713.759 1.22 1.473 1.22.041 0 .082-.001.124-.005.765-.063 1.358-.693 1.376-1.461.131-5.709 8.332-8.634 8.413-8.662.677-.234 1.094-.913.996-1.622-.099-.71-.684-1.251-1.398-1.294zm-9.585 6.796c-.924-1.886-2.34-3.948-4.447-5.28 1.855-1.041 3.697-2.629 4.87-4.916 1.057 1.874 2.655 3.954 4.941 5.223-1.849 1.101-3.987 2.74-5.364 4.973z" fill="#3a312a" data-original="#3a312a"></path></g></g><g><g><path d="m25.962 20.398c-.689 8.179-9.212 9.471-9.212 9.471 7.318.345 9.142 9.944 9.142 9.944.156-6.845 9.422-10.045 9.422-10.045-6.941-.416-9.352-9.37-9.352-9.37z" fill="#d7e057" data-original="#d7e057"></path></g></g><g><g><path d="m35.404 28.27c-5.739-.343-7.952-8.113-7.993-8.263-.189-.704-.859-1.167-1.583-1.104-.726.065-1.299.643-1.36 1.368-.579 6.871-7.646 8.067-7.942 8.114-.763.115-1.313.79-1.273 1.561.04.77.657 1.384 1.427 1.421 6.036.284 7.724 8.644 7.739 8.726.135.713.759 1.22 1.472 1.22.042 0 .083-.001.125-.005.765-.063 1.358-.693 1.376-1.461.131-5.709 8.331-8.634 8.413-8.662.676-.234 1.094-.913.996-1.622s-.682-1.251-1.397-1.293zm-9.585 6.795c-.924-1.886-2.34-3.947-4.447-5.28 1.855-1.042 3.697-2.63 4.87-4.917 1.057 1.874 2.654 3.955 4.941 5.224-1.849 1.101-3.988 2.741-5.364 4.973z" fill="#3a312a" data-original="#3a312a"></path></g></g><g><g><path d="m234.805 169.389h-168.156c-2.856 0-5.172 2.315-5.172 5.172v55.87c0 2.856 2.315 5.172 5.172 5.172h168.156c2.856 0 5.172-2.315 5.172-5.172v-55.87c0-2.857-2.316-5.172-5.172-5.172z" fill="#d7e057" data-original="#d7e057"></path></g></g><g><g><path d="m234.805 167.889h-168.157c-3.679 0-6.672 2.993-6.672 6.672v55.87c0 3.679 2.993 6.672 6.672 6.672h29.738c.829 0 1.5-.671 1.5-1.5s-.671-1.5-1.5-1.5h-29.738c-2.025 0-3.672-1.647-3.672-3.672v-55.87c0-2.025 1.647-3.672 3.672-3.672h168.156c2.024 0 3.672 1.647 3.672 3.672v55.87c0 2.025-1.647 3.672-3.672 3.672h-124.357c-.829 0-1.5.671-1.5 1.5s.671 1.5 1.5 1.5h124.357c3.679 0 6.672-2.993 6.672-6.672v-55.87c.001-3.679-2.993-6.672-6.671-6.672z" fill="#3a312a" data-original="#3a312a"></path></g></g><g><g><path d="m95.3 152.835h-20.247c-2.856 0-5.172 2.316-5.172 5.172v11.382h30.59v-11.382c0-2.856-2.315-5.172-5.171-5.172z" fill="#d7e057" data-original="#d7e057"></path></g></g><g><g><path d="m95.3 151.335h-20.247c-3.679 0-6.672 2.993-6.672 6.672v11.381c0 .829.671 1.5 1.5 1.5h30.59c.829 0 1.5-.671 1.5-1.5v-11.381c.001-3.679-2.993-6.672-6.671-6.672zm3.672 16.554h-27.59v-9.881c0-2.025 1.647-3.672 3.672-3.672h20.246c2.025 0 3.672 1.647 3.672 3.672z" fill="#3a312a" data-original="#3a312a"></path></g></g><g><g><path d="m139 152.835h-20.246c-2.856 0-5.172 2.316-5.172 5.172v11.382h30.59v-11.382c0-2.856-2.316-5.172-5.172-5.172z" fill="#d7e057" data-original="#d7e057"></path></g></g><g><g><path d="m139 151.335h-20.247c-3.679 0-6.672 2.993-6.672 6.672v11.381c0 .829.671 1.5 1.5 1.5h30.59c.828 0 1.5-.671 1.5-1.5v-11.381c.001-3.679-2.992-6.672-6.671-6.672zm3.672 16.554h-27.59v-9.881c0-2.025 1.647-3.672 3.672-3.672h20.246c2.024 0 3.672 1.647 3.672 3.672z" fill="#3a312a" data-original="#3a312a"></path></g></g><g><g><path d="m182.7 152.835h-20.246c-2.856 0-5.172 2.316-5.172 5.172v11.382h30.59v-11.382c0-2.856-2.316-5.172-5.172-5.172z" fill="#d7e057" data-original="#d7e057"></path></g></g><g><g><path d="m182.7 151.335h-20.246c-3.68 0-6.673 2.993-6.673 6.672v11.381c0 .829.672 1.5 1.5 1.5h30.591c.828 0 1.5-.671 1.5-1.5v-11.381c0-3.679-2.993-6.672-6.672-6.672zm3.672 16.554h-27.591v-9.881c0-2.025 1.647-3.672 3.673-3.672h20.246c2.024 0 3.672 1.647 3.672 3.672z" fill="#3a312a" data-original="#3a312a"></path></g></g><g><g><path d="m226.45 152.835h-20.246c-2.856 0-5.172 2.316-5.172 5.172v11.382h30.59v-11.382c0-2.856-2.316-5.172-5.172-5.172z" fill="#d7e057" data-original="#d7e057"></path></g></g><g><g><path d="m226.45 151.335h-20.246c-3.68 0-6.673 2.993-6.673 6.672v11.381c0 .829.672 1.5 1.5 1.5h30.591c.828 0 1.5-.671 1.5-1.5v-11.381c0-3.679-2.993-6.672-6.672-6.672zm3.672 16.554h-27.591v-9.881c0-2.025 1.647-3.672 3.673-3.672h20.246c2.024 0 3.672 1.647 3.672 3.672z" fill="#3a312a" data-original="#3a312a"></path></g></g><g><g><path d="m189.351 103.139h-168.156c-2.856 0-5.172 2.315-5.172 5.172v55.87c0 2.856 2.315 5.172 5.172 5.172h168.156c2.856 0 5.172-2.315 5.172-5.172v-55.87c0-2.857-2.315-5.172-5.172-5.172z" fill="#8ac2d9" data-original="#8ac2d9" class=""></path></g></g><g><g><path d="m189.352 101.639h-168.157c-3.679 0-6.672 2.993-6.672 6.672v18.672c0 .829.671 1.5 1.5 1.5s1.5-.671 1.5-1.5v-18.672c0-2.025 1.647-3.672 3.672-3.672h168.156c2.024 0 3.672 1.647 3.672 3.672v55.87c0 2.025-1.647 3.672-3.672 3.672h-168.156c-2.025 0-3.672-1.647-3.672-3.672v-22.663c0-.829-.671-1.5-1.5-1.5s-1.5.671-1.5 1.5v22.663c0 3.679 2.993 6.672 6.672 6.672h168.156c3.679 0 6.672-2.993 6.672-6.672v-55.87c0-3.679-2.993-6.672-6.671-6.672z" fill="#3a312a" data-original="#3a312a"></path></g></g><g><g><path d="m49.846 86.585h-20.246c-2.856 0-5.172 2.316-5.172 5.172v11.382h30.59v-11.382c0-2.856-2.315-5.172-5.172-5.172z" fill="#8ac2d9" data-original="#8ac2d9" class=""></path></g></g><g><g><path d="m49.846 85.085h-20.246c-3.679 0-6.672 2.993-6.672 6.672v11.381c0 .829.671 1.5 1.5 1.5h30.59c.829 0 1.5-.671 1.5-1.5v-11.381c0-3.679-2.993-6.672-6.672-6.672zm3.672 16.554h-27.59v-9.881c0-2.025 1.647-3.672 3.672-3.672h20.246c2.025 0 3.672 1.647 3.672 3.672z" fill="#3a312a" data-original="#3a312a"></path></g></g><g><g><path d="m93.546 86.585h-20.246c-2.856 0-5.172 2.316-5.172 5.172v11.382h30.59v-11.382c0-2.856-2.315-5.172-5.172-5.172z" fill="#8ac2d9" data-original="#8ac2d9" class=""></path></g></g><g><g><path d="m93.546 85.085h-20.246c-3.679 0-6.672 2.993-6.672 6.672v11.381c0 .829.671 1.5 1.5 1.5h30.59c.829 0 1.5-.671 1.5-1.5v-11.381c0-3.679-2.993-6.672-6.672-6.672zm3.672 16.554h-27.59v-9.881c0-2.025 1.647-3.672 3.672-3.672h20.246c2.025 0 3.672 1.647 3.672 3.672z" fill="#3a312a" data-original="#3a312a"></path></g></g><g><g><path d="m137.246 86.585h-20.246c-2.856 0-5.172 2.316-5.172 5.172v11.382h30.59v-11.382c0-2.856-2.315-5.172-5.172-5.172z" fill="#8ac2d9" data-original="#8ac2d9" class=""></path></g></g><g><g><path d="m137.246 85.085h-20.246c-3.679 0-6.672 2.993-6.672 6.672v11.381c0 .829.671 1.5 1.5 1.5h30.59c.828 0 1.5-.671 1.5-1.5v-11.381c0-3.679-2.993-6.672-6.672-6.672zm3.672 16.554h-27.59v-9.881c0-2.025 1.648-3.672 3.672-3.672h20.246c2.024 0 3.672 1.647 3.672 3.672z" fill="#3a312a" data-original="#3a312a"></path></g></g><g><g><path d="m180.996 86.585h-20.246c-2.856 0-5.172 2.316-5.172 5.172v11.382h30.59v-11.382c0-2.856-2.315-5.172-5.172-5.172z" fill="#8ac2d9" data-original="#8ac2d9" class=""></path></g></g><g><g><path d="m180.996 85.085h-20.246c-3.679 0-6.672 2.993-6.672 6.672v11.381c0 .829.672 1.5 1.5 1.5h30.59c.828 0 1.5-.671 1.5-1.5v-11.381c0-3.679-2.993-6.672-6.672-6.672zm3.672 16.554h-27.59v-9.881c0-2.025 1.648-3.672 3.672-3.672h20.246c2.024 0 3.672 1.647 3.672 3.672z" fill="#3a312a" data-original="#3a312a"></path></g></g><g><g><path d="m234.805 36.951h-124.004c-3.181 0-5.759 2.578-5.759 5.759v54.696c0 3.181 2.578 5.759 5.759 5.759h124.004c2.856 0 5.172-2.315 5.172-5.172v-55.87c0-2.856-2.316-5.172-5.172-5.172z" fill="#f16c7a" data-original="#f16c7a" class=""></path></g></g><g><g><path d="m234.805 35.451h-124.004c-4.003 0-7.259 3.256-7.259 7.259v54.696c0 4.003 3.256 7.259 7.259 7.259h124.004c3.679 0 6.672-2.993 6.672-6.672v-55.87c0-3.679-2.994-6.672-6.672-6.672zm3.672 62.542c0 2.025-1.647 3.672-3.672 3.672h-124.004c-2.348 0-4.259-1.911-4.259-4.259v-54.696c0-2.348 1.911-4.259 4.259-4.259h124.004c2.024 0 3.672 1.647 3.672 3.672z" fill="#3a312a" data-original="#3a312a"></path></g></g><g><g><path d="m139 20.398h-20.246c-2.856 0-5.172 2.316-5.172 5.172v11.382h30.59v-11.382c0-2.857-2.316-5.172-5.172-5.172z" fill="#f16c7a" data-original="#f16c7a" class=""></path></g></g><g><g><path d="m139 18.897h-20.247c-3.679 0-6.672 2.993-6.672 6.672v11.381c0 .829.671 1.5 1.5 1.5h30.59c.828 0 1.5-.671 1.5-1.5v-11.38c.001-3.679-2.992-6.673-6.671-6.673zm3.672 16.554h-27.59v-9.881c0-2.025 1.647-3.672 3.672-3.672h20.246c2.024 0 3.672 1.647 3.672 3.672z" fill="#3a312a" data-original="#3a312a"></path></g></g><g><g><path d="m182.7 20.398h-20.246c-2.856 0-5.172 2.316-5.172 5.172v11.382h30.59v-11.382c0-2.857-2.316-5.172-5.172-5.172z" fill="#f16c7a" data-original="#f16c7a" class=""></path></g></g><g><g><path d="m182.7 18.897h-20.246c-3.68 0-6.673 2.993-6.673 6.672v11.381c0 .829.672 1.5 1.5 1.5h30.591c.828 0 1.5-.671 1.5-1.5v-11.38c0-3.679-2.993-6.673-6.672-6.673zm3.672 16.554h-27.591v-9.881c0-2.025 1.647-3.672 3.673-3.672h20.246c2.024 0 3.672 1.647 3.672 3.672z" fill="#3a312a" data-original="#3a312a"></path></g></g><g><g><path d="m226.4 20.398h-20.246c-2.856 0-5.172 2.316-5.172 5.172v11.382h30.59v-11.382c0-2.857-2.316-5.172-5.172-5.172z" fill="#f16c7a" data-original="#f16c7a" class=""></path></g></g><g><g><path d="m226.4 18.897h-20.247c-3.679 0-6.672 2.993-6.672 6.672v11.381c0 .829.672 1.5 1.5 1.5h30.591c.828 0 1.5-.671 1.5-1.5v-11.38c0-3.679-2.993-6.673-6.672-6.673zm3.672 16.554h-27.591v-9.881c0-2.025 1.648-3.672 3.672-3.672h20.247c2.024 0 3.672 1.647 3.672 3.672z" fill="#3a312a" data-original="#3a312a"></path></g></g><g><g><path d="m234.8 170.89h-16c2.03 0 3.68 1.65 3.68 3.67v55.87c0 2.03-1.65 3.67-3.68 3.67h16c2.03 0 3.68-1.64 3.68-3.67v-55.87c0-2.02-1.65-3.67-3.68-3.67z" fill="#b9c239" data-original="#b9c239"></path></g></g><g><g><path d="m226.45 154.33h-16c2.02 0 3.67 1.65 3.67 3.68v9.88h16v-9.88c0-2.03-1.65-3.68-3.67-3.68z" fill="#b9c239" data-original="#b9c239"></path></g></g><g><g><path d="m234.8 38.45h-16c2.03 0 3.68 1.65 3.68 3.67v55.87c0 2.03-1.65 3.68-3.68 3.68h16c2.03 0 3.68-1.65 3.68-3.68v-55.87c0-2.02-1.65-3.67-3.68-3.67z" fill="#d34e5c" data-original="#d34e5c"></path></g></g><g><g><path d="m226.4 21.9h-16c2.02 0 3.67 1.64 3.67 3.67v9.88h16v-9.88c0-2.03-1.65-3.67-3.67-3.67z" fill="#d34e5c" data-original="#d34e5c"></path></g></g></g></g></svg>