<svg xmlns="http://www.w3.org/2000/svg" version="1.1" xmlns:xlink="http://www.w3.org/1999/xlink" xmlns:svgjs="http://svgjs.com/svgjs" width="512" height="512" x="0" y="0" viewBox="0 0 512 512" style="enable-background:new 0 0 512 512" xml:space="preserve" class=""><g><g xmlns="http://www.w3.org/2000/svg" clip-rule="evenodd" fill-rule="evenodd"><path d="m290.073 328.743 17.537 14.274c2.488 2.135 5.27 3.656 7.963 4.651 5.153 1.931 10.071 2.077 12.735 1.609l28.486-5.119 22.133 4.446c2.284.527 4.538.702 6.675.644 6.558-.234 12.12-2.808 14.58-4.709l22.836-17.813 21.665-6.347c9.251-2.428 15.224-9.74 16.922-13.484l11.974-26.413 12.12-11.7 4.099-3.978c7.056-6.464 8.959-15.707 8.724-19.831l-1.639-28.957 7.085-21.44c3.25-9.009.644-18.076-1.493-21.616l-14.902-24.862-3.66-22.288c-1.288-9.477-7.846-16.292-11.359-18.457l-24.709-15.064-13.614-18.047c-5.533-7.781-14.492-10.793-18.591-11.056l-28.896-1.843-20.435-9.623c-8.519-4.329-17.829-2.808-21.577-1.141l-26.466 11.817-22.543.965c-9.544.146-17.098 5.821-19.645 9.067l-17.917 22.756-19.527 11.349c-8.402 4.563-12.443 13.104-13.204 17.14l-5.299 28.519-12.033 19.129c-5.299 7.956-4.918 17.404-3.718 21.323l8.519 27.7-1.757 22.552c-1.025 9.506 3.689 17.696 6.617 20.621l.703.731 19.703 19.831 8.9 20.767c3.513 8.892 11.476 13.952 15.399 15.181z" fill="#ffe287" data-original="#ffe287" class=""></path><path d="m487.573 148.095-3.66-22.288c-1.288-9.477-7.846-16.292-11.359-18.457l-5.621-3.422-19.088-11.641-13.614-18.047c-5.533-7.781-14.492-10.793-18.591-11.056l-28.896-1.843-20.435-9.623c-3.689-1.872-7.553-2.662-11.037-2.808 18.064 45.425 28.428 98.426 28.428 155.054 0 48.526-7.612 94.419-21.167 135.135-.644 1.96-1.317 3.89-1.991 5.792l18.386 3.715c2.284.527 4.538.702 6.675.644 6.558-.234 12.12-2.808 14.58-4.709l6.968-5.441 15.868-12.373 21.665-6.347c9.251-2.428 15.224-9.74 16.922-13.484l5.328-11.729 6.646-14.683 12.12-11.7 4.099-3.978c7.056-6.464 8.959-15.707 8.724-19.831l-1.639-28.957 7.085-21.44c3.25-9.009.644-18.076-1.493-21.616z" fill="#ffd64d" data-original="#ffd64d" class=""></path><path d="m160.348 294.725-83.087 18.749-30.098 51.741 30.098 51.862 167.345 42.471c9.164 2.866 25.324 5.557 44.208 1.462l173.142-37.469c30.243-6.523 29.979-50.251-4.216-44.489l-100.331 15.385-14.609 2.253c-14.316 2.194-25.471-1.784-39.758-4.007l-27.461-6.142-44.617-10.003c-23.714-7.576-14.492-36.972 6.236-33.842 14.287 1.784 20.845 2.077 37.123 3.715l1.259.117c41.631 3.247 44.91-45.601 7.963-54.61l-7.963-1.462-23.011-4.212c-24.827-4.563-43.739-2.135-77.349 5.177-4.656.993-9.604 2.105-14.874 3.304z" fill="#ffe5c1" data-original="#ffe5c1"></path><path d="m18.738 292.385c-6.734 0-12.238 5.499-12.238 12.256v121.27c0 6.757 5.504 12.256 12.238 12.256h46.257c6.734 0 12.267-5.499 12.267-12.256v-8.833-103.604-8.833c0-6.757-5.533-12.256-12.267-12.256z" fill="#7cade0" data-original="#7cade0"></path><path d="m244.606 434.013-167.345-42.5v25.564l167.345 42.471c9.164 2.866 25.324 5.557 44.208 1.462l173.142-37.469c20.669-4.475 27.11-26.354 18.151-37.879-3.63 5.762-9.691 10.501-18.151 12.344l-173.142 37.469c-18.883 4.067-35.044 1.376-44.208-1.462z" fill="#fed1a3" data-original="#fed1a3"></path><path d="m237.199 323.946c-9.486-1.433-16.571 3.949-19.176 10.939-1.815 4.885-1.464 10.559 1.786 15.239 3.396-5.177 9.573-8.629 17.39-7.429 14.287 1.784 20.845 2.077 37.123 3.715l1.259.117c27.344 2.135 38.147-18.193 31.853-34.983-3.952 10.003-14.609 17.608-31.853 16.263l-1.259-.117c-16.278-1.638-22.836-1.931-37.123-3.744z" fill="#ffe5c1" data-original="#ffe5c1"></path><path d="m64.995 399.001h-46.257c-6.734 0-12.238-5.528-12.238-12.256v39.166c0 6.757 5.504 12.256 12.238 12.256h46.257c6.734 0 12.267-5.499 12.267-12.256v-8.833-25.564-4.768c-.001 6.727-5.534 12.255-12.267 12.255z" fill="#5e9ad8" data-original="#5e9ad8"></path></g><path xmlns="http://www.w3.org/2000/svg" d="m507.907 169.342-14.097-23.554-3.399-20.695c-1.75-12.597-10.447-21.015-14.846-23.724l-23.374-14.267-12.627-16.756c-7.438-10.398-19.015-13.767-24.124-14.097l-27.333-1.74-18.955-8.938c-11.377-5.739-23.204-3.329-27.883-1.25l-25.036 11.199-20.905.89c-12.787.24-22.125 7.908-25.274 11.927l-16.956 21.545-18.106 10.538c-11.167 6.129-15.916 17.236-16.866 22.295l-5.009 27.004-11.167 17.776c-7.038 10.648-6.079 22.674-4.579 27.573l8.058 26.234-1.63 20.945c-1.32 12.767 5.159 22.974 8.748 26.564l7.638 7.708c-17.056.95-35.262 4.869-61.095 10.717l-73.548 16.61c-.345-10.603-9.055-19.128-19.739-19.128h-46.06c-10.886-.003-19.743 8.867-19.743 19.771v120.887c0 10.904 8.857 19.774 19.743 19.774h46.061c10.601 0 19.255-8.393 19.727-18.88l48.647 12.348c.62.16 1.24.24 1.86.24 3.379 0 6.448-2.279 7.318-5.699 1.03-4.049-1.42-8.158-5.469-9.188l-52.31-13.281v-91.356l76.845-17.354c33.242-7.528 52.178-11.227 70.813-10.467 5.659.23 11.287.87 17.286 1.949.23.03.46.08.7.12l30.613 5.619c14.836 3.709 20.945 15.206 19.315 24.694-.19 1.1-.49 2.199-.91 3.269-1.68 4.339-5.279 8.278-11.317 10.278-3.689 1.23-8.288 1.73-13.917 1.16-6.069-.61-10.837-1.04-15.046-1.41-7.208-.65-12.897-1.16-21.655-2.259-15.056-2.219-25.544 7.758-28.123 18.796-2.479 10.618 2.279 24.414 18.586 29.633.22.06.43.12.65.17l71.773 16.096c.16.04.33.07.49.09 3.529.55 6.928 1.23 10.228 1.879 10.178 2.03 19.795 3.939 31.672 2.12l114.453-17.576c.04-.01.07-.02.11-.02 9.528-1.609 15.766 1.51 17.126 8.558 1.34 6.998-2.669 18.116-15.786 20.955l-172.413 37.35c-19.225 4.169-34.492.49-40.16-1.29-.13-.04-.26-.08-.4-.11l-74.102-18.835c-4.049-1.03-8.158 1.42-9.188 5.459-1.03 4.049 1.42 8.158 5.469 9.188l73.912 18.786c4.629 1.44 14.217 3.819 26.734 3.819 6.318 0 13.387-.61 20.935-2.249l172.408-37.352c20.935-4.519 30.383-23.164 27.423-38.571-2.449-12.737-14.037-24.044-34.422-20.625l-114.392 17.576c-9.248 1.41-17.216-.17-26.434-2-3.369-.67-6.858-1.37-10.597-1.96l-71.183-15.956c-6.339-2.13-9.398-6.479-8.178-11.687 1.01-4.319 4.889-8.248 11.257-7.278.06.01.12.01.19.02 9.058 1.14 15.176 1.69 22.255 2.32 4.169.38 8.898.8 14.876 1.41 11.907 1.21 21.345-1.23 28.303-5.729l.76.62c7.598 6.508 16.626 8.208 22.615 8.208 1.66 0 3.089-.13 4.189-.33l26.944-4.849 20.525 4.129c12.407 2.839 23.334-2.329 27.413-5.479l21.595-16.866 20.095-5.899c12.337-3.289 19.585-12.947 21.705-17.606l11.327-25.014 15.046-14.566c9.398-8.668 11.337-20.585 11.047-25.684l-1.56-27.433 6.578-19.925c4.311-12.087.482-23.535-2.148-27.884zm-437.446 144.037c0 .029-.001.057 0 .086v111.911c0 2.526-2.133 4.66-4.658 4.66h-46.06c-2.552 0-4.628-2.09-4.628-4.66v-120.887c0-2.57 2.076-4.66 4.628-4.66h46.061c2.525 0 4.658 2.134 4.658 4.66v8.89zm425.339-121.172c-.02.06-.04.13-.06.19l-7.058 21.375c-.3.9-.42 1.849-.37 2.799l1.63 28.863c.14 2.4-1.25 9.188-6.249 13.777-.05.04-.1.09-.15.13l-16.146 15.636c-.68.66-1.24 1.44-1.63 2.31l-11.917 26.323c-.99 2.179-5.359 7.538-11.887 9.258-.07.02-.14.04-.21.06l-21.575 6.329c-.92.26-1.77.7-2.519 1.29l-22.725 17.736c-1.9 1.48-8.268 4.199-14.816 2.669-.08-.02-.15-.03-.23-.05l-22.035-4.429c-.93-.19-1.89-.2-2.829-.03l-28.373 5.109c-2.349.42-9.218-.13-14.327-4.529-.02-.02-.05-.05-.08-.07 1.91-3.299 3.169-6.868 3.799-10.497 2.829-16.436-6.858-36.141-30.823-41.99-.15-.04-.29-.07-.43-.09l-30.843-5.659c-4.129-.76-8.108-1.33-11.997-1.72l-18.686-18.846c-1.69-1.69-5.149-7.658-4.419-14.406.01-.07.01-.15.02-.22l1.75-22.485c.07-.94-.03-1.9-.31-2.799l-8.478-27.603c-.71-2.299-.99-9.228 2.759-14.867.04-.05.08-.11.11-.16l11.987-19.075c.5-.8.85-1.7 1.03-2.639l5.269-28.403c.45-2.37 3.419-8.628 9.328-11.847.07-.04.13-.07.19-.11l19.445-11.317c.83-.47 1.55-1.11 2.139-1.859l17.856-22.695c1.47-1.88 6.978-6.039 13.727-6.139.07 0 .14 0 .21-.01l22.445-.96c.95-.04 1.889-.26 2.759-.65l26.344-11.777c1.11-.49 3.419-1.02 6.208-1.02 2.689 0 5.829.49 8.778 1.99.07.03.14.07.2.1l20.355 9.598c.86.4 1.79.64 2.739.7l28.763 1.84c2.389.15 8.928 2.339 12.837 7.858.04.06.09.11.13.17l13.557 17.986c.57.76 1.28 1.41 2.1 1.909l24.574 14.996c2.06 1.27 6.878 6.299 7.788 12.977.01.07.02.14.03.21l3.649 22.215c.15.94.48 1.85.97 2.66l14.846 24.804c1.241 2.047 3.161 8.675.851 15.084z" fill="#000000" data-original="#000000" class=""></path><path xmlns="http://www.w3.org/2000/svg" d="m397.369 128.934c-3.557-2.182-8.21-1.068-10.394 2.489l-71.103 115.872c-2.183 3.557-1.069 8.211 2.489 10.393 1.233.757 2.598 1.118 3.945 1.118 2.541 0 5.022-1.282 6.449-3.607l71.103-115.872c2.182-3.556 1.068-8.21-2.489-10.393z" fill="#000000" data-original="#000000" class=""></path><path xmlns="http://www.w3.org/2000/svg" d="m342.465 159.78c0-16.932-13.774-30.707-30.704-30.707-16.947 0-30.733 13.775-30.733 30.707s13.787 30.708 30.733 30.708c16.93 0 30.704-13.776 30.704-30.708zm-30.704 15.594c-8.612 0-15.619-6.996-15.619-15.595s7.007-15.594 15.619-15.594c8.596 0 15.59 6.995 15.59 15.594s-6.994 15.595-15.59 15.595z" fill="#000000" data-original="#000000" class=""></path><path xmlns="http://www.w3.org/2000/svg" d="m403.97 196.105c-16.931 0-30.705 13.789-30.705 30.738 0 16.932 13.774 30.707 30.705 30.707 16.946 0 30.733-13.775 30.733-30.707 0-16.95-13.787-30.738-30.733-30.738zm0 46.331c-8.597 0-15.59-6.995-15.59-15.594 0-8.615 6.993-15.624 15.59-15.624 8.612 0 15.618 7.009 15.618 15.624 0 8.599-7.006 15.594-15.618 15.594z" fill="#000000" data-original="#000000" class=""></path></g></svg>