<svg xmlns="http://www.w3.org/2000/svg" height="511pt" version="1.1" viewBox="1 -25 511.99999 511" width="511pt">
<g id="surface1">
<path d="M 190 76.5 C 207.75 76.5 222.140625 90.890625 222.140625 108.644531 C 222.140625 126.394531 207.75 140.785156 190 140.785156 C 172.246094 140.785156 157.855469 126.394531 157.855469 108.644531 C 157.855469 90.890625 172.246094 76.5 190 76.5 Z M 370 231.007812 L 370 42.5 C 370 24.898438 355.597656 10.5 338 10.5 L 42 10.5 C 24.398438 10.5 10 24.898438 10 42.5 L 10 291.074219 L 89.285156 211.789062 C 100.558594 200.511719 119.007812 200.511719 130.28125 211.789062 L 180.433594 261.9375 L 270.183594 172.1875 C 281.457031 160.914062 299.90625 160.914062 311.179688 172.1875 Z M 370 231.007812 " style=" stroke:none;fill-rule:evenodd;fill:rgb(93.333333%,96.078431%,100%);fill-opacity:1;" />
<path d="M 270.183594 172.1875 L 180.433594 261.9375 L 130.28125 211.789062 C 119.007812 200.511719 100.558594 200.511719 89.285156 211.789062 L 10 291.074219 L 10 338.5 C 10 356.097656 24.398438 370.5 42 370.5 L 338 370.5 C 355.597656 370.5 370 356.097656 370 338.5 L 370 231.007812 L 311.179688 172.1875 C 299.90625 160.914062 281.457031 160.914062 270.183594 172.1875 Z M 270.183594 172.1875 " style=" stroke:none;fill-rule:evenodd;fill:rgb(48.627451%,85.882353%,28.627451%);fill-opacity:1;" />
<path d="M 222.140625 108.644531 C 222.140625 126.394531 207.75 140.785156 190 140.785156 C 172.246094 140.785156 157.855469 126.394531 157.855469 108.644531 C 157.855469 90.890625 172.246094 76.5 190 76.5 C 207.75 76.5 222.140625 90.890625 222.140625 108.644531 Z M 222.140625 108.644531 " style=" stroke:none;fill-rule:evenodd;fill:rgb(100%,62.352941%,28.235294%);fill-opacity:1;" />
<path d="M 202 450.5 L 482 450.5 C 493 450.5 502 441.5 502 430.5 L 502 310.5 C 502 299.5 493 290.5 482 290.5 L 202 290.5 C 191 290.5 182 299.5 182 310.5 L 182 430.5 C 182 441.5 191 450.5 202 450.5 Z M 202 450.5 " style=" stroke:none;fill-rule:evenodd;fill:rgb(67.058824%,78.039216%,100%);fill-opacity:1;" />
<path d="M 81.765625 20.5 L 82.035156 20.5 C 87.558594 20.5 92.035156 16.023438 92.035156 10.5 C 92.035156 4.976562 87.558594 0.5 82.035156 0.5 L 81.765625 0.5 C 76.242188 0.5 71.765625 4.976562 71.765625 10.5 C 71.765625 16.023438 76.242188 20.5 81.765625 20.5 Z M 81.765625 20.5 " style=" stroke:none;fill-rule:nonzero;fill:rgb(0%,0%,0%);fill-opacity:1;" />
<path d="M 232.140625 108.644531 C 232.140625 85.40625 213.238281 66.5 190 66.5 C 166.761719 66.5 147.855469 85.40625 147.855469 108.644531 C 147.855469 131.882812 166.761719 150.785156 190 150.785156 C 213.238281 150.785156 232.140625 131.878906 232.140625 108.644531 Z M 167.855469 108.644531 C 167.855469 96.433594 177.789062 86.5 190 86.5 C 202.207031 86.5 212.140625 96.433594 212.140625 108.644531 C 212.140625 120.855469 202.207031 130.785156 190 130.785156 C 177.789062 130.785156 167.855469 120.851562 167.855469 108.644531 Z M 167.855469 108.644531 " style=" stroke:none;fill-rule:nonzero;fill:rgb(0%,0%,0%);fill-opacity:1;" />
<path d="M 482 280.5 L 380 280.5 L 380 42.5 C 380 19.339844 361.15625 0.5 338 0.5 L 122 0.5 C 116.476562 0.5 112 4.976562 112 10.5 C 112 16.023438 116.476562 20.5 122 20.5 L 338 20.5 C 350.128906 20.5 360 30.367188 360 42.5 L 360 206.863281 L 318.25 165.117188 C 303.046875 149.917969 278.316406 149.917969 263.113281 165.117188 L 180.433594 247.796875 L 137.351562 204.71875 C 130.011719 197.375 120.21875 193.332031 109.785156 193.332031 C 99.34375 193.332031 89.554688 197.375 82.214844 204.714844 L 20 266.929688 L 20 42.5 C 20 30.367188 29.867188 20.5 42 20.5 L 53.035156 20.5 C 58.554688 20.5 63.035156 16.023438 63.035156 10.5 C 63.035156 4.976562 58.554688 0.5 53.035156 0.5 L 42 0.5 C 18.839844 0.5 0 19.339844 0 42.5 L 0 338.5 C 0 361.65625 18.839844 380.5 42 380.5 L 172 380.5 L 172 430.5 C 172 447.039062 185.457031 460.5 202 460.5 L 402 460.5 C 407.523438 460.5 412 456.019531 412 450.5 C 412 444.976562 407.523438 440.5 402 440.5 L 202 440.5 C 196.484375 440.5 192 436.011719 192 430.5 L 192 310.5 C 192 304.984375 196.484375 300.5 202 300.5 L 482 300.5 C 487.515625 300.5 492 304.984375 492 310.5 L 492 430.5 C 492 436.011719 487.515625 440.5 482 440.5 L 470.964844 440.5 C 465.445312 440.5 460.964844 444.976562 460.964844 450.5 C 460.964844 456.019531 465.445312 460.5 470.964844 460.5 L 482 460.5 C 498.542969 460.5 512 447.039062 512 430.5 L 512 310.5 C 512 293.957031 498.542969 280.5 482 280.5 Z M 172 310.5 L 172 360.5 L 42 360.5 C 29.867188 360.5 20 350.628906 20 338.5 L 20 295.214844 L 96.355469 218.859375 C 99.917969 215.296875 104.6875 213.332031 109.785156 213.332031 C 114.878906 213.332031 119.644531 215.296875 123.210938 218.859375 L 173.359375 269.011719 C 175.238281 270.886719 177.78125 271.941406 180.433594 271.941406 C 183.085938 271.941406 185.628906 270.886719 187.503906 269.011719 L 277.253906 179.257812 C 284.65625 171.855469 296.703125 171.855469 304.109375 179.257812 L 360 235.148438 L 360 280.5 L 202 280.5 C 185.457031 280.5 172 293.957031 172 310.5 Z M 172 310.5 " style=" stroke:none;fill-rule:nonzero;fill:rgb(0%,0%,0%);fill-opacity:1;" />
<path d="M 442.234375 440.5 L 441.964844 440.5 C 436.441406 440.5 431.964844 444.976562 431.964844 450.5 C 431.964844 456.019531 436.441406 460.5 441.964844 460.5 L 442.234375 460.5 C 447.757812 460.5 452.234375 456.019531 452.234375 450.5 C 452.234375 444.976562 447.757812 440.5 442.234375 440.5 Z M 442.234375 440.5 " style=" stroke:none;fill-rule:nonzero;fill:rgb(0%,0%,0%);fill-opacity:1;" />
<path d="M 341.765625 321.289062 L 316.074219 321.289062 C 310.554688 321.289062 306.074219 325.765625 306.074219 331.289062 L 306.074219 411.289062 C 306.074219 416.8125 310.554688 421.289062 316.074219 421.289062 C 321.597656 421.289062 326.074219 416.8125 326.074219 411.289062 L 326.074219 392.671875 L 341.765625 392.671875 C 361.445312 392.671875 377.457031 376.660156 377.457031 356.980469 C 377.457031 337.300781 361.445312 321.289062 341.765625 321.289062 Z M 341.765625 372.671875 L 326.074219 372.671875 L 326.074219 341.289062 L 341.765625 341.289062 C 350.417969 341.289062 357.457031 348.328125 357.457031 356.980469 C 357.457031 365.632812 350.417969 372.671875 341.765625 372.671875 Z M 341.765625 372.671875 " style=" stroke:none;fill-rule:nonzero;fill:rgb(0%,0%,0%);fill-opacity:1;" />
<path d="M 258.828125 401.289062 C 251.445312 401.289062 245.4375 395.28125 245.4375 387.902344 C 245.4375 382.378906 240.960938 377.902344 235.4375 377.902344 C 229.917969 377.902344 225.4375 382.378906 225.4375 387.902344 C 225.4375 406.308594 240.417969 421.289062 258.828125 421.289062 C 277.238281 421.289062 292.21875 406.308594 292.21875 387.902344 L 292.21875 329.710938 C 292.21875 324.1875 287.738281 319.710938 282.21875 319.710938 L 255.441406 319.710938 C 249.917969 319.710938 245.441406 324.1875 245.441406 329.710938 C 245.441406 335.234375 249.917969 339.710938 255.441406 339.710938 L 272.21875 339.710938 L 272.21875 387.902344 C 272.21875 395.28125 266.210938 401.289062 258.828125 401.289062 Z M 258.828125 401.289062 " style=" stroke:none;fill-rule:nonzero;fill:rgb(0%,0%,0%);fill-opacity:1;" />
<path d="M 448.5625 365.957031 L 432.871094 365.957031 C 427.347656 365.957031 422.871094 370.4375 422.871094 375.957031 C 422.871094 381.480469 427.347656 385.957031 432.871094 385.957031 L 438.558594 385.957031 C 438.367188 394.445312 431.402344 401.289062 422.871094 401.289062 C 414.21875 401.289062 407.179688 394.25 407.179688 385.597656 L 407.179688 356.980469 C 407.179688 348.328125 414.21875 341.289062 422.871094 341.289062 C 426.789062 341.289062 430.554688 342.765625 433.46875 345.449219 C 437.53125 349.191406 443.855469 348.925781 447.597656 344.863281 C 451.335938 340.800781 451.078125 334.472656 447.011719 330.734375 C 440.394531 324.644531 431.824219 321.289062 422.871094 321.289062 C 403.1875 321.289062 387.179688 337.300781 387.179688 356.980469 L 387.179688 385.597656 C 387.179688 405.277344 403.191406 421.289062 422.871094 421.289062 C 442.550781 421.289062 458.5625 405.277344 458.5625 385.597656 L 458.5625 375.957031 C 458.5625 370.4375 454.082031 365.957031 448.5625 365.957031 Z M 448.5625 365.957031 " style=" stroke:none;fill-rule:nonzero;fill:rgb(0%,0%,0%);fill-opacity:1;" />
</g>
</svg>