<svg xmlns="http://www.w3.org/2000/svg" version="1.1" xmlns:xlink="http://www.w3.org/1999/xlink" xmlns:svgjs="http://svgjs.com/svgjs" width="512" height="512" x="0" y="0" viewBox="0 0 7111.11 7111.11" style="enable-background:new 0 0 512 512" xml:space="preserve" fill-rule="evenodd" class=""><g><g fill="#250e1e" fill-rule="nonzero"><path d="M6255.49 4667.85v2329.18c0 63.01-51.08 114.09-114.08 114.09H969.7c-63.01 0-114.08-51.08-114.08-114.09V4667.85c0-63.01 51.07-114.09 114.08-114.09h5171.71c63 0 114.08 51.08 114.08 114.09zm-228.17 2215.09V4781.93H1083.78v2101.01zM969.7 0h5171.71c63 0 114.08 51.08 114.08 114.08v2329.17c0 63-51.08 114.08-114.08 114.08H969.7c-63.01 0-114.08-51.08-114.08-114.08V114.08C855.62 51.08 906.69 0 969.7 0zm5057.63 228.17H1083.79v2101h4943.54z" fill="#250e1e" data-original="#250e1e"></path><path d="M465.83 2329.17h6179.44c63 0 114.08 51.08 114.08 114.08v2224.59c0 63-51.08 114.08-114.08 114.08H465.83c-63 0-114.08-51.08-114.08-114.08V2443.25c0-63 51.08-114.08 114.08-114.08zm6065.35 228.17H579.91v1996.43h5951.27z" fill="#250e1e" data-original="#250e1e"></path><path d="M2341.51 4021.05c0 108.91-29.73 145.32-137.73 145.32-105.41 0-137.1-34.07-137.1-139.63 0-110.95 30.41-146.26 139-146.26 104.86 0 135.83 34.34 135.83 140.58zm490.93 100.15c0 55.52-185.76 39.19-218.61 28.43-14.87-4.87-25.91-13.4-25.91-28.43V2989.92c0-55.17 184.46-39.33 218.29-28.43 14.81 4.77 26.22 13.7 26.22 28.43V4121.2zm1089.26-148.16c0 74-4.47 97.24-66.97 133.31-139.43 80.46-356.78 86.77-506.72 29.38-234.28-89.67-312.12-321.56-312.12-564.54 0-356.85 183.7-634.03 555.37-634.03 89.8 0 236.57 32.35 296.64 91.3 31.34 30.76 30.01 66.26 30.01 116.25 0 162.25-53.52 90.95-124.47 49.28-134.89-79.23-314.28-77.27-414.47 60.34-107.74 147.98-109.88 473.06 3.8 614.13 100.99 125.33 289.25 120.78 418.26 49.91 88.33-48.52 120.67-98.92 120.67 54.65zm1238.37-431.22c0 377.46-182.35 633.72-577.48 633.72-402.25 0-556.31-225.09-556.31-612.55 0-374.4 187.98-627.4 578.43-627.4 394.85 0 555.37 224.11 555.37 606.23zm-255.26 12.95c0-219.51-51.9-419.53-308.33-419.53-246.44 0-314.65 204.48-314.65 415.74 0 223.65 47.09 423.95 308.33 423.95 249.08 0 314.65-207.25 314.65-420.16z" fill="#250e1e" data-original="#250e1e"></path></g><path fill="#fad190" d="M1083.78 2329.17h4943.54v-2101H1083.78z" data-original="#fad190" class=""></path><path fill="#7fe289" d="M6141.41 2557.34H579.92v1996.43h5951.27V2557.34zM2205.67 3880.47c104.86 0 135.83 34.34 135.83 140.58 0 108.91-29.73 145.32-137.73 145.32-105.41 0-137.1-34.07-137.1-139.63 0-110.95 30.41-146.26 139-146.26zm382.25 240.72V2989.91c0-55.17 184.46-39.33 218.29-28.43 14.81 4.77 26.22 13.7 26.22 28.43v1131.28c0 55.52-185.76 39.19-218.61 28.43-14.87-4.87-25.91-13.4-25.91-28.43zm447.96-550c0-356.85 183.7-634.03 555.37-634.03 89.8 0 236.57 32.35 296.64 91.3 31.34 30.76 30.01 66.26 30.01 116.25 0 162.25-53.52 90.95-124.47 49.28-134.89-79.23-314.28-77.27-414.47 60.34-107.74 147.98-109.88 473.06 3.8 614.13 100.99 125.33 289.25 120.78 418.26 49.91 88.33-48.52 120.67-98.92 120.67 54.65 0 74-4.47 97.24-66.97 133.31-139.43 80.46-356.78 86.77-506.72 29.38-234.28-89.67-312.12-321.56-312.12-564.54zm990.38-8.21c0-374.4 187.98-627.4 578.43-627.4 394.85 0 555.37 224.11 555.37 606.23 0 377.46-182.35 633.72-577.48 633.72-402.25 0-556.31-225.09-556.31-612.55z" data-original="#7fe289"></path><path fill="#7fe289" d="M4446.43 3169.04c-135.9 77.65-164.59 233.87-164.59 381.93 0 223.65 47.09 423.95 308.33 423.95 249.08 0 314.65-207.25 314.65-420.16 0-219.51-51.9-419.53-308.33-419.53-59.71 0-109.94 11.37-150.06 33.81z" data-original="#7fe289"></path><path fill="#fad190" d="M6027.32 4781.93H1083.78v2101.01h4943.54z" data-original="#fad190" class=""></path></g></svg>