<svg xmlns="http://www.w3.org/2000/svg" version="1.1" xmlns:xlink="http://www.w3.org/1999/xlink" xmlns:svgjs="http://svgjs.com/svgjs" width="512" height="512" x="0" y="0" viewBox="0 0 512 512" style="enable-background:new 0 0 512 512" xml:space="preserve" class=""><g><path d="M419.077 504.498H46.33V69.627l62.124-62.125h310.623z" style="" fill="#f2fbff" data-original="#f2fbff" class=""></path><path d="M46.33 69.627h62.124V7.502z" style="" fill="#dff6fd" data-original="#dff6fd"></path><path d="M465.67 224.938v31.124c0 17.121-13.879 31-31 31h-15.593v-62.124h46.593z" style="" fill="#ffce7e" data-original="#ffce7e"></path><path d="M389.077 7.502h30v496.996h-30z" style="" fill="#dff6fd" data-original="#dff6fd"></path><path d="M465.67 256c0-17.155-13.907-31.062-31.062-31.062H139.517V69.626H434.67c17.121 0 31 13.879 31 31V256z" style="" fill="#ffdd94" data-original="#ffdd94" class=""></path><path d="M434.67 69.626h-30c17.121 0 31 13.879 31 31v124.33c16.663.56 30 14.244 30 31.044V100.626c0-17.12-13.879-31-31-31z" style="" fill="#ffce7e" data-original="#ffce7e"></path><path d="M92.639 318.125h217.817v139.78H92.639z" style="" fill="#7bb1ff" data-original="#7bb1ff"></path><path d="m310.455 442.374-54.451-46.593-44.679 31.062 37.006 31.062h62.125z" style="" fill="#7cc27c" data-original="#7cc27c"></path><path d="m248.331 457.905-74.011-62.123-81.681 46.592v15.531z" style="" fill="#8aca89" data-original="#8aca89"></path><circle cx="139.613" cy="364.718" r="15.531" style="" fill="#ffdd94" data-original="#ffdd94" class=""></circle><circle cx="310.45" cy="318.125" r="54.36" style="" fill="#fe91ab" data-original="#fe91ab"></circle><path d="M291.959 341.616v-46.981l46.982 23.483z" style="" fill="#f2fbff" data-original="#f2fbff" class=""></path><path d="M419.08 224.94v62.12h15.59c17.12 0 31-13.88 31-31V256M331.79 7.5h87.29v62.13" style="stroke-width:15;stroke-linecap:round;stroke-linejoin:round;stroke-miterlimit:10;" fill="none" stroke="#000000" stroke-width="15" stroke-linecap="round" stroke-linejoin="round" stroke-miterlimit="10" data-original="#000000" class=""></path><path d="M419.08 224.94V504.5H46.33V69.63L108.45 7.5h190.66" style="stroke-width:15;stroke-linecap:round;stroke-linejoin:round;stroke-miterlimit:10;" fill="none" stroke="#000000" stroke-width="15" stroke-linecap="round" stroke-linejoin="round" stroke-miterlimit="10" data-original="#000000" class=""></path><path d="M46.33 69.627h62.124V7.502M465.67 179.15V256c0-17.16-13.91-31.06-31.06-31.06H139.52V69.63h295.15c17.12 0 31 13.88 31 31v45.83" style="stroke-width:15;stroke-linecap:round;stroke-linejoin:round;stroke-miterlimit:10;" fill="none" stroke="#000000" stroke-width="15" stroke-linecap="round" stroke-linejoin="round" stroke-miterlimit="10" data-original="#000000" class=""></path><path d="M275.593 121.491a30.74 30.74 0 0 0-17.265-5.274c-17.054 0-30.879 13.825-30.879 30.879s13.825 30.879 30.879 30.879c17.054 0 26.656-13.825 26.656-30.879H266.51M377.738 116.217h-25.179v62.125M352.559 146.691h23.179M316.496 116.583v61.759M256.09 318.13H155.96M310.45 372.48v85.43H92.63V318.13h30.64" style="stroke-width:15;stroke-linecap:round;stroke-linejoin:round;stroke-miterlimit:10;" fill="none" stroke="#000000" stroke-width="15" stroke-linecap="round" stroke-linejoin="round" stroke-miterlimit="10" data-original="#000000" class=""></path><path d="m92.639 442.374 81.681-46.592 74.011 62.123M211.325 426.843l44.679-31.062 54.451 46.593" style="stroke-width:15;stroke-linecap:round;stroke-linejoin:round;stroke-miterlimit:10;" fill="none" stroke="#000000" stroke-width="15" stroke-linecap="round" stroke-linejoin="round" stroke-miterlimit="10" data-original="#000000" class=""></path><circle cx="139.613" cy="364.718" r="15.531" style="stroke-width:15;stroke-linecap:round;stroke-linejoin:round;stroke-miterlimit:10;" fill="none" stroke="#000000" stroke-width="15" stroke-linecap="round" stroke-linejoin="round" stroke-miterlimit="10" data-original="#000000" class=""></circle><circle cx="310.45" cy="318.125" r="54.36" style="stroke-width:15;stroke-linecap:round;stroke-linejoin:round;stroke-miterlimit:10;" fill="none" stroke="#000000" stroke-width="15" stroke-linecap="round" stroke-linejoin="round" stroke-miterlimit="10" data-original="#000000" class=""></circle><path d="M291.959 341.616v-46.981l46.982 23.483z" style="stroke-width:15;stroke-linecap:round;stroke-linejoin:round;stroke-miterlimit:10;" fill="none" stroke="#000000" stroke-width="15" stroke-linecap="round" stroke-linejoin="round" stroke-miterlimit="10" data-original="#000000" class=""></path></g></svg>