<svg xmlns="http://www.w3.org/2000/svg" version="1.1" xmlns:xlink="http://www.w3.org/1999/xlink" xmlns:svgjs="http://svgjs.com/svgjs" width="512" height="512" x="0" y="0" viewBox="0 0 682.667 682.667" style="enable-background:new 0 0 512 512" xml:space="preserve" class=""><g><defs><clipPath id="a" clipPathUnits="userSpaceOnUse"><path d="M0 512h512V0H0Z" fill="#000000" data-original="#000000"></path></clipPath></defs><g clip-path="url(#a)" transform="matrix(1.33333 0 0 -1.33333 0 682.667)"><path d="M0 0v-311.5c0-6.63-5.37-12-12-12h-472.84c-6.63 0-12 5.37-12 12V0l29.348 19.704 423.651 9.476z" style="fill-opacity:1;fill-rule:nonzero;stroke:none" transform="translate(504.42 388.57)" fill="#f2fbff" data-original="#f2fbff" class=""></path><path d="M0 0h-25c-6.63 0-12 5.37-12 12v311.5l13.825 19.704L-12 323.5V12C-12 5.37-6.63 0 0 0" style="fill-opacity:1;fill-rule:nonzero;stroke:none" transform="translate(44.58 65.07)" fill="#d8ecfe" data-original="#d8ecfe"></path><path d="M0 0v-46.359h-496.84V0c0 6.62 5.37 12 12 12H-12C-5.37 12 0 6.62 0 0" style="fill-opacity:1;fill-rule:nonzero;stroke:none" transform="translate(504.42 434.93)" fill="#b3dafe" data-original="#b3dafe" class=""></path><path d="M0 0c-6.63 0-12-5.38-12-12v-46.359h-25V-12c0 6.62 5.37 12 12 12z" style="fill-opacity:1;fill-rule:nonzero;stroke:none" transform="translate(44.58 446.93)" fill="#8ac9fe" data-original="#8ac9fe"></path><path d="M0 0h-250.936a6 6 0 0 0-6 6v104.218a6 6 0 0 0 6 6H0a6 6 0 0 0 6-6V6a6 6 0 0 0-6-6" style="fill-opacity:1;fill-rule:nonzero;stroke:none" transform="translate(381.268 209.883)" fill="#b6c4cf" data-original="#b6c4cf"></path><path d="M0 0v-147.26c0-3.32-2.681-6-6-6h-185.61c-3.31 0-6 2.68-6 6V0c0 3.311 2.69 6 6 6H-6c3.319 0 6-2.689 6-6" style="fill-opacity:1;fill-rule:nonzero;stroke:none" transform="translate(354.603 341.624)" fill="#b3dafe" data-original="#b3dafe" class=""></path><path d="M0 0h-25c-3.31 0-6 2.68-6 6v147.26c0 3.31 2.69 6 6 6H0c-3.31 0-6-2.69-6-6V6c0-3.32 2.69-6 6-6" style="fill-opacity:1;fill-rule:nonzero;stroke:none" transform="translate(187.993 188.364)" fill="#8ac9fe" data-original="#8ac9fe"></path><path d="M0 0v-35.54c0-3.32-2.681-6-6-6h-185.61c-3.31 0-6 2.68-6 6v67.32l53.44 37.95c.84.59 1.989.45 2.67-.32l38.189-44.13c.55-.64 1.451-.86 2.241-.55l46.099 18.02c.67.26 1.42.14 1.981-.3z" style="fill-opacity:1;fill-rule:nonzero;stroke:none" transform="translate(354.603 229.904)" fill="#c9f6b0" data-original="#c9f6b0" class=""></path><path d="M0 0h-25c-3.31 0-6 2.68-6 6v67.32l25 17.75V6c0-3.32 2.69-6 6-6" style="fill-opacity:1;fill-rule:nonzero;stroke:none" transform="translate(187.993 188.364)" fill="#9be69d" data-original="#9be69d"></path><path d="M0 0c0-13.435-10.892-24.326-24.326-24.326-13.435 0-24.326 10.891-24.326 24.326s10.891 24.326 24.326 24.326C-10.892 24.326 0 13.435 0 0" style="fill-opacity:1;fill-rule:nonzero;stroke:none" transform="translate(285.28 128.883)" fill="#c9f6b0" data-original="#c9f6b0" class=""></path><path d="M0 0a24.213 24.213 0 0 0-11.01-2.63c-13.429 0-24.33 10.89-24.33 24.33 0 13.43 10.901 24.32 24.33 24.32 3.96 0 7.71-.951 11.01-2.63-7.91-4-13.34-12.21-13.34-21.69S-7.91 4 0 0" style="fill-opacity:1;fill-rule:nonzero;stroke:none" transform="translate(271.963 107.185)" fill="#9be69d" data-original="#9be69d"></path><path d="M0 0c0-7.917-6.418-14.336-14.335-14.336-7.918 0-14.336 6.419-14.336 14.336 0 7.917 6.418 14.336 14.336 14.336C-6.418 14.336 0 7.917 0 0" style="fill-opacity:1;fill-rule:nonzero;stroke:none" transform="translate(343.95 128.883)" fill="#c9f6b0" data-original="#c9f6b0" class=""></path><path d="M0 0c0-7.917-6.418-14.336-14.336-14.336-7.917 0-14.335 6.419-14.335 14.336 0 7.917 6.418 14.336 14.335 14.336C-6.418 14.336 0 7.917 0 0" style="fill-opacity:1;fill-rule:nonzero;stroke:none" transform="translate(206.627 128.883)" fill="#c9f6b0" data-original="#c9f6b0" class=""></path><path d="m0 0-42.014 24.257c-1.333.769-3-.194-3-1.733v-48.512c0-1.54 1.667-2.502 3-1.733L0-3.464C1.333-2.694 1.333-.77 0 0" style="fill-opacity:1;fill-rule:nonzero;stroke:none" transform="translate(462.281 269.724)" fill="#fd9aa0" data-original="#fd9aa0"></path><path d="m0 0 42.014-24.257c1.333-.769 3 .193 3 1.733v48.512c0 1.539-1.667 2.502-3 1.733L0 3.464C-1.333 2.694-1.333.77 0 0" style="fill-opacity:1;fill-rule:nonzero;stroke:none" transform="translate(49.318 266.26)" fill="#fd9aa0" data-original="#fd9aa0"></path><path d="M0 0h-17.79c-6.63 0-12 5.37-12 12v357.859c0 6.63 5.37 12 12 12h472.84c6.63 0 12-5.37 12-12v-75.54" style="stroke-width:15;stroke-linecap:round;stroke-linejoin:round;stroke-miterlimit:10;stroke-dasharray:none;stroke-opacity:1" transform="translate(37.37 65.07)" fill="none" stroke="#000000" stroke-width="15" stroke-linecap="round" stroke-linejoin="round" stroke-miterlimit="10" stroke-dasharray="none" stroke-opacity="" data-original="#000000" class=""></path><path d="M0 0v-247.319c0-6.63-5.37-12-12-12h-420.05" style="stroke-width:15;stroke-linecap:round;stroke-linejoin:round;stroke-miterlimit:10;stroke-dasharray:none;stroke-opacity:1" transform="translate(504.42 324.39)" fill="none" stroke="#000000" stroke-width="15" stroke-linecap="round" stroke-linejoin="round" stroke-miterlimit="10" stroke-dasharray="none" stroke-opacity="" data-original="#000000" class=""></path><path d="M0 0h-496.84" style="stroke-width:15;stroke-linecap:round;stroke-linejoin:round;stroke-miterlimit:10;stroke-dasharray:none;stroke-opacity:1" transform="translate(504.42 388.571)" fill="none" stroke="#000000" stroke-width="15" stroke-linecap="round" stroke-linejoin="round" stroke-miterlimit="10" stroke-dasharray="none" stroke-opacity="" data-original="#000000" class=""></path><path d="M0 0h262.87" style="stroke-width:15;stroke-linecap:round;stroke-linejoin:round;stroke-miterlimit:10;stroke-dasharray:none;stroke-opacity:1" transform="translate(50.57 417.75)" fill="none" stroke="#000000" stroke-width="15" stroke-linecap="round" stroke-linejoin="round" stroke-miterlimit="10" stroke-dasharray="none" stroke-opacity="" data-original="#000000" class=""></path><path d="M0 0h3.392" style="stroke-width:15;stroke-linecap:round;stroke-linejoin:round;stroke-miterlimit:10;stroke-dasharray:none;stroke-opacity:1" transform="translate(458.038 417.75)" fill="none" stroke="#000000" stroke-width="15" stroke-linecap="round" stroke-linejoin="round" stroke-miterlimit="10" stroke-dasharray="none" stroke-opacity="" data-original="#000000" class=""></path><path d="M0 0h3.392" style="stroke-width:15;stroke-linecap:round;stroke-linejoin:round;stroke-miterlimit:10;stroke-dasharray:none;stroke-opacity:1" transform="translate(429.647 417.75)" fill="none" stroke="#000000" stroke-width="15" stroke-linecap="round" stroke-linejoin="round" stroke-miterlimit="10" stroke-dasharray="none" stroke-opacity="" data-original="#000000" class=""></path><path d="M0 0h3.391" style="stroke-width:15;stroke-linecap:round;stroke-linejoin:round;stroke-miterlimit:10;stroke-dasharray:none;stroke-opacity:1" transform="translate(401.256 417.75)" fill="none" stroke="#000000" stroke-width="15" stroke-linecap="round" stroke-linejoin="round" stroke-miterlimit="10" stroke-dasharray="none" stroke-opacity="" data-original="#000000" class=""></path><path d="M0 0h26.67c3.31 0 6-2.68 6-6v-104.22c0-3.31-2.69-6-6-6H0" style="stroke-width:15;stroke-linecap:round;stroke-linejoin:round;stroke-miterlimit:10;stroke-dasharray:none;stroke-opacity:1" transform="translate(354.8 326.83)" fill="none" stroke="#000000" stroke-width="15" stroke-linecap="round" stroke-linejoin="round" stroke-miterlimit="10" stroke-dasharray="none" stroke-opacity="" data-original="#000000" class=""></path><path d="M0 0h-26.67c-3.31 0-6 2.689-6 6v104.22c0 3.32 2.69 6 6 6H0" style="stroke-width:15;stroke-linecap:round;stroke-linejoin:round;stroke-miterlimit:10;stroke-dasharray:none;stroke-opacity:1" transform="translate(157.2 210.61)" fill="none" stroke="#000000" stroke-width="15" stroke-linecap="round" stroke-linejoin="round" stroke-miterlimit="10" stroke-dasharray="none" stroke-opacity="" data-original="#000000" class=""></path><path d="M0 0h15.819c3.321 0 6-2.68 6-6v-147.26c0-3.309-2.679-6-6-6H-169.78c-3.321 0-6 2.691-6 6V-6c0 3.32 2.679 6 6 6H-35" style="stroke-width:15;stroke-linecap:round;stroke-linejoin:round;stroke-miterlimit:10;stroke-dasharray:none;stroke-opacity:1" transform="translate(332.98 348.35)" fill="none" stroke="#000000" stroke-width="15" stroke-linecap="round" stroke-linejoin="round" stroke-miterlimit="10" stroke-dasharray="none" stroke-opacity="" data-original="#000000" class=""></path><path d="m0 0 53.439 37.95c.841.59 1.991.45 2.67-.32L94.3-6.5c.55-.64 1.45-.859 2.24-.55l46.1 18.02c.67.26 1.42.14 1.98-.3l52.989-42.45" style="stroke-width:15;stroke-linecap:round;stroke-linejoin:round;stroke-miterlimit:10;stroke-dasharray:none;stroke-opacity:1" transform="translate(157.192 262.42)" fill="none" stroke="#000000" stroke-width="15" stroke-linecap="round" stroke-linejoin="round" stroke-miterlimit="10" stroke-dasharray="none" stroke-opacity="" data-original="#000000" class=""></path><path d="M0 0c0-13.435-10.892-24.326-24.326-24.326-13.436 0-24.326 10.891-24.326 24.326 0 13.436 10.89 24.326 24.326 24.326C-10.892 24.326 0 13.436 0 0Z" style="stroke-width:15;stroke-linecap:round;stroke-linejoin:round;stroke-miterlimit:10;stroke-dasharray:none;stroke-opacity:1" transform="translate(285.48 129.614)" fill="none" stroke="#000000" stroke-width="15" stroke-linecap="round" stroke-linejoin="round" stroke-miterlimit="10" stroke-dasharray="none" stroke-opacity="" data-original="#000000" class=""></path><path d="M0 0c0-7.917-6.418-14.335-14.336-14.335-7.917 0-14.335 6.418-14.335 14.335 0 7.918 6.418 14.336 14.335 14.336C-6.418 14.336 0 7.918 0 0Z" style="stroke-width:15;stroke-linecap:round;stroke-linejoin:round;stroke-miterlimit:10;stroke-dasharray:none;stroke-opacity:1" transform="translate(344.15 129.614)" fill="none" stroke="#000000" stroke-width="15" stroke-linecap="round" stroke-linejoin="round" stroke-miterlimit="10" stroke-dasharray="none" stroke-opacity="" data-original="#000000" class=""></path><path d="M0 0c0-7.917-6.418-14.335-14.336-14.335-7.917 0-14.335 6.418-14.335 14.335 0 7.918 6.418 14.336 14.335 14.336C-6.418 14.336 0 7.918 0 0Z" style="stroke-width:15;stroke-linecap:round;stroke-linejoin:round;stroke-miterlimit:10;stroke-dasharray:none;stroke-opacity:1" transform="translate(206.827 129.614)" fill="none" stroke="#000000" stroke-width="15" stroke-linecap="round" stroke-linejoin="round" stroke-miterlimit="10" stroke-dasharray="none" stroke-opacity="" data-original="#000000" class=""></path><path d="m0 0-42.014 24.257c-1.333.769-3-.193-3-1.733v-48.512c0-1.54 1.667-2.502 3-1.733L0-3.464C1.333-2.694 1.333-.77 0 0Z" style="stroke-width:15;stroke-linecap:round;stroke-linejoin:round;stroke-miterlimit:10;stroke-dasharray:none;stroke-opacity:1" transform="translate(462.481 270.455)" fill="none" stroke="#000000" stroke-width="15" stroke-linecap="round" stroke-linejoin="round" stroke-miterlimit="10" stroke-dasharray="none" stroke-opacity="" data-original="#000000" class=""></path><path d="m0 0 42.014-24.257c1.333-.769 3 .193 3 1.733v48.512c0 1.54-1.667 2.502-3 1.733L0 3.464C-1.333 2.694-1.333.77 0 0Z" style="stroke-width:15;stroke-linecap:round;stroke-linejoin:round;stroke-miterlimit:10;stroke-dasharray:none;stroke-opacity:1" transform="translate(49.519 266.991)" fill="none" stroke="#000000" stroke-width="15" stroke-linecap="round" stroke-linejoin="round" stroke-miterlimit="10" stroke-dasharray="none" stroke-opacity="" data-original="#000000" class=""></path></g></g></svg>