<svg xmlns="http://www.w3.org/2000/svg" width="384" viewBox="0 0 384 384" height="384" version="1.0"><defs><clipPath id="a"><path d="M 118.171875 120 L 129 120 L 129 131 L 118.171875 131 Z M 118.171875 120"/></clipPath><clipPath id="b"><path d="M 118.171875 0 L 383.984375 0 L 383.984375 265.828125 L 118.171875 265.828125 Z M 118.171875 0"/></clipPath><clipPath id="c"><path d="M 174.28125 126 L 328.03125 126 L 328.03125 140 L 174.28125 140 Z M 174.28125 126"/></clipPath><clipPath id="d"><path d="M 174.28125 77 L 328.03125 77 L 328.03125 91 L 174.28125 91 Z M 174.28125 77"/></clipPath><clipPath id="e"><path d="M 174.28125 175 L 328.03125 175 L 328.03125 189 L 174.28125 189 Z M 174.28125 175"/></clipPath><clipPath id="f"><path d="M 0.0117188 238 L 11 238 L 11 250 L 0.0117188 250 Z M 0.0117188 238"/></clipPath><clipPath id="g"><path d="M 0.0117188 118.160156 L 265.828125 118.160156 L 265.828125 383.984375 L 0.0117188 383.984375 Z M 0.0117188 118.160156"/></clipPath></defs><path fill="#ECEAEC" d="M 149.457031 260.636719 L 352.710938 260.636719 C 367.121094 260.636719 378.804688 248.953125 378.804688 234.539062 L 378.804688 31.289062 C 378.804688 16.875 367.121094 5.191406 352.710938 5.191406 L 149.457031 5.191406 C 135.046875 5.191406 123.363281 16.875 123.363281 31.289062 L 123.363281 234.539062 C 123.363281 248.953125 135.046875 260.636719 149.457031 260.636719 Z M 149.457031 260.636719"/><g clip-path="url(#a)"><path d="M 123.363281 120.515625 C 124.726562 120.515625 126.070312 121.070312 127.035156 122.035156 C 128 123.003906 128.554688 124.335938 128.554688 125.707031 C 128.554688 127.074219 128 128.410156 127.035156 129.378906 C 126.070312 130.34375 124.726562 130.898438 123.363281 130.898438 C 122 130.898438 120.65625 130.34375 119.691406 129.378906 C 118.726562 128.410156 118.171875 127.074219 118.171875 125.707031 C 118.171875 124.339844 118.726562 123.003906 119.691406 122.035156 C 120.65625 121.070312 122 120.515625 123.363281 120.515625 Z M 123.363281 120.515625"/></g><g clip-path="url(#b)"><path d="M 149.457031 0 L 352.710938 0 C 369.964844 0 384 14.035156 384 31.289062 L 384 234.539062 C 384 251.792969 369.964844 265.828125 352.710938 265.828125 L 149.457031 265.828125 C 132.207031 265.828125 118.171875 251.792969 118.171875 234.539062 L 118.171875 151.136719 C 118.171875 148.269531 120.496094 145.945312 123.363281 145.945312 C 126.230469 145.945312 128.554688 148.269531 128.554688 151.136719 L 128.554688 234.539062 C 128.554688 246.066406 137.933594 255.445312 149.457031 255.445312 L 352.710938 255.445312 C 364.238281 255.445312 373.613281 246.066406 373.613281 234.539062 L 373.613281 31.289062 C 373.613281 19.761719 364.238281 10.382812 352.710938 10.382812 L 149.457031 10.382812 C 137.933594 10.382812 128.554688 19.761719 128.554688 31.289062 L 128.554688 100.007812 C 128.554688 102.875 126.230469 105.199219 123.363281 105.199219 C 120.496094 105.199219 118.171875 102.875 118.171875 100.007812 L 118.171875 31.289062 C 118.171875 14.035156 132.207031 0 149.457031 0 Z M 149.457031 0"/></g><path d="M 251.085938 194.960938 C 234.609375 194.960938 218.136719 188.691406 205.597656 176.152344 C 203.570312 174.121094 203.570312 170.835938 205.597656 168.808594 C 207.625 166.78125 210.910156 166.78125 212.941406 168.808594 C 223.128906 178.996094 236.675781 184.609375 251.085938 184.609375 C 265.496094 184.609375 279.042969 178.996094 289.230469 168.808594 C 291.257812 166.78125 294.542969 166.78125 296.574219 168.808594 C 298.601562 170.835938 298.601562 174.121094 296.574219 176.152344 C 284.03125 188.691406 267.558594 194.960938 251.085938 194.960938 Z M 251.085938 194.960938"/><path d="M 284.910156 112.351562 C 284.910156 115.21875 282.585938 117.542969 279.71875 117.542969 C 276.851562 117.542969 274.527344 115.21875 274.527344 112.351562 C 274.527344 100.324219 284.308594 90.542969 296.332031 90.542969 C 308.355469 90.542969 318.140625 100.324219 318.140625 112.351562 C 318.140625 115.21875 315.8125 117.542969 312.949219 117.542969 C 310.082031 117.542969 307.757812 115.21875 307.757812 112.351562 C 307.757812 106.054688 302.632812 100.929688 296.332031 100.929688 C 290.035156 100.929688 284.910156 106.054688 284.910156 112.351562 Z M 284.910156 112.351562"/><path d="M 194.414062 112.351562 C 194.414062 115.21875 192.089844 117.542969 189.222656 117.542969 C 186.355469 117.542969 184.03125 115.21875 184.03125 112.351562 C 184.03125 100.324219 193.8125 90.542969 205.835938 90.542969 C 217.859375 90.542969 227.640625 100.324219 227.640625 112.351562 C 227.640625 115.21875 225.316406 117.542969 222.449219 117.542969 C 219.585938 117.542969 217.257812 115.21875 217.257812 112.351562 C 217.257812 106.054688 212.136719 100.929688 205.835938 100.929688 C 199.539062 100.929688 194.414062 106.054688 194.414062 112.351562 Z M 194.414062 112.351562"/><path fill="#ECEAEC" d="M 140.671875 22.511719 L 361.800781 22.511719 L 361.800781 243.644531 L 140.671875 243.644531 L 140.671875 22.511719"/><g clip-path="url(#c)"><path fill="#D35400" d="M 321.625 139.269531 L 180.6875 139.269531 C 177.148438 139.269531 174.28125 136.398438 174.28125 132.863281 C 174.28125 129.328125 177.148438 126.457031 180.6875 126.457031 L 321.625 126.457031 C 325.160156 126.457031 328.03125 129.328125 328.03125 132.863281 C 328.03125 136.398438 325.160156 139.269531 321.625 139.269531 Z M 321.625 139.269531"/></g><g clip-path="url(#d)"><path fill="#D35400" d="M 321.625 90.152344 L 180.6875 90.152344 C 177.148438 90.152344 174.28125 87.285156 174.28125 83.746094 C 174.28125 80.210938 177.148438 77.339844 180.6875 77.339844 L 321.625 77.339844 C 325.160156 77.339844 328.03125 80.210938 328.03125 83.746094 C 328.03125 87.285156 325.160156 90.152344 321.625 90.152344 Z M 321.625 90.152344"/></g><g clip-path="url(#e)"><path fill="#D35400" d="M 321.625 188.382812 L 180.6875 188.382812 C 177.148438 188.382812 174.28125 185.511719 174.28125 181.976562 C 174.28125 178.441406 177.148438 175.570312 180.6875 175.570312 L 321.625 175.570312 C 325.160156 175.570312 328.03125 178.441406 328.03125 181.976562 C 328.03125 185.511719 325.160156 188.382812 321.625 188.382812 Z M 321.625 188.382812"/></g><path fill="#D35400" d="M 31.300781 378.792969 L 234.550781 378.792969 C 248.964844 378.792969 260.648438 367.109375 260.648438 352.699219 L 260.648438 149.445312 C 260.648438 135.035156 248.964844 123.351562 234.550781 123.351562 L 31.300781 123.351562 C 16.886719 123.351562 5.203125 135.035156 5.203125 149.445312 L 5.203125 352.699219 C 5.203125 367.109375 16.886719 378.792969 31.300781 378.792969 Z M 31.300781 378.792969"/><g clip-path="url(#f)"><path d="M 5.203125 238.675781 C 6.570312 238.675781 7.910156 239.230469 8.875 240.195312 C 9.839844 241.160156 10.394531 242.496094 10.394531 243.867188 C 10.394531 245.230469 9.839844 246.570312 8.875 247.539062 C 7.910156 248.503906 6.570312 249.058594 5.203125 249.058594 C 3.839844 249.058594 2.5 248.503906 1.535156 247.539062 C 0.566406 246.570312 0.0117188 245.230469 0.0117188 243.867188 C 0.0117188 242.5 0.566406 241.160156 1.535156 240.195312 C 2.5 239.230469 3.839844 238.675781 5.203125 238.675781 Z M 5.203125 238.675781"/></g><g clip-path="url(#g)"><path d="M 31.300781 118.160156 L 234.550781 118.160156 C 251.804688 118.160156 265.839844 132.191406 265.839844 149.445312 L 265.839844 352.699219 C 265.839844 369.953125 251.804688 383.984375 234.550781 383.984375 L 31.300781 383.984375 C 14.046875 383.984375 0.0117188 369.953125 0.0117188 352.699219 L 0.0117188 269.296875 C 0.0117188 266.429688 2.335938 264.105469 5.203125 264.105469 C 8.070312 264.105469 10.394531 266.429688 10.394531 269.296875 L 10.394531 352.699219 C 10.394531 364.222656 19.773438 373.601562 31.300781 373.601562 L 234.550781 373.601562 C 246.078125 373.601562 255.457031 364.222656 255.457031 352.699219 L 255.457031 149.445312 C 255.457031 137.921875 246.078125 128.542969 234.550781 128.542969 L 31.300781 128.542969 C 19.773438 128.542969 10.394531 137.921875 10.394531 149.445312 L 10.394531 218.167969 C 10.394531 221.035156 8.070312 223.359375 5.203125 223.359375 C 2.335938 223.359375 0.0117188 221.035156 0.0117188 218.167969 L 0.0117188 149.445312 C 0.0117188 132.191406 14.046875 118.160156 31.300781 118.160156 Z M 31.300781 118.160156"/></g><path d="M 132.925781 313.121094 C 116.453125 313.121094 99.980469 306.847656 87.4375 294.308594 C 85.410156 292.28125 85.410156 288.992188 87.4375 286.964844 C 89.464844 284.941406 92.753906 284.941406 94.78125 286.964844 C 104.96875 297.15625 118.515625 302.765625 132.925781 302.765625 C 147.335938 302.765625 160.882812 297.15625 171.074219 286.964844 C 173.101562 284.941406 176.386719 284.941406 178.414062 286.964844 C 180.441406 288.992188 180.441406 292.28125 178.414062 294.308594 C 165.871094 306.847656 149.398438 313.121094 132.925781 313.121094 Z M 132.925781 313.121094"/><path d="M 166.753906 230.507812 C 166.753906 233.378906 164.425781 235.703125 161.5625 235.703125 C 158.691406 235.703125 156.367188 233.378906 156.367188 230.507812 C 156.367188 218.484375 166.148438 208.703125 178.175781 208.703125 C 190.199219 208.703125 199.980469 218.484375 199.980469 230.507812 C 199.980469 233.378906 197.65625 235.703125 194.789062 235.703125 C 191.921875 235.703125 189.597656 233.378906 189.597656 230.507812 C 189.597656 224.210938 184.472656 219.085938 178.175781 219.085938 C 171.875 219.085938 166.753906 224.210938 166.753906 230.507812 Z M 166.753906 230.507812"/><path d="M 76.253906 230.507812 C 76.253906 233.378906 73.929688 235.703125 71.0625 235.703125 C 68.195312 235.703125 65.871094 233.378906 65.871094 230.507812 C 65.871094 218.484375 75.65625 208.703125 87.675781 208.703125 C 99.703125 208.703125 109.484375 218.484375 109.484375 230.507812 C 109.484375 233.378906 107.160156 235.703125 104.292969 235.703125 C 101.425781 235.703125 99.097656 233.378906 99.097656 230.507812 C 99.097656 224.210938 93.976562 219.085938 87.675781 219.085938 C 81.378906 219.085938 76.253906 224.210938 76.253906 230.507812 Z M 76.253906 230.507812"/><path fill="#D35400" d="M 22.511719 140.671875 L 243.644531 140.671875 L 243.644531 361.800781 L 22.511719 361.800781 L 22.511719 140.671875"/><g fill="#FFF"><g><g><path d="M 28.34375 1.609375 C 19.769531 1.609375 15.484375 -2.8125 15.484375 -11.65625 L 15.484375 -128.65625 C 15.484375 -137.375 19.835938 -141.734375 28.546875 -141.734375 L 77 -141.734375 C 92.539062 -141.734375 104.53125 -137.84375 112.96875 -130.0625 C 121.414062 -122.289062 125.640625 -111.4375 125.640625 -97.5 C 125.640625 -83.5625 121.414062 -72.671875 112.96875 -64.828125 C 104.53125 -56.992188 92.539062 -53.078125 77 -53.078125 L 41.21875 -53.078125 L 41.21875 -11.65625 C 41.21875 -2.8125 36.925781 1.609375 28.34375 1.609375 Z M 41.21875 -73.375 L 72.96875 -73.375 C 91.46875 -73.375 100.71875 -81.414062 100.71875 -97.5 C 100.71875 -113.445312 91.46875 -121.421875 72.96875 -121.421875 L 41.21875 -121.421875 Z M 41.21875 -73.375" transform="translate(67.383 316.992)"/></g></g></g></svg>