<svg xmlns="http://www.w3.org/2000/svg" version="1.1" xmlns:xlink="http://www.w3.org/1999/xlink" xmlns:svgjs="http://svgjs.com/svgjs" width="512" height="512" x="0" y="0" viewBox="0 0 256 256" style="enable-background:new 0 0 512 512" xml:space="preserve" class=""><g><g xmlns="http://www.w3.org/2000/svg"><path d="m106.83 145.41-7.6 26.27-4.34 15h-78.89c-5.52 0-10-4.48-10-10v-97.36c0-5.52 4.48-10 10-10h69.11l-4.38 15c-12.655 43.31-10.43 35.697-15.23 52.12-.65 2.24 1.03 4.49 3.37 4.49h34.59c2.33 0 4.02 2.23 3.37 4.48z" fill="#eeeeee" data-original="#eeeeee" class=""></path><path d="m77.82 69.319h7.29l-4.38 15h-7.29z" fill="#aeaeae" data-original="#aeaeae"></path><path d="m99.23 171.68-4.34 15h-7.29l4.34-15z" fill="#aeaeae" data-original="#aeaeae"></path><path d="m225.48 79.319v97.36c0 5.52-4.47 10-10 10h-98.28l10.18-15c37.029-54.501 29.891-43.992 38.13-56.13 1.58-2.33-.08-5.48-2.9-5.48h-35.88c-2.33 0-4.01-2.23-3.37-4.47l6.13-21.28 4.32-15h81.67c5.53 0 10 4.48 10 10z" fill="#eeeeee" data-original="#eeeeee" class=""></path><path d="m127.38 171.68h8.46c-8.6 12.66-7.63 11.24-10.18 15h-8.46z" fill="#aeaeae" data-original="#aeaeae"></path><path d="m141.09 69.319-4.32 15h-7.28l4.32-15z" fill="#aeaeae" data-original="#aeaeae"></path><path d="m106.83 145.41-7.6 26.27h-78.23v-87.36h59.73c-12.655 43.31-10.43 35.697-15.23 52.12-.65 2.24 1.03 4.49 3.37 4.49h34.59c2.33 0 4.02 2.23 3.37 4.48z" fill="#0bbe6e" data-original="#0bbe6e" class=""></path><path d="m210.48 84.319v87.36h-83.1c37.029-54.501 29.891-43.992 38.13-56.13 1.58-2.33-.08-5.48-2.9-5.48h-35.88c-2.33 0-4.01-2.23-3.37-4.47l6.13-21.28z" fill="#0bbe6e" data-original="#0bbe6e" class=""></path><path d="m250 109.113v37.787c0 4.04-3.279 7.32-7.32 7.32h-17.202v-52.427h17.202c4.041-.001 7.32 3.278 7.32 7.32z" fill="#aeaeae" data-original="#aeaeae"></path><path d="m225.478 101.792h10.248v52.427h-10.248z" fill="#868686" data-original="#868686"></path><path d="m106.83 145.41-7.6 26.27h-7.29l6.87-23.75h-29.94c-7 0-12.05-6.71-10.09-13.44l14.66-50.17h7.29c-12.655 43.31-10.43 35.697-15.23 52.12-.65 2.24 1.03 4.49 3.37 4.49h34.59c2.33 0 4.02 2.23 3.37 4.48z" fill="#0e9b6d" data-original="#0e9b6d" class=""></path><path d="m171.3 119.48c-7.81 11.52-1.56 2.3-35.46 52.2h-8.46c37.029-54.501 29.891-43.992 38.13-56.13 1.58-2.33-.08-5.48-2.9-5.48h-35.88c-2.33 0-4.01-2.23-3.37-4.47l6.13-21.28h7.28l-5.4 18.75h31.24c8.42-.001 13.42 9.439 8.69 16.41z" fill="#0e9b6d" data-original="#0e9b6d" class=""></path><path d="m165.51 115.549c-8.012 11.805-1.228 1.817-38.13 56.13l-10.18 15-14.05 20.68c-4.48 6.6-14.75 1.78-12.54-5.89l4.28-14.79 4.34-15 7.6-26.27c.65-2.25-1.04-4.48-3.37-4.48h-34.59c-2.34 0-4.02-2.25-3.37-4.49 4.438-15.183.654-2.234 15.23-52.12l4.38-15 6.22-21.27c.43-1.49 1.81-2.52 3.36-2.52h41.31c2.33 0 4.01 2.23 3.37 4.47l-5.56 19.32-4.32 15-6.13 21.28c-.64 2.24 1.04 4.47 3.37 4.47h35.88c2.82 0 4.48 3.15 2.9 5.48z" fill="#f0c020" data-original="#f0c020" class=""></path><path d="m200.48 164.18h-49.146c-1.381 0-2.5-1.119-2.5-2.5s1.119-2.5 2.5-2.5h46.646v-51.86c0-1.381 1.119-2.5 2.5-2.5s2.5 1.119 2.5 2.5v54.359c0 1.382-1.119 2.501-2.5 2.501zm0-64.36c-1.381 0-2.5-1.119-2.5-2.5v-3c0-1.381 1.119-2.5 2.5-2.5s2.5 1.119 2.5 2.5v3c0 1.381-1.119 2.5-2.5 2.5z" fill="#73febb" data-original="#73febb"></path><path d="m104.037 188.262c-1.143-.775-1.44-2.33-.665-3.473l1.68-2.474c.775-1.143 2.33-1.441 3.473-.665 1.143.774 1.44 2.329.665 3.472l-1.68 2.476c-.776 1.141-2.331 1.439-3.473.664zm7.276-10.718c-1.143-.775-1.44-2.33-.665-3.473 8.617-12.695 6.921-10.194 34.985-51.501h-18.903c-10.537 0-18.329-10.109-15.383-20.426l13.624-47.307c.382-1.326 1.768-2.093 3.094-1.711s2.093 1.768 1.71 3.094l-13.623 47.302c-2.028 7.106 3.341 14.048 10.577 14.048h23.625c2.002 0 3.194 2.246 2.068 3.905-30.537 44.945-29.745 43.776-37.638 55.404-.775 1.145-2.332 1.439-3.471.665z" fill="#f7e4b0" data-original="#f7e4b0"></path><path d="m87.6 164.18h-3c-1.381 0-2.5-1.119-2.5-2.5s1.119-2.5 2.5-2.5h3c1.381 0 2.5 1.119 2.5 2.5s-1.119 2.5-2.5 2.5zm-13 0h-42.933c-1.381 0-2.5-1.119-2.5-2.5s1.119-2.5 2.5-2.5h42.933c1.381 0 2.5 1.119 2.5 2.5s-1.119 2.5-2.5 2.5z" fill="#73febb" data-original="#73febb"></path><circle cx="202.55" cy="69.319" r="2.5" fill="#000000" data-original="#000000" class=""></circle><path d="m242.68 99.29h-14.7v-19.971c0-6.89-5.61-12.5-12.5-12.5h-2.93c-1.38 0-2.5 1.12-2.5 2.5 0 1.381 1.12 2.5 2.5 2.5h2.93c4.13.011 7.49 3.37 7.5 7.5v97.36c-.01 4.13-3.37 7.49-7.5 7.5h-93.568l6.791-10h81.777c1.407 0 2.5-1.14 2.5-2.5 0-10.405 0-77.334 0-87.36 0-1.381-1.119-2.5-2.5-2.5h-77.674l2.88-10h56.864c1.38 0 2.5-1.119 2.5-2.5 0-1.369-1.11-2.489-2.48-2.5-.01 0-.01 0-.02 0h-55.424l4.645-16.13c1.121-3.928-1.884-7.647-5.77-7.66h-41.311c-2.69 0-5.01 1.74-5.76 4.33l-5.687 19.46h-67.243c-6.893 0-12.5 5.607-12.5 12.5v97.36c0 6.893 5.607 12.5 12.5 12.5h75.566l-3.356 11.6c-3.044 10.381 11.033 16.946 17.01 7.98l13.297-19.58h96.964c6.89 0 12.5-5.61 12.5-12.5v-19.96h14.7c5.41 0 9.82-4.41 9.82-9.82v-37.79c-.001-5.409-4.411-9.819-9.821-9.819zm-226.68 84.89c-4.136 0-7.5-3.364-7.5-7.5v-97.36c0-4.136 3.364-7.5 7.5-7.5h65.781l-2.923 10h-57.858c-1.375 0-2.5 1.12-2.5 2.5v87.36c0 1.383 1.107 2.5 2.5 2.5h32.91c1.38 0 2.5-1.12 2.5-2.5s-1.12-2.5-2.5-2.5h-30.41v-82.36h53.897l-14.297 48.92c-1.125 3.799 1.763 7.678 5.77 7.689h34.59c.656 0 1.165.646.97 1.29l-7.077 24.46h-23.443c-1.38 0-2.5 1.12-2.5 2.5s1.12 2.5 2.5 2.5h21.996l-2.893 10h-77.013zm85.08 21.77c-3.017 4.332-9.508 1.039-8.07-3.78l16.22-56.07c1.116-3.776-1.754-7.658-5.77-7.67h-34.59c-.691 0-1.163-.699-.97-1.28l25.83-88.4c.11-.41.52-.721.96-.721h41.31c.6 0 1.158.567.96 1.301l-16 55.58c-1.116 3.763 1.762 7.647 5.77 7.659h35.88c.8 0 1.279.872.83 1.58l-16.86 24.811c-.77 1.14-.47 2.7.67 3.47 1.1.76 2.72.44 3.47-.66l16.86-24.819c2.713-3.988-.191-9.365-4.97-9.381h-35.88c-.58 0-1.128-.496-.97-1.279l5.607-19.471h76.614v82.36h-75.882l7.382-10.87c.759-1.099.512-2.66-.66-3.47-1.11-.75-2.72-.43-3.47.66-3.86 5.68-30.436 44.804-34.271 50.45zm146.42-59.051c0 2.65-2.17 4.811-4.82 4.82h-14.7v-47.43h14.7c2.65.01 4.82 2.17 4.82 4.819z" fill="#000000" data-original="#000000" class=""></path><circle cx="63.91" cy="171.68" r="2.5" fill="#000000" data-original="#000000" class=""></circle><path d="m141.63 150.71c1.193.796 2.732.437 3.47-.67.758-1.096.527-2.648-.66-3.471-1.11-.75-2.72-.439-3.47.66-.78 1.141-.48 2.701.66 3.481z" fill="#000000" data-original="#000000" class=""></path></g></g></svg>