<svg xmlns="http://www.w3.org/2000/svg" version="1.1" xmlns:xlink="http://www.w3.org/1999/xlink" xmlns:svgjs="http://svgjs.com/svgjs" width="512" height="512" x="0" y="0" viewBox="0 0 512.001 512.001" style="enable-background:new 0 0 512 512" xml:space="preserve" class=""><g> <path xmlns="http://www.w3.org/2000/svg" style="" d="M487.037,377.939H22.905c0-128.164,103.902-232.066,232.066-232.066S487.037,249.775,487.037,377.939  z" fill="#f44d4d" data-original="#f44d4d"></path> <path xmlns="http://www.w3.org/2000/svg" style="" d="M463.289,377.939H46.653c0-55.64,21.666-107.955,61.019-147.308  c39.344-39.344,91.659-61.009,147.299-61.009c55.649,0,107.955,21.666,147.308,61.009  C441.623,269.984,463.289,322.299,463.289,377.939z" fill="#ce2e2e" data-original="#ce2e2e"></path> <path xmlns="http://www.w3.org/2000/svg" style="" d="M447.41,377.935H62.53c0-67.26,34.51-126.47,86.8-160.87c30.32-19.96,66.62-31.57,105.64-31.57  s75.32,11.61,105.64,31.57C412.9,251.465,447.41,310.675,447.41,377.935z" fill="#ef524f" data-original="#ef524f"></path> <path xmlns="http://www.w3.org/2000/svg" style="" d="M384.349,352.65l-43.752,25.289H204.804c-0.122-6.976,1.223-13.952,4.043-20.554  c5.258-12.327,14.998-21.862,27.437-26.849c5.977-2.409,12.262-3.623,18.677-3.623c4.753,0,9.376,0.663,13.775,1.914l96.562-23.599  c2.111-0.514,4.258-0.775,6.378-0.775c11.505,0,21.675,7.91,24.71,19.247C399.44,335.084,394.603,346.72,384.349,352.65z" fill="#ce2e2e" data-original="#ce2e2e"></path> <path xmlns="http://www.w3.org/2000/svg" style="" d="M254.95,377.125l-0.25,0.81H62.53c0-67.26,34.51-126.47,86.8-160.87l77.97,118.16L254.95,377.125z" fill="#25d8a1" data-original="#25d8a1" class=""></path> <path xmlns="http://www.w3.org/2000/svg" style="" d="M254.95,377.125l-0.25,0.81h-49.9c-0.12-6.97,1.23-13.95,4.05-20.55c3.91-9.18,10.3-16.8,18.45-22.16  L254.95,377.125z" fill="#0db77e" data-original="#0db77e"></path> <polygon xmlns="http://www.w3.org/2000/svg" style="" points="254.97,377.075 254.97,377.155 254.95,377.125 " fill="#25d8a1" data-original="#25d8a1" class=""></polygon> <path xmlns="http://www.w3.org/2000/svg" style="" d="M360.61,217.065l-70.26,106.48l-35.38,53.61l-27.67-41.93l-77.97-118.16  c30.32-19.96,66.62-31.57,105.64-31.57S330.29,197.105,360.61,217.065z" fill="#ffcf4a" data-original="#ffcf4a" class=""></path> <path xmlns="http://www.w3.org/2000/svg" style="" d="M290.35,323.545l-35.38,53.61l-27.67-41.93c2.8-1.84,5.8-3.41,8.98-4.69  c5.98-2.41,12.27-3.62,18.68-3.62c4.75,0,9.38,0.66,13.78,1.91L290.35,323.545z" fill="#f49b26" data-original="#f49b26"></path> <path xmlns="http://www.w3.org/2000/svg" style="" d="M369.069,320.648L257.547,347.9c-5.876,1.436-9.117,7.744-6.863,13.358l12.13,30.203  c2.254,5.613,8.959,7.928,14.196,4.9l99.391-57.455C386.348,333.156,380.229,317.921,369.069,320.648z" fill="#76d3dd" data-original="#76d3dd"></path> <circle xmlns="http://www.w3.org/2000/svg" style="" cx="254.97" cy="377.071" r="34.28" fill="#59e5ef" data-original="#59e5ef"></circle> <path xmlns="http://www.w3.org/2000/svg" d="M254.97,138.374c-26.288,0-52.128,4.231-76.802,12.576c-3.924,1.327-6.029,5.583-4.702,9.507  c1.327,3.925,5.588,6.028,9.507,4.702c23.123-7.82,47.347-11.785,71.997-11.785c42.817,0,82.865,12.057,116.951,32.935  l-13.56,20.549c-30.187-18.311-65.578-28.863-103.389-28.863c-37.829,0-73.238,10.562-103.434,28.89  c-4.537-6.858-9.073-13.742-13.597-20.647c5.009-3.053,10.159-5.935,15.455-8.626c3.692-1.876,5.165-6.391,3.289-10.084  s-6.39-5.164-10.084-3.289c-7.923,4.026-15.588,8.484-22.976,13.334c-0.074,0.045-0.151,0.083-0.225,0.131  c-0.08,0.052-0.151,0.112-0.228,0.166c-28.637,18.892-53.011,43.776-71.356,73.055c-23.819,38.017-36.409,81.938-36.409,127.014  c0,4.142,3.357,7.5,7.5,7.5h120.327c4.143,0,7.5-3.358,7.5-7.5s-3.357-7.5-7.5-7.5h-73.04  c2.356-58.764,32.254-110.556,77.116-142.787c9.567,14.398,19.093,28.641,28.451,42.631c16.505,24.674,33.536,50.14,50.67,76.269  c-4.188,3.914-7.561,8.687-9.88,14.117c-1.354,3.171-2.298,6.446-2.838,9.764H176.72c-4.143,0-7.5,3.358-7.5,7.5s3.357,7.5,7.5,7.5  h37.321c0.503,2.438,1.217,4.849,2.164,7.208c4.159,10.355,12.101,18.471,22.364,22.853c5.271,2.25,10.831,3.377,16.396,3.377  c5.268,0,10.541-1.01,15.576-3.033c9.619-3.863,17.007-10.929,21.452-19.475l18.907-10.93h136.42c0.032,0,0.064,0.005,0.097,0.005  s0.064-0.004,0.097-0.005h39.527c4.143,0,7.5-3.358,7.5-7.5c0-63.988-24.92-124.146-70.168-169.394  C379.123,163.293,318.961,138.374,254.97,138.374z M55.184,370.439H30.529c2.324-71.066,37.596-135.658,94.869-175.977  c4.533,6.918,9.076,13.813,13.619,20.681C90.115,250.075,57.556,306.465,55.184,370.439z M264.952,401.921  c-6.638,2.666-13.916,2.586-20.493-0.221c-6.577-2.808-11.668-8.01-14.333-14.647c-2.666-6.637-2.588-13.915,0.221-20.492  c2.808-6.578,8.01-11.668,14.646-14.334c3.262-1.31,6.63-1.93,9.946-1.93c10.617,0,20.688,6.358,24.881,16.797  C285.323,380.795,278.652,396.418,264.952,401.921z M296.734,376.298c-0.086-4.94-1.046-9.944-2.994-14.795  c-1.947-4.846-4.712-9.122-8.063-12.747l85.169-20.825c0.51-0.123,2.059-0.502,2.847,1.463c0.785,1.959-0.592,2.755-1.046,3.017  L296.734,376.298z M380.154,345.398c7.705-4.454,10.773-13.331,7.46-21.589c-3.314-8.261-11.666-12.558-20.324-10.45l-73.012,17.852  L324,286.165c2.281-3.457,1.328-8.109-2.129-10.391c-3.456-2.282-8.109-1.329-10.391,2.129l-38.632,58.547l-4.461,1.091  c-9.127-3.105-19.358-3.101-28.986,0.765c-0.117,0.047-0.229,0.101-0.345,0.149c-17.2-26.23-34.278-51.768-50.829-76.511  c-9.34-13.963-18.847-28.179-28.393-42.544c27.814-16.754,60.368-26.404,95.137-26.404c34.761,0,67.309,9.647,95.12,26.394  l-18.818,28.516c-2.281,3.457-1.328,8.109,2.129,10.391c1.272,0.839,2.706,1.241,4.124,1.241c2.436,0,4.824-1.185,6.267-3.37  l18.825-28.527c44.871,32.229,74.775,84.024,77.133,142.794H336.847L380.154,345.398z M454.761,370.435  c-2.374-63.991-34.951-120.394-83.876-155.322l13.559-20.547c55.583,39.358,92.58,103.306,94.973,175.869H454.761z" fill="#000000" data-original="#000000" class=""></path> <path xmlns="http://www.w3.org/2000/svg" d="M24.491,263.817c2.269,0,4.511-1.025,5.985-2.973c2.5-3.302,1.851-8.006-1.452-10.507l-16.996-12.869  c-3.303-2.5-8.007-1.85-10.507,1.452s-1.851,8.006,1.452,10.507l16.996,12.869C21.324,263.321,22.914,263.817,24.491,263.817z" fill="#000000" data-original="#000000" class=""></path> <path xmlns="http://www.w3.org/2000/svg" d="M32.24,210.774l16.996,12.869c1.354,1.025,2.944,1.521,4.521,1.521c2.269,0,4.511-1.025,5.985-2.973  c2.5-3.302,1.851-8.006-1.452-10.507l-16.996-12.869c-3.303-2.5-8.007-1.85-10.507,1.452  C28.288,203.569,28.937,208.273,32.24,210.774z" fill="#000000" data-original="#000000" class=""></path> <path xmlns="http://www.w3.org/2000/svg" d="M510.48,238.92c-2.5-3.303-7.204-3.952-10.507-1.452l-16.996,12.869c-3.303,2.5-3.952,7.205-1.452,10.507  c1.475,1.948,3.717,2.973,5.985,2.973c1.577,0,3.167-0.496,4.521-1.521l16.996-12.869C512.331,246.927,512.98,242.223,510.48,238.92  z" fill="#000000" data-original="#000000" class=""></path> <path xmlns="http://www.w3.org/2000/svg" d="M458.244,225.164c1.577,0,3.167-0.496,4.521-1.521l16.996-12.869c3.303-2.5,3.952-7.205,1.452-10.507  c-2.5-3.303-7.204-3.953-10.507-1.452l-16.996,12.869c-3.303,2.5-3.952,7.205-1.452,10.507  C453.733,224.139,455.975,225.164,458.244,225.164z" fill="#000000" data-original="#000000" class=""></path> <path xmlns="http://www.w3.org/2000/svg" d="M230.73,129.449c4.143,0,7.5-3.358,7.5-7.5v-21.318c0-4.142-3.357-7.5-7.5-7.5s-7.5,3.358-7.5,7.5v21.318  C223.23,126.091,226.587,129.449,230.73,129.449z" fill="#000000" data-original="#000000" class=""></path> <path xmlns="http://www.w3.org/2000/svg" d="M279.213,129.449c4.143,0,7.5-3.358,7.5-7.5v-21.318c0-4.142-3.357-7.5-7.5-7.5s-7.5,3.358-7.5,7.5v21.318  C271.713,126.091,275.071,129.449,279.213,129.449z" fill="#000000" data-original="#000000" class=""></path> <g xmlns="http://www.w3.org/2000/svg"> </g> <g xmlns="http://www.w3.org/2000/svg"> </g> <g xmlns="http://www.w3.org/2000/svg"> </g> <g xmlns="http://www.w3.org/2000/svg"> </g> <g xmlns="http://www.w3.org/2000/svg"> </g> <g xmlns="http://www.w3.org/2000/svg"> </g> <g xmlns="http://www.w3.org/2000/svg"> </g> <g xmlns="http://www.w3.org/2000/svg"> </g> <g xmlns="http://www.w3.org/2000/svg"> </g> <g xmlns="http://www.w3.org/2000/svg"> </g> <g xmlns="http://www.w3.org/2000/svg"> </g> <g xmlns="http://www.w3.org/2000/svg"> </g> <g xmlns="http://www.w3.org/2000/svg"> </g> <g xmlns="http://www.w3.org/2000/svg"> </g> <g xmlns="http://www.w3.org/2000/svg"> </g> </g></svg>