<svg xmlns="http://www.w3.org/2000/svg" version="1.1" xmlns:xlink="http://www.w3.org/1999/xlink" xmlns:svgjs="http://svgjs.com/svgjs" width="512" height="512" x="0" y="0" viewBox="0 0 682.667 682.667" style="enable-background:new 0 0 512 512" xml:space="preserve" class=""><g><defs><clipPath id="a" clipPathUnits="userSpaceOnUse"><path d="M0 512h512V0H0Z" fill="#000000" data-original="#000000"></path></clipPath></defs><g clip-path="url(#a)" transform="matrix(1.33333 0 0 -1.33333 0 682.667)"><path d="M0 0h-329.246a5 5 0 0 0-5 5v368.018a5 5 0 0 0 5 5H0a5 5 0 0 0 5-5V5a5 5 0 0 0-5-5" style="fill-opacity:1;fill-rule:nonzero;stroke:none" transform="translate(399.9 46.517)" fill="#dff6fd" data-original="#dff6fd" class=""></path><path d="M0 0h174.47" style="stroke-width:15;stroke-linecap:round;stroke-linejoin:round;stroke-miterlimit:10;stroke-dasharray:none;stroke-opacity:1" transform="translate(148.042 355.474)" fill="none" stroke="#000000" stroke-width="15" stroke-linecap="round" stroke-linejoin="round" stroke-miterlimit="10" stroke-dasharray="none" stroke-opacity="" data-original="#000000" class=""></path><path d="M0 0h174.47" style="stroke-width:15;stroke-linecap:round;stroke-linejoin:round;stroke-miterlimit:10;stroke-dasharray:none;stroke-opacity:1" transform="translate(148.042 319.126)" fill="none" stroke="#000000" stroke-width="15" stroke-linecap="round" stroke-linejoin="round" stroke-miterlimit="10" stroke-dasharray="none" stroke-opacity="" data-original="#000000" class=""></path><path d="M0 0h101.512" style="stroke-width:15;stroke-linecap:round;stroke-linejoin:round;stroke-miterlimit:10;stroke-dasharray:none;stroke-opacity:1" transform="translate(221 282.778)" fill="none" stroke="#000000" stroke-width="15" stroke-linecap="round" stroke-linejoin="round" stroke-miterlimit="10" stroke-dasharray="none" stroke-opacity="" data-original="#000000" class=""></path><path d="M0 0h42.958" style="stroke-width:15;stroke-linecap:round;stroke-linejoin:round;stroke-miterlimit:10;stroke-dasharray:none;stroke-opacity:1" transform="translate(148.042 282.778)" fill="none" stroke="#000000" stroke-width="15" stroke-linecap="round" stroke-linejoin="round" stroke-miterlimit="10" stroke-dasharray="none" stroke-opacity="" data-original="#000000" class=""></path><path d="M0 0h174.47" style="stroke-width:15;stroke-linecap:round;stroke-linejoin:round;stroke-miterlimit:10;stroke-dasharray:none;stroke-opacity:1" transform="translate(148.042 246.43)" fill="none" stroke="#000000" stroke-width="15" stroke-linecap="round" stroke-linejoin="round" stroke-miterlimit="10" stroke-dasharray="none" stroke-opacity="" data-original="#000000" class=""></path><path d="M0 0h46.512" style="stroke-width:15;stroke-linecap:round;stroke-linejoin:round;stroke-miterlimit:10;stroke-dasharray:none;stroke-opacity:1" transform="translate(276 210.083)" fill="none" stroke="#000000" stroke-width="15" stroke-linecap="round" stroke-linejoin="round" stroke-miterlimit="10" stroke-dasharray="none" stroke-opacity="" data-original="#000000" class=""></path><path d="M0 0h100.958" style="stroke-width:15;stroke-linecap:round;stroke-linejoin:round;stroke-miterlimit:10;stroke-dasharray:none;stroke-opacity:1" transform="translate(148.042 210.083)" fill="none" stroke="#000000" stroke-width="15" stroke-linecap="round" stroke-linejoin="round" stroke-miterlimit="10" stroke-dasharray="none" stroke-opacity="" data-original="#000000" class=""></path><path d="M0 0h174.47" style="stroke-width:15;stroke-linecap:round;stroke-linejoin:round;stroke-miterlimit:10;stroke-dasharray:none;stroke-opacity:1" transform="translate(148.042 173.735)" fill="none" stroke="#000000" stroke-width="15" stroke-linecap="round" stroke-linejoin="round" stroke-miterlimit="10" stroke-dasharray="none" stroke-opacity="" data-original="#000000" class=""></path><path d="M0 0h174.47" style="stroke-width:15;stroke-linecap:round;stroke-linejoin:round;stroke-miterlimit:10;stroke-dasharray:none;stroke-opacity:1" transform="translate(148.042 137.387)" fill="none" stroke="#000000" stroke-width="15" stroke-linecap="round" stroke-linejoin="round" stroke-miterlimit="10" stroke-dasharray="none" stroke-opacity="" data-original="#000000" class=""></path><path d="M0 0v368.018a5 5 0 0 0 5 5h-42.101a5 5 0 0 1-5-5V0a5 5 0 0 1 5-5H5a5 5 0 0 0-5 5" style="fill-opacity:1;fill-rule:nonzero;stroke:none" transform="translate(107.754 51.517)" fill="#c8effe" data-original="#c8effe"></path><path d="M0 0h-60.347a5 5 0 0 1-5-5v-368.018a5 5 0 0 1 5-5h329.246a5 5 0 0 1 5 5V-5a5 5 0 0 1-5 5H35" style="stroke-width:15;stroke-linecap:round;stroke-linejoin:round;stroke-miterlimit:10;stroke-dasharray:none;stroke-opacity:1" transform="translate(131 424.535)" fill="none" stroke="#000000" stroke-width="15" stroke-linecap="round" stroke-linejoin="round" stroke-miterlimit="10" stroke-dasharray="none" stroke-opacity="" data-original="#000000" class=""></path><path d="M0 0a10 10 0 0 1-5.529-8.945v-51.767c0-76.539 40.67-115.646 101.842-153.08a10.042 10.042 0 0 1 10.474 0c61.172 37.434 101.842 76.541 101.842 153.08v51.767c0 3.788-2.141 7.251-5.529 8.945l-97.079 48.518a10.006 10.006 0 0 1-8.942 0z" style="fill-opacity:1;fill-rule:nonzero;stroke:none" transform="translate(284.423 454.927)" fill="#fac600" data-original="#fac600" class=""></path><path d="M0 0v59.415l-30.418-15.203a10 10 0 0 1-5.53-8.945V-16.5c0-76.539 40.67-115.646 101.842-153.08a10.042 10.042 0 0 1 10.474 0c8.909 5.452 17.379 10.94 25.356 16.574C40.618-115.595 0-76.49 0 0" style="fill-opacity:1;fill-rule:nonzero;stroke:none" transform="translate(314.842 410.715)" fill="#e8b801" data-original="#e8b801" class=""></path><path d="M0 0a10 10 0 0 1-5.529-8.945v-51.767c0-76.539 40.67-115.646 101.842-153.08a10.042 10.042 0 0 1 10.474 0c61.172 37.434 101.842 76.541 101.842 153.08v51.767c0 3.788-2.141 7.251-5.529 8.945l-97.079 48.518a10.006 10.006 0 0 1-8.942 0z" style="stroke-width:15;stroke-linecap:round;stroke-linejoin:round;stroke-miterlimit:10;stroke-dasharray:none;stroke-opacity:1" transform="translate(284.423 454.927)" fill="none" stroke="#000000" stroke-width="15" stroke-linecap="round" stroke-linejoin="round" stroke-miterlimit="10" stroke-dasharray="none" stroke-opacity="" data-original="#000000" class=""></path><path d="M0 0c0-37.774-30.622-68.396-68.396-68.396-37.775 0-68.397 30.622-68.397 68.396s30.622 68.396 68.397 68.396C-30.622 68.396 0 37.774 0 0" style="fill-opacity:1;fill-rule:nonzero;stroke:none" transform="translate(453.919 383.964)" fill="#4fc123" data-original="#4fc123" class=""></path><path d="M0 0c0 32.796 23.088 60.188 53.894 66.841a68.613 68.613 0 0 1-14.503 1.555C1.616 68.396-29.006 37.774-29.006 0S1.616-68.396 39.391-68.396c4.978 0 9.827.545 14.503 1.555C23.088-60.188 0-32.796 0 0" style="fill-opacity:1;fill-rule:nonzero;stroke:none" transform="translate(346.132 383.964)" fill="#47a920" data-original="#47a920"></path><path d="M0 0c-5.689 32.031-33.654 56.36-67.319 56.36-37.775 0-68.397-30.622-68.397-68.396 0-37.775 30.622-68.397 68.397-68.397 29.716 0 54.996 18.957 64.433 45.433" style="stroke-width:15;stroke-linecap:round;stroke-linejoin:round;stroke-miterlimit:10;stroke-dasharray:none;stroke-opacity:1" transform="translate(452.842 396)" fill="none" stroke="#000000" stroke-width="15" stroke-linecap="round" stroke-linejoin="round" stroke-miterlimit="10" stroke-dasharray="none" stroke-opacity="" data-original="#000000" class=""></path><path d="m0 0 22.486-22.487 34.855 34.855" style="stroke-width:15;stroke-linecap:round;stroke-linejoin:round;stroke-miterlimit:10;stroke-dasharray:none;stroke-opacity:1" transform="translate(359.5 386.817)" fill="none" stroke="#000000" stroke-width="15" stroke-linecap="round" stroke-linejoin="round" stroke-miterlimit="10" stroke-dasharray="none" stroke-opacity="" data-original="#000000" class=""></path><path d="M0 0h-66.521v57.587c0 18.34 14.92 33.261 33.26 33.261C-14.921 90.848 0 75.927 0 57.587Zm-33.261 120.848c-34.938 0-63.26-28.323-63.26-63.261v-63.26h126.52v63.26c0 34.938-28.322 63.261-63.26 63.261" style="fill-opacity:1;fill-rule:nonzero;stroke:none" transform="translate(139.57 117.102)" fill="#6e61b6" data-original="#6e61b6"></path><path d="M0 0a63.7 63.7 0 0 1-8.476.582c-34.938 0-63.26-28.323-63.26-63.261v-63.26h16.952v63.26C-54.784-30.617-30.927-4.144 0 0" style="fill-opacity:1;fill-rule:nonzero;stroke:none" transform="translate(114.784 237.367)" fill="#6354b1" data-original="#6354b1"></path><path d="M0 0h-66.521v57.587c0 18.34 14.92 33.261 33.26 33.261C-14.921 90.848 0 75.927 0 57.587Zm-33.261 120.848c-34.938 0-63.26-28.323-63.26-63.261v-63.26h126.52v63.26c0 34.938-28.322 63.261-63.26 63.261z" style="stroke-width:15;stroke-linecap:round;stroke-linejoin:round;stroke-miterlimit:10;stroke-dasharray:none;stroke-opacity:1" transform="translate(139.57 117.102)" fill="none" stroke="#000000" stroke-width="15" stroke-linecap="round" stroke-linejoin="round" stroke-miterlimit="10" stroke-dasharray="none" stroke-opacity="" data-original="#000000" class=""></path><path d="M0 0h-154.72c-5.522 0-10 4.477-10 10v108.027c0 5.523 4.478 10 10 10H0c5.522 0 10-4.477 10-10V10C10 4.477 5.522 0 0 0" style="fill-opacity:1;fill-rule:nonzero;stroke:none" transform="translate(183.668 7.5)" fill="#fac600" data-original="#fac600" class=""></path><path d="M0 0v108.027c0 5.523 4.478 10 10 10h-42.052c-5.522 0-10-4.477-10-10V0c0-5.523 4.478-10 10-10H10C4.478-10 0-5.523 0 0" style="fill-opacity:1;fill-rule:nonzero;stroke:none" transform="translate(61 17.5)" fill="#e8b801" data-original="#e8b801" class=""></path><path d="M0 0v22.527c0 5.523-4.478 10-10 10h-154.72c-5.522 0-10-4.477-10-10V-85.5c0-5.523 4.478-10 10-10H-10c5.522 0 10 4.477 10 10V-35" style="stroke-width:15;stroke-linecap:round;stroke-linejoin:round;stroke-miterlimit:10;stroke-dasharray:none;stroke-opacity:1" transform="translate(193.668 103)" fill="none" stroke="#000000" stroke-width="15" stroke-linecap="round" stroke-linejoin="round" stroke-miterlimit="10" stroke-dasharray="none" stroke-opacity="" data-original="#000000" class=""></path></g></g></svg>