<svg xmlns="http://www.w3.org/2000/svg" version="1.1" xmlns:xlink="http://www.w3.org/1999/xlink" xmlns:svgjs="http://svgjs.com/svgjs" width="512" height="512" x="0" y="0" viewBox="0 0 512.018 512.018" style="enable-background:new 0 0 512 512" xml:space="preserve" class=""><g><g xmlns="http://www.w3.org/2000/svg" id="XMLID_79_"><g id="XMLID_279_"><path id="XMLID_107_" d="m327.317 16.917 148.886 85.96c24.668 14.242 33.12 45.785 18.878 70.454l-85.96 148.886c-14.242 24.668-45.785 33.12-70.454 18.878l-148.886-85.96c-24.668-14.242-33.12-45.785-18.878-70.454l85.96-148.886c14.243-24.668 45.786-33.12 70.454-18.878z" fill="#e2e9ee" data-original="#e2e9ee"></path><g fill="#6d92ac"><circle id="XMLID_106_" cx="424.51" cy="154.484" r="23.639" fill="#6d92ac" data-original="#6d92ac"></circle><circle id="XMLID_104_" cx="332.993" cy="179.006" r="23.639" fill="#6d92ac" data-original="#6d92ac"></circle><circle id="XMLID_169_" cx="308.471" cy="87.489" r="23.639" fill="#6d92ac" data-original="#6d92ac"></circle><circle id="XMLID_100_" cx="357.515" cy="270.524" r="23.639" fill="#6d92ac" data-original="#6d92ac"></circle><circle id="XMLID_97_" cx="241.475" cy="203.528" r="23.639" fill="#6d92ac" data-original="#6d92ac"></circle></g></g><g id="XMLID_280_"><path id="XMLID_88_" d="m61.526 227.193h171.754c28.457 0 51.526 23.069 51.526 51.526v171.754c0 28.457-23.069 51.526-51.526 51.526h-171.754c-28.457 0-51.526-23.069-51.526-51.526v-171.754c0-28.457 23.069-51.526 51.526-51.526z" fill="#ff7b79" data-original="#ff7b79" class=""></path><g fill="#fff"><circle id="XMLID_165_" cx="214.334" cy="297.665" r="23.616" fill="#ffffff" data-original="#ffffff" class=""></circle><circle id="XMLID_162_" cx="147.403" cy="364.596" r="23.616" fill="#ffffff" data-original="#ffffff" class=""></circle><circle id="XMLID_87_" cx="80.472" cy="297.665" r="23.616" fill="#ffffff" data-original="#ffffff" class=""></circle><circle id="XMLID_166_" cx="214.334" cy="431.527" r="23.616" fill="#ffffff" data-original="#ffffff" class=""></circle><circle id="XMLID_163_" cx="80.472" cy="431.527" r="23.616" fill="#ffffff" data-original="#ffffff" class=""></circle></g></g><g id="XMLID_109_"><path id="XMLID_224_" d="m424.51 188.123c18.549 0 33.64-15.09 33.64-33.639s-15.091-33.639-33.64-33.639-33.639 15.09-33.639 33.639 15.09 33.639 33.639 33.639zm0-47.278c7.521 0 13.64 6.119 13.64 13.639s-6.119 13.639-13.64 13.639-13.639-6.118-13.639-13.639 6.118-13.639 13.639-13.639z" fill="#000000" data-original="#000000" class=""></path><path id="XMLID_229_" d="m342.109 87.489c0-18.548-15.09-33.639-33.639-33.639s-33.639 15.09-33.639 33.639 15.09 33.639 33.639 33.639 33.639-15.091 33.639-33.639zm-33.638 13.638c-7.521 0-13.639-6.118-13.639-13.639s6.118-13.639 13.639-13.639 13.639 6.118 13.639 13.639-6.119 13.639-13.639 13.639z" fill="#000000" data-original="#000000" class=""></path><path id="XMLID_236_" d="m357.515 304.163c18.549 0 33.639-15.09 33.639-33.639s-15.09-33.639-33.639-33.639-33.639 15.09-33.639 33.639c0 18.548 15.09 33.639 33.639 33.639zm0-47.278c7.521 0 13.639 6.119 13.639 13.639s-6.118 13.639-13.639 13.639-13.639-6.118-13.639-13.639 6.118-13.639 13.639-13.639z" fill="#000000" data-original="#000000" class=""></path><path id="XMLID_239_" d="m332.993 212.645c18.549 0 33.639-15.09 33.639-33.639s-15.09-33.639-33.639-33.639-33.64 15.09-33.64 33.639c.001 18.549 15.091 33.639 33.64 33.639zm0-47.278c7.521 0 13.639 6.119 13.639 13.639s-6.118 13.639-13.639 13.639-13.64-6.118-13.64-13.639 6.12-13.639 13.64-13.639z" fill="#000000" data-original="#000000" class=""></path><path id="XMLID_242_" d="m509.894 131.606c-4.257-15.887-14.446-29.166-28.69-37.389l-148.887-85.96c-29.404-16.977-67.137-6.866-84.114 22.538l-85.959 148.887c-6.608 11.446-9.29 24.598-7.872 37.511h-92.846c-33.925 0-61.526 27.6-61.526 61.526v171.754c0 33.925 27.601 61.526 61.526 61.526h171.754c33.925 0 61.526-27.601 61.526-61.526v-123.155l38.862 22.437c9.674 5.585 20.244 8.237 30.685 8.237 21.296 0 42.038-11.045 53.43-30.776l20.996-36.366c2.762-4.783 1.123-10.899-3.66-13.66-4.785-2.762-10.898-1.122-13.66 3.66l-20.996 36.366c-11.463 19.853-36.938 26.681-56.794 15.218l-48.862-28.211v-25.505c0-21.941-11.553-41.223-28.886-52.118 5.693-6.028 9.194-14.147 9.194-23.073 0-18.548-15.091-33.639-33.639-33.639s-33.639 15.09-33.639 33.639c0 4.864 1.046 9.486 2.912 13.665h-36.2c-1.541-9.41.181-19.138 5.016-27.511l85.959-148.886c5.553-9.617 14.519-16.497 25.245-19.371 10.726-2.873 21.931-1.399 31.549 4.153l148.886 85.959c9.618 5.553 16.497 14.519 19.372 25.245 2.874 10.727 1.399 21.931-4.153 31.548l-19.966 34.582c-2.762 4.783-1.123 10.899 3.66 13.66 4.784 2.761 10.9 1.123 13.66-3.66l19.966-34.582c8.223-14.242 10.407-30.836 6.151-46.723zm-235.088 318.867c0 22.897-18.628 41.526-41.526 41.526h-171.754c-22.898 0-41.526-18.628-41.526-41.526v-171.754c0-22.898 18.628-41.526 41.526-41.526h171.754c22.897 0 41.526 18.628 41.526 41.526zm-33.331-260.583c7.521 0 13.639 6.118 13.639 13.639s-6.119 13.639-13.639 13.639-13.639-6.118-13.639-13.639 6.119-13.639 13.639-13.639z" fill="#000000" data-original="#000000" class=""></path><path id="XMLID_250_" d="m214.334 264.049c-18.536 0-33.616 15.08-33.616 33.616s15.08 33.616 33.616 33.616 33.616-15.08 33.616-33.616-15.08-33.616-33.616-33.616zm0 47.232c-7.508 0-13.616-6.108-13.616-13.616s6.108-13.616 13.616-13.616 13.616 6.108 13.616 13.616-6.108 13.616-13.616 13.616z" fill="#000000" data-original="#000000" class=""></path><path id="XMLID_253_" d="m80.472 331.281c18.536 0 33.616-15.08 33.616-33.616s-15.08-33.616-33.616-33.616-33.616 15.08-33.616 33.616 15.08 33.616 33.616 33.616zm0-47.232c7.508 0 13.616 6.108 13.616 13.616s-6.108 13.616-13.616 13.616-13.616-6.108-13.616-13.616 6.108-13.616 13.616-13.616z" fill="#000000" data-original="#000000" class=""></path><path id="XMLID_256_" d="m214.334 397.911c-18.536 0-33.616 15.08-33.616 33.616s15.08 33.616 33.616 33.616 33.616-15.08 33.616-33.616-15.08-33.616-33.616-33.616zm0 47.232c-7.508 0-13.616-6.108-13.616-13.616s6.108-13.616 13.616-13.616 13.616 6.108 13.616 13.616-6.108 13.616-13.616 13.616z" fill="#000000" data-original="#000000" class=""></path><path id="XMLID_261_" d="m80.472 397.911c-18.536 0-33.616 15.08-33.616 33.616s15.08 33.616 33.616 33.616 33.616-15.08 33.616-33.616-15.08-33.616-33.616-33.616zm0 47.232c-7.508 0-13.616-6.108-13.616-13.616s6.108-13.616 13.616-13.616 13.616 6.108 13.616 13.616-6.108 13.616-13.616 13.616z" fill="#000000" data-original="#000000" class=""></path><path id="XMLID_264_" d="m147.403 330.98c-18.536 0-33.616 15.08-33.616 33.616s15.08 33.616 33.616 33.616 33.616-15.08 33.616-33.616-15.08-33.616-33.616-33.616zm0 47.232c-7.508 0-13.616-6.108-13.616-13.616s6.108-13.616 13.616-13.616 13.616 6.108 13.616 13.616-6.108 13.616-13.616 13.616z" fill="#000000" data-original="#000000" class=""></path><path id="XMLID_265_" d="m452.62 236.879c-2.641 0-5.221 1.07-7.07 2.93-1.86 1.86-2.93 4.44-2.93 7.07 0 2.64 1.069 5.21 2.93 7.07 1.86 1.86 4.43 2.93 7.07 2.93 2.63 0 5.21-1.07 7.069-2.93 1.86-1.86 2.931-4.44 2.931-7.07s-1.07-5.21-2.931-7.07c-1.859-1.86-4.439-2.93-7.069-2.93z" fill="#000000" data-original="#000000" class=""></path></g></g></g></svg>