<svg height="512" viewBox="0 0 64 64" width="512" xmlns="http://www.w3.org/2000/svg"><g id="Layer_49" data-name="Layer 49"><path d="m11.61 32h41.46a0 0 0 0 1 0 0v12.88a7.45 7.45 0 0 1 -7.45 7.45h-26.57a7.45 7.45 0 0 1 -7.45-7.45v-12.88a0 0 0 0 1 .01 0z" fill="#78b9eb"/><g fill="#006df0"><path d="m60 30.5h-6.5v-14.5a5.51 5.51 0 0 0 -5.5-5.5h-32a5.51 5.51 0 0 0 -5.5 5.5v14.5h-6.5a1.5 1.5 0 0 0 0 3h6.5v14.5a5.51 5.51 0 0 0 5.5 5.5h32a5.51 5.51 0 0 0 5.5-5.5v-14.5h6.5a1.5 1.5 0 0 0 0-3zm-46.5-14.5a2.5 2.5 0 0 1 2.5-2.5h32a2.5 2.5 0 0 1 2.5 2.5v14.5h-37zm37 32a2.5 2.5 0 0 1 -2.5 2.5h-32a2.5 2.5 0 0 1 -2.5-2.5v-14.5h37z"/><path d="m41.07 24.14h-18.14a1.5 1.5 0 0 0 0 3h18.14a1.5 1.5 0 1 0 0-3z"/><path d="m29.68 20.79h4.64a1.5 1.5 0 0 0 0-3h-4.64a1.5 1.5 0 0 0 0 3z"/><path d="m4 22.07a1.5 1.5 0 0 0 1.5-1.5v-15.07h15.07a1.5 1.5 0 0 0 0-3h-16.57a1.5 1.5 0 0 0 -1.5 1.5v16.57a1.5 1.5 0 0 0 1.5 1.5z"/><path d="m60 2.5h-16.57a1.5 1.5 0 0 0 0 3h15.07v15.07a1.5 1.5 0 0 0 3 0v-16.57a1.5 1.5 0 0 0 -1.5-1.5z"/><path d="m60 41.93a1.5 1.5 0 0 0 -1.5 1.5v15.07h-15.07a1.5 1.5 0 0 0 0 3h16.57a1.5 1.5 0 0 0 1.5-1.5v-16.57a1.5 1.5 0 0 0 -1.5-1.5z"/><path d="m20.57 58.5h-15.07v-15.07a1.5 1.5 0 0 0 -3 0v16.57a1.5 1.5 0 0 0 1.5 1.5h16.57a1.5 1.5 0 0 0 0-3z"/></g></g></svg>