<svg id="Capa_1" enable-background="new 0 0 512 512" height="512" viewBox="0 0 512 512" width="512" xmlns="http://www.w3.org/2000/svg" xmlns:xlink="http://www.w3.org/1999/xlink"><linearGradient id="SVGID_1_" gradientUnits="userSpaceOnUse" x1="256" x2="256" y1="512" y2="0"><stop offset="0" stop-color="#fd3a84"/><stop offset="1" stop-color="#ffa68d"/></linearGradient><g><path d="m497 512h-210c-8.284 0-15-6.716-15-15v-210c0-8.284 6.716-15 15-15h210c8.284 0 15 6.716 15 15v210c0 8.284-6.716 15-15 15zm-195-30h180v-180h-180zm-77 30h-210c-8.284 0-15-6.716-15-15v-210c0-8.284 6.716-15 15-15h210c8.284 0 15 6.716 15 15v210c0 8.284-6.716 15-15 15zm-195-30h180v-180h-180zm407-30c-8.284 0-15-6.716-15-15v-75h-25c-8.284 0-15-6.716-15-15s6.716-15 15-15h40c8.284 0 15 6.716 15 15v90c0 8.284-6.716 15-15 15zm-60 0h-30c-8.284 0-15-6.716-15-15v-60c0-8.284 6.716-15 15-15s15 6.716 15 15v45h15c8.284 0 15 6.716 15 15s-6.716 15-15 15zm-212 0h-90c-8.284 0-15-6.716-15-15v-90c0-8.284 6.716-15 15-15h90c8.284 0 15 6.716 15 15v90c0 8.284-6.716 15-15 15zm-75-30h60v-60h-60zm407-182h-210c-8.284 0-15-6.716-15-15v-210c0-8.284 6.716-15 15-15h210c8.284 0 15 6.716 15 15v210c0 8.284-6.716 15-15 15zm-195-30h180v-180h-180zm-77 30h-210c-8.284 0-15-6.716-15-15v-210c0-8.284 6.716-15 15-15h210c8.284 0 15 6.716 15 15v210c0 8.284-6.716 15-15 15zm-195-30h180v-180h-180zm407-30h-90c-8.284 0-15-6.716-15-15v-90c0-8.284 6.716-15 15-15h90c8.284 0 15 6.716 15 15v90c0 8.284-6.716 15-15 15zm-75-30h60v-60h-60zm-197 30h-60c-8.284 0-15-6.716-15-15s6.716-15 15-15h45v-15c0-8.284 6.716-15 15-15s15 6.716 15 15v30c0 8.284-6.716 15-15 15zm-90-50c-8.284 0-15-6.716-15-15v-40c0-8.284 6.716-15 15-15h90c8.284 0 15 6.716 15 15s-6.716 15-15 15h-75v25c0 8.284-6.716 15-15 15z" fill="url(#SVGID_1_)"/></g></svg>