<svg id="Layer_1" enable-background="new 0 0 128 128" height="512" viewBox="0 0 128 128" width="512" xmlns="http://www.w3.org/2000/svg"><g><path d="m84.8 8.9-13.6 12.1 4 4.5c1.6 1.8 5.9.5 9.7-2.8s5.5-7.5 3.8-9.3z" fill="#ea9a32"/><ellipse cx="78" cy="15" fill="#f2a733" rx="9.1" ry="4.4" transform="matrix(.745 -.668 .668 .745 9.93 55.893)"/></g><g><path d="m86.4 93.8c.9-2.7-.6-5.5-3.2-6.4-.5-.2-1-.2-1.6-.2h-3.4c2.8 0 5.1-2.3 5.1-5.1s-2.4-5.1-5.2-5.1h-21.1c3.4-7 4.6-14.8 3.4-22.5-.5-3-3.3-5.1-6.4-4.6-.2 0-.3.1-.4.1-2.7.7-4.4 3.2-4.2 6 .6 8.2-3.6 14.9-6.5 18.9-1 1.4-2.6 2.2-4.3 2.2h-11v37l5.1.1 8 3.4h36.8c2.8 0 5.1-2.3 5.1-5.1s-2.3-5.1-5.1-5.1h4c2.8 0 5.1-2.3 5.1-5.1s-2.3-5.1-5.1-5.1c2.2.1 4.2-1.3 4.9-3.4z" fill="#ffe7cf"/><path d="m17.6 73.9h15.2v43.9h-15.2z" fill="#f24b4e"/></g><path d="m86.1 7.7c-1.5-1.6-3.8-1.6-5.8-1-2.4.8-4.5 2-6.3 3.7-3.3 2.8-6.9 8.6-4 11.8l4 4.5c.9.9 2.2 1.4 3.5 1.4 2.5 0 5.7-1.4 8.7-4.1s4.9-5.9 5-8.5c.1-1.2-.3-2.4-1-3.3zm-13.6 12.2c-.2-.3-.3-1.1.2-2.2.8-1.8 2-3.3 3.5-4.6 1.4-1.3 3.1-2.3 5-3 .6-.2 1.9-.4 2.3 0 .2.3.3 1.1-.2 2.2-.8 1.8-2 3.3-3.5 4.6-1.4 1.3-3.1 2.3-5 3-1.2.3-2 .2-2.3 0zm15.2-4.6c-.1 1.4-1.3 3.8-3.9 6.1-3.3 3-6.6 3.6-7.2 3l-1-1.1c2.4-.7 4.6-2 6.5-3.8 2.1-1.8 3.7-4.2 4.4-6 0 0 .8.8 1 1.1.2.2.2.5.2.7zm.3 19.4c.5.8.3 1.9-.5 2.4s-1.9.3-2.4-.5c-.6-.9-1.3-1.8-2-2.7-.6-.7-.5-1.8.2-2.5.7-.6 1.8-.5 2.5.2.8 1.1 1.5 2 2.2 3.1zm4.4 20.9c-1.4 6-4.4 11.5-8.7 16-.7.6-1.8.6-2.5-.1-.6-.7-.6-1.7 0-2.4 3.8-4 6.4-8.9 7.7-14.2.2-.9 1.1-1.5 2.1-1.3 1 .1 1.6 1 1.4 2zm.3-9.4c.1 1-.5 1.8-1.5 2s-1.8-.5-2-1.5c-.1-.9-.3-1.8-.6-2.7s.3-1.9 1.2-2.2 1.9.3 2.2 1.2c.3 1.1.5 2.1.7 3.2zm7.5-8.9c.5.8.2 1.9-.7 2.4-.8.5-1.9.2-2.4-.7-1.4-2.5-3.1-4.8-5.2-6.9-.7-.7-.7-1.8 0-2.5s1.8-.7 2.5 0c2.3 2.3 4.2 4.8 5.8 7.7zm-.9 28.6c-.6 1.1-1.2 2.2-2 3.2-.6.8-1.7.9-2.4.4-.8-.6-.9-1.7-.4-2.4.6-.9 1.2-1.8 1.7-2.8.4-.9 1.5-1.2 2.4-.7.8.4 1.1 1.4.7 2.3zm3.8-19.8c.5 3.7.3 7.5-.6 11.2-.2.9-1.1 1.6-2.1 1.4-.9-.2-1.6-1.1-1.4-2.1v-.1c.8-3.2 1-6.6.5-9.8-.2-1 .5-1.9 1.4-2 1.2-.2 2.1.4 2.2 1.4zm2.8-18c4 5.3 6.2 11.7 6.3 18.3 0 1-.7 1.8-1.7 1.8h-.1c-.9 0-1.7-.8-1.7-1.7 0-5.9-1.9-11.6-5.5-16.2-.6-.8-.5-1.9.3-2.5s1.8-.5 2.4.3zm-6.4-3.9c-.5.8-1.6 1-2.4.5s-1.6-1-2.4-1.4c-.9-.4-1.2-1.5-.7-2.4.4-.9 1.5-1.2 2.4-.7.9.5 1.8 1 2.7 1.6.8.5 1 1.6.4 2.4zm11.9 31.3c-.3 1.8-.7 2.9-.7 2.9-.3.9-1.3 1.4-2.2 1.1s-1.4-1.2-1.1-2.2c0 0 .3-1 .6-2.5.2-.9 1.1-1.5 2.1-1.3.9.2 1.5 1.1 1.3 2zm-25.3 41.8c2.8 2.5 3 6.8.5 9.6-.9 1-2 1.7-3.3 2 .7 1.1 1 2.3 1 3.5 0 3.2-2.3 6-5.4 6.7-1.1.2-2.1-.6-2.1-1.7 0-.9.6-1.6 1.5-1.7 1.8-.4 2.9-2.2 2.5-4-.3-1.5-1.7-2.6-3.2-2.6h-7.6c-1 0-1.8-.8-1.8-1.8s.8-1.8 1.8-1.8h11.5c1.8 0 3.3-1.5 3.3-3.3s-1.4-3.3-3.3-3.3h-11.5c-1 0-1.8-.8-1.8-1.8s.8-1.8 1.8-1.8h11.6c1.8 0 3.3-1.5 3.3-3.3s-1.5-3.3-3.3-3.3h-11.6c-1 0-1.8-.7-1.8-1.7s.8-1.8 1.8-1.8h8.2c1.8-.1 3.3-1.6 3.2-3.4s-1.5-3.2-3.3-3.2h-21.1c-1.3 0-2.1-1.4-1.6-2.5 3.3-6.6 4.4-14.1 3.2-21.5-.3-2.1-2.3-3.5-4.3-3.2-1.9.3-3.4 2.1-3.2 4.2.7 8.6-3.6 15.6-6.8 20-1.3 1.8-3.4 2.9-5.7 2.9h-4.1v34.5l6.4 2.7c.9.4 1.3 1.4.9 2.3s-1.4 1.3-2.3.9l-5.1-2.1v1c0 1-.8 1.7-1.8 1.8h-15c-1 0-1.7-.8-1.8-1.8v-27.8c0-1 .8-1.8 1.8-1.8s1.8.8 1.8 1.8v26h11.6v-40.4h-11.7v3.1c0 1-.8 1.8-1.8 1.8s-1.8-.8-1.8-1.8v-4.8c0-1 .8-1.7 1.8-1.8h15.2c1 0 1.7.8 1.8 1.8v1.4h4.2c1.1 0 2.2-.5 2.9-1.5 2.9-4 6.7-10.2 6.1-17.7-.3-3.6 2-6.9 5.5-7.8 2-.5 4.1-.1 5.8 1s2.8 2.9 3.2 4.9c1.2 7.1.3 14.4-2.4 21h18.4c3.7 0 6.8 3 6.8 6.8 0 1.3-.4 2.6-1.1 3.8 3.5 1.2 5.4 5.1 4.2 8.7-.5 1-1.1 2-2 2.8zm-17.2 20.2c0 1-.8 1.7-1.8 1.8h-15.5c-1 0-1.8-.8-1.8-1.8s.8-1.8 1.8-1.8h15.6c1 .1 1.7.8 1.7 1.8zm-12.7-79.7v4.5c0 1-.8 1.8-1.8 1.8s-1.8-.8-1.8-1.8v-4.5c0-1 .8-1.8 1.8-1.8s1.8.8 1.8 1.8zm-9.1 6.9c.7.7.7 1.8 0 2.5s-1.8.7-2.5 0l-3.2-3.2c-.7-.7-.7-1.8 0-2.5s1.8-.7 2.5 0zm-3 9.8c0 1-.8 1.7-1.8 1.8h-4.5c-1 0-1.8-.8-1.8-1.8s.8-1.8 1.8-1.8h4.5c1 .1 1.8.8 1.8 1.8zm23.4-13.1c.7.7.7 1.8 0 2.5l-3.2 3.1c-.7.7-1.8.7-2.5 0s-.7-1.8 0-2.4l3.2-3.2c.7-.7 1.8-.7 2.5 0zm5.5 13c0 1-.8 1.7-1.8 1.8h-4.5c-1 0-1.8-.8-1.8-1.8s.8-1.8 1.8-1.8h4.5c1 .1 1.8.8 1.8 1.8z"/></svg>