<svg xmlns="http://www.w3.org/2000/svg" version="1.1" xmlns:xlink="http://www.w3.org/1999/xlink" xmlns:svgjs="http://svgjs.com/svgjs" width="512" height="512" x="0" y="0" viewBox="0 0 60 54" style="enable-background:new 0 0 512 512" xml:space="preserve" class=""><g><g xmlns="http://www.w3.org/2000/svg" id="Page-1" fill="none" fill-rule="evenodd"><g id="052---Quick-Charge" transform="translate(0 -1)"><g id="Icons" transform="translate(13 1)"><path id="Path" d="m27.53 30.59-11.28 13.41-7.06 8.4c-1.21 1.44-3.28.07-2.82-1.86l3.91-16.42c.2143605-.8260245-.0991299-1.6990355-.79-2.2l-8.64-5.66c-.46908334-.3502516-.77192326-.8793393-.83636394-1.4612007-.06444068-.5818615.11528828-1.1643933.49636394-1.6087993l19.21-21.63c1.26-1.42 3.32.08 2.75 2.01l-1.9 6.43-2.81 9.55c-.2687524.8533096.0371025 1.7829475.76 2.31l8.64 5.7c.4603357.3460449.7599118.8646226.8297172 1.4362722s-.0961792 1.1470778-.4597172 1.5937278z" fill="#ffdc00" data-original="#ffdc00" class=""></path><path id="Path" d="m27.16 27.56-8.64-5.7c-.7228975-.5270525-1.0287524-1.4566904-.76-2.31l2.81-9.55 1.9-6.43c.57-1.93-1.49-3.43-2.75-2.01l-.374.421c.2452072.49371723.2896493 1.06322098.124 1.589l-1.9 6.43-2.81 9.55c-.2687524.8533096.0371025 1.7829475.76 2.31l8.64 5.7c.4603357.3460449.7599118.8646226.8297172 1.4362722s-.0961792 1.1470778-.4597172 1.5937278l-11.28 13.41-6.728 8.005c.20500217.5169355.66999133.8854129 1.22009603.9668564.55010471.0814436 1.10191344-.1364959 1.44790397-.5718564l7.06-8.4 11.28-13.41c.363538-.44665.5295226-1.0220782.4597172-1.5937278s-.3693815-1.0902273-.8297172-1.4362722z" fill="#fec108" data-original="#fec108" class=""></path><path id="Path" d="m38 24h10c1.1045695 0 2 .8954305 2 2v4h-14v-4c0-1.1045695.8954305-2 2-2z" fill="#607d8b" transform="matrix(0 1 -1 0 70 -16)" data-original="#607d8b" class=""></path><path id="Path" d="m40 14v26c0 2.209139-1.790861 4-4 4h-19.75l11.28-13.41c.363538-.44665.5295226-1.0220782.4597172-1.5937278s-.3693815-1.0902273-.8297172-1.4362722l-8.64-5.7c-.7228975-.5270525-1.0287524-1.4566904-.76-2.31l2.81-9.55h15.43c2.209139 0 4 1.790861 4 4z" fill="#3f51b5" data-original="#3f51b5" class=""></path><path id="Path" d="m36 10h-3c2.209139 0 4 1.790861 4 4v26c0 2.209139-1.790861 4-4 4h3c2.209139 0 4-1.790861 4-4v-26c0-2.209139-1.790861-4-4-4z" fill="#283593" data-original="#283593"></path></g><g id="Icons_copy" fill="#000"><path id="Shape" d="m57 20h-3v-5c-.0033061-2.7600532-2.2399468-4.9966939-5-5h-14.084l1.518-5.148c.439251-1.34663448-.1205087-2.817253-1.344-3.531-1.0399433-.59170185-2.3548383-.34898448-3.115.575l-7.2 8.1h-9.775c-.5522847 0-1 .4477153-1 1s.4477153 1 1 1h8l-3.554 4h-16.446c-.55228475 0-1 .4477153-1 1s.44771525 1 1 1h14.67l-2.665 3h-4.005c-.5522847 0-1 .4477153-1 1s.4477153 1 1 1h2.228l-.47.529c-.839158.9635567-1.0011509 2.3432758-.408 3.475h-11.35c-.55228475 0-1 .4477153-1 1s.44771525 1 1 1h13.678l6.1 4h-6.778c-.5522847 0-1 .4477153-1 1s.4477153 1 1 1h8.279l-.714 3h-19.565c-.55228475 0-1 .4477153-1 1s.44771525 1 1 1h19.09l-.951 4h-7.139c-.5522847 0-1 .4477153-1 1s.4477153 1 1 1h6.663l-1.263 5.313c-.3605933 1.3432156.2512549 2.7578816 1.477 3.415.3479575.1771158.7325625.2702704 1.123.272.7595446-.0109448 1.4744262-.3608664 1.949-.954l6.769-8.046h19.282c2.7600532-.0033061 4.9966939-2.2399468 5-5v-5h3c1.6568542 0 3-1.3431458 3-3v-10c0-1.6568542-1.3431458-3-3-3zm-35.578 32.761c-.1340694.2204689-.4161428.2991871-.645.18-.3971373-.2413112-.5757067-.7244017-.431-1.166l3.905-16.425c.1326456-.5701469.1063586-1.1657557-.076-1.722 0-.007 0-.015-.006-.021-.1949849-.6193526-.5935438-1.1546408-1.131-1.519l-8.638-5.663c-.220876-.1623375-.361154-.4119231-.385-.685-.0484252-.3153464.0395661-.6364055.242-.883l6.343-7.146.013-.014 12.857-14.473c.0955773-.13049298.2436654-.21239852.405-.224.0864316.00208672.1708453.02654945.245.071.4025847.26044953.5691302.76633159.4 1.215l-4.72 15.985c-.3985897 1.2708143.0714543 2.6534395 1.162 3.418l8.638 5.711c.2162794.1579942.3551693.400506.382.667.051899.3123809-.0301371.6321767-.226.881zm30.578-11.761c0 1.6568542-1.3431458 3-3 3h-17.6l9.893-11.769c.5645449-.6847409.8097793-1.5779908.674-2.455-.1083882-.8307222-.566027-1.5757493-1.258-2.048l-8.642-5.707c-.3462246-.2870319-.4828505-.7559158-.345-1.184l2.604-8.837h14.674c1.6568542 0 3 1.3431458 3 3zm6-8c0 .5522847-.4477153 1-1 1h-3v-12h3c.5522847 0 1 .4477153 1 1z" fill-rule="nonzero" fill="#000000" data-original="#000000" class=""></path><path id="Path" d="m9 46c.55228475 0 1-.4477153 1-1s-.44771525-1-1-1h-3c-.55228475 0-1 .4477153-1 1s.44771525 1 1 1z" fill="#000000" data-original="#000000" class=""></path><path id="Path" d="m8 10c-.55228475 0-1 .4477153-1 1s.44771525 1 1 1h3c.5522847 0 1-.4477153 1-1s-.4477153-1-1-1z" fill="#000000" data-original="#000000" class=""></path><path id="Path" d="m7 23c.55228475 0 1-.4477153 1-1s-.44771525-1-1-1h-2c-.55228475 0-1 .4477153-1 1s.44771525 1 1 1z" fill="#000000" data-original="#000000" class=""></path><path id="Path" d="m10 35c.5522847 0 1-.4477153 1-1s-.4477153-1-1-1h-4c-.55228475 0-1 .4477153-1 1s.44771525 1 1 1z" fill="#000000" data-original="#000000" class=""></path></g></g></g></g></svg>