<svg xmlns="http://www.w3.org/2000/svg" version="1.1" xmlns:xlink="http://www.w3.org/1999/xlink" xmlns:svgjs="http://svgjs.com/svgjs" width="512" height="512" x="0" y="0" viewBox="0 0 512 512" style="enable-background:new 0 0 512 512" xml:space="preserve" class=""><g><g xmlns="http://www.w3.org/2000/svg"><path d="m364.235 300.821 12.59 76.01-76-12.6-44.83 62.65-14.44-20.19-30.38-42.46-76 12.6 12.59-76.01-62.65-44.82 62.65-44.82-12.59-76.01 76 12.6 30.38-42.46 14.44-20.19 44.83 62.65 76-12.6-12.59 76.01 62.65 44.82z" fill="#ffc047" data-original="#ffc047" class=""></path><path d="m364.235 300.821 12.59 76.01-76-12.6-44.83 62.65-14.44-20.19 48.67-68.03 58.05 9.62-9.62-58.05 47.84-34.23-47.84-34.23 9.62-58.05-58.05 9.62-48.67-68.03 14.44-20.19 44.83 62.65 76-12.6-12.59 76.01 62.65 44.82z" fill="#ffa143" data-original="#ffa143"></path><path d="m289.518 265.144-28.648-23.562c-.457-.51-.624-1.216-.444-1.876l19.015-42.154c.522-1.918-1.75-3.355-3.261-2.064l-53.505 45.784c-.801.686-.94 1.873-.318 2.724l24.051 22.603c.347.474.469 1.076.336 1.648l-18.329 46.275c-.441 1.89 1.78 3.252 3.266 2.002l57.633-48.488c.871-.733.963-2.043.204-2.892z" fill="#f9f05a" data-original="#f9f05a"></path></g><g xmlns="http://www.w3.org/2000/svg"><path d="m372.397 304.205 58.851-42.105c1.968-1.408 3.136-3.68 3.136-6.1s-1.167-4.691-3.136-6.1l-19.059-13.636c-3.368-2.409-8.053-1.633-10.464 1.735-2.41 3.369-1.633 8.054 1.735 10.464l10.535 7.537-54.124 38.723c-2.326 1.664-3.503 4.505-3.035 7.326l10.881 65.667-65.667-10.881c-2.825-.472-5.663.709-7.326 3.035l-38.724 54.125-38.723-54.125c-1.663-2.325-4.504-3.501-7.326-3.035l-65.667 10.881 10.881-65.667c.468-2.821-.709-5.662-3.035-7.326l-54.124-38.723 10.534-7.537c3.369-2.41 4.146-7.095 1.735-10.464-2.41-3.368-7.095-4.146-10.464-1.735l-19.059 13.636c-1.968 1.408-3.136 3.68-3.136 6.1s1.168 4.691 3.136 6.1l58.851 42.105-11.831 71.397c-.396 2.387.385 4.818 2.096 6.529s4.145 2.492 6.529 2.096l71.397-11.831 42.105 58.852c1.408 1.968 3.68 3.136 6.1 3.136s4.691-1.168 6.1-3.136l42.105-58.852 71.398 11.831c2.387.396 4.818-.385 6.529-2.096s2.491-4.142 2.096-6.529z" fill="#000000" data-original="#000000" class=""></path><path d="m124.036 228.155c2.41 3.369 7.095 4.146 10.463 1.736l17.631-12.614c2.326-1.664 3.503-4.505 3.035-7.326l-10.881-65.667 65.667 10.881c2.823.469 5.662-.71 7.326-3.035l38.723-54.125 38.723 54.124c1.664 2.326 4.506 3.503 7.326 3.035l65.667-10.881-10.881 65.667c-.468 2.821.709 5.662 3.035 7.326l17.631 12.614c1.322.946 2.847 1.401 4.357 1.401 2.338 0 4.642-1.09 6.106-3.137 2.41-3.369 1.633-8.053-1.736-10.463l-13.832-9.896 11.831-71.398c.396-2.387-.385-4.818-2.096-6.529s-4.142-2.492-6.529-2.096l-71.398 11.831-42.104-58.851c-1.408-1.968-3.68-3.136-6.1-3.136s-4.691 1.168-6.1 3.136l-42.105 58.851-71.397-11.831c-2.385-.396-4.818.384-6.529 2.096-1.711 1.711-2.491 4.142-2.096 6.529l11.831 71.398-13.832 9.896c-3.37 2.411-4.147 7.095-1.736 10.464z" fill="#000000" data-original="#000000" class=""></path><path d="m256 63.395c4.142 0 7.5-3.358 7.5-7.5v-48.395c0-4.142-3.358-7.5-7.5-7.5s-7.5 3.358-7.5 7.5v48.395c0 4.142 3.358 7.5 7.5 7.5z" fill="#000000" data-original="#000000" class=""></path><path d="m256 448.605c-4.142 0-7.5 3.358-7.5 7.5v48.395c0 4.142 3.358 7.5 7.5 7.5s7.5-3.358 7.5-7.5v-48.395c0-4.142-3.358-7.5-7.5-7.5z" fill="#000000" data-original="#000000" class=""></path><path d="m504.5 248.5h-48.395c-4.142 0-7.5 3.358-7.5 7.5s3.358 7.5 7.5 7.5h48.395c4.142 0 7.5-3.358 7.5-7.5s-3.358-7.5-7.5-7.5z" fill="#000000" data-original="#000000" class=""></path><path d="m55.895 248.5h-48.395c-4.142 0-7.5 3.358-7.5 7.5s3.358 7.5 7.5 7.5h48.395c4.142 0 7.5-3.358 7.5-7.5s-3.358-7.5-7.5-7.5z" fill="#000000" data-original="#000000" class=""></path><path d="m427.413 73.98-34.221 34.221c-2.929 2.929-2.929 7.678 0 10.606 1.464 1.464 3.384 2.197 5.303 2.197s3.839-.732 5.303-2.197l34.221-34.221c2.929-2.929 2.929-7.678 0-10.606-2.928-2.928-7.677-2.928-10.606 0z" fill="#000000" data-original="#000000" class=""></path><path d="m109.201 396.192-34.22 34.22c-2.929 2.929-2.929 7.678 0 10.606 1.464 1.464 3.384 2.197 5.303 2.197s3.839-.732 5.303-2.197l34.22-34.22c2.929-2.929 2.929-7.678 0-10.606-2.928-2.928-7.677-2.928-10.606 0z" fill="#000000" data-original="#000000" class=""></path><path d="m402.799 396.192c-2.929-2.929-7.678-2.929-10.606 0-2.929 2.929-2.929 7.678 0 10.606l34.221 34.22c1.464 1.464 3.384 2.197 5.303 2.197s3.839-.732 5.303-2.197c2.929-2.929 2.929-7.678 0-10.606z" fill="#000000" data-original="#000000" class=""></path><path d="m110.201 118.808c1.464 1.465 3.384 2.197 5.303 2.197s3.839-.732 5.303-2.197c2.929-2.929 2.929-7.678 0-10.606l-34.22-34.222c-2.928-2.929-7.677-2.929-10.606 0s-2.929 7.678 0 10.606z" fill="#000000" data-original="#000000" class=""></path><path d="m221.11 312.819c-.932 3.999.793 8.127 4.293 10.274 1.538.943 3.261 1.407 4.978 1.407 2.189 0 4.366-.756 6.127-2.238l57.634-48.488c1.958-1.647 3.185-4.057 3.366-6.61.181-2.554-.694-5.113-2.401-7.021l-.382-.427-25.6-21.055 17.396-38.566.156-.573c1.104-4.056-.541-8.292-4.091-10.541-3.551-2.249-8.084-1.925-11.282.809l-53.509 45.786c-3.75 3.213-4.408 8.854-1.496 12.842l.412.564 21.567 20.269-17.042 43.027zm11.111-69.845 30.135-25.786-9.011 19.976-.156.574c-.85 3.127-.067 6.435 2.095 8.849l.381.426 23.76 19.542-35.912 30.213 10.408-26.276.126-.542c.629-2.703.051-5.538-1.586-7.777l-.411-.562z" fill="#000000" data-original="#000000" class=""></path></g></g></svg>