<?xml version="1.0" encoding="iso-8859-1"?>
<!-- Generator: Adobe Illustrator 19.0.0, SVG Export Plug-In . SVG Version: 6.00 Build 0)  -->
<svg version="1.1" id="Capa_1" xmlns="http://www.w3.org/2000/svg" xmlns:xlink="http://www.w3.org/1999/xlink" x="0px" y="0px"
	 viewBox="0 0 512 512" style="enable-background:new 0 0 512 512;" xml:space="preserve">
<path style="fill:#F0E6DE;" d="M376,70H56c-11.05,0-20,8.95-20,20v392c0,11.05,8.95,20,20,20h340V90C396,78.95,387.05,70,376,70z"/>
<path style="fill:#85E374;" d="M476,412c0,49.71-40.29,90-90,90c-49.938,0-90-40.519-90-90c0-50.115,40.711-90,90-90
	C435.557,322,476,362.142,476,412z"/>
<path style="fill:#57555C;" d="M296,70v20H136V70c0-11.05,8.95-20,20-20h20c0-22.09,17.91-40,40-40s40,17.91,40,40h20
	C287.05,50,296,58.95,296,70z"/>
<path d="M216,60c5.52,0,10-4.48,10-10s-4.48-10-10-10s-10,4.48-10,10S210.48,60,216,60z"/>
<path d="M96,172c-5.52,0-10,4.48-10,10s4.48,10,10,10s10-4.48,10-10S101.52,172,96,172z"/>
<path d="M96,232c-5.52,0-10,4.48-10,10s4.48,10,10,10s10-4.48,10-10S101.52,232,96,232z"/>
<path d="M96,292c-5.52,0-10,4.48-10,10s4.48,10,10,10s10-4.48,10-10S101.52,292,96,292z"/>
<path d="M96,352c-5.52,0-10,4.48-10,10s4.48,10,10,10s10-4.48,10-10S101.52,352,96,352z"/>
<path d="M96,412c-5.52,0-10,4.48-10,10s4.48,10,10,10s10-4.48,10-10S101.52,412,96,412z"/>
<path d="M136,192h200c5.522,0,10-4.478,10-10s-4.478-10-10-10H136c-5.522,0-10,4.478-10,10S130.478,192,136,192z"/>
<path d="M136,252h200c5.522,0,10-4.478,10-10s-4.478-10-10-10H136c-5.522,0-10,4.478-10,10S130.478,252,136,252z"/>
<path d="M136,312h200c5.522,0,10-4.478,10-10s-4.478-10-10-10H136c-5.522,0-10,4.478-10,10S130.478,312,136,312z"/>
<path d="M408.929,384.929L376,417.857l-12.929-12.929c-3.906-3.904-10.236-3.904-14.143,0c-3.905,3.905-3.905,10.237,0,14.143l20,20
	C370.882,441.023,373.44,442,376,442s5.118-0.977,7.071-2.929l40-40c3.905-3.905,3.905-10.237,0-14.143
	C419.165,381.024,412.835,381.024,408.929,384.929z"/>
<path d="M486,412c0-48.027-33.812-88.671-80-97.994V90c0-16.542-13.458-30-30-30h-71.72c-4.128-11.639-15.243-20-28.28-20h-11.005
	C260.35,17.206,240.146,0,216,0s-44.35,17.206-48.995,40H156c-13.036,0-24.152,8.361-28.28,20H56c-16.542,0-30,13.458-30,30v392
	c0,16.542,13.458,30,30,30h330C441.141,512,486,467.141,486,412z M156,60h20c5.522,0,10-4.478,10-10c0-16.542,13.458-30,30-30
	s30,13.458,30,30c0,5.522,4.478,10,10,10h20c5.514,0,10,4.486,10,10v10H146V70C146,64.486,150.486,60,156,60z M56,492
	c-5.514,0-10-4.486-10-10V90c0-5.514,4.486-10,10-10h70v10c0,5.522,4.478,10,10,10h160c5.522,0,10-4.478,10-10V80h70
	c5.514,0,10,4.486,10,10v222c-31.627,0-61.135,14.86-79.993,40H136c-5.522,0-10,4.478-10,10s4.478,9.9,10,9.9h158.332
	C288.855,384.429,286,398.096,286,412H136c-5.522,0-10,4.478-10,10s4.478,10,10,10h152.006c4.963,24.585,18.797,45.661,37.9,60H56z
	 M386,492c-40.853,0-75.034-30.565-79.51-71.089c-0.325-2.97-0.49-5.968-0.49-8.911c0-15.904,4.65-31.256,13.449-44.405
	c0.004-0.005,0.007-0.011,0.01-0.016c0.004-0.006,0.007-0.012,0.011-0.017C334.371,345.294,359.241,332,386,332
	c2.943,0,5.941,0.165,8.911,0.49C435.439,336.97,466,371.15,466,412C466,456.112,430.112,492,386,492z"/>
<g>
</g>
<g>
</g>
<g>
</g>
<g>
</g>
<g>
</g>
<g>
</g>
<g>
</g>
<g>
</g>
<g>
</g>
<g>
</g>
<g>
</g>
<g>
</g>
<g>
</g>
<g>
</g>
<g>
</g>
</svg>
