<svg id="Capa_1" enable-background="new 0 0 512 512" height="512" viewBox="0 0 512 512" width="512" xmlns="http://www.w3.org/2000/svg"><path d="m256 504.5c45.271 0 87.711-12.112 124.267-33.263v-10.834z" fill="#622876"/><path d="m256 256-58.242 146.576 58.242 101.924c46.17 0 88.986-16.301 124.267-44.097v-204.403z" fill="#962b7c"/><path d="m375.933 463.731 4.334 7.506c37.709-21.819 69.151-53.26 90.97-90.97v-81.305z" fill="#2d2570"/><path d="m471.237 298.962v-42.962h-215.237l119.933 207.731c49.354-36.931 84.763-95.987 95.304-164.769z" fill="#622876"/><path d="m473.956 238.546-23.087 129.961 20.369 11.76c21.15-36.556 33.262-78.996 33.262-124.267z" fill="#0556b2"/><path d="m473.956 238.546-71.38-40.788-146.576 58.242 194.868 112.507c15.109-33.78 23.632-72.011 23.632-112.507 0-5.869-.192-11.687-.544-17.454z" fill="#077ccc"/><path d="m471.237 131.733h-25.984l29.247 124.267h30c0-45.271-12.112-87.711-33.263-124.267z" fill="#077ccc"/><path d="m285.121 131.733-29.121 124.267h218.5c0-45.271-10.65-87.711-29.247-124.267z" fill="#09a1e5"/><path d="m380.267 40.763h-15.002l85.603 102.729 20.369-11.76c-21.819-37.709-53.26-69.15-90.97-90.969z" fill="#2897b1"/><path d="m365.265 40.763h-80.144l-29.121 215.237 194.868-112.507c-19.204-42.939-49.056-78.68-85.603-102.73z" fill="#49b296"/><path d="m256 7.5 119.933 40.769 4.334-7.506c-36.556-21.151-78.996-33.263-124.267-33.263z" fill="#49b296"/><path d="m197.758 109.424 58.242 146.576 119.933-207.731c-34.43-25.764-75.637-40.769-119.933-40.769z" fill="#89c247"/><path d="m131.733 471.237c36.556 21.151 78.996 33.263 124.267 33.263v-248.5h-124.267z" fill="#cb2e81"/><path d="m40.763 380.267c21.819 37.71 53.26 69.151 90.97 90.97l124.267-215.237h-215.237z" fill="#ff3187"/><path d="m7.5 256c0 45.271 12.112 87.711 33.263 124.267l215.237-124.267-146.576-58.242z" fill="#ff5178"/><path d="m40.763 131.733c-21.151 36.556-33.263 78.996-33.263 124.267h248.5l-29.121-124.267z" fill="#ff9259"/><path d="m131.733 40.763c-37.71 21.819-69.151 53.26-90.97 90.97l215.237 124.267-29.121-215.237z" fill="#ffb24a"/><path d="m256 7.5c-45.271 0-87.711 12.112-124.267 33.263l124.267 215.237z" fill="#ffd23b"/><path d="m256 116v280c77.32 0 140-62.68 140-140s-62.68-140-140-140z" fill="#fff0be"/><path d="m366 256c0-77.32-49.249-140-110-140-77.32 0-140 62.68-140 140s62.68 140 140 140c60.751 0 110-62.68 110-140z" fill="#fff"/><path d="m256 512c-68.38 0-132.667-26.629-181.02-74.98-48.351-48.352-74.98-112.64-74.98-181.02s26.629-132.667 74.98-181.02c48.353-48.351 112.64-74.98 181.02-74.98s132.668 26.629 181.02 74.98c48.351 48.353 74.98 112.64 74.98 181.02s-26.629 132.668-74.98 181.02-112.64 74.98-181.02 74.98zm0-497c-132.888 0-241 108.112-241 241s108.112 241 241 241 241-108.112 241-241-108.112-241-241-241z"/><path d="m256 403.5c-81.332 0-147.5-66.168-147.5-147.5s66.168-147.5 147.5-147.5 147.5 66.168 147.5 147.5-66.168 147.5-147.5 147.5zm0-280c-73.061 0-132.5 59.439-132.5 132.5s59.439 132.5 132.5 132.5 132.5-59.439 132.5-132.5-59.439-132.5-132.5-132.5z"/><path d="m256 512c-4.142 0-7.5-3.357-7.5-7.5v-108.5c0-4.143 3.358-7.5 7.5-7.5s7.5 3.357 7.5 7.5v108.5c0 4.143-3.358 7.5-7.5 7.5z"/><path d="m380.257 478.708c-2.592 0-5.112-1.345-6.502-3.751l-54.25-93.963c-2.071-3.587-.842-8.174 2.745-10.245 3.586-2.069 8.173-.843 10.245 2.745l54.25 93.963c2.071 3.587.842 8.174-2.745 10.245-1.181.682-2.471 1.006-3.743 1.006z"/><path d="m471.2 387.751c-1.272 0-2.562-.324-3.743-1.006l-93.963-54.25c-3.587-2.071-4.816-6.658-2.745-10.245 2.07-3.588 6.655-4.816 10.245-2.745l93.963 54.25c3.587 2.071 4.816 6.658 2.745 10.245-1.389 2.406-3.91 3.751-6.502 3.751z"/><path d="m504.5 263.5h-108.5c-4.143 0-7.5-3.358-7.5-7.5s3.357-7.5 7.5-7.5h108.5c4.143 0 7.5 3.358 7.5 7.5s-3.357 7.5-7.5 7.5z"/><path d="m377.251 193.501c-2.592 0-5.112-1.345-6.502-3.751-2.071-3.587-.842-8.174 2.745-10.245l93.963-54.25c3.585-2.071 8.173-.842 10.245 2.745 2.071 3.587.842 8.174-2.745 10.245l-93.963 54.25c-1.181.682-2.471 1.006-3.743 1.006z"/><path d="m325.993 142.257c-1.272 0-2.562-.324-3.743-1.006-3.587-2.071-4.816-6.658-2.745-10.245l54.25-93.963c2.069-3.587 6.655-4.817 10.245-2.745 3.587 2.071 4.816 6.658 2.745 10.245l-54.25 93.963c-1.389 2.406-3.91 3.751-6.502 3.751z"/><path d="m256 123.5c-4.142 0-7.5-3.358-7.5-7.5v-108.5c0-4.142 3.358-7.5 7.5-7.5s7.5 3.358 7.5 7.5v108.5c0 4.142-3.358 7.5-7.5 7.5z"/><path d="m186.007 142.257c-2.592 0-5.113-1.345-6.502-3.751l-54.25-93.963c-2.071-3.587-.842-8.174 2.745-10.245 3.588-2.071 8.174-.842 10.245 2.745l54.25 93.963c2.071 3.587.842 8.174-2.745 10.245-1.181.682-2.471 1.006-3.743 1.006z"/><path d="m134.749 193.501c-1.272 0-2.562-.324-3.743-1.006l-93.963-54.25c-3.587-2.071-4.816-6.658-2.745-10.245 2.07-3.588 6.657-4.817 10.245-2.745l93.963 54.25c3.587 2.071 4.816 6.658 2.745 10.245-1.389 2.406-3.91 3.751-6.502 3.751z"/><path d="m116 263.5h-108.5c-4.142 0-7.5-3.358-7.5-7.5s3.358-7.5 7.5-7.5h108.5c4.142 0 7.5 3.358 7.5 7.5s-3.358 7.5-7.5 7.5z"/><path d="m40.8 387.751c-2.592 0-5.113-1.345-6.502-3.751-2.071-3.587-.842-8.174 2.745-10.245l93.963-54.25c3.587-2.07 8.174-.842 10.245 2.745s.842 8.174-2.745 10.245l-93.963 54.25c-1.181.682-2.471 1.006-3.743 1.006z"/><path d="m131.743 478.708c-1.272 0-2.562-.324-3.743-1.006-3.587-2.071-4.816-6.658-2.745-10.245l54.25-93.963c2.071-3.589 6.658-4.815 10.245-2.745 3.587 2.071 4.816 6.658 2.745 10.245l-54.25 93.963c-1.389 2.406-3.91 3.751-6.502 3.751z"/><path d="m301.664 229.601-45.664-53.601v152.5c33.137 0 60-26.863 60-60 0-14.846-5.404-28.423-14.336-38.899z" fill="#ff3187"/><path d="m286 268.5c0-14.846-2.702-28.423-7.168-38.899l-22.832-53.601-45.664 53.601c-8.932 10.476-14.336 24.053-14.336 38.899 0 33.137 26.863 60 60 60 16.569 0 30-26.863 30-60z" fill="#ff5178"/><path d="m256 336c-37.22 0-67.5-30.28-67.5-67.5 0-16.023 5.728-31.566 16.129-43.765 2.688-3.152 7.421-3.528 10.573-.841 3.152 2.688 3.528 7.421.841 10.573-8.088 9.486-12.543 21.573-12.543 34.033 0 28.948 23.551 52.5 52.5 52.5s52.5-23.552 52.5-52.5c0-12.459-4.455-24.546-12.543-34.033l-39.957-46.902-20.5 24.063c-2.686 3.154-7.418 3.533-10.573.845-3.153-2.686-3.532-7.419-.845-10.573l26.209-30.765c1.425-1.672 3.512-2.636 5.709-2.636s4.284.963 5.709 2.636l45.664 53.601c10.399 12.197 16.127 27.74 16.127 43.763 0 37.221-30.28 67.501-67.5 67.501z"/></svg>