<svg xmlns="http://www.w3.org/2000/svg" version="1.1" xmlns:xlink="http://www.w3.org/1999/xlink" xmlns:svgjs="http://svgjs.com/svgjs" width="512" height="512" x="0" y="0" viewBox="0 0 512 512" style="enable-background:new 0 0 512 512" xml:space="preserve" class=""><g><g xmlns="http://www.w3.org/2000/svg"><g><g><g><g><path d="m361.445 7.5h-287.154c-17.351 0-31.417 14.066-31.417 31.417v434.167c0 17.351 14.066 31.417 31.417 31.417h363.418c17.351 0 31.417-14.066 31.417-31.417v-357.904c0-8.332-3.31-16.323-9.202-22.215l-76.264-76.263c-5.892-5.892-13.882-9.202-22.215-9.202z" fill="#eaf2ff" data-original="#eaf2ff" class=""></path></g><g><path d="m459.924 92.965-45.348-45.348v399.591c0 17.351-14.066 31.417-31.416 31.417h-339.788c2.619 14.707 15.46 25.875 30.919 25.875h363.418c17.351 0 31.417-14.066 31.417-31.417v-357.903c0-8.332-3.31-16.323-9.202-22.215z" fill="#c9e0fd" data-original="#c9e0fd"></path></g><path d="m459.924 92.965-76.264-76.263c-2.686-2.686-5.81-4.828-9.202-6.371v79.873c0 6.607 5.356 11.963 11.963 11.963h79.873c-1.543-3.391-3.685-6.516-6.37-9.202z" fill="#e7a561" data-original="#e7a561"></path></g></g></g><g><g><path d="m97.871 185.895h316.259c4.142 0 7.5-3.358 7.5-7.5s-3.358-7.5-7.5-7.5h-316.259c-4.142 0-7.5 3.358-7.5 7.5s3.358 7.5 7.5 7.5z" fill="#000000" data-original="#000000"></path><path d="m97.871 253.894h316.259c4.142 0 7.5-3.358 7.5-7.5s-3.358-7.5-7.5-7.5h-316.259c-4.142 0-7.5 3.358-7.5 7.5s3.358 7.5 7.5 7.5z" fill="#000000" data-original="#000000"></path><path d="m97.871 321.892h316.259c4.142 0 7.5-3.358 7.5-7.5s-3.358-7.5-7.5-7.5h-316.259c-4.142 0-7.5 3.358-7.5 7.5s3.358 7.5 7.5 7.5z" fill="#000000" data-original="#000000"></path><path d="m97.871 389.891h239.915c4.142 0 7.5-3.358 7.5-7.5s-3.358-7.5-7.5-7.5h-239.915c-4.142 0-7.5 3.358-7.5 7.5s3.358 7.5 7.5 7.5z" fill="#000000" data-original="#000000"></path><path d="m465.227 87.662-76.264-76.264c-7.35-7.35-17.123-11.398-27.518-11.398h-287.154c-21.458 0-38.916 17.458-38.916 38.917v45.803c0 4.142 3.358 7.5 7.5 7.5s7.5-3.358 7.5-7.5v-45.803c0-13.188 10.729-23.917 23.916-23.917h287.154c1.881 0 3.727.221 5.513.641v74.563c0 10.732 8.731 19.463 19.463 19.463h74.563c.42 1.786.641 3.632.641 5.513v249.764c0 4.142 3.358 7.5 7.5 7.5s7.5-3.358 7.5-7.5v-249.764c0-10.395-4.047-20.168-11.398-27.518zm-78.805 7.005c-2.461 0-4.463-2.002-4.463-4.463v-64.598l69.061 69.061z" fill="#000000" data-original="#000000"></path><path d="m469.125 392.473c-4.142 0-7.5 3.358-7.5 7.5v73.111c0 13.188-10.729 23.917-23.917 23.917h-363.417c-13.188 0-23.917-10.729-23.917-23.917v-353.47c0-4.142-3.358-7.5-7.5-7.5s-7.5 3.358-7.5 7.5v353.469c0 21.458 17.458 38.917 38.917 38.917h363.418c21.458 0 38.917-17.458 38.917-38.917v-73.111c-.001-4.141-3.358-7.499-7.501-7.499z" fill="#000000" data-original="#000000"></path></g></g></g></g></svg>