<svg xmlns="http://www.w3.org/2000/svg" version="1.1" xmlns:xlink="http://www.w3.org/1999/xlink" xmlns:svgjs="http://svgjs.com/svgjs" width="512" height="512" x="0" y="0" viewBox="0 0 511.999 511.999" style="enable-background:new 0 0 512 512" xml:space="preserve" class=""><g> <path xmlns="http://www.w3.org/2000/svg" style="" d="M270.409,253.866l-117.716-34.188c-25.552-7.421-40.25-34.15-32.829-59.702L154.052,42.26  c7.421-25.552,34.15-40.25,59.702-32.829L331.47,43.619c25.552,7.421,40.25,34.15,32.829,59.702l-34.188,117.716  C322.691,246.589,295.961,261.287,270.409,253.866z" fill="#f26666" data-original="#f26666"></path> <path xmlns="http://www.w3.org/2000/svg" style="" d="M331.47,43.619l-42.891-12.457c21.583,9.758,33.275,34.142,26.477,57.55l-34.331,118.211  c-6.855,23.604-30.119,37.969-53.776,34.321l43.46,12.622c25.552,7.421,52.281-7.277,59.702-32.829l34.188-117.716  C371.72,77.769,357.022,51.04,331.47,43.619z" fill="#dd5b5b" data-original="#dd5b5b"></path> <path xmlns="http://www.w3.org/2000/svg" style="" d="M210.599,484.3L89.591,503.873c-26.266,4.249-51.003-13.6-55.252-39.866L14.766,343  c-4.249-26.266,13.6-51.003,39.866-55.252l121.007-19.574c26.266-4.249,51.003,13.6,55.252,39.866l19.574,121.007  C254.713,455.314,236.865,480.051,210.599,484.3z" fill="#73e7e6" data-original="#73e7e6" class=""></path> <path xmlns="http://www.w3.org/2000/svg" style="" d="M250.465,429.048l-19.574-121.007c-4.249-26.266-28.986-44.115-55.252-39.866l-45.212,7.313  c24.184-0.873,45.799,16.368,49.764,40.876l19.782,122.297c3.54,21.883-8.104,42.703-27.17,51.752l37.796-6.114  C236.865,480.051,254.713,455.314,250.465,429.048z" fill="#65d1cb" data-original="#65d1cb" class=""></path> <path xmlns="http://www.w3.org/2000/svg" style="" d="M449.686,491.282h-122.58c-26.607,0-48.177-21.57-48.177-48.177v-122.58  c0-26.607,21.57-48.177,48.177-48.177h122.58c26.607,0,48.177,21.57,48.177,48.177v122.58  C497.863,469.712,476.293,491.282,449.686,491.282z" fill="#ff9f40" data-original="#ff9f40" class=""></path> <path xmlns="http://www.w3.org/2000/svg" style="" d="M449.686,272.348h-39.253c21.48,5.099,37.463,24.393,37.463,47.432v124.07  c0,23.04-15.984,42.334-37.464,47.432h39.254c26.607,0,48.177-21.57,48.177-48.177v-122.58  C497.863,293.917,476.293,272.348,449.686,272.348z" fill="#f49138" data-original="#f49138"></path> <path xmlns="http://www.w3.org/2000/svg" d="M237.269,183.458c-1.106,0-2.281-0.172-3.399-0.497c-3.849-1.118-7.482-4.074-6.364-7.924l20.627-71.023l-4.051,2.868  l-0.05,0.027c-0.853,0.47-1.853,0.728-2.814,0.728c-0.447,0-0.879-0.057-1.251-0.164c-1.6-0.465-2.863-1.669-3.556-3.392  c-0.62-1.54-0.708-3.34-0.244-4.939c0.689-2.373,2.664-4.482,4.929-5.273l17.585-9.225c0.945-0.521,1.891-0.778,2.874-0.778  c0.602,0,1.215,0.093,1.875,0.284c3.46,1.005,6.573,4.232,5.568,7.693l-25.509,87.834  C242.801,182.045,240.476,183.458,237.269,183.458z" fill="#000000" data-original="#000000" class=""></path> <path xmlns="http://www.w3.org/2000/svg" d="M112.272,441.377c-3.067,0-6.592-1.633-7.081-4.66l-2.14-13.23c-1.89-11.688,8.477-22.182,18.504-32.329  c9.737-9.855,18.934-19.163,17.337-29.031c-0.914-5.651-5.293-11.352-13.013-11.352c-0.928,0-1.899,0.081-2.888,0.241  c-3.729,0.603-6.705,2.157-8.606,4.494c-2.098,2.578-2.823,5.973-2.157,10.09c0.512,3.166-2.185,6.964-7.583,7.837  c-0.585,0.094-1.149,0.142-1.676,0.142c-4.002,0-6.464-2.677-7.319-7.958c-2.317-14.324,8.38-27.14,24.882-29.81  c1.878-0.303,3.778-0.458,5.647-0.458c15.098,0,26.783,9.527,29.077,23.705c2.822,17.45-10.753,30.667-21.661,41.286  c-7.884,7.676-14.693,14.305-13.705,20.418l0.679,4.196l39.112-6.327c0.225-0.037,0.454-0.054,0.683-0.054  c2.927,0,5.673,2.804,6.252,6.383c0.637,3.943-1.527,7.977-4.542,8.465l-48.554,7.854  C113.124,441.344,112.704,441.376,112.272,441.377z" fill="#000000" data-original="#000000" class=""></path> <path xmlns="http://www.w3.org/2000/svg" d="M387.913,433.727c-10.01,0-18.323-2.885-24.04-8.342c-4.762-4.546-7.494-10.733-7.494-16.974  c0-5.26,2.106-7.217,7.769-7.217c6.188,0,8.598,1.83,8.598,6.526c0,5.486,4.732,11.021,15.304,11.021  c11.018,0,15.719-4.825,15.719-16.133v-2.625c0-9.461-5.187-14.06-15.857-14.06c-3.514,0-5.697-2.606-5.697-6.802  c0-4.281,2.183-6.94,5.697-6.94c8.025,0,13.37-2.415,13.37-14.199c0-9.15-3.953-13.231-12.817-13.231  c-11.05,0-13.37,5.618-13.37,10.33c0,4.605-2.66,6.94-7.907,6.94c-6.75,0-8.598-1.67-8.598-7.769  c0-9.043,6.321-24.349,30.013-24.349c19.09,0,28.77,8.611,28.77,25.592c0,10.533-3.628,18.925-9.807,22.953  c8.415,3.999,12.846,11.403,12.846,21.535v2.625C420.412,414.23,416.19,433.727,387.913,433.727z" fill="#000000" data-original="#000000" class=""></path> <path xmlns="http://www.w3.org/2000/svg" d="M283.823,263.278c-5.128,0-10.338-0.715-15.504-2.215l-117.716-34.187c-14.281-4.147-26.091-13.608-33.256-26.638  c-7.165-13.03-8.827-28.071-4.679-42.351l13.213-45.495c1.154-3.975,5.315-6.259,9.287-5.107c3.975,1.154,6.261,5.313,5.107,9.288  l-13.213,45.495c-3.031,10.435-1.816,21.426,3.42,30.948c5.236,9.522,13.866,16.435,24.302,19.466l117.715,34.187  c21.541,6.257,44.158-6.179,50.415-27.722l34.188-117.716c3.03-10.436,1.816-21.426-3.42-30.949  c-5.236-9.522-13.867-16.435-24.302-19.465L211.664,16.629c-10.437-3.031-21.427-1.816-30.949,3.42S164.28,33.915,161.25,44.351  l-11.098,38.211c-1.154,3.975-5.314,6.264-9.287,5.107c-3.975-1.154-6.262-5.313-5.107-9.287l11.098-38.211  c4.147-14.28,13.607-26.091,26.638-33.256s28.071-8.828,42.352-4.679l117.716,34.187c14.281,4.147,26.091,13.607,33.256,26.638  c7.165,13.03,8.827,28.071,4.68,42.352l-34.189,117.715C330.247,247.441,307.957,263.278,283.823,263.278z" fill="#000000" data-original="#000000" class=""></path> <path xmlns="http://www.w3.org/2000/svg" d="M81.78,511.999c-11.596,0-22.868-3.62-32.457-10.538c-12.059-8.701-20.008-21.577-22.382-36.257l-7.461-46.125  c-0.661-4.086,2.116-7.934,6.202-8.596c4.084-0.663,7.935,2.115,8.596,6.202l7.461,46.125c1.735,10.727,7.544,20.137,16.356,26.495  c8.813,6.358,19.573,8.905,30.301,7.169L209.403,476.9c10.727-1.735,20.137-7.544,26.495-16.356  c6.358-8.812,8.904-19.573,7.169-30.3l-19.574-121.008c-3.581-22.145-24.511-37.244-46.656-33.664L55.829,295.147  c-10.727,1.735-20.137,7.544-26.495,16.356c-6.358,8.813-8.904,19.573-7.169,30.301l6.524,40.335  c0.661,4.086-2.116,7.934-6.202,8.596c-4.083,0.657-7.935-2.116-8.596-6.202l-6.524-40.335c-2.374-14.68,1.11-29.406,9.811-41.465  s21.577-20.008,36.257-22.382l121.007-19.574c30.303-4.899,58.946,15.764,63.847,46.068l19.574,121.008  c2.374,14.68-1.11,29.405-9.811,41.465c-8.701,12.059-21.577,20.008-36.257,22.382L90.788,511.272  C87.78,511.758,84.769,511.999,81.78,511.999z" fill="#000000" data-original="#000000" class=""></path> <path xmlns="http://www.w3.org/2000/svg" d="M449.686,498.776h-122.58c-30.698,0-55.672-24.974-55.672-55.671v-46.7c0-4.139,3.356-7.495,7.495-7.495  s7.495,3.356,7.495,7.495v46.7c0,22.432,18.25,40.682,40.682,40.682h122.58c22.433,0,40.682-18.25,40.682-40.682v-122.58  c0-22.433-18.25-40.682-40.682-40.682h-122.58c-22.433,0-40.682,18.25-40.682,40.682v40.904c0,4.139-3.356,7.495-7.495,7.495  s-7.495-3.356-7.495-7.495v-40.904c0-30.698,24.974-55.672,55.672-55.672h122.58c30.698,0,55.672,24.974,55.672,55.672v122.58  C505.358,473.802,480.384,498.776,449.686,498.776z" fill="#000000" data-original="#000000" class=""></path> <g xmlns="http://www.w3.org/2000/svg"> </g> <g xmlns="http://www.w3.org/2000/svg"> </g> <g xmlns="http://www.w3.org/2000/svg"> </g> <g xmlns="http://www.w3.org/2000/svg"> </g> <g xmlns="http://www.w3.org/2000/svg"> </g> <g xmlns="http://www.w3.org/2000/svg"> </g> <g xmlns="http://www.w3.org/2000/svg"> </g> <g xmlns="http://www.w3.org/2000/svg"> </g> <g xmlns="http://www.w3.org/2000/svg"> </g> <g xmlns="http://www.w3.org/2000/svg"> </g> <g xmlns="http://www.w3.org/2000/svg"> </g> <g xmlns="http://www.w3.org/2000/svg"> </g> <g xmlns="http://www.w3.org/2000/svg"> </g> <g xmlns="http://www.w3.org/2000/svg"> </g> <g xmlns="http://www.w3.org/2000/svg"> </g> </g></svg>