<svg height="512pt" viewBox="0 -22 512.00353 512" width="512pt" xmlns="http://www.w3.org/2000/svg"><path d="m338.8125 356.988281h-165.617188c-22.308593 0-40.394531-18.085937-40.394531-40.394531v-165.617188c0-22.308593 18.085938-40.394531 40.394531-40.394531h165.617188c22.308594 0 40.394531 18.085938 40.394531 40.394531v165.617188c0 22.308594-18.085937 40.394531-40.394531 40.394531zm0 0" fill="#8fe7ff"/><path d="m355.976562 114.410156c1.949219 4.734375 3.03125 9.917969 3.03125 15.359375v165.617188c0 22.308593-18.085937 40.394531-40.394531 40.394531h-165.617187c-6.136719 0-11.953125-1.375-17.164063-3.828125 6.046875 14.691406 20.492188 25.035156 37.363281 25.035156h165.617188c22.308594 0 40.394531-18.085937 40.394531-40.394531v-165.617188c0-16.167968-9.503906-30.113281-23.230469-36.566406zm0 0" fill="#53daf9"/><path d="m379.207031 276.199219-70.691406-79.777344-70.6875 79.777344-42.414063-39.382813-62.613281 59.582032v20.195312c0 22.308594 18.085938 40.394531 40.394531 40.394531h165.617188c22.308594 0 40.394531-18.085937 40.394531-40.394531zm0 0" fill="#5aff6a"/><path d="m359.007812 295.386719c0 22.308593-18.082031 40.394531-40.394531 40.394531h-165.617187c-6.136719 0-11.953125-1.375-17.164063-3.824219 6.046875 14.6875 20.492188 25.03125 37.363281 25.03125h165.617188c22.308594 0 40.394531-18.082031 40.394531-40.394531v-40.394531l-20.199219-22.792969zm0 0" fill="#35ef43"/><path d="m207.53125 165.113281c0 11.15625-9.042969 20.199219-20.199219 20.199219-11.152343 0-20.195312-9.042969-20.195312-20.199219 0-11.152343 9.042969-20.195312 20.195312-20.195312 11.15625 0 20.199219 9.042969 20.199219 20.195312zm0 0" fill="#fff148"/><path d="m478.171875 133.808594v-53.523438c0-40.15625-32.550781-72.707031-72.707031-72.707031h-149.460938v40.394531h141.378906c22.3125 0 40.394532 18.082032 40.394532 40.390625v45.445313h-26.253906l46.453124 71.699218 46.453126-71.699218zm0 0" fill="#d8d8d8"/><path d="m463.023438 80.285156v43.425782c0 5.578124 4.523437 10.097656 10.101562 10.097656h5.046875v-53.523438c0-40.15625-32.550781-72.707031-72.707031-72.707031h-15.148438c40.15625 0 72.707032 32.550781 72.707032 72.707031zm0 0" fill="#bababa"/><path d="m489.28125 133.808594-38.878906 60.011718 7.574218 11.6875 46.453126-71.699218zm0 0" fill="#bababa"/><path d="m33.832031 333.761719v53.523437c0 40.15625 32.554688 72.710938 72.710938 72.710938h149.460937v-40.394532h-141.382812c-22.308594 0-40.394532-18.085937-40.394532-40.394531v-45.445312h26.257813l-46.453125-71.699219-46.453125 71.699219zm0 0" fill="#d8d8d8"/><g fill="#bababa"><path d="m83.316406 333.761719h17.167969l-46.453125-71.699219-8.582031 13.25zm0 0"/><path d="m74.226562 379.207031v-45.445312h-7.066406c-5.578125 0-10.101562 4.519531-10.101562 10.097656v35.347656c0 22.308594 18.085937 40.394531 40.394531 40.394531h17.167969c-22.308594 0-40.394532-18.085937-40.394532-40.394531zm0 0"/><path d="m238.835938 419.601562h17.167968v40.394532h-17.167968zm0 0"/></g><path d="m338.8125 103.007812h-23.226562c-4.183594 0-7.574219 3.390626-7.574219 7.574219 0 4.183594 3.390625 7.574219 7.574219 7.574219h23.226562c18.097656 0 32.820312 14.722656 32.820312 32.820312v105.253907l-57.449218-64.832031c-1.433594-1.621094-3.5-2.550782-5.667969-2.550782s-4.230469.925782-5.667969 2.550782l-65.550781 73.976562-36.730469-34.109375c-2.933594-2.722656-7.476562-2.695313-10.375.0625l-49.816406 47.40625v-127.757813c0-18.097656 14.722656-32.820312 32.820312-32.820312h107.046876c4.179687 0 7.570312-3.390625 7.570312-7.574219 0-4.183593-3.390625-7.574219-7.570312-7.574219h-107.046876c-26.449218 0-47.96875 21.519532-47.96875 47.96875v165.617188c0 26.449219 21.519532 47.96875 47.96875 47.96875h165.617188c26.449219 0 47.96875-21.519531 47.96875-47.96875v-165.617188c0-26.449218-21.519531-47.96875-47.96875-47.96875zm32.820312 213.585938c0 18.097656-14.722656 32.820312-32.820312 32.820312h-165.617188c-18.097656 0-32.820312-14.722656-32.820312-32.820312v-16.949219l55.097656-52.433593 37.199219 34.539062c1.496094 1.390625 3.492187 2.109375 5.523437 2.015625 2.035157-.097656 3.945313-1.015625 5.296876-2.542969l65.023437-73.382812 63.117187 71.234375zm0 0"/><path d="m159.5625 165.113281c0 15.316407 12.457031 27.773438 27.769531 27.773438s27.769531-12.457031 27.769531-27.773438c0-15.3125-12.457031-27.769531-27.769531-27.769531s-27.769531 12.457031-27.769531 27.769531zm40.394531 0c0 6.960938-5.664062 12.625-12.625 12.625-6.957031 0-12.621093-5.664062-12.621093-12.625 0-6.957031 5.664062-12.621093 12.621093-12.621093 6.960938 0 12.625 5.664062 12.625 12.621093zm0 0"/><path d="m511.082031 130.191406c-1.324219-2.4375-3.878906-3.957031-6.652343-3.957031h-18.683594v-45.949219c0-44.269531-36.015625-80.285156-80.28125-80.285156h-38.375c-4.183594 0-7.574219 3.394531-7.574219 7.574219 0 4.183593 3.390625 7.574219 7.574219 7.574219h38.375c35.914062 0 65.132812 29.222656 65.132812 65.136718v53.523438c0 4.183594 3.394532 7.574218 7.574219 7.574218h12.324219l-32.519532 50.195313-32.523437-50.195313h12.324219c4.183594 0 7.574218-3.390624 7.574218-7.574218v-45.441406c0-26.453126-21.519531-47.96875-47.96875-47.96875h-133.804687v-25.246094h68.164063c4.183593 0 7.574218-3.394532 7.574218-7.574219 0-4.183594-3.390625-7.57421875-7.574218-7.57421875h-75.738282c-4.183594 0-7.574218 3.39062475-7.574218 7.57421875v40.394531c0 4.179688 3.390624 7.570313 7.574218 7.570313h141.378906c18.097657 0 32.824219 14.726562 32.824219 32.824219v37.867187h-18.683593c-2.777344 0-5.328126 1.519531-6.652344 3.957031-1.328125 2.4375-1.210938 5.40625.296875 7.738282l46.453125 71.699218c1.394531 2.15625 3.789062 3.457032 6.355468 3.457032 2.570313 0 4.960938-1.300782 6.359376-3.457032l46.453124-71.699218c1.503907-2.332032 1.621094-5.300782.292969-7.738282zm0 0"/><path d="m256.003906 412.027344h-141.382812c-18.097656 0-32.820313-14.722656-32.820313-32.820313v-37.871093h18.683594c2.773437 0 5.328125-1.519532 6.652344-3.957032s1.210937-5.40625-.296875-7.734375l-46.453125-71.703125c-1.398438-2.152344-3.789063-3.453125-6.359375-3.453125-2.566406 0-4.960938 1.300781-6.355469 3.453125l-46.453125 71.703125c-1.511719 2.328125-1.625 5.296875-.300781 7.734375 1.328125 2.4375 3.878906 3.957032 6.65625 3.957032h18.679687v45.949218c0 44.269532 36.015625 80.285156 80.285156 80.285156h33.324219c4.183594 0 7.574219-3.390624 7.574219-7.574218s-3.390625-7.574219-7.574219-7.574219h-33.320312c-35.914063 0-65.136719-29.222656-65.136719-65.136719v-53.523437c0-4.183594-3.390625-7.574219-7.574219-7.574219h-12.324219l32.523438-50.195312 32.523438 50.195312h-12.328126c-4.179687 0-7.570312 3.390625-7.570312 7.574219v45.445312c0 26.449219 21.515625 47.964844 47.964844 47.964844h133.808594v25.25h-73.214844c-4.183594 0-7.574219 3.390625-7.574219 7.574219s3.390625 7.574218 7.574219 7.574218h80.789062c4.183594 0 7.574219-3.390624 7.574219-7.574218v-40.394532c0-4.183593-3.390625-7.574218-7.574219-7.574218zm0 0"/></svg>