<svg xmlns="http://www.w3.org/2000/svg" version="1.1" xmlns:xlink="http://www.w3.org/1999/xlink" xmlns:svgjs="http://svgjs.com/svgjs" width="512" height="512" x="0" y="0" viewBox="0 0 511.995 511.995" style="enable-background:new 0 0 512 512" xml:space="preserve" class=""><g><path xmlns="http://www.w3.org/2000/svg" d="m353.408 116.3h-73.5c-37.73-41.26-19.28-84.24 10.69-71.41 0 0-2.58-37.01 25.63-37.38.14-.01.28-.01.43-.01 28.67 0 26.06 37.39 26.06 37.39 29.98-12.83 48.42 30.15 10.69 71.41z" fill="#eadfda" data-original="#eadfda"></path><path xmlns="http://www.w3.org/2000/svg" d="m311.408 116.3h-31.5c-37.73-41.26-19.28-84.24 10.69-71.41 0 0-2.58-37.01 25.63-37.38-19.79 1.07-10.07 75.84-4.82 108.79z" fill="#c6beb9" data-original="#c6beb9"></path><path xmlns="http://www.w3.org/2000/svg" d="m471.979 290.594c0-85.781-69.539-186.485-155.32-186.485s-155.319 100.705-155.319 186.485 69.539 124.154 155.32 124.154 155.319-38.373 155.319-124.154z" fill="#eadfda" data-original="#eadfda"></path><path xmlns="http://www.w3.org/2000/svg" d="m316.658 414.75c-85.78 0-155.32-38.38-155.32-124.16s69.54-186.48 155.32-186.48c-43.17 0-78.16 100.7-78.16 186.48s34.99 124.16 78.16 124.16z" fill="#c6beb9" data-original="#c6beb9"></path><path xmlns="http://www.w3.org/2000/svg" d="m489.551 365.526h-.009l-128.995 103.472c-10.601 8.505-24.203 12.378-37.703 10.73l-173.856-21.158-46.324 17.135c-24.885-25.592-14.659-107.937-14.659-107.937l11.032-3.019c-.957-14.741 5.995-29.379 18.899-37.754 1.423-.932 2.915-1.777 4.485-2.545l74.551-36.408 38.341-18.726c2.088-1.018 4.218-1.82 6.383-2.407 16.026-4.39 33.424 2.657 41.627 17.769 9.307 17.156 3.442 38.599-13.301 48.631l-61.975 37.142 104.292 18.165c12.55 2.182 25.463-.457 36.158-7.401l103.722-67.331c13.913-9.04 32.424-5.9 42.593 7.22 2.631 3.398 4.477 7.168 5.555 11.084 3.261 11.903-.594 25.135-10.816 33.338z" fill="#f1d0a5" data-original="#f1d0a5"></path><path xmlns="http://www.w3.org/2000/svg" d="m322.56 451.937c-71.422 9.277-120.661-32.605-150.451-72.008-14.771-19.538-9.791-47.483 10.83-60.701 71.921-46.102 90.524-44.408 100.383-34.549-8.203-15.112-25.601-22.159-41.627-17.769-2.165.587-4.296 1.389-6.383 2.407l-38.341 18.726-60.425 29.51s-.006.01-.007.012l-14.118 6.887c-15.759 7.694-24.445 23.927-23.384 40.299l-11.032 3.019s-10.226 82.345 14.659 107.937l46.324-17.135 173.857 21.158c13.499 1.647 27.102-2.225 37.703-10.73l128.995-103.472c-44.577-12.095-118.878 79.051-166.983 86.409z" fill="#f1b986" data-original="#f1b986"></path><ellipse xmlns="http://www.w3.org/2000/svg" cx="63.648" cy="430.951" fill="#df6857" rx="46.558" ry="93.86" transform="matrix(.943 -.333 .333 .943 -139.944 45.828)" data-original="#df6857" class=""></ellipse><path xmlns="http://www.w3.org/2000/svg" d="m116.801 482.56c-19.07 11.91-39.76 19.22-62.08 21.94-4.43-10.66-8.7-21.37-12.82-32.13 23.25-2.87 44.84-10.42 64.77-22.66 3.53 10.9 6.91 21.85 10.13 32.85z" fill="#da387d" data-original="#da387d"></path><circle xmlns="http://www.w3.org/2000/svg" cx="135.803" cy="154.336" fill="#df6857" r="120.966" data-original="#df6857" class=""></circle><path xmlns="http://www.w3.org/2000/svg" d="m82.508 239.872c19.51 19.51 44.03 30.96 69.41 34.35-36.08 4.83-73.92-6.62-101.65-34.35-47.24-47.24-47.24-123.83 0-171.07 27.73-27.73 65.57-39.18 101.65-34.35-25.38 3.39-49.9 14.84-69.41 34.35-47.24 47.24-47.24 123.83 0 171.07z" fill="#da387d" data-original="#da387d"></path><path xmlns="http://www.w3.org/2000/svg" d="m507.6 330.188c-1.371-4.961-3.678-9.561-6.862-13.677-5.596-7.22-13.344-11.978-21.722-14.034.296-3.906.463-7.875.463-11.886 0-36.5-11.808-75.638-33.246-110.203-2.184-3.521-6.81-4.603-10.327-2.42-3.521 2.183-4.604 6.807-2.421 10.327 19.697 31.756 30.994 69.042 30.994 102.297 0 3.753-.16 7.461-.444 11.099-5.537.764-10.971 2.704-15.897 5.905l-103.718 67.327c-9.138 5.927-20.071 8.167-30.793 6.303l-84.433-14.702 44.681-26.785c20.251-12.133 27.295-37.891 16.037-58.641-9.785-18.032-30.427-26.844-50.178-21.43-2.63.715-5.226 1.693-7.716 2.909l-63.147 30.843c-.018-.942-.034-1.885-.034-2.83 0-3.98.168-8.063.484-12.189 21.48-5.766 41.173-17.078 57.321-33.227 24.264-24.264 37.626-56.524 37.626-90.839 0-9.339-.998-18.524-2.927-27.439 17.934-10.138 36.518-15.287 55.317-15.287 35.7 0 71.178 18.898 99.899 53.214 1.483 1.772 3.611 2.687 5.755 2.687 1.698 0 3.406-.574 4.81-1.749 3.177-2.658 3.597-7.389.938-10.565-17.627-21.061-37.724-36.839-59.025-46.686 6.72-10.109 10.997-20.663 12.474-30.948 1.771-12.333-.573-23.529-6.6-31.527-6.073-8.061-15.155-11.811-25.018-10.752-.09-.845-.199-1.721-.332-2.622-1.448-9.821-4.842-17.651-10.086-23.275-5.727-6.14-13.616-9.386-22.815-9.386s-17.088 3.246-22.815 9.386c-5.244 5.623-8.638 13.454-10.085 23.275-.133.9-.242 1.777-.332 2.621-9.869-1.058-18.939 2.694-25.013 10.752-6.027 7.998-8.373 19.194-6.603 31.527 1.476 10.29 5.756 20.848 12.48 30.961-2.382 1.107-4.756 2.279-7.116 3.538-6.279-18.072-16.605-34.637-30.532-48.563-24.264-24.264-56.524-37.627-90.839-37.627s-66.575 13.363-90.84 37.627c-24.263 24.264-37.626 56.524-37.626 90.839s13.363 66.575 37.627 90.839c24.265 24.264 56.525 37.627 90.84 37.627 6.172 0 12.277-.439 18.282-1.29-.162 3.061-.248 6.095-.248 9.078 0 3.361.116 6.709.325 10.014l-35.01 17.1c-1.82.881-3.61 1.896-5.296 3-13.172 8.55-21.376 22.857-22.314 38.336l-9.136 2.531c-.958-2.344-1.923-4.692-2.9-7.044-1.291-3.107-4.503-4.976-7.833-4.567-23.291 2.838-45.211 10.584-65.151 23.021-2.855 1.781-4.175 5.245-3.229 8.474 12.499 42.617 27.472 84.983 44.502 125.92 1.174 2.822 3.924 4.62 6.921 4.619.302 0 .606-.018.911-.055 23.317-2.843 45.235-10.589 65.146-23.023 2.852-1.781 4.17-5.242 3.225-8.469-.408-1.393-.828-2.787-1.241-4.181l27.132-10.036 172.042 20.94c2.312.282 4.629.422 6.942.422 13.127 0 26.082-4.485 36.371-12.746l128.76-103.285c.081-.06.161-.122.24-.185 12.267-9.844 17.511-26.004 13.355-41.188zm-237.209-275.126c3.919-5.199 10.046-6.363 17.255-3.277 2.404 1.029 5.168.732 7.298-.782s3.318-4.028 3.136-6.635c-.011-.163-.924-16.54 6.732-24.75 2.898-3.108 6.773-4.618 11.846-4.618 5.059 0 8.924 1.501 11.818 4.588 6.417 6.845 7.055 20.222 6.761 24.78-.183 2.607 1.006 5.121 3.136 6.635 2.13 1.515 4.895 1.811 7.297.782 7.213-3.086 13.341-1.923 17.26 3.277 6.9 9.157 6 28.085-8.212 47.788-12.463-4.112-25.227-6.24-38.06-6.24-12.856 0-25.58 2.094-38.067 6.228-14.203-19.698-15.099-38.62-8.2-47.776zm-214.82 179.506c-21.432-21.431-33.234-49.925-33.234-80.232s11.803-58.802 33.234-80.233 49.925-33.233 80.232-33.233 58.802 11.802 80.231 33.233c14.209 14.209 24.18 31.524 29.29 50.412.076.452.191.901.353 1.341 2.365 9.19 3.59 18.74 3.59 28.479 0 30.308-11.802 58.802-33.233 80.232-21.43 21.431-49.924 33.233-80.231 33.233s-58.801-11.801-80.232-33.232zm429.486 124.944c-.07.053-.141.107-.21.162l-128.992 103.473c-8.97 7.202-20.668 10.532-32.108 9.133l-173.85-21.16c-1.188-.144-2.389-.003-3.508.411l-27.995 10.356c-5.127-16.515-10.634-33.026-16.452-49.288-1.396-3.901-5.688-5.929-9.588-4.535-3.9 1.395-5.931 5.688-4.535 9.588 7.246 20.256 14.013 40.901 20.142 61.454-15.084 8.632-31.361 14.385-48.529 17.151-15.175-36.981-28.646-75.097-40.098-113.459 15.104-8.636 31.383-14.389 48.534-17.152 1.04 2.536 2.063 5.063 3.078 7.583.028.073.057.145.087.217 2.206 5.485 4.353 10.925 6.408 16.265 1.488 3.865 5.829 5.795 9.693 4.304 3.866-1.488 5.793-5.828 4.305-9.694-1.111-2.887-2.254-5.807-3.411-8.742l13.015-3.606c3.425-.949 5.713-4.17 5.482-7.715-.807-12.376 5.133-24.243 15.524-30.989 1.173-.769 2.397-1.463 3.662-2.075l112.889-55.139c1.642-.802 3.347-1.445 5.083-1.917 13.014-3.566 26.601 2.238 33.045 14.113 7.414 13.665 2.774 30.629-10.564 38.621l-61.97 37.15c-2.688 1.611-4.09 4.723-3.518 7.803.573 3.081 3.001 5.48 6.088 6.018l104.292 18.16c14.461 2.512 29.206-.507 41.528-8.499l103.723-67.332c4.224-2.745 8.955-4.019 13.618-3.964.002 0 .004.001.007.001.317.04.633.059.945.059.139 0 .277-.011.415-.019 6.697.46 13.135 3.7 17.585 9.443 1.98 2.561 3.415 5.416 4.259 8.471 2.55 9.316-.62 19.236-8.079 25.349z" fill="#000000" data-original="#000000" class=""></path><path xmlns="http://www.w3.org/2000/svg" d="m226.993 322.921c3.638 5.433 9.598 8.414 15.739 8.414 3.048 0 6.141-.735 9.016-2.268l9.297-4.958c3.655-1.949 5.037-6.492 3.088-10.147-1.948-3.655-6.49-5.038-10.146-3.088l-9.297 4.958c-1.817.968-4.112.414-5.233-1.257-6.23-9.304-8.181-18.798-8.214-18.962-.79-4.057-4.729-6.709-8.774-5.931-4.068.781-6.733 4.711-5.952 8.779.095.505 2.461 12.492 10.476 24.46z" fill="#000000" data-original="#000000" class=""></path><path xmlns="http://www.w3.org/2000/svg" d="m82.875 465.95c-1.251-2.955-4.267-4.844-7.48-4.61-3.138.229-5.821 2.456-6.668 5.476-1.826 6.504 5.559 11.884 11.232 8.332 3.034-1.9 4.308-5.891 2.916-9.198z" fill="#000000" data-original="#000000" class=""></path><path xmlns="http://www.w3.org/2000/svg" d="m109.178 225.986c-.968 0-1.951-.188-2.899-.586-3.819-1.603-5.616-5.999-4.014-9.818l55.024-131.112c1.604-3.82 6-5.615 9.818-4.013 3.819 1.603 5.616 5.999 4.014 9.818l-55.024 131.111c-1.206 2.871-3.99 4.6-6.919 4.6z" fill="#000000" data-original="#000000" class=""></path><path xmlns="http://www.w3.org/2000/svg" d="m98.647 145.267c-17.542 0-31.813-16.039-31.813-35.752s14.271-35.752 31.813-35.752c17.541 0 31.813 16.039 31.813 35.752s-14.272 35.752-31.813 35.752zm0-56.505c-9.271 0-16.813 9.31-16.813 20.752s7.543 20.752 16.813 20.752 16.813-9.31 16.813-20.752-7.542-20.752-16.813-20.752z" fill="#000000" data-original="#000000" class=""></path><path xmlns="http://www.w3.org/2000/svg" d="m172.96 234.91c-17.541 0-31.813-16.039-31.813-35.752 0-19.714 14.271-35.753 31.813-35.753s31.813 16.039 31.813 35.753c-.001 19.713-14.272 35.752-31.813 35.752zm0-56.505c-9.271 0-16.813 9.31-16.813 20.753s7.542 20.752 16.813 20.752 16.813-9.31 16.813-20.752c-.001-11.444-7.543-20.753-16.813-20.753z" fill="#000000" data-original="#000000" class=""></path><path xmlns="http://www.w3.org/2000/svg" d="m381.318 238.746c-3.269-1.155-6.281-2.262-9.064-3.33v-45.913c8.367 1.462 13.385 5.78 13.753 6.106 3.047 2.768 7.76 2.564 10.556-.467 2.809-3.045 2.617-7.79-.428-10.598-.513-.473-9.388-8.46-23.881-10.198v-10.135c0-4.142-3.357-7.5-7.5-7.5s-7.5 3.358-7.5 7.5v10.731c-1.701.332-3.441.752-5.228 1.29-12.413 3.739-21.692 14.38-24.216 27.77-2.291 12.158 1.569 23.855 10.074 30.526 4.833 3.791 10.908 7.26 19.369 10.964v57.088c-8.214-.378-13.36-1.972-22.25-7.787-3.468-2.267-8.113-1.296-10.382 2.171-2.268 3.466-1.296 8.115 2.171 10.382 11.832 7.74 19.767 9.796 30.461 10.234v11.317c0 4.142 3.357 7.5 7.5 7.5s7.5-3.358 7.5-7.5v-11.855c20.399-3.401 32.304-19.949 34.9-35.392 3.256-19.364-6.885-36.206-25.835-42.904zm-34.176-16.02c-4.082-3.201-5.841-9.311-4.591-15.945 1.161-6.165 5.397-13.654 13.801-16.186.304-.092.601-.168.901-.251v38.584c-4.174-2.102-7.473-4.133-10.111-6.202zm45.219 56.438c-1.577 9.383-8.424 19.391-20.107 22.522v-50.258c1.317.48 2.663.965 4.064 1.461 17.92 6.334 16.811 21.712 16.043 26.275z" fill="#000000" data-original="#000000" class=""></path></g></svg>