<svg xmlns="http://www.w3.org/2000/svg" version="1.1" xmlns:xlink="http://www.w3.org/1999/xlink" xmlns:svgjs="http://svgjs.com/svgjs" width="512" height="512" x="0" y="0" viewBox="0 0 512 512" style="enable-background:new 0 0 512 512" xml:space="preserve" class=""><g><g xmlns="http://www.w3.org/2000/svg"><g><path d="m37.5 374.121 213.879-.003 223.121-91.888v-234.109c0-5.523-4.477-10-10-10l-427-.001c-5.523 0-19.364 4.476-19.364 9.999v316c0 5.522 13.841 10.002 19.364 10.002z" fill="#30aee5" data-original="#30aee5" class=""></path><path d="m474.5 374.121v-91.891h-189.146c-18.764 0-33.975 15.211-33.975 33.975v57.914z" fill="#239ee2" data-original="#239ee2"></path><path d="m17.5 374.121c-5.523 0-10-4.477-10-10v-316c0-5.53 4.48-10 10-10l20-.001v336.001z" fill="#239ee2" data-original="#239ee2"></path><path d="m310.5 473.881h184c5.523 0 10-4.477 10-10v-142.53c0-5.523-4.477-10-10-10l-184-.001c-5.523 0-10 4.477-10 10v142.531c0 5.523 4.477 10 10 10z" fill="#9ae69d" data-original="#9ae69d"></path><path d="m310.5 473.881v-162.53h-20c-5.52 0-10 4.47-10 10v142.53c0 5.52 4.48 10 10 10z" fill="#75db9e" data-original="#75db9e"></path><path d="m116 132.118h72.329c8.077 0 15.027 6.207 15.407 14.275.406 8.614-6.458 15.725-14.983 15.725h-34.125c-.891 0-1.337 1.077-.707 1.707l97.186 97.186c5.858 5.857 5.858 15.355 0 21.213-2.929 2.929-6.768 4.394-10.606 4.394s-7.678-1.465-10.606-4.394l-97.186-97.187c-.63-.63-1.707-.184-1.707.707v33.702c0 8.077-6.207 15.027-14.275 15.407-8.614.406-15.725-6.458-15.725-14.983v-72.753c-.002-8.283 6.714-14.999 14.998-14.999z" fill="#f9f8f9" data-original="#f9f8f9"></path></g><g><path d="m7.5 321.457c4.142 0 7.5 3.357 7.5 7.5v35.16c0 1.379 1.122 2.5 2.5 2.5h255.5v-45.266c0-9.649 7.851-17.5 17.5-17.5h76.989c4.142 0 7.5 3.357 7.5 7.5s-3.358 7.5-7.5 7.5h-76.989c-1.378 0-2.5 1.121-2.5 2.5v142.531c0 1.379 1.122 2.5 2.5 2.5h204c1.378 0 2.5-1.121 2.5-2.5v-142.53c0-1.379-1.122-2.5-2.5-2.5h-92.011c-4.142 0-7.5-3.357-7.5-7.5s3.358-7.5 7.5-7.5h64.511v-255.735c0-1.379-1.122-2.5-2.5-2.5h-241.755c-4.142 0-7.5-3.357-7.5-7.5s3.358-7.5 7.5-7.5h241.755c9.649 0 17.5 7.851 17.5 17.5v255.734h12.5c9.649 0 17.5 7.851 17.5 17.5v142.531c0 9.649-7.851 17.5-17.5 17.5h-204c-9.649 0-17.5-7.851-17.5-17.5v-82.266h-255.5c-9.649 0-17.5-7.851-17.5-17.5v-35.16c0-4.142 3.358-7.499 7.5-7.499z" fill="#000000" data-original="#000000"></path><path d="m17.5 30.617h170.245c4.142 0 7.5 3.357 7.5 7.5s-3.358 7.5-7.5 7.5h-170.245c-1.378 0-2.5 1.121-2.5 2.5v244.84c0 4.143-3.358 7.5-7.5 7.5s-7.5-3.357-7.5-7.5v-244.84c0-9.649 7.851-17.5 17.5-17.5z" fill="#000000" data-original="#000000"></path><path d="m225.042 224.34 31.367 31.367c4.25 4.25 6.59 9.9 6.59 15.91s-2.341 11.66-6.59 15.91c-4.25 4.249-9.9 6.59-15.91 6.59s-11.66-2.341-15.91-6.59l-86.09-86.091v18.434c0 12.406-10.093 22.5-22.5 22.5s-22.5-10.094-22.5-22.5v-72.753c0-12.406 10.093-22.5 22.5-22.5h72.753c12.407 0 22.5 10.094 22.5 22.5s-10.093 22.5-22.5 22.5h-18.432l29.861 29.861c2.929 2.93 2.929 7.678 0 10.607-2.929 2.928-7.678 2.928-10.606 0l-42.665-42.665c-2.145-2.146-2.787-5.371-1.626-8.174s3.896-4.63 6.929-4.63h36.54c4.136 0 7.5-3.364 7.5-7.5s-3.364-7.5-7.5-7.5h-72.753c-4.136 0-7.5 3.364-7.5 7.5v72.753c0 4.136 3.364 7.5 7.5 7.5s7.5-3.364 7.5-7.5v-36.54c0-3.033 1.827-5.769 4.63-6.929 2.801-1.162 6.028-.52 8.173 1.625l98.894 98.894c1.417 1.417 3.3 2.197 5.303 2.197s3.887-.78 5.303-2.197c1.417-1.416 2.197-3.3 2.197-5.303s-.78-3.887-2.197-5.303l-31.367-31.367c-2.929-2.93-2.929-7.678 0-10.607 2.929-2.927 7.678-2.927 10.606.001z" fill="#000000" data-original="#000000"></path></g></g></g></svg>