<svg xmlns="http://www.w3.org/2000/svg" version="1.1" xmlns:xlink="http://www.w3.org/1999/xlink" xmlns:svgjs="http://svgjs.com/svgjs" width="512" height="512" x="0" y="0" viewBox="0 0 511 511" style="enable-background:new 0 0 512 512" xml:space="preserve" class=""><g><g xmlns="http://www.w3.org/2000/svg"><path d="m503.5 127.5v296c0 4.42-3.58 8-8 8h-480c-4.42 0-8-3.58-8-8v-296z" fill="#ffffff" data-original="#ffffff" class=""></path><path d="m7.5 127.5h496v16h-496z" fill="#bddbff" data-original="#bddbff"></path><path d="m503.5 127.5v296c0 4.42-3.58 8-8 8h-8v-304z" fill="#bddbff" data-original="#bddbff"></path><path d="m503.5 87.5v40h-496v-40c0-4.42 3.58-8 8-8h480c4.42 0 8 3.58 8 8z" fill="#57a4ff" data-original="#57a4ff"></path><path d="m503.5 87.5v40h-16v-48h8c4.42 0 8 3.58 8 8z" fill="#006df0" data-original="#006df0" class=""></path><path d="m159.5 79.5h-144c-4.418 0-8 3.582-8 8v40h200z" fill="#006df0" data-original="#006df0" class=""></path><path d="m135.5 79.5h-120c-4.418 0-8 3.582-8 8v40h176z" fill="#ff7956" data-original="#ff7956"></path><path d="m135.5 79.5h-22l48 48h22z" fill="#ff3f62" data-original="#ff3f62"></path><g><g><path d="m39.5 96h16v15h-16z" fill="#ffffff" data-original="#ffffff" class=""></path></g><g><path d="m71.5 96h16v15h-16z" fill="#ffffff" data-original="#ffffff" class=""></path></g><g><path d="m103.5 96h16v15h-16z" fill="#ffffff" data-original="#ffffff" class=""></path></g></g><g><path d="m335.5 207.5v144c0 17.673-35.817 32-80 32s-80-14.327-80-32v-144" fill="#d7fc7e" data-original="#d7fc7e"></path><path d="m335.5 207.5v144c0 7.21-5.96 13.86-16 19.21v-163.21z" fill="#55e072" data-original="#55e072"></path><ellipse cx="255.5" cy="207.5" fill="#d7fc7e" rx="80" ry="32" data-original="#d7fc7e"></ellipse><path d="m255.5 175.5c-3.389 0-6.722.094-10 .258 39.459 1.97 70 15.425 70 31.742s-30.541 29.772-70 31.742c3.278.164 6.611.258 10 .258 44.183 0 80-14.327 80-32s-35.817-32-80-32z" fill="#55e072" data-original="#55e072"></path><g><path d="m511 263.5v-176c0-8.547-6.953-15.5-15.5-15.5h-328v15h328c.275 0 .5.225.5.5v32.5h-309.393l-48.001-48h-123.106c-8.547 0-15.5 6.953-15.5 15.5v336c0 8.547 6.953 15.5 15.5 15.5h480c8.547 0 15.5-6.953 15.5-15.5v-144h-15v144c0 .275-.225.5-.5.5h-480c-.275 0-.5-.225-.5-.5v-288.5h481v128.5zm-496-176c0-.275.225-.5.5-.5h116.894l32.999 33h-150.393z" fill="#000000" data-original="#000000" class=""></path><path d="m255.5 168c-30.761.104-85.219 7.953-87.5 39.5v144c2.466 52.656 172.458 52.733 175 0v-144c-2.303-31.553-56.682-39.386-87.5-39.5zm-72.5 62.361c3.733 2.464 8.126 4.722 13.146 6.729 26.338 10.934 69.985 12.709 99.854 5.7v32.574c-35.504 10.544-109.167 2.29-113-19.865zm0 48c3.733 2.464 8.126 4.722 13.146 6.729 26.338 10.934 69.985 12.709 99.854 5.7v32.574c-35.504 10.544-109.167 2.29-113-19.865zm0 73.139v-25.139c3.733 2.464 8.126 4.722 13.146 6.729 26.338 10.934 69.985 12.709 99.854 5.7v32.574c-35.504 10.545-109.167 2.291-113-19.864zm128 14.91v-31.878c1.311-.465 2.603-.941 3.854-1.441 5.02-2.008 9.413-4.266 13.146-6.729v25.138c0 4.631-6.079 10.232-17 14.91zm0-48v-31.878c1.311-.465 2.603-.941 3.854-1.441 5.02-2.008 9.413-4.266 13.146-6.729v25.138c0 4.631-6.079 10.232-17 14.91zm0-48v-31.878c1.311-.465 2.603-.941 3.854-1.441 5.02-2.008 9.413-4.266 13.146-6.729v25.138c0 4.631-6.079 10.232-17 14.91zm17-62.91c0 9.989-28.243 24.5-72.5 24.5s-72.5-14.511-72.5-24.5 28.243-24.5 72.5-24.5 72.5 14.511 72.5 24.5z" fill="#000000" data-original="#000000" class=""></path></g></g></g></g></svg>