<svg xmlns="http://www.w3.org/2000/svg" version="1.1" xmlns:xlink="http://www.w3.org/1999/xlink" xmlns:svgjs="http://svgjs.com/svgjs" width="512" height="512" x="0" y="0" viewBox="0 0 60 60" style="enable-background:new 0 0 512 512" xml:space="preserve" class=""><g><path xmlns="http://www.w3.org/2000/svg" d="m13.57 24.58a19.986 19.986 0 0 0 -8.56 15.45 1.01 1.01 0 0 1 -1 .97h-2a1 1 0 0 1 -1.01-1.02 28.8 28.8 0 0 1 8.49-19.48z" fill="#f44335" data-original="#f44335" class=""></path><path xmlns="http://www.w3.org/2000/svg" d="m30 12v9.63a19.518 19.518 0 0 0 -5-.63 19.905 19.905 0 0 0 -11.43 3.58l-4.08-4.08a28.9 28.9 0 0 1 20.51-8.5z" fill="#ff9801" data-original="#ff9801"></path><path xmlns="http://www.w3.org/2000/svg" d="m50.51 20.5-9.08 9.08a19.493 19.493 0 0 0 -4.21-4.44c.33-1.01.64-1.97.92-2.86a1.562 1.562 0 0 0 -2.59-1.55c-.67.65-1.4 1.36-2.15 2.11a18.59 18.59 0 0 0 -3.4-1.21v-9.63a28.9 28.9 0 0 1 20.51 8.5z" fill="#ffdf00" data-original="#ffdf00"></path><path xmlns="http://www.w3.org/2000/svg" d="m59 39.98a1 1 0 0 1 -1.01 1.02h-12.01a1 1 0 0 1 -.99-.97 19.81 19.81 0 0 0 -3.56-10.45l9.08-9.08a28.8 28.8 0 0 1 8.49 19.48z" fill="#a4c400" data-original="#a4c400"></path><path xmlns="http://www.w3.org/2000/svg" d="m50.51 20.5-1.557 1.557a28.761 28.761 0 0 1 7.047 17.923 1 1 0 0 1 -1.01 1.02h3a1 1 0 0 0 1.01-1.02 28.8 28.8 0 0 0 -8.49-19.48z" fill="#90ac00" data-original="#90ac00"></path><path xmlns="http://www.w3.org/2000/svg" d="m38.14 22.28c-.28.89-.59 1.85-.92 2.86-2.33 7.22-5.62 16.81-7.55 19.94a6.314 6.314 0 0 1 -8.62 2 6.128 6.128 0 0 1 -2.15-8.48c1.93-3.13 9.06-10.41 14.5-15.76.75-.75 1.48-1.46 2.15-2.11a1.562 1.562 0 0 1 2.59 1.55z" fill="#f44335" data-original="#f44335" class=""></path><circle xmlns="http://www.w3.org/2000/svg" cx="24.5" cy="41.5" fill="#7f8e94" r="2.5" data-original="#7f8e94"></circle><path xmlns="http://www.w3.org/2000/svg" d="m30 11a29.89 29.89 0 0 0 -30 28.944 1.958 1.958 0 0 0 .553 1.44 2.036 2.036 0 0 0 1.458.616h2a2.018 2.018 0 0 0 2-1.922 18.985 18.985 0 0 1 25.597-16.878c-5.716 5.664-11.745 11.934-13.553 14.88a6.96 6.96 0 0 0 -.856 5.349 7.208 7.208 0 0 0 3.333 4.508 7.382 7.382 0 0 0 3.816 1.063 7.224 7.224 0 0 0 6.169-3.4c1.874-3.032 4.932-11.811 7.2-18.742a18.937 18.937 0 0 1 6.273 13.209 1.993 1.993 0 0 0 1.989 1.933h12.01a2.036 2.036 0 0 0 1.457-.616 1.957 1.957 0 0 0 .554-1.439 29.89 29.89 0 0 0 -30-28.945zm-25.989 29-2.011.016a27.891 27.891 0 0 1 7.466-18.125l2.573 2.572a20.955 20.955 0 0 0 -8.028 15.537zm24.989-19.618a21.287 21.287 0 0 0 -4-.382 20.946 20.946 0 0 0 -11.3 3.293l-2.817-2.813a27.926 27.926 0 0 1 18.117-7.456zm8.184 1.595c-2.191 6.923-6.184 19.049-8.369 22.573a5.307 5.307 0 0 1 -7.252 1.67 5.225 5.225 0 0 1 -2.42-3.264 4.98 4.98 0 0 1 .613-3.828c1.6-2.608 7.458-8.89 16.494-17.687a.514.514 0 0 1 .371-.161.646.646 0 0 1 .324.1.5.5 0 0 1 .239.597zm1.2 2.82c.249-.776.489-1.526.706-2.213a2.49 2.49 0 0 0 -1.09-2.909 2.536 2.536 0 0 0 -3.143.334c-.548.534-1.111 1.085-1.679 1.643a20.8 20.8 0 0 0 -2.178-.783v-7.845a27.92 27.92 0 0 1 18.117 7.456l-7.568 7.563a20.972 20.972 0 0 0 -3.166-3.243zm7.606 15.185a20.989 20.989 0 0 0 -3.269-10.282l7.813-7.808a27.839 27.839 0 0 1 7.455 18.108z" fill="#000000" data-original="#000000"></path><path xmlns="http://www.w3.org/2000/svg" d="m24.5 38a3.5 3.5 0 1 0 3.5 3.5 3.5 3.5 0 0 0 -3.5-3.5zm0 5a1.5 1.5 0 1 1 1.5-1.5 1.5 1.5 0 0 1 -1.5 1.5z" fill="#000000" data-original="#000000"></path></g></svg>