<svg height="424pt" viewBox="0 -27 424.144 424" width="424pt" xmlns="http://www.w3.org/2000/svg"><path d="m379.246094 16.074219h-318.359375c-24.75 0-44.886719 20.136719-44.886719 44.886719v180.832031c0 24.753906 20.136719 44.894531 44.886719 44.894531h18.886719v79.273438c0 1.574218.921874 3 2.359374 3.648437.523438.234375 1.082032.351563 1.640626.351563.957031 0 1.90625-.34375 2.65625-1.007813l92.757812-82.265625h200.066406c24.75 0 44.890625-20.140625 44.890625-44.894531v-180.835938c-.007812-24.75-20.144531-44.882812-44.898437-44.882812zm0 0" fill="#e6e7e8"/><path d="m363.246094 4.070312h-318.363282c-22.582031 0-40.886718 18.3125-40.886718 40.886719v180.835938c0 22.589843 18.304687 40.894531 40.886718 40.894531h22.886719v83.273438l93.898438-83.273438h201.578125c22.585937 0 40.890625-18.304688 40.890625-40.894531v-180.835938c0-22.570312-18.304688-40.886719-40.890625-40.886719zm0 0" fill="#6dc9f7"/><path d="m193.636719 162.882812c0 4.78125-1.429688 9.894532-4.289063 15.328126-2.859375 5.4375-7.21875 10.617187-13.078125 15.542968-5.863281 4.917969-13.246093 8.882813-22.148437 11.882813-8.910156 3-18.9375 4.5-30.09375 4.5-23.71875 0-42.234375-6.914063-55.546875-20.746094-13.3125-13.828125-19.96875-32.363281-19.96875-55.613281 0-15.753906 3.042969-29.671875 9.140625-41.765625 6.089844-12.089844 14.90625-21.445313 26.4375-28.054688 11.527344-6.613281 25.308594-9.917969 41.34375-9.917969 9.933594 0 19.054687 1.457032 27.351562 4.359376 8.292969 2.910156 15.328125 6.660156 21.089844 11.253906 5.765625 4.589844 10.171875 9.492187 13.222656 14.695312 3.042969 5.203125 4.570313 10.054688 4.570313 14.554688 0 4.59375-1.710938 8.488281-5.132813 11.671875-3.421875 3.191406-7.570312 4.78125-12.441406 4.78125-3.191406 0-5.835938-.820313-7.945312-2.460938-2.109376-1.636719-4.480469-4.285156-7.101563-7.941406-4.6875-7.125-9.582031-12.46875-14.695313-16.03125-5.113281-3.566406-11.597656-5.347656-19.476562-5.347656-11.34375 0-20.484375 4.429687-27.417969 13.289062-6.941406 8.859375-10.410156 20.976563-10.410156 36.351563 0 7.222656.894531 13.851562 2.671875 19.902344 1.78125 6.046874 4.359375 11.203124 7.738281 15.46875 3.375 4.265624 7.449219 7.5 12.234375 9.703124 4.78125 2.203126 10.03125 3.304688 15.753906 3.304688 7.683594 0 14.269532-1.78125 19.753907-5.347656 5.484375-3.5625 10.335937-9 14.558593-16.308594 2.339844-4.3125 4.871094-7.683594 7.589844-10.125 2.71875-2.4375 6.046875-3.65625 9.984375-3.65625 4.6875 0 8.578125 1.78125 11.671875 5.34375 3.089844 3.554688 4.632813 7.351562 4.632813 11.382812zm0 0" fill="#fff"/><path d="m364.78125 162.882812c0 4.78125-1.429688 9.894532-4.289062 15.328126-2.859376 5.4375-7.21875 10.617187-13.082032 15.542968-5.859375 4.917969-13.242187 8.882813-22.144531 11.882813-8.910156 3-18.9375 4.5-30.09375 4.5-23.71875 0-42.234375-6.914063-55.546875-20.746094-13.3125-13.828125-19.96875-32.363281-19.96875-55.613281 0-15.753906 3.042969-29.671875 9.140625-41.765625 6.089844-12.089844 14.90625-21.445313 26.433594-28.054688 11.53125-6.613281 25.3125-9.917969 41.34375-9.917969 9.9375 0 19.058593 1.457032 27.355469 4.359376 8.292968 2.910156 15.328124 6.660156 21.089843 11.253906 5.765625 4.589844 10.171875 9.492187 13.21875 14.695312s4.574219 10.054688 4.574219 14.554688c0 4.59375-1.710938 8.488281-5.132812 11.671875-3.421876 3.191406-7.570313 4.78125-12.445313 4.78125-3.1875 0-5.835937-.820313-7.941406-2.460938-2.109375-1.636719-4.480469-4.285156-7.101563-7.941406-4.6875-7.125-9.582031-12.46875-14.695312-16.03125-5.113282-3.566406-11.601563-5.347656-19.476563-5.347656-11.34375 0-20.484375 4.429687-27.417969 13.289062-6.941406 8.859375-10.410156 20.976563-10.410156 36.351563 0 7.222656.894532 13.851562 2.671875 19.902344 1.78125 6.046874 4.359375 11.203124 7.738281 15.46875 3.375 4.265624 7.449219 7.5 12.234376 9.703124 4.78125 2.203126 10.03125 3.304688 15.753906 3.304688 7.683594 0 14.269531-1.78125 19.753906-5.347656 5.484375-3.5625 10.335938-9 14.554688-16.308594 2.339843-4.3125 4.875-7.683594 7.59375-10.125 2.71875-2.4375 6.046874-3.65625 9.984374-3.65625 4.6875 0 8.578126 1.78125 11.671876 5.34375 3.082031 3.554688 4.632812 7.351562 4.632812 11.382812zm0 0" fill="#fff"/><path d="m173.878906 81.648438c-5.761718-4.59375-12.792968-8.34375-21.089844-11.253907-8.296874-2.902343-17.417968-4.359375-27.351562-4.359375-16.035156 0-29.8125 3.304688-41.34375 9.917969-11.535156 6.609375-20.347656 15.957031-26.4375 28.054687-5.230469 10.382813-8.199219 22.121094-8.941406 35.195313.980468 20.699219 7.519531 37.460937 19.769531 50.183594 13.3125 13.832031 31.828125 20.746093 55.546875 20.746093 11.15625 0 21.183594-1.5 30.09375-4.5 8.90625-3 16.285156-6.960937 22.148438-11.886718 5.855468-4.917969 10.214843-10.097656 13.078124-15.539063 1.539063-2.925781 2.632813-5.75 3.339844-8.492187-.757812-2.144532-1.957031-4.226563-3.691406-6.226563-3.09375-3.5625-6.984375-5.34375-11.671875-5.34375-3.9375 0-7.265625 1.21875-9.984375 3.65625s-5.25 5.816407-7.589844 10.125c-4.222656 7.308594-9.074218 12.75-14.558594 16.308594-5.484374 3.566406-12.070312 5.34375-19.753906 5.34375-5.722656 0-10.96875-1.097656-15.753906-3.300781-4.78125-2.203125-8.859375-5.4375-12.234375-9.707032-3.378906-4.261718-5.957031-9.417968-7.738281-15.464843-1.777344-6.050781-2.671875-12.675781-2.671875-19.902344 0-2.132813.085937-4.1875.21875-6.195313-.136719-1.890624-.21875-3.820312-.21875-5.804687 0-15.375 3.46875-27.492187 10.410156-36.351563 6.933594-8.859374 16.078125-13.289062 27.417969-13.289062 7.875 0 14.363281 1.78125 19.476562 5.34375 5.109375 3.566406 10.003906 8.910156 14.695313 16.035156 2.625 3.65625 4.992187 6.304688 7.101562 7.941406 2.109375 1.640626 4.753907 2.460938 7.945313 2.460938 4.871094 0 9.019531-1.589844 12.441406-4.78125 1.949219-1.808594 3.28125-3.882812 4.117188-6.15625-.757813-2.589844-1.921876-5.273438-3.554688-8.070312-3.042969-5.195313-7.449219-10.09375-13.214844-14.6875zm0 0" fill="#fa759e"/><path d="m345.019531 81.648438c-5.761719-4.59375-12.796875-8.34375-21.089843-11.253907-8.296876-2.902343-17.417969-4.359375-27.355469-4.359375-16.03125 0-29.808594 3.304688-41.34375 9.917969-11.53125 6.609375-20.34375 15.957031-26.433594 28.054687-5.234375 10.382813-8.199219 22.121094-8.941406 35.195313.980469 20.699219 7.519531 37.460937 19.769531 50.183594 13.3125 13.832031 31.828125 20.746093 55.546875 20.746093 11.15625 0 21.183594-1.5 30.09375-4.5 8.90625-3 16.285156-6.960937 22.144531-11.886718 5.859375-4.917969 10.21875-10.097656 13.082032-15.539063 1.539062-2.925781 2.632812-5.75 3.339843-8.492187-.761719-2.144532-1.957031-4.226563-3.691406-6.226563-3.09375-3.5625-6.984375-5.34375-11.671875-5.34375-3.9375 0-7.265625 1.21875-9.984375 3.65625s-5.253906 5.816407-7.59375 10.125c-4.21875 7.308594-9.070313 12.75-14.554687 16.308594-5.484376 3.566406-12.070313 5.34375-19.757813 5.34375-5.71875 0-10.964844-1.097656-15.75-3.300781-4.78125-2.203125-8.859375-5.4375-12.234375-9.707032-3.378906-4.261718-5.957031-9.417968-7.738281-15.464843-1.78125-6.050781-2.671875-12.675781-2.671875-19.902344 0-2.132813.085937-4.1875.214844-6.195313-.132813-1.890624-.214844-3.820312-.214844-5.804687 0-15.375 3.46875-27.492187 10.410156-36.351563 6.933594-8.859374 16.078125-13.289062 27.417969-13.289062 7.875 0 14.363281 1.78125 19.476562 5.34375 5.109375 3.566406 10.003907 8.910156 14.695313 16.035156 2.625 3.65625 4.992187 6.304688 7.101562 7.941406 2.105469 1.640626 4.753906 2.460938 7.941406 2.460938 4.875 0 9.019532-1.589844 12.445313-4.78125 1.949219-1.808594 3.28125-3.882812 4.117187-6.15625-.757812-2.589844-1.921874-5.273438-3.558593-8.070312-3.039063-5.195313-7.441407-10.09375-13.210938-14.6875zm0 0" fill="#fa759e"/><g fill="#3a2c60"><path d="m363.246094.0703125h-318.359375c-24.75 0-44.886719 20.1367185-44.886719 44.8867185v180.832031c0 24.753907 20.136719 44.894532 44.886719 44.894532h18.886719v79.269531c0 1.574219.921874 3 2.359374 3.648437.523438.234376 1.082032.351563 1.640626.351563.957031 0 1.90625-.34375 2.65625-1.007813l92.757812-82.261718h200.066406c24.75 0 44.890625-20.140625 44.890625-44.894532v-180.832031c-.003906-24.75-20.144531-44.8867185-44.898437-44.8867185zm36.894531 225.7226565c0 20.34375-16.546875 36.894531-36.894531 36.894531h-201.582032c-.980468 0-1.921874.355469-2.65625 1.007812l-87.242187 77.367188v-74.375c0-2.207031-1.792969-4-4-4h-22.886719c-20.339844 0-36.886718-16.550781-36.886718-36.894531v-180.835938c0-20.335937 16.546874-36.886719 36.886718-36.886719h318.359375c20.339844 0 36.894531 16.550782 36.894531 36.886719v180.835938zm0 0"/><path d="m177.328125 142.148438c-4.9375 0-9.191406 1.574218-12.65625 4.675781-3.050781 2.734375-5.886719 6.5-8.386719 11.105469-3.882812 6.722656-8.34375 11.753906-13.269531 14.953124-4.796875 3.117188-10.710937 4.695313-17.578125 4.695313-5.109375 0-9.84375-.984375-14.082031-2.933594-4.179688-1.925781-7.804688-4.804687-10.765625-8.550781-3.046875-3.847656-5.414063-8.59375-7.035156-14.117188-1.667969-5.652343-2.507813-11.964843-2.507813-18.769531 0-14.390625 3.21875-25.792969 9.558594-33.882812 6.195312-7.914063 14.132812-11.757813 24.269531-11.757813 7 0 12.785156 1.558594 17.1875 4.625 4.664062 3.253906 9.253906 8.285156 13.738281 15.085938 2.875 4.007812 5.460938 6.875 7.894531 8.769531 2.820313 2.191406 6.316407 3.304687 10.402344 3.304687 5.894532 0 11-1.96875 15.167969-5.851562 4.25-3.957031 6.40625-8.867188 6.40625-14.601562 0-5.195313-1.722656-10.769532-5.121094-16.574219-3.277343-5.605469-8.050781-10.921875-14.175781-15.804688-6.09375-4.851562-13.582031-8.855469-22.261719-11.894531-8.6875-3.039062-18.335937-4.585938-28.671875-4.585938-16.664062 0-31.246094 3.511719-43.332031 10.445313-12.167969 6.976563-21.597656 16.976563-28.019531 29.722656-6.351563 12.597657-9.570313 27.257813-9.570313 43.570313 0 24.210937 7.097657 43.855468 21.085938 58.390625 14.03125 14.578125 33.6875 21.96875 58.425781 21.96875 11.535156 0 22.09375-1.585938 31.371094-4.707031 9.339844-3.148438 17.230468-7.390626 23.445312-12.613282 6.226563-5.238281 10.953125-10.863281 14.042969-16.742187 3.152344-5.988281 4.75-11.769531 4.75-17.1875 0-5-1.894531-9.714844-5.621094-14.011719-3.875-4.464844-8.820312-6.726562-14.691406-6.726562zm8.484375 34.199218c-2.605469 4.953125-6.679688 9.777344-12.113281 14.339844-5.445313 4.578125-12.464844 8.328125-20.851563 11.15625-8.453125 2.847656-18.148437 4.292969-28.816406 4.292969-22.484375 0-40.199219-6.570313-52.667969-19.515625-12.507812-12.996094-18.847656-30.773438-18.847656-52.84375 0-15.050782 2.933594-28.496094 8.710937-39.964844 5.710938-11.328125 14.070313-20.203125 24.851563-26.382812 10.867187-6.230469 24.105469-9.386719 39.359375-9.386719 9.429688 0 18.191406 1.394531 26.027344 4.136719 7.832031 2.746093 14.53125 6.3125 19.921875 10.605468 5.351562 4.261719 9.476562 8.835938 12.257812 13.582032 2.667969 4.566406 4.023438 8.78125 4.023438 12.535156 0 3.46875-1.261719 6.328125-3.855469 8.746094-2.679688 2.496093-5.859375 3.707031-9.71875 3.707031-2.292969 0-4.089844-.527344-5.492188-1.621094-1.796874-1.394531-3.917968-3.789063-6.214843-6.988281-4.949219-7.515625-10.246094-13.273438-15.75-17.109375-5.773438-4.023438-13.09375-6.066407-21.765625-6.066407-12.582032 0-22.867188 4.988282-30.570313 14.824219-7.472656 9.539063-11.257812 22.597657-11.257812 38.820313 0 7.570312.953125 14.644531 2.832031 21.027344 1.917969 6.511718 4.753906 12.167968 8.4375 16.820312 3.75 4.75 8.359375 8.402344 13.695312 10.859375 5.289063 2.433594 11.152344 3.671875 17.425782 3.671875 8.4375 0 15.824218-2.019531 21.933594-5.992188 5.992187-3.894531 11.324218-9.835937 15.894531-17.757812 2.109375-3.886719 4.382812-6.9375 6.746093-9.054688 1.980469-1.773437 4.367188-2.636718 7.316407-2.636718 3.550781 0 6.300781 1.257812 8.652343 3.964844 2.464844 2.839843 3.664063 5.707031 3.664063 8.765624 0 4.105469-1.292969 8.636719-3.828125 13.464844zm0 0"/><path d="m348.46875 142.148438c-4.9375 0-9.191406 1.574218-12.65625 4.675781-3.050781 2.734375-5.886719 6.5-8.386719 11.105469-3.882812 6.722656-8.347656 11.753906-13.269531 14.953124-4.796875 3.117188-10.710938 4.695313-17.582031 4.695313-5.105469 0-9.84375-.984375-14.078125-2.933594-4.179688-1.925781-7.804688-4.804687-10.769532-8.550781-3.042968-3.847656-5.410156-8.59375-7.03125-14.117188-1.667968-5.652343-2.507812-11.964843-2.507812-18.769531 0-14.390625 3.214844-25.792969 9.554688-33.882812 6.199218-7.914063 14.136718-11.757813 24.273437-11.757813 7 0 12.785156 1.558594 17.1875 4.625 4.664063 3.253906 9.253906 8.285156 13.738281 15.085938 2.875 4.007812 5.457032 6.875 7.894532 8.769531 2.820312 2.191406 6.316406 3.304687 10.398437 3.304687 5.898437 0 11-1.96875 15.167969-5.851562 4.253906-3.957031 6.410156-8.867188 6.410156-14.601562 0-5.195313-1.722656-10.769532-5.121094-16.574219-3.28125-5.605469-8.050781-10.921875-14.175781-15.804688-6.09375-4.851562-13.582031-8.855469-22.261719-11.894531-8.691406-3.039062-18.339844-4.585938-28.675781-4.585938-16.664063 0-31.242187 3.511719-43.332031 10.445313-12.167969 6.976563-21.59375 16.976563-28.019532 29.722656-6.347656 12.597657-9.566406 27.257813-9.566406 43.570313 0 24.210937 7.097656 43.855468 21.085938 58.390625 1.535156 1.597656 4.070312 1.644531 5.65625.109375 1.59375-1.535156 1.640625-4.066406.109375-5.65625-12.507813-12.996094-18.847657-30.773438-18.847657-52.84375 0-15.050782 2.933594-28.496094 8.710938-39.964844 5.710938-11.328125 14.070312-20.203125 24.851562-26.382812 10.867188-6.230469 24.105469-9.386719 39.359376-9.386719 9.429687 0 18.191406 1.394531 26.027343 4.136719 7.832031 2.746093 14.53125 6.3125 19.921875 10.605468 5.351563 4.261719 9.476563 8.835938 12.257813 13.582032 2.667969 4.566406 4.023437 8.78125 4.023437 12.535156 0 3.46875-1.261718 6.328125-3.855468 8.746094-2.679688 2.496093-5.859376 3.707031-9.722657 3.707031-2.289062 0-4.085937-.527344-5.492187-1.621094-1.792969-1.394531-3.914063-3.789063-6.210938-6.988281-4.949218-7.515625-10.246094-13.273438-15.75-17.109375-5.773437-4.023438-13.09375-6.066407-21.765625-6.066407-12.582031 0-22.867187 4.988282-30.570312 14.824219-7.472657 9.539063-11.257813 22.597657-11.257813 38.820313 0 7.570312.953125 14.644531 2.832032 21.027344 1.917968 6.511718 4.753906 12.167968 8.4375 16.820312 3.75 4.75 8.359374 8.402344 13.695312 10.859375 5.289062 2.433594 11.152344 3.671875 17.421875 3.671875 8.441406 0 15.824219-2.019531 21.9375-5.992188 5.992187-3.894531 11.324219-9.835937 15.890625-17.757812 2.113281-3.886719 4.386719-6.9375 6.75-9.054688 1.980469-1.773437 4.367188-2.636718 7.316406-2.636718 3.550782 0 6.300782 1.257812 8.652344 3.964844 2.464844 2.839843 3.664062 5.707031 3.664062 8.765624 0 4.105469-1.289062 8.636719-3.828124 13.464844-2.605469 4.953125-6.679688 9.777344-12.113282 14.339844-5.449218 4.578125-12.464844 8.328125-20.851562 11.15625-6.929688 2.332031-14.710938 3.730469-23.136719 4.152344-2.207031.109375-3.90625 1.988281-3.796875 4.191406.105469 2.140625 1.875 3.800781 3.992188 3.800781.070312 0 .136718 0 .207031-.003906 9.152343-.457031 17.664062-1.992187 25.289062-4.558594 9.339844-3.148437 17.230469-7.390625 23.445313-12.613281 6.226562-5.238281 10.953125-10.863281 14.042968-16.742188 3.152344-5.992187 4.75-11.769531 4.75-17.1875 0-5-1.894531-9.714843-5.621093-14.011718-3.882813-4.460938-8.828125-6.722656-14.699219-6.722656zm0 0"/><path d="m280.9375 204.882812c-8.054688-1.222656-14.273438-4.082031-19.761719-6.605468-1.421875-.65625-2.800781-1.285156-4.144531-1.867188-2.027344-.871094-4.382812.070313-5.25 2.09375-.875 2.027344.0625 4.378906 2.089844 5.253906 1.285156.550782 2.601562 1.15625 3.964844 1.78125 5.671874 2.609376 12.730468 5.851563 21.898437 7.25.207031.03125.410156.042969.609375.042969 1.945312 0 3.648438-1.417969 3.949219-3.398437.332031-2.175782-1.171875-4.21875-3.355469-4.550782zm0 0"/></g></svg>