<svg xmlns="http://www.w3.org/2000/svg" version="1.1" xmlns:xlink="http://www.w3.org/1999/xlink" xmlns:svgjs="http://svgjs.com/svgjs" width="512" height="512" x="0" y="0" viewBox="0 0 512 512" style="enable-background:new 0 0 512 512" xml:space="preserve" class=""><g><path xmlns="http://www.w3.org/2000/svg" d="m271.413 307.942v-234.942c0-36.18-29.33-65.51-65.51-65.51-36.18 0-65.51 29.33-65.51 65.51v234.942c-26.523 19.92-43.683 51.631-43.683 87.355 0 60.306 48.887 109.193 109.193 109.193 60.305 0 109.193-48.887 109.193-109.193 0-35.724-17.16-67.434-43.683-87.355z" fill="#f1faff" data-original="#f1faff" class=""></path><path xmlns="http://www.w3.org/2000/svg" d="m271.413 307.942v-234.942c0-36.18-29.33-65.51-65.51-65.51-6.352 0-12.493.904-18.301 2.59 27.274 7.92 47.209 33.092 47.209 62.92v234.942c26.523 19.92 43.683 51.631 43.683 87.355 0 54.069-39.299 98.959-90.892 107.665 5.951 1.004 12.065 1.527 18.301 1.527 60.305 0 109.193-48.887 109.193-109.193 0-35.723-17.16-67.433-43.683-87.354z" fill="#dcf5ff" data-original="#dcf5ff" class=""></path><path xmlns="http://www.w3.org/2000/svg" d="m225.875 331.341v-256.612c0-11.03-8.941-19.971-19.971-19.971s-19.971 8.941-19.971 19.971v256.614c-27.444 8.779-47.027 35.134-45.45 65.838 1.716 33.407 28.88 60.429 62.295 61.982 37.602 1.748 68.636-28.22 68.636-65.437-.001-29.213-19.13-53.938-45.539-62.385z" fill="#7ba0b0" data-original="#7ba0b0"></path><path xmlns="http://www.w3.org/2000/svg" d="m225.875 321.725v-152.09h-39.943v152.094c0 5.472-3.142 10.463-8.085 12.809-22.747 10.796-38.289 34.297-37.419 61.346 1.091 33.925 28.444 61.702 62.349 63.277 37.602 1.748 68.636-28.221 68.636-65.437 0-26.171-15.354-48.74-37.54-59.229-4.916-2.324-7.998-7.332-7.998-12.77z" fill="#fa4954" data-original="#fa4954"></path><path xmlns="http://www.w3.org/2000/svg" d="m233.873 334.495c-4.916-2.324-7.999-7.332-7.999-12.77v-152.09h-39.943v147.108c0 1.272.947 14.541 7.016 17.752 21.691 11.479 37.54 33.059 37.54 59.229 0 29.023-18.873 53.637-45.016 62.241 5.489 1.815 11.294 2.918 17.305 3.197 37.602 1.748 68.636-28.221 68.636-65.438.001-26.17-15.352-48.739-37.539-59.229z" fill="#fa2a3b" data-original="#fa2a3b" class=""></path><path xmlns="http://www.w3.org/2000/svg" d="m350.728 55.26h63.149c4.142 0 7.5-3.357 7.5-7.5s-3.357-7.5-7.5-7.5h-63.149c-4.142 0-7.5 3.357-7.5 7.5s3.357 7.5 7.5 7.5z" fill="#000000" data-original="#000000" class=""></path><path xmlns="http://www.w3.org/2000/svg" d="m350.728 116.2h43.419c4.142 0 7.5-3.357 7.5-7.5 0-4.142-3.357-7.5-7.5-7.5h-43.419c-4.142 0-7.5 3.357-7.5 7.5 0 4.142 3.357 7.5 7.5 7.5z" fill="#000000" data-original="#000000" class=""></path><path xmlns="http://www.w3.org/2000/svg" d="m413.877 162.139h-63.149c-4.142 0-7.5 3.357-7.5 7.5s3.357 7.5 7.5 7.5h63.149c4.142 0 7.5-3.357 7.5-7.5s-3.358-7.5-7.5-7.5z" fill="#000000" data-original="#000000" class=""></path><path xmlns="http://www.w3.org/2000/svg" d="m350.728 238.078h43.419c4.142 0 7.5-3.357 7.5-7.5 0-4.142-3.357-7.5-7.5-7.5h-43.419c-4.142 0-7.5 3.357-7.5 7.5 0 4.142 3.357 7.5 7.5 7.5z" fill="#000000" data-original="#000000" class=""></path><path xmlns="http://www.w3.org/2000/svg" d="m413.877 284.017h-63.149c-4.142 0-7.5 3.357-7.5 7.5 0 4.142 3.357 7.5 7.5 7.5h63.149c4.142 0 7.5-3.357 7.5-7.5-.001-4.143-3.358-7.5-7.5-7.5z" fill="#000000" data-original="#000000" class=""></path><path xmlns="http://www.w3.org/2000/svg" d="m278.912 304.267v-231.26c0-40.256-32.751-73.007-73.007-73.007s-73.007 32.751-73.007 73.007v231.261c-22.622 18.141-37.548 43.654-42.177 72.247-.662 4.089 2.116 7.94 6.205 8.601 4.079.666 7.94-2.115 8.602-6.205 4.207-25.989 18.19-49.064 39.373-64.975 1.886-1.417 2.995-3.639 2.995-5.997v-234.932c0-31.985 26.022-58.007 58.008-58.007s58.007 26.022 58.007 58.007v234.933c0 2.358 1.109 4.58 2.996 5.997 25.855 19.419 40.685 49.072 40.685 81.355 0 87.029-102.561 133.301-167.908 77.175-18.213-15.643-30.344-37.233-34.157-60.792-.662-4.09-4.515-6.876-8.602-6.205-4.089.661-6.867 4.513-6.205 8.601 4.378 27.048 18.297 51.827 39.191 69.774 75.029 64.442 192.68 11.251 192.68-88.553.002-35.779-15.869-68.741-43.679-91.025z" fill="#000000" data-original="#000000" class=""></path><path xmlns="http://www.w3.org/2000/svg" d="m225.876 109.735c4.142 0 7.5-3.357 7.5-7.5v-27.5c0-15.147-12.323-27.47-27.47-27.47s-27.47 12.323-27.47 27.47v251.35c-28.582 11.598-47.044 40.225-45.439 71.475.926 18.02 8.548 35.019 21.461 47.866 28.023 27.881 73.103 28.554 101.852 1.109 14.576-13.914 22.603-32.671 22.603-52.815 0-30.013-18.083-56.538-45.537-67.64v-188.685c0-4.142-3.358-7.5-7.5-7.5s-7.5 3.357-7.5 7.5v24.744h-24.941v-87.404c0-6.876 5.594-12.47 12.471-12.47 6.876 0 12.471 5.595 12.471 12.47v27.5c-.001 4.143 3.357 7.5 7.499 7.5zm-7.5 67.404v154.2c0 3.262 2.108 6.149 5.215 7.143 24.118 7.715 40.322 29.913 40.322 55.238 0 16.006-6.379 30.91-17.96 41.965-36.05 34.412-95.471 9.869-97.976-38.895-1.352-26.318 15.197-50.295 40.244-58.307 3.106-.994 5.215-3.882 5.215-7.143v-154.201z" fill="#000000" data-original="#000000" class=""></path></g></svg>