<svg xmlns="http://www.w3.org/2000/svg" version="1.1" xmlns:xlink="http://www.w3.org/1999/xlink" xmlns:svgjs="http://svgjs.com/svgjs" width="512" height="512" x="0" y="0" viewBox="0 0 512 512" style="enable-background:new 0 0 512 512" xml:space="preserve" class=""><g><path d="m399.5 369.5-317 75v30c0 16.569 13.431 30 30 30h317l-30-135z" style="" fill="#acd5df" data-original="#acd5df"></path><path d="M369.5 369.5v45c16.569 0 30 13.431 30 30v30c0 16.569 13.431 30 30 30h30v-135h-90z" style="" fill="#9abbd0" data-original="#9abbd0"></path><path d="M459.5 7.5h-349c-16.569 0-30 13.431-30 30h62l317 60v-90z" style="" fill="#c5f3ff" data-original="#c5f3ff" class=""></path><path d="M459.5 7.5a29.854 29.854 0 0 0-15 4.023v488.953a29.854 29.854 0 0 0 15 4.023c16.569 0 30-13.431 30-30v-437c0-16.568-13.431-29.999-30-29.999z" style="" fill="#c5f3ff" data-original="#c5f3ff" class=""></path><path d="M444.5 11.523c-8.964 5.188-15 14.874-15 25.977h-287v392h223.468c8.24-9.204 20.207-15 33.532-15 16.569 0 30 13.431 30 30v30c0 11.102 6.036 20.789 15 25.977 8.964-5.188 15-14.874 15-25.977v-437c0-11.102-6.036-20.789-15-25.977z" style="" fill="#e5faff" data-original="#e5faff" class=""></path><path d="M399.5 414.5h-347c-16.569 0-30 13.431-30 30h347c0-16.569 13.431-30 30-30z" style="" fill="#c5f3ff" data-original="#c5f3ff" class=""></path><path d="M324.5 256h90v90h-90zM324.5 106h90v90h-90z" style="" fill="#ffffff" data-original="#ffffff"></path><path d="M459.5 504.5h-347c-16.569 0-30-13.431-30-30" style="stroke-width:15;stroke-linecap:round;stroke-linejoin:round;stroke-miterlimit:10;" fill="none" stroke="#000000" stroke-width="15" stroke-linecap="round" stroke-linejoin="round" stroke-miterlimit="10" data-original="#000000" class=""></path><path d="M399.5 414.5h-347c-16.569 0-30 13.431-30 30h347c0-16.569 13.431-30 30-30s30 13.431 30 30v30c0 16.569 13.431 30 30 30s30-13.431 30-30v-437c0-16.569-13.431-30-30-30s-30 13.431-30 30h-347c0-16.569 13.431-30 30-30M142.5 37.5v347M459.5 7.5h-347" style="stroke-width:15;stroke-linecap:round;stroke-linejoin:round;stroke-miterlimit:10;" fill="none" stroke="#000000" stroke-width="15" stroke-linecap="round" stroke-linejoin="round" stroke-miterlimit="10" data-original="#000000" class=""></path><path d="m354.5 301 15 15 60-60" style="stroke-width:15;stroke-linecap:round;stroke-linejoin:round;stroke-miterlimit:10;" fill="none" stroke="#000000" stroke-width="15" stroke-linecap="round" stroke-linejoin="round" stroke-miterlimit="10" data-original="#000000" class=""></path><path d="M387.074 256H324.5v90h90v-32.574M354.5 151l15 15 60-60" style="stroke-width:15;stroke-linecap:round;stroke-linejoin:round;stroke-miterlimit:10;" fill="none" stroke="#000000" stroke-width="15" stroke-linecap="round" stroke-linejoin="round" stroke-miterlimit="10" data-original="#000000" class=""></path><path d="M387.074 106H324.5v90h90v-32.574M217.5 106h77M217.5 136h77M217.5 166h77M217.5 196h77M217.5 256h77M217.5 286h77M217.5 316h77M217.5 346h77" style="stroke-width:15;stroke-linecap:round;stroke-linejoin:round;stroke-miterlimit:10;" fill="none" stroke="#000000" stroke-width="15" stroke-linecap="round" stroke-linejoin="round" stroke-miterlimit="10" data-original="#000000" class=""></path></g></svg>