<svg xmlns="http://www.w3.org/2000/svg" version="1.1" xmlns:xlink="http://www.w3.org/1999/xlink" xmlns:svgjs="http://svgjs.com/svgjs" width="512" height="512" x="0" y="0" viewBox="0 0 173.397 173.397" style="enable-background:new 0 0 512 512" xml:space="preserve" fill-rule="evenodd" class=""><g><g fill="#05b093"><path d="m56.452 125.507 31.761 26.126c2.492 2.05 6.175-.25 5.429-3.388l-3.157-13.279a1.682 1.682 0 0 1 1.641-2.078h67.058a3.382 3.382 0 0 0 3.376-3.376v-13.224a3.382 3.382 0 0 0-3.376-3.376H92.126a1.682 1.682 0 0 1-1.642-2.078l3.158-13.279c.746-3.138-2.937-5.437-5.429-3.388l-31.76 26.126a3.376 3.376 0 0 0 0 5.214zM116.945 53.104l-31.76 26.125c-2.493 2.05-6.176-.249-5.43-3.388l3.158-13.278a1.682 1.682 0 0 0-1.642-2.078H14.213a3.382 3.382 0 0 1-3.376-3.376V43.884a3.382 3.382 0 0 1 3.376-3.375h67.058a1.682 1.682 0 0 0 1.642-2.078l-3.157-13.279c-.747-3.139 2.937-5.437 5.428-3.388l31.761 26.126a3.376 3.376 0 0 1 0 5.214z" fill="#05b093" data-original="#05b093" class=""></path></g><path d="M90.325 95.083c-.312 0-.674.096-1.037.394l-31.76 26.127c-.391.32-.614.794-.614 1.299a1.67 1.67 0 0 0 .61 1.3h.004l31.76 26.126c.861.708 1.715.274 1.958.123.24-.15 1.005-.725.748-1.811l-3.156-13.28a3.36 3.36 0 0 1 .633-2.88 3.36 3.36 0 0 1 2.653-1.283h67.064c.929 0 1.682-.755 1.682-1.682V116.29c0-.927-.755-1.682-1.683-1.682H92.126a3.372 3.372 0 0 1-3.29-4.164l3.158-13.279c.259-1.086-.508-1.66-.748-1.81a1.803 1.803 0 0 0-.92-.272zm.015 59.027a5.036 5.036 0 0 1-3.204-1.164l-31.76-26.128a5.053 5.053 0 0 1-1.849-3.915c0-1.522.674-2.948 1.848-3.915l31.763-26.127c1.706-1.403 4.02-1.553 5.9-.38 1.877 1.172 2.762 3.318 2.251 5.468l-3.157 13.279 67.056-.007a5.076 5.076 0 0 1 5.069 5.07v13.224a5.076 5.076 0 0 1-5.07 5.07H92.126l3.163 13.272c.512 2.15-.374 4.295-2.25 5.47a5.087 5.087 0 0 1-2.7.783zM14.211 42.2c-.929 0-1.684.755-1.684 1.683l.001 13.225c0 .928.754 1.683 1.682 1.683h67.06c1.045 0 2.01.467 2.656 1.283.643.814.875 1.865.635 2.88l-3.157 13.28c-.26 1.085.508 1.66.747 1.811.242.15 1.094.586 1.955-.123l31.764-26.127a1.67 1.67 0 0 0 .614-1.3c0-.504-.223-.978-.614-1.299L84.107 23.07c-.862-.71-1.716-.274-1.956-.123-.24.15-1.009.725-.747 1.811l3.157 13.28a3.377 3.377 0 0 1-3.292 4.163zm68.844 39.503c-.924 0-1.856-.259-2.696-.785-1.88-1.172-2.762-3.319-2.25-5.468l3.158-13.28-67.056.007a5.073 5.073 0 0 1-5.07-5.069V43.883a5.074 5.074 0 0 1 5.069-5.07h67.06l-3.16-13.272c-.512-2.149.369-4.295 2.25-5.467 1.877-1.173 4.194-1.023 5.898.38l31.765 26.127a5.053 5.053 0 0 1 1.847 3.915 5.053 5.053 0 0 1-1.848 3.915l-1.076-1.308 1.077 1.308-31.765 26.126a5.02 5.02 0 0 1-3.203 1.166z" fill="#000000" data-original="#000000" class=""></path></g></svg>