<svg xmlns="http://www.w3.org/2000/svg" xmlns:xlink="http://www.w3.org/1999/xlink" width="512" zoomAndPan="magnify" viewBox="0 0 384 383.999986" height="512" preserveAspectRatio="xMidYMid meet" version="1.0"><defs><g/><clipPath id="id1"><path d="M 7.5 7.5 L 231 7.5 L 231 231 L 7.5 231 Z M 7.5 7.5 " clip-rule="nonzero"/></clipPath><clipPath id="id2"><path d="M 153.332031 153.332031 L 376.832031 153.332031 L 376.832031 376.832031 L 153.332031 376.832031 Z M 153.332031 153.332031 " clip-rule="nonzero"/></clipPath><clipPath id="id3"><path d="M 36 38 L 149 38 L 149 151 L 36 151 Z M 36 38 " clip-rule="nonzero"/></clipPath><clipPath id="id4"><path d="M 201.652344 95 L 92.9375 203.714844 L -15.78125 95 L 92.9375 -13.71875 Z M 201.652344 95 " clip-rule="nonzero"/></clipPath><clipPath id="id5"><path d="M 201.652344 95 L 92.9375 203.714844 L -15.78125 95 L 92.9375 -13.71875 Z M 201.652344 95 " clip-rule="nonzero"/></clipPath></defs><g clip-path="url(#id1)"><path fill="#eceaec" d="M 205.390625 7.5 L 33.109375 7.5 C 18.984375 7.5 7.5 18.984375 7.5 33.109375 L 7.5 205.390625 C 7.5 219.515625 18.984375 231 33.109375 231 L 205.390625 231 C 219.515625 231 231 219.515625 231 205.390625 L 231 33.109375 C 231 18.984375 219.515625 7.5 205.390625 7.5 Z M 205.390625 7.5 " fill-opacity="1" fill-rule="nonzero"/><path fill="#000000" d="M 205.390625 231 L 33.109375 231 C 18.984375 231 7.5 219.515625 7.5 205.390625 L 7.5 33.109375 C 7.5 18.984375 18.984375 7.5 33.109375 7.5 L 205.390625 7.5 C 219.515625 7.5 231 18.984375 231 33.109375 L 231 205.390625 C 231 219.515625 219.515625 231 205.390625 231 Z M 33.109375 21.46875 C 26.695312 21.46875 21.46875 26.695312 21.46875 33.109375 L 21.46875 205.390625 C 21.46875 211.804688 26.695312 217.03125 33.109375 217.03125 L 205.390625 217.03125 C 211.804688 217.03125 217.03125 211.804688 217.03125 205.390625 L 217.03125 33.109375 C 217.03125 26.695312 211.804688 21.46875 205.390625 21.46875 Z M 33.109375 21.46875 " fill-opacity="1" fill-rule="nonzero"/></g><g clip-path="url(#id2)"><path fill="#ffb75a" d="M 351.222656 153.332031 L 178.945312 153.332031 C 164.816406 153.332031 153.332031 164.816406 153.332031 178.945312 L 153.332031 351.222656 C 153.332031 365.351562 164.816406 376.832031 178.945312 376.832031 L 351.222656 376.832031 C 365.351562 376.832031 376.832031 365.351562 376.832031 351.222656 L 376.832031 178.945312 C 376.832031 164.816406 365.351562 153.332031 351.222656 153.332031 Z M 351.222656 153.332031 " fill-opacity="1" fill-rule="nonzero"/><path fill="#000000" d="M 351.222656 376.832031 L 178.945312 376.832031 C 164.816406 376.832031 153.332031 365.351562 153.332031 351.222656 L 153.332031 178.945312 C 153.332031 164.816406 164.816406 153.332031 178.945312 153.332031 L 351.222656 153.332031 C 365.351562 153.332031 376.832031 164.816406 376.832031 178.945312 L 376.832031 351.222656 C 376.832031 365.351562 365.351562 376.832031 351.222656 376.832031 Z M 178.945312 167.300781 C 172.527344 167.300781 167.300781 172.527344 167.300781 178.945312 L 167.300781 351.222656 C 167.300781 357.640625 172.527344 362.863281 178.945312 362.863281 L 351.222656 362.863281 C 357.640625 362.863281 362.863281 357.640625 362.863281 351.222656 L 362.863281 178.945312 C 362.863281 172.527344 357.640625 167.300781 351.222656 167.300781 Z M 178.945312 167.300781 " fill-opacity="1" fill-rule="nonzero"/></g><g clip-path="url(#id3)"><g clip-path="url(#id4)"><g clip-path="url(#id5)"><path fill="#000000" d="M 38.105469 49.175781 L 104.523438 132.179688 L 86.84375 136.808594 C 81.464844 138.226562 82.183594 146.058594 87.71875 146.488281 L 143.421875 150.777344 C 146.429688 151.007812 148.941406 148.496094 148.707031 145.488281 L 144.421875 89.789062 C 144.003906 84.238281 136.164062 83.535156 134.757812 88.898438 L 130.097656 106.574219 L 47.117188 40.164062 C 41.179688 35.382812 33.324219 43.234375 38.105469 49.175781 Z M 38.105469 49.175781 " fill-opacity="1" fill-rule="nonzero"/></g></g></g><g fill="#000000" fill-opacity="1"><g transform="translate(195.50072, 293.616481)"><g><path d="M 9.59375 0.546875 C 6.6875 0.546875 5.234375 -0.945312 5.234375 -3.9375 L 5.234375 -44 C 5.234375 -46.988281 6.6875 -48.484375 9.59375 -48.484375 C 12.488281 -48.484375 13.9375 -46.988281 13.9375 -44 L 13.9375 -27.953125 L 38.625 -27.953125 L 38.625 -44 C 38.625 -46.988281 40.070312 -48.484375 42.96875 -48.484375 C 45.875 -48.484375 47.328125 -46.988281 47.328125 -44 L 47.328125 -3.9375 C 47.328125 -0.945312 45.875 0.546875 42.96875 0.546875 C 40.070312 0.546875 38.625 -0.945312 38.625 -3.9375 L 38.625 -20.671875 L 13.9375 -20.671875 L 13.9375 -3.9375 C 13.9375 -0.945312 12.488281 0.546875 9.59375 0.546875 Z M 9.59375 0.546875 "/></g></g></g><g fill="#000000" fill-opacity="1"><g transform="translate(248.058692, 293.616481)"><g><path d="M 9.859375 0 C 6.773438 0 5.234375 -1.539062 5.234375 -4.625 L 5.234375 -43.3125 C 5.234375 -46.394531 6.773438 -47.9375 9.859375 -47.9375 L 34.140625 -47.9375 C 36.492188 -47.9375 37.671875 -46.804688 37.671875 -44.546875 C 37.671875 -42.179688 36.492188 -41 34.140625 -41 L 13.59375 -41 L 13.59375 -27.8125 L 32.640625 -27.8125 C 34.992188 -27.8125 36.171875 -26.65625 36.171875 -24.34375 C 36.171875 -22.03125 34.992188 -20.875 32.640625 -20.875 L 13.59375 -20.875 L 13.59375 -6.9375 L 34.140625 -6.9375 C 36.492188 -6.9375 37.671875 -5.78125 37.671875 -3.46875 C 37.671875 -1.15625 36.492188 0 34.140625 0 Z M 9.859375 0 "/></g></g></g><g fill="#000000" fill-opacity="1"><g transform="translate(288.650035, 293.616481)"><g><path d="M 6.875 0.546875 C 5.738281 0.546875 4.804688 0.238281 4.078125 -0.375 C 3.347656 -0.988281 2.925781 -1.757812 2.8125 -2.6875 C 2.707031 -3.613281 3.015625 -4.554688 3.734375 -5.515625 L 17.890625 -24.40625 L 4.484375 -42.359375 C 3.765625 -43.359375 3.445312 -44.320312 3.53125 -45.25 C 3.625 -46.175781 4.03125 -46.945312 4.75 -47.5625 C 5.476562 -48.175781 6.390625 -48.484375 7.484375 -48.484375 C 9.160156 -48.484375 10.675781 -47.554688 12.03125 -45.703125 L 22.84375 -30.734375 L 33.65625 -45.703125 C 35.019531 -47.554688 36.5625 -48.484375 38.28125 -48.484375 C 39.414062 -48.484375 40.34375 -48.1875 41.0625 -47.59375 C 41.789062 -47.007812 42.203125 -46.25 42.296875 -45.3125 C 42.390625 -44.382812 42.050781 -43.398438 41.28125 -42.359375 L 27.875 -24.40625 L 41.953125 -5.515625 C 42.679688 -4.554688 43 -3.613281 42.90625 -2.6875 C 42.8125 -1.757812 42.398438 -0.988281 41.671875 -0.375 C 40.953125 0.238281 40.003906 0.546875 38.828125 0.546875 C 37.191406 0.546875 35.671875 -0.40625 34.265625 -2.3125 L 22.84375 -17.953125 L 11.484375 -2.3125 C 10.085938 -0.40625 8.550781 0.546875 6.875 0.546875 Z M 6.875 0.546875 "/></g></g></g></svg>