<svg xmlns="http://www.w3.org/2000/svg" version="1.1" xmlns:xlink="http://www.w3.org/1999/xlink" xmlns:svgjs="http://svgjs.com/svgjs" width="512" height="512" x="0" y="0" viewBox="0 0 682.667 682.667" style="enable-background:new 0 0 512 512" xml:space="preserve" class=""><g><defs><clipPath id="a" clipPathUnits="userSpaceOnUse"><path d="M0 512h512V0H0Z" fill="#000000" data-original="#000000"></path></clipPath><clipPath id="b" clipPathUnits="userSpaceOnUse"><path d="M0 512h512V0H0Z" fill="#000000" data-original="#000000"></path></clipPath></defs><g clip-path="url(#a)" transform="matrix(1.33333 0 0 -1.33333 0 682.667)"><path d="M0 0c18 231.988 118.088 286.64 261.603 275.812V250.3c.453-24.435 22.732-34.668 40.279-23.244l139.32 102.302c19.387 11.65 19.387 32.514 0 44.164l-139.32 102.302c-4.876 3.147-10.091 4.649-15.108 4.649h-.028c-13.096 0-24.831-10.233-25.143-27.893v-25.512C49.066 423.837-79.425 230.996-28.431-3.486-25.143-23.046-1.531-19.502 0 0" style="fill-opacity:1;fill-rule:evenodd;stroke:none" transform="translate(579.922 24.01)" fill="#75cef8" data-original="#75cef8"></path></g><g clip-path="url(#b)" transform="matrix(1.33333 0 0 -1.33333 0 682.667)"><path d="M0 0c0 88.115-72.107 160.197-160.192 160.197h-19.174v16.061c-.194 11.171-10.364 15.811-18.367 10.615l-63.549-46.656c-8.836-5.335-8.836-14.838 0-20.174l63.549-46.655c8.003-5.197 18.173-.528 18.367 10.614V100.064h19.174c55.018 0 100.061-45.016 100.061-100.064 0-55.048-45.043-100.092-100.061-100.092h-42.154v-60.105h42.154C-72.107-160.197 0-88.115 0 0" style="fill-opacity:1;fill-rule:evenodd;stroke:none" transform="translate(504.5 255.91)" fill="#a7e9a6" data-original="#a7e9a6" class=""></path><path d="M0 0c94.226 7.392 162.443-60.494 162.443-148.582 0-46.683-22.507-96.563-54.629-125.934 46.599 28.121 77.915 79.223 77.915 137.3 0 88.115-72.107 160.196-160.192 160.196H6.363V39.042c-.194 11.17-10.364 15.811-18.367 10.615l-7.169-5.28V26.065C-19.173 9.976-17.978-1.417 0 0" style="fill-opacity:1;fill-rule:evenodd;stroke:none" transform="translate(318.771 393.125)" fill="#7fdbae" data-original="#7fdbae"></path><path d="M0 0c26.425 28.589 42.661 66.765 42.661 108.558 0 88.115-72.107 160.197-160.192 160.197h-19.174v16.061c-.194 11.171-10.364 15.811-18.367 10.615l-63.549-46.656c-8.836-5.335-8.836-14.838 0-20.173l63.549-46.656c8.003-5.196 18.173-.528 18.367 10.615v16.061h19.174c55.018 0 100.061-45.016 100.061-100.064 0-55.048-45.043-100.092-100.061-100.092h-42.154v-60.105h42.154c34.205 0 66.022 10.865 92.114 29.344" style="stroke-width:15;stroke-linecap:round;stroke-linejoin:round;stroke-miterlimit:10;stroke-dasharray:none;stroke-opacity:1" transform="translate(461.839 147.351)" fill="none" stroke="#000000" stroke-width="15" stroke-linecap="round" stroke-linejoin="round" stroke-miterlimit="10" stroke-dasharray="none" stroke-opacity="" data-original="#000000" class=""></path><path d="M0 0c0-88.087 72.08-160.197 160.192-160.197h19.146v-16.061c.194-11.143 10.365-15.811 18.367-10.587l63.549 46.656c8.864 5.307 8.864 14.81 0 20.146l-63.549 46.655c-8.002 5.197-18.173.556-18.367-10.614V-100.064h-19.146C105.146-100.064 60.104-55.02 60.104 0c0 55.048 45.042 100.092 100.088 100.092h42.709v60.105h-42.709C72.08 160.197 0 88.115 0 0" style="fill-opacity:1;fill-rule:evenodd;stroke:none" transform="translate(7.5 256.076)" fill="#a7e9a6" data-original="#a7e9a6" class=""></path><path d="M0 0V-16.062h-19.146c-55.045 0-100.088 45.044-100.088 100.064 0 55.048 45.043 100.092 100.088 100.092h42.709l-.194 20.202h-57.575c-149.8 0-139.825-249.451 15.06-249.451h38.402v6.974c.195 11.171.751 15.812 8.725 10.616l41.653-37.653 12.283 9.031c8.863 5.307 8.863 14.811 0 20.146l-63.55 46.656C10.365 15.811.194 11.17 0 0" style="fill-opacity:1;fill-rule:evenodd;stroke:none" transform="translate(186.838 172.073)" fill="#7fdbae" data-original="#7fdbae"></path><path d="M0 0h-61.298" style="stroke-width:15;stroke-linecap:round;stroke-linejoin:round;stroke-miterlimit:10;stroke-dasharray:none;stroke-opacity:1" transform="translate(289.733 292.561)" fill="none" stroke="#000000" stroke-width="15" stroke-linecap="round" stroke-linejoin="round" stroke-miterlimit="10" stroke-dasharray="none" stroke-opacity="" data-original="#000000" class=""></path><path d="M0 0h-158.636" style="stroke-width:15;stroke-linecap:round;stroke-linejoin:round;stroke-miterlimit:10;stroke-dasharray:none;stroke-opacity:1" transform="translate(338.389 258.188)" fill="none" stroke="#000000" stroke-width="15" stroke-linecap="round" stroke-linejoin="round" stroke-miterlimit="10" stroke-dasharray="none" stroke-opacity="" data-original="#000000" class=""></path><path d="M0 0h-158.636" style="stroke-width:15;stroke-linecap:round;stroke-linejoin:round;stroke-miterlimit:10;stroke-dasharray:none;stroke-opacity:1" transform="translate(338.389 223.814)" fill="none" stroke="#000000" stroke-width="15" stroke-linecap="round" stroke-linejoin="round" stroke-miterlimit="10" stroke-dasharray="none" stroke-opacity="" data-original="#000000" class=""></path><path d="M0 0c-24.814-28.26-39.902-65.218-39.902-105.539 0-88.087 72.079-160.196 160.192-160.196h19.146V-281.797c.194-11.143 10.364-15.811 18.367-10.587l63.549 46.656c8.864 5.307 8.864 14.811 0 20.146l-63.549 46.656c-8.003 5.196-18.173.555-18.367-10.615V-205.603H120.29c-55.046 0-100.089 45.044-100.089 100.064 0 55.048 45.043 100.092 100.089 100.092h42.709v60.106H120.29c-35.623 0-68.606-11.755-95.282-31.596" style="stroke-width:15;stroke-linecap:round;stroke-linejoin:round;stroke-miterlimit:10;stroke-dasharray:none;stroke-opacity:1" transform="translate(47.402 361.614)" fill="none" stroke="#000000" stroke-width="15" stroke-linecap="round" stroke-linejoin="round" stroke-miterlimit="10" stroke-dasharray="none" stroke-opacity="" data-original="#000000" class=""></path></g></g></svg>