<svg height="512pt" viewBox="0 0 512 512" width="512pt" xmlns="http://www.w3.org/2000/svg"><g fill-rule="evenodd"><path d="m58.484375 51.796875v-37.550781c0-3.683594-3.003906-6.6875-6.6875-6.6875h-37.550781c-3.683594 0-6.6875 3.003906-6.6875 6.6875v37.550781c0 3.683594 3.003906 6.6875 6.6875 6.6875h37.550781c3.683594 0 6.6875-3.003906 6.6875-6.6875zm0 0" fill="#e6e6e6"/><path d="m274.773438 58.484375c3.6875 0 6.691406-3.003906 6.691406-6.6875v-37.550781c0-3.683594-3.003906-6.6875-6.691406-6.6875h-37.578126c-3.65625 0-6.6875 3.003906-6.6875 6.6875v37.550781c0 3.683594 3.03125 6.6875 6.6875 6.6875zm0 0" fill="#e6e6e6"/><path d="m497.753906 58.484375c3.65625 0 6.6875-3.003906 6.6875-6.6875v-37.550781c0-3.683594-3.03125-6.6875-6.6875-6.6875h-37.578125c-3.683593 0-6.6875 3.003906-6.6875 6.6875v37.550781c0 3.683594 3.003907 6.6875 6.6875 6.6875zm0 0" fill="#e6e6e6"/><path d="m504.441406 274.773438v-37.578126c0-3.65625-3.03125-6.6875-6.6875-6.6875h-37.578125c-3.683593 0-6.6875 3.03125-6.6875 6.6875v37.578126c0 3.6875 3.003907 6.691406 6.6875 6.691406h37.578125c3.65625 0 6.6875-3.003906 6.6875-6.691406zm0 0" fill="#e6e6e6"/><path d="m58.484375 274.773438v-37.578126c0-3.65625-3.003906-6.6875-6.6875-6.6875h-37.550781c-3.683594 0-6.6875 3.03125-6.6875 6.6875v37.578126c0 3.6875 3.003906 6.691406 6.6875 6.691406h37.550781c3.683594 0 6.6875-3.003906 6.6875-6.691406zm0 0" fill="#e6e6e6"/><path d="m58.484375 497.753906v-37.578125c0-3.683593-3.003906-6.6875-6.6875-6.6875h-37.550781c-3.683594 0-6.6875 3.003907-6.6875 6.6875v37.582031c0 3.652344 3.003906 6.6875 6.6875 6.6875h37.550781c3.683594-.003906 6.6875-3.035156 6.6875-6.691406zm0 0" fill="#e6e6e6"/><path d="m274.773438 504.441406c3.6875 0 6.691406-3.03125 6.691406-6.6875v-37.578125c0-3.683593-3.003906-6.6875-6.691406-6.6875h-37.578126c-3.65625 0-6.6875 3.003907-6.6875 6.6875v37.578125c0 3.65625 3.03125 6.6875 6.6875 6.6875zm0 0" fill="#e6e6e6"/><path d="m504.441406 497.753906v-37.578125c0-3.683593-3.03125-6.6875-6.6875-6.6875h-37.578125c-3.683593 0-6.6875 3.003907-6.6875 6.6875v37.578125c0 3.65625 3.003907 6.6875 6.6875 6.6875h37.582031c3.652344 0 6.683594-3.03125 6.683594-6.6875zm0 0" fill="#e6e6e6"/><path d="m277.949219 300.761719h-41.007813c-6.632812-.195313-19.582031 0-13.632812-18.449219l32.308594-94.371094c.738281-2.296875 2.917968-2.296875 3.65625 0l32.308593 94.371094c5.949219 18.449219-7 18.253906-13.632812 18.449219zm-71.84375-151.109375-86.578125 224.539062c-2.039063 5.074219-3.03125 10.714844-3.03125 16.890625 0 9.296875 3.316406 17.175781 10.003906 23.636719 6.660156 6.460938 14.933594 9.722656 24.796875 9.722656 17.683594 0 28.992187-7.878906 33.925781-23.636718l7.960938-26.046876c3.800781-12.382812 15.871094-12.382812 24.714844-12.382812h79.097656c8.839844 0 20.914062 0 24.710937 12.382812l7.964844 26.046876c4.929687 15.757812 16.238281 23.636718 33.921875 23.636718 9.863281 0 18.140625-3.261718 24.800781-9.722656 6.6875-6.460938 10.003907-14.339844 10.003907-23.636719 0-6.175781-1.019532-11.816406-3.035157-16.890625l-86.578125-224.539062c-9.578125-25.335938-26.695312-37.972656-51.351562-37.972656-24.628906 0-41.746094 12.636718-51.328125 37.972656zm0 0" fill="#ff7b83"/><path d="m259.386719 188.226562 32.195312 94.085938c5.949219 18.449219-7 18.253906-13.632812 18.449219h-32.621094c1.105469 21.398437 4.253906 42.058593 9.210937 61.613281h42.457032c8.839844 0 20.914062 0 24.710937 12.382812l7.964844 26.046876c4.929687 15.757812 16.238281 23.636718 33.921875 23.636718 9.863281 0 18.140625-3.261718 24.800781-9.722656 6.6875-6.460938 10.003907-14.339844 10.003907-23.636719 0-6.175781-1.019532-11.816406-3.035157-16.890625l-86.578125-224.539062c-4.503906-11.871094-10.65625-20.96875-18.476562-27.289063-12.753906 19.496094-23.269532 41.6875-30.921875 65.863281zm0 0" fill="#e63e49"/></g><path d="m497.753906 66.039062c7.855469 0 14.246094-6.386718 14.246094-14.242187v-37.550781c0-7.855469-6.390625-14.246094-14.246094-14.246094h-37.578125c-7.855469 0-14.246093 6.390625-14.246093 14.246094v11.203125h-156.910157v-11.203125c0-7.855469-6.386719-14.246094-14.246093-14.246094h-37.578126c-7.855468 0-14.246093 6.390625-14.246093 14.246094v11.203125h-156.910157v-11.203125c0-7.855469-6.390624-14.246094-14.242187-14.246094h-37.550781c-7.855469 0-14.246094 6.390625-14.246094 14.246094v37.550781c0 7.855469 6.390625 14.242187 14.246094 14.242187h11.230468v156.910157h-11.230468c-7.855469 0-14.246094 6.390625-14.246094 14.246093v37.578126c0 7.859374 6.390625 14.246093 14.246094 14.246093h11.230468v156.910157h-11.230468c-7.855469 0-14.246094 6.390624-14.246094 14.246093v37.578125c0 7.855469 6.390625 14.246094 14.246094 14.246094h37.550781c7.855469 0 14.242187-6.390625 14.242187-14.246094v-11.230468h156.910157v11.230468c0 7.855469 6.390625 14.246094 14.246093 14.246094h37.578126c7.859374 0 14.246093-6.390625 14.246093-14.246094v-11.230468h156.910157v11.230468c0 7.855469 6.390624 14.246094 14.246093 14.246094h37.578125c7.855469 0 14.246094-6.390625 14.246094-14.246094v-37.578125c0-7.855469-6.390625-14.246093-14.246094-14.246093h-11.230468v-156.910157h11.230468c7.855469 0 14.246094-6.386719 14.246094-14.246093v-37.578126c0-7.855468-6.390625-14.246093-14.246094-14.246093h-11.230468v-156.910157zm-36.707031-50.925781h35.839844v35.8125h-35.839844zm-222.980469 0h35.839844v35.8125h-35.839844zm-222.953125 0h35.8125v35.8125h-35.8125zm0 222.953125h35.8125v35.839844h-35.8125zm35.8125 258.820313h-35.8125v-35.839844h35.8125zm222.980469 0h-35.839844v-35.839844h35.839844zm222.980469 0h-35.839844v-35.839844h35.839844zm0-222.980469h-35.839844v-35.839844h35.839844zm-25.476563-50.957031h-11.234375c-7.855469 0-14.246093 6.390625-14.246093 14.246093v37.578126c0 7.859374 6.390624 14.246093 14.246093 14.246093h11.234375v156.910157h-11.234375c-7.855469 0-14.246093 6.390624-14.246093 14.246093v11.234375h-156.910157v-11.234375c0-7.855469-6.386719-14.246093-14.246093-14.246093h-37.578126c-7.855468 0-14.246093 6.390624-14.246093 14.246093v11.234375h-156.910157v-11.234375c0-7.855469-6.386718-14.246093-14.242187-14.246093h-11.207031v-156.910157h11.207031c7.851563 0 14.242187-6.386719 14.242187-14.246093v-37.578126c0-7.855468-6.390624-14.246093-14.242187-14.246093h-11.207031v-156.910157h11.207031c7.851563 0 14.242187-6.386718 14.242187-14.242187v-11.234375h156.910157v11.234375c0 7.855469 6.390625 14.242187 14.246093 14.242187h37.578126c7.855468 0 14.246093-6.386718 14.246093-14.242187v-11.234375h156.910157v11.234375c0 7.855469 6.390624 14.242187 14.246093 14.242187h11.230469v156.910157zm0 0"/><path d="m358.75 251.195312c-2.003906-5.199218-7.847656-7.785156-13.039062-5.785156-5.199219 2.003906-7.785157 7.84375-5.785157 13.039063l46.0625 119.460937c1.539063 3.882813 2.320313 8.316406 2.320313 13.171875 0 6.613281-2.199219 11.816407-6.941406 16.398438-4.765626 4.625-10.582032 6.871093-17.773438 6.871093-13.21875 0-20.714844-5.105468-24.277344-16.496093l-7.96875-26.054688c-5.984375-19.511719-25.144531-19.511719-34.355468-19.511719h-79.09375c-9.210938 0-28.371094 0-34.359376 19.519532l-7.941406 25.980468c-3.585937 11.453126-11.078125 16.5625-24.296875 16.5625-7.195312 0-13.007812-2.246093-17.792969-6.886718-4.722656-4.566406-6.925781-9.769532-6.925781-16.382813 0-4.910156.777344-9.324219 2.304688-13.125.019531-.046875.035156-.089843.054687-.136719l86.601563-224.601562c8.113281-21.460938 21.425781-31.457031 41.890625-31.457031 20.484375 0 33.804687 9.996093 41.941406 31.519531l26.355469 68.382812c2.003906 5.195313 7.839843 7.785157 13.039062 5.785157 5.199219-2.003907 7.785157-7.84375 5.785157-13.039063l-26.335938-68.324218c-11.003906-29.109376-32.023438-44.492188-60.785156-44.492188-28.742188 0-49.753906 15.382812-60.734375 44.429688l-86.554688 224.472656c-2.476562 6.1875-3.734375 13.113281-3.734375 20.585937 0 12.109375 4.402344 22.503907 13.070313 30.875 8.59375 8.339844 19.296875 12.566407 31.820312 12.566407 22.203125 0 37.261719-10.621094 43.566407-30.769532l7.960937-26.039062c1.296875-4.226563 4.253906-5.257813 15.070313-5.257813h79.097656c10.816406 0 13.773437 1.03125 15.066406 5.25l7.984375 26.105469c6.289063 20.089844 21.347656 30.710938 43.546875 30.710938 12.519531 0 23.226562-4.230469 31.808594-12.554688 8.679687-8.382812 13.078125-18.777344 13.078125-30.886719 0-7.414062-1.257813-14.347656-3.703125-20.519531zm0 0"/><path d="m268.839844 184.742188c-1.730469-5.234376-6.191406-8.609376-11.394532-8.609376-5.203124 0-9.660156 3.375-11.390624 8.605469l-32.285157 94.308594c-.023437.054687-.039062.113281-.058593.167969-3.082032 9.554687-2.589844 17.308594 1.46875 23.042968 5.769531 8.15625 15.609374 8.425782 20.894531 8.570313l.5625.015625c.101562.003906.203125.003906.304687.003906h41.007813c.101562 0 .199219 0 .300781-.003906l.5625-.015625c5.289062-.144531 15.128906-.414063 20.898438-8.570313 4.058593-5.734374 4.550781-13.484374 1.46875-23.042968-.019532-.054688-.039063-.113282-.058594-.167969zm9.421875 105.921874-41.183594.015626-.449219-.015626c-1.191406-.03125-3.410156-.09375-4.753906-.375.03125-.839843.226562-2.363281 1.007812-4.800781l24.5625-71.746093 24.5625 71.75c.78125 2.4375.976563 3.957031 1.007813 4.796874-1.34375.28125-3.5625.34375-4.753906.375zm0 0"/></svg>