<svg xmlns="http://www.w3.org/2000/svg" version="1.1" xmlns:xlink="http://www.w3.org/1999/xlink" xmlns:svgjs="http://svgjs.com/svgjs" width="512" height="512" x="0" y="0" viewBox="0 0 512 512" style="enable-background:new 0 0 512 512" xml:space="preserve" class=""><g> <circle xmlns="http://www.w3.org/2000/svg" style="" cx="256" cy="256" r="248.5" fill="#f7d291" data-original="#f7d291"></circle> <g xmlns="http://www.w3.org/2000/svg"> <circle style="" cx="256" cy="256" r="224.45" fill="#f5b97d" data-original="#f5b97d" class=""></circle> <path style="" d="M328.145,432.355c-137.243,0-248.5-111.258-248.5-248.5c0-50.164,14.914-96.821,40.477-135.877   C52.325,92.353,7.5,168.921,7.5,256c0,137.242,111.257,248.5,248.5,248.5c87.079,0,163.647-44.825,208.023-112.623   C424.966,417.441,378.309,432.355,328.145,432.355z" fill="#f5b97d" data-original="#f5b97d" class=""></path> </g> <path xmlns="http://www.w3.org/2000/svg" style="" d="M31.548,256c0,123.961,100.49,224.452,224.452,224.452c60.33,0,115.058-23.848,155.391-62.575  c-26.039,9.283-54.016,14.478-83.246,14.478c-137.243,0-248.5-111.258-248.5-248.5c0-29.23,5.194-57.208,14.478-83.247  C55.397,140.941,31.548,195.669,31.548,256z" fill="#e3aa75" data-original="#e3aa75"></path> <circle xmlns="http://www.w3.org/2000/svg" style="" cx="256" cy="256" r="200.4" fill="#ffedc6" data-original="#ffedc6" class=""></circle> <circle xmlns="http://www.w3.org/2000/svg" style="" cx="256" cy="256" r="160.32" fill="#ffffff" data-original="#ffffff" class=""></circle> <circle xmlns="http://www.w3.org/2000/svg" style="" cx="256" cy="256" r="40.08" fill="#ffedc6" data-original="#ffedc6" class=""></circle> <circle xmlns="http://www.w3.org/2000/svg" style="" cx="256" cy="256" r="16.03" fill="#f5b97d" data-original="#f5b97d" class=""></circle> <path xmlns="http://www.w3.org/2000/svg" d="M437.02,74.98C388.667,26.629,324.38,0,256,0S123.333,26.629,74.98,74.98C26.629,123.333,0,187.62,0,256  s26.629,132.667,74.98,181.02C123.333,485.371,187.62,512,256,512s132.667-26.629,181.02-74.98C485.371,388.667,512,324.38,512,256  S485.371,123.333,437.02,74.98z M426.413,426.413C380.894,471.932,320.374,497,256,497s-124.894-25.068-170.413-70.587  S15,320.374,15,256S40.068,131.106,85.587,85.587S191.626,15,256,15s124.894,25.068,170.413,70.587S497,191.626,497,256  S471.932,380.894,426.413,426.413z" fill="#000000" data-original="#000000" class=""></path> <path xmlns="http://www.w3.org/2000/svg" d="M263.5,119.726V87.661c0-4.142-3.358-7.5-7.5-7.5s-7.5,3.358-7.5,7.5v32.064c0,4.142,3.358,7.5,7.5,7.5  S263.5,123.868,263.5,119.726z" fill="#000000" data-original="#000000" class=""></path> <path xmlns="http://www.w3.org/2000/svg" d="M248.5,392.274v32.064c0,4.142,3.358,7.5,7.5,7.5s7.5-3.358,7.5-7.5v-32.064c0-4.142-3.358-7.5-7.5-7.5  S248.5,388.132,248.5,392.274z" fill="#000000" data-original="#000000" class=""></path> <path xmlns="http://www.w3.org/2000/svg" d="M431.839,256c0-4.142-3.358-7.5-7.5-7.5h-32.064c-4.142,0-7.5,3.358-7.5,7.5s3.358,7.5,7.5,7.5h32.064  C428.481,263.5,431.839,260.142,431.839,256z" fill="#000000" data-original="#000000" class=""></path> <path xmlns="http://www.w3.org/2000/svg" d="M87.661,248.5c-4.142,0-7.5,3.358-7.5,7.5s3.358,7.5,7.5,7.5h32.064c4.142,0,7.5-3.358,7.5-7.5s-3.358-7.5-7.5-7.5H87.661z" fill="#000000" data-original="#000000" class=""></path> <path xmlns="http://www.w3.org/2000/svg" d="M130.594,183.597c2.071-3.587,0.842-8.174-2.745-10.245l-13.884-8.016c-3.588-2.072-8.174-0.842-10.245,2.745  c-2.071,3.587-0.842,8.174,2.745,10.245l13.884,8.016c1.181,0.682,2.471,1.006,3.743,1.006  C126.684,187.348,129.205,186.002,130.594,183.597z" fill="#000000" data-original="#000000" class=""></path> <path xmlns="http://www.w3.org/2000/svg" d="M391.651,325.658c-3.587-2.072-8.174-0.842-10.245,2.745c-2.071,3.587-0.842,8.174,2.745,10.245l13.884,8.016  c1.181,0.682,2.471,1.006,3.743,1.006c2.592,0,5.113-1.346,6.502-3.751c2.071-3.587,0.842-8.174-2.745-10.245L391.651,325.658z" fill="#000000" data-original="#000000" class=""></path> <path xmlns="http://www.w3.org/2000/svg" d="M332.146,131.6c2.592,0,5.113-1.346,6.502-3.751l8.016-13.884c2.071-3.587,0.842-8.174-2.745-10.245  c-3.587-2.072-8.174-0.842-10.245,2.745l-8.016,13.884c-2.071,3.587-0.842,8.174,2.745,10.245  C329.584,131.276,330.874,131.6,332.146,131.6z" fill="#000000" data-original="#000000" class=""></path> <path xmlns="http://www.w3.org/2000/svg" d="M173.352,384.151l-8.016,13.884c-2.071,3.587-0.842,8.174,2.745,10.245c1.181,0.682,2.471,1.006,3.743,1.006  c2.592,0,5.113-1.346,6.502-3.751l8.016-13.884c2.071-3.587,0.842-8.174-2.745-10.245  C180.009,379.334,175.422,380.564,173.352,384.151z" fill="#000000" data-original="#000000" class=""></path> <path xmlns="http://www.w3.org/2000/svg" d="M398.036,165.335l-13.884,8.016c-3.587,2.071-4.816,6.658-2.745,10.245c1.389,2.406,3.91,3.751,6.502,3.751  c1.272,0,2.562-0.324,3.743-1.006l13.884-8.016c3.587-2.071,4.816-6.658,2.745-10.245S401.622,163.264,398.036,165.335z" fill="#000000" data-original="#000000" class=""></path> <path xmlns="http://www.w3.org/2000/svg" d="M130.594,328.403c-2.071-3.588-6.658-4.817-10.245-2.745l-13.884,8.016c-3.587,2.071-4.816,6.658-2.745,10.245  c1.389,2.406,3.91,3.751,6.502,3.751c1.272,0,2.562-0.324,3.743-1.006l13.884-8.016  C131.436,336.578,132.665,331.991,130.594,328.403z" fill="#000000" data-original="#000000" class=""></path> <path xmlns="http://www.w3.org/2000/svg" d="M173.352,127.849c1.389,2.406,3.91,3.751,6.502,3.751c1.272,0,2.562-0.324,3.743-1.006  c3.587-2.071,4.816-6.658,2.745-10.245l-8.016-13.884c-2.071-3.588-6.658-4.817-10.245-2.745c-3.587,2.071-4.816,6.658-2.745,10.245  L173.352,127.849z" fill="#000000" data-original="#000000" class=""></path> <path xmlns="http://www.w3.org/2000/svg" d="M328.403,381.406c-3.587,2.071-4.816,6.658-2.745,10.245l8.016,13.884c1.389,2.406,3.91,3.751,6.502,3.751  c1.272,0,2.562-0.324,3.743-1.006c3.587-2.071,4.816-6.658,2.745-10.245l-8.016-13.884  C336.578,380.564,331.99,379.334,328.403,381.406z" fill="#000000" data-original="#000000" class=""></path> <path xmlns="http://www.w3.org/2000/svg" d="M367.622,238.827c-0.629-4.093-4.451-6.902-8.553-6.272l-82.173,12.642c-3.921-7.554-11.813-12.729-20.895-12.729  c-3.757,0-7.309,0.89-10.463,2.463l-80.427-80.427c-2.929-2.929-7.678-2.929-10.606,0c-2.929,2.929-2.929,7.678,0,10.606  l80.427,80.427c-1.573,3.154-2.463,6.706-2.463,10.463c0,12.976,10.557,23.532,23.532,23.532c11.604,0,21.267-8.445,23.181-19.51  l82.169-12.641C365.444,246.75,368.252,242.921,367.622,238.827z M256,264.532c-4.705,0-8.532-3.828-8.532-8.532  s3.828-8.532,8.532-8.532c4.704,0,8.532,3.828,8.532,8.532C264.532,260.704,260.705,264.532,256,264.532z" fill="#000000" data-original="#000000" class=""></path> <path xmlns="http://www.w3.org/2000/svg" d="M63.26,248.752c1.803-48.761,21.811-94.629,56.337-129.156s80.395-54.534,129.156-56.337  c48.5-1.793,95.466,14.506,132.258,45.895c3.15,2.688,7.885,2.313,10.573-0.838s2.313-7.885-0.838-10.573  c-39.66-33.836-90.282-51.411-142.547-49.473c-52.557,1.943-101.996,23.508-139.208,60.72s-58.777,86.651-60.72,139.208  c-1.933,52.263,15.637,102.888,49.473,142.547c1.483,1.739,3.589,2.632,5.709,2.632c1.722,0,3.452-0.589,4.864-1.794  c3.151-2.688,3.526-7.422,0.838-10.573C77.766,344.218,61.466,297.249,63.26,248.752z" fill="#000000" data-original="#000000" class=""></path> <path xmlns="http://www.w3.org/2000/svg" d="M414.257,121.254c-2.688-3.151-7.422-3.527-10.573-0.838c-3.151,2.688-3.526,7.422-0.838,10.573  c31.389,36.792,47.688,83.762,45.895,132.258c-1.803,48.761-21.811,94.629-56.337,129.156s-80.395,54.534-129.156,56.337  c-48.492,1.795-95.466-14.505-132.258-45.895c-3.15-2.688-7.885-2.313-10.573,0.838c-2.688,3.151-2.313,7.885,0.838,10.573  c37.687,32.153,85.273,49.617,134.76,49.617c2.59,0,5.188-0.048,7.788-0.144c52.557-1.943,101.996-23.508,139.208-60.72  s58.777-86.651,60.72-139.208C465.663,211.539,448.093,160.914,414.257,121.254z" fill="#000000" data-original="#000000" class=""></path> <g xmlns="http://www.w3.org/2000/svg"> </g> <g xmlns="http://www.w3.org/2000/svg"> </g> <g xmlns="http://www.w3.org/2000/svg"> </g> <g xmlns="http://www.w3.org/2000/svg"> </g> <g xmlns="http://www.w3.org/2000/svg"> </g> <g xmlns="http://www.w3.org/2000/svg"> </g> <g xmlns="http://www.w3.org/2000/svg"> </g> <g xmlns="http://www.w3.org/2000/svg"> </g> <g xmlns="http://www.w3.org/2000/svg"> </g> <g xmlns="http://www.w3.org/2000/svg"> </g> <g xmlns="http://www.w3.org/2000/svg"> </g> <g xmlns="http://www.w3.org/2000/svg"> </g> <g xmlns="http://www.w3.org/2000/svg"> </g> <g xmlns="http://www.w3.org/2000/svg"> </g> <g xmlns="http://www.w3.org/2000/svg"> </g> </g></svg>