<svg xmlns="http://www.w3.org/2000/svg" version="1.1" xmlns:xlink="http://www.w3.org/1999/xlink" xmlns:svgjs="http://svgjs.com/svgjs" width="512" height="512" x="0" y="0" viewBox="0 0 512.016 512.016" style="enable-background:new 0 0 512 512" xml:space="preserve" class=""><g><g xmlns="http://www.w3.org/2000/svg"><g><path clip-rule="evenodd" d="m8.95 78.255c-4.878 25.733 2.625 53.401 22.481 73.213 24.877 24.822 62.107 30.287 92.404 16.396l32.922 32.849h43.849l-1.712-45.658-31.096-31.056c13.922-30.23 8.444-67.377-16.433-92.199-19.856-19.812-47.586-27.298-73.376-22.431-27.074 5.095-6.59 19.328-3.68 22.231l34.833 34.756c12.182 12.155 12.695 31.71 1.512 44.491-12.809 11.158-32.409 10.646-44.59-1.509l-34.833-34.755c-2.91-2.903-17.175-23.341-22.281 3.672z" fill="#c1eaf4" fill-rule="evenodd" data-original="#c1eaf4" class=""></path></g><g><path clip-rule="evenodd" d="m220.119 263.905 18.116 53.401 81.392 45.914 24.592 24.537c-13.922 30.23-8.444 67.377 16.432 92.199 19.856 19.812 47.586 27.298 73.376 22.431 27.074-5.095 6.59-19.328 3.68-22.231l-34.833-34.756c-12.182-12.155-12.695-31.71-1.512-44.491 12.809-11.158 32.409-10.646 44.59 1.509l34.834 34.756c2.91 2.903 17.174 23.342 22.281-3.672 4.878-25.733-2.625-53.401-22.481-73.213-24.877-24.822-62.107-30.287-92.404-16.396l-25.333-25.277c-7.96 2.106-16.775.057-22.966-6.12-9.243-9.223-9.243-24.309 0-33.532l14.92-14.916c-10.556 10.532-27.844 10.532-38.4 0-8.53-8.511-10.185-21.406-4.907-31.625-9.643 12.525-56.059-32.82-58.056-34.813-20.141-16.14-75.087 20.865-33.321 66.295z" fill="#c1eaf4" fill-rule="evenodd" data-original="#c1eaf4" class=""></path></g><g><path clip-rule="evenodd" d="m339.882 278.964c-9.243 9.223-9.243 24.309 0 33.532 6.191 6.177 15.006 8.226 22.966 6.12 3.908-1.025 7.589-3.074 10.641-6.12l35.946-35.866c9.243-9.223 9.243-24.309 0-33.532s-24.363-9.223-33.635 0l-.542.541-20.455 20.41z" fill="#fed1a3" fill-rule="evenodd" data-original="#fed1a3" class=""></path></g><g><path clip-rule="evenodd" d="m285.735 179.705-7.817 7.8-4.878 7.088c-10.898 15.77 15.035 46.996 39.341 36.265l21.853-5.579 3.167-20.495 7.189-7.173c10.556-10.532 10.556-27.782 0-38.314s-27.844-10.532-38.4 0l-14.15 14.119z" fill="#fed1a3" fill-rule="evenodd" data-original="#fed1a3" class=""></path></g><g><path clip-rule="evenodd" d="m267.79 120.981-28.272 28.209c-19.542 19.499 10.727 51.522 38.4 38.314l22.709-6.775 5.563-21.434c10.556-10.532 10.556-27.782 0-38.314s-27.844-10.532-38.4 0z" fill="#fed1a3" fill-rule="evenodd" data-original="#fed1a3" class=""></path></g><g><path clip-rule="evenodd" d="m151.251 227.954c1.284 21.178-8.587 42.584-37.858 71.761l-31.781 31.71 17.574 69.825 88.068 35.582 50.952-50.839c19.086-19.043 22.794-14.944 45.332-11.728 10.099 1.452 24.506-3.928 36.089-11.045l-99.508-99.315c12.182-19.214 13.408-41.36 1.997-55.223-.143-.171-.029-.256.086-.142 5.107 5.095 17.26 17.221 17.659 17.62 16.917 16.311 53.263 30.145 71.635 6.262.285-.512.571-1.053.884-1.566 2.767-7.429-10.441-19.356-23.993-32.906l-10.47-10.447-38.4-38.314-7.075-7.059c-5.649-5.636-14.949-5.636-20.626.028l-12.923 12.895-33.264 33.19c-3.652 3.644-6.619 7.885-8.872 12.468-4.222 8.541-6.048 18.219-5.506 27.243z" fill="#ffe5c1" fill-rule="evenodd" data-original="#ffe5c1" class=""></path></g><g><path clip-rule="evenodd" d="m131.908 47.997c23.65 23.598 26.56 55.166 15.12 84.542-2.054 5.209.941 7.316 4.964 11.329l27.445 27.355.114 3.131 19.342-19.299-31.096-31.056c13.922-30.23 8.444-67.377-16.433-92.199-19.855-19.812-47.585-27.298-73.375-22.431-16.689 3.131-15.32 9.764-11.097 15.058 23.279-1.992 47.272 5.893 65.016 23.57z" fill="#99cfe0" fill-rule="evenodd" data-original="#99cfe0"></path></g><g><path clip-rule="evenodd" d="m264.082 173.699 13.836 13.806 7.817-7.8 6.305-6.291 14.15-14.119c10.556-10.532 10.556-27.782 0-38.314-4.336-4.298-9.757-6.832-15.405-7.629 8.33 10.618 7.589 26.103-2.168 35.866l-14.15 14.09z" fill="#ffbc85" fill-rule="evenodd" data-original="#ffbc85" class=""></path></g><g><path clip-rule="evenodd" d="m326.217 185.797-25.048 24.992c7.76 8.113 13.066 15.115 11.212 20.068 1.113-1.822 2.453-3.558 4.023-5.124l28.186-28.124c10.556-10.532 10.556-27.782 0-38.314-4.194-4.156-9.443-6.689-14.892-7.543 6.904 10.476 5.762 24.822-3.481 34.045z" fill="#ffbc85" fill-rule="evenodd" data-original="#ffbc85" class=""></path></g><g><path clip-rule="evenodd" d="m334.861 305.123c1.141 2.676 2.824 5.181 5.021 7.372 6.191 6.177 15.006 8.226 22.966 6.12 3.908-1.025 7.589-3.074 10.641-6.12l35.946-35.866c9.243-9.223 9.243-24.309 0-33.532-3.338-3.33-7.417-5.465-11.725-6.376 3.709 8.653 2.054 19.129-5.021 26.16l-35.946 35.866c-3.024 3.046-6.733 5.095-10.641 6.12-3.681.968-7.532 1.053-11.241.256z" fill="#ffbc85" fill-rule="evenodd" data-original="#ffbc85" class=""></path></g><g><path clip-rule="evenodd" d="m390.606 367.604c53.662-14.773 90.664 13.891 112.46 65.897 4.878-25.733-2.625-53.401-22.481-73.213-24.877-24.822-62.107-30.287-92.404-16.396l-25.333-25.277c-7.96 2.106-16.775.057-22.966-6.12-2.197-2.192-3.88-4.697-5.021-7.372-3.709-8.653-2.054-19.129 5.021-26.16l14.92-14.916c-10.556 10.532-27.844 10.532-38.4 0-1.426-1.423-2.653-2.932-3.68-4.554-5.221-8.17-5.62-18.559-1.227-27.07-18.372 23.882-87.811-23.285-71.635-6.262l125.041 131.367c13.466 14.147 8.731 14.745 25.705 10.076z" fill="#99cfe0" fill-rule="evenodd" data-original="#99cfe0"></path></g><g><path clip-rule="evenodd" d="m239.861 226.16c16.917 16.311 53.263 30.145 71.635 6.262.285-.512.571-1.053.884-1.566 1.854-4.953-3.452-11.955-11.212-20.068-6.875 5.864-15.348 8.027-24.107 7.714-.371-.028-.713-.028-1.084-.057-15.548-.939-31.867-9.564-41.652-19.015-.114-.114-1.598-1.594-3.68-3.672-2.511-2.476-2.853-2.875-5.905-5.892-1.854-2.306-5.399-.419-5.983.741-2.053 4.082-1.935 5.806-1.25 10.104.571 3.729 3.324 6.49 4.779 7.828 5.764 5.723 17.232 17.28 17.575 17.621z" fill="#fed1a3" fill-rule="evenodd" data-original="#fed1a3" class=""></path></g><g><path clip-rule="evenodd" d="m19.192 393.707 105.642 105.407c2.653 2.647 5.991 4.241 9.443 4.754h5.278c3.48-.512 6.79-2.106 9.443-4.754l38.257-38.172c6.647-6.632 6.647-17.478 0-24.11l-105.643-105.407c-6.647-6.632-17.517-6.632-24.164 0l-38.257 38.172c-6.647 6.632-6.647 17.477.001 24.11z" fill="#6bd9e7" fill-rule="evenodd" data-original="#6bd9e7"></path></g><g><path clip-rule="evenodd" d="m94.45 468.798 30.383 30.315c2.653 2.647 5.991 4.241 9.443 4.754h5.278c3.48-.512 6.79-2.106 9.443-4.754l38.257-38.172c6.647-6.632 6.647-17.478 0-24.11l-30.412-30.344c6.647 6.632 6.647 17.478 0 24.11l-38.257 38.172c-2.653 2.647-5.962 4.241-9.414 4.782h-5.306c-3.452-.54-6.762-2.134-9.415-4.753z" fill="#00c7dd" fill-rule="evenodd" data-original="#00c7dd"></path></g><g><path clip-rule="evenodd" d="m214.756 362.623-50.952 50.839 23.451 23.37 50.952-50.839c19.086-19.043 22.794-14.944 45.332-11.728 10.099 1.452 24.506-3.928 36.089-11.045l-23.422-23.398c-2.938 1.793-6.048 3.501-9.215 4.981-9.386 4.412-19.342 7.145-26.903 6.063-22.509-3.216-26.247-7.286-45.332 11.757z" fill="#fed1a3" fill-rule="evenodd" data-original="#fed1a3" class=""></path></g><g><path clip-rule="evenodd" d="m304.336 239.596c-5.278 10.191-3.652 23.085 4.907 31.596 10.556 10.561 27.844 10.561 38.4 0l19.571-6.632 8.587-21.463c10.584-10.532 10.584-27.782 0-38.314-10.556-10.532-27.844-10.532-38.4 0l-28.158 28.095c-1.598 1.594-2.938 3.302-4.051 5.152-.2.541-.486 1.054-.856 1.566z" fill="#fed1a3" fill-rule="evenodd" data-original="#fed1a3" class=""></path></g><g><path clip-rule="evenodd" d="m359.168 196.984c6.704 10.475 5.477 24.622-3.68 33.76l-28.158 28.124c-5.934 5.892-13.979 8.511-21.767 7.771 1.027 1.623 2.254 3.16 3.68 4.554 10.556 10.561 27.844 10.561 38.4 0l28.158-28.095c10.584-10.532 10.584-27.782 0-38.314-4.623-4.641-10.528-7.231-16.633-7.8z" fill="#ffbc85" fill-rule="evenodd" data-original="#ffbc85" class=""></path></g><path d="m485.883 354.979c-25.098-25.042-63.07-32.754-95.975-19.958l-14.406-14.374c1.143-.861 2.244-1.804 3.285-2.843l35.944-35.866c5.892-5.878 9.136-13.718 9.136-22.076s-3.244-16.198-9.136-22.076h.001c-6.532-6.517-15.257-9.539-23.826-9.074.214-1.569.33-3.162.33-4.774 0-9.267-3.601-17.956-10.14-24.466-6.344-6.329-14.555-9.685-22.88-10.07 3.97-12.048 1.18-25.904-8.33-35.418-7.775-7.758-18.355-11.041-28.513-9.867.148-1.312.233-2.639.233-3.98 0-9.267-3.594-17.956-10.119-24.467-13.508-13.478-35.487-13.477-48.995 0l-22.974 22.923-1.778-1.774c-8.598-8.58-22.604-8.568-31.22.029l-7.624 7.607-22.219-22.189c12.82-32.846 5.085-70.732-20.016-95.777-20.898-20.852-50.832-30.008-80.058-24.49-4.183.787-16.91 3.182-19.522 12.92-2.554 9.524 6.528 17.331 10.894 21.083.442.38 35.871 35.664 35.871 35.664 9.199 9.179 9.817 23.953 1.496 33.857-9.938 8.313-24.767 7.699-33.979-1.493 0 0-35.362-35.351-35.744-35.793-3.761-4.355-11.591-13.413-21.115-10.856-9.736 2.618-12.136 15.31-12.924 19.477-5.531 29.184 3.647 59.06 24.553 79.919 25.098 25.041 63.069 32.753 95.975 19.958l25.724 25.666c-3.14 8.112-4.604 17.04-4.067 26.006 1.22 20.123-9.447 39.86-35.67 65.999l-27.315 27.254c-9.245-4.742-20.893-3.263-28.629 4.455l-38.256 38.171c-4.636 4.625-7.188 10.792-7.188 17.365s2.553 12.74 7.187 17.364l105.643 105.407c4.791 4.78 11.085 7.17 17.379 7.17s12.588-2.39 17.38-7.171l38.256-38.171c4.636-4.625 7.188-10.792 7.188-17.365 0-3.974-.939-7.797-2.701-11.223l46.465-46.362c13.773-13.741 16.011-13.369 30.599-10.934 2.455.41 5.238.875 8.369 1.321 12.734 1.829 27.52-4.641 35.91-9.122l16.956 16.923c-4.476 11.485-6.554 23.977-6.029 36.442.169 4.031 3.49 7.185 7.487 7.185.106 0 .214-.002.321-.007 4.138-.174 7.352-3.669 7.178-7.808-.499-11.882 1.829-23.777 6.734-34.399 1.318-2.856.715-6.231-1.512-8.453l-120.013-119.773c4.881-9.197 7.644-18.979 7.948-28.583 8.638 7.426 20 13.476 31.108 16.462 9.096 2.445 17.607 2.843 25.25 1.261-.001.085-.006.169-.006.254.006 9.254 3.609 17.934 10.133 24.425 6.137 6.139 14.203 9.681 22.865 10.078-.891 2.927-1.353 6.005-1.353 9.156 0 8.358 3.244 16.198 9.135 22.075 6.094 6.08 14.096 9.12 22.101 9.119 1.219 0 2.437-.079 3.65-.221l22.548 22.498c2.218 2.213 5.577 2.814 8.424 1.508 28.299-12.975 62.05-6.993 83.98 14.888 17.387 17.347 25.017 42.209 20.41 66.51-.771 4.071-1.645 6.203-2.208 7.245-1.078-.707-2.847-2.289-5.738-5.638-.649-.752-36.503-36.607-36.503-36.607-14.881-14.85-38.958-15.665-54.813-1.854-.255.223-.494.461-.718.716-13.854 15.832-13.037 39.876 1.859 54.739l42.315 42.112c-1.054.564-3.194 1.432-7.256 2.197-24.366 4.595-49.296-3.016-66.675-20.358-5.513-5.525-10.093-11.808-13.613-18.676-1.89-3.687-6.408-5.142-10.096-3.253-3.686 1.89-5.142 6.41-3.252 10.096 4.231 8.254 9.729 15.8 16.354 22.439 16.893 16.855 39.685 26.069 63.238 26.068 5.587 0 11.218-.519 16.821-1.576 4.183-.787 16.91-3.182 19.522-12.92 2.554-9.523-6.528-17.331-10.894-21.083-.442-.38-35.871-35.664-35.871-35.664-9.199-9.179-9.817-23.953-1.496-33.857 9.938-8.313 24.767-7.698 33.979 1.493 0 0 35.362 35.351 35.744 35.793 3.762 4.356 11.597 13.417 21.115 10.856 9.734-2.618 12.134-15.31 12.922-19.477 5.534-29.181-3.645-59.057-24.55-79.917zm-146.599-190.381c7.511 7.513 7.629 19.809.274 27.437l-24.108 24.055c-4.139-5.997-26.913-28.585-26.913-28.585l22.95-22.9c7.667-7.65 20.14-7.648 27.797-.007zm-66.196-38.307c7.666-7.649 20.142-7.647 27.804 0 3.686 3.677 5.715 8.595 5.715 13.848s-2.029 10.171-5.715 13.848l-22.974 22.923-27.781-27.719zm-143.956 36.264c-2.216-2.212-5.574-2.813-8.423-1.508-28.302 12.974-62.051 6.993-83.98-14.888-17.387-17.347-25.017-42.209-20.41-66.51.771-4.071 1.645-6.203 2.208-7.245 1.078.707 2.847 2.289 5.738 5.638.649.752 36.503 36.607 36.503 36.607 14.883 14.851 38.959 15.666 54.813 1.854.255-.222.494-.462.718-.716 13.854-15.832 13.037-39.876-1.859-54.739 0 0-41.6-41.035-42.315-42.112 1.054-.564 3.194-1.432 7.256-2.197 24.363-4.598 49.295 3.016 66.687 20.37 21.921 21.872 27.916 55.529 14.918 83.752-1.314 2.854-.71 6.224 1.513 8.444l25.781 25.747-27.947 27.884c-1.795 1.792-3.445 3.736-4.974 5.785zm174.813 65.014c-1.942 1.938-3.618 4.071-5.025 6.349-15.976 9.899-41.237-1.005-53.808-13.114l-1.559-1.553c-11.491-11.452-17.603-17.549-18.167-18.127-.01-.01-.02-.018-.03-.028-.028-.028-.054-.058-.082-.086-.04-.04-.08-.069-.12-.105-2.868-2.746-7.413-2.794-10.331-.036-3.01 2.846-3.142 7.593-.296 10.603.027.028.072.075.151.155 5.119 5.108 7.825 12.263 7.825 20.691 0 13.258-6.775 27.933-18.124 39.256-2.932 2.926-2.937 7.674-.012 10.606 1.466 1.468 3.388 2.203 5.31 2.203 1.917 0 3.834-.73 5.298-2.191 2.173-2.168 4.187-4.436 6.072-6.767l86.16 85.988c-8.734 4.099-17.188 6.205-22.61 5.425-2.963-.423-5.653-.872-8.026-1.268-17.379-2.9-25.167-3.343-43.663 15.111l-45.654 45.553-37.724-37.639c-2.932-2.926-7.681-2.921-10.606.012-2.926 2.932-2.92 7.681.013 10.606l43.005 42.909c.001.001.003.003.004.005l.005.005.008.008c1.794 1.79 2.782 4.186 2.782 6.746s-.988 4.956-2.783 6.746l-38.258 38.172c-3.742 3.733-9.829 3.732-13.569 0l-105.642-105.406c-1.794-1.791-2.782-4.187-2.782-6.746s.988-4.956 2.783-6.746l38.256-38.172c3.742-3.732 9.829-3.731 13.569 0l37.829 37.745c2.933 2.925 7.681 2.921 10.607-.012 2.926-2.932 2.92-7.681-.012-10.606l-32.509-32.436 26.457-26.399c29.578-29.484 41.556-52.669 40.05-77.521-.759-12.682 3.912-25.692 12.188-33.952l46.189-46.085c2.726-2.722 7.32-2.733 10.03-.029l7.063 7.047 48.88 48.772c1.319 1.316 2.635 2.618 3.933 3.902 6.212 6.145 15.167 15.005 17.602 19.729zm24.498 44.044c-5.272 0-10.207-2.032-13.91-5.737-3.69-3.672-5.725-8.579-5.729-13.816-.003-5.251 2.034-10.178 5.735-13.872l28.159-28.095c3.832-3.824 8.867-5.736 13.901-5.736 5.035 0 10.07 1.912 13.902 5.736.003.002.005.005.008.007 3.693 3.676 5.728 8.591 5.728 13.841 0 5.246-2.032 10.159-5.729 13.842-.003.003-.006.005-.008.008l-28.163 28.1c-3.688 3.69-8.623 5.722-13.894 5.722zm16.737 35.574c-3.051-3.043-4.73-7.112-4.73-11.457s1.68-8.414 4.732-11.459l35.916-35.864c3.176-3.169 7.348-4.753 11.52-4.753s8.344 1.584 11.52 4.753h.001c3.05 3.043 4.729 7.112 4.729 11.457s-1.68 8.414-4.73 11.457l-35.944 35.866c-6.347 6.33-16.672 6.329-23.014 0z" fill="#000000" data-original="#000000" class=""></path></g></g></svg>