<svg height="512pt" viewBox="0 0 512.00125 512" width="512pt" xmlns="http://www.w3.org/2000/svg"><path d="m247.210938 183.230469c23.226562 6.75 43.128906 20.253906 57.472656 37.105469.011718 0 .023437.007812.023437.019531 2.640625 3.082031 5.21875 6.40625 7.40625 9.558593v.007813c2.082031 2.953125 4.714844 7.179687 6.050781 9.628906.007813.011719.019532.023438.019532.03125 4.402344 7.800781 8.085937 16.488281 10.730468 25.667969.007813 0 0 .007812 0 .007812 11.75 41.019532 1.164063 86.355469-30.488281 118.007813l-83.570312 83.5625c-46.855469 46.863281-122.828125 46.863281-169.679688 0-46.867187-46.867187-46.859375-122.824219 0-169.683594l83.558594-83.570312c15.457031-15.445313 34.066406-25.804688 53.765625-31.066407-2.710938 10.160157-4.070312 20.617188-4.070312 31.066407 0 11.179687 1.550781 22.347656 4.660156 33.175781-4.261719 2.511719-8.28125 5.589844-11.929688 9.25l-83.570312 83.5625c-23.386719 23.394531-23.386719 61.453125 0 84.847656 23.398437 23.386719 61.453125 23.386719 84.851562 0l83.558594-83.570312c23.398438-23.394532 23.394531-61.445313 0-84.839844-19.738281-19.738281-22.828125-49.914062-9.25-72.910156.152344.039062.3125.089844.460938.140625zm0 0" fill="#ffe470"/><path d="m466.828125 45.175781c-46.855469-46.867187-122.828125-46.867187-169.683594 0l-83.570312 83.558594c-46.761719 46.761719-46.96875 122.722656 0 169.691406 14.910156 14.898438 32.757812 25.066407 51.675781 30.488281 13.578125-23 10.488281-53.175781-9.25-72.914062-23.398438-23.398438-23.394531-61.449219 0-84.839844l85.0625-85.058594.027344.019532c23.378906-21.859375 60.390625-21.464844 83.320312 1.46875 23.390625 23.398437 23.390625 61.453125 0 84.851562l-83.570312 83.558594c-3.625 3.625-7.550782 6.65625-11.925782 9.257812 3.097657 10.820313 4.65625 22 4.65625 33.167969 0 10.449219-1.359374 20.90625-4.066406 31.066407 19.695313-5.257813 38.304688-15.617188 53.761719-31.066407l83.5625-83.570312c46.863281-46.867188 46.855469-122.824219 0-169.679688zm0 0" fill="#94e1ff"/><path d="m290.074219 38.101562-83.566407 83.5625c-15.28125 15.285157-25.949218 33.460938-32.015624 52.78125-19.839844 6.25-38.015626 17.25-52.828126 32.0625l-83.5625 83.566407c-50.796874 50.796875-50.804687 133.019531 0 183.824219 50.796876 50.800781 133.023438 50.804687 183.828126 0l83.5625-83.5625c15.285156-15.28125 25.949218-33.457032 32.015624-52.78125 19.84375-6.246094 38.015626-17.25 52.828126-32.0625l83.5625-83.5625c50.800781-50.800782 50.808593-133.023438 0-183.828126-50.796876-50.796874-133.019532-50.804687-183.824219 0zm-111.839844 224.964844c6.332031 15.445313 15.753906 29.90625 28.273437 42.425782 12.164063 12.160156 26.636719 21.773437 42.417969 28.285156l-83.558593 83.5625c-19.492188 19.488281-51.210938 19.492187-70.703126 0-19.492187-19.496094-19.492187-51.210938 0-70.703125l83.5625-83.566407c.003907 0 .003907 0 .007813-.003906zm113.117187 113.128906-83.566406 83.5625c-42.980468 42.984376-112.554687 42.988282-155.542968 0-42.984376-42.980468-42.988282-112.558593 0-155.542968l83.5625-83.566406c9.734374-9.734376 21.183593-17.519532 33.664062-22.992188-1.863281 15.238281-1.011719 30.296875 2.234375 44.6875-2.6875 2.007812-5.234375 4.203125-7.617187 6.585938l-83.5625 83.5625c-27.289063 27.292968-27.289063 71.695312 0 98.984374 27.289062 27.289063 71.691406 27.289063 98.984374 0l83.5625-83.5625c27.316407-27.320312 27.320313-71.664062 0-98.984374-14.59375-14.59375-18.148437-35.8125-11.183593-53.621094 14.734375 5.480468 28.257812 14.132812 39.464843 25.339844 42.882813 42.882812 42.886719 112.660156 0 155.546874zm168.40625-168.410156-83.5625 83.566406c-9.734374 9.734376-21.183593 17.519532-33.664062 22.992188 1.863281-15.238281 1.011719-30.296875-2.230469-44.6875 2.683594-2.007812 5.234375-4.203125 7.613281-6.585938l83.566407-83.5625c27.289062-27.289062 27.289062-71.695312 0-98.984374-24.503907-24.5-62.828125-27.027344-90.183594-7.464844-4.492187 3.210937-5.527344 9.457031-2.316406 13.949218 3.210937 4.492188 9.457031 5.53125 13.949219 2.316407 19.957031-14.269531 47.042968-12.027344 64.410156 5.339843 19.492187 19.492188 19.492187 51.207032 0 70.703126l-83.566406 83.5625s0 0-.003907.003906c-6.335937-15.445313-15.757812-29.90625-28.277343-42.425782-12.160157-12.160156-26.636719-21.773437-42.417969-28.285156l34.070312-34.070312c3.902344-3.902344 3.902344-10.234375 0-14.140625-3.90625-3.902344-10.234375-3.902344-14.140625 0l-34.074218 34.074219c-27.316407 27.316406-27.320313 71.660156 0 98.984374 14.59375 14.589844 18.148437 35.8125 11.183593 53.621094-14.734375-5.480468-28.257812-14.132812-39.464843-25.34375-42.878907-42.878906-42.882813-112.660156 0-155.542968l83.566406-83.5625c42.980468-42.984376 112.558594-42.992188 155.542968 0 42.984376 42.980468 42.988282 112.558593 0 155.542968zm0 0"/><path d="m328.351562 108.804688c0 5.523437-4.476562 10-9.996093 10-5.523438 0-10-4.476563-10-10 0-5.523438 4.476562-10 10-10 5.519531 0 9.996093 4.476562 9.996093 10zm0 0"/><path d="m135.804688 135.804688c3.90625-3.902344 3.90625-10.234376 0-14.140626l-42.421876-42.421874c-3.90625-3.902344-10.234374-3.902344-14.140624 0-3.902344 3.90625-3.902344 10.238281 0 14.144531l42.421874 42.421875c3.910157 3.902344 10.238282 3.902344 14.140626-.003906zm0 0"/><path d="m38.023438 168.011719c-5.519532 0-9.996094 4.476562-9.996094 9.996093 0 5.523438 4.476562 10 9.996094 10h59.996093c5.519531 0 9.996094-4.476562 9.996094-10 0-5.519531-4.476563-9.996093-9.996094-9.996093zm0 0"/><path d="m168.011719 35.027344v59.992187c0 5.519531 4.476562 10 9.996093 10 5.523438 0 10-4.480469 10-10v-59.992187c0-5.523438-4.476562-10-10-10-5.519531 0-9.996093 4.476562-9.996093 10zm0 0"/><path d="m376.195312 376.195312c-3.90625 3.902344-3.90625 10.234376 0 14.140626l42.421876 42.421874c1.953124 1.953126 4.511718 2.929688 7.070312 2.929688 8.824219 0 13.390625-10.746094 7.070312-17.070312l-42.421874-42.421876c-3.90625-3.902343-10.234376-3.902343-14.140626 0zm0 0"/><path d="m342.992188 476.976562v-59.996093c0-5.519531-4.480469-9.996094-10-9.996094-5.523438 0-10 4.476563-10 9.996094v59.996093c0 5.519532 4.476562 9.996094 10 9.996094 5.519531 0 10-4.476562 10-9.996094zm0 0"/><path d="m476.976562 342.992188c5.519532 0 9.996094-4.480469 9.996094-10 0-5.523438-4.476562-10-9.996094-10h-59.996093c-5.519531 0-9.996094 4.476562-9.996094 10 0 5.519531 4.476563 10 9.996094 10zm0 0"/></svg>