<svg id="Capa_1" enable-background="new 0 0 510.605 510.605" height="512" viewBox="0 0 510.605 510.605" width="512" xmlns="http://www.w3.org/2000/svg"><g><g><circle cx="255.303" cy="255.303" fill="#9be5fb" r="204.284"/><path d="m125.64 255.303c0-100.079 71.982-183.347 166.986-200.882-12.098-2.233-24.579-3.402-37.323-3.402-112.823 0-204.284 91.461-204.284 204.284s91.461 204.284 204.284 204.284c12.744 0 25.212-1.166 37.311-3.399-95.005-17.536-166.974-100.807-166.974-200.885z" fill="#65daf9"/><g><path d="m281.39 340.634c-28.231 0-56.462-10.746-77.955-32.237-7.811-7.811-7.811-20.474 0-28.284s20.474-7.812 28.284-.001c27.389 27.39 71.953 27.388 99.341 0l111.526-111.526c27.388-27.388 27.388-71.953 0-99.342-27.389-27.389-71.954-27.389-99.342.001l-52.758 52.758c-7.811 7.811-20.474 7.811-28.284 0s-7.811-20.475 0-28.285l52.758-52.758c42.984-42.984 112.926-42.984 155.91 0 42.984 42.985 42.984 112.926 0 155.91l-111.525 111.526c-21.492 21.492-49.724 32.238-77.955 32.238z" fill="#fd828a"/></g><g><path d="m117.689 501.885c-28.231 0-56.463-10.746-77.955-32.238-42.984-42.985-42.984-112.926 0-155.91l111.526-111.527c42.984-42.981 112.925-42.982 155.91 0 7.811 7.811 7.811 20.474 0 28.284s-20.474 7.812-28.284.001c-27.389-27.39-71.953-27.388-99.341 0l-111.526 111.526c-27.388 27.388-27.388 71.953 0 99.342 27.388 27.388 71.953 27.389 99.342-.001l52.758-52.758c7.811-7.811 20.474-7.811 28.284 0s7.811 20.475 0 28.285l-52.758 52.758c-21.493 21.492-49.724 32.238-77.956 32.238z" fill="#fee565"/></g></g><g><path d="m248.845 107.859c0 7.346 2.86 14.252 8.055 19.446 5.194 5.193 12.1 8.055 19.445 8.055s14.251-2.861 19.445-8.055l52.758-52.759c11.83-11.83 27.586-18.345 44.367-18.345s32.538 6.515 44.368 18.345c11.83 11.829 18.344 27.586 18.344 44.367s-6.515 32.538-18.344 44.367l-111.526 111.528c-24.464 24.466-64.27 24.467-88.735 0-5.194-5.193-12.1-8.054-19.446-8.054-7.345 0-14.251 2.861-19.445 8.055s-8.055 12.101-8.055 19.445c0 7.346 2.86 14.252 8.055 19.446 22.206 22.205 51.774 34.434 83.258 34.434s61.052-12.229 83.258-34.435l16.273-16.273c2.929-2.929 2.929-7.677 0-10.606-2.929-2.928-7.678-2.928-10.606 0l-16.273 16.273c-19.373 19.372-45.174 30.041-72.652 30.041-27.477 0-53.278-10.669-72.651-30.041-2.361-2.36-3.661-5.5-3.661-8.839 0-3.338 1.3-6.478 3.661-8.838 4.875-4.874 12.805-4.875 17.678-.001 15.158 15.158 35.062 22.736 54.973 22.734 19.906-.002 39.82-7.58 54.975-22.734l111.526-111.526c14.663-14.663 22.738-34.187 22.738-54.975 0-20.787-8.075-40.312-22.738-54.975s-34.187-22.738-54.975-22.737c-20.788 0-40.311 8.075-54.974 22.738l-52.758 52.758c-2.361 2.361-5.5 3.662-8.839 3.662s-6.478-1.301-8.839-3.662c-4.874-4.874-4.874-12.804 0-17.678l52.758-52.758c19.373-19.373 45.174-30.042 72.652-30.042s53.279 10.669 72.652 30.042c40.06 40.061 40.06 105.243 0 145.303l-72.653 72.653c-2.929 2.93-2.929 7.678 0 10.607 2.929 2.928 7.678 2.928 10.606 0l72.653-72.653c45.908-45.909 45.908-120.607 0-166.518-22.204-22.204-51.773-34.433-83.257-34.433s-61.053 12.229-83.258 34.435l-52.758 52.757c-5.194 5.194-8.055 12.101-8.055 19.446z"/><path d="m253.706 383.3c-5.194-5.193-12.1-8.055-19.445-8.055s-14.251 2.861-19.445 8.055l-52.758 52.758c-24.465 24.466-64.271 24.466-88.735.001-11.83-11.829-18.344-27.586-18.344-44.367s6.515-32.538 18.344-44.367l111.526-111.526c24.465-24.467 64.271-24.466 88.735 0 5.194 5.193 12.1 8.054 19.446 8.054 7.345 0 14.251-2.861 19.445-8.055s8.055-12.101 8.055-19.445c0-7.346-2.86-14.252-8.055-19.446-45.909-45.906-120.607-45.905-166.516.001l-26.966 26.967c-2.929 2.929-2.929 7.677 0 10.606 2.929 2.928 7.678 2.929 10.606-.001l26.966-26.966c40.061-40.058 105.244-40.06 145.303 0 2.361 2.36 3.661 5.5 3.661 8.839 0 3.338-1.3 6.478-3.661 8.838-2.361 2.361-5.5 3.662-8.839 3.662-3.338 0-6.478-1.3-8.838-3.661-30.312-30.313-79.634-30.313-109.948 0l-111.528 111.525c-14.663 14.663-22.738 34.187-22.738 54.975 0 20.787 8.075 40.312 22.738 54.975 30.313 30.312 79.635 30.313 109.948-.001l52.758-52.758c4.874-4.875 12.804-4.875 17.678 0 4.874 4.874 4.874 12.804 0 17.678l-52.758 52.758c-19.373 19.373-45.174 30.042-72.652 30.042s-53.279-10.669-72.652-30.042c-40.06-40.061-40.06-105.243 0-145.303l61.959-61.96c2.929-2.93 2.929-7.678 0-10.607-2.929-2.928-7.678-2.928-10.606 0l-61.959 61.96c-45.908 45.909-45.908 120.607 0 166.518 22.206 22.205 51.774 34.435 83.258 34.435s61.053-12.229 83.258-34.435l52.758-52.758c10.723-10.724 10.723-28.172.001-38.894z"/><path d="m209.96 63.578c.549 0 1.107-.061 1.665-.188 14.266-3.232 28.961-4.872 43.678-4.872 4.142 0 7.5-3.357 7.5-7.5s-3.358-7.5-7.5-7.5c-15.831 0-31.641 1.764-46.993 5.243-4.04.915-6.572 4.933-5.657 8.972.789 3.483 3.882 5.845 7.307 5.845z"/><path d="m51.019 262.803c4.142 0 7.5-3.357 7.5-7.5 0-40.069 11.968-78.621 34.611-111.487 22.124-32.112 52.873-56.733 88.924-71.203 3.844-1.542 5.709-5.909 4.167-9.754-1.543-3.843-5.91-5.712-9.754-4.166-38.798 15.571-71.887 42.063-95.689 76.613-24.375 35.38-37.259 76.875-37.259 119.997 0 4.142 3.357 7.5 7.5 7.5z"/><path d="m467.087 255.303c0-4.143-3.358-7.5-7.5-7.5s-7.5 3.357-7.5 7.5c0 108.507-88.277 196.784-196.784 196.784-4.142 0-7.5 3.357-7.5 7.5s3.358 7.5 7.5 7.5c116.778 0 211.784-95.006 211.784-211.784z"/><path d="m57.41 75.003c1.464 1.464 3.384 2.196 5.303 2.196s3.839-.732 5.303-2.196c2.929-2.93 2.929-7.678 0-10.607l-14.77-14.77c-2.929-2.928-7.678-2.928-10.606 0-2.929 2.93-2.929 7.678 0 10.607z"/><path d="m13.386 111.093 19.695 6.956c.826.291 1.669.43 2.498.43 3.09 0 5.984-1.925 7.072-5.004 1.379-3.906-.668-8.19-4.574-9.57l-19.695-6.956c-3.905-1.378-8.19.67-9.569 4.574-1.38 3.906.667 8.19 4.573 9.57z"/><path d="m101.225 45.634c1.092 3.072 3.982 4.989 7.067 4.989.834 0 1.682-.14 2.512-.436 3.903-1.387 5.942-5.676 4.555-9.579l-6.997-19.681c-1.387-3.903-5.676-5.944-9.579-4.554-3.903 1.387-5.942 5.676-4.555 9.579z"/><path d="m446.21 442.589c-2.929-2.928-7.678-2.928-10.606 0-2.929 2.93-2.929 7.678 0 10.607l14.77 14.77c1.464 1.464 3.384 2.196 5.303 2.196s3.839-.732 5.303-2.196c2.929-2.93 2.929-7.678 0-10.607z"/><path d="m406.701 472.529c-1.379-3.906-5.664-5.951-9.569-4.575-3.906 1.38-5.954 5.664-4.574 9.569l6.956 19.695c1.087 3.08 3.981 5.005 7.072 5.005.829 0 1.672-.139 2.498-.43 3.906-1.38 5.954-5.664 4.574-9.569z"/><path d="m489.677 402.244-19.681-6.996c-3.903-1.391-8.192.651-9.579 4.555-1.387 3.902.652 8.191 4.555 9.578l19.681 6.996c.831.296 1.678.436 2.512.436 3.084 0 5.975-1.918 7.067-4.99 1.387-3.903-.652-8.192-4.555-9.579z"/></g></g></svg>