<svg xmlns="http://www.w3.org/2000/svg" version="1.1" xmlns:xlink="http://www.w3.org/1999/xlink" xmlns:svgjs="http://svgjs.com/svgjs" width="512" height="512" x="0" y="0" viewBox="0 0 512.0005 512" style="enable-background:new 0 0 512 512" xml:space="preserve" class=""><g><path xmlns="http://www.w3.org/2000/svg" d="m10 359.003906v-261.003906l88-88h243.921875c11.042969 0 20 8.953125 20 20v412.003906c0 11.046875-8.957031 20-20 20h-311.921875c-11.046875 0-20-8.953125-20-20zm0 0" fill="#ffffff" data-original="#ffffff" class=""></path><path xmlns="http://www.w3.org/2000/svg" d="m10 98 88-88v69.378906c0 10.285156-8.335938 18.621094-18.625 18.621094zm0 0" fill="#ffedd1" data-original="#ffedd1"></path><path xmlns="http://www.w3.org/2000/svg" d="m348.503906 240.199219 22.800782-22.800781c29.859374-29.859376 78.445312-29.859376 108.304687 0 29.859375 29.859374 29.859375 78.445312 0 108.304687l-22.800781 22.800781c-29.859375 29.859375-78.445313 29.859375-108.304688 0-29.863281-29.859375-29.859375-78.445312 0-108.304687zm51.300782 5.699219-22.800782 22.800781c-14.144531 14.144531-14.144531 37.160156 0 51.304687 14.144532 14.144532 37.160156 14.144532 51.304688 0l22.800781-22.804687c14.144531-14.140625 14.144531-37.15625 0-51.300781-14.144531-14.144532-37.160156-14.144532-51.304687 0zm0 0" fill="#91def5" data-original="#91def5" class=""></path><path xmlns="http://www.w3.org/2000/svg" d="m217.398438 371.304688 22.800781-22.800782c29.859375-29.859375 78.445312-29.859375 108.304687 0s29.859375 78.445313 0 108.304688l-22.800781 22.800781c-29.859375 29.859375-78.445313 29.859375-108.308594 0-29.859375-29.859375-29.859375-78.445313.003907-108.304687zm51.300781 5.699218-22.800781 22.800782c-14.144532 14.144531-14.144532 37.160156 0 51.304687 14.144531 14.144531 37.160156 14.144531 51.300781 0l22.804687-22.800781c14.140625-14.144532 14.140625-37.160156 0-51.304688-14.144531-14.144531-37.160156-14.144531-51.304687 0zm0 0" fill="#91def5" data-original="#91def5" class=""></path><path xmlns="http://www.w3.org/2000/svg" d="m293.34375 403.664062c7.871094 7.871094 20.628906 7.871094 28.5 0l81.820312-81.820312c7.871094-7.871094 7.871094-20.632812 0-28.5-7.871093-7.871094-20.628906-7.871094-28.5 0l-81.820312 81.820312c-7.871094 7.871094-7.871094 20.632813 0 28.5zm0 0" fill="#cff1fb" data-original="#cff1fb"></path><path xmlns="http://www.w3.org/2000/svg" d="m67.957031 171.972656c0 5.523438 4.480469 10 10 10h216.003907c5.523437 0 10-4.476562 10-10 0-5.523437-4.476563-10-10-10h-216.003907c-5.519531 0-10 4.476563-10 10zm0 0" fill="#000000" data-original="#000000" class=""></path><path xmlns="http://www.w3.org/2000/svg" d="m291.960938 125.980469c5.523437 0 10-4.476563 10-10 0-5.523438-4.476563-10-10-10h-138.484376c-5.519531 0-10 4.476562-10 10 0 5.523437 4.480469 10 10 10zm0 0" fill="#000000" data-original="#000000" class=""></path><path xmlns="http://www.w3.org/2000/svg" d="m77.957031 237.992188h153.046875c5.523438 0 10-4.476563 10-10 0-5.523438-4.476562-10-10-10h-153.046875c-5.519531 0-10 4.476562-10 10 0 5.523437 4.480469 10 10 10zm0 0" fill="#000000" data-original="#000000" class=""></path><path xmlns="http://www.w3.org/2000/svg" d="m77.957031 293.984375h199.613281c5.523438 0 10-4.476563 10-10s-4.476562-10-10-10h-199.613281c-5.519531 0-10 4.476563-10 10s4.480469 10 10 10zm0 0" fill="#000000" data-original="#000000" class=""></path><path xmlns="http://www.w3.org/2000/svg" d="m77.957031 350.003906h75.519531c5.523438 0 10.003907-4.476562 10.003907-10 0-5.523437-4.480469-10-10.003907-10h-75.519531c-5.519531 0-10 4.476563-10 10 0 5.523438 4.480469 10 10 10zm0 0" fill="#000000" data-original="#000000" class=""></path><path xmlns="http://www.w3.org/2000/svg" d="m293.960938 217.992188h-16.390626c-5.523437 0-10 4.476562-10 10 0 5.523437 4.476563 10 10 10h16.390626c5.523437 0 10-4.476563 10-10 0-5.523438-4.476563-10-10-10zm0 0" fill="#000000" data-original="#000000" class=""></path><path xmlns="http://www.w3.org/2000/svg" d="m486.679688 210.328125c-31.308594-31.308594-80.808594-33.5625-114.761719-6.804687v-173.523438c0-16.542969-13.457031-30-30-30h-243.917969c-.109375 0-.222656.0117188-.332031.015625-.117188.0039062-.230469.0117188-.34375.0195312-.421875.0273438-.839844.0742188-1.253907.1562498-.007812 0-.015624 0-.023437.003906-.421875.082032-.835937.203126-1.238281.339844-.109375.035156-.210938.074219-.316406.113282-.382813.144531-.757813.304687-1.117188.492187-.023438.011719-.050781.019531-.074219.03125-.378906.203125-.742187.4375-1.097656.691406-.089844.066407-.175781.128907-.265625.199219-.351562.265625-.691406.550781-1.007812.867188l-88 88c-.316407.316406-.601563.65625-.867188 1.007812-.070312.089844-.136719.175781-.199219.269531-.25.351563-.488281.714844-.691406 1.09375-.011719.023438-.019531.046875-.03125.070313-.191406.363281-.351563.738281-.492187 1.121094-.039063.105468-.078126.207031-.113282.3125-.136718.40625-.257812.820312-.34375 1.242187 0 .007813 0 .015625-.003906.023437-.078125.410157-.125.832032-.15625 1.253907-.0078125.113281-.0117188.226562-.015625.339843-.0039062.113282-.015625.226563-.015625.335938v84.992188c0 5.523437 4.476562 10 10 10s10-4.476563 10-10v-74.992188h59.375c15.785156 0 28.625-12.839844 28.625-28.621094v-59.378906h233.921875c5.511719 0 10 4.488281 10 10v192.636719l-10.488281 10.488281c-22.996094 22.996094-30.773438 56.667969-21.464844 86.839844-24.449219-7.539063-51.191406-3.863282-72.695312 10.039062h-42.144532c-5.523437 0-10 4.476563-10 10 0 5.523438 4.476563 10 10 10h19.425782l-14.230469 14.230469c-23.703125 23.707031-30.738281 57.84375-21.148438 87.769531h-159.175781c-5.515625 0-10-4.484375-10-10v-169.011718c0-5.519532-4.476562-10-10-10s-10 4.480468-10 10v169.011718c0 16.542969 13.457031 30 30 30h168.558594c3.320312 5.203125 7.226562 10.136719 11.765625 14.679688 16.882812 16.878906 39.050781 25.320312 61.226562 25.316406 22.167969 0 44.347657-8.441406 61.222657-25.316406l22.804687-22.804688c22.988281-22.992187 30.769531-56.660156 21.464844-86.832031 8.335937 2.570313 16.941406 3.847656 25.515625 3.847656 22.449218-.003906 44.6875-8.683593 61.324218-25.320312l22.800782-22.800781c33.757812-33.757813 33.757812-88.6875-.003906-122.445313zm-398.679688-130.949219c0 4.753906-3.867188 8.621094-8.625 8.621094h-45.234375l53.859375-53.855469zm322.734375 206.890625c-7.839844-7.839843-18.957031-10.441406-28.984375-7.824219.710938-.933593 1.484375-1.832031 2.324219-2.675781l22.804687-22.800781c4.949219-4.949219 11.550782-7.679688 18.578125-7.679688 7.03125 0 13.628907 2.730469 18.582031 7.683594 10.246094 10.242188 10.246094 26.914063 0 37.160156l-22.800781 22.800782c-.835937.832031-1.722656 1.597656-2.648437 2.304687.644531-2.464843.980468-5.027343.980468-7.644531-.003906-8.054688-3.140624-15.628906-8.835937-21.324219zm-28.5 14.144531c1.980469-1.980468 4.578125-2.96875 7.179687-2.96875 2.601563 0 5.199219.988282 7.179688 2.96875 1.917969 1.917969 2.972656 4.464844 2.972656 7.179688 0 2.710938-1.054687 5.261719-2.972656 7.179688l-81.820312 81.820312c-1.917969 1.917969-4.46875 2.976562-7.179688 2.976562s-5.261719-1.058593-7.179688-2.976562c-1.917968-1.917969-2.972656-4.464844-2.972656-7.179688 0-2.710937 1.054688-5.261718 2.972656-7.179687l6.71875-6.71875c1.152344-.75 2.144532-1.738281 2.914063-2.910156zm-95.964844 110.320313c5.695313 5.695313 13.269531 8.832031 21.324219 8.832031 2.613281 0 5.175781-.335937 7.640625-.976562-.707031.925781-1.46875 1.8125-2.304687 2.644531l-22.800782 22.804687c-10.246094 10.242188-26.914062 10.242188-37.160156 0-10.246094-10.246093-10.246094-26.917968 0-37.160156l22.800781-22.804687c.835938-.832031 1.722657-1.601563 2.648438-2.304688-.644531 2.464844-.980469 5.03125-.980469 7.644531 0 8.054688 3.136719 15.628907 8.832031 21.320313zm55.164063 39.003906-22.800782 22.800781c-12.984374 12.980469-30.03125 19.472657-47.082031 19.472657-17.050781-.003907-34.105469-6.492188-47.082031-19.472657-25.960938-25.960937-25.960938-68.203124 0-94.164062l22.800781-22.800781c17.925781-17.921875 44.289063-23.832031 67.734375-16.214844l-17.164062 17.167969c-13.390625-1.023438-26.589844 3.785156-36.210938 13.40625l-22.800781 22.800781c-18.042969 18.042969-18.042969 47.402344 0 65.445313 9.019531 9.023437 20.871094 13.53125 32.722656 13.53125 11.851563 0 23.699219-4.511719 32.722657-13.53125l22.800781-22.800782c9.59375-9.59375 14.410156-22.820312 13.398437-36.199218l17.175782-17.175782c7.617187 23.449219 1.707031 49.8125-16.214844 67.734375zm131.105468-131.105469-22.800781 22.800782c-17.925781 17.921875-44.289062 23.832031-67.734375 16.214844l17.175782-17.179688c1.171874.089844 2.335937.148438 3.5.148438 12.164062 0 23.9375-4.78125 32.699218-13.542969l22.800782-22.800781c18.042968-18.042969 18.042968-47.402344 0-65.445313-8.726563-8.730469-20.351563-13.539063-32.722657-13.539063-12.371093 0-23.992187 4.808594-32.722656 13.539063l-22.800781 22.800781c-9.59375 9.59375-14.40625 22.816406-13.398438 36.199219l-17.175781 17.175781c-7.617187-23.449218-1.707031-49.8125 16.214844-67.734375l22.800781-22.800781c25.960938-25.960938 68.203125-25.960938 94.164062 0 25.960938 25.960938 25.960938 68.203125 0 94.164062zm0 0" fill="#000000" data-original="#000000" class=""></path><path xmlns="http://www.w3.org/2000/svg" d="m10 237.992188c-2.628906 0-5.210938-1.070313-7.070312-2.929688-1.859376-1.859375-2.929688-4.441406-2.929688-7.070312 0-2.628907 1.070312-5.210938 2.929688-7.070313 1.859374-1.859375 4.441406-2.929687 7.070312-2.929687s5.210938 1.070312 7.070312 2.929687c1.859376 1.859375 2.929688 4.441406 2.929688 7.070313 0 2.628906-1.070312 5.210937-2.929688 7.070312-1.859374 1.859375-4.441406 2.929688-7.070312 2.929688zm0 0" fill="#000000" data-original="#000000" class=""></path></g></svg>