<svg xmlns="http://www.w3.org/2000/svg" version="1.1" xmlns:xlink="http://www.w3.org/1999/xlink" xmlns:svgjs="http://svgjs.com/svgjs" width="512" height="512" x="0" y="0" viewBox="0 0 512 512" style="enable-background:new 0 0 512 512" xml:space="preserve" class=""><g><g xmlns="http://www.w3.org/2000/svg"><g><g><g><circle cx="256" cy="107.5" fill="#b3e59f" r="100" data-original="#b3e59f" class=""></circle><path d="m256 7.5c-5.098 0-10.107.384-15 1.12 48.112 7.238 85 48.75 85 98.88s-36.888 91.642-85 98.88c4.893.736 9.902 1.12 15 1.12 55.228 0 100-44.771 100-100s-44.772-100-100-100z" fill="#95d6a4" data-original="#95d6a4"></path></g><g><circle cx="107.5" cy="404.5" fill="#ffe07d" r="100" data-original="#ffe07d"></circle><path d="m107.5 304.5c-5.098 0-10.107.384-15 1.12 48.112 7.238 85 48.75 85 98.88s-36.888 91.642-85 98.88c4.893.736 9.902 1.12 15 1.12 55.228 0 100-44.771 100-100s-44.772-100-100-100z" fill="#ffd064" data-original="#ffd064"></path></g><g><circle cx="404.5" cy="404.5" fill="#a4ccff" r="100" data-original="#a4ccff"></circle><path d="m404.5 304.5c-5.098 0-10.107.384-15 1.12 48.112 7.238 85 48.75 85 98.88s-36.888 91.642-85 98.88c4.893.736 9.902 1.12 15 1.12 55.228 0 100-44.771 100-100s-44.772-100-100-100z" fill="#8bb3ea" data-original="#8bb3ea"></path></g></g></g><path d="m107.701 150.392c3.245 2.524 7.967 1.973 10.524-1.315l.062-.079c2.543-3.27 1.954-7.981-1.315-10.524-3.27-2.544-7.983-1.955-10.524 1.315-2.566 3.3-2.035 8.046 1.253 10.603zm30.002-22.522c3.082-2.851 3.342-7.611.463-10.693-2.821-3.02-7.566-3.177-10.596-.366-3.045 2.825-3.277 7.561-.464 10.618 2.81 3.054 7.563 3.247 10.597.441zm-56.266 76.389c.797.27 1.608.398 2.405.398 3.127 0 6.045-1.971 7.103-5.098l.032-.095c1.328-3.923-.776-8.181-4.7-9.508-3.922-1.33-8.18.776-9.508 4.7l-.032.095c-1.328 3.923.776 8.181 4.7 9.508zm-4.901 29.525c3.607 0 6.788-2.61 7.392-6.286.001-.005.018-.11.019-.116.662-4.089-2.117-7.94-6.206-8.602-4.094-.658-7.94 2.118-8.602 6.206l-.013.081c-.76 4.54 2.817 8.717 7.41 8.717zm7.431 50.959c-.717-4.068-4.587-6.767-8.655-6.066-4.07.701-6.804 4.583-6.12 8.656l.004.027c.67 4.125 4.605 6.844 8.616 6.186 4.088-.671 6.857-4.528 6.186-8.616zm8.305-108.542c3.567 1.962 8.17.711 10.186-2.958l.094-.173c1.943-3.643.565-8.149-3.068-10.109-3.633-1.959-8.179-.595-10.156 3.03l-.013.023c-1.996 3.631-.672 8.191 2.957 10.187zm335.73 108.736c-.636 4.51 2.883 8.592 7.43 8.592 3.624 0 6.802-2.632 7.395-6.305.713-4.067-1.997-7.948-6.065-8.677-4.217-.755-8.164 2.165-8.76 6.39zm2.387-29.268c0 .055.001.11.002.165-.001.055-.002.11-.002.166v.1c0 4.142 3.357 7.5 7.5 7.5s7.5-3.358 7.5-7.5v-.1c0-.055-.001-.11-.002-.166.001-.055.002-.11.002-.165 0-4.179-3.333-7.6-7.5-7.6-4.186 0-7.5 3.424-7.5 7.6zm-2.411-28.745c.695 4.076 4.503 6.825 8.497 6.238 4.256-.626 7.026-4.653 6.275-8.841-.73-4.076-4.628-6.777-8.698-6.051-4.059.724-6.767 4.596-6.074 8.654zm-34.471-78.191c2.623 3.234 7.293 3.762 10.516 1.219 3.247-2.562 3.799-7.279 1.243-10.531l-.022-.029c-2.543-3.27-7.257-3.856-10.524-1.315-3.27 2.543-3.858 7.255-1.315 10.524.012.018.087.114.102.132zm27.369 50.308c1.344 3.972 5.671 5.998 9.509 4.7 3.924-1.328 6.027-5.585 4.7-9.508-.004-.011-.04-.117-.044-.128-1.344-3.91-5.578-5.948-9.498-4.613-3.914 1.334-5.992 5.632-4.667 9.549zm-36.35-71.952c2.829-3.075 2.557-7.84-.515-10.665-3.049-2.804-7.756-2.573-10.561.475s-2.57 7.827.478 10.631c3.041 2.799 7.788 2.614 10.598-.441zm24.843 45.83c1.388 2.409 3.911 3.757 6.505 3.757 1.271 0 2.559-.323 3.738-1.003 3.556-2.049 4.799-6.571 2.809-10.145-1.959-3.633-6.486-5.002-10.131-3.059-3.655 1.949-5.037 6.492-3.088 10.147.038.073.126.232.167.303zm-335.258 90.796c4.142 0 7.5-3.358 7.5-7.5 0-4.179-3.333-7.6-7.5-7.6-4.184 0-7.5 3.423-7.5 7.6 0 4.142 3.358 7.5 7.5 7.5zm372.889 163.285h-25c-12.406 0-22.5-10.093-22.5-22.5 0-4.142-3.357-7.5-7.5-7.5s-7.5 3.358-7.5 7.5c0 20.678 16.822 37.5 37.5 37.5h25c20.678 0 37.5-16.822 37.5-37.5s-16.822-37.5-37.5-37.5h-10c-4.143 0-7.5 3.358-7.5 7.5s3.357 7.5 7.5 7.5h10c12.406 0 22.5 10.093 22.5 22.5s-10.094 22.5-22.5 22.5zm-208.5-357h-25c-20.678 0-37.5 16.822-37.5 37.5s16.822 37.5 37.5 37.5h10c4.142 0 7.5-3.358 7.5-7.5s-3.358-7.5-7.5-7.5h-10c-12.407 0-22.5-10.093-22.5-22.5s10.093-22.5 22.5-22.5h25c12.407 0 22.5 10.093 22.5 22.5 0 4.142 3.357 7.5 7.5 7.5s7.5-3.358 7.5-7.5c0-20.678-16.822-37.5-37.5-37.5zm60 60h-25c-12.406 0-22.5-10.093-22.5-22.5 0-4.142-3.358-7.5-7.5-7.5s-7.5 3.358-7.5 7.5c0 20.678 16.822 37.5 37.5 37.5h25c20.678 0 37.5-16.822 37.5-37.5s-16.822-37.5-37.5-37.5h-10c-4.143 0-7.5 3.358-7.5 7.5s3.357 7.5 7.5 7.5h10c12.406 0 22.5 10.093 22.5 22.5s-10.094 22.5-22.5 22.5zm-28.025 299.797c-4.131.304-7.233 3.899-6.93 8.03.305 4.15 3.945 7.252 8.029 6.93.037-.003.173-.014.209-.017 4.126-.364 7.181-4.004 6.816-8.131-.363-4.127-4.019-7.164-8.124-6.812zm134.025-132.797c-24.621 0-47.787 8.1-66.995 23.424-3.237 2.583-3.769 7.302-1.185 10.54 2.581 3.238 7.3 3.768 10.54 1.186 16.523-13.182 36.454-20.15 57.64-20.15 51.005 0 92.5 41.495 92.5 92.5s-41.495 92.5-92.5 92.5-92.5-41.495-92.5-92.5c0-17.116 4.709-33.83 13.616-48.335 2.168-3.529 1.064-8.148-2.466-10.316-3.528-2.169-8.147-1.064-10.315 2.466-10.359 16.867-15.835 36.296-15.835 56.185 0 59.276 48.225 107.5 107.5 107.5s107.5-48.224 107.5-107.5-48.225-107.5-107.5-107.5zm-17.5 70h-25c-20.678 0-37.5 16.822-37.5 37.5s16.822 37.5 37.5 37.5h10c4.143 0 7.5-3.358 7.5-7.5s-3.357-7.5-7.5-7.5h-10c-12.406 0-22.5-10.093-22.5-22.5s10.094-22.5 22.5-22.5h25c12.406 0 22.5 10.093 22.5 22.5 0 4.142 3.357 7.5 7.5 7.5s7.5-3.358 7.5-7.5c0-20.678-16.822-37.5-37.5-37.5zm-247 0c-4.142 0-7.5 3.358-7.5 7.5s3.358 7.5 7.5 7.5h10c12.407 0 22.5 10.093 22.5 22.5s-10.093 22.5-22.5 22.5h-25c-12.407 0-22.5-10.093-22.5-22.5 0-4.142-3.358-7.5-7.5-7.5s-7.5 3.358-7.5 7.5c0 20.678 16.822 37.5 37.5 37.5h25c20.678 0 37.5-16.822 37.5-37.5s-16.822-37.5-37.5-37.5zm-65 60h-10c-12.407 0-22.5-10.093-22.5-22.5s10.093-22.5 22.5-22.5h25c12.407 0 22.5 10.093 22.5 22.5 0 4.142 3.358 7.5 7.5 7.5s7.5-3.358 7.5-7.5c0-20.678-16.822-37.5-37.5-37.5h-25c-20.678 0-37.5 16.822-37.5 37.5s16.822 37.5 37.5 37.5h10c4.142 0 7.5-3.358 7.5-7.5s-3.358-7.5-7.5-7.5zm288.5-319.5c0-59.276-48.225-107.5-107.5-107.5-25.822 0-50.785 9.292-70.292 26.163-19.304 16.696-32.069 39.712-35.944 64.807-.632 4.094 2.174 7.924 6.268 8.557 4.09.631 7.924-2.174 8.557-6.268 3.333-21.582 14.318-41.381 30.933-55.751 16.78-14.514 38.259-22.508 60.478-22.508 51.005 0 92.5 41.495 92.5 92.5s-41.495 92.5-92.5 92.5c-43.661 0-81.756-30.98-90.583-73.665-.839-4.057-4.808-6.666-8.863-5.826-4.057.839-6.665 4.807-5.826 8.863 10.26 49.617 54.533 85.628 105.272 85.628 59.275 0 107.5-48.224 107.5-107.5zm-121.748 322.315c-.036-.003-.172-.014-.209-.017-4.111-.301-7.673 2.776-7.999 6.889-.327 4.112 2.756 7.718 6.867 8.068l.023.002c4.075.361 7.765-2.663 8.13-6.812.364-4.125-2.686-7.765-6.812-8.13zm-134.252-132.815c-59.276 0-107.5 48.224-107.5 107.5s48.224 107.5 107.5 107.5 107.5-48.224 107.5-107.5-48.224-107.5-107.5-107.5zm0 200c-51.005 0-92.5-41.495-92.5-92.5s41.495-92.5 92.5-92.5 92.5 41.495 92.5 92.5-41.495 92.5-92.5 92.5z" fill="#000000" data-original="#000000" class=""></path></g></g></svg>