<svg xmlns="http://www.w3.org/2000/svg" version="1.1" xmlns:xlink="http://www.w3.org/1999/xlink" xmlns:svgjs="http://svgjs.com/svgjs" width="512" height="512" x="0" y="0" viewBox="0 0 60 60" style="enable-background:new 0 0 512 512" xml:space="preserve" class=""><g><path fill="#f5f5f5" d="M59 9v36H1V9a4 4 0 0 1 4-4h50a4 4 0 0 1 4 4z" data-original="#f5f5f5" class=""></path><path fill="#cfd8dc" d="M55 5h-3a4 4 0 0 1 4 4v36h3V9a4 4 0 0 0-4-4z" data-original="#cfd8dc"></path><path fill="#00bcd4" d="M59 45v6a4 4 0 0 1-4 4H5a4 4 0 0 1-4-4v-6z" data-original="#00bcd4"></path><path fill="#00838f" d="M56 45v6a4 4 0 0 1-4 4h3a4 4 0 0 0 4-4v-6z" data-original="#00838f"></path><path fill="#ff9801" d="M28 35H18a9 9 0 0 1 0-18 2 2 0 0 1 0 4 5 5 0 0 0 0 10h10a5.006 5.006 0 0 0 5-5 2 2 0 0 1 4 0 9.01 9.01 0 0 1-9 9z" data-original="#ff9801"></path><path fill="#f57c00" d="M35 24a1.985 1.985 0 0 0-1.5.69A1.985 1.985 0 0 1 34 26a9.01 9.01 0 0 1-9 9h3a9.01 9.01 0 0 0 9-9 2 2 0 0 0-2-2z" data-original="#f57c00"></path><path fill="#ff9801" d="M32 15h10a9 9 0 0 1 0 18 2 2 0 0 1 0-4 5 5 0 0 0 0-10H32a5.006 5.006 0 0 0-5 5 2 2 0 0 1-4 0 9.01 9.01 0 0 1 9-9z" data-original="#ff9801"></path><path fill="#f57c00" d="M42 15h-3a9 9 0 0 1 2.057 17.754A1.979 1.979 0 0 0 42 33a9 9 0 0 0 0-18z" data-original="#f57c00"></path><path d="M55 4H5a5.006 5.006 0 0 0-5 5v42a5.006 5.006 0 0 0 5 5h50a5.006 5.006 0 0 0 5-5V9a5.006 5.006 0 0 0-5-5zm3 47a3 3 0 0 1-3 3H5a3 3 0 0 1-3-3v-5h56zm0-7H2V9a3 3 0 0 1 3-3h50a3 3 0 0 1 3 3z" fill="#000000" data-original="#000000" class=""></path><path d="M7 52a1 1 0 0 0 1-1v-2a1 1 0 0 0-2 0v2a1 1 0 0 0 1 1zM11 52a1 1 0 0 0 1-1v-2a1 1 0 0 0-2 0v2a1 1 0 0 0 1 1zM15 51h3a1 1 0 0 0 2 0h33a1 1 0 0 0 0-2H20a1 1 0 0 0-2 0h-3a1 1 0 0 0 0 2zM35 23a3 3 0 0 0-3 3 4 4 0 0 1-4 4H18a4 4 0 0 1 0-8 3 3 0 0 0 0-6 10 10 0 0 0 0 20h10a10.011 10.011 0 0 0 10-10 3 3 0 0 0-3-3zm-7 11H18a8 8 0 0 1 0-16 1 1 0 0 1 0 2 6 6 0 0 0 0 12h10a6.006 6.006 0 0 0 6-6 1 1 0 0 1 2 0 8.009 8.009 0 0 1-8 8z" fill="#000000" data-original="#000000" class=""></path><path d="M42 14H32a10.011 10.011 0 0 0-10 10 3 3 0 0 0 6 0 4 4 0 0 1 4-4h10a4 4 0 0 1 0 8 3 3 0 0 0 0 6 10 10 0 0 0 0-20zm0 18a1 1 0 0 1 0-2 6 6 0 0 0 0-12H32a6.006 6.006 0 0 0-6 6 1 1 0 0 1-2 0 8.009 8.009 0 0 1 8-8h10a8 8 0 0 1 0 16z" fill="#000000" data-original="#000000" class=""></path></g></svg>