<svg xmlns="http://www.w3.org/2000/svg" version="1.1" xmlns:xlink="http://www.w3.org/1999/xlink" xmlns:svgjs="http://svgjs.com/svgjs" width="512" height="512" x="0" y="0" viewBox="0 0 512 512" style="enable-background:new 0 0 512 512" xml:space="preserve" class=""><g><path fill="#ffffff" d="M500.305 134.733v320.249c0 16.071-12.996 29.008-29.008 29.008H40.702c-16.012 0-29.008-12.937-29.008-29.008V134.733z" data-original="#ffffff" class=""></path><path fill="#78c750" d="M500.299 134.716V57.018c0-16.021-12.987-29.008-29.008-29.008H40.708C24.687 28.01 11.7 40.997 11.7 57.018v77.698z" data-original="#78c750"></path><path fill="#ffffff" d="M89.172 81.392c0 7.31-5.975 13.286-13.286 13.286-7.368 0-13.286-5.976-13.286-13.286 0-7.368 5.917-13.344 13.286-13.344 7.311 0 13.286 5.976 13.286 13.344zM143.273 81.392c0 7.31-5.975 13.286-13.286 13.286-7.368 0-13.286-5.976-13.286-13.286 0-7.368 5.917-13.344 13.286-13.344 7.311 0 13.286 5.976 13.286 13.344zM197.374 81.392c0 7.31-5.975 13.286-13.286 13.286-7.368 0-13.286-5.976-13.286-13.286 0-7.368 5.917-13.344 13.286-13.344 7.311 0 13.286 5.976 13.286 13.344z" data-original="#ffffff" class=""></path><g fill="#78c750"><path d="M471.831 234.349c0 7.316-5.986 13.301-13.361 13.301-7.316 0-13.301-5.986-13.301-13.301 0-7.376 5.986-13.362 13.301-13.362 7.375 0 13.361 5.986 13.361 13.362zM442.085 309.391c0 7.316-5.986 13.301-13.361 13.301-7.316 0-13.301-5.986-13.301-13.301 0-7.376 5.986-13.362 13.301-13.362 7.376 0 13.361 5.986 13.361 13.362zM471.831 384.373c0-7.316-5.986-13.301-13.362-13.301-7.316 0-13.301 5.986-13.301 13.301 0 7.376 5.986 13.362 13.301 13.362 7.376 0 13.362-5.986 13.362-13.362zM40.169 234.349c0 7.316 5.986 13.301 13.362 13.301 7.316 0 13.301-5.986 13.301-13.301 0-7.376-5.986-13.362-13.301-13.362-7.376 0-13.362 5.986-13.362 13.362zM69.915 309.391c0 7.316 5.986 13.301 13.362 13.301 7.316 0 13.301-5.986 13.301-13.301 0-7.376-5.986-13.362-13.301-13.362-7.377 0-13.362 5.986-13.362 13.362zM40.169 384.373c0-7.316 5.986-13.301 13.362-13.301 7.316 0 13.301 5.986 13.301 13.301 0 7.376-5.986 13.362-13.301 13.362-7.376 0-13.362-5.986-13.362-13.362z" fill="#78c750" data-original="#78c750"></path></g><path fill="#fec961" d="M384.764 245.911v126.901c0 10.368-8.405 18.774-18.774 18.774H146.009c-10.368 0-18.774-8.405-18.774-18.774V245.911c0-10.368 8.405-18.774 18.774-18.774H365.99c10.369 0 18.774 8.405 18.774 18.774z" data-original="#fec961"></path><path fill="#ffffff" d="M239.014 275.765v67.191a8.229 8.229 0 0 1-8.229 8.229h-67.15a8.229 8.229 0 0 1-8.229-8.229v-67.191a8.229 8.229 0 0 1 8.229-8.229h67.15a8.229 8.229 0 0 1 8.229 8.229z" data-original="#ffffff" class=""></path><path fill="#78c750" d="M228.356 351.186h-62.291c0-17.248 13.969-31.217 31.17-31.217 17.247 0 31.121 13.969 31.121 31.217z" data-original="#78c750"></path><path fill="#78c750" d="M215.693 303.075c0 10.175-8.243 18.461-18.461 18.461s-18.504-8.286-18.504-18.461c0-10.218 8.286-18.504 18.504-18.504s18.461 8.286 18.461 18.504z" data-original="#78c750"></path><path d="M505.498 57.017c0-18.858-15.345-34.203-34.208-34.203H40.71c-18.863 0-34.208 15.345-34.208 34.203l-.005 397.966c0 18.858 15.345 34.203 34.208 34.203h430.591c18.863 0 34.208-15.345 34.208-34.203l-.006-397.966zm-488.6 0c0-13.127 10.68-23.807 23.812-23.807h430.58c13.132 0 23.812 10.68 23.812 23.807v72.503H16.898zm478.21 172.102h-18.923c-2.274-7.677-9.311-13.33-17.716-13.33-10.198 0-18.498 8.325-18.498 18.558 0 10.203 8.3 18.503 18.498 18.503 8.423 0 15.471-5.657 17.731-13.335h18.909v64.65h-48.651c-2.261-7.678-9.313-13.335-17.735-13.335-10.198 0-18.498 8.3-18.498 18.503l.003.03-.003.03c0 10.198 8.3 18.498 18.498 18.498 8.422 0 15.473-5.656 17.735-13.33h48.652v64.645H476.2c-2.26-7.674-9.308-13.33-17.73-13.33-10.198 0-18.498 8.3-18.498 18.498 0 10.234 8.3 18.558 18.498 18.558 8.406 0 15.442-5.652 17.716-13.33h18.923v65.381c0 13.127-10.68 23.807-23.812 23.807H40.705c-13.132 0-23.812-10.68-23.812-23.807v-65.381h18.919c2.276 7.678 9.315 13.33 17.721 13.33 10.198 0 18.498-8.325 18.498-18.558 0-10.198-8.3-18.498-18.498-18.498-8.422 0-15.473 5.656-17.735 13.33H16.892v-64.645h48.652c2.262 7.674 9.313 13.33 17.735 13.33 10.198 0 18.498-8.3 18.498-18.498l-.003-.03.003-.03c0-10.203-8.3-18.503-18.498-18.503-8.423 0-15.474 5.657-17.735 13.335H16.892v-64.65h18.905c2.261 7.678 9.313 13.335 17.735 13.335 10.198 0 18.498-8.3 18.498-18.503 0-10.234-8.3-18.558-18.498-18.558-8.406 0-15.445 5.653-17.721 13.33H16.892v-89.188h478.215v89.188zm-28.478 5.229c0 4.472-3.66 8.107-8.162 8.107-4.467 0-8.102-3.635-8.102-8.107 0-4.503 3.635-8.162 8.102-8.162 4.502-.001 8.162 3.659 8.162 8.162zm-30.306 77.908c-1.181 3.057-4.134 5.239-7.603 5.239-4.457 0-8.081-3.644-8.098-8.132.017-4.488 3.642-8.137 8.098-8.137 3.47 0 6.422 2.185 7.603 5.244-.578.838-.994 1.797-.994 2.893.001 1.096.416 2.055.994 2.893zm30.306 72.118c0 4.503-3.66 8.162-8.162 8.162-4.467 0-8.102-3.66-8.102-8.162 0-4.467 3.635-8.102 8.102-8.102 4.502 0 8.162 3.635 8.162 8.102zm-421.265 0c0-4.467 3.665-8.102 8.168-8.102 4.467 0 8.102 3.635 8.102 8.102 0 4.503-3.635 8.162-8.102 8.162-4.503 0-8.168-3.66-8.168-8.162zm30.311-77.904c1.181-3.059 4.133-5.244 7.603-5.244 4.457 0 8.081 3.649 8.098 8.137-.017 4.488-3.642 8.132-8.098 8.132-3.469 0-6.421-2.182-7.603-5.239.578-.838.994-1.797.994-2.893s-.416-2.055-.994-2.893zm-30.311-72.122c0-4.503 3.665-8.162 8.168-8.162 4.467 0 8.102 3.66 8.102 8.162 0 4.472-3.635 8.107-8.102 8.107-4.503-.001-8.168-3.635-8.168-8.107z" fill="#000000" data-original="#000000" class=""></path><path d="M75.888 62.849c-10.193 0-18.482 8.32-18.482 18.543 0 10.193 8.289 18.482 18.482 18.482S94.37 91.586 94.37 81.393c0-10.224-8.289-18.544-18.482-18.544zm0 26.63c-4.457 0-8.086-3.629-8.086-8.086 0-4.492 3.629-8.147 8.086-8.147s8.086 3.655 8.086 8.147c0 4.457-3.63 8.086-8.086 8.086zM129.989 62.849c-10.193 0-18.487 8.32-18.487 18.543 0 10.193 8.294 18.482 18.487 18.482s18.482-8.289 18.482-18.482c.001-10.223-8.289-18.543-18.482-18.543zm0 26.63c-4.462 0-8.091-3.629-8.091-8.086 0-4.492 3.629-8.147 8.091-8.147 4.457 0 8.086 3.655 8.086 8.147.001 4.457-3.629 8.086-8.086 8.086zM184.091 62.849c-10.193 0-18.487 8.32-18.487 18.543 0 10.193 8.294 18.482 18.487 18.482s18.482-8.289 18.482-18.482c0-10.223-8.289-18.543-18.482-18.543zm0 26.63c-4.462 0-8.091-3.629-8.091-8.086 0-4.492 3.629-8.147 8.091-8.147 4.457 0 8.086 3.655 8.086 8.147 0 4.457-3.629 8.086-8.086 8.086zM449.397 76.164H277.152c-2.873 0-5.198 2.325-5.198 5.198s2.325 5.198 5.198 5.198h172.244c2.873 0 5.198-2.325 5.198-5.198s-2.324-5.198-5.197-5.198zM146.01 396.785h219.98c13.218 0 23.97-10.756 23.97-23.975V245.911c0-13.218-10.751-23.975-23.97-23.975H146.01c-13.218 0-23.975 10.756-23.975 23.975V372.81c0 13.218 10.756 23.975 23.975 23.975zm-13.579-150.874c0-7.487 6.091-13.579 13.579-13.579h219.98c7.482 0 13.574 6.091 13.574 13.579V372.81c0 7.487-6.091 13.579-13.574 13.579H146.01c-7.487 0-13.579-6.091-13.579-13.579z" fill="#000000" data-original="#000000" class=""></path><path d="M163.634 356.384h67.153c7.401 0 13.426-6.025 13.426-13.426v-67.193c0-7.401-6.025-13.426-13.426-13.426h-67.153c-7.401 0-13.426 6.025-13.426 13.426v67.193c0 7.4 6.025 13.426 13.426 13.426zm8.152-10.396c2.018-9.953 9.757-17.781 19.59-20.072 4.249 1.088 7.446 1.092 11.702 0 9.818 2.291 17.543 10.119 19.561 20.072zm12.138-42.914c0-7.335 5.97-13.305 13.31-13.305 7.315 0 13.264 5.97 13.264 13.305 0 5.42-3.275 10.076-7.942 12.131-1.742-.258-3.51-.436-5.322-.436-1.818 0-3.59.178-5.337.438-4.686-2.056-7.973-6.712-7.973-12.133zm-23.32-27.31c0-1.67 1.36-3.03 3.03-3.03h67.153c1.67 0 3.03 1.36 3.03 3.03v67.193c0 .795-.324 1.509-.827 2.05a36.493 36.493 0 0 0-18.501-25.857c3.941-4.228 6.405-9.854 6.405-16.077 0-13.066-10.614-23.701-23.66-23.701-13.071 0-23.706 10.635-23.706 23.701 0 6.224 2.47 11.852 6.42 16.08-9.62 5.227-16.598 14.684-18.516 25.854a3.004 3.004 0 0 1-.828-2.051zM279.528 289.769h77.066c2.873 0 5.198-2.325 5.198-5.198s-2.325-5.198-5.198-5.198h-77.066c-2.873 0-5.198 2.325-5.198 5.198s2.325 5.198 5.198 5.198zM279.528 314.561h77.066c2.873 0 5.198-2.325 5.198-5.198s-2.325-5.198-5.198-5.198h-77.066c-2.873 0-5.198 2.325-5.198 5.198s2.325 5.198 5.198 5.198zM279.528 339.348h44.894c2.873 0 5.198-2.325 5.198-5.198s-2.325-5.198-5.198-5.198h-44.894c-2.873 0-5.198 2.325-5.198 5.198s2.325 5.198 5.198 5.198z" fill="#000000" data-original="#000000" class=""></path></g></svg>