<svg xmlns="http://www.w3.org/2000/svg" version="1.1" xmlns:xlink="http://www.w3.org/1999/xlink" xmlns:svgjs="http://svgjs.com/svgjs" width="512" height="512" x="0" y="0" viewBox="0 0 512.053 512.053" style="enable-background:new 0 0 512 512" xml:space="preserve" class=""><g><g xmlns="http://www.w3.org/2000/svg"><g><g><path d="m12.871 416.004 211.025-356.65c14.516-24.533 49.745-24.533 64.261 0l211.025 356.65c14.885 25.157-3.085 57.084-32.131 57.084h-422.049c-29.046-.001-47.016-31.927-32.131-57.084z" fill="#fd4755" data-original="#fd4755"></path><g><path d="m183.12 473.087h283.931c29.045 0 47.016-31.926 32.131-57.084l-154.184-260.583c6.107 26.05 9.052 55.524 5.851 87.673-15.142 152.102-153.673 223.02-162.648 227.424-1.724.893-3.412 1.742-5.081 2.57z" fill="#fb2b3a" data-original="#fb2b3a"></path><path d="m44.995 443.153c-6.142-.211-9.557-5.908-6.312-11.807l211.025-356.649c3.261-5.111 9.453-5.044 12.624 0l211.024 356.649c3.259 5.922-.127 11.592-6.312 11.807z" fill="#ffffff" data-original="#ffffff" class=""></path><path d="m351.981 226.212c-.197 5.541-.563 11.167-1.132 16.881-10.071 101.167-74.721 166.407-119.537 200.06h235.733c6.185-.214 9.571-5.885 6.312-11.807z" fill="#e5e1e5" data-original="#e5e1e5"></path></g></g><g><g><path d="m499.836 146.446-166.27 132.18v.01l-12.51 9.94c-2.74 2.18-6.82.94-7.88-2.4l-5.47-17.2c-1.12-3.52-5.54-4.65-8.21-2.1l-124.02 118.1c-5.67 5.4-14.32-1.89-9.97-8.39l19.73-29.48.01-.01 121.93-182.15c2.05-3.05 6.58-2.93 8.46.24l14.9 25.19c1.84 3.1 6.25 3.3 8.36.38l97.18-134.53 10.5-14.53c3.29-4.6 10.3-4.04 12.81 1.03l43.85 88.47c2.6 5.25 1.18 11.601-3.4 15.25z" fill="#fed402" data-original="#fed402" class=""></path></g><path d="m497.031 118.677-163.465 129.95v.01c-.041.04-.082.08-.124.12-6.287 6.114-16.614 4.858-21.252-2.585l-4.484-7.195c-1.12-3.52-5.54-4.65-8.21-2.1l-111.621 106.293-2.629 3.927-.01.01-19.73 29.48c-4.35 6.5 4.3 13.79 9.97 8.39l124.02-118.1c2.67-2.55 7.09-1.42 8.21 2.1l5.47 17.2c1.06 3.34 5.14 4.58 7.88 2.4l12.51-9.94v-.01l166.27-132.18c4.58-3.65 6-10 3.4-15.25z" fill="#fac600" data-original="#fac600" class=""></path></g></g><path d="m505.636 412.59-105.098-177.625 103.961-82.648c7.303-5.806 9.597-16.088 5.455-24.447l-43.845-88.472c-2.36-4.762-6.932-7.861-12.23-8.289-5.3-.425-10.308 1.896-13.384 6.193l-86.257 119.412-59.626-100.773c-8.181-13.826-22.605-22.081-38.585-22.081s-30.405 8.254-38.585 22.081l-211.026 356.649c-8.425 14.239-8.561 31.322-.363 45.698 8.107 14.217 22.667 22.705 38.948 22.705h422.05c16.281 0 30.841-8.488 38.948-22.705 8.198-14.376 8.062-31.459-.363-45.698zm-12.667 38.268c-5.404 9.477-15.093 15.135-25.917 15.135h-422.051c-23.71.008-37.261-26.208-25.676-45.764l211.025-356.65c11.566-19.566 39.648-19.778 51.353 0l62.954 106.398-9.606 13.298-12.939-21.868c-.008-.013-.013-.027-.021-.04l-53.304-90.084c-.034-.058-.069-.116-.105-.173-2.89-4.57-7.61-7.316-12.65-7.316-5.013 0-9.738 2.717-12.646 7.274-.045.071-.089.142-.132.214-.12.204-211.036 356.663-211.141 356.854-5.644 10.203.709 22.511 12.625 22.917.237.008 267.619.004 267.88.004 4.142 0 7.5-3.358 7.5-7.5s-3.358-7.5-7.5-7.5c-.158 0-267.497.009-267.644-.022.092-.275 210.858-356.513 211.046-356.873l46.775 79.05c-.99 1.075-53.553 79.802-54.429 81.11-2.304 3.442-1.382 8.101 2.061 10.404 3.442 2.305 8.1 1.381 10.404-2.061l50.368-75.245 13.663 23.09c1.982 3.349 5.486 5.455 9.373 5.632 3.885.18 7.568-1.6 9.846-4.754l15.553-21.532c.007-.01.015-.02.022-.03l93.012-128.768 43.844 88.472c1.024 2.067.457 4.609-1.349 6.045l-175.937 139.871-4.858-15.267c-1.21-3.802-4.239-6.663-8.104-7.653-3.865-.989-7.896.062-10.785 2.813l-118.973 113.302 68.173-101.849c2.304-3.442 1.382-8.101-2.061-10.404-3.442-2.305-8.101-1.381-10.404 2.061l-72.938 108.966c-4.058 6.062-2.953 13.871 2.626 18.569 2.673 2.251 5.875 3.368 9.066 3.368 3.47 0 6.928-1.321 9.679-3.941l121.124-115.351 4.7 14.772c1.146 3.604 3.991 6.414 7.609 7.515 3.618 1.102 7.546.354 10.506-2l40.361-32.087c.238.422 102.022 172.296 102.123 172.777-.135.055-124.286.022-124.454.022-4.142 0-7.5 3.358-7.5 7.5s3.358 7.5 7.5 7.5h124.428c.086 0 .173-.001.26-.004 5.537-.192 10.37-2.994 12.926-7.496 2.603-4.583 2.489-10.348-.304-15.423-.004-.008-103.081-174.234-103.126-174.299l11.884-9.448 104.042 175.84c5.647 9.543 5.738 20.993.243 30.629z" fill="#000000" data-original="#000000" class=""></path></g></g></svg>