<svg xmlns="http://www.w3.org/2000/svg" version="1.1" xmlns:xlink="http://www.w3.org/1999/xlink" xmlns:svgjs="http://svgjs.com/svgjs" width="512" height="512" x="0" y="0" viewBox="0 0 512 512" style="enable-background:new 0 0 512 512" xml:space="preserve" class=""><g><g xmlns="http://www.w3.org/2000/svg"><g><path d="m344.701 7.5c-13.88 0-25.133 11.252-25.133 25.133v446.735c0 13.88 11.252 25.133 25.133 25.133 13.88 0 25.133-11.252 25.133-25.133v-446.735c0-13.881-11.253-25.133-25.133-25.133z" fill="#e7ecf6" data-original="#e7ecf6"></path></g><g><path d="m298.952 75.288c-58.572 56.015-136.493 87.278-217.538 87.278h-8.378c-2.184 0-3.954 1.77-3.954 3.954v178.96c0 2.184 1.77 3.954 3.954 3.954h8.377c81.045 0 158.967 31.263 217.539 87.278l20.617 19.717v-400.857z" fill="#b9cbea" data-original="#b9cbea" class=""></path></g><g><path d="m298.952 75.288c-6.247 5.975-12.715 11.668-19.383 17.071v159.033c0 69.766-68.923 118.41-134.765 95.346-22.429-7.857-47.662-13.75-75.722-16.138v14.88c0 2.184 1.77 3.954 3.954 3.954h8.377c81.045 0 158.967 31.263 217.539 87.278l20.617 19.717v-400.857z" fill="#a2b9e2" data-original="#a2b9e2"></path></g><g><path d="m69.081 317.632-47.815-20.106c-4.331-1.821-7.148-6.062-7.148-10.761v-61.531c0-4.699 2.817-8.939 7.148-10.761l47.815-20.106z" fill="#4a80aa" data-original="#4a80aa"></path></g><g><path d="m369.834 170.447v171.106c27.638-18.409 45.848-49.855 45.848-85.553s-18.21-67.144-45.848-85.553z" fill="#4a80aa" data-original="#4a80aa"></path></g><g><circle cx="119.497" cy="212.499" fill="#4a80aa" r="19.675" data-original="#4a80aa"></circle></g><g><path d="m497.88 256c0 30.448-8.016 59.661-23.046 85.232-6.111 10.397-20.431 12.173-28.959 3.646-5.953-5.953-7.1-15.162-2.847-22.428 23.95-40.918 23.95-91.982 0-132.9-4.252-7.265-3.105-16.475 2.847-22.428 8.528-8.528 22.849-6.751 28.959 3.647 15.029 25.574 23.046 54.793 23.046 85.231z" fill="#ffe07d" data-original="#ffe07d"></path></g><path d="m344.701 0c-17.994 0-32.633 14.639-32.633 32.633v19.733l-18.3 17.502c-57.449 54.94-132.864 85.198-212.355 85.198h-8.378c-6.316 0-11.455 5.139-11.455 11.455v22.865l-43.221 18.174c-7.133 2.999-11.742 9.937-11.742 17.674v61.531c0 7.738 4.609 14.675 11.742 17.674l43.222 18.175v22.865c0 6.316 5.139 11.455 11.455 11.455h8.377c22.477 0 44.99 2.481 66.914 7.374 4.018.898 8.047-1.621 8.954-5.686.902-4.043-1.644-8.051-5.686-8.954-22.996-5.132-46.608-7.734-70.182-7.734h-4.833c0-31.526 0-141.482 0-171.868h4.833c80.69 0 161.068-30.395 222.722-89.357l7.933-7.587v59.762c0 4.142 3.358 7.5 7.5 7.5s7.5-3.358 7.5-7.5v-100.251c0-9.723 7.91-17.633 17.633-17.633s17.633 7.91 17.633 17.633v446.734c0 9.723-7.91 17.633-17.633 17.633s-17.633-7.91-17.633-17.633v-311.483c0-4.142-3.358-7.5-7.5-7.5s-7.5 3.358-7.5 7.5v270.994l-7.933-7.587c-33.462-32.001-72.59-55.982-116.296-71.275-3.913-1.369-8.188.692-9.556 4.602s.692 8.188 4.602 9.556c41.671 14.582 78.978 37.446 110.883 67.958l18.3 17.502v19.733c0 17.994 14.639 32.633 32.633 32.633s32.633-14.639 32.633-32.633v-133.888c61.102-43.993 61.101-134.966 0-178.958v-133.888c0-17.994-14.639-32.633-32.633-32.633zm-320.528 290.613c-1.553-.653-2.556-2.163-2.556-3.847v-61.531c0-1.684 1.003-3.194 2.556-3.847l37.407-15.73v100.685zm353.161 35.563v-140.352c41.148 37.721 41.101 102.675 0 140.352z" fill="#000000" data-original="#000000"></path><path d="m92.322 212.5c0 14.984 12.19 27.174 27.175 27.174 14.984 0 27.174-12.19 27.174-27.174s-12.19-27.175-27.174-27.175-27.175 12.19-27.175 27.175zm39.349 0c0 6.713-5.461 12.174-12.174 12.174s-12.175-5.461-12.175-12.174 5.461-12.175 12.175-12.175c6.713 0 12.174 5.461 12.174 12.175z" fill="#000000" data-original="#000000"></path><path d="m493.42 295.526c4.072.782 7.999-1.883 8.78-5.951 7.894-41.103 1.169-85.055-20.9-122.607-8.604-14.639-28.731-17.148-40.729-5.149-8.344 8.344-9.996 21.305-4.017 31.52 22.623 38.651 22.623 86.671 0 125.322-5.979 10.214-4.327 23.176 4.017 31.52 12.031 12.032 32.148 9.447 40.728-5.149 3.585-6.101 6.828-12.479 9.639-18.959 1.648-3.8-.097-8.217-3.896-9.865-3.8-1.647-8.217.097-9.865 3.896-2.568 5.922-5.532 11.751-8.809 17.327-1.717 2.921-4.638 4.844-8.014 5.275-9.031 1.157-15.485-8.557-10.854-16.468 25.358-43.325 25.358-97.152 0-140.477-2.534-4.33-1.844-9.813 1.678-13.336 5.07-5.071 13.572-4.012 17.19 2.144 20.263 34.479 26.292 74.736 19.102 112.177-.782 4.068 1.882 7.999 5.95 8.78z" fill="#000000" data-original="#000000"></path></g></g></svg>