<svg xmlns="http://www.w3.org/2000/svg" version="1.1" xmlns:xlink="http://www.w3.org/1999/xlink" xmlns:svgjs="http://svgjs.com/svgjs" width="512" height="512" x="0" y="0" viewBox="0 0 64 64" style="enable-background:new 0 0 512 512" xml:space="preserve" class=""><g><ellipse xmlns="http://www.w3.org/2000/svg" cx="21" cy="54" fill="#213d68" rx="19" ry="8" data-original="#213d68"></ellipse><path xmlns="http://www.w3.org/2000/svg" d="m40 10v44c0-4.418-8.507-8-19-8s-19 3.582-19 8v-44c0 4.418 8.507 8 19 8s19-3.582 19-8z" fill="#4c6cb5" data-original="#4c6cb5" class=""></path><ellipse xmlns="http://www.w3.org/2000/svg" cx="21" cy="10" fill="#5e87ca" rx="19" ry="8" data-original="#5e87ca"></ellipse><path xmlns="http://www.w3.org/2000/svg" d="m34 55c0-3.866 6.268-7 14-7s14 3.134 14 7v-26c0 3.866-6.268 7-14 7s-14-3.134-14-7z" fill="#f9d266" data-original="#f9d266"></path><ellipse xmlns="http://www.w3.org/2000/svg" cx="48" cy="29" fill="#fce797" rx="14" ry="7" data-original="#fce797"></ellipse><ellipse xmlns="http://www.w3.org/2000/svg" cx="48" cy="55" fill="#f3a748" rx="14" ry="7" data-original="#f3a748"></ellipse><path xmlns="http://www.w3.org/2000/svg" d="m48 21a26.473 26.473 0 0 0 -7 .9v-11.9c0-5.046-8.785-9-20-9s-20 3.954-20 9v44c0 5.046 8.785 9 20 9 5.92 0 11.377-1.115 15.144-3.055 2.724 1.869 6.978 3.055 11.856 3.055 8.411 0 15-3.514 15-8v-26c0-4.485-6.588-8-15-8zm13 8c-.005 2.9-5.228 6-13 6s-12.994-3.1-13-6c0-2.9 5.224-6 13-6s13 3.1 13 6zm-26 4.035c2.568 2.387 7.37 3.965 13 3.965s10.432-1.579 13-3.966v17.932c-2.568-2.387-7.369-3.966-13-3.966s-10.432 1.579-13 3.966zm-2-4.035v17.744a39.306 39.306 0 0 0 -12-1.744c-8.031 0-14.8 2.033-18 5.037v-36.073c3.206 3 9.97 5.037 18 5.037s14.8-2.033 18-5.037v8.6c-3.658 1.451-6 3.768-6 6.436zm-12-26c10.608 0 18 3.689 18 7-.005 3.31-7.395 7-18 7s-17.994-3.686-18-7c0-3.311 7.393-7 18-7zm-18 51c0-3.311 7.392-7 18-7a36.3 36.3 0 0 1 12 1.869v6.131a5.257 5.257 0 0 0 1.505 3.528 34.3 34.3 0 0 1 -13.505 2.472c-10.607 0-18-3.688-18-7zm45 7c-7.775 0-13-3.1-13-6 .006-2.9 5.228-6 13-6s13 3.1 13 6c0 2.9-5.224 6-13 6z" fill="#000000" data-original="#000000"></path></g></svg>