<svg enable-background="new 0 0 512 512" height="512" viewBox="0 0 512 512" width="512" xmlns="http://www.w3.org/2000/svg"><g id="_x39_5_x2C__srt_x2C__file_type_x2C__file_format_x2C__file_extension_x2C__document"><g id="XMLID_6846_"><g id="XMLID_6976_"><path id="XMLID_1530_" d="m466 106v350c0 16.57-13.43 30-30 30h-280c-16.57 0-30-13.43-30-30 0-12.782 0-379.414 0-400 0-16.57 13.43-30 30-30h230l20 60z" fill="#a4c2f7"/><g fill="#fff"><path id="XMLID_1529_" d="m126 186v60h-50c-16.56 0-30-13.439-30-30 0-16.57 13.43-30 30-30z"/><path id="XMLID_7056_" d="m416 271v120c0 13.81-11.19 25-25 25-9.825 0-285.311 0-300.67 0-24.48 0-44.33-19.85-44.33-44.33v-155.67c0 16.56 13.439 30 30 30h315c13.81 0 25 11.19 25 25z"/><path id="XMLID_1527_" d="m466 106h-80v-80z"/></g><g id="XMLID_6977_"><g id="XMLID_5325_" fill="#418cfe"><path id="XMLID_5329_" d="m473.071 98.929-80-80c-1.854-1.854-4.413-2.929-7.071-2.929h-230c-22.056 0-40 17.944-40 40v120h-40c-22.056 0-40 17.944-40 40v155.67c0 29.958 24.372 54.33 54.33 54.33h25.67v30c0 22.056 17.944 40 40 40h280c22.056 0 40-17.944 40-40v-350c0-2.666-1.078-5.223-2.929-7.071zm-77.071-48.786 45.858 45.857h-45.858zm-320 145.857h40v40h-40c-11.045 0-20-8.954-20-20 0-11.028 8.972-20 20-20zm14.33 210c-18.93 0-34.33-15.4-34.33-34.33v-121.025c6.016 3.488 12.864 5.355 20 5.355h315c8.272 0 15 6.729 15 15v120c0 8.272-6.728 15-15 15zm365.67 50c0 11.028-8.972 20-20 20h-280c-11.028 0-20-8.972-20-20v-30h255c19.299 0 35-15.701 35-35v-120c0-19.299-15.701-35-35-35h-255v-180c0-11.028 8.972-20 20-20h220v70c0 5.523 4.478 10 10 10h70z"/><path id="XMLID_5328_" d="m176 106h80c5.522 0 10-4.477 10-10s-4.478-10-10-10h-80c-5.523 0-10 4.477-10 10s4.477 10 10 10z"/><path id="XMLID_5327_" d="m336 126h-160c-5.523 0-10 4.477-10 10s4.477 10 10 10h160c5.522 0 10-4.477 10-10s-4.478-10-10-10z"/><path id="XMLID_5326_" d="m336 166h-160c-5.523 0-10 4.477-10 10s4.477 10 10 10h160c5.522 0 10-4.477 10-10s-4.478-10-10-10z"/></g></g></g><g id="XMLID_6849_"><g id="XMLID_5286_"><g id="XMLID_5300_"><path id="XMLID_5311_" d="m271.547 357.677-32.52-21.68h6.973c16.542 0 30-13.458 30-30s-13.458-30-30-30h-40c-5.523 0-10 4.478-10 10v30 10 .032.036 39.932c0 5.522 4.477 10 10 10s10-4.478 10-10v-21.315l44.453 29.636c1.705 1.137 3.631 1.681 5.538 1.681 3.232 0 6.403-1.563 8.33-4.454 3.063-4.596 1.822-10.805-2.774-13.868zm-55.547-61.68h30c5.514 0 10 4.486 10 10s-4.486 10-10 10h-30z" fill="#418cfe"/></g><g id="XMLID_5298_"><path id="XMLID_5299_" d="m366 275.997h-60c-5.522 0-10 4.478-10 10s4.478 10 10 10h20v70c0 5.522 4.478 10 10 10s10-4.478 10-10v-70h20c5.522 0 10-4.478 10-10s-4.478-10-10-10z" fill="#418cfe"/></g><g id="XMLID_5291_"><path id="XMLID_5292_" d="m126 295.997h30c5.523 0 10-4.478 10-10s-4.477-10-10-10h-30c-16.542 0-30 13.458-30 30s13.458 30 30 30h10c5.514 0 10 4.486 10 10s-4.486 10-10 10h-30c-5.523 0-10 4.478-10 10s4.477 10 10 10h30c16.542 0 30-13.458 30-30s-13.458-30-30-30h-10c-5.514 0-10-4.486-10-10s4.486-10 10-10z" fill="#418cfe"/></g></g></g></g></g></svg>