<svg id="Capa_1" enable-background="new 0 0 512 512" height="512" viewBox="0 0 512 512" width="512" xmlns="http://www.w3.org/2000/svg"><g><g><path clip-rule="evenodd" d="m450.911 7.5h-436.727c-3.129 0-5.684 2.556-5.684 5.686v436.896c0 3.13 2.555 5.686 5.684 5.686h436.728c3.129 0 5.684-2.556 5.684-5.686v-436.896c-.001-3.13-2.556-5.686-5.685-5.686z" fill="#c8effe" fill-rule="evenodd"/></g><g><path clip-rule="evenodd" d="m103.602 116.71c17.826-5.14 28.132-23.749 23.022-41.61-5.138-17.833-23.74-28.171-41.594-23.031-17.827 5.111-28.132 23.748-23.023 41.581 5.11 17.862 23.74 28.171 41.595 23.06z" fill="#ffd86c" fill-rule="evenodd"/></g><g><path clip-rule="evenodd" d="m291.509 455.768v-45.459l-79.658-74.348-2.899-2.929-96.508-98.412c-12.458-12.205-25.175-12.205-36.198 0l-67.746 69.064v146.398.976c0 2.585 2.555 4.71 5.684 4.71h74.348z" fill="#80d261" fill-rule="evenodd"/></g><g><path clip-rule="evenodd" d="m456.595 333.033v-18.436l-95.303-97.12c-13.377-13.152-27.098-13.152-38.982 0l-107.129 109.21-6.229 6.346 2.899 2.929 79.658 74.348v-59.3c0-9.907 8.095-17.977 17.97-17.977z" fill="#80d261" fill-rule="evenodd"/></g><g><path clip-rule="evenodd" d="m291.509 455.768v-45.459l-79.658-74.348-2.899-2.929-96.508-98.412c-12.458-12.205-25.175-12.205-36.198 0l-9.932 10.108c40.245 15.536 77.563 60.449 94.442 119.777 1.32 4.71 2.497 9.39 3.531 14.042 5.942 27.137 6.746 53.585 3.043 77.219h124.179z" fill="#68ca44" fill-rule="evenodd"/></g><g><path clip-rule="evenodd" d="m103.602 116.71c17.826-5.14 28.132-23.749 23.022-41.61-5.138-17.833-23.74-28.171-41.594-23.031-1.148.316-2.268.718-3.359 1.149 9.243 3.762 16.707 11.573 19.692 21.882 4.794 16.713-3.933 34.087-19.692 40.433 6.745 2.756 14.41 3.33 21.931 1.177z" fill="#fec165" fill-rule="evenodd"/></g><g><path clip-rule="evenodd" d="m456.595 314.596v-301.41c0-3.13-2.555-5.686-5.684-5.686h-211.044c43.776 50.742 74.864 123.654 85.342 207.076 11.166-10.166 23.768-9.189 36.083 2.9z" fill="#99e6fc" fill-rule="evenodd"/></g><g><path clip-rule="evenodd" d="m456.595 333.033v-18.436l-95.303-97.12c-12.315-12.09-24.917-13.066-36.083-2.9 2.526 20.159 3.847 40.95 3.847 62.2 0 19.154-1.091 37.935-3.158 56.256z" fill="#68ca44" fill-rule="evenodd"/></g><g><path d="m181.158 138.598c-1.23 0-2.477-.303-3.628-.941l-13.319-7.38c-3.623-2.007-4.933-6.572-2.925-10.195s6.574-4.931 10.195-2.925l13.319 7.38c3.623 2.007 4.933 6.572 2.925 10.195-1.37 2.471-3.929 3.866-6.567 3.866z"/></g><g><path clip-rule="evenodd" d="m503.5 486.179v-158.717c0-10.08-8.238-18.321-18.314-18.321h-64.329-220.374c-10.047 0-18.314 8.242-18.314 18.321v60.391 46.32 52.006c0 10.08 8.267 18.321 18.314 18.321h284.703c10.076 0 18.314-8.242 18.314-18.321z" fill="#fec165" fill-rule="evenodd"/></g><g><path clip-rule="evenodd" d="m503.5 486.179v-158.717c0-10.08-8.238-18.321-18.314-18.321h-31.634-44.063c10.937 23.605 17.08 56.112 17.08 78.253s-2.038 31.876-5.856 46.78c-6.803 26.419-19.175 50.369-35.739 70.327h100.211c10.077-.001 18.315-8.243 18.315-18.322z" fill="#fdb440" fill-rule="evenodd"/></g><g><path d="m184.8 124.537-13.319-7.38c-3.622-2.006-8.188-.698-10.195 2.925s-.698 8.188 2.925 10.195l13.319 7.38c1.152.638 2.398.941 3.628.941 2.638 0 5.198-1.395 6.567-3.866 2.007-3.623.698-8.188-2.925-10.195z"/><path d="m125.998 149.278c-1.14-3.982-5.29-6.286-9.274-5.147-3.982 1.14-6.287 5.292-5.147 9.274l4.191 14.646c.942 3.293 3.944 5.438 7.207 5.438.683 0 1.378-.094 2.067-.292 3.982-1.14 6.287-5.292 5.147-9.274z"/><path d="m165.229 74.962c.688 0 1.387-.095 2.082-.295l14.64-4.221c3.98-1.148 6.276-5.305 5.128-9.285-1.148-3.979-5.301-6.276-9.285-5.128l-14.64 4.221c-3.98 1.148-6.276 5.304-5.128 9.285.948 3.285 3.947 5.423 7.203 5.423z"/><path d="m51.995 172.947c.937.388 1.907.571 2.862.571 2.945 0 5.739-1.746 6.934-4.637l5.828-14.1c1.583-3.828-.238-8.214-4.066-9.796-3.828-1.584-8.214.238-9.796 4.066l-5.828 14.1c-1.583 3.828.238 8.214 4.066 9.796z"/><path d="m74.39 120.355c6.186 3.428 12.994 5.173 19.881 5.173 3.809 0 7.642-.534 11.408-1.612 21.756-6.273 34.386-29.098 28.151-50.894-6.279-21.794-29.096-34.422-50.869-28.164-21.776 6.244-34.411 29.058-28.166 50.854 3.023 10.565 9.982 19.317 19.595 24.643zm12.707-61.077c.002 0 .005-.001.007-.002 2.399-.691 4.817-1.02 7.198-1.02 11.341 0 21.815 7.47 25.11 18.906 3.961 13.846-4.063 28.354-17.875 32.337-6.713 1.922-13.772 1.118-19.877-2.265-6.104-3.382-10.523-8.939-12.443-15.65-3.968-13.849 4.053-28.341 17.88-32.306z"/><path d="m485.19 301.64h-21.09v-288.45c0-7.27-5.92-13.19-13.19-13.19h-436.73c-7.27 0-13.18 5.92-13.18 13.19v436.89c0 7.27 5.91 13.19 13.18 13.19h160.49v22.91c0 14.24 11.58 25.82 25.81 25.82h63.56c4.14 0 7.5-3.36 7.5-7.5s-3.36-7.5-7.5-7.5h-63.56c-5.96 0-10.81-4.85-10.81-10.82v-22.91-15-120.81c0-3.311 1.496-6.274 3.841-8.259.239-.161.468-.341.691-.533 1.772-1.271 3.936-2.028 6.278-2.028h31.892.003s.002 0 .003 0h216.722 2.125.003.003 12.87 21.09c5.96 0 10.81 4.85 10.81 10.82v158.72c0 5.97-4.85 10.82-10.81 10.82h-186.1c-4.14 0-7.5 3.36-7.5 7.5s3.36 7.5 7.5 7.5h186.1c14.23 0 25.81-11.58 25.81-25.82v-158.72c-.001-14.24-11.581-25.82-25.811-25.82zm-310.52 25.82v120.81h-158.67v-141.522l65.599-66.876c.072-.074.143-.148.212-.225 3.895-4.312 7.819-6.558 11.664-6.675 4.202-.135 8.81 2.211 13.669 6.956l71.85 73.247c-2.729 4.093-4.324 9.005-4.324 14.285zm274.43-31.197-82.454-84.039c-.031-.032-.063-.064-.095-.096-8.371-8.23-17.168-12.262-26.114-12.004-8.517.252-16.451 4.359-23.584 12.206l-26.822 27.348c-2.9 2.957-2.854 7.706.103 10.606s7.706 2.854 10.606-.103l26.926-27.453c.072-.073.142-.147.21-.223 4.314-4.774 8.689-7.26 13.004-7.387 4.708-.149 9.783 2.438 15.108 7.661l77.374 78.861h-183.12l24.315-24.78c2.901-2.957 2.856-7.705-.1-10.606-2.957-2.902-7.705-2.856-10.606.1l-34.624 35.286h-28.747c-3.492 0-6.822.701-9.863 1.964l-72.82-74.235c-.035-.036-.07-.071-.105-.105-7.907-7.746-16.213-11.521-24.675-11.284-8.042.246-15.52 4.113-22.229 11.496l-54.788 55.852v-270.328h433.1z"/><path d="m278.792 363.266h-21.099c-4.142 0-7.5 3.358-7.5 7.5s3.358 7.5 7.5 7.5h13.599v57.72c-.023.052-.053.108-.085.163h-31.885c-4.142 0-7.5 3.358-7.5 7.5s3.358 7.5 7.5 7.5h32.695c8.17 0 14.275-7.811 14.275-14.794v-65.589c0-4.142-3.357-7.5-7.5-7.5z"/><path d="m316.311 451.149c4.142 0 7.5-3.358 7.5-7.5v-27.764h17.474c17.564 0 26.754-14.029 26.754-27.887 0-13.146-8.608-26.455-25.061-26.455h-26.667c-4.142 0-7.5 3.358-7.5 7.5v38.203c-.057.372-.086.752-.086 1.139s.029.768.086 1.139v34.125c0 4.143 3.357 7.5 7.5 7.5zm7.5-74.606h19.167c9.576 0 10.061 9.542 10.061 11.455 0 3.485-1.12 6.823-3.072 9.157-2.071 2.476-4.992 3.73-8.682 3.73h-17.474z"/><path d="m402.743 376.543h29.796c4.142 0 7.5-3.358 7.5-7.5s-3.358-7.5-7.5-7.5h-29.796c-14.06 0-24.264 10.835-24.264 25.764v40.979c0 9.221 7.228 22.864 22.743 22.864h19.319c15.595 0 26.073-10.285 26.073-25.592v-6.317c0-11.166-7.13-22.433-23.059-22.433h-5.081c-4.142 0-7.5 3.358-7.5 7.5s3.358 7.5 7.5 7.5h5.081c1.993 0 8.059 0 8.059 7.433v6.317c0 7.028-3.726 10.592-11.073 10.592h-19.319c-7.288 0-7.743-7.785-7.743-7.864v-40.979c0-6.538 3.636-10.764 9.264-10.764z"/></g></g></svg>