<svg xmlns="http://www.w3.org/2000/svg" version="1.1" xmlns:xlink="http://www.w3.org/1999/xlink" xmlns:svgjs="http://svgjs.com/svgjs" width="512" height="512" x="0" y="0" viewBox="0 0 512 512" style="enable-background:new 0 0 512 512" xml:space="preserve" class=""><g><path d="M430.287 89.503v401.924c0 7.22-5.853 13.073-13.073 13.073H94.781c-7.22 0-13.073-5.853-13.073-13.073V20.573c0-7.22 5.853-13.073 13.073-13.073h257.804l77.702 82.003z" style="" fill="#effbff" data-original="#effbff"></path><path d="M430.291 89.5v401.93c0 7.22-5.86 13.07-13.08 13.07h-20c7.22 0 13.08-5.85 13.08-13.07V68.4l20 21.1z" style="" fill="#d6f6fd" data-original="#d6f6fd"></path><path d="M430.291 368.68v122.75c0 7.22-5.86 13.07-13.08 13.07H94.781c-7.22 0-13.07-5.85-13.07-13.07V368.68h348.58z" style="" fill="#00b8ff" data-original="#00b8ff"></path><path d="M430.291 368.68v122.75c0 7.22-5.86 13.07-13.08 13.07h-20.33c7.22 0 13.08-5.85 13.08-13.07V368.68h20.33z" style="" fill="#00a8ff" data-original="#00a8ff"></path><path d="M352.585 7.5v74.093a7.91 7.91 0 0 0 7.91 7.91h69.792L352.585 7.5z" style="" fill="#b7efff" data-original="#b7efff"></path><path d="m430.287 228.381-73.537-76.97c-7.667-8.025-20.453-8.122-28.24-.212L224.316 257.158l-46.918-44.616c-7.618-7.244-19.585-7.219-27.171.058l-68.518 66.143.003 89.938h348.58l-.005-140.3z" style="" fill="#00d6a0" data-original="#00d6a0" class=""></path><path d="M430.291 228.38v140.3h-20V242.206c0-3.097-1.194-6.075-3.334-8.315l-70.206-73.481c-3.19-3.34-7.27-5.3-11.5-5.89l3.26-3.32c7.79-7.91 20.57-7.81 28.24.21l73.54 76.97z" style="" fill="#00c376" data-original="#00c376"></path><circle cx="210.523" cy="108.203" r="46.551" style="" fill="#ffab56" data-original="#ffab56"></circle><path d="M257.071 108.2c0 25.71-20.84 46.55-46.55 46.55-10.81 0-20.76-3.68-28.66-9.87 2.12.3 4.28.45 6.48.45 25.71 0 46.55-20.84 46.55-46.55 0-14.9-7-28.16-17.89-36.68 22.64 3.15 40.07 22.59 40.07 46.1z" style="" fill="#ff982a" data-original="#ff982a"></path><path d="M81.709 421.043V20.573c0-7.22 5.853-13.073 13.073-13.073h257.804l77.702 82.003v401.924c0 7.22-5.853 13.073-13.073 13.073H94.781c-7.22 0-13.073-5.853-13.073-13.073v-35.858" style="stroke-width:15;stroke-linecap:round;stroke-linejoin:round;stroke-miterlimit:10;" fill="none" stroke="#000000" stroke-width="15" stroke-linecap="round" stroke-linejoin="round" stroke-miterlimit="10" data-original="#000000" class=""></path><path d="M352.585 7.5v74.093a7.91 7.91 0 0 0 7.91 7.91h69.792L352.585 7.5zM376.694 172.283l-19.944-20.872c-7.668-8.026-20.453-8.122-28.24-.212L225.637 255.682" style="stroke-width:15;stroke-linecap:round;stroke-linejoin:round;stroke-miterlimit:10;" fill="none" stroke="#000000" stroke-width="15" stroke-linecap="round" stroke-linejoin="round" stroke-miterlimit="10" data-original="#000000" class=""></path><path d="m258.702 289.857-81.303-77.315c-7.618-7.244-19.585-7.219-27.171.058L81.71 278.743l.003 89.938h348.58l-.004-140.299-29.51-30.887" style="stroke-width:15;stroke-linecap:round;stroke-linejoin:round;stroke-miterlimit:10;" fill="none" stroke="#000000" stroke-width="15" stroke-linecap="round" stroke-linejoin="round" stroke-miterlimit="10" data-original="#000000" class=""></path><circle cx="210.523" cy="108.203" r="46.551" style="stroke-width:15;stroke-linecap:round;stroke-linejoin:round;stroke-miterlimit:10;" fill="none" stroke="#000000" stroke-width="15" stroke-linecap="round" stroke-linejoin="round" stroke-miterlimit="10" data-original="#000000" class=""></circle><path d="M219.264 470.308v-67.31l45.508 65.898c.844 1.219 1.747.622 1.747-.861l-.63-65.164M347.205 408.63a33.558 33.558 0 0 0-18.852-5.759c-18.622 0-33.718 15.096-33.718 33.718s15.096 33.718 33.718 33.718c18.622 0 29.107-15.096 29.107-33.718h-20.173M154.754 402.872v67.436M192.934 421.902c0 10.51-8.893 19.031-19.403 19.031-5.212 0-18.646.084-18.646.084s-.085-13.817-.085-19.115c0-4.351-.047-19.031-.047-19.031h18.777c10.511.001 19.404 8.521 19.404 19.031z" style="stroke-width:15;stroke-linecap:round;stroke-linejoin:round;stroke-miterlimit:10;" fill="none" stroke="#000000" stroke-width="15" stroke-linecap="round" stroke-linejoin="round" stroke-miterlimit="10" data-original="#000000" class=""></path></g></svg>