<svg xmlns="http://www.w3.org/2000/svg" xmlns:xlink="http://www.w3.org/1999/xlink" width="512" zoomAndPan="magnify" viewBox="0 0 384 383.999986" height="512" preserveAspectRatio="xMidYMid meet" version="1.0"><defs><clipPath id="9932e454bd"><path d="M 53.394531 0 L 329.75 0 L 329.75 384 L 53.394531 384 Z M 53.394531 0 " clip-rule="nonzero"/></clipPath><clipPath id="416c0ddfd9"><path d="M 16.613281 166.179688 L 367.054688 166.179688 L 367.054688 331 L 16.613281 331 Z M 16.613281 166.179688 " clip-rule="nonzero"/></clipPath></defs><path fill="#ffcc7f" d="M 323.992188 178.425781 L 28.066406 178.425781 L 28.066406 319.171875 L 355.613281 319.171875 L 355.613281 178.425781 L 323.992188 178.425781 " fill-opacity="1" fill-rule="evenodd"/><path fill="#000000" d="M 70.71875 282.0625 L 54.855469 215.535156 L 68.582031 215.535156 L 78.605469 261.226562 L 90.757812 215.535156 L 106.710938 215.535156 L 118.367188 262.003906 L 128.558594 215.535156 L 142.066406 215.535156 L 125.933594 282.0625 L 111.695312 282.0625 L 98.460938 232.320312 L 85.261719 282.0625 Z M 148.925781 282.0625 L 148.925781 215.535156 L 198.191406 215.535156 L 198.191406 226.789062 L 162.34375 226.789062 L 162.34375 241.535156 L 195.707031 241.535156 L 195.707031 252.738281 L 162.34375 252.738281 L 162.34375 270.851562 L 199.464844 270.851562 L 199.464844 282.0625 Z M 210.886719 215.535156 L 237.457031 215.535156 C 242.71875 215.535156 246.652344 215.753906 249.226562 216.199219 C 251.824219 216.628906 254.117188 217.542969 256.167969 218.9375 C 258.214844 220.328125 259.894531 222.171875 261.257812 224.5 C 262.617188 226.808594 263.304688 229.414062 263.304688 232.28125 C 263.304688 235.386719 262.460938 238.25 260.789062 240.859375 C 259.109375 243.457031 256.832031 245.40625 253.96875 246.710938 C 258.007812 247.894531 261.136719 249.902344 263.304688 252.738281 C 265.480469 255.585938 266.566406 258.929688 266.566406 262.769531 C 266.566406 265.792969 265.867188 268.742188 264.457031 271.605469 C 263.054688 274.453125 261.136719 276.75 258.703125 278.453125 C 256.277344 280.152344 253.273438 281.207031 249.695312 281.605469 C 247.46875 281.84375 242.070312 281.996094 233.511719 282.0625 L 210.886719 282.0625 Z M 224.316406 226.609375 L 224.316406 241.984375 L 233.113281 241.984375 C 238.34375 241.984375 241.59375 241.914062 242.855469 241.753906 C 245.140625 241.496094 246.953125 240.699219 248.273438 239.386719 C 249.585938 238.070312 250.242188 236.332031 250.242188 234.179688 C 250.242188 232.121094 249.675781 230.449219 248.550781 229.167969 C 247.410156 227.871094 245.71875 227.105469 243.492188 226.835938 C 242.160156 226.679688 238.34375 226.609375 232.03125 226.609375 Z M 224.316406 253.066406 L 224.316406 270.851562 L 236.734375 270.851562 C 241.574219 270.851562 244.636719 270.71875 245.9375 270.441406 C 247.9375 270.082031 249.554688 269.1875 250.808594 267.796875 C 252.0625 266.382812 252.699219 264.492188 252.699219 262.144531 C 252.699219 260.144531 252.199219 258.453125 251.246094 257.058594 C 250.273438 255.664062 248.878906 254.640625 247.050781 254.011719 C 245.222656 253.375 241.246094 253.066406 235.152344 253.066406 Z M 277.90625 282.0625 L 277.90625 215.535156 L 299.429688 215.535156 C 307.589844 215.535156 312.910156 215.871094 315.382812 216.539062 C 319.191406 217.535156 322.402344 219.703125 324.96875 223.046875 C 327.53125 226.390625 328.824219 230.707031 328.824219 235.992188 C 328.824219 240.082031 328.078125 243.523438 326.585938 246.292969 C 325.105469 249.085938 323.238281 251.265625 320.941406 252.859375 C 318.664062 254.441406 316.347656 255.496094 313.992188 256.003906 C 310.792969 256.640625 306.148438 256.96875 300.066406 256.96875 L 291.328125 256.96875 L 291.328125 282.0625 Z M 291.328125 226.789062 L 291.328125 245.664062 L 298.664062 245.664062 C 303.953125 245.664062 307.492188 245.316406 309.269531 244.621094 C 311.058594 243.921875 312.441406 242.839844 313.464844 241.355469 C 314.46875 239.863281 314.988281 238.140625 314.988281 236.179688 C 314.988281 233.761719 314.269531 231.761719 312.847656 230.179688 C 311.449219 228.617188 309.628906 227.625 307.460938 227.234375 C 305.851562 226.925781 302.640625 226.789062 297.808594 226.789062 L 291.328125 226.789062 " fill-opacity="1" fill-rule="nonzero"/><g clip-path="url(#9932e454bd)"><path fill="#000000" d="M 53.949219 172.695312 C 53.949219 175.859375 56.511719 178.425781 59.675781 178.425781 C 62.839844 178.425781 65.402344 175.859375 65.402344 172.695312 L 65.402344 11.464844 L 265.917969 11.464844 L 318.265625 63.871094 L 318.265625 172.695312 C 318.265625 175.859375 320.839844 178.425781 323.992188 178.425781 C 327.152344 178.425781 329.726562 175.859375 329.726562 172.695312 L 329.726562 61.492188 L 329.71875 61.496094 C 329.71875 60.027344 329.160156 58.558594 328.046875 57.445312 L 272.359375 1.699219 C 271.324219 0.652344 269.882812 -0.00390625 268.28125 -0.00390625 L 59.675781 -0.00390625 C 56.511719 -0.00390625 53.949219 2.5625 53.949219 5.730469 Z M 329.726562 324.890625 C 329.726562 321.726562 327.152344 319.171875 323.992188 319.171875 C 320.839844 319.171875 318.265625 321.726562 318.265625 324.890625 L 318.265625 372.554688 L 65.402344 372.554688 L 65.398438 324.890625 C 65.398438 321.726562 62.835938 319.171875 59.675781 319.171875 C 56.511719 319.171875 53.949219 321.726562 53.949219 324.890625 L 53.949219 378.289062 C 53.949219 381.453125 56.511719 384.019531 59.675781 384.019531 L 323.992188 384.019531 C 327.152344 384.019531 329.726562 381.453125 329.726562 378.289062 L 329.726562 324.890625 " fill-opacity="1" fill-rule="nonzero"/></g><path fill="#000000" d="M 274.011719 5.734375 C 274.011719 2.566406 271.457031 0 268.285156 0 C 265.125 0 262.558594 2.566406 262.558594 5.734375 L 262.558594 33.613281 C 262.558594 42.863281 266.335938 51.269531 272.421875 57.359375 C 278.503906 63.449219 286.902344 67.230469 296.148438 67.230469 L 323.992188 67.230469 C 327.152344 67.230469 329.71875 64.660156 329.71875 61.496094 C 329.71875 58.332031 327.152344 55.761719 323.992188 55.761719 L 296.148438 55.761719 C 290.066406 55.761719 284.539062 53.269531 280.523438 49.253906 C 276.503906 45.238281 274.011719 39.699219 274.011719 33.613281 L 274.011719 5.734375 " fill-opacity="1" fill-rule="nonzero"/><g clip-path="url(#416c0ddfd9)"><path fill="#000000" d="M 28.066406 319.171875 L 355.613281 319.171875 L 355.613281 178.425781 L 28.066406 178.425781 Z M 361.332031 330.632812 L 22.339844 330.632812 C 19.175781 330.632812 16.613281 328.066406 16.613281 324.890625 L 16.613281 172.695312 C 16.613281 169.53125 19.175781 166.964844 22.339844 166.964844 L 361.332031 166.964844 C 364.492188 166.964844 367.066406 169.53125 367.066406 172.695312 L 367.066406 324.890625 C 367.066406 328.066406 364.492188 330.632812 361.332031 330.632812 " fill-opacity="1" fill-rule="nonzero"/></g><path fill="#000000" d="M 104.984375 65.699219 C 101.820312 65.699219 99.257812 68.265625 99.257812 71.425781 C 99.257812 74.59375 101.820312 77.15625 104.984375 77.15625 L 228.351562 77.15625 C 231.511719 77.15625 234.078125 74.59375 234.078125 71.425781 C 234.078125 68.265625 231.511719 65.699219 228.351562 65.699219 L 104.984375 65.699219 " fill-opacity="1" fill-rule="nonzero"/><path fill="#000000" d="M 104.984375 97.3125 C 101.820312 97.3125 99.257812 99.875 99.257812 103.039062 C 99.257812 106.203125 101.820312 108.773438 104.984375 108.773438 L 278.691406 108.773438 C 281.851562 108.773438 284.417969 106.203125 284.417969 103.039062 C 284.417969 99.875 281.851562 97.3125 278.691406 97.3125 L 104.984375 97.3125 " fill-opacity="1" fill-rule="nonzero"/><path fill="#000000" d="M 104.984375 128.921875 C 101.820312 128.921875 99.257812 131.488281 99.257812 134.652344 C 99.257812 137.816406 101.820312 140.386719 104.984375 140.386719 L 278.691406 140.386719 C 281.851562 140.386719 284.417969 137.816406 284.417969 134.652344 C 284.417969 131.488281 281.851562 128.921875 278.691406 128.921875 L 104.984375 128.921875 " fill-opacity="1" fill-rule="nonzero"/><path fill="#ffffff" d="M 99.257812 103.039062 C 99.257812 99.875 101.820312 97.3125 104.984375 97.3125 L 278.691406 97.3125 C 281.851562 97.3125 284.417969 99.875 284.417969 103.039062 C 284.417969 106.203125 281.851562 108.773438 278.691406 108.773438 L 104.984375 108.773438 C 101.820312 108.773438 99.257812 106.203125 99.257812 103.039062 Z M 99.257812 134.652344 C 99.257812 131.488281 101.820312 128.921875 104.984375 128.921875 L 278.691406 128.921875 C 281.851562 128.921875 284.417969 131.488281 284.417969 134.652344 C 284.417969 137.816406 281.851562 140.386719 278.691406 140.386719 L 104.984375 140.386719 C 101.820312 140.386719 99.257812 137.816406 99.257812 134.652344 Z M 99.257812 71.425781 C 99.257812 68.265625 101.820312 65.699219 104.984375 65.699219 L 228.351562 65.699219 C 231.511719 65.699219 234.078125 68.265625 234.078125 71.425781 C 234.078125 74.59375 231.511719 77.15625 228.351562 77.15625 L 104.984375 77.15625 C 101.820312 77.15625 99.257812 74.59375 99.257812 71.425781 Z M 65.402344 11.464844 L 65.402344 166.964844 L 318.265625 166.964844 L 318.265625 67.226562 L 296.148438 67.230469 C 286.902344 67.230469 278.5 63.449219 272.417969 57.359375 C 266.335938 51.269531 262.558594 42.863281 262.558594 33.613281 L 262.558594 11.464844 L 65.402344 11.464844 " fill-opacity="1" fill-rule="evenodd"/><path stroke-linecap="butt" transform="matrix(0.0994081, 0, 0, -0.0995076, 16.613268, 384.019892)" fill="none" stroke-linejoin="miter" d="M 831.366465 2823.711047 C 831.366465 2855.508228 857.144048 2881.299275 888.973075 2881.299275 L 2636.386661 2881.299275 C 2668.176393 2881.299275 2693.993271 2855.508228 2693.993271 2823.711047 C 2693.993271 2791.913867 2668.176393 2766.083564 2636.386661 2766.083564 L 888.973075 2766.083564 C 857.144048 2766.083564 831.366465 2791.913867 831.366465 2823.711047 Z M 831.366465 2506.01403 C 831.366465 2537.811211 857.144048 2563.602257 888.973075 2563.602257 L 2636.386661 2563.602257 C 2668.176393 2563.602257 2693.993271 2537.811211 2693.993271 2506.01403 C 2693.993271 2474.216849 2668.176393 2448.386547 2636.386661 2448.386547 L 888.973075 2448.386547 C 857.144048 2448.386547 831.366465 2474.216849 831.366465 2506.01403 Z M 831.366465 3141.408065 C 831.366465 3173.205246 857.144048 3198.996292 888.973075 3198.996292 L 2129.99077 3198.996292 C 2161.780502 3198.996292 2187.59738 3173.205246 2187.59738 3141.408065 C 2187.59738 3109.610884 2161.780502 3083.780582 2129.99077 3083.780582 L 888.973075 3083.780582 C 857.144048 3083.780582 831.366465 3109.610884 831.366465 3141.408065 Z M 490.795875 3743.984269 L 490.795875 2181.290228 L 3034.485271 2181.290228 L 3034.485271 3183.608027 L 2811.996442 3183.608027 C 2718.984951 3183.608027 2634.461202 3221.607621 2573.278739 3282.80738 C 2512.096275 3344.007139 2474.097918 3428.485575 2474.097918 3521.404003 L 2474.097918 3743.984269 Z M 490.795875 3743.984269 " stroke="#363334" stroke-width="5" stroke-opacity="1" stroke-miterlimit="2.6131"/><path fill="#ffffff" d="M 318.265625 330.632812 L 65.402344 330.632812 L 65.402344 372.554688 L 318.265625 372.554688 L 318.265625 330.632812 " fill-opacity="1" fill-rule="evenodd"/><path stroke-linecap="butt" transform="matrix(0.0994081, 0, 0, -0.0995076, 16.613268, 384.019892)" fill="none" stroke-linejoin="miter" d="M 3034.485271 536.551609 L 490.795875 536.551609 L 490.795875 115.219336 L 3034.485271 115.219336 Z M 3034.485271 536.551609 " stroke="#363334" stroke-width="5" stroke-opacity="1" stroke-miterlimit="2.6131"/><path fill="#b9b9b9" d="M 274.011719 33.613281 C 274.011719 39.699219 276.503906 45.238281 280.523438 49.253906 C 284.539062 53.269531 290.066406 55.761719 296.148438 55.761719 L 310.175781 55.761719 L 274.011719 19.566406 L 274.011719 33.613281 " fill-opacity="1" fill-rule="evenodd"/><path stroke-linecap="butt" transform="matrix(0.0994081, 0, 0, -0.0995076, 16.613268, 384.019892)" fill="none" stroke-linejoin="miter" d="M 2589.311137 3521.404003 C 2589.311137 3460.282756 2614.381408 3404.618062 2654.816061 3364.184609 C 2695.211419 3323.790413 2750.813979 3298.784482 2811.996442 3298.784482 L 2953.105128 3298.784482 L 2589.311137 3662.60704 Z M 2589.311137 3521.404003 " stroke="#363334" stroke-width="5" stroke-opacity="1" stroke-miterlimit="2.6131"/></svg>