<svg xmlns="http://www.w3.org/2000/svg" version="1.1" xmlns:xlink="http://www.w3.org/1999/xlink" xmlns:svgjs="http://svgjs.com/svgjs" width="512" height="512" x="0" y="0" viewBox="0 0 128 128" style="enable-background:new 0 0 512 512" xml:space="preserve" class=""><g><g xmlns="http://www.w3.org/2000/svg"><rect fill="#979fef" height="85.896" rx="4.501" width="115.386" x="6.307" y="12.994" data-original="#979fef"></rect><path d="m13.674 20.362h100.651v62.376h-100.651z" fill="#76e2f8" data-original="#76e2f8" class=""></path><path d="m50.742 98.89h26.516v16.116h-26.516z" fill="#d7e9ff" data-original="#d7e9ff"></path><path d="m117.193 98.89h-106.386a4.5 4.5 0 0 1 -4.5-4.5v-11.653h115.386v11.653a4.5 4.5 0 0 1 -4.5 4.5z" fill="#edf5ff" data-original="#edf5ff"></path><rect fill="#edf5ff" height="53.182" rx="2.306" width="29.887" x="91.806" y="61.824" data-original="#edf5ff"></rect><path d="m114.325 61.824-1.455 4.776a1.9 1.9 0 0 1 -1.817 1.346h-8.607a1.9 1.9 0 0 1 -1.817-1.346l-1.456-4.775z" fill="#979fef" data-original="#979fef"></path><path d="m91.806 108.885h29.887a0 0 0 0 1 0 0v3.815a2.31 2.31 0 0 1 -2.31 2.31h-25.267a2.31 2.31 0 0 1 -2.31-2.31v-3.811a0 0 0 0 1 0-.004z" fill="#979fef" data-original="#979fef"></path><g><path d="m117.192 11.244h-106.384a6.258 6.258 0 0 0 -6.251 6.256v12.622a1.75 1.75 0 0 0 3.5 0v-12.622a2.754 2.754 0 0 1 2.751-2.751h106.384a2.754 2.754 0 0 1 2.751 2.751v42.63a4.06 4.06 0 0 0 -.555-.056h-3.313v-39.713a1.75 1.75 0 0 0 -1.75-1.75h-100.651a1.751 1.751 0 0 0 -1.75 1.75v60.626h-3.867v-27.471a1.75 1.75 0 0 0 -3.5 0v40.874a6.258 6.258 0 0 0 6.251 6.251h38.184v12.615h-5.94a1.75 1.75 0 1 0 0 3.5h41.9a1.75 1.75 0 0 0 0-3.5h-5.944v-12.615h11.048v12.059a4.06 4.06 0 0 0 4.055 4.056h25.277a4.06 4.06 0 0 0 4.055-4.056v-15.189a1.75 1.75 0 0 0 -3.5 0v9.624h-26.387v-43.005a.556.556 0 0 1 .555-.556h3.767l1.076 3.533a3.63 3.63 0 0 0 3.492 2.588h8.607a3.628 3.628 0 0 0 3.491-2.587l1.077-3.534h3.767a.556.556 0 0 1 .555.556v24.017a1.75 1.75 0 0 0 3.5 0v-70.647a6.257 6.257 0 0 0 -6.251-6.256zm-41.684 102.012h-23.016v-12.615h23.016zm-64.7-16.115a2.755 2.755 0 0 1 -2.751-2.751v-9.9h82v12.651zm109.135 13.494v2.065a.556.556 0 0 1 -.555.556h-25.277a.556.556 0 0 1 -.555-.556v-2.065zm-29.887-46.505v16.857h-74.632v-58.876h97.151v37.963h-18.464a4.06 4.06 0 0 0 -4.055 4.056zm21 2.065h-8.607a.151.151 0 0 1 -.143-.106l-.767-2.515h10.426l-.765 2.516a.149.149 0 0 1 -.147.105z" fill="#000000" data-original="#000000" class=""></path><path d="m6.307 46.027a1.75 1.75 0 0 0 1.75-1.75v-4.5a1.75 1.75 0 0 0 -3.5 0v4.5a1.75 1.75 0 0 0 1.75 1.75z" fill="#000000" data-original="#000000" class=""></path></g></g></g></svg>