<svg xmlns="http://www.w3.org/2000/svg" version="1.1" xmlns:xlink="http://www.w3.org/1999/xlink" xmlns:svgjs="http://svgjs.com/svgjs" width="512" height="512" x="0" y="0" viewBox="0 0 511.99997 511.99997" style="enable-background:new 0 0 512 512" xml:space="preserve" class=""><g><path xmlns="http://www.w3.org/2000/svg" d="m469.332031 8.53125h-426.664062c-18.851563 0-34.136719 15.285156-34.136719 34.136719v34.132812h494.933594v-34.132812c.003906-18.851563-15.28125-34.136719-34.132813-34.136719zm0 0" fill="#bddbff" data-original="#bddbff"></path><path xmlns="http://www.w3.org/2000/svg" d="m354.21875 183.46875c-58.910156-54.128906-150.542969-50.25-204.671875 8.65625-54.125 58.910156-50.25 150.546875 8.660156 204.671875 58.910157 54.128906 150.542969 50.25 204.671875-8.660156 24.558594-26.726563 38.1875-61.703125 38.1875-98.003907.109375-40.566406-16.902344-79.296874-46.847656-106.664062zm0 0" fill="#bddbff" data-original="#bddbff"></path><g xmlns="http://www.w3.org/2000/svg" fill="#3d9ae2"><path d="m469.332031 0h-426.664062c-23.554688.0273438-42.6406252 19.113281-42.667969 42.667969v426.664062c.0273438 23.554688 19.113281 42.640625 42.667969 42.667969h426.664062c23.554688-.027344 42.640625-19.113281 42.667969-42.667969v-426.664062c-.027344-23.554688-19.113281-42.6406252-42.667969-42.667969zm-426.664062 17.066406h426.664062c14.140625 0 25.601563 11.460938 25.601563 25.601563v25.597656h-477.867188v-25.597656c0-14.140625 11.460938-25.601563 25.601563-25.601563zm426.664062 477.867188h-426.664062c-14.140625 0-25.601563-11.460938-25.601563-25.601563v-384h477.867188v384c0 14.140625-11.460938 25.601563-25.601563 25.601563zm0 0" fill="#3d9ae2" data-original="#3d9ae2" class=""></path><path d="m42.667969 34.132812h17.066406v17.066407h-17.066406zm0 0" fill="#3d9ae2" data-original="#3d9ae2" class=""></path><path d="m76.800781 34.132812h17.066407v17.066407h-17.066407zm0 0" fill="#3d9ae2" data-original="#3d9ae2" class=""></path><path d="m110.933594 34.132812h17.066406v17.066407h-17.066406zm0 0" fill="#3d9ae2" data-original="#3d9ae2" class=""></path><path d="m360.003906 177.203125c-54.734375-50.457031-137.78125-54.371094-197.015625-9.285156-3.796875 2.910156-7.484375 5.976562-11.027343 9.285156-62.578126 57.222656-66.921876 154.34375-9.699219 216.921875 53.757812 58.789062 143.542969 66.699219 206.75 18.222656 3.800781-2.910156 7.484375-5.972656 11.027343-9.285156 62.363282-57.316406 66.457032-154.339844 9.136719-216.703125-2.914062-3.171875-5.964843-6.222656-9.136719-9.140625zm-6.339844 207.992187c-7.5-6.222656-15.574218-11.714843-24.113281-16.402343 7.148438-22.710938 11.039063-46.320313 11.550781-70.125h50.988282c-2.0625 32.503906-15.695313 63.199219-38.425782 86.527343zm-13.902343 12.621094c-1.3125 1.03125-2.667969 1.980469-4.019531 2.960938-1.945313 1.40625-3.898438 2.789062-5.902344 4.085937-1.445313.929688-2.910156 1.800781-4.378906 2.679688-2.011719 1.195312-4.035157 2.347656-6.109376 3.414062-1.519531.800781-3.0625 1.570313-4.617187 2.3125-2.089844 1.007813-4.214844 1.945313-6.355469 2.839844-1.453125.597656-2.910156 1.195313-4.378906 1.707031 8.039062-10.007812 14.609375-21.105468 19.523438-32.964844 6.148437 3.488282 12.011718 7.453126 17.535156 11.855469-.441406.375-.851563.765625-1.296875 1.109375zm-142.503907 15.460938c-1.539062-.734375-3.058593-1.496094-4.566406-2.285156-2.089844-1.101563-4.148437-2.269532-6.179687-3.484376-1.441407-.851562-2.882813-1.707031-4.265625-2.625-2.03125-1.316406-4.011719-2.722656-5.972656-4.148437-1.332032-.964844-2.671876-1.902344-3.96875-2.917969-.441407-.34375-.851563-.734375-1.296876-1.085937 5.503907-4.40625 11.34375-8.378907 17.46875-11.878907 4.910157 11.867188 11.484376 22.976563 19.523438 32.992188-1.457031-.546875-2.910156-1.136719-4.351562-1.707031-2.160157-.90625-4.300782-1.851563-6.417969-2.859375zm-38.921874-218.207032c7.5 6.222657 15.574218 11.714844 24.113281 16.402344-7.148438 22.710938-11.039063 46.324219-11.550781 70.128906h-50.988282c2.0625-32.507812 15.695313-63.203124 38.425782-86.53125zm13.902343-12.617187c1.3125-1.035156 2.667969-1.980469 4.019531-2.960937 1.945313-1.410157 3.898438-2.792969 5.910157-4.089844 1.4375-.929688 2.902343-1.800782 4.363281-2.667969 2.011719-1.195313 4.042969-2.355469 6.117188-3.414063 1.519531-.804687 3.0625-1.570312 4.617187-2.3125 2.089844-1.007812 4.214844-1.945312 6.355469-2.84375 1.453125-.597656 2.910156-1.195312 4.378906-1.707031-8.035156 10.007813-14.609375 21.101563-19.523438 32.957031-6.148437-3.488281-12.011718-7.449218-17.535156-11.851562.441406-.378906.851563-.769531 1.296875-1.109375zm142.503907-15.464844c1.539062.734375 3.058593 1.496094 4.566406 2.285157 2.089844 1.101562 4.148437 2.273437 6.179687 3.484374 1.441407.851563 2.882813 1.707032 4.265625 2.628907 2.03125 1.3125 4.011719 2.722656 5.972656 4.144531 1.332032.964844 2.671876 1.902344 3.96875 2.917969.441407.34375.851563.734375 1.296876 1.085937-5.503907 4.410156-11.34375 8.378906-17.46875 11.878906-4.910157-11.867187-11.484376-22.976562-19.523438-32.992187 1.457031.546875 2.910156 1.136719 4.351562 1.707031 2.160157.90625 4.300782 1.851563 6.417969 2.859375zm-67.273438 45.988281c-14.964844-.925781-29.667969-4.320312-43.523438-10.046874 10.863282-25.734376 26.292969-43.5625 43.523438-48.082032zm0 17.066407v51.558593h-59.515625c.597656-21.222656 4.042969-42.269531 10.242187-62.574218 15.703126 6.363281 32.351563 10.070312 49.269532 10.972656v.042969zm0 68.625v51.601562c-16.933594.894531-33.601562 4.605469-49.316406 10.972657-6.183594-20.308594-9.613282-41.355469-10.199219-62.574219zm0 68.625v58.128906c-17.203125-4.523437-32.632812-22.351563-43.523438-48.085937 13.855469-5.726563 28.558594-9.121094 43.523438-10.042969zm17.0625 0c14.964844.921875 29.667969 4.316406 43.523438 10.042969-10.863282 25.734374-26.292969 43.519531-43.523438 48.085937zm0-17.066407v-51.558593h59.511719c-.582031 21.21875-4.011719 42.265625-10.195313 62.574219-15.714844-6.371094-32.382812-10.078126-49.316406-10.972657zm0-68.625v-51.601562c16.933594-.898438 33.601562-4.605469 49.316406-10.976562 6.183594 20.308593 9.613282 41.355468 10.199219 62.578124zm0-68.625v-58.128906c17.203125 4.519532 32.632812 22.347656 43.523438 48.082032-13.855469 5.726562-28.558594 9.121093-43.523438 10.046874zm-93.632812 85.691407c.511718 23.804687 4.402343 47.414062 11.554687 70.125-8.542969 4.6875-16.621094 10.179687-24.117187 16.402343-22.734376-23.324218-36.367188-54.019531-38.425782-86.527343zm170.203124-17.066407c-.511718-23.804687-4.402343-47.417968-11.554687-70.128906 8.542969-4.683594 16.621094-10.175781 24.117187-16.402344 22.734376 23.328126 36.367188 54.023438 38.425782 86.53125zm0 0" fill="#3d9ae2" data-original="#3d9ae2" class=""></path></g></g></svg>