<svg height="512pt" viewBox="0 0 512 512" width="512pt" xmlns="http://www.w3.org/2000/svg"><path d="m186.335938 412.621094h157.703124v77.011718h-157.703124zm0 0" fill="#304c56"/><path d="m431.511719 50.035156h-351.28125c-40.113281 0-72.628907 32.515625-72.628907 72.625v240.074219c0 40.113281 32.515626 72.628906 72.628907 72.628906h351.28125c40.109375 0 72.625-32.515625 72.625-72.628906v-240.074219c0-40.109375-32.515625-72.625-72.625-72.625zm0 0" fill="#4b6570"/><path d="m105.285156 435.363281h-25.058594c-40.109374 0-72.625-32.519531-72.625-72.625v-240.082031c0-40.109375 32.515626-72.625 72.625-72.625h25.058594c-40.105468 0-72.625 32.515625-72.625 72.625v240.082031c0 40.105469 32.519532 72.625 72.625 72.625zm0 0" fill="#304c56"/><path d="m357.632812 504.402344h-184.886718c-14.265625 0-19.105469-19.039063-6.570313-25.851563l20.160157-10.953125h157.703124l20.160157 10.953125c12.539062 6.8125 7.699219 25.851563-6.566407 25.851563zm0 0" fill="#4b6570"/><path d="m37.992188 321.148438v-201.496094c0-21.660156 17.558593-39.214844 39.21875-39.214844h357.300781c21.660156 0 39.21875 17.558594 39.21875 39.21875v201.492188c0 21.660156-17.558594 39.21875-39.21875 39.21875h-357.300781c-21.660157 0-39.21875-17.558594-39.21875-39.21875zm0 0" fill="#efe1f9"/><path d="m373.535156 121.042969c-3.730468-151.257813-231.609375-151.257813-235.339844 0-.039062 1.691406-.0625 3.382812-.0625 5.082031 0 81.554688 48.238282 151.828125 117.730469 183.882812 69.496094-32.054687 117.734375-102.328124 117.734375-183.882812 0-1.699219-.023437-3.390625-.0625-5.082031zm0 0" fill="#ff557e"/><path d="m340.925781 124.320312c0 46.976563-38.082031 85.058594-85.0625 85.058594-46.976562 0-85.058593-38.082031-85.058593-85.058594 0-46.976562 38.082031-85.0625 85.058593-85.0625 46.980469 0 85.0625 38.085938 85.0625 85.0625zm0 0" fill="#fff"/><path d="m431.511719 42.429688h-78.648438c-3.714843-4.339844-7.773437-8.425782-12.1875-12.226563-22.605469-19.476563-52.722656-30.203125-84.804687-30.203125-.003906 0 0 0-.003906 0-32.078126 0-62.203126 10.726562-84.808594 30.203125-4.410156 3.800781-8.46875 7.886719-12.183594 12.226563h-78.648438c-44.238281 0-80.226562 35.992187-80.226562 80.226562v240.082031c0 44.238281 35.988281 80.226563 80.226562 80.226563h98.503907v20.113281l-16.1875 8.792969c-8.730469 4.746094-12.949219 14.402344-10.503907 24.03125 2.449219 9.628906 10.765626 16.097656 20.703126 16.097656h184.882812c9.9375 0 18.257812-6.46875 20.703125-16.097656 2.449219-9.628906-1.773437-19.285156-10.503906-24.03125l-16.1875-8.792969v-20.113281h79.875c44.234375 0 80.226562-35.992188 80.226562-80.226563v-240.082031c0-44.234375-35.992187-80.226562-80.226562-80.226562zm-67.914063 449.726562c-.277344 1.089844-1.527344 4.644531-5.972656 4.644531h-184.882812c-4.445313 0-5.691407-3.554687-5.972657-4.644531-.273437-1.089844-.875-4.808594 3.03125-6.929688l18.460938-10.03125h153.84375l18.460937 10.03125c3.90625 2.121094 3.308594 5.84375 3.03125 6.929688zm-27.160156-32.867188h-142.507812v-16.324218h142.507812zm160.097656-96.550781c0 35.855469-29.167968 65.023438-65.023437 65.023438h-351.285157c-35.855468 0-65.027343-29.167969-65.027343-65.023438v-240.082031c0-35.855469 29.171875-65.027344 65.027343-65.027344h67.707032c-2.898438 4.839844-5.453125 9.90625-7.640625 15.203125h-63.078125c-25.8125 0-46.816406 21-46.816406 46.816407v201.5c0 25.816406 21.003906 46.816406 46.816406 46.816406h357.296875c25.816406 0 46.824219-21.003906 46.824219-46.824219v-124.226563c0-4.195312-3.402344-7.601562-7.601563-7.601562-4.195313 0-7.597656 3.40625-7.597656 7.601562v124.226563c0 17.4375-14.1875 31.625-31.625 31.625h-357.296875c-17.433594 0-31.613282-14.179687-31.613282-31.613281v-201.503906c0-17.433594 14.179688-31.617188 31.613282-31.617188h57.957031c-2.746094 10.308594-4.285156 21.285156-4.570313 32.832031-.042968 1.742188-.074218 3.507813-.074218 5.261719 0 30.648438 6.457031 60.1875 19.195312 87.796875 1.753906 3.808594 6.269532 5.472656 10.082032 3.714844 3.8125-1.757813 5.476562-6.269531 3.71875-10.082031-11.808594-25.597657-17.796876-52.996094-17.796876-81.433594 0-1.628906.03125-3.269532.070313-4.886719.808594-32.886719 12.976563-60.382813 35.183594-79.515625 19.851562-17.101562 46.445312-26.519531 74.890625-26.519531 28.441406 0 55.035156 9.417969 74.886718 26.519531 22.203126 19.132812 34.371094 46.628906 35.179688 79.511719.042969 1.621093.058594 3.261719.058594 4.890625 0 37.949218-10.914063 74.722656-31.566406 106.347656-19.484376 29.84375-46.597657 53.683594-78.558594 69.128906-31.773438-15.355468-58.753906-39-78.195313-68.566406-2.304687-3.507812-7.019531-4.484375-10.523437-2.175781-3.507813 2.304687-4.480469 7.015625-2.175782 10.523437 21.644532 32.925782 51.976563 59.042969 87.710938 75.523438 1.007812.46875 2.09375.699218 3.183594.699218 1.085937 0 2.171875-.230468 3.183594-.695312 35.945312-16.578125 66.410156-42.902344 88.105468-76.125 22.269532-34.105469 34.039063-73.75 34.039063-114.65625 0-1.753906-.019531-3.519531-.0625-5.265625-.285157-11.546875-1.824219-22.523437-4.570313-32.828125h57.945313c17.4375 0 31.625 14.183594 31.625 31.617188v46.867187c0 4.195313 3.402343 7.597656 7.601562 7.597656s7.601563-3.402343 7.601563-7.597656v-46.867187c0-25.816407-21.007813-46.816407-46.828125-46.816407h-63.066407c-2.1875-5.292969-4.738281-10.363281-7.640624-15.199219h67.707031c35.855469 0 65.027343 29.167969 65.027343 65.023438v240.082031zm0 0"/><path d="m255.863281 216.980469c51.09375 0 92.660157-41.566407 92.660157-92.660157s-41.566407-92.660156-92.660157-92.660156c-51.089843 0-92.65625 41.566406-92.65625 92.660156s41.566407 92.660157 92.65625 92.660157zm0-170.121094c42.714844 0 77.460938 34.746094 77.460938 77.460937 0 42.710938-34.746094 77.460938-77.460938 77.460938-42.710937 0-77.457031-34.75-77.457031-77.460938 0-42.714843 34.746094-77.460937 77.457031-77.460937zm0 0"/><path d="m226.234375 165.570312c1.582031.832032 3.386719 1.253907 5.363281 1.253907 1.894532 0 3.679688-.421875 5.300782-1.253907 1.703124-.875 2.566406-2.167968 2.566406-3.851562v-74.914062c0-1.765626-.867188-3.0625-2.582032-3.859376-1.621093-.75-3.398437-1.128906-5.289062-1.128906-1.964844 0-3.765625.378906-5.347656 1.128906-1.671875.796876-2.523438 2.09375-2.523438 3.859376v74.914062c0 1.683594.84375 2.980469 2.511719 3.851562zm0 0"/><path d="m255.046875 165.570312c1.582031.832032 3.386719 1.253907 5.359375 1.253907 1.898438 0 3.683594-.421875 5.304688-1.253907 1.703124-.875 2.566406-2.167968 2.566406-3.851562v-26.359375h12.53125c3.785156 0 7.386718-.488281 10.707031-1.457031 3.335937-.96875 6.292969-2.523438 8.785156-4.625 2.492188-2.105469 4.46875-4.867188 5.867188-8.210938 1.394531-3.335937 2.101562-7.457031 2.101562-12.25v-.691406c0-4.707031-.6875-8.789062-2.042969-12.128906-1.363281-3.34375-3.277343-6.105469-5.691406-8.210938-2.414062-2.101562-5.253906-3.640625-8.441406-4.574218-3.171875-.925782-6.660156-1.398438-10.367188-1.398438h-23.164062c-1.859375 0-3.339844.5-4.40625 1.484375-1.078125.992187-1.621094 2.171875-1.621094 3.507813v74.914062c.003906 1.683594.847656 2.980469 2.511719 3.851562zm13.234375-42.726562v-27.128906h12.527344c3.640625 0 6.535156 1.046875 8.605468 3.113281 2.066407 2.070313 3.113282 5.351563 3.113282 9.757813v1.382812c0 4.410156-1.046875 7.691406-3.113282 9.761719-2.066406 2.066406-4.960937 3.113281-8.605468 3.113281zm0 0"/></svg>