<svg xmlns="http://www.w3.org/2000/svg" version="1.1" xmlns:xlink="http://www.w3.org/1999/xlink" xmlns:svgjs="http://svgjs.com/svgjs" width="512" height="512" x="0" y="0" viewBox="0 0 496.679 496.679" style="enable-background:new 0 0 512 512" xml:space="preserve" class=""><g> <circle xmlns="http://www.w3.org/2000/svg" style="" cx="205.673" cy="204.8" r="204.8" fill="#fdbf5e" data-original="#fdbf5e"></circle> <ellipse xmlns="http://www.w3.org/2000/svg" style="" cx="205.719" cy="204.679" rx="172.219" ry="172.219" fill="#ffffff" data-original="#ffffff" class=""></ellipse> <path xmlns="http://www.w3.org/2000/svg" style="" d="M205.673,384c-65.939,0-126.448-35.685-157.479-93.867C0.873,203.248,32.679,94.642,119.564,47.321  C145.939,33.358,175.418,25.6,204.897,25.6c65.939,0,126.448,35.685,157.479,93.867c47.321,86.885,14.739,196.267-72.145,243.588  C264.63,376.242,235.152,384,205.673,384z M205.673,39.564c-27.152,0-54.303,6.982-78.352,20.17  C46.642,103.176,17.164,204.024,60.606,283.152c28.703,52.752,84.558,86.109,145.067,86.109c27.152,0,54.303-6.982,78.352-20.17  c79.903-43.442,109.382-143.515,65.939-223.418C321.261,72.921,265.406,39.564,205.673,39.564z" fill="#193651" data-original="#193651"></path> <ellipse xmlns="http://www.w3.org/2000/svg" style="" cx="205.719" cy="204.679" rx="144.291" ry="144.291" fill="#e1e6e9" data-original="#e1e6e9" class=""></ellipse> <g xmlns="http://www.w3.org/2000/svg"> <path style="" d="M232.048,213.333c0,0,0-8.533-20.945,3.103c0,0-3.879,5.43-13.188-8.533l-6.206,3.879   c0,0-10.861-9.309-13.964-1.552c0,0-1.552,6.206-10.861,0.776c0,0-15.515,3.879-5.43,24.048c0,0-10.861,21.721,19.394,25.6   l13.964,2.327l10.085,19.394c0,0,5.43-2.327,7.758,7.758c0,0,10.085,2.327,11.636,17.842c0,0,17.067,15.515,26.376,2.327   l-6.206-2.327l-2.327-9.309l-6.206,3.103l-0.776-10.861l-5.43-0.776c0,0,20.945-13.188,10.861-31.806   c0,0-13.964-3.879,1.552-10.861c0,0,7.758-3.879-2.327-20.945c0,0,3.103-10.085,0-13.188   C236.703,210.23,232.048,213.333,232.048,213.333z" fill="#2ea2db" data-original="#2ea2db"></path> <path style="" d="M291.782,88.436c0.776,6.206,6.206,12.412,6.206,12.412c0.776,13.964-23.273,5.43-23.273,5.43   c1.552,14.739-19.394,10.085-19.394,10.085c-41.115,0.776-29.479,34.133-29.479,34.133c-7.758,24.824,20.17,37.236,20.17,37.236   c17.067,7.758,20.945-17.067,20.945-17.067c15.515,6.206,20.17,0,20.17,0s0,0,2.327,7.758c2.327,7.758,18.618,9.309,20.17,13.188   c1.552,3.879-9.309,20.945,8.533,24.824c17.842,3.879,17.067,14.739,17.067,14.739s6.206,1.552,11.636,2.327   c6.206-31.806,1.552-65.939-14.739-96.97C322.036,116.364,308.073,100.848,291.782,88.436z" fill="#2ea2db" data-original="#2ea2db"></path> <path style="" d="M96.291,234.279c0,0,0,0,13.964,9.309s13.964-10.861,7.758-16.291   c-6.206-5.43-6.206-18.618,10.861-23.273c17.067-4.655,6.982-6.982,10.861-31.03c3.879-24.048,19.394-15.515,17.842-27.927   c-1.552-12.412-8.533-32.582-17.842-12.412c-9.309,20.17-10.085,13.964-6.206-10.861c4.655-25.6-7.758,8.533-31.806,20.945   c-10.861,5.43-17.842,0.776-23.273-6.982c-7.758,14.739-13.964,30.255-16.291,46.545c1.552,8.533,4.655,18.618,8.533,33.358   C76.897,238.933,96.291,234.279,96.291,234.279z" fill="#2ea2db" data-original="#2ea2db"></path> </g> <rect xmlns="http://www.w3.org/2000/svg" x="263.253" y="347.541" transform="matrix(-0.7071 -0.7071 0.7071 -0.7071 213.9752 838.7913)" style="" width="34.909" height="55.078" fill="#ffffff" data-original="#ffffff" class=""></rect> <path xmlns="http://www.w3.org/2000/svg" style="" d="M273.164,414.255c-1.552,0-3.879-0.776-5.43-2.327l-24.048-24.049  c-1.552-1.552-2.327-3.103-2.327-5.43s0.776-3.879,2.327-5.43l38.788-38.788c3.103-3.103,7.758-3.103,10.085,0l24.824,24.824  c1.552,1.552,2.327,3.103,2.327,5.43s-0.776,3.879-2.327,5.43l-38.788,38.788C277.042,413.479,275.491,414.255,273.164,414.255z   M259.2,382.448l13.964,13.964l28.703-28.703l-13.964-13.964L259.2,382.448z" fill="#193651" data-original="#193651"></path> <path xmlns="http://www.w3.org/2000/svg" style="" d="M239.806,373.139l-63.612,63.612c-11.636,11.636-11.636,31.03,0,42.667  c11.636,11.636,31.03,11.636,42.667,0l63.612-63.612L239.806,373.139z" fill="#ffffff" data-original="#ffffff" class=""></path> <path xmlns="http://www.w3.org/2000/svg" style="" d="M287.903,411.152l-42.667-42.667c-3.103-3.103-7.758-3.103-10.085,0l-64.388,63.612  c-14.739,14.739-14.739,38.788,0,53.527c14.739,14.739,38.788,14.739,53.527,0l63.612-63.612  C291.006,418.909,291.006,414.255,287.903,411.152z M213.43,474.764c-8.533,8.533-24.048,8.533-32.582,0  c-9.309-9.309-9.309-23.273,0-32.582l58.958-58.958l32.582,32.582L213.43,474.764z" fill="#193651" data-original="#193651"></path> <path xmlns="http://www.w3.org/2000/svg" style="" d="M245.236,288.582c0-66.715,54.303-121.794,121.794-121.794c66.715,0,121.794,54.303,121.794,121.794  S434.521,410.376,367.03,410.376C300.315,410.376,245.236,356.073,245.236,288.582z" fill="#ffffff" data-original="#ffffff" class=""></path> <path xmlns="http://www.w3.org/2000/svg" style="" d="M367.03,417.358c-34.133,0-66.715-13.188-90.764-38.012c-24.048-24.048-38.012-56.63-38.012-90.764  c0-71.37,57.406-128.776,128.776-128.776c34.133,0,66.715,13.188,90.764,38.012c24.048,24.048,38.012,56.63,38.012,90.764  C495.806,359.952,438.4,417.358,367.03,417.358z M367.03,174.545c-62.836,0-114.036,51.2-114.036,114.036  c0,30.255,11.636,58.958,33.358,80.679c21.721,21.721,50.424,33.358,80.679,33.358c62.836,0,114.036-51.2,114.036-114.036  c0-30.255-11.636-58.958-33.358-80.679C425.988,186.958,397.285,174.545,367.03,174.545z" fill="#193651" data-original="#193651"></path> <circle xmlns="http://www.w3.org/2000/svg" style="" cx="367.03" cy="288.582" r="92.315" fill="#2ea2db" data-original="#2ea2db"></circle> <path xmlns="http://www.w3.org/2000/svg" style="" d="M429.867,296.339c-3.879,0-6.982-3.103-6.982-6.982c0-30.255-24.824-55.079-55.079-55.079  c-3.879,0-6.982-3.103-6.982-6.982c0-3.879,3.103-6.982,6.982-6.982c38.788,0,69.818,31.806,69.818,69.818  C436.848,293.236,433.745,296.339,429.867,296.339z" fill="#ffffff" data-original="#ffffff" class=""></path> <rect xmlns="http://www.w3.org/2000/svg" x="194.256" y="447.414" transform="matrix(-0.7073 0.7069 -0.7069 -0.7073 665.7269 633.9251)" style="" width="14.739" height="14.739" fill="#193651" data-original="#193651"></rect> <rect xmlns="http://www.w3.org/2000/svg" x="214.424" y="427.232" transform="matrix(-0.7072 0.707 -0.707 -0.7072 685.9145 585.1457)" style="" width="14.739" height="14.739" fill="#193651" data-original="#193651"></rect> <rect xmlns="http://www.w3.org/2000/svg" x="234.586" y="407.084" transform="matrix(-0.707 0.7072 -0.7072 -0.707 706.1243 536.3626)" style="" width="14.739" height="14.739" fill="#193651" data-original="#193651"></rect> <g xmlns="http://www.w3.org/2000/svg"> </g> <g xmlns="http://www.w3.org/2000/svg"> </g> <g xmlns="http://www.w3.org/2000/svg"> </g> <g xmlns="http://www.w3.org/2000/svg"> </g> <g xmlns="http://www.w3.org/2000/svg"> </g> <g xmlns="http://www.w3.org/2000/svg"> </g> <g xmlns="http://www.w3.org/2000/svg"> </g> <g xmlns="http://www.w3.org/2000/svg"> </g> <g xmlns="http://www.w3.org/2000/svg"> </g> <g xmlns="http://www.w3.org/2000/svg"> </g> <g xmlns="http://www.w3.org/2000/svg"> </g> <g xmlns="http://www.w3.org/2000/svg"> </g> <g xmlns="http://www.w3.org/2000/svg"> </g> <g xmlns="http://www.w3.org/2000/svg"> </g> <g xmlns="http://www.w3.org/2000/svg"> </g> </g></svg>