<svg xmlns="http://www.w3.org/2000/svg" width="384" viewBox="0 0 384 384" height="384" version="1.0"><defs><clipPath id="a"><path d="M 0 0.375 L 384 0.375 L 384 383.625 L 0 383.625 Z M 0 0.375"/></clipPath></defs><path fill="#FFF9E9" d="M 13.324219 5.988281 L 157.269531 5.988281 L 226.359375 74.480469 L 226.359375 307.871094 C 226.359375 311.691406 223.214844 314.757812 219.394531 314.757812 L 13.324219 314.757812 C 9.507812 314.757812 6.363281 311.691406 6.363281 307.871094 L 6.363281 12.949219 C 6.363281 9.058594 9.507812 5.988281 13.324219 5.988281 Z M 13.324219 5.988281"/><path fill="#FFF4D6" d="M 226.359375 74.480469 L 226.359375 307.871094 C 226.359375 311.691406 223.214844 314.757812 219.394531 314.757812 L 189.453125 314.757812 C 193.273438 314.757812 196.417969 311.691406 196.417969 307.871094 L 196.417969 74.480469 L 195.96875 44.3125 Z M 226.359375 74.480469"/><path fill="#FFEEC2" d="M 226.359375 74.929688 L 164.230469 74.929688 C 160.410156 74.929688 157.269531 71.859375 157.269531 68.042969 L 157.269531 5.988281 Z M 226.359375 74.929688"/><path fill="#ABDAFF" d="M 354.433594 378.011719 L 161.308594 378.011719 C 148.136719 378.011719 137.355469 367.304688 137.355469 354.058594 L 137.355469 270.59375 C 137.355469 257.347656 148.136719 246.640625 161.308594 246.640625 L 354.433594 246.640625 C 367.679688 246.640625 378.386719 257.347656 378.386719 270.59375 L 378.386719 354.058594 C 378.386719 367.304688 367.679688 378.011719 354.433594 378.011719 Z M 354.433594 378.011719"/><path fill="#99D3FF" d="M 378.386719 270.59375 L 378.386719 354.058594 C 378.386719 367.304688 367.679688 378.011719 354.433594 378.011719 L 324.492188 378.011719 C 337.738281 378.011719 348.445312 367.304688 348.445312 354.058594 L 348.445312 270.59375 C 348.445312 257.347656 337.738281 246.640625 324.492188 246.640625 L 354.433594 246.640625 C 367.679688 246.640625 378.386719 257.347656 378.386719 270.59375 Z M 378.386719 270.59375"/><g clip-path="url(#a)"><path fill="#060606" d="M 384 270.59375 L 384 354.058594 C 384 370.375 370.75 383.625 354.433594 383.625 L 346.574219 383.625 C 339.3125 383.625 339.3125 372.394531 346.574219 372.394531 L 354.433594 372.394531 C 364.539062 372.394531 372.769531 364.164062 372.769531 354.058594 L 372.769531 270.59375 C 372.769531 260.488281 364.539062 252.257812 354.433594 252.257812 L 161.308594 252.257812 C 151.203125 252.257812 142.972656 260.488281 142.972656 270.59375 L 142.972656 354.058594 C 142.972656 364.164062 151.203125 372.394531 161.308594 372.394531 L 316.632812 372.394531 C 323.890625 372.394531 323.890625 383.625 316.632812 383.625 L 161.308594 383.625 C 144.992188 383.625 131.742188 370.375 131.742188 354.058594 L 131.742188 320.371094 L 13.324219 320.371094 C 6.363281 320.371094 0.75 314.757812 0.75 307.871094 L 0.75 84.957031 C 0.75 77.699219 11.976562 77.699219 11.976562 84.957031 L 11.976562 307.871094 C 11.976562 308.621094 12.574219 309.144531 13.324219 309.144531 L 131.742188 309.144531 L 131.742188 270.59375 C 131.742188 254.277344 144.992188 241.027344 161.308594 241.027344 L 220.742188 241.027344 L 220.742188 80.542969 L 164.230469 80.542969 C 157.34375 80.542969 151.652344 74.929688 151.652344 68.042969 L 151.652344 11.601562 L 13.324219 11.601562 C 12.574219 11.601562 11.976562 12.199219 11.976562 12.949219 L 11.976562 55.765625 C 11.976562 63.027344 0.75 63.027344 0.75 55.765625 L 0.75 12.949219 C 0.75 5.988281 6.363281 0.375 13.324219 0.375 L 157.269531 0.375 C 158.765625 0.375 160.1875 0.972656 161.234375 2.019531 L 230.324219 70.511719 C 231.371094 71.558594 231.972656 72.980469 231.972656 74.480469 L 231.972656 241.027344 L 354.433594 241.027344 C 370.75 241.027344 384 254.277344 384 270.59375 Z M 212.734375 69.3125 L 162.882812 19.535156 L 162.882812 68.042969 C 162.882812 68.714844 163.480469 69.3125 164.230469 69.3125 Z M 212.734375 69.3125" fill-rule="evenodd"/></g><g><g><g><path d="M 44.4375 1.09375 C 39.789062 1.09375 36.597656 -1.367188 34.859375 -6.296875 L 6.296875 -87.09375 C 5.285156 -90.007812 5.488281 -92.46875 6.90625 -94.46875 C 8.320312 -96.476562 10.710938 -97.484375 14.078125 -97.484375 C 16.546875 -97.484375 18.460938 -96.910156 19.828125 -95.765625 C 21.191406 -94.628906 22.285156 -92.832031 23.109375 -90.375 L 44.984375 -25.296875 L 67.953125 -90.234375 C 69.679688 -95.066406 72.597656 -97.484375 76.703125 -97.484375 C 78.890625 -97.484375 80.617188 -96.890625 81.890625 -95.703125 C 83.171875 -94.515625 84.265625 -92.644531 85.171875 -90.09375 L 107.734375 -24.34375 L 130.296875 -90.375 C 131.117188 -92.738281 132.210938 -94.515625 133.578125 -95.703125 C 134.941406 -96.890625 136.8125 -97.484375 139.1875 -97.484375 C 142.101562 -97.484375 144.242188 -96.476562 145.609375 -94.46875 C 146.972656 -92.46875 147.15625 -90.007812 146.15625 -87.09375 L 117.3125 -6.15625 C 116.394531 -3.695312 115.207031 -1.875 113.75 -0.6875 C 112.289062 0.5 110.332031 1.09375 107.875 1.09375 C 105.414062 1.09375 103.457031 0.5 102 -0.6875 C 100.539062 -1.875 99.351562 -3.742188 98.4375 -6.296875 L 76.15625 -69.59375 L 53.734375 -6.15625 C 52.816406 -3.695312 51.648438 -1.875 50.234375 -0.6875 C 48.828125 0.5 46.894531 1.09375 44.4375 1.09375 Z M 44.4375 1.09375" transform="translate(38.4 209.06)"/></g></g></g><g><g><g><path d="M 31.4375 0.796875 C 26 0.796875 21.238281 -0.398438 17.15625 -2.796875 C 13.082031 -5.203125 9.921875 -8.578125 7.671875 -12.921875 C 5.429688 -17.265625 4.3125 -22.367188 4.3125 -28.234375 C 4.3125 -34.160156 5.429688 -39.28125 7.671875 -43.59375 C 9.921875 -47.914062 13.070312 -51.265625 17.125 -53.640625 C 21.175781 -56.015625 25.945312 -57.203125 31.4375 -57.203125 C 36.9375 -57.203125 41.710938 -56.015625 45.765625 -53.640625 C 49.816406 -51.265625 52.960938 -47.914062 55.203125 -43.59375 C 57.441406 -39.28125 58.5625 -34.1875 58.5625 -28.3125 C 58.5625 -22.394531 57.441406 -17.265625 55.203125 -12.921875 C 52.960938 -8.578125 49.816406 -5.203125 45.765625 -2.796875 C 41.710938 -0.398438 36.9375 0.796875 31.4375 0.796875 Z M 31.4375 -8 C 36.613281 -8 40.640625 -9.785156 43.515625 -13.359375 C 46.398438 -16.929688 47.84375 -21.890625 47.84375 -28.234375 C 47.84375 -34.640625 46.414062 -39.601562 43.5625 -43.125 C 40.707031 -46.644531 36.664062 -48.40625 31.4375 -48.40625 C 26.269531 -48.40625 22.242188 -46.644531 19.359375 -43.125 C 16.484375 -39.601562 15.046875 -34.640625 15.046875 -28.234375 C 15.046875 -21.890625 16.484375 -16.929688 19.359375 -13.359375 C 22.242188 -9.785156 26.269531 -8 31.4375 -8 Z M 31.4375 -8" transform="translate(164.803 343.783)"/></g></g></g><g><g><g><path d="M 11.59375 0 C 7.96875 0 6.15625 -1.8125 6.15625 -5.4375 L 6.15625 -50.953125 C 6.15625 -54.585938 7.96875 -56.40625 11.59375 -56.40625 L 27.125 -56.40625 C 36.5625 -56.40625 43.851562 -53.976562 49 -49.125 C 54.144531 -44.269531 56.71875 -37.304688 56.71875 -28.234375 C 56.71875 -19.222656 54.144531 -12.265625 49 -7.359375 C 43.851562 -2.453125 36.5625 0 27.125 0 Z M 16.40625 -8.484375 L 26.484375 -8.484375 C 39.492188 -8.484375 46 -15.066406 46 -28.234375 C 46 -41.359375 39.492188 -47.921875 26.484375 -47.921875 L 16.40625 -47.921875 Z M 16.40625 -8.484375" transform="translate(227.597 343.783)"/></g></g></g><g><g><g><path d="M 24.875 0.640625 C 21.46875 0.640625 19.765625 -1.117188 19.765625 -4.640625 L 19.765625 -47.84375 L 4.15625 -47.84375 C 1.226562 -47.84375 -0.234375 -49.28125 -0.234375 -52.15625 C -0.234375 -54.988281 1.226562 -56.40625 4.15625 -56.40625 L 45.59375 -56.40625 C 48.53125 -56.40625 50 -54.988281 50 -52.15625 C 50 -49.28125 48.53125 -47.84375 45.59375 -47.84375 L 30 -47.84375 L 30 -4.640625 C 30 -1.117188 28.289062 0.640625 24.875 0.640625 Z M 24.875 0.640625" transform="translate(288.55 343.783)"/></g></g></g></svg>