<svg xmlns="http://www.w3.org/2000/svg" version="1.1" xmlns:xlink="http://www.w3.org/1999/xlink" xmlns:svgjs="http://svgjs.com/svgjs" width="512" height="512" x="0" y="0" viewBox="0 0 512 512" style="enable-background:new 0 0 512 512" xml:space="preserve" class=""><g><g xmlns="http://www.w3.org/2000/svg"><g><path d="m298.577 172.68c5.964-8.758 9.456-19.328 9.456-30.7 0-30.155-24.532-54.686-54.687-54.686h-45.808c-10.162 0-18.4 8.238-18.4 18.4v157.698c0 4.895 1.95 9.587 5.418 13.04 3.449 3.435 8.117 5.361 12.982 5.361.027 0 42.354-.187 53.808-.187 33.552 0 60.848-27.296 60.848-60.849-.001-19.535-9.264-36.936-23.617-48.077zm-45.67-48.586c9.686 0 17.946 7.517 18.311 17.196.384 10.175-7.782 18.576-17.873 18.576-3.367 0-23.407.043-23.407.043-2.209 0-4-1.791-4-4v-27.815c0-2.209 1.791-4 4-4zm8.438 120.71c-5.813 0-19.347.047-31.397.094-2.215.009-4.01-1.785-4.01-4v-40.163c0-2.203 1.779-3.992 3.982-4 2.271-.009 30.879-.025 30.879-.025 13.453 0 24.818 11.009 24.589 24.46-.221 13.07-10.921 23.634-24.043 23.634z" fill="#60b7ff" data-original="#60b7ff"></path><path d="m388.692 185.347c.426 32.965 27.381 59.646 60.438 59.646 7.97 0 15.411-1.533 22.031-4.883l20.244 30.894c-12.589 7.208-27.005 10.792-42.275 10.792-52.884 0-96.042-42.437-97.22-95.047-1.198-53.371 41.574-98.205 94.946-99.423 18.792-.437 37.036 4.477 52.915 14.183 2.071 1.269 2.66 4.02 1.3 6.041l-16.599 24.569c-.843 1.249-2.518 1.625-3.807.843-10.152-6.224-21.889-9.29-33.97-8.812-32.5 1.277-58.429 28.679-58.003 61.197z" fill="#60b7ff" data-original="#60b7ff"></path><path d="m446.693 124.148c12.081-.478 23.818 2.589 33.97 8.812 1.289.782 2.964.406 3.807-.843l16.599-24.569c1.36-2.02.772-4.772-1.3-6.041-3.28-2.005-6.666-3.793-10.131-5.384-.091.768-.356 1.532-.814 2.233l-10.11 15.454c-.39.596-1.143.827-1.805.565-50.329-19.904-103.906 18.529-103.215 71.168.531 41.05 34.371 74.449 75.436 74.449 5.576 0 10.903-.606 15.941-1.81l11.536 19.373c5.153-1.682 10.103-3.865 14.798-6.553l-20.244-30.894c-6.619 3.35-14.061 4.883-22.031 4.883-33.056 0-60.011-26.681-60.438-59.646-.426-32.516 25.503-59.918 58.001-61.197z" fill="#62a4fb" data-original="#62a4fb"></path><path d="m44.974 278.518 11.768-35.288h57.578l11.657 35.275c.648 1.962 2.482 3.287 4.548 3.287h28.595c3.409 0 5.818-3.337 4.745-6.573 0 0-57.648-173.75-57.815-174.154-3.403-8.273-11.378-13.614-20.321-13.614h-.023c-7.119 0-13.883 3.393-17.909 9.264-1.181 1.721-2.178 3.567-2.833 5.537l-57.212 172.972c-1.07 3.235 1.339 6.569 4.746 6.569h27.932c2.061-.001 3.891-1.32 4.544-3.275zm42.58-116.287 13.737 41.571c.428 1.294-.536 2.628-1.899 2.628h-27.601c-1.365 0-2.329-1.338-1.897-2.633l13.864-41.571c.608-1.826 3.192-1.822 3.796.005z" fill="#60b7ff" data-original="#60b7ff"></path><path d="m298.577 172.68c5.964-8.759 9.456-19.328 9.456-30.7 0-30.155-24.532-54.686-54.687-54.686h-20c30.155 0 54.687 24.532 54.687 54.686 0 11.372-3.492 21.942-9.456 30.7 14.353 11.141 23.617 28.542 23.617 48.077 0 33.552-27.297 60.849-60.848 60.849-6.438 0-22.48.058-35.371.11.518.044 1.039.077 1.563.077.027 0 42.354-.187 53.808-.187 33.552 0 60.848-27.296 60.848-60.849-.001-19.535-9.264-36.936-23.617-48.077z" fill="#62a4fb" data-original="#62a4fb"></path><path d="m163.865 275.22s-57.648-173.75-57.815-174.154c-3.403-8.273-11.378-13.614-20.321-13.614h-.023c-3.523 0-6.958.834-10.018 2.385 4.588 2.328 8.309 6.239 10.362 11.229.167.404.318.813.455 1.228l57.359 172.926c1.073 3.236-1.336 6.573-4.745 6.573h20c3.41-.001 5.819-3.338 4.746-6.573z" fill="#62a4fb" data-original="#62a4fb"></path><path d="m199.989 424.709c-24.478 0-44.393-19.915-44.393-44.393v-106.357c0-24.478 19.914-44.393 44.393-44.393h260.112c24.478 0 44.393 19.915 44.393 44.393v106.356c0 24.478-19.915 44.393-44.393 44.393h-260.112z" fill="#fd8087" data-original="#fd8087" class=""></path><path d="m460.102 229.566h-19c24.478 0 44.393 19.915 44.393 44.393v106.356c0 24.478-19.915 44.393-44.393 44.393h19c24.478 0 44.393-19.915 44.393-44.393v-106.356c0-24.478-19.915-44.393-44.393-44.393z" fill="#ee6161" data-original="#ee6161"></path><path d="m185.968 273.959v106.357c0 7.744 6.278 14.022 14.022 14.022h260.112c7.744 0 14.022-6.278 14.022-14.022v-106.357c0-7.744-6.278-14.022-14.022-14.022h-260.112c-7.744 0-14.022 6.278-14.022 14.022z" fill="#eaf6ff" data-original="#eaf6ff"></path><path d="m460.102 259.937h-20c7.744 0 14.022 6.278 14.022 14.022v106.357c0 7.744-6.278 14.022-14.022 14.022h20c7.744 0 14.022-6.278 14.022-14.022v-106.357c-.001-7.744-6.279-14.022-14.022-14.022z" fill="#c4e2ff" data-original="#c4e2ff"></path></g><g><path d="m229.954 167.407s20.027-.043 23.392-.043c14.398 0 25.912-11.957 25.368-26.36-.517-13.69-11.853-24.414-25.807-24.414h-22.969c-6.341 0-11.5 5.159-11.5 11.5v27.816c-.001 6.342 5.158 11.501 11.516 11.501zm3.484-35.816h19.469c5.756 0 10.609 4.477 10.817 9.98.225 5.955-4.561 10.793-10.379 10.793-2.481 0-14.008.023-19.908.035v-20.808z" fill="#000000" data-original="#000000" class=""></path><path d="m71.787 213.929h27.602c3.041 0 5.919-1.472 7.7-3.936 1.781-2.465 2.274-5.659 1.32-8.546l-13.738-41.571c-1.287-3.894-4.906-6.514-9.007-6.52h-.014c-4.095 0-7.715 2.608-9.012 6.494l-13.865 41.573c-.963 2.89-.475 6.089 1.306 8.56 1.782 2.471 4.663 3.946 7.708 3.946zm13.84-33.615 6.151 18.615h-12.36z" fill="#000000" data-original="#000000" class=""></path><path d="m460.106 222.066h-48.286c-9.79-9.739-15.45-23.002-15.623-36.816-.376-28.441 22.411-52.489 50.799-53.607 10.554-.412 20.837 2.247 29.791 7.733 4.697 2.844 10.801 1.507 13.908-3.06l16.581-24.557c1.798-2.651 2.443-5.967 1.769-9.097-.673-3.125-2.621-5.876-5.353-7.553-17.115-10.465-36.829-15.745-57.005-15.289-27.811.636-53.804 12.17-73.189 32.478-19.378 20.301-29.705 46.802-29.08 74.617.269 12.191 2.586 23.968 6.906 35.151h-21.652c.008-.435.024-.871.024-1.306 0-18.999-7.732-36.751-21.421-49.644 4.767-8.941 7.261-18.892 7.261-29.137 0-34.293-27.899-62.192-62.191-62.192h-45.811c-14.282 0-25.9 11.619-25.9 25.901v119.741c-8.361 3.173-15.694 8.444-21.355 15.172 0 0-47.121-141.97-47.291-142.389-4.569-11.095-15.272-18.264-27.286-18.264-9.711 0-18.719 4.684-24.097 12.529-1.661 2.424-2.925 4.91-3.765 7.418l-7.89 23.871c-1.3 3.933.834 8.175 4.767 9.475 3.934 1.296 8.175-.835 9.475-4.768l7.881-23.842c.394-1.177 1.017-2.378 1.904-3.672 2.58-3.763 6.963-6.01 11.744-6.01 5.829 0 11.038 3.448 13.311 8.774 1.549 4.613 51.398 154.828 51.398 154.828-1.518 4.87-2.336 10.047-2.336 15.41v.332h-15.614l-11.036-33.413c-1.015-3.072-3.886-5.148-7.122-5.148h-57.581c-3.228 0-6.093 2.065-7.115 5.127l-11.151 33.433h-22.518l37.244-112.597c1.301-3.933-.833-8.175-4.765-9.476-3.935-1.302-8.176.832-9.476 4.765l-38.333 115.885c-1.254 3.801-.605 8.006 1.739 11.248 2.342 3.239 6.127 5.174 10.123 5.174h27.931c5.303 0 9.991-3.375 11.665-8.398l10.06-30.163h46.755l9.949 30.12c1.666 5.049 6.357 8.441 11.673 8.441h17.572v91.026c0 28.615 23.28 51.895 51.894 51.895h184.603c4.142 0 7.5-3.358 7.5-7.5 0-4.143-3.358-7.5-7.5-7.5h-184.603c-20.343 0-36.894-16.551-36.894-36.894v-106.359c0-4.446.791-8.71 2.239-12.661.004-.01.008-.021.012-.032 5.186-14.109 18.758-24.2 34.643-24.2h260.117c20.343 0 36.894 16.55 36.894 36.893v106.359c0 20.343-16.551 36.894-36.894 36.894h-40.514c-4.142 0-7.5 3.357-7.5 7.5s3.358 7.5 7.5 7.5h40.514c28.614 0 51.894-23.28 51.894-51.895v-106.358c.001-28.614-23.279-51.893-51.893-51.893zm-100.691-35.485c-.535-23.817 8.32-46.519 24.934-63.925 16.617-17.409 38.878-27.295 62.681-27.839 16.155-.378 31.958 3.556 45.906 11.374l-12.257 18.153c-10.507-5.518-22.268-8.162-34.276-7.689-36.437 1.435-65.688 32.296-65.206 68.788.164 13.11 4.181 25.83 11.336 36.623h-24.913c-5.169-11.151-7.931-23.064-8.205-35.485zm-162.781 35.605v-116.498c0-6.011 4.89-10.901 10.9-10.901h45.811c26.021 0 47.191 21.17 47.191 47.191 0 9.489-2.821 18.645-8.158 26.476-2.231 3.274-1.531 7.721 1.601 10.15 13.166 10.215 20.718 25.58 20.718 42.155 0 .435-.013.87-.024 1.306h-21.818c.01-.256.026-.511.03-.768.143-8.361-3.069-16.313-9.043-22.39-6.059-6.163-14.459-9.698-23.052-9.698 0 0-28.595.021-30.898.021-6.318.028-11.457 5.187-11.457 11.5v21.335c-.001.001-20.691.05-21.801.121zm36.8-.12v-17.837c8.201-.005 27.36-.019 27.36-.019 4.591 0 9.092 1.9 12.349 5.213 3.132 3.187 4.816 7.313 4.742 11.62-.006.343-.036.683-.063 1.022h-44.388z" fill="#000000" data-original="#000000" class=""></path><path d="m258.007 282.643c-15.471 0-28.057 12.586-28.057 28.057v32.877c0 15.471 12.586 28.057 28.057 28.057s28.058-12.586 28.058-28.057v-32.877c-.001-15.471-12.587-28.057-28.058-28.057zm13.057 60.934c0 7.199-5.858 13.057-13.057 13.057s-13.057-5.858-13.057-13.057v-32.877c0-7.199 5.858-13.057 13.057-13.057 7.2 0 13.057 5.858 13.057 13.057z" fill="#000000" data-original="#000000" class=""></path><path d="m460.105 401.841c11.867 0 21.522-9.655 21.522-21.523v-106.359c0-11.867-9.655-21.522-21.522-21.522h-260.117c-11.867 0-21.522 9.654-21.522 21.522v106.359c0 11.867 9.654 21.523 21.522 21.523zm6.523-127.882v106.359c0 3.597-2.926 6.523-6.522 6.523h-31.122c.078-.837.132-1.677.132-2.522 0-7.672-3.219-14.601-8.371-19.525 5.15-4.924 8.368-11.854 8.368-19.526 0-14.903-12.124-27.026-27.026-27.026-12.885 0-24.038 9.166-26.519 21.796-.798 4.065 1.849 8.006 5.914 8.805 4.066.796 8.007-1.849 8.805-5.914 1.103-5.612 6.066-9.687 11.8-9.687 6.631 0 12.026 5.395 12.026 12.026 0 6.632-5.394 12.027-12.024 12.027-4.142 0-7.5 3.358-7.5 7.5 0 4.143 3.358 7.5 7.5 7.5 6.631 0 12.026 5.394 12.026 12.024 0 .854-.117 1.695-.294 2.522h-23.483c-.059-.278-.12-.555-.16-.839-.081-.581-.121-1.132-.121-1.683 0-4.143-3.358-7.5-7.5-7.5s-7.5 3.357-7.5 7.5c0 .83.055 1.675.135 2.522h-37.646v-119.403h58.486c-6.323 8.776-10.526 14.279-13.113 17.664-4.455 5.831-6.299 8.244-5.001 12.442.759 2.453 2.625 4.332 5.08 5.141 1.007.337 2.037.683 15.894.683 5.402 0 12.755-.052 22.816-.179 4.142-.052 7.457-3.451 7.405-7.593-.052-4.11-3.399-7.406-7.498-7.406-.032 0-.064 0-.096.001-7.621.095-15.725.155-22.238.161 3.572-4.759 8.521-11.485 15.166-20.914h45.655c3.6 0 6.526 2.926 6.526 6.521zm-273.161 106.359v-106.359c0-3.596 2.925-6.522 6.522-6.522h122.559v119.403h-122.56c-3.596.001-6.521-2.925-6.521-6.522z" fill="#000000" data-original="#000000" class=""></path></g></g></g></svg>