<svg xmlns="http://www.w3.org/2000/svg" width="375" viewBox="0 0 375 375" height="375" version="1.0"><defs><clipPath id="a"><path d="M 21.730469 67 L 333 67 L 333 308 L 21.730469 308 Z M 21.730469 67"/></clipPath><clipPath id="b"><path d="M 99 67 L 353.230469 67 L 353.230469 282 L 99 282 Z M 99 67"/></clipPath></defs><path fill="#F44336" d="M 296.574219 302.402344 L 78.382812 302.402344 C 49.773438 302.402344 26.585938 279.210938 26.585938 250.605469 L 26.585938 124.351562 C 26.585938 95.746094 49.773438 72.554688 78.382812 72.554688 L 296.574219 72.554688 C 325.183594 72.554688 348.371094 95.746094 348.371094 124.351562 L 348.371094 250.605469 C 348.371094 279.210938 325.183594 302.402344 296.574219 302.402344 Z M 296.574219 302.402344"/><path fill="#E53935" d="M 296.574219 72.554688 L 277.152344 72.554688 C 305.757812 72.554688 328.949219 95.746094 328.949219 124.351562 L 328.949219 250.605469 C 328.949219 279.210938 305.757812 302.402344 277.152344 302.402344 L 296.574219 302.402344 C 325.183594 302.402344 348.371094 279.210938 348.371094 250.605469 L 348.371094 124.351562 C 348.371094 95.746094 325.183594 72.554688 296.574219 72.554688 Z M 296.574219 72.554688"/><path fill="#FFF" d="M 148.984375 142.449219 L 148.984375 232.507812 C 148.984375 238.503906 155.53125 242.199219 160.664062 239.101562 L 235.316406 194.074219 C 240.28125 191.078125 240.28125 183.878906 235.316406 180.886719 L 160.664062 135.855469 C 155.53125 132.757812 148.984375 136.453125 148.984375 142.449219 Z M 148.984375 142.449219"/><g clip-path="url(#a)"><path d="M 324.480469 288.355469 C 316.363281 294.371094 306.710938 297.546875 296.574219 297.546875 L 78.382812 297.546875 C 52.496094 297.546875 31.441406 276.488281 31.441406 250.605469 L 31.441406 124.351562 C 31.441406 98.46875 52.496094 77.410156 78.382812 77.410156 L 84.132812 77.410156 C 86.816406 77.410156 88.988281 75.234375 88.988281 72.554688 C 88.988281 69.871094 86.816406 67.699219 84.132812 67.699219 L 78.382812 67.699219 C 47.144531 67.699219 21.730469 93.113281 21.730469 124.351562 L 21.730469 250.605469 C 21.730469 281.84375 47.144531 307.257812 78.382812 307.257812 L 296.574219 307.257812 C 308.808594 307.257812 320.457031 303.421875 330.261719 296.160156 C 332.414062 294.566406 332.867188 291.523438 331.273438 289.367188 C 329.675781 287.214844 326.632812 286.757812 324.480469 288.355469 Z M 324.480469 288.355469"/></g><g clip-path="url(#b)"><path d="M 296.574219 67.699219 L 104.851562 67.699219 C 102.171875 67.699219 99.996094 69.871094 99.996094 72.554688 C 99.996094 75.234375 102.171875 77.410156 104.851562 77.410156 L 296.574219 77.410156 C 322.460938 77.410156 343.515625 98.46875 343.515625 124.351562 L 343.515625 250.605469 C 343.515625 259.007812 341.269531 267.25 337.023438 274.441406 C 335.660156 276.75 336.425781 279.730469 338.734375 281.09375 C 339.511719 281.550781 340.359375 281.769531 341.199219 281.769531 C 342.863281 281.769531 344.480469 280.917969 345.386719 279.382812 C 350.515625 270.695312 353.230469 260.746094 353.230469 250.605469 L 353.230469 124.351562 C 353.230469 93.113281 327.816406 67.699219 296.574219 67.699219 Z M 296.574219 67.699219"/></g><path d="M 148.984375 221.222656 C 146.304688 221.222656 144.128906 223.394531 144.128906 226.078125 L 144.128906 232.507812 C 144.128906 237.097656 146.515625 241.1875 150.511719 243.441406 C 152.457031 244.542969 154.574219 245.089844 156.691406 245.089844 C 158.921875 245.089844 161.152344 244.480469 163.171875 243.261719 L 237.824219 198.230469 C 241.625 195.9375 243.894531 191.917969 243.894531 187.480469 C 243.894531 183.039062 241.625 179.019531 237.824219 176.726562 L 163.171875 131.695312 C 159.242188 129.328125 154.507812 129.257812 150.511719 131.515625 C 146.515625 133.769531 144.128906 137.859375 144.128906 142.449219 L 144.128906 205.507812 C 144.128906 208.191406 146.304688 210.363281 148.984375 210.363281 C 151.667969 210.363281 153.839844 208.191406 153.839844 205.507812 L 153.839844 142.449219 C 153.839844 140.949219 154.851562 140.214844 155.289062 139.96875 C 155.722656 139.726562 156.871094 139.238281 158.15625 140.011719 L 232.808594 185.042969 C 234.050781 185.792969 234.183594 186.996094 234.183594 187.476562 C 234.183594 187.960938 234.050781 189.164062 232.808594 189.914062 L 158.15625 234.945312 C 156.871094 235.71875 155.722656 235.230469 155.289062 234.984375 C 154.851562 234.742188 153.839844 234.007812 153.839844 232.507812 L 153.839844 226.078125 C 153.839844 223.394531 151.667969 221.222656 148.984375 221.222656 Z M 148.984375 221.222656"/></svg>