<svg xmlns="http://www.w3.org/2000/svg" xmlns:xlink="http://www.w3.org/1999/xlink" width="512" zoomAndPan="magnify" viewBox="0 0 384 383.999986" height="512" preserveAspectRatio="xMidYMid meet" version="1.0"><defs><g/></defs><path fill="#dd636e" d="M 192 304.5 C 253.960938 304.5 304.5 253.960938 304.5 192 C 298.746094 42.976562 85.230469 43.019531 79.5 192 C 79.5 253.960938 130.039062 304.5 192 304.5 Z M 192 304.5 " fill-opacity="1" fill-rule="evenodd"/><path fill="#dd636e" d="M 370.234375 158.351562 L 352.925781 155.46875 C 348.800781 137.175781 341.652344 119.921875 331.621094 104.042969 L 341.824219 89.761719 C 346.597656 83.074219 346.269531 74.742188 341.023438 69.492188 L 314.507812 42.976562 C 309.257812 37.730469 300.925781 37.398438 294.238281 42.175781 L 279.957031 52.375 C 264.085938 42.347656 246.828125 35.199219 228.53125 31.070312 L 225.648438 13.765625 C 224.296875 5.660156 218.171875 0 210.75 0 L 173.25 0 C 165.828125 0 159.703125 5.660156 158.351562 13.765625 L 155.46875 31.070312 C 137.171875 35.199219 119.914062 42.347656 104.042969 52.375 L 89.761719 42.175781 C 83.078125 37.402344 74.742188 37.730469 69.496094 42.976562 L 42.976562 69.492188 C 37.730469 74.742188 37.402344 83.074219 42.175781 89.761719 L 52.375 104.042969 C 42.347656 119.917969 35.199219 137.175781 31.070312 155.46875 L 13.765625 158.351562 C 5.660156 159.703125 0 165.828125 0 173.25 L 0 210.75 C 0 218.171875 5.660156 224.296875 13.765625 225.648438 L 31.070312 228.53125 C 35.199219 246.824219 42.347656 264.082031 52.375 279.957031 L 42.175781 294.238281 C 37.402344 300.925781 37.730469 309.257812 42.976562 314.507812 L 69.492188 341.023438 C 74.742188 346.269531 83.074219 346.597656 89.761719 341.824219 L 104.039062 331.625 C 119.914062 341.652344 137.167969 348.800781 155.46875 352.929688 L 158.351562 370.234375 C 159.703125 378.339844 165.828125 384 173.25 384 L 210.75 384 C 218.167969 384 224.296875 378.339844 225.644531 370.234375 L 228.53125 352.929688 C 246.828125 348.800781 264.085938 341.652344 279.957031 331.625 L 294.234375 341.824219 C 300.921875 346.597656 309.257812 346.269531 314.503906 341.023438 L 341.019531 314.507812 C 346.265625 309.257812 346.597656 300.925781 341.820312 294.238281 L 331.621094 279.957031 C 341.652344 264.082031 348.800781 246.824219 352.925781 228.53125 L 370.230469 225.648438 C 378.335938 224.296875 383.996094 218.171875 383.996094 210.75 L 383.996094 173.25 C 384 165.828125 378.339844 159.703125 370.234375 158.351562 Z M 369 210.425781 C 368.785156 210.558594 368.378906 210.75 367.765625 210.851562 L 345.402344 214.578125 C 342.3125 215.09375 339.867188 217.480469 339.273438 220.558594 C 335.433594 240.472656 327.714844 259.109375 316.328125 275.945312 C 314.570312 278.539062 314.617188 281.953125 316.4375 284.503906 L 329.617188 302.957031 C 329.976562 303.460938 330.128906 303.882812 330.1875 304.128906 L 304.128906 330.1875 C 303.882812 330.128906 303.460938 329.976562 302.957031 329.617188 L 284.503906 316.4375 C 281.953125 314.613281 278.539062 314.570312 275.945312 316.328125 C 259.117188 327.710938 240.480469 335.433594 220.558594 339.273438 C 217.480469 339.867188 215.09375 342.3125 214.578125 345.402344 L 210.851562 367.765625 C 210.75 368.378906 210.558594 368.785156 210.425781 369 L 173.574219 369 C 173.441406 368.785156 173.25 368.378906 173.148438 367.765625 L 169.421875 345.402344 C 168.90625 342.3125 166.519531 339.867188 163.441406 339.273438 C 143.519531 335.433594 124.882812 327.710938 108.054688 316.328125 C 105.460938 314.570312 102.046875 314.617188 99.496094 316.4375 L 81.042969 329.617188 C 80.539062 329.976562 80.117188 330.128906 79.871094 330.1875 L 53.8125 304.128906 C 53.871094 303.882812 54.023438 303.460938 54.382812 302.957031 L 67.5625 284.503906 C 69.382812 281.953125 69.429688 278.539062 67.671875 275.945312 C 56.285156 259.109375 48.566406 240.476562 44.726562 220.558594 C 44.132812 217.480469 41.6875 215.09375 38.597656 214.578125 L 16.234375 210.851562 C 15.621094 210.75 15.214844 210.558594 15 210.425781 L 15 173.574219 C 15.214844 173.441406 15.621094 173.25 16.234375 173.148438 L 38.597656 169.421875 C 41.691406 168.90625 44.136719 166.523438 44.726562 163.441406 C 48.566406 143.527344 56.289062 124.890625 67.671875 108.054688 C 69.429688 105.460938 69.386719 102.046875 67.5625 99.496094 L 54.386719 81.046875 C 54.023438 80.539062 53.871094 80.117188 53.816406 79.871094 L 79.871094 53.816406 C 80.117188 53.871094 80.539062 54.023438 81.042969 54.382812 L 99.496094 67.5625 C 102.046875 69.386719 105.460938 69.429688 108.058594 67.671875 C 124.882812 56.289062 143.519531 48.566406 163.441406 44.726562 C 166.519531 44.136719 168.90625 41.6875 169.421875 38.597656 L 173.148438 16.234375 C 173.25 15.621094 173.441406 15.214844 173.574219 15 L 210.425781 15 C 210.558594 15.214844 210.75 15.621094 210.851562 16.234375 L 214.582031 38.597656 C 215.09375 41.691406 217.480469 44.136719 220.558594 44.726562 C 240.484375 48.570312 259.117188 56.289062 275.945312 67.671875 C 278.539062 69.429688 281.953125 69.386719 284.507812 67.5625 L 302.957031 54.382812 C 303.460938 54.023438 303.882812 53.871094 304.128906 53.816406 L 330.1875 79.871094 C 330.128906 80.117188 329.976562 80.539062 329.617188 81.042969 L 316.4375 99.496094 C 314.617188 102.046875 314.574219 105.460938 316.328125 108.054688 C 327.714844 124.890625 335.433594 143.527344 339.273438 163.441406 C 339.867188 166.519531 342.3125 168.90625 345.40625 169.421875 L 367.769531 173.148438 C 368.378906 173.25 368.785156 173.441406 369 173.574219 Z M 369 210.425781 " fill-opacity="1" fill-rule="nonzero"/><path fill="#dd636e" d="M 210.9375 159.199219 C 207.351562 157.128906 202.761719 158.359375 200.691406 161.945312 L 170.316406 214.554688 C 168.246094 218.140625 169.472656 222.730469 173.0625 224.800781 C 176.585938 226.851562 181.222656 225.675781 183.308594 222.054688 C 183.308594 222.054688 213.683594 169.445312 213.683594 169.445312 C 215.753906 165.859375 214.523438 161.269531 210.9375 159.199219 Z M 210.9375 159.199219 " fill-opacity="1" fill-rule="nonzero"/><path fill="#dd636e" d="M 153.058594 160.390625 C 150.128906 157.464844 145.378906 157.464844 142.453125 160.390625 C 142.453125 160.390625 116.144531 186.695312 116.144531 186.695312 C 113.242188 189.492188 113.238281 194.511719 116.144531 197.304688 C 116.144531 197.304688 142.453125 223.609375 142.453125 223.609375 C 143.917969 225.074219 145.835938 225.804688 147.753906 225.804688 C 154.277344 225.914062 157.804688 217.617188 153.058594 213.003906 C 153.058594 213.003906 132.054688 192 132.054688 192 L 153.058594 171 C 155.984375 168.070312 155.988281 163.320312 153.058594 160.390625 Z M 153.058594 160.390625 " fill-opacity="1" fill-rule="nonzero"/><path fill="#dd636e" d="M 241.550781 160.390625 C 238.621094 157.460938 233.871094 157.460938 230.941406 160.390625 C 228.011719 163.320312 228.011719 168.070312 230.941406 171 L 251.945312 192 L 230.941406 213 C 224.167969 220.257812 234.28125 230.386719 241.550781 223.609375 C 241.550781 223.609375 267.855469 197.304688 267.855469 197.304688 C 270.78125 194.375 270.78125 189.625 267.855469 186.695312 Z M 241.550781 160.390625 " fill-opacity="1" fill-rule="nonzero"/><g fill="#ffffff" fill-opacity="1"><g transform="translate(107.645842, 227.887122)"><g><path d="M 52.171875 -5.984375 L 11.984375 -21.78125 C 7.484375 -23.53125 5.234375 -26.726562 5.234375 -31.375 C 5.234375 -35.875 7.484375 -38.992188 11.984375 -40.734375 L 52.171875 -56.53125 C 54.347656 -57.40625 56.179688 -57.40625 57.671875 -56.53125 C 59.160156 -55.65625 60.195312 -54.398438 60.78125 -52.765625 C 61.363281 -51.140625 61.34375 -49.488281 60.71875 -47.8125 C 60.101562 -46.144531 58.78125 -44.910156 56.75 -44.109375 L 23.203125 -31.265625 L 56.75 -18.296875 C 58.78125 -17.492188 60.101562 -16.273438 60.71875 -14.640625 C 61.34375 -13.015625 61.363281 -11.382812 60.78125 -9.75 C 60.195312 -8.113281 59.160156 -6.878906 57.671875 -6.046875 C 56.179688 -5.210938 54.347656 -5.191406 52.171875 -5.984375 Z M 52.171875 -5.984375 "/></g></g></g><g fill="#ffffff" fill-opacity="1"><g transform="translate(172.995723, 227.887122)"><g><path d="M 14.046875 2.390625 C 13.253906 4.710938 11.96875 6.273438 10.1875 7.078125 C 8.40625 7.878906 6.570312 8.003906 4.6875 7.453125 C 2.800781 6.910156 1.328125 5.820312 0.265625 4.1875 C -0.785156 2.5625 -0.910156 0.515625 -0.109375 -1.953125 L 24.078125 -77.328125 C 24.796875 -79.722656 26.0625 -81.300781 27.875 -82.0625 C 29.695312 -82.832031 31.53125 -82.941406 33.375 -82.390625 C 35.226562 -81.847656 36.679688 -80.757812 37.734375 -79.125 C 38.796875 -77.5 38.925781 -75.453125 38.125 -72.984375 Z M 14.046875 2.390625 "/></g></g></g><g fill="#ffffff" fill-opacity="1"><g transform="translate(211.00757, 227.887122)"><g><path d="M 13.171875 -5.984375 C 11.066406 -5.191406 9.269531 -5.210938 7.78125 -6.046875 C 6.300781 -6.878906 5.269531 -8.113281 4.6875 -9.75 C 4.101562 -11.382812 4.101562 -13.015625 4.6875 -14.640625 C 5.269531 -16.273438 6.578125 -17.492188 8.609375 -18.296875 L 42.265625 -31.265625 L 8.609375 -44.109375 C 6.578125 -44.910156 5.269531 -46.144531 4.6875 -47.8125 C 4.101562 -49.488281 4.101562 -51.140625 4.6875 -52.765625 C 5.269531 -54.398438 6.300781 -55.65625 7.78125 -56.53125 C 9.269531 -57.40625 11.066406 -57.40625 13.171875 -56.53125 L 53.375 -40.734375 C 57.875 -38.992188 60.125 -35.875 60.125 -31.375 C 60.125 -26.726562 57.875 -23.53125 53.375 -21.78125 Z M 13.171875 -5.984375 "/></g></g></g></svg>