<svg xmlns="http://www.w3.org/2000/svg" version="1.1" xmlns:xlink="http://www.w3.org/1999/xlink" xmlns:svgjs="http://svgjs.com/svgjs" width="512" height="512" x="0" y="0" viewBox="0 0 512.001 512" style="enable-background:new 0 0 512 512" xml:space="preserve" class=""><g><path xmlns="http://www.w3.org/2000/svg" d="m427.464844 7.5h-342.929688c-42.542968 0-77.035156 34.492188-77.035156 77.039062v230.699219c0 42.546875 34.492188 77.035157 77.035156 77.035157h38.867188c18.078125 0 30.554687 18.183593 23.980468 35.023437-2.898437 7.417969-6.558593 14.757813-11.15625 21.777344-10.660156 16.265625 3.996094 37.125 22.9375 32.707031 37.066407-8.644531 82.597657-26.917969 120.105469-64.644531 16.003907-16.097657 37.953125-24.863281 60.652344-24.863281h87.542969c42.542968 0 77.035156-34.488282 77.035156-77.035157v-230.699219c0-42.546874-34.492188-77.039062-77.035156-77.039062zm0 0" fill="#a4e7ff" data-original="#a4e7ff" class=""></path><path xmlns="http://www.w3.org/2000/svg" d="m169.878906 7.5h-85.34375c-42.542968 0-77.035156 34.492188-77.035156 77.039062v230.699219c0 42.546875 34.492188 77.035157 77.035156 77.035157h38.867188c18.078125 0 30.554687 18.183593 23.980468 35.023437-2.898437 7.417969-6.558593 14.757813-11.15625 21.777344-10.660156 16.265625 3.996094 37.125 22.9375 32.707031 16.015626-3.734375 33.605469-9.265625 51.453126-17.386719-1.636719-13.050781-1.449219-30.574219-.785157-55.824219 1.992188-75.804687-98.285156-86.046874-95.613281-228.058593 2.671875-142.007813 55.660156-173.011719 55.660156-173.011719zm0 0" fill="#5ad6ff" data-original="#5ad6ff"></path><path xmlns="http://www.w3.org/2000/svg" d="m394.640625 180.511719h-253.511719c-15.648437 0-28.332031-12.683594-28.332031-28.332031 0-15.648438 12.683594-28.332032 28.332031-28.332032h253.511719c15.648437 0 28.332031 12.683594 28.332031 28.332032 0 15.648437-12.683594 28.332031-28.332031 28.332031zm0 0" fill="#ffeab7" data-original="#ffeab7"></path><path xmlns="http://www.w3.org/2000/svg" d="m370.871094 275.929688h-253.511719c-15.648437 0-28.332031-12.683594-28.332031-28.332032 0-15.648437 12.683594-28.335937 28.332031-28.335937h253.511719c15.648437 0 28.332031 12.6875 28.332031 28.335937 0 15.644532-12.683594 28.332032-28.332031 28.332032zm0 0" fill="#ffeab7" data-original="#ffeab7"></path><path xmlns="http://www.w3.org/2000/svg" d="m142.839844 322.882812c-13.933594-4.742187-21.382813-19.878906-16.640625-33.808593l66.554687-195.542969c4.738282-13.929688 19.878906-21.378906 33.808594-16.640625 13.933594 4.742187 21.382812 19.882813 16.640625 33.8125l-66.554687 195.539063c-4.738282 13.933593-19.878907 21.382812-33.808594 16.640624zm0 0" fill="#fff8e6" data-original="#fff8e6"></path><path xmlns="http://www.w3.org/2000/svg" d="m281.027344 322.882812c-13.933594-4.742187-21.382813-19.878906-16.640625-33.808593l66.554687-195.542969c4.742188-13.929688 19.878906-21.378906 33.808594-16.640625 13.933594 4.742187 21.382812 19.882813 16.640625 33.8125l-66.550781 195.539063c-4.742188 13.933593-19.878906 21.382812-33.8125 16.640624zm0 0" fill="#fff8e6" data-original="#fff8e6"></path><path xmlns="http://www.w3.org/2000/svg" d="m427.464844 0h-13.050782c-4.140624 0-7.5 3.359375-7.5 7.5s3.359376 7.5 7.5 7.5h13.050782c38.339844 0 69.535156 31.195312 69.535156 69.539062v230.699219c0 38.34375-31.195312 69.535157-69.535156 69.535157h-87.542969c-24.820313 0-48.867187 9.867187-65.972656 27.074218-37.9375 38.160156-84.289063 55.121094-116.488281 62.628906-6.855469 1.601563-12.109376-1.855468-14.742188-5.625-3.390625-4.847656-3.472656-10.703124-.21875-15.667968 4.636719-7.074219 8.628906-14.867188 11.867188-23.160156 3.984374-10.199219 2.667968-21.695313-3.515626-30.75-6.199218-9.078126-16.460937-14.5-27.453124-14.5h-38.863282c-38.339844 0-69.535156-31.191407-69.535156-69.535157v-230.699219c0-38.34375 31.195312-69.539062 69.535156-69.539062h299.875c4.144532 0 7.5-3.359375 7.5-7.5s-3.355468-7.5-7.5-7.5h-299.875c-46.613281 0-84.535156 37.921875-84.535156 84.539062v230.699219c0 46.613281 37.921875 84.535157 84.535156 84.535157h38.867188c6.117187 0 11.609375 2.902343 15.0625 7.960937 3.4375 5.03125 4.140625 11.167969 1.929687 16.835937-2.859375 7.320313-6.371093 14.183594-10.441406 20.390626-6.636719 10.125-6.457031 22.574218.46875 32.480468 5.585937 8 17.328125 14.796875 30.445313 11.644532 34.0625-8.179688 83.273437-25.976563 123.722656-66.664063 14.308594-14.390625 34.476562-22.648437 55.332031-22.648437h87.542969c46.613281 0 84.535156-37.921876 84.535156-84.535157v-230.699219c0-46.617187-37.921875-84.539062-84.535156-84.539062zm0 0" fill="#000000" data-original="#000000"></path><path xmlns="http://www.w3.org/2000/svg" d="m394.640625 188.011719c19.757813 0 35.832031-16.074219 35.832031-35.832031 0-19.757813-16.074218-35.832032-35.832031-35.832032h-7.246094s12.144531-35.625-20.226562-46.554687c-28.878907-9.75-40.390625 12.6875-43.328125 21.324219l-8.585938 25.230468h-66.050781s11.9375-35.394531-20.222656-46.554687c-17.789063-6.171875-37.261719 3.5-43.328125 21.324219l-8.585938 25.230468h-35.9375c-19.757812 0-35.832031 16.074219-35.832031 35.832032 0 19.761718 16.074219 35.832031 35.832031 35.832031h11.542969l-8.082031 23.75h-27.230469c-19.757813 0-35.832031 16.074219-35.832031 35.832031 0 39.09375 38.667968 35.835938 38.667968 35.835938s-13.632812 35.21875 20.226563 46.554687c28.175781 9.429687 40.390625-12.691406 43.328125-21.324219l8.589844-25.230468h66.046875s-10.535157 34.703124 20.222656 46.554687c20.363281 7.84375 38.953125-4.816406 43.328125-21.324219l8.585938-25.230468h40.34375c19.761718 0 35.835937-16.078126 35.835937-35.835938s-16.074219-35.832031-35.835937-35.832031h-15.949219l8.082031-23.75zm0-56.664063c11.488281 0 20.832031 9.34375 20.832031 20.832032 0 11.488281-9.34375 20.832031-20.832031 20.832031h-26.535156l14.183593-41.667969h12.351563zm-84.492187 0-14.183594 41.664063h-66.046875l14.183593-41.664063zm-27.371094 80.414063h-66.046875l8.082031-23.75h66.046875zm-141.648438-38.75c-11.488281 0-20.832031-9.34375-20.832031-20.832031 0-11.488282 9.347656-20.832032 20.832031-20.832032h30.832032l-14.183594 41.667969h-16.648438zm28.421875 130.816406c-1.648437 4.839844-8.851562 17.726563-24.292969 11.953125-15.445312-5.773438-13.605468-19.453125-11.957031-24.292969l4.472657-13.144531c1.332031-3.921875 1.648437-9.910156-7.101563-9.910156v-.007813h-13.3125c-11.488281 0-20.832031-9.34375-20.832031-20.832031 0-11.484375 9.34375-20.832031 20.832031-20.832031h22.125l-5.367187 15.761719c-1.332032 3.921874.765624 8.183593 4.6875 9.519531 3.921874 1.332031 8.179687-.765625 9.515624-4.683594l51.53125-151.410156c3.402344-9.996094 14.382813-15.601563 24.296876-11.957031 16.1875 5.949218 13.605468 19.453124 11.957031 24.292968zm27.890625-35.398437 14.183594-41.667969h66.046875l-14.183594 41.667969zm110.296875 35.398437c-3.402343 9.992187-14.277343 15.28125-24.296875 11.953125-15.558594-5.164062-13.601562-19.453125-11.953125-24.292969l66.550781-195.539062c1.648438-4.84375 7.113282-17.503907 24.296876-11.957031 15.328124 4.949218 13.601562 19.453124 11.953124 24.292968zm63.132813-77.066406c11.488281 0 20.832031 9.347656 20.832031 20.832031 0 11.488281-9.34375 20.835938-20.832031 20.835938h-35.238282l14.179688-41.667969zm0 0" fill="#000000" data-original="#000000"></path></g></svg>