<svg xmlns="http://www.w3.org/2000/svg" version="1.1" xmlns:xlink="http://www.w3.org/1999/xlink" xmlns:svgjs="http://svgjs.com/svgjs" width="512" height="512" x="0" y="0" viewBox="0 0 256 256" style="enable-background:new 0 0 512 512" xml:space="preserve" class=""><g><g xmlns="http://www.w3.org/2000/svg" id="Layer_14"><g><g><g><g><path d="m96.786 180.292c-.323-1.234-1.444-2.088-2.719-2.088h-8.717c-1.557 0-2.82-1.263-2.82-2.82v-19.915c0-1.558 1.263-2.82 2.82-2.82h8.718c1.275 0 2.396-.855 2.719-2.089 1.365-5.219 3.431-10.151 6.092-14.696.645-1.102.459-2.499-.444-3.402l-6.168-6.168c-1.101-1.101-1.101-2.887 0-3.988l14.082-14.082c1.101-1.101 2.887-1.101 3.988 0l6.168 6.168c.903.903 2.3 1.089 3.402.444 4.544-2.661 9.477-4.727 14.696-6.092 1.234-.323 2.089-1.444 2.089-2.719v-8.718c0-1.558 1.263-2.82 2.82-2.82h19.915c1.557 0 2.82 1.263 2.82 2.82v8.718c0 1.275.855 2.396 2.089 2.719 3.217.841 6.324 1.951 9.3 3.301v-88.549c0-5.462-4.469-9.931-9.931-9.931h-80.77l-40.56 40.56v127.959c0 5.462 4.469 9.931 9.931 9.931h44.953c-1.888-3.699-3.4-7.621-4.473-11.723z" fill="#edf4fc" data-original="#edf4fc" class=""></path></g></g></g><g><g><path d="m46.375 54.125h30.629c5.462 0 9.931-4.469 9.931-9.931v-30.628z" fill="#70d6f9" data-original="#70d6f9" class=""></path></g></g><g><g><path d="m221.586 152.648h-8.718c-1.275 0-2.396-.855-2.719-2.089-1.365-5.218-3.431-10.151-6.092-14.695-.645-1.102-.459-2.499.444-3.402l6.168-6.168c1.101-1.101 1.101-2.887 0-3.988l-14.082-14.082c-1.101-1.101-2.887-1.101-3.988 0l-6.168 6.168c-.903.903-2.3 1.089-3.402.444-4.544-2.661-9.477-4.727-14.696-6.092-1.234-.323-2.088-1.444-2.088-2.719v-8.718c0-1.558-1.263-2.82-2.82-2.82h-19.915c-1.557 0-2.82 1.263-2.82 2.82v8.718c0 1.275-.855 2.396-2.088 2.719-5.218 1.365-10.151 3.431-14.696 6.092-1.102.645-2.499.459-3.402-.444l-6.168-6.168c-1.101-1.101-2.887-1.101-3.988 0l-14.082 14.082c-1.101 1.101-1.101 2.887 0 3.988l6.168 6.168c.903.903 1.089 2.3.444 3.402-2.661 4.544-4.727 9.477-6.092 14.696-.323 1.234-1.444 2.088-2.719 2.088h-8.717c-1.557 0-2.82 1.263-2.82 2.82v19.915c0 1.557 1.263 2.82 2.82 2.82h8.718c1.275 0 2.396.855 2.719 2.089 1.365 5.218 3.431 10.151 6.092 14.695.645 1.102.459 2.499-.444 3.402l-6.168 6.168c-1.101 1.101-1.101 2.887 0 3.988l14.082 14.082c1.101 1.101 2.887 1.101 3.988 0l6.168-6.168c.903-.903 2.3-1.089 3.402-.444 4.544 2.661 9.477 4.727 14.696 6.092 1.234.323 2.088 1.444 2.088 2.719v8.718c0 1.557 1.263 2.82 2.82 2.82h19.915c1.557 0 2.82-1.263 2.82-2.82v-8.718c0-1.275.855-2.396 2.088-2.719 5.218-1.365 10.151-3.431 14.696-6.092 1.102-.645 2.499-.459 3.402.444l6.168 6.168c1.101 1.101 2.887 1.101 3.988 0l14.082-14.082c1.101-1.101 1.101-2.887 0-3.988l-6.168-6.168c-.903-.903-1.089-2.3-.444-3.402 2.661-4.544 4.727-9.477 6.092-14.696.323-1.234 1.443-2.089 2.719-2.089h8.718c1.557 0 2.82-1.263 2.82-2.82v-19.915c0-1.557-1.263-2.819-2.821-2.819z" fill="#fcdd86" data-original="#fcdd86" class=""></path></g></g><g><g><circle cx="153.468" cy="165.425" fill="#f5c84c" r="40.096" data-original="#f5c84c"></circle></g></g><g><g><g><path d="m145.44 180.23-11.552-11.552c-1.953-1.953-1.953-5.119 0-7.071 1.951-1.952 5.119-1.952 7.07 0l8.017 8.016 17.002-17.001c1.951-1.952 5.119-1.952 7.07 0 1.953 1.953 1.953 5.119 0 7.071l-20.537 20.537c-1.951 1.952-5.118 1.952-7.07 0z" fill="#edf4fc" data-original="#edf4fc" class=""></path></g></g></g><g><g><path d="m53.194 19.551c-4.149.773-7.419 3.976-8.208 8.041-.04.204-.325.204-.364 0-.789-4.065-4.059-7.268-8.208-8.041-.208-.039-.208-.318 0-.357 4.149-.773 7.419-3.976 8.208-8.041.04-.204.325-.204.364 0 .789 4.065 4.059 7.268 8.208 8.041.208.039.208.318 0 .357z" fill="#f5c84c" data-original="#f5c84c"></path></g></g><g><g><path d="m205.937 72.41c-2.625.489-4.694 2.516-5.193 5.087-.025.129-.205.129-.23 0-.499-2.572-2.568-4.598-5.193-5.087-.132-.025-.132-.201 0-.226 2.625-.489 4.694-2.516 5.193-5.087.025-.129.205-.129.23 0 .499 2.572 2.568 4.598 5.193 5.087.131.025.131.201 0 .226z" fill="#fc657e" data-original="#fc657e"></path></g></g><g><g><circle cx="76.257" cy="3.377" fill="#87d147" r="3.377" data-original="#87d147"></circle></g></g><g><g><circle cx="192.257" cy="91.377" fill="#f5c84c" r="3.377" data-original="#f5c84c"></circle></g></g><g><g><path d="m122.73 246.758h-1.824v-1.824c0-1.366-1.107-2.473-2.473-2.473s-2.473 1.107-2.473 2.473v1.824h-1.824c-1.366 0-2.473 1.107-2.473 2.473s1.107 2.473 2.473 2.473h1.824v1.824c0 1.366 1.107 2.473 2.473 2.473s2.473-1.107 2.473-2.473v-1.824h1.824c1.366 0 2.473-1.107 2.473-2.473s-1.108-2.473-2.473-2.473z" fill="#70d6f9" data-original="#70d6f9" class=""></path></g></g><g><g><circle cx="149.641" cy="247.627" fill="#fc657e" r="3.377" data-original="#fc657e"></circle></g></g><g><g><g><path d="m100.667 194.515h-44.36c-6.854 0-12.432-5.576-12.432-12.431v-127.959c0-.663.264-1.299.732-1.768l40.56-40.56c.469-.469 1.104-.732 1.768-.732h80.77c6.854 0 12.431 5.577 12.431 12.431v87.628c0 1.381-1.119 2.5-2.5 2.5s-2.5-1.119-2.5-2.5v-87.627c0-4.098-3.333-7.431-7.431-7.431h-79.735l-39.095 39.095v126.923c0 4.097 3.334 7.431 7.432 7.431h44.36c1.381 0 2.5 1.119 2.5 2.5s-1.119 2.5-2.5 2.5z" fill="#000000" data-original="#000000" class=""></path></g></g></g><g><g><path d="m158.642 74.714h-93.274c-1.381 0-2.5-1.119-2.5-2.5s1.119-2.5 2.5-2.5h93.273c1.381 0 2.5 1.119 2.5 2.5s-1.119 2.5-2.499 2.5z" fill="#000000" data-original="#000000" class=""></path></g></g><g><g><path d="m158.642 61.867h-58.637c-1.381 0-2.5-1.119-2.5-2.5s1.119-2.5 2.5-2.5h58.637c1.381 0 2.5 1.119 2.5 2.5s-1.12 2.5-2.5 2.5z" fill="#000000" data-original="#000000" class=""></path></g></g><g><g><path d="m158.642 49.02h-58.637c-1.381 0-2.5-1.119-2.5-2.5s1.119-2.5 2.5-2.5h58.637c1.381 0 2.5 1.119 2.5 2.5s-1.12 2.5-2.5 2.5z" fill="#000000" data-original="#000000" class=""></path></g></g><g><g><path d="m94.667 113.256h-29.299c-1.381 0-2.5-1.119-2.5-2.5s1.119-2.5 2.5-2.5h29.299c1.381 0 2.5 1.119 2.5 2.5s-1.119 2.5-2.5 2.5z" fill="#000000" data-original="#000000" class=""></path></g></g><g><g><path d="m130.667 100.409h-65.299c-1.381 0-2.5-1.119-2.5-2.5s1.119-2.5 2.5-2.5h65.299c1.381 0 2.5 1.119 2.5 2.5s-1.119 2.5-2.5 2.5z" fill="#000000" data-original="#000000" class=""></path></g></g><g><g><path d="m158.642 87.561h-93.274c-1.381 0-2.5-1.119-2.5-2.5s1.119-2.5 2.5-2.5h93.273c1.381 0 2.5 1.119 2.5 2.5s-1.119 2.5-2.499 2.5z" fill="#000000" data-original="#000000" class=""></path></g></g><g><g><path d="m83.667 126.103h-18.299c-1.381 0-2.5-1.119-2.5-2.5s1.119-2.5 2.5-2.5h18.299c1.381 0 2.5 1.119 2.5 2.5s-1.119 2.5-2.5 2.5z" fill="#000000" data-original="#000000" class=""></path></g></g><g><g><path d="m73.167 164.645h-7.799c-1.381 0-2.5-1.119-2.5-2.5s1.119-2.5 2.5-2.5h7.799c1.381 0 2.5 1.119 2.5 2.5s-1.119 2.5-2.5 2.5z" fill="#000000" data-original="#000000" class=""></path></g></g><g><g><path d="m73.167 151.797h-7.799c-1.381 0-2.5-1.119-2.5-2.5s1.119-2.5 2.5-2.5h7.799c1.381 0 2.5 1.119 2.5 2.5s-1.119 2.5-2.5 2.5z" fill="#000000" data-original="#000000" class=""></path></g></g><g><g><path d="m83.667 138.95h-18.299c-1.381 0-2.5-1.119-2.5-2.5s1.119-2.5 2.5-2.5h18.299c1.381 0 2.5 1.119 2.5 2.5s-1.119 2.5-2.5 2.5z" fill="#000000" data-original="#000000" class=""></path></g></g><g><g><path d="m77.004 56.625h-29.567c-1.381 0-2.5-1.119-2.5-2.5s1.119-2.5 2.5-2.5h29.566c4.098 0 7.431-3.333 7.431-7.431v-29.652c0-1.381 1.119-2.5 2.5-2.5s2.5 1.119 2.5 2.5v29.652c.001 6.855-5.576 12.431-12.43 12.431z" fill="#000000" data-original="#000000" class=""></path></g></g><g><g><path d="m163.426 238.864h-19.915c-2.934 0-5.32-2.387-5.32-5.32v-8.717c0-.143-.091-.266-.221-.3-5.369-1.404-10.526-3.542-15.327-6.353-.114-.068-.268-.046-.369.054l-6.169 6.168c-1.005 1.005-2.341 1.558-3.762 1.558-1.422 0-2.758-.553-3.763-1.558l-14.081-14.082c-1.005-1.005-1.559-2.341-1.559-3.762s.554-2.757 1.559-3.762l6.168-6.167c.101-.101.123-.253.054-.37-2.811-4.801-4.948-9.958-6.354-15.327-.034-.13-.157-.221-.3-.221h-8.717c-2.933 0-5.319-2.387-5.319-5.32v-19.915c0-2.934 2.387-5.32 5.319-5.32h8.718c.143 0 .266-.09.3-.22 1.405-5.372 3.543-10.528 6.354-15.327.069-.118.047-.271-.054-.371l-6.168-6.168c-1.005-1.005-1.559-2.341-1.559-3.762s.554-2.757 1.559-3.762l14.082-14.082c1.004-1.005 2.34-1.558 3.762-1.558 1.421 0 2.757.553 3.762 1.558l6.168 6.169c.101.101.252.123.37.054 4.801-2.812 9.958-4.949 15.327-6.354.13-.034.221-.157.221-.3v-8.718c0-2.934 2.387-5.32 5.32-5.32h19.915c2.934 0 5.32 2.386 5.32 5.32v8.718c0 .143.091.266.22.299 5.37 1.405 10.527 3.542 15.328 6.354.114.069.27.046.37-.054l6.168-6.168c2.074-2.074 5.449-2.074 7.523 0l14.082 14.083c1.005 1.004 1.559 2.34 1.559 3.762 0 1.421-.554 2.757-1.559 3.762l-6.168 6.168c-.101.101-.123.253-.054.37 2.811 4.8 4.948 9.956 6.354 15.327.034.131.157.221.3.221h8.718c2.933 0 5.319 2.387 5.319 5.32v19.915c0 2.934-2.387 5.32-5.319 5.32h-8.718c-.143 0-.266.091-.3.22-1.405 5.371-3.543 10.527-6.354 15.327-.069.118-.047.271.055.372l6.167 6.167c1.005 1.004 1.559 2.34 1.559 3.762 0 1.421-.554 2.757-1.559 3.762l-14.082 14.082c-2.074 2.074-5.449 2.074-7.523 0l-6.168-6.168c-.101-.102-.256-.121-.37-.054-4.803 2.812-9.96 4.95-15.327 6.353-.13.034-.221.158-.221.3v8.717c-.001 2.931-2.388 5.318-5.321 5.318zm-40.929-25.73c.918 0 1.84.237 2.673.725 4.405 2.58 9.138 4.542 14.065 5.831 2.329.609 3.955 2.722 3.955 5.137v8.717c0 .177.144.32.32.32h19.915c.177 0 .32-.144.32-.32v-8.717c0-2.416 1.626-4.528 3.955-5.137 4.926-1.288 9.658-3.25 14.065-5.831 2.084-1.218 4.727-.875 6.434.834l6.167 6.167c.125.124.328.125.453 0l14.082-14.082c.063-.063.094-.139.094-.227s-.031-.164-.094-.226l-6.168-6.168c-1.709-1.709-2.051-4.354-.833-6.434 2.58-4.405 4.541-9.137 5.83-14.064.608-2.329 2.722-3.956 5.138-3.956h8.718c.176 0 .319-.144.319-.32v-19.915c0-.177-.144-.32-.319-.32h-8.718c-2.417 0-4.529-1.627-5.138-3.957-1.289-4.927-3.251-9.659-5.83-14.064-1.218-2.079-.876-4.724.833-6.433l6.168-6.168c.063-.063.094-.139.094-.227s-.031-.164-.094-.226l-14.082-14.083c-.125-.124-.328-.125-.453 0l-6.168 6.168c-1.71 1.709-4.355 2.05-6.433.833-4.406-2.579-9.139-4.541-14.065-5.83-2.328-.608-3.955-2.721-3.955-5.137v-8.718c0-.176-.144-.32-.32-.32h-19.915c-.177 0-.32.144-.32.32v8.718c0 2.416-1.627 4.528-3.956 5.137-4.926 1.289-9.658 3.25-14.064 5.83-2.079 1.219-4.726.875-6.433-.833l-6.168-6.168c-.125-.124-.329-.124-.452 0l-14.083 14.083c-.063.063-.094.139-.094.227s.031.164.094.227l6.168 6.168c1.709 1.708 2.051 4.354.833 6.434-2.579 4.404-4.541 9.136-5.83 14.064-.608 2.329-2.721 3.956-5.138 3.956h-8.717c-.176 0-.319.144-.319.32v19.915c0 .177.144.32.319.32h8.718c2.416 0 4.529 1.627 5.138 3.957 1.289 4.927 3.25 9.659 5.83 14.064 1.218 2.078.876 4.723-.832 6.432l-6.169 6.168c-.063.063-.094.139-.094.227s.031.164.094.227l14.082 14.082c.125.124.328.125.453 0l6.168-6.167c1.023-1.027 2.385-1.56 3.759-1.56z" fill="#000000" data-original="#000000" class=""></path></g></g><g><g><path d="m153.468 208.021c-23.486 0-42.595-19.108-42.595-42.596s19.108-42.595 42.595-42.595 42.596 19.108 42.596 42.595-19.109 42.596-42.596 42.596zm0-80.191c-20.729 0-37.595 16.865-37.595 37.595s16.865 37.596 37.595 37.596 37.596-16.865 37.596-37.596c-.001-20.73-16.866-37.595-37.596-37.595z" fill="#000000" data-original="#000000" class=""></path></g></g><g><g><g><path d="m148.976 184.194c-2.004 0-3.887-.78-5.303-2.197h-.001l-11.551-11.551c-1.417-1.416-2.197-3.3-2.197-5.303s.78-3.887 2.197-5.304c1.415-1.416 3.299-2.196 5.303-2.196s3.888.78 5.304 2.197l6.248 6.248 15.234-15.233c1.415-1.417 3.299-2.197 5.303-2.197s3.888.78 5.304 2.197c1.416 1.416 2.196 3.299 2.196 5.303s-.78 3.887-2.197 5.304l-20.537 20.537c-1.416 1.415-3.3 2.195-5.303 2.195zm-11.552-21.551c-.668 0-1.296.259-1.767.731-.474.473-.733 1.101-.733 1.769s.26 1.295.732 1.768l11.552 11.552h.001c.471.472 1.099.731 1.767.731.668 0 1.296-.26 1.767-.731l20.538-20.538c.473-.473.732-1.1.732-1.768 0-.667-.26-1.295-.732-1.768-.943-.945-2.593-.944-3.534-.001l-17.003 17.002c-.977.977-2.559.976-3.535 0l-8.017-8.017c-.472-.471-1.1-.73-1.768-.73z" fill="#000000" data-original="#000000" class=""></path></g></g></g></g></g></g></svg>