<svg xmlns="http://www.w3.org/2000/svg" version="1.1" xmlns:xlink="http://www.w3.org/1999/xlink" xmlns:svgjs="http://svgjs.com/svgjs" width="512" height="512" x="0" y="0" viewBox="0 0 512 512" style="enable-background:new 0 0 512 512" xml:space="preserve" class=""><g><path xmlns="http://www.w3.org/2000/svg" d="m433.121094 449.753906h-408.988282c-9.1875 0-16.632812-7.445312-16.632812-16.632812v-408.988282c0-9.1875 7.445312-16.632812 16.632812-16.632812h408.988282c9.183594 0 16.632812 7.445312 16.632812 16.632812v408.988282c0 9.1875-7.449218 16.632812-16.632812 16.632812zm0 0" fill="#f2f2f2" data-original="#f2f2f2"></path><path xmlns="http://www.w3.org/2000/svg" d="m47.75 47.75h361.753906v316.902344h-361.753906zm0 0" fill="#46d1c0" data-original="#46d1c0" class=""></path><path xmlns="http://www.w3.org/2000/svg" d="m355.765625 47.75h53.738281v316.902344h-53.738281zm0 0" fill="#33bca5" data-original="#33bca5"></path><path xmlns="http://www.w3.org/2000/svg" d="m409.503906 364.652344v-114.132813l-38.136718-48.050781c-9.9375-11.121094-27.34375-11.121094-37.277344 0l-144.914063 162.183594zm0 0" fill="#5292a8" data-original="#5292a8"></path><path xmlns="http://www.w3.org/2000/svg" d="m371.367188 202.46875c-4.230469-4.738281-9.816407-7.449219-15.601563-8.152344v170.335938h53.738281v-114.132813zm0 0" fill="#426175" data-original="#426175"></path><path xmlns="http://www.w3.org/2000/svg" d="m186.695312 155.53125c-9.9375-11.125-27.34375-11.125-37.28125 0l-101.664062 113.78125v95.339844h325.796875zm0 0" fill="#729caf" data-original="#729caf"></path><path xmlns="http://www.w3.org/2000/svg" d="m431.929688 318.378906c-9.847657 0-19.230469 1.972656-27.792969 5.523438 0-.074219.007812-.148438.007812-.226563 0-40.078125-32.492187-72.570312-72.574219-72.570312-35.242187 0-64.609374 25.125-71.1875 58.441406-.460937-.007813-.917968-.035156-1.386718-.035156-42.527344 0-77.003906 34.476562-77.003906 77.007812 0 42.527344 34.476562 77.003907 77.003906 77.003907h172.933594c40.078124 0 72.570312-32.492188 72.570312-72.570313 0-40.082031-32.492188-72.574219-72.570312-72.574219zm0 0" fill="#88dbfd" data-original="#88dbfd"></path><path xmlns="http://www.w3.org/2000/svg" d="m431.929688 318.378906c-9.847657 0-19.230469 1.972656-27.792969 5.523438 0-.074219.007812-.148438.007812-.226563 0-40.078125-32.492187-72.570312-72.574219-72.570312-21.253906 0-40.363281 9.148437-53.632812 23.710937 40.03125.058594 72.464844 32.527344 72.464844 72.570313 0 .078125-.003906.152343-.007813.226562 8.5625-3.550781 17.945313-5.523437 27.792969-5.523437 40.078125 0 72.570312 32.492187 72.570312 72.574218 0 18.820313-7.164062 35.964844-18.914062 48.863282h.082031c40.082031 0 72.574219-32.492188 72.574219-72.574219s-32.492188-72.574219-72.570312-72.574219zm0 0" fill="#5abfe9" data-original="#5abfe9"></path><path xmlns="http://www.w3.org/2000/svg" d="m365.464844 430.753906v-67.742187c0-1.109375-.898438-2.007813-2.007813-2.007813h-40.421875c-1.109375 0-2.007812.898438-2.007812 2.007813v67.742187h-31.746094c-1.789062 0-2.6875 2.164063-1.421875 3.429688l53.964844 53.964844c.785156.785156 2.058593.785156 2.839843 0l53.96875-53.964844c1.265626-1.265625.367188-3.429688-1.421874-3.429688zm0 0" fill="#fed066" data-original="#fed066"></path><path xmlns="http://www.w3.org/2000/svg" d="m181.988281 442.253906h-157.855469c-5.035156 0-9.132812-4.097656-9.132812-9.132812v-408.988282c0-5.035156 4.097656-9.132812 9.132812-9.132812h408.988282c5.035156 0 9.132812 4.097656 9.132812 9.132812v265.09375c0 4.140626 3.355469 7.5 7.5 7.5 4.140625 0 7.5-3.359374 7.5-7.5v-265.09375c0-13.308593-10.824218-24.132812-24.132812-24.132812h-408.988282c-13.308593 0-24.132812 10.824219-24.132812 24.132812v408.988282c0 13.308594 10.824219 24.132812 24.132812 24.132812h157.855469c4.144531 0 7.5-3.359375 7.5-7.5 0-4.144531-3.355469-7.5-7.5-7.5zm0 0" fill="#000000" data-original="#000000" class=""></path><path xmlns="http://www.w3.org/2000/svg" d="m431.929688 310.878906c-5.050782 0-10.035157.46875-14.925782 1.390625v-61.765625c0-.011718 0-.023437 0-.035156v-202.722656c0-4.140625-3.355468-7.5-7.5-7.5h-361.753906c-4.144531 0-7.5 3.359375-7.5 7.5v316.90625c0 4.140625 3.355469 7.5 7.5 7.5h127.964844c-.804688 4.667968-1.222656 9.46875-1.222656 14.363281 0 46.597656 37.90625 84.507813 84.503906 84.507813h55.097656l22.425781 22.425781c1.796875 1.796875 4.183594 2.785156 6.726563 2.785156 2.539062 0 4.925781-.988281 6.722656-2.785156l22.425781-22.425781h59.535157c44.148437 0 80.070312-35.917969 80.070312-80.070313s-35.921875-80.074219-80.070312-80.074219zm-29.925782-25.261718c-13.5625-25-40.050781-42.011719-70.433594-42.011719-10.191406 0-20.015624 1.9375-29.085937 5.488281l37.195313-41.628906c3.363281-3.765625 7.996093-5.839844 13.046874-5.839844 4.984376 0 9.5625 2.019531 12.914063 5.691406l36.363281 45.820313zm0-230.371094v173.757812l-24.761718-31.199218c-.089844-.113282-.183594-.226563-.28125-.335938-6.15625-6.894531-14.992188-10.84375-24.234376-10.84375-9.242187 0-18.074218 3.953125-24.230468 10.84375l-47.136719 52.753906-89.070313-99.691406c-6.160156-6.890625-14.992187-10.84375-24.234374-10.84375-9.242188 0-18.074219 3.953125-24.230469 10.84375l-88.574219 99.128906v-194.414062zm-346.753906 301.90625v-84.976563l99.757812-111.648437c3.363282-3.765625 7.996094-5.839844 13.046876-5.839844 5.050781 0 9.683593 2.074219 13.046874 5.839844l94.582032 105.855468c-9.910156 9.648438-17.375 21.878907-21.242188 35.75-34.300781 1.828126-63.234375 24.207032-74.6875 55.019532zm287.996094 121.808594-20.738282-20.738282h-.003906l-19.96875-19.96875h18.492188c4.140625 0 7.5-3.359375 7.5-7.5v-62.253906h29.4375v62.253906c0 4.140625 3.355468 7.5 7.5 7.5h18.488281zm88.683594-22.933594h-44.535157l16.539063-16.539063c2.730468-2.730469 3.539062-6.796875 2.0625-10.363281-1.476563-3.566406-4.925782-5.871094-8.785156-5.871094h-24.246094v-60.242187c0-5.242188-4.265625-9.507813-9.507813-9.507813h-40.421875c-5.242187 0-9.507812 4.265625-9.507812 9.507813v60.242187h-24.246094c-3.859375 0-7.308594 2.304688-8.785156 5.867188-1.476563 3.566406-.667969 7.632812 2.0625 10.367187l16.539062 16.539063h-40.097656c-38.328125 0-69.507812-31.183594-69.507812-69.507813 0-6.742187.964843-13.265625 2.765624-19.433593.0625-.195313.125-.390626.175782-.59375 8.617187-28.59375 35.199218-49.480469 66.566406-49.480469.191406 0 .382812.007812.574219.015625.222656.007812.445312.011718.667969.019531 3.648437.058594 6.796874-2.480469 7.5-6.046875 5.992187-30.359375 32.835937-52.394531 63.828124-52.394531 35.851563 0 65.019532 29.132812 65.074219 64.96875-.003906.109375-.007812.21875-.007812.328125 0 2.507812 1.253906 4.847656 3.335937 6.238281 2.085938 1.390625 4.726563 1.648437 7.039063.6875 1.417969-.585937 2.847656-1.121094 4.289062-1.605469.359375-.085937.707031-.203125 1.042969-.339844 6.3125-1.996093 12.875-3.003906 19.585938-3.003906 35.878906 0 65.070312 29.191406 65.070312 65.070313 0 35.886719-29.191406 65.078125-65.070312 65.078125zm0 0" fill="#000000" data-original="#000000" class=""></path></g></svg>