<svg xmlns="http://www.w3.org/2000/svg" version="1.1" xmlns:xlink="http://www.w3.org/1999/xlink" xmlns:svgjs="http://svgjs.com/svgjs" width="512" height="512" x="0" y="0" viewBox="0 0 512.01 512.01" style="enable-background:new 0 0 512 512" xml:space="preserve" class=""><g><linearGradient xmlns="http://www.w3.org/2000/svg" id="SVGID_1_" gradientUnits="userSpaceOnUse" x1="256.005" x2="256.005" y1="512.01" y2="0"><stop offset="0" stop-color="#fd3a84"></stop><stop offset="1" stop-color="#ffa68d"></stop></linearGradient><g xmlns="http://www.w3.org/2000/svg"><g><g><path d="m286.993 150c8.284 0 15-6.716 15-15s-6.716-15-15-15h-60c-8.284 0-15 6.716-15 15s6.716 15 15 15h15v90h-15c-8.284 0-15 6.716-15 15s6.716 15 15 15h60c8.284 0 15-6.716 15-15s-6.716-15-15-15h-15v-90zm30-150c-107.523 0-195 87.477-195 195 0 37.494 10.647 72.544 29.062 102.304l-137.88 137.879c-17.544 17.544-17.544 46.091 0 63.635 17.588 17.589 46.044 17.592 63.635 0l137.879-137.879c29.76 18.414 64.81 29.061 102.304 29.061 107.523 0 195-87.477 195-195s-87.477-195-195-195zm-261.396 477.604c-5.866 5.865-15.343 5.865-21.209 0-5.847-5.847-5.847-15.362 0-21.209l134.59-134.59c6.519 7.598 13.611 14.69 21.209 21.209zm261.396-117.604c-90.981 0-165-74.019-165-165s74.019-165 165-165 165 74.019 165 165-74.019 165-165 165zm60-240h-30c-8.284 0-15 6.716-15 15v120c0 8.284 6.716 15 15 15h30c24.813 0 45-20.187 45-45v-60c0-24.813-20.187-45-45-45zm15 105c0 8.271-6.729 15-15 15h-15v-90h15c8.271 0 15 6.729 15 15z" fill="url(#SVGID_1_)" data-original="url(#SVGID_1_)"></path></g></g></g></g></svg>