<svg xmlns="http://www.w3.org/2000/svg" version="1.1" xmlns:xlink="http://www.w3.org/1999/xlink" xmlns:svgjs="http://svgjs.com/svgjs" width="512" height="512" x="0" y="0" viewBox="0 0 480.11 480.11" style="enable-background:new 0 0 512 512" xml:space="preserve" class=""><g><path xmlns="http://www.w3.org/2000/svg" d="m305.426 8.11h-240c-13.25 0-24 10.75-24 24v416c0 13.25 10.75 24 24 24h304c13.25 0 24-10.75 24-24v-352z" fill="#bdeffc" data-original="#bdeffc"></path><path xmlns="http://www.w3.org/2000/svg" d="m375.076 77.76c-171.341 53.677-275.568 197.865-311.538 372.715-2.672 12.991-21.927 11.233-22.11-2.028-.004-.275-.002-416.612-.002-416.336 0-13.255 10.745-24 24-24h240z" fill="#d6f4fc" data-original="#d6f4fc" class=""></path><path xmlns="http://www.w3.org/2000/svg" d="m393.426 96.11h-64c-13.25 0-24-10.75-24-24v-64z" fill="#bdeffc" data-original="#bdeffc"></path><path xmlns="http://www.w3.org/2000/svg" d="m393.426 96.11h-64c-13.25 0-24-10.75-24-24v-64z" fill="#e8f8fc" data-original="#e8f8fc" class=""></path><path xmlns="http://www.w3.org/2000/svg" d="m431.606 420.06c9.38 9.37 9.38 24.57 0 33.94-9.323 9.343-24.536 9.404-33.94 0l-47.253-47.253c-3.124-3.124-3.124-8.19 0-11.314l22.626-22.626c3.124-3.124 8.19-3.124 11.314 0z" fill="#fe4f60" data-original="#fe4f60"></path><circle xmlns="http://www.w3.org/2000/svg" cx="273.926" cy="295.61" fill="#e3f7fc" r="88.5" data-original="#e3f7fc"></circle><path xmlns="http://www.w3.org/2000/svg" d="m278.37 240.616c-27.906 8.93-50.621 31.831-59.429 59.791-5.81 18.443-34.158 15.373-33.475-7.507 1.402-46.938 39.969-85.198 87.342-85.782 19.72-.244 24.344 27.487 5.562 33.498z" fill="#f2fafc" data-original="#f2fafc"></path><path xmlns="http://www.w3.org/2000/svg" d="m410.54 441.92c8.008 8.015-3.602 20.517-12 12.912-.698-.632-48.79-48.747-48.124-48.082-3.126-3.126-3.126-8.194 0-11.32l22.62-22.62c3.126-3.126 8.194-3.126 11.32 0 3.778 3.778 3.778 9.902 0 13.68l-8.94 8.94c-3.126 3.126-3.122 8.198.004 11.324 16.836 16.836 27.829 27.869 35.12 35.166z" fill="#ff6d7a" data-original="#ff6d7a"></path><path xmlns="http://www.w3.org/2000/svg" d="m260.298 252.483c2.059 3.91.559 8.748-3.35 10.807-7.75 4.081-13.784 10.805-16.99 18.932-1.241 3.146-4.255 5.066-7.444 5.066-5.628 0-9.511-5.688-7.439-10.938 4.611-11.687 13.283-21.353 24.418-27.217 3.909-2.06 8.746-.558 10.805 3.35zm154.342 216.534c-6.065 0-12.126-1.712-17.397-5.128-5.536 9.704-15.99 16.222-27.818 16.222h-304c-17.645 0-32-14.355-32-32v-416c0-17.645 14.355-32 32-32 256.127 0 241.906-.78 245.063 1.806.404.33 88.639 88.491 89.298 89.355 2.785 3.663 1.909 8.897-1.884 11.465-2.811 1.915.714 1.373-68.477 1.373-30.504 0-40.786-40-24-40 4.418 0 8 3.582 8 8 0 8.822 7.178 16 16 16h44.687l-72-72h-236.686c-8.822 0-16 7.178-16 16v416c0 8.822 7.178 16 16 16h304c7.261 0 13.484-4.909 15.391-11.647l-45.716-45.716c-3.125-3.124-3.125-8.189 0-11.313l11.314-11.314-19.92-19.92c-3.136-3.136-3.176-8.318.185-11.481 51.722-54.965 12.186-137.608-56.754-137.608-44.388 0-80.5 36.112-80.5 80.5s36.112 80.5 80.5 80.5c4.418 0 8 3.582 8 8s-3.582 8-8 8c-53.21 0-96.5-43.29-96.5-96.5s43.29-96.5 96.5-96.5c82.473 0 126.583 97.176 73.335 159.229l14.467 14.467c11.85-11.85 12.687-13.657 16.97-13.657 3.659 0 5.53 2.217 6.727 3.414v-218.12c0-4.418 3.582-8 8-8s8 3.582 8 8v234.119l35.842 35.842c20.23 20.229 5.64 54.612-22.627 54.612zm11.314-43.299c-46.957-46.956-21.511-21.511-47.255-47.254l-22.627 22.627 47.255 47.255c6.238 6.238 16.389 6.239 22.627 0 6.254-6.255 6.253-16.376 0-22.628zm-307.528-340.608h67c4.418 0 8-3.582 8-8s-3.582-8-8-8h-67c-4.418 0-8 3.582-8 8s3.582 8 8 8zm122 70.5c0-4.418-3.582-8-8-8h-114c-4.418 0-8 3.582-8 8s3.582 8 8 8h114c4.418 0 8-3.581 8-8zm-95 70.5h-27c-4.418 0-8 3.582-8 8s3.582 8 8 8h27c4.418 0 8-3.582 8-8s-3.582-8-8-8zm0 80h-27c-4.418 0-8 3.582-8 8s3.582 8 8 8h27c4.418 0 8-3.582 8-8s-3.582-8-8-8z" fill="#000000" data-original="#000000" class=""></path></g></svg>