<svg xmlns="http://www.w3.org/2000/svg" version="1.1" xmlns:xlink="http://www.w3.org/1999/xlink" xmlns:svgjs="http://svgjs.com/svgjs" width="512" height="512" x="0" y="0" viewBox="0 0 512 512" style="enable-background:new 0 0 512 512" xml:space="preserve" class=""><g><g xmlns="http://www.w3.org/2000/svg"><g><g><g><path d="m38.815 163.065h434.37v236.378h-434.37z" fill="#95d6a4" data-original="#95d6a4" class=""></path></g><g><path d="m452.982 163.065h20.203v236.378h-20.203z" fill="#78c2a4" data-original="#78c2a4"></path></g><g><path d="m428.738 227.715c-11.158 0-20.203-9.045-20.203-20.203v-12.122h-152.535-152.534v12.122c0 11.158-9.045 20.203-20.203 20.203h-12.123v107.077h12.122c11.158 0 20.203 9.045 20.203 20.203v12.122h152.535 152.534v-12.122c0-11.158 9.045-20.203 20.203-20.203h12.122v-107.077z" fill="#b3e59f" data-original="#b3e59f" class=""></path></g><g><circle cx="256" cy="281.254" fill="#95d6a4" r="41.793" data-original="#95d6a4" class=""></circle></g></g><g><path d="m7.5 399.443h497v96.976h-497z" fill="#b3e59f" data-original="#b3e59f" class=""></path></g><g><path d="m481.266 399.443h23.234v96.976h-23.234z" fill="#95d6a4" data-original="#95d6a4" class=""></path></g><g><path d="m215.594 399.443h80.813v96.976h-80.813z" fill="#efecef" data-original="#efecef"></path></g></g><g><path d="m407.419 98.72 14.247-7.124-14.247-7.124c-3.43-1.715-6.111-4.629-7.535-8.189l-9.532-23.831-9.532 23.831c-1.424 3.56-4.105 6.475-7.535 8.189l-14.247 7.124 14.247 7.124c3.43 1.715 6.111 4.629 7.535 8.189l9.532 23.831 9.532-23.831c1.424-3.56 4.105-6.474 7.535-8.189z" fill="#ffe07d" data-original="#ffe07d"></path></g><g><path d="m104.581 98.72-14.247-7.124 14.247-7.124c3.43-1.715 6.111-4.629 7.535-8.189l9.532-23.831 9.532 23.831c1.424 3.56 4.105 6.475 7.535 8.189l14.247 7.124-14.247 7.124c-3.43 1.715-6.111 4.629-7.535 8.189l-9.532 23.831-9.532-23.831c-1.424-3.56-4.105-6.474-7.535-8.189z" fill="#ffe07d" data-original="#ffe07d"></path></g><g><path d="m273.068 61.849 14.247-7.124-14.247-7.124c-3.43-1.715-6.111-4.629-7.535-8.189l-9.533-23.831-9.532 23.831c-1.424 3.56-4.105 6.475-7.535 8.189l-14.247 7.124 14.247 7.124c3.43 1.715 6.111 4.629 7.535 8.189l9.532 23.831 9.532-23.831c1.424-3.56 4.106-6.474 7.536-8.189z" fill="#ffe07d" data-original="#ffe07d"></path></g><g><path d="m38.815 200.978c4.143 0 7.5-3.358 7.5-7.5v-22.913h419.369v160.578c0 4.142 3.357 7.5 7.5 7.5s7.5-3.358 7.5-7.5v-168.078c0-4.142-3.357-7.5-7.5-7.5h-434.369c-4.143 0-7.5 3.358-7.5 7.5v30.413c0 4.142 3.358 7.5 7.5 7.5z" fill="#000000" data-original="#000000" class=""></path><path d="m103.466 374.618h305.068c4.143 0 7.5-3.358 7.5-7.5v-12.122c0-7.005 5.698-12.704 12.703-12.704h12.122c4.143 0 7.5-3.358 7.5-7.5v-107.077c0-4.142-3.357-7.5-7.5-7.5h-12.122c-7.005 0-12.703-5.699-12.703-12.703v-12.122c0-4.142-3.357-7.5-7.5-7.5h-305.068c-4.143 0-7.5 3.358-7.5 7.5v12.122c0 7.004-5.698 12.703-12.703 12.703h-12.122c-4.143 0-7.5 3.358-7.5 7.5v107.077c0 4.142 3.357 7.5 7.5 7.5h12.122c7.005 0 12.703 5.699 12.703 12.704v12.122c0 4.142 3.357 7.5 7.5 7.5zm-20.203-47.326h-4.622v-92.077h4.622c15.275 0 27.703-12.428 27.703-27.703v-4.622h290.068v4.622c0 15.275 12.428 27.703 27.703 27.703h4.622v92.077h-4.622c-15.275 0-27.703 12.428-27.703 27.704v4.622h-290.068v-4.622c0-15.276-12.428-27.704-27.703-27.704z" fill="#000000" data-original="#000000" class=""></path><path d="m256 330.547c27.181 0 49.293-22.113 49.293-49.293s-22.112-49.293-49.293-49.293-49.293 22.113-49.293 49.293c0 27.181 22.112 49.293 49.293 49.293zm0-83.586c18.909 0 34.293 15.384 34.293 34.293 0 18.91-15.384 34.293-34.293 34.293s-34.293-15.384-34.293-34.293 15.384-34.293 34.293-34.293z" fill="#000000" data-original="#000000" class=""></path><path d="m335.803 288.754h30.305c4.143 0 7.5-3.358 7.5-7.5s-3.357-7.5-7.5-7.5h-30.305c-4.143 0-7.5 3.358-7.5 7.5s3.357 7.5 7.5 7.5z" fill="#000000" data-original="#000000" class=""></path><path d="m145.893 288.754h30.305c4.143 0 7.5-3.358 7.5-7.5s-3.357-7.5-7.5-7.5h-30.305c-4.143 0-7.5 3.358-7.5 7.5s3.357 7.5 7.5 7.5z" fill="#000000" data-original="#000000" class=""></path><path d="m504.5 391.943h-23.815v-25.764c0-4.142-3.357-7.5-7.5-7.5s-7.5 3.358-7.5 7.5v25.764h-419.37v-163.443c0-4.142-3.357-7.5-7.5-7.5s-7.5 3.358-7.5 7.5v163.443h-23.815c-4.143 0-7.5 3.358-7.5 7.5v96.976c0 4.142 3.357 7.5 7.5 7.5h497c4.143 0 7.5-3.358 7.5-7.5v-96.976c0-4.142-3.357-7.5-7.5-7.5zm-281.406 15h65.813v81.976h-65.813zm80.812 32.325h193.094v17.325h-193.094zm193.094-32.325v17.325h-193.094v-17.325zm-288.906 0v17.325h-66.835c-4.143 0-7.5 3.358-7.5 7.5s3.357 7.5 7.5 7.5h66.835v17.325h-193.094v-17.325h91.143c4.143 0 7.5-3.358 7.5-7.5s-3.357-7.5-7.5-7.5h-91.143v-17.325zm-193.094 64.65h193.094v17.325h-193.094zm288.906 17.325v-17.325h193.094v17.325z" fill="#000000" data-original="#000000" class=""></path><path d="m355.683 98.305 14.247 7.123c1.789.895 3.184 2.41 3.926 4.267l9.532 23.831c1.14 2.847 3.897 4.714 6.964 4.714s5.824-1.867 6.964-4.714l9.532-23.832c.742-1.856 2.137-3.372 3.925-4.266l14.248-7.124c2.541-1.271 4.146-3.868 4.146-6.708s-1.605-5.438-4.146-6.708l-14.248-7.124c-1.789-.895-3.184-2.41-3.926-4.267l-9.532-23.831c-1.14-2.847-3.897-4.714-6.964-4.714s-5.824 1.867-6.964 4.714l-9.532 23.832c-.742 1.856-2.137 3.372-3.926 4.266l-14.248 7.124c-2.54 1.271-4.146 3.867-4.146 6.708s1.607 5.438 4.148 6.709zm20.956-7.125c5.078-2.539 9.036-6.841 11.145-12.112l2.568-6.422 2.568 6.421c2.108 5.272 6.066 9.574 11.145 12.113l.832.416-.831.415h-.001c-5.078 2.539-9.036 6.841-11.145 12.112l-2.568 6.422-2.568-6.421c-2.108-5.272-6.066-9.574-11.146-12.113l-.831-.415z" fill="#000000" data-original="#000000" class=""></path><path d="m86.979 98.305 14.247 7.123c1.789.895 3.184 2.41 3.926 4.267l9.532 23.831c1.14 2.847 3.897 4.714 6.964 4.714s5.824-1.867 6.964-4.714l9.532-23.832c.742-1.856 2.137-3.372 3.925-4.266l14.248-7.124c2.541-1.271 4.146-3.868 4.146-6.708s-1.605-5.438-4.146-6.708l-14.248-7.124c-1.789-.895-3.184-2.41-3.926-4.267l-9.532-23.831c-1.14-2.847-3.897-4.714-6.964-4.714s-5.824 1.867-6.964 4.714l-9.532 23.832c-.742 1.856-2.137 3.372-3.926 4.266l-14.248 7.124c-2.54 1.271-4.146 3.867-4.146 6.708s1.607 5.438 4.148 6.709zm20.957-7.125c5.078-2.539 9.036-6.841 11.145-12.112l2.568-6.422 2.568 6.421c2.108 5.272 6.066 9.574 11.145 12.113l.832.416-.832.416c-5.078 2.539-9.036 6.841-11.145 12.112l-2.568 6.422-2.568-6.421c-2.108-5.272-6.066-9.574-11.145-12.113h-.001l-.831-.415z" fill="#000000" data-original="#000000" class=""></path><path d="m221.331 61.434 14.247 7.123c1.789.895 3.184 2.41 3.926 4.267l9.532 23.831c1.14 2.848 3.897 4.715 6.964 4.715s5.824-1.867 6.964-4.715l9.532-23.832c.742-1.856 2.137-3.371 3.926-4.266l14.247-7.123c2.541-1.271 4.146-3.868 4.146-6.708s-1.605-5.438-4.146-6.708l-14.247-7.123c-1.789-.895-3.184-2.41-3.926-4.267l-9.532-23.831c-1.14-2.847-3.897-4.714-6.964-4.714s-5.824 1.867-6.964 4.714l-9.532 23.832c-.742 1.856-2.137 3.371-3.925 4.266l-14.248 7.124c-2.541 1.271-4.146 3.868-4.146 6.708s1.605 5.436 4.146 6.707zm20.956-7.124c5.079-2.54 9.037-6.842 11.145-12.112l2.568-6.422 2.568 6.421c2.107 5.271 6.065 9.573 11.146 12.113l.83.415-.83.415c-.001 0-.001 0-.001 0-5.079 2.54-9.037 6.842-11.145 12.112l-2.568 6.422-2.568-6.421c-2.107-5.271-6.065-9.573-11.146-12.113l-.83-.415z" fill="#000000" data-original="#000000" class=""></path></g></g></g></svg>