<svg xmlns="http://www.w3.org/2000/svg" version="1.1" xmlns:xlink="http://www.w3.org/1999/xlink" xmlns:svgjs="http://svgjs.com/svgjs" width="512" height="512" x="0" y="0" viewBox="0 0 511.999 511.999" style="enable-background:new 0 0 512 512" xml:space="preserve" class=""><g><g xmlns="http://www.w3.org/2000/svg"><g><path d="m71.848 308.167c3.177-87.018 40.256-161.237 67.376-204.385 2.68-4.264 8.542-5.025 12.238-1.605l24.376 22.558c13.035-25.303 34.284-58.233 43.543-72.302 2.49-3.783 7.593-4.712 11.293-2.101l15.973 11.275 35.996-47.026c2.919-3.814 8.525-4.236 11.955-.874 29.133 28.562 145.774 152.527 145.773 306.42 0 103.1-84.625 186.434-188.203 184.332-103.44-2.098-184.095-92.9-180.32-196.292z" fill="#e5646e" data-original="#e5646e" class=""></path><path d="m298.848 159.214-28.82 17.292-29.468-30.646c-2.389-2.485-6.096-3.188-9.202-1.693-21.026 10.115-98.636 52.861-116.13 139.941-18 89.598 45.266 177.687 136.618 180.253 81.586 2.292 148.444-63.162 148.444-144.232 0-84.456-73.639-146.058-92.502-160.453-2.607-1.99-6.127-2.15-8.94-.462z" fill="#ffc269" data-original="#ffc269" class=""></path><path d="m308.126 332.586-71.837 39.91c-9.499 5.277-21.172-1.591-21.172-12.457v-79.819c0-10.866 11.673-17.734 21.172-12.457l71.837 39.91c9.774 5.427 9.774 19.483 0 24.913z" fill="#ffffff" data-original="#ffffff"></path><path d="m266.208 449.998c-91.352-2.566-154.617-90.655-136.618-180.253 7.345-36.561 25.316-65.213 45.218-87.01-25.178 22.95-50.491 56.129-59.58 101.372-18 89.598 45.265 177.687 136.618 180.253 45.475 1.277 86.337-18.528 113.633-50.318-26.371 23.185-61.157 37.027-99.271 35.956z" fill="#ffa95f" data-original="#ffa95f"></path><path d="m308.126 307.671-5.507-3.059-44.462 24.701c-1.794.996-3.698 1.501-5.661 1.501-5.64 0-11.728-4.486-11.728-11.733v-48.831l-4.48-2.489c-9.499-5.277-21.172 1.592-21.172 12.457v79.819c0 10.866 11.673 17.734 21.172 12.458l71.837-39.91c9.775-5.429 9.775-19.485.001-24.914z" fill="#fff5d7" data-original="#fff5d7"></path><path d="m280.132 500.452c-103.438-2.099-178.462-92.886-175.132-196.293 3-93.16 55.591-193.534 55.591-193.534l-9.129-8.448c-3.696-3.42-9.558-2.659-12.238 1.604-27.121 43.148-64.199 117.368-67.376 204.385-3.775 103.392 76.881 194.194 180.32 196.293 15.19.308 29.955-1.269 44.122-4.428-5.332.354-10.711.532-16.158.421z" fill="#db4655" data-original="#db4655" class=""></path></g><g><path d="m322.956 320.128c0-8.014-4.182-15.122-11.188-19.014l-71.837-39.91c-6.808-3.783-14.881-3.683-21.594.268-6.713 3.95-10.72 10.958-10.72 18.746v79.819c0 7.789 4.007 14.796 10.72 18.746 3.436 2.022 7.228 3.035 11.025 3.035 3.62 0 7.245-.921 10.569-2.768l71.837-39.91c7.006-3.89 11.188-10.998 11.188-19.012zm-18.472 5.902-71.837 39.91c-3.047 1.693-5.703.505-6.703-.083-1-.589-3.327-2.334-3.327-5.818v-79.819c0-3.484 2.327-5.229 3.327-5.818.618-.364 1.869-.956 3.453-.956.979 0 2.086.226 3.25.873l71.837 39.91c3.134 1.741 3.472 4.707 3.472 5.901s-.338 4.158-3.472 5.9z" fill="#000000" data-original="#000000" class=""></path><path d="m423.584 194.426c-12.839-33.766-30.724-67.669-53.157-100.766-38.152-56.288-75.768-90.32-77.35-91.741-1.556-1.397-3.625-2.079-5.707-1.888-2.082.194-3.989 1.249-5.26 2.909l-37.032 48.38-16.818-11.871c-1.635-1.154-3.665-1.606-5.636-1.257-1.971.35-3.72 1.473-4.859 3.12-.157.228-15.914 23.056-30.448 47.137-2.14 3.546-1 8.156 2.546 10.297 3.547 2.14 8.157 1 10.297-2.546 9.751-16.157 20.068-31.75 25.686-40.094l16.476 11.63c3.292 2.324 7.832 1.631 10.281-1.569l36.346-47.483c12.021 11.766 40.634 41.453 69.061 83.393 21.782 32.135 39.126 65 51.553 97.68 15.466 40.675 23.308 81.174 23.308 120.371 0 97.527-79.344 176.871-176.871 176.871s-176.871-79.344-176.871-176.871c0-91.363 39.815-170.068 66.775-212.875l24.84 22.987c3.042 2.813 7.786 2.629 10.599-.411s2.63-7.785-.411-10.599l-31.403-29.06c-1.617-1.498-3.812-2.209-6.001-1.94-2.188.267-4.149 1.483-5.36 3.326-27.651 42.069-74.039 127.707-74.039 228.573 0 105.798 86.073 191.871 191.871 191.871s191.871-86.073 191.871-191.871c0-41.027-8.172-83.319-24.287-125.703z" fill="#000000" data-original="#000000" class=""></path><path d="m336.579 194.664c2.869 2.988 7.617 3.084 10.604.216s3.084-7.616.216-10.604c-20.881-21.75-39.139-33.618-39.906-34.113-2.401-1.549-5.474-1.598-7.923-.128l-28.277 16.966-29.259-30.43c-2.132-2.217-5.4-2.908-8.246-1.743-1.326.542-32.839 13.621-64.692 42.876-42.449 38.987-64.886 88.236-64.886 142.424 0 83.698 68.093 151.791 151.791 151.791s151.789-68.093 151.789-151.791c0-37.688-12.694-74.303-37.73-108.829-2.432-3.354-7.121-4.101-10.475-1.669s-4.101 7.121-1.669 10.475c23.141 31.912 34.874 65.565 34.874 100.023 0 75.427-61.364 136.791-136.791 136.791s-136.791-61.364-136.791-136.791c0-50.423 20.073-94.51 59.662-131.036 23.053-21.269 46.411-33.677 56.03-38.297l29.721 30.909c2.423 2.521 6.266 3.032 9.265 1.233l29.249-17.549c6.198 4.462 19.263 14.505 33.444 29.276z" fill="#000000" data-original="#000000" class=""></path></g></g></g></svg>