<svg xmlns="http://www.w3.org/2000/svg" version="1.1" xmlns:xlink="http://www.w3.org/1999/xlink" xmlns:svgjs="http://svgjs.com/svgjs" width="512" height="512" x="0" y="0" viewBox="0 0 124 124" style="enable-background:new 0 0 512 512" xml:space="preserve" class=""><g><path xmlns="http://www.w3.org/2000/svg" d="m47.234 19.162c5.488-3.2 2.184-10.802 8.319-15.743 7.441-5.994 23.401-3.746 28.037 3.936 5.198 8.614-6.141 20.255-1.232 25.431 4.767 5.026 16.6-4.753 26.496.908 6.993 4.001 10.89 14.495 8.627 22.403-3.09 10.798-15.86 10.468-17.87 19.981-2.081 9.851 10.741 14.324 9.859 25.128-.951 11.646-17.279 23.961-31.118 22.706-14.133-1.282-16.83-15.915-30.193-15.743-12.25.158-17.107 12.546-24.956 9.991-6.883-2.241-10.271-14.088-9.859-23.311.828-18.545 16.938-24.67 13.864-36.027-2.741-10.128-16.558-8.975-19.718-20.285-2.544-9.104 3.125-21.601 11.4-24.522 10.514-3.712 20.543 9.695 28.344 5.147z" fill="#f4f2f4" data-original="#f4f2f4"></path><path xmlns="http://www.w3.org/2000/svg" d="m117.022 21.827-3.321-.055c-1.547-.026-2.388-2.087-1.292-3.194l2.349-2.37c.751-.757.751-1.985 0-2.743l-5.387-5.436c-.751-.757-1.967-.757-2.718 0l-2.348 2.37c-.729.735-3.454.63-3.305-.843l.373-3.678c.119-1.171-.738-2.129-1.905-2.129h-7.868c-1.111 0-2.011.909-2.011 2.03v3.339c0 1.565-2.08 2.465-3.199 1.337l-2.339-2.361c-.785-.792-2.059-.792-2.844 0l-5.261 5.309c-.785.793-.785 2.077 0 2.87l2.383 2.405c.862.87.536 3.417-1.046 3.294l-3.562-.277c-1.144-.089-2.08.786-2.08 1.943v7.833c0 1.081.869 1.958 1.94 1.958h3.379c1.578 0 2.426 2.116 1.325 3.228l-2.339 2.361c-.785.793-.785 2.077 0 2.87l5.261 5.309c.785.792 2.059.792 2.844 0l2.339-2.361c1.115-1.125 3.199-.234 3.199 1.337v3.339c0 1.121.9 2.029 2.011 2.029h7.375c1.147 0 2.077-.938 2.077-2.096v-4.285c0-.44 1.816-1.122 2.112-1.234l3.788 3.13c.792.655 2.033.592 2.757-.138l4.987-5.033c.785-.793.785-2.077 0-2.87l-2.339-2.361c-1.098-1.108-.258-3.228 1.325-3.228h3.308c1.111 0 2.011-.909 2.011-2.03v-7.541c-.001-1.107-.881-2.01-1.979-2.028zm-21.701 16.027c-5.589 0-10.119-4.572-10.119-10.211s4.53-10.211 10.119-10.211 10.119 4.572 10.119 10.211c-.001 5.64-4.531 10.211-10.119 10.211z" fill="#ff3366" data-original="#ff3366" class=""></path><path xmlns="http://www.w3.org/2000/svg" d="m70.876 4.51h-56.232c-4.786 0-8.644 3.821-8.644 8.494v98.754c0 4.703 3.888 8.494 8.644 8.494h73.191c4.786 0 8.644-3.821 8.644-8.494v-84.264z" fill="#ffffff" data-original="#ffffff" class=""></path><path xmlns="http://www.w3.org/2000/svg" d="m70.876 4.51v17.752c0 2.88 2.393 5.232 5.324 5.232h20.25z" fill="#00ffff" data-original="#00ffff" class=""></path><g xmlns="http://www.w3.org/2000/svg" fill="#636"><path d="m97.147 26.75-25.603-22.984c-.158-.143-.447-.256-.668-.256h-56.232c-5.318 0-9.644 4.259-9.644 9.494v98.754c0 5.235 4.326 9.494 9.644 9.494h73.192c5.317 0 9.644-4.259 9.644-9.494v-84.264c-.001-.284-.122-.555-.333-.744zm-3.305-.256h-17.642c-2.385 0-4.324-1.898-4.324-4.231v-15.51zm-6.006 92.758h-73.192c-4.215 0-7.644-3.362-7.644-7.494v-98.754c0-4.132 3.429-7.494 7.644-7.494h55.232v16.752c0 3.436 2.837 6.231 6.324 6.231h19.279v83.264c0 4.133-3.428 7.495-7.643 7.495z" fill="#663366" data-original="#663366" class=""></path><path d="m23.558 75.782h55.335v2h-55.335z" fill="#663366" data-original="#663366" class=""></path><path d="m23.558 90.713h55.335v2h-55.335z" fill="#663366" data-original="#663366" class=""></path><path d="m49.669 104.586h29.223v2h-29.223z" fill="#663366" data-original="#663366" class=""></path><path d="m23.558 104.586h16.331v2h-16.331z" fill="#663366" data-original="#663366" class=""></path><path d="m23.558 61.91h55.335v2h-55.335z" fill="#663366" data-original="#663366" class=""></path><path d="m23.558 48.038h33.589v2h-33.589z" fill="#663366" data-original="#663366" class=""></path></g><path xmlns="http://www.w3.org/2000/svg" d="m23.141 13.023h17.767v22.159h-17.767z" fill="#00ffff" data-original="#00ffff" class=""></path></g></svg>