<svg xmlns="http://www.w3.org/2000/svg" version="1.1" xmlns:xlink="http://www.w3.org/1999/xlink" xmlns:svgjs="http://svgjs.com/svgjs" width="512" height="512" x="0" y="0" viewBox="0 0 511.999 511.999" style="enable-background:new 0 0 512 512" xml:space="preserve" class=""><g> <path xmlns="http://www.w3.org/2000/svg" style="" d="M363.429,406.115c0.012,2.622-0.074,5.208-0.27,7.781c-4.007,53.795-52.079,94.466-106.72,88.314  l-126.608-14.276c-57.226-6.446-96.022-61.38-82.935-117.466L83.475,213.74l2.218-9.485c6.102-26.174,19.239-49.053,37.044-66.956  c-0.355,4.007-0.527,8.039-0.527,12.107c0,8.271,0.735,16.653,2.255,25.047l30.353,167.953  c10.244,56.675,67.642,91.709,122.736,74.921l85.802-26.15L363.429,406.115z" fill="#f95428" data-original="#f95428"></path> <path xmlns="http://www.w3.org/2000/svg" style="" d="M122.741,137.3c-0.355,4.007-0.527,8.039-0.527,12.107c0,8.271,0.735,16.653,2.255,25.047  l30.353,167.953c10.244,56.675,67.642,91.709,122.736,74.921l85.802-26.15l36.076-11.004  c55.094-16.788,83.192-77.886,60.081-130.639L391.029,93.21C362.478,28.043,289.677-5.434,221.618,15.312  C165.74,32.332,127.594,81.508,122.741,137.3z M209.377,96.433c-4.252-18.038,6.188-36.529,24.177-41.994  c18.724-5.71,38.539,4.84,44.237,23.564c2.965,9.742,1.544,19.766-3.149,27.951c-4.313,7.561-11.421,13.553-20.415,16.298  c-18.736,5.71-38.539-4.84-44.249-23.577C209.744,97.928,209.548,97.18,209.377,96.433z" fill="#f7b239" data-original="#f7b239" class=""></path> <path xmlns="http://www.w3.org/2000/svg" style="" d="M363.355,391.177l-85.802,26.15c-55.094,16.788-112.491-18.246-122.736-74.921l-30.353-167.953  c-1.519-8.394-2.255-16.776-2.255-25.047c0-4.068,0.172-8.1,0.527-12.107c-17.805,17.903-30.941,40.781-37.044,66.956l-2.218,9.485  l29.679,164.203c10.244,56.675,67.642,91.709,122.736,74.921l85.802-26.15l36.076-11.004c1.826-0.551,3.627-1.164,5.392-1.814  c0.196-2.573,0.282-5.159,0.27-7.781L363.355,391.177z" fill="#e54728" data-original="#e54728"></path> <path xmlns="http://www.w3.org/2000/svg" style="" d="M222.182,95.845c-4.313,0-8.578,0.184-12.805,0.588c0.172,0.747,0.368,1.495,0.6,2.242  c5.71,18.736,25.513,29.287,44.249,23.577c8.994-2.745,16.102-8.737,20.415-16.298c-11.494-4.62-23.785-7.769-36.627-9.227  C232.696,96.126,227.402,95.845,222.182,95.845z" fill="#f95428" data-original="#f95428"></path> <g xmlns="http://www.w3.org/2000/svg"> <path style="" d="M430.965,324.734c-1.284,0-2.591-0.271-3.834-0.843c-4.611-2.121-6.631-7.579-4.509-12.19   c6.821-14.83,6.969-31.232,0.418-46.184l-68.486-156.324c-5.503-12.562-13.362-23.676-23.356-33.034   c-3.704-3.469-3.896-9.285-0.426-12.99c3.47-3.704,9.286-3.897,12.99-0.426c11.824,11.071,21.12,24.219,27.628,39.075   l68.486,156.324c8.687,19.827,8.49,41.576-0.554,61.242C437.772,322.749,434.443,324.734,430.965,324.734z" fill="#ffffff" data-original="#ffffff"></path> <circle style="" cx="315.981" cy="53.74" r="9.19" fill="#ffffff" data-original="#ffffff"></circle> </g> <g xmlns="http://www.w3.org/2000/svg"> <path style="" d="M283.294,109.336c5.607-10.524,6.78-22.601,3.304-34.006c-7.177-23.545-32.173-36.861-55.716-29.686   c-11.406,3.476-20.775,11.187-26.383,21.71c-5.607,10.524-6.78,22.601-3.304,34.007c5.86,19.224,23.597,31.63,42.726,31.63   c4.3,0,8.67-0.626,12.99-1.943C268.317,127.57,277.686,119.86,283.294,109.336z M223.612,105.042   c4.469,0.049,8.969,0.321,13.37,0.822c7.335,0.827,14.553,2.261,21.582,4.275c-2.132,1.43-4.486,2.554-7.012,3.323   c-6.71,2.046-13.814,1.355-20.005-1.943C228.455,109.872,225.774,107.67,223.612,105.042z M269.458,94.282   c-9.831-3.262-20.021-5.511-30.408-6.682c-7.029-0.799-14.269-1.08-21.349-0.87c0.227-3.707,1.221-7.357,3.019-10.733   c3.298-6.191,8.809-10.726,15.52-12.771c2.541-0.774,5.114-1.143,7.642-1.143c11.254,0,21.686,7.297,25.133,18.606   C270.383,85.175,270.5,89.834,269.458,94.282z" fill="#333333" data-original="#333333" class=""></path> <path style="" d="M54.494,453.104c17.345,24.572,44.435,40.596,74.324,43.962l126.609,14.271   c3.931,0.442,7.863,0.662,11.779,0.662c25.856,0,51.016-9.53,70.447-26.98c22.377-20.095,35.128-48.869,34.983-78.945l-0.039-8.106   l29.528-9.001c28.766-8.768,52.47-29.466,65.034-56.789c12.564-27.323,12.849-58.791,0.782-86.337L399.454,89.517   C369.045,20.103,291.45-15.578,218.956,6.516c-58.421,17.806-98.654,68.612-105.02,126.697   c-18.28,19.222-31.119,42.982-37.18,68.951L37.962,368.376C31.128,397.656,37.153,428.539,54.494,453.104z M396.768,371.387   L274.89,408.535c-23.748,7.238-49.526,3.97-70.716-8.965c-21.192-12.937-35.878-34.37-40.295-58.803l-30.351-167.95   c-11.82-65.406,27.211-129.339,90.787-148.718c12.682-3.865,25.546-5.715,38.219-5.715c50.865,0,98.734,29.775,120.085,78.51   l68.489,156.327c9.964,22.742,9.728,48.723-0.645,71.28C440.088,347.059,420.517,364.149,396.768,371.387z M55.86,372.554   l38.794-166.213c3.653-15.65,10.119-30.378,18.996-43.535c0.398,4.414,0.988,8.842,1.789,13.277l30.351,167.95   c5.348,29.593,23.137,55.553,48.805,71.224c16.7,10.194,35.751,15.431,54.947,15.433c10.307,0,20.655-1.51,30.706-4.573   l73.994-22.553l0.012,2.6c0.12,24.831-10.407,48.589-28.883,65.18c-18.472,16.588-43.214,24.505-67.886,21.729l-126.609-14.271   c-24.678-2.78-47.045-16.01-61.367-36.299C55.195,422.223,50.22,396.727,55.86,372.554z" fill="#333333" data-original="#333333" class=""></path> <path style="" d="M350.443,201.291l-121.878,37.148c-0.893,0.272-1.795,0.402-2.682,0.402   c-3.937,0-7.58-2.551-8.789-6.513c-1.48-4.855,1.256-9.991,6.112-11.471l121.878-37.148c4.854-1.482,9.991,1.256,11.471,6.112   C358.034,194.675,355.298,199.811,350.443,201.291z" fill="#333333" data-original="#333333" class=""></path> <path style="" d="M238.828,280.577c-3.937,0-7.58-2.551-8.789-6.513c-1.48-4.855,1.256-9.991,6.112-11.471   l121.878-37.148c4.854-1.482,9.991,1.257,11.471,6.112c1.48,4.855-1.256,9.991-6.112,11.471L241.51,280.176   C240.617,280.448,239.715,280.577,238.828,280.577z" fill="#333333" data-original="#333333" class=""></path> </g> <g xmlns="http://www.w3.org/2000/svg"> </g> <g xmlns="http://www.w3.org/2000/svg"> </g> <g xmlns="http://www.w3.org/2000/svg"> </g> <g xmlns="http://www.w3.org/2000/svg"> </g> <g xmlns="http://www.w3.org/2000/svg"> </g> <g xmlns="http://www.w3.org/2000/svg"> </g> <g xmlns="http://www.w3.org/2000/svg"> </g> <g xmlns="http://www.w3.org/2000/svg"> </g> <g xmlns="http://www.w3.org/2000/svg"> </g> <g xmlns="http://www.w3.org/2000/svg"> </g> <g xmlns="http://www.w3.org/2000/svg"> </g> <g xmlns="http://www.w3.org/2000/svg"> </g> <g xmlns="http://www.w3.org/2000/svg"> </g> <g xmlns="http://www.w3.org/2000/svg"> </g> <g xmlns="http://www.w3.org/2000/svg"> </g> </g></svg>