<svg xmlns="http://www.w3.org/2000/svg" version="1.1" xmlns:xlink="http://www.w3.org/1999/xlink" xmlns:svgjs="http://svgjs.com/svgjs" width="512" height="512" x="0" y="0" viewBox="0 0 512 512" style="enable-background:new 0 0 512 512" xml:space="preserve" class=""><g><g xmlns="http://www.w3.org/2000/svg"><g><path d="m7.5 118.618h497v339.415h-497z" fill="#e6f7fe" data-original="#e6f7fe" class=""></path></g><g><path d="m294.386 268.122h274.764v40.407h-274.764z" fill="#91dafa" transform="matrix(0 1 -1 0 720.093 -143.443)" data-original="#91dafa"></path></g><g><path d="m238.827 293.376h224.256v40.407h-224.256z" fill="#f8e883" transform="matrix(0 1 -1 0 664.535 -37.376)" data-original="#f8e883"></path></g><g><path d="m193.37 328.732h153.545v40.407h-153.545z" fill="#b7e546" transform="matrix(0 1 -1 0 619.077 78.793)" data-original="#b7e546"></path></g><g><path d="m137.811 353.986h103.037v40.407h-103.037z" fill="#e175a5" transform="matrix(0 1 -1 0 563.518 184.86)" data-original="#e175a5"></path></g><g><path d="m478.236 118.618h26.264v339.415h-26.264z" fill="#d3effd" data-original="#d3effd"></path></g><g><path d="m7.5 53.967h497v64.65h-497z" fill="#62a4fb" data-original="#62a4fb"></path></g><g><path d="m478.236 53.967h26.264v64.65h-26.264z" fill="#5392f9" data-original="#5392f9"></path></g><g><g><circle cx="107.859" cy="218.977" fill="#e175a5" r="68.034" data-original="#e175a5"></circle></g><g><g><path d="m84.672 245.781v-53.339c0-4.094 4.398-6.682 7.977-4.694l48.005 26.67c3.682 2.046 3.682 7.341 0 9.387l-48.005 26.67c-3.579 1.988-7.977-.6-7.977-4.694z" fill="#f5fcff" data-original="#f5fcff"></path></g></g></g><g><path d="m116.598 321.231h-56.57c-4.142 0-7.5 3.357-7.5 7.5s3.358 7.5 7.5 7.5h56.569c4.142 0 7.5-3.357 7.5-7.5s-3.357-7.5-7.499-7.5z" fill="#000000" data-original="#000000" class=""></path><path d="m116.598 353.557h-76.773c-4.142 0-7.5 3.357-7.5 7.5s3.358 7.5 7.5 7.5h76.772c4.142 0 7.5-3.357 7.5-7.5s-3.357-7.5-7.499-7.5z" fill="#000000" data-original="#000000" class=""></path><path d="m124.098 393.382c0-4.143-3.358-7.5-7.5-7.5h-76.773c-4.142 0-7.5 3.357-7.5 7.5s3.358 7.5 7.5 7.5h76.772c4.143 0 7.501-3.358 7.501-7.5z" fill="#000000" data-original="#000000" class=""></path><path d="m39.825 418.207c-4.142 0-7.5 3.357-7.5 7.5s3.358 7.5 7.5 7.5h56.569c4.142 0 7.5-3.357 7.5-7.5s-3.358-7.5-7.5-7.5z" fill="#000000" data-original="#000000" class=""></path><path d="m209.533 315.171h-40.407c-4.142 0-7.5 3.357-7.5 7.5v95.536h-12.703c-4.142 0-7.5 3.357-7.5 7.5s3.358 7.5 7.5 7.5h323.252c4.143 0 7.5-3.357 7.5-7.5s-3.357-7.5-7.5-7.5h-12.703v-267.264c0-4.143-3.357-7.5-7.5-7.5h-40.406c-4.143 0-7.5 3.357-7.5 7.5v267.264h-25.407v-216.756c0-4.143-3.357-7.5-7.5-7.5h-40.406c-4.143 0-7.5 3.357-7.5 7.5v216.756h-25.406v-146.044c0-4.143-3.357-7.5-7.5-7.5h-40.407c-4.142 0-7.5 3.357-7.5 7.5v146.044h-25.406v-95.536c-.001-4.143-3.359-7.5-7.501-7.5zm-32.907 103.036v-88.036h25.407v88.036zm242.439-259.764h25.406v259.764h-25.406zm-80.813 50.508h25.406v209.256h-25.406zm-80.814 70.712h25.407v138.544h-25.407z" fill="#000000" data-original="#000000" class=""></path><path d="m405 450.53h-390v-324.41h57.15c4.142 0 7.5-3.357 7.5-7.5s-3.358-7.5-7.5-7.5h-57.15v-49.65h390.634c4.143 0 7.5-3.357 7.5-7.5s-3.357-7.5-7.5-7.5h-398.134c-4.142 0-7.5 3.357-7.5 7.5v404.06c0 4.143 3.358 7.5 7.5 7.5h397.5c4.143 0 7.5-3.357 7.5-7.5s-3.357-7.5-7.5-7.5z" fill="#000000" data-original="#000000" class=""></path><path d="m504.5 46.47h-63.866c-4.143 0-7.5 3.357-7.5 7.5s3.357 7.5 7.5 7.5h56.366v49.65h-389.85c-4.142 0-7.5 3.357-7.5 7.5s3.358 7.5 7.5 7.5h389.85v324.41h-57c-4.143 0-7.5 3.357-7.5 7.5s3.357 7.5 7.5 7.5h64.5c4.143 0 7.5-3.357 7.5-7.5v-404.06c0-4.143-3.357-7.5-7.5-7.5z" fill="#000000" data-original="#000000" class=""></path><circle cx="462.203" cy="86.293" r="8.081" fill="#000000" data-original="#000000" class=""></circle><circle cx="429.877" cy="86.293" r="8.081" fill="#000000" data-original="#000000" class=""></circle><circle cx="397.552" cy="86.293" r="8.081" fill="#000000" data-original="#000000" class=""></circle><path d="m107.859 143.443c-41.649 0-75.534 33.884-75.534 75.533s33.884 75.534 75.534 75.534 75.534-33.885 75.534-75.534-33.884-75.533-75.534-75.533zm0 136.068c-33.378 0-60.534-27.155-60.534-60.534 0-33.378 27.155-60.533 60.534-60.533s60.534 27.155 60.534 60.533-27.155 60.534-60.534 60.534z" fill="#000000" data-original="#000000" class=""></path><path d="m144.297 207.861-48.005-26.669c-4.028-2.238-8.804-2.181-12.776.157-3.972 2.337-6.343 6.483-6.343 11.092v53.34c0 4.608 2.371 8.755 6.343 11.092 2.033 1.196 4.276 1.795 6.522 1.795 2.142 0 4.287-.545 6.253-1.637l48.005-26.671c4.083-2.269 6.62-6.579 6.619-11.251.001-4.671-2.536-8.98-6.618-11.248zm-52.125 34.298v-46.096l41.487 23.048z" fill="#000000" data-original="#000000" class=""></path></g></g></g></svg>