<svg xmlns="http://www.w3.org/2000/svg" version="1.1" xmlns:xlink="http://www.w3.org/1999/xlink" xmlns:svgjs="http://svgjs.com/svgjs" width="512" height="512" x="0" y="0" viewBox="0 0 512 512.01543" style="enable-background:new 0 0 512 512" xml:space="preserve" class=""><g><path xmlns="http://www.w3.org/2000/svg" d="m505.375 357.222656c-.960938-2.816406-3.050781-5.101562-5.761719-6.316406-2.710937-1.238281-5.78125-1.238281-8.511719-.085938-5.035156 2.070313-10.6875.449219-13.292968-4.136718-2.644532-4.566406-1.320313-10.285156 3.074218-13.613282 2.367188-1.789062 3.902344-4.480468 4.179688-7.445312.320312-2.964844-.617188-5.886719-2.582031-8.125-17.382813-19.777344-39.804688-32.875-64.808594-37.847656-2.964844-.597656-5.996094.085937-8.425781 1.878906-2.410156 1.769531-3.96875 4.480469-4.269532 7.488281-.574218 5.503907-5.011718 9.664063-10.300781 9.664063-5.292969 0-9.730469-4.160156-10.304687-9.664063-.320313-3.007812-1.855469-5.71875-4.265625-7.488281-2.433594-1.792969-5.503907-2.519531-8.429688-1.878906-25 4.972656-47.421875 18.089844-64.808593 37.847656-1.964844 2.214844-2.902344 5.160156-2.582032 8.125.296875 2.964844 1.8125 5.65625 4.179688 7.445312 4.394531 3.308594 5.71875 9.046876 3.09375 13.613282-2.644532 4.542968-8.296875 6.207031-13.3125 4.136718-2.730469-1.152343-5.824219-1.152343-8.511719.085938-2.707031 1.214844-4.796875 3.5-5.757813 6.316406-4.460937 13.140625-6.636718 25.40625-6.636718 37.460938 0 12.050781 2.175781 24.320312 6.636718 37.460937.960938 2.816407 3.050782 5.097657 5.757813 6.3125 2.6875 1.21875 5.78125 1.238281 8.511719.085938 5.015625-2.113281 10.691406-.449219 13.292968 4.140625 2.644532 4.5625 1.320313 10.28125-3.074218 13.609375-2.367188 1.792969-3.902344 4.480469-4.179688 7.445312-.320312 2.964844.617188 5.886719 2.582032 8.128907 17.386718 19.773437 39.808593 32.875 64.808593 37.84375 2.964844.621093 5.996094-.085938 8.429688-1.875 2.410156-1.773438 3.964843-4.480469 4.265625-7.488282.574218-5.503906 5.011718-9.664062 10.304687-9.664062 5.289063 0 9.726563 4.160156 10.300781 9.664062.320313 3.007813 1.859376 5.714844 4.269532 7.488282 1.855468 1.363281 4.074218 2.089843 6.335937 2.089843.683594 0 1.386719-.066406 2.089844-.214843 25.003906-4.96875 47.425781-18.089844 64.808594-37.84375 1.964843-2.21875 2.902343-5.164063 2.582031-8.128907-.296875-2.964843-1.8125-5.652343-4.179688-7.445312-4.394531-3.308594-5.695312-9.046875-3.09375-13.609375 2.644532-4.546875 8.277344-6.253906 13.3125-4.140625 2.730469 1.152343 5.800782 1.132812 8.511719-.085938 2.710938-1.214843 4.800781-3.496093 5.761719-6.3125 4.457031-13.140625 6.632812-25.410156 6.632812-37.460937 0-12.054688-2.175781-24.320313-6.632812-37.460938zm-110.699219 90.792969c-29.421875 0-53.335937-23.914063-53.335937-53.332031 0-29.421875 23.914062-53.335938 53.335937-53.335938 29.417969 0 53.332031 23.914063 53.332031 53.335938 0 29.417968-23.914062 53.332031-53.332031 53.332031zm0 0" fill="#4caf50" data-original="#4caf50"></path><path xmlns="http://www.w3.org/2000/svg" d="m458.675781 10.683594h-135.253906c-22.613281 0-44.375 8.957031-60.375 24.957031l-237.226563 237.226563c-9.8125 9.816406-15.144531 22.828124-15.144531 36.480468 0 13.65625 5.332031 26.667969 15.144531 36.480469l140.375 140.375c9.8125 9.8125 22.824219 15.144531 36.480469 15.144531 13.652344 0 26.664063-5.332031 36.480469-15.144531l31.144531-31.148437c-9.171875-18.347657-14.292969-38.824219-14.292969-60.371094 0-76.375 62.292969-138.667969 138.667969-138.667969 21.546875 0 42.023438 5.121094 60.371094 14.292969l21.335937-21.332032c16-16 24.957032-37.761718 24.957032-60.375v-135.253906c0-23.464844-19.199219-42.664062-42.664063-42.664062zm-64 160c-29.441406 0-53.335937-23.894532-53.335937-53.335938 0-29.4375 23.894531-53.332031 53.335937-53.332031 29.4375 0 53.332031 23.894531 53.332031 53.332031 0 29.441406-23.894531 53.335938-53.332031 53.335938zm0 0" fill="#ffc107" data-original="#ffc107"></path><path xmlns="http://www.w3.org/2000/svg" d="m167.878906 402.085938c-6.699218 0-12.925781-1.984376-17.898437-6.058594-4.542969-3.757813-5.183594-10.476563-1.429688-15.019532 3.796875-4.566406 10.519531-5.183593 15.019531-1.429687 3.328126 2.730469 13.441407 1.128906 22.398438-7.785156 9.089844-9.109375 10.5625-19.671875 7.554688-22.679688-1.855469-1.855469-7.253907-3.328125-22.65625 7.722657l-2.582032 1.855468c-21.546875 15.46875-38.398437 17.300782-50.199218 5.503906-5.03125-5.011718-7.699219-11.839843-7.699219-19.667968 0-11.371094 5.566406-23.464844 15.253906-33.152344 16.042969-16.0625 37.972656-19.96875 51.070313-9.195312 4.542968 3.753906 5.183593 10.476562 1.429687 15.019531-3.777344 4.566406-10.496094 5.183593-15.019531 1.429687-3.347656-2.773437-13.460938-1.152344-22.398438 7.808594-6.65625 6.65625-9.003906 13.675781-9.003906 18.046875 0 1.429687.257812 3.390625 1.453125 4.609375 1.855469 1.832031 7.210937 3.328125 22.65625-7.746094l2.578125-1.832031c21.484375-15.488281 38.378906-17.324219 50.199219-5.503906 12.691406 12.691406 9.363281 35.882812-7.550781 52.820312-9.964844 9.960938-22.1875 15.253907-33.175782 15.253907zm0 0" fill="#000000" data-original="#000000" class=""></path><path xmlns="http://www.w3.org/2000/svg" d="m246.324219 337.167969c-2.839844 0-5.546875-1.132813-7.554688-3.113281l-60.328125-60.355469c-4.160156-4.160157-4.160156-10.921875 0-15.082031l37.714844-37.714844c4.160156-4.160156 10.921875-4.160156 15.082031 0 4.160157 4.160156 4.160157 10.921875 0 15.082031l-30.164062 30.164063 45.25 45.269531 30.164062-30.1875c4.160157-4.160157 10.921875-4.160157 15.082031 0 4.160157 4.160156 4.160157 10.921875 0 15.082031l-37.71875 37.742188c-1.984374 1.980468-4.691406 3.113281-7.527343 3.113281zm0 0" fill="#000000" data-original="#000000" class=""></path><path xmlns="http://www.w3.org/2000/svg" d="m216.15625 306.980469c-2.730469 0-5.460938-1.046875-7.550781-3.113281-4.160157-4.160157-4.160157-10.921876 0-15.082032l30.164062-30.167968c4.160157-4.160157 10.921875-4.160157 15.082031 0 4.160157 4.160156 4.160157 10.921874 0 15.082031l-30.164062 30.167969c-2.070312 2.066406-4.800781 3.113281-7.53125 3.113281zm0 0" fill="#000000" data-original="#000000" class=""></path><path xmlns="http://www.w3.org/2000/svg" d="m306.652344 263.566406c-11.390625 0-22.101563-4.4375-30.164063-12.5l-15.082031-15.082031c-16.621094-16.621094-16.621094-43.714844 0-60.332031 16.148438-16.148438 44.265625-16.128906 60.328125 0l15.085937 15.082031c16.617188 16.621094 16.617188 43.714844 0 60.332031-8.042968 8.0625-18.753906 12.5-30.167968 12.5zm-15.082032-79.101562c-5.695312 0-11.050781 2.21875-15.082031 6.25-8.320312 8.320312-8.320312 21.84375 0 30.164062l15.082031 15.082032c8.105469 8.066406 22.144532 8.066406 30.164063 0 8.320313-8.320313 8.320313-21.84375 0-30.164063l-15.082031-15.082031c-4.011719-4.03125-9.363282-6.25-15.082032-6.25zm0 0" fill="#000000" data-original="#000000" class=""></path><path xmlns="http://www.w3.org/2000/svg" d="m202.71875 512.015625c-16.429688 0-32.429688-6.636719-43.992188-18.199219l-140.523437-140.519531c-11.5625-11.5625-18.1953125-27.5625-18.1953125-43.90625 0-16.425781 6.6328125-32.425781 18.1953125-43.988281l237.269531-237.269532c18.113282-18.132812 42.242188-28.117187 67.882813-28.117187h135.320312c29.417969 0 53.332031 23.914063 53.332031 53.332031v135.320313c0 25.640625-9.984374 49.769531-28.117187 67.902343l-13.097656 13.097657c-4.160157 4.160156-10.925781 4.160156-15.082031 0-4.160157-4.160157-4.160157-10.921875 0-15.082031l13.097656-13.097657c14.101562-14.125 21.867187-32.875 21.867187-52.820312v-135.320313c0-17.640625-14.359375-32-32-32h-135.320312c-19.964844 0-38.695313 7.765625-52.820313 21.867188l-237.246094 237.269531c-7.597656 7.59375-11.949218 18.089844-11.949218 28.820313 0 10.816406 4.351562 21.3125 11.949218 28.886718l140.542969 140.542969c15.230469 15.234375 42.601563 15.105469 57.707031 0l23.039063-23.039063c4.160156-4.160156 10.921875-4.160156 15.082031 0 4.160156 4.160157 4.160156 10.921876 0 15.082032l-23.039062 23.039062c-11.5625 11.5625-27.5625 18.199219-43.902344 18.199219zm191.957031-341.332031c-29.421875 0-53.335937-23.917969-53.335937-53.335938 0-29.417968 23.914062-53.332031 53.335937-53.332031 29.417969 0 53.332031 23.914063 53.332031 53.332031 0 29.417969-23.914062 53.335938-53.332031 53.335938zm0-85.335938c-17.644531 0-32 14.359375-32 32 0 17.644532 14.355469 32 32 32 17.640625 0 32-14.355468 32-32 0-17.640625-14.359375-32-32-32zm0 0" fill="#000000" data-original="#000000" class=""></path><path xmlns="http://www.w3.org/2000/svg" d="m415.582031 509.902344c-2.242187 0-4.480469-.703125-6.335937-2.089844-2.410156-1.769531-3.96875-4.480469-4.269532-7.488281-.574218-5.480469-5.011718-9.640625-10.300781-9.640625-5.292969 0-9.730469 4.160156-10.304687 9.664062-.320313 3.007813-1.855469 5.714844-4.265625 7.488282-2.414063 1.789062-5.464844 2.496093-8.429688 1.875-25-4.96875-47.421875-18.089844-64.808593-37.84375-1.964844-2.21875-2.902344-5.164063-2.582032-8.128907.296875-2.964843 1.8125-5.652343 4.179688-7.445312 4.394531-3.308594 5.71875-9.046875 3.074218-13.609375-2.601562-4.589844-8.277343-6.253906-13.292968-4.140625-2.730469 1.152343-5.824219 1.132812-8.511719-.085938-2.707031-1.214843-4.796875-3.496093-5.757813-6.3125-4.460937-13.140625-6.636718-25.410156-6.636718-37.460937 0-12.054688 2.175781-24.320313 6.636718-37.460938.960938-2.816406 3.050782-5.101562 5.757813-6.316406 2.6875-1.238281 5.78125-1.238281 8.511719-.085938 5.015625 2.070313 10.667968.40625 13.3125-4.136718 2.625-4.566406 1.324218-10.285156-3.09375-13.613282-2.367188-1.789062-3.902344-4.480468-4.179688-7.445312-.320312-2.964844.617188-5.886719 2.582032-8.125 17.386718-19.777344 39.808593-32.875 64.808593-37.847656 2.925781-.640625 5.972657.085937 8.429688 1.878906 2.410156 1.769531 3.964843 4.480469 4.265625 7.488281.574218 5.503907 5.011718 9.664063 10.304687 9.664063 5.289063 0 9.726563-4.160156 10.300781-9.664063.320313-3.007812 1.859376-5.71875 4.269532-7.488281 2.410156-1.792969 5.460937-2.476562 8.425781-1.878906 25.003906 4.972656 47.425781 18.089844 64.808594 37.847656 1.964843 2.214844 2.902343 5.160156 2.582031 8.125-.296875 2.964844-1.8125 5.65625-4.179688 7.445312-4.394531 3.308594-5.71875 9.046876-3.074218 13.613282 2.605468 4.585937 8.257812 6.207031 13.292968 4.136718 2.730469-1.152343 5.800782-1.152343 8.511719.085938 2.710938 1.214844 4.800781 3.5 5.761719 6.316406 4.457031 13.140625 6.632812 25.40625 6.632812 37.460938 0 12.050781-2.175781 24.320312-6.632812 37.460937-.960938 2.816407-3.050781 5.097657-5.761719 6.3125-2.710937 1.21875-5.78125 1.238281-8.511719.085938-5.035156-2.113281-10.667968-.40625-13.3125 4.140625-2.601562 4.5625-1.324218 10.28125 3.09375 13.609375 2.367188 1.792969 3.902344 4.480469 4.179688 7.445312.320312 2.964844-.617188 5.886719-2.582031 8.128907-17.382813 19.773437-39.804688 32.875-64.808594 37.84375-.683594.128906-1.386719.191406-2.089844.191406zm-20.90625-40.554688c12.074219 0 22.675781 6.847656 28.007813 17.109375 13.824218-4.246093 26.476562-11.710937 37.292968-21.949219-6.015624-9.730468-6.59375-22.1875-.664062-32.472656h.023438c5.953124-10.28125 17.023437-16.210937 28.5-15.65625 1.898437-7.574218 2.839843-14.722656 2.839843-21.695312 0-6.976563-.941406-14.125-2.839843-21.675782-11.5625.726563-22.546876-5.375-28.5-15.660156-5.929688-10.261718-5.375-22.738281.640624-32.46875-10.816406-10.238281-23.46875-17.707031-37.292968-21.953125-5.332032 10.242188-15.933594 17.089844-28.007813 17.089844s-22.679687-6.847656-28.011719-17.109375c-13.824218 4.246094-26.476562 11.710938-37.289062 21.953125 6.015625 9.726563 6.589844 22.183594.660156 32.46875-5.972656 10.28125-17.195312 16.46875-28.523437 15.65625-1.898438 7.574219-2.835938 14.722656-2.835938 21.699219 0 6.972656.9375 14.121094 2.835938 21.671875 11.242187-.617188 22.550781 5.355469 28.5 15.660156 5.933593 10.261719 5.378906 22.742187-.636719 32.46875 10.8125 10.242187 23.464844 17.707031 37.289062 21.953125 5.332032-10.242188 15.9375-17.089844 28.011719-17.089844zm0 0" fill="#000000" data-original="#000000" class=""></path><path xmlns="http://www.w3.org/2000/svg" d="m394.675781 448.015625c-29.421875 0-53.335937-23.914063-53.335937-53.332031 0-29.421875 23.914062-53.335938 53.335937-53.335938 29.417969 0 53.332031 23.914063 53.332031 53.335938 0 29.417968-23.914062 53.332031-53.332031 53.332031zm0-85.332031c-17.644531 0-32 14.355468-32 32 0 17.640625 14.355469 32 32 32 17.640625 0 32-14.359375 32-32 0-17.644532-14.359375-32-32-32zm0 0" fill="#000000" data-original="#000000" class=""></path></g></svg>