<svg xmlns="http://www.w3.org/2000/svg" version="1.1" xmlns:xlink="http://www.w3.org/1999/xlink" xmlns:svgjs="http://svgjs.com/svgjs" width="512" height="512" x="0" y="0" viewBox="0 0 512 512" style="enable-background:new 0 0 512 512" xml:space="preserve" class=""><g> <path xmlns="http://www.w3.org/2000/svg" style="" d="M486.093,458.481H25.907c-10.166,0-18.407-8.241-18.407-18.407V71.926  c0-10.166,8.241-18.407,18.407-18.407h460.185c10.166,0,18.407,8.241,18.407,18.407v368.148  C504.5,450.24,496.259,458.481,486.093,458.481z" fill="#d5dced" data-original="#d5dced" class=""></path> <path xmlns="http://www.w3.org/2000/svg" style="" d="M486.093,458.481H25.907c-10.166,0-18.407-8.241-18.407-18.407V127.148h497v312.926  C504.5,450.24,496.259,458.481,486.093,458.481z" fill="#ffffff" data-original="#ffffff" class=""></path> <rect xmlns="http://www.w3.org/2000/svg" x="53.52" y="173.17" style="" width="248.5" height="165.67" fill="#ff507d" data-original="#ff507d" class=""></rect> <rect xmlns="http://www.w3.org/2000/svg" x="338.83" y="173.17" style="" width="119.65" height="239.3" fill="#e4eaf8" data-original="#e4eaf8"></rect> <path xmlns="http://www.w3.org/2000/svg" style="" d="M145.556,226.424v55.899c0,8.287,9.168,13.292,16.139,8.811l43.477-27.95  c6.414-4.123,6.414-13.499,0-17.622l-43.477-27.949C154.723,213.132,145.556,218.137,145.556,226.424z" fill="#ffffff" data-original="#ffffff" class=""></path> <path xmlns="http://www.w3.org/2000/svg" d="M486.093,46.019H25.907C11.622,46.019,0,57.641,0,71.926v368.148c0,14.285,11.622,25.907,25.907,25.907h460.186  c14.285,0,25.907-11.622,25.907-25.907V71.926C512,57.641,500.378,46.019,486.093,46.019z M497,440.074  c0,6.015-4.893,10.907-10.907,10.907H25.907c-6.014,0-10.907-4.893-10.907-10.907V71.926c0-6.015,4.893-10.907,10.907-10.907  h460.186c6.014,0,10.907,4.893,10.907,10.907L497,440.074L497,440.074z" fill="#000000" data-original="#000000" class=""></path> <path xmlns="http://www.w3.org/2000/svg" d="M44.407,97.833c4.142,0,7.5-3.357,7.5-7.5s-3.358-7.5-7.5-7.5h-0.092c-4.142,0-7.454,3.357-7.454,7.5  S40.265,97.833,44.407,97.833z" fill="#000000" data-original="#000000" class=""></path> <path xmlns="http://www.w3.org/2000/svg" d="M72.018,97.833c4.142,0,7.5-3.357,7.5-7.5s-3.358-7.5-7.5-7.5h-0.092c-4.142,0-7.454,3.357-7.454,7.5  S67.876,97.833,72.018,97.833z" fill="#000000" data-original="#000000" class=""></path> <path xmlns="http://www.w3.org/2000/svg" d="M99.629,97.833c4.142,0,7.5-3.357,7.5-7.5s-3.358-7.5-7.5-7.5h-0.092c-4.142,0-7.454,3.357-7.454,7.5  S95.487,97.833,99.629,97.833z" fill="#000000" data-original="#000000" class=""></path> <path xmlns="http://www.w3.org/2000/svg" d="M467.685,119.648H44.315c-4.142,0-7.5,3.357-7.5,7.5c0,4.143,3.358,7.5,7.5,7.5h423.37c4.142,0,7.5-3.357,7.5-7.5  C475.185,123.005,471.827,119.648,467.685,119.648z" fill="#000000" data-original="#000000" class=""></path> <path xmlns="http://www.w3.org/2000/svg" d="M136.352,97.833h276.111c4.142,0,7.5-3.357,7.5-7.5s-3.358-7.5-7.5-7.5H136.352c-4.142,0-7.5,3.357-7.5,7.5  S132.21,97.833,136.352,97.833z" fill="#000000" data-original="#000000" class=""></path> <path xmlns="http://www.w3.org/2000/svg" d="M467.685,82.833h-18.407c-4.142,0-7.5,3.357-7.5,7.5s3.358,7.5,7.5,7.5h18.407c4.142,0,7.5-3.357,7.5-7.5  S471.827,82.833,467.685,82.833z" fill="#000000" data-original="#000000" class=""></path> <path xmlns="http://www.w3.org/2000/svg" d="M302.019,165.667h-18.407c-4.142,0-7.5,3.357-7.5,7.5s3.358,7.5,7.5,7.5h10.907v150.666h-233.5V180.667h185.778  c4.142,0,7.5-3.357,7.5-7.5s-3.358-7.5-7.5-7.5H53.519c-4.142,0-7.5,3.357-7.5,7.5v165.666c0,4.143,3.358,7.5,7.5,7.5h248.5  c4.142,0,7.5-3.357,7.5-7.5V173.167C309.519,169.024,306.161,165.667,302.019,165.667z" fill="#000000" data-original="#000000" class=""></path> <path xmlns="http://www.w3.org/2000/svg" d="M53.519,383.148H81.13c4.142,0,7.5-3.357,7.5-7.5s-3.358-7.5-7.5-7.5H53.519c-4.142,0-7.5,3.357-7.5,7.5  S49.376,383.148,53.519,383.148z" fill="#000000" data-original="#000000" class=""></path> <path xmlns="http://www.w3.org/2000/svg" d="M265.204,368.148h-147.26c-4.142,0-7.5,3.357-7.5,7.5s3.358,7.5,7.5,7.5h147.259c4.142,0,7.5-3.357,7.5-7.5  S269.346,368.148,265.204,368.148z" fill="#000000" data-original="#000000" class=""></path> <path xmlns="http://www.w3.org/2000/svg" d="M154.759,404.963H53.519c-4.142,0-7.5,3.357-7.5,7.5s3.358,7.5,7.5,7.5H154.76c4.142,0,7.5-3.357,7.5-7.5  S158.901,404.963,154.759,404.963z" fill="#000000" data-original="#000000" class=""></path> <path xmlns="http://www.w3.org/2000/svg" d="M458.481,165.667H338.833c-4.142,0-7.5,3.357-7.5,7.5v239.296c0,4.143,3.358,7.5,7.5,7.5h119.648c4.142,0,7.5-3.357,7.5-7.5  V173.167C465.981,169.024,462.624,165.667,458.481,165.667z M450.981,404.963H346.333V180.667h104.648L450.981,404.963  L450.981,404.963z" fill="#000000" data-original="#000000" class=""></path> <path xmlns="http://www.w3.org/2000/svg" d="M375.648,217.481h46.019c4.142,0,7.5-3.357,7.5-7.5s-3.358-7.5-7.5-7.5h-46.019c-4.142,0-7.5,3.357-7.5,7.5  S371.506,217.481,375.648,217.481z" fill="#000000" data-original="#000000" class=""></path> <path xmlns="http://www.w3.org/2000/svg" d="M165.75,212.93c-5.535-3.557-12.56-3.809-18.333-0.655c-5.773,3.153-9.36,9.198-9.36,15.776v55.898  c0,6.579,3.587,12.624,9.362,15.777c2.691,1.47,5.655,2.199,8.613,2.199c3.387,0,6.766-0.957,9.72-2.856l43.477-27.95  c5.169-3.322,8.254-8.975,8.254-15.119c0-6.144-3.086-11.797-8.255-15.119L165.75,212.93z M201.116,258.502l-43.477,27.95  c-1.291,0.829-2.455,0.425-3.034,0.108c-0.579-0.315-1.549-1.075-1.549-2.611v-55.898c0-1.536,0.971-2.295,1.549-2.61  c0.325-0.178,0.833-0.383,1.445-0.383c0.479,0,1.022,0.126,1.589,0.49l43.477,27.95c1.189,0.765,1.366,1.896,1.366,2.502  C202.482,256.606,202.304,257.737,201.116,258.502z" fill="#000000" data-original="#000000" class=""></path> <path xmlns="http://www.w3.org/2000/svg" d="M375.648,254.296h18.408c4.142,0,7.5-3.357,7.5-7.5s-3.358-7.5-7.5-7.5h-18.408c-4.142,0-7.5,3.357-7.5,7.5  S371.506,254.296,375.648,254.296z" fill="#000000" data-original="#000000" class=""></path> <path xmlns="http://www.w3.org/2000/svg" d="M375.648,291.111h46.019c4.142,0,7.5-3.357,7.5-7.5s-3.358-7.5-7.5-7.5h-46.019c-4.142,0-7.5,3.357-7.5,7.5  S371.506,291.111,375.648,291.111z" fill="#000000" data-original="#000000" class=""></path> <path xmlns="http://www.w3.org/2000/svg" d="M375.648,327.926h18.408c4.142,0,7.5-3.357,7.5-7.5s-3.358-7.5-7.5-7.5h-18.408c-4.142,0-7.5,3.357-7.5,7.5  S371.506,327.926,375.648,327.926z" fill="#000000" data-original="#000000" class=""></path> <path xmlns="http://www.w3.org/2000/svg" d="M375.648,364.741h46.019c4.142,0,7.5-3.357,7.5-7.5s-3.358-7.5-7.5-7.5h-46.019c-4.142,0-7.5,3.357-7.5,7.5  S371.506,364.741,375.648,364.741z" fill="#000000" data-original="#000000" class=""></path> <g xmlns="http://www.w3.org/2000/svg"> </g> <g xmlns="http://www.w3.org/2000/svg"> </g> <g xmlns="http://www.w3.org/2000/svg"> </g> <g xmlns="http://www.w3.org/2000/svg"> </g> <g xmlns="http://www.w3.org/2000/svg"> </g> <g xmlns="http://www.w3.org/2000/svg"> </g> <g xmlns="http://www.w3.org/2000/svg"> </g> <g xmlns="http://www.w3.org/2000/svg"> </g> <g xmlns="http://www.w3.org/2000/svg"> </g> <g xmlns="http://www.w3.org/2000/svg"> </g> <g xmlns="http://www.w3.org/2000/svg"> </g> <g xmlns="http://www.w3.org/2000/svg"> </g> <g xmlns="http://www.w3.org/2000/svg"> </g> <g xmlns="http://www.w3.org/2000/svg"> </g> <g xmlns="http://www.w3.org/2000/svg"> </g> </g></svg>