<svg xmlns="http://www.w3.org/2000/svg" version="1.1" xmlns:xlink="http://www.w3.org/1999/xlink" xmlns:svgjs="http://svgjs.com/svgjs" width="512" height="512" x="0" y="0" viewBox="0 0 512 512" style="enable-background:new 0 0 512 512" xml:space="preserve" class=""><g><g xmlns="http://www.w3.org/2000/svg"><g><g><path d="m7.5 109.696v341.146c0 14.579 11.819 26.398 26.398 26.398h444.205c14.579 0 26.398-11.819 26.398-26.398v-341.146l-257.598-12.219z" fill="#f3f0f3" data-original="#f3f0f3" class=""></path></g><g><path d="m474.5 108.273v283.466c0 30.652-24.848 55.5-55.5 55.5h-411.5v3.602c0 14.579 11.819 26.398 26.398 26.398h444.205c14.579 0 26.398-11.819 26.398-26.398v-341.145z" fill="#e2dee2" data-original="#e2dee2"></path></g><g><path d="m76.137 169.826h359.726v141.497h-359.726z" fill="#d9b1ee" data-original="#d9b1ee" class=""></path></g><g><path d="m504.5 109.696v-34.936c0-22.091-17.908-40-40-40h-417c-22.091 0-40 17.909-40 40v34.936z" fill="#8ebac5" data-original="#8ebac5" class=""></path></g><g><path d="m464.5 34.76h-30c22.091 0 40 17.909 40 40v34.936h30v-34.936c0-22.091-17.909-40-40-40z" fill="#7ca1b1" data-original="#7ca1b1"></path></g><g><circle cx="76.137" cy="169.826" fill="#feaee1" r="17.398" data-original="#feaee1"></circle></g><g><circle cx="435.863" cy="169.826" fill="#feaee1" r="17.398" data-original="#feaee1"></circle></g><g><circle cx="76.137" cy="311.323" fill="#feaee1" r="17.398" data-original="#feaee1"></circle></g><g><circle cx="435.863" cy="311.323" fill="#feaee1" r="17.398" data-original="#feaee1"></circle></g><g><path d="m429.449 419.914h-141.317c-3.542 0-6.414-2.872-6.414-6.414v-28.396c0-3.542 2.872-6.414 6.414-6.414h141.317c3.542 0 6.414 2.872 6.414 6.414v28.396c0 3.542-2.872 6.414-6.414 6.414z" fill="#01d0fb" data-original="#01d0fb"></path></g></g><g><path d="m464.5 27.26h-417c-26.191 0-47.5 21.309-47.5 47.5v376.082c0 18.691 15.207 33.897 33.897 33.897h338.69c4.143 0 7.5-3.358 7.5-7.5s-3.357-7.5-7.5-7.5h-338.69c-10.42 0-18.897-8.477-18.897-18.897v-333.646h82.576c4.143 0 7.5-3.358 7.5-7.5s-3.357-7.5-7.5-7.5h-82.576v-27.436c0-17.921 14.58-32.5 32.5-32.5h417c17.921 0 32.5 14.579 32.5 32.5v27.436h-359.424c-4.143 0-7.5 3.358-7.5 7.5s3.357 7.5 7.5 7.5h359.424v333.646c0 10.42-8.478 18.897-18.897 18.897h-65.515c-4.143 0-7.5 3.358-7.5 7.5s3.357 7.5 7.5 7.5h65.515c18.691 0 33.897-15.206 33.897-33.897v-376.082c0-26.191-21.309-47.5-47.5-47.5z" fill="#000000" data-original="#000000" class=""></path><path d="m456.425 82.735c4.143 0 7.5-3.358 7.5-7.5s-3.357-7.5-7.5-7.5h-90.724c-4.143 0-7.5 3.358-7.5 7.5s3.357 7.5 7.5 7.5z" fill="#000000" data-original="#000000" class=""></path><path d="m435.863 336.221c13.729 0 24.898-11.169 24.898-24.898 0-11.12-7.329-20.559-17.41-23.745.002-.074.011-.146.011-.22v-93.791c10.075-3.19 17.398-12.625 17.398-23.741 0-13.729-11.169-24.898-24.898-24.898-11.116 0-20.551 7.323-23.741 17.398h-312.243c-3.19-10.075-12.625-17.398-23.741-17.398-13.729 0-24.898 11.169-24.898 24.898 0 11.116 7.323 20.552 17.398 23.741v94.014c-10.075 3.19-17.398 12.625-17.398 23.741 0 13.729 11.169 24.898 24.898 24.898 11.116 0 20.552-7.323 23.741-17.398h312.244c3.19 10.076 12.625 17.399 23.741 17.399zm-352.226-48.639v-94.014c7.707-2.44 13.801-8.535 16.241-16.241h312.244c2.44 7.706 8.535 13.801 16.241 16.241v93.791c0 .074.009.146.011.22-7.712 2.438-13.811 8.535-16.252 16.245h-312.244c-2.44-7.708-8.535-13.802-16.241-16.242zm352.226 33.639c-5.457 0-9.897-4.44-9.897-9.898s4.44-9.898 9.897-9.898c5.458 0 9.898 4.44 9.898 9.898s-4.44 9.898-9.898 9.898zm0-161.293c5.458 0 9.898 4.44 9.898 9.898s-4.44 9.898-9.898 9.898c-5.457 0-9.897-4.44-9.897-9.898s4.44-9.898 9.897-9.898zm-359.726 0c5.458 0 9.898 4.44 9.898 9.898s-4.44 9.898-9.898 9.898-9.898-4.44-9.898-9.898 4.44-9.898 9.898-9.898zm0 161.293c-5.458 0-9.898-4.44-9.898-9.898s4.44-9.898 9.898-9.898 9.898 4.44 9.898 9.898-4.441 9.898-9.898 9.898z" fill="#000000" data-original="#000000" class=""></path><path d="m321.759 264.457c-.015 0-.028 0-.043 0-4.991.028-10.345.048-14.474.052v-55.371c0-4.142-3.357-7.5-7.5-7.5s-7.5 3.358-7.5 7.5v62.818c0 3.653 2.633 6.775 6.233 7.392.544.093.962.165 7.84.165 3.362 0 8.269-.017 15.484-.057 4.142-.023 7.481-3.4 7.458-7.542-.022-4.127-3.375-7.457-7.498-7.457z" fill="#000000" data-original="#000000" class=""></path><path d="m197.761 201.639c-4.143 0-7.5 3.358-7.5 7.5v62.871c0 4.142 3.357 7.5 7.5 7.5s7.5-3.358 7.5-7.5v-62.871c0-4.142-3.357-7.5-7.5-7.5z" fill="#000000" data-original="#000000" class=""></path><path d="m384.127 264.223h-18.75v-16.148h16.814c4.143 0 7.5-3.358 7.5-7.5s-3.357-7.5-7.5-7.5h-16.814v-16.148h18.75c4.143 0 7.5-3.358 7.5-7.5s-3.357-7.5-7.5-7.5h-26.25c-4.143 0-7.5 3.358-7.5 7.5v62.297c0 4.142 3.357 7.5 7.5 7.5h26.25c4.143 0 7.5-3.358 7.5-7.5s-3.357-7.501-7.5-7.501z" fill="#000000" data-original="#000000" class=""></path><path d="m162.593 201.639h-34.721c-4.143 0-7.5 3.358-7.5 7.5s3.357 7.5 7.5 7.5h9.79v55.371c0 4.142 3.357 7.5 7.5 7.5s7.5-3.358 7.5-7.5v-55.371h9.931c4.143 0 7.5-3.358 7.5-7.5s-3.357-7.5-7.5-7.5z" fill="#000000" data-original="#000000" class=""></path><path d="m265.798 201.639h-34.722c-4.143 0-7.5 3.358-7.5 7.5s3.357 7.5 7.5 7.5h9.791v55.371c0 4.142 3.357 7.5 7.5 7.5s7.5-3.358 7.5-7.5v-55.371h9.931c4.143 0 7.5-3.358 7.5-7.5s-3.357-7.5-7.5-7.5z" fill="#000000" data-original="#000000" class=""></path><path d="m237.757 373.19h-161.62c-4.142 0-7.5 3.358-7.5 7.5s3.358 7.5 7.5 7.5h161.621c4.143 0 7.5-3.358 7.5-7.5s-3.358-7.5-7.501-7.5z" fill="#000000" data-original="#000000" class=""></path><path d="m237.757 410.414h-161.62c-4.142 0-7.5 3.358-7.5 7.5s3.358 7.5 7.5 7.5h161.621c4.143 0 7.5-3.358 7.5-7.5s-3.358-7.5-7.501-7.5z" fill="#000000" data-original="#000000" class=""></path><path d="m288.132 427.414h141.316c7.672 0 13.914-6.242 13.914-13.914v-28.396c0-7.672-6.242-13.914-13.914-13.914h-141.316c-7.672 0-13.914 6.242-13.914 13.914v28.396c0 7.672 6.242 13.914 13.914 13.914zm1.086-41.224h139.145v26.224h-139.145z" fill="#000000" data-original="#000000" class=""></path></g></g></g></svg>