<svg xmlns="http://www.w3.org/2000/svg" version="1.1" xmlns:xlink="http://www.w3.org/1999/xlink" xmlns:svgjs="http://svgjs.com/svgjs" width="512" height="512" x="0" y="0" viewBox="0 0 64 64" style="enable-background:new 0 0 512 512" xml:space="preserve" class=""><g><rect xmlns="http://www.w3.org/2000/svg" fill="#b4b2a6" height="38" rx="4" width="54" x="2" y="18" data-original="#b4b2a6" class=""></rect><path xmlns="http://www.w3.org/2000/svg" d="m6 22h46v30h-46z" fill="#e3e8f6" data-original="#e3e8f6"></path><path xmlns="http://www.w3.org/2000/svg" d="m6 22v4c0 14.359 12.312 26 27.5 26h18.5v-30z" fill="#f8f7fe" data-original="#f8f7fe" class=""></path><circle xmlns="http://www.w3.org/2000/svg" cx="50" cy="20" fill="#e3e8f6" r="12" data-original="#e3e8f6"></circle><path xmlns="http://www.w3.org/2000/svg" d="m50 8a11.935 11.935 0 0 0 -7.041 2.3 12.139 12.139 0 0 0 -.959 4.7c0 7.18 6.268 13 14 13a14.991 14.991 0 0 0 3.261-.369 12 12 0 0 0 -9.261-19.631z" fill="#f8f7fe" data-original="#f8f7fe" class=""></path><circle xmlns="http://www.w3.org/2000/svg" cx="24" cy="29" fill="#e4a350" r="3" data-original="#e4a350"></circle><path xmlns="http://www.w3.org/2000/svg" d="m26.281 30.928a2.985 2.985 0 0 0 -4.209-4.209 4.975 4.975 0 0 0 4.209 4.209z" fill="#f5bb5c" data-original="#f5bb5c"></path><path xmlns="http://www.w3.org/2000/svg" d="m48 21v-7a2 2 0 0 1 2-2 2 2 0 0 1 2 2v7l.379-.379a2.12 2.12 0 0 1 1.5-.621 2.122 2.122 0 0 1 2.121 2.121 2.12 2.12 0 0 1 -.621 1.5l-3.672 3.672a2.414 2.414 0 0 1 -1.707.707 2.414 2.414 0 0 1 -1.707-.707l-3.672-3.672a2.12 2.12 0 0 1 -.621-1.5 2.122 2.122 0 0 1 2.121-2.121 2.12 2.12 0 0 1 1.5.621z" fill="#739b37" data-original="#739b37"></path><path xmlns="http://www.w3.org/2000/svg" d="m6 43 3.111-3.111a13.278 13.278 0 0 1 9.389-3.889 13.279 13.279 0 0 1 9.389 3.889 20.868 20.868 0 0 0 14.753 6.111h9.358v6h-46z" fill="#739b37" data-original="#739b37"></path><path xmlns="http://www.w3.org/2000/svg" d="m48.674 38.1a15.935 15.935 0 0 0 -18.106 1.594l-1.464 1.3a20.849 20.849 0 0 0 13.538 5.006h9.358v-6z" fill="#b4de60" data-original="#b4de60"></path><path xmlns="http://www.w3.org/2000/svg" d="m27.889 39.889a13.254 13.254 0 0 0 -18.057-.653 27.819 27.819 0 0 0 23.668 12.764h18.5v-6h-9.358a20.868 20.868 0 0 1 -14.753-6.111z" fill="#94c249" data-original="#94c249"></path><path xmlns="http://www.w3.org/2000/svg" d="m63 20a12.993 12.993 0 0 0 -25.637-3h-31.363a5.006 5.006 0 0 0 -5 5v30a5.006 5.006 0 0 0 5 5h46a5.006 5.006 0 0 0 5-5v-21.063a12.992 12.992 0 0 0 6-10.937zm-56 23.414 2.818-2.814a12.279 12.279 0 0 1 17.364 0 21.724 21.724 0 0 0 15.461 6.4h8.357v4h-44zm23.637-2.476.572-.477a14.935 14.935 0 0 1 16.969-1.494l2.822 1.613v4.42h-8.357a19.709 19.709 0 0 1 -12.006-4.062zm20.363-2.661-1.83-1.046a16.934 16.934 0 0 0 -19.242 1.694l-.842.7c-.161-.151-.333-.287-.49-.444a14.278 14.278 0 0 0 -20.192 0l-1.404 1.405v-17.586h30.363a13.014 13.014 0 0 0 12.637 10c.338 0 .669-.025 1-.051zm4 13.723a3 3 0 0 1 -3 3h-46a3 3 0 0 1 -3-3v-30a3 3 0 0 1 3-3h31.051c-.026.331-.051.662-.051 1s.025.669.051 1h-31.051a1 1 0 0 0 -1 1v30a1 1 0 0 0 1 1h46a1 1 0 0 0 1-1v-19.363a12.985 12.985 0 0 0 2-.637zm-5-21a11 11 0 1 1 11-11 11.013 11.013 0 0 1 -11 11z" fill="#000000" data-original="#000000" class=""></path><path xmlns="http://www.w3.org/2000/svg" d="m53.879 19a3.1 3.1 0 0 0 -.879.128v-5.128a3 3 0 0 0 -6 0v5.128a3.12 3.12 0 0 0 -3.086 5.2l3.672 3.672a3.414 3.414 0 0 0 4.828 0l3.672-3.672a3.121 3.121 0 0 0 -2.207-5.328zm.793 3.914-3.672 3.671a1.447 1.447 0 0 1 -2 0l-3.672-3.672a1.121 1.121 0 0 1 .793-1.913 1.133 1.133 0 0 1 .793.328l.379.379a1 1 0 0 0 1.707-.707v-7a1 1 0 0 1 2 0v7a1 1 0 0 0 1.707.707l.379-.379a1.121 1.121 0 0 1 1.914.793 1.112 1.112 0 0 1 -.328.793z" fill="#000000" data-original="#000000" class=""></path><path xmlns="http://www.w3.org/2000/svg" d="m24 25a4 4 0 1 0 4 4 4 4 0 0 0 -4-4zm0 6a2 2 0 1 1 2-2 2 2 0 0 1 -2 2z" fill="#000000" data-original="#000000" class=""></path></g></svg>