<svg width="45" height="24" viewBox="0 0 45 24" fill="none" xmlns="http://www.w3.org/2000/svg">
<path d="M9.82214 19.0629L0 14.0914V10.6629L9.82214 5.69143L11.5615 9.22286L4.63823 12.3771L11.5615 15.5314L9.82214 19.0629Z" fill="#3B5998"/>
<path d="M22.5741 13.0286L24.3816 5.52L25.8481 0H30.1112L31.6459 24H27.1782L26.5302 10.9029H26.3597L23.9042 20.5714H21.1076L18.652 10.9029H18.4815L17.8335 24H13.3658L14.9005 0H19.1636L20.6301 5.52L22.4377 13.0286H22.5741Z" fill="#3B5998"/>
<path d="M45 14.0914L35.1779 19.0629L33.4385 15.5314L40.3618 12.3771L33.4385 9.22286L35.1779 5.69143L45 10.6629V14.0914Z" fill="#3B5998"/>
</svg>
