<svg width="51" height="24" viewBox="0 0 51 24" fill="none" xmlns="http://www.w3.org/2000/svg">
<path d="M34.9901 12.8476C35.1736 14.1703 35.7264 15.4144 36.5849 16.4371C37.4435 17.4598 38.5731 18.2196 39.844 18.6294C41.115 19.0391 42.4757 19.0822 43.7699 18.7536C45.0642 18.425 46.2395 17.738 47.1611 16.7716C47.0744 16.5693 47.0217 16.3541 47.0051 16.1346L47.0001 15.9856L47.0051 15.8356C47.0349 15.438 47.183 15.0583 47.4302 14.7454C47.6775 14.4325 48.0126 14.2006 48.3926 14.0797C48.7726 13.9587 49.1801 13.954 49.5628 14.0664C49.9454 14.1787 50.2858 14.4028 50.5401 14.71C50.7944 15.0173 50.951 15.3935 50.9899 15.7904C51.0288 16.1873 50.9481 16.5867 50.7583 16.9374C50.5685 17.2882 50.2781 17.5741 49.9245 17.7586C49.571 17.943 49.1703 18.0176 48.7741 17.9726C47.6128 19.2578 46.1089 20.1848 44.439 20.6448C42.7691 21.1048 41.0026 21.0785 39.3471 20.5692C37.6916 20.0599 36.2159 19.0886 35.0933 17.7695C33.9708 16.4504 33.248 14.8383 33.0101 13.1226C32.9825 12.8644 33.0564 12.6055 33.2163 12.4008C33.3763 12.1961 33.6095 12.0616 33.8668 12.0259C34.1241 11.9901 34.3852 12.0559 34.5949 12.2093C34.8045 12.3627 34.9462 12.5916 34.9901 12.8476Z" fill="#3B5998"/>
<path d="M42 7.9856C42.7826 7.9856 43.548 8.21517 44.2014 8.64589C44.8549 9.07661 45.3676 9.68954 45.6761 10.4088C45.9846 11.128 46.0753 11.9219 45.9371 12.6922C45.7988 13.4625 45.4376 14.1754 44.8983 14.7424C44.3589 15.3095 43.665 15.7058 42.9026 15.8824C42.1402 16.059 41.3427 16.0081 40.6089 15.7359C39.8752 15.4638 39.2374 14.9823 38.7745 14.3513C38.3117 13.7202 38.0441 12.9672 38.005 12.1856L38 11.9856L38.005 11.7856C38.0563 10.7606 38.4996 9.79461 39.2432 9.08732C39.9868 8.38003 40.9738 7.98559 42 7.9856Z" fill="#3B5998"/>
<path d="M43.142 3.07558C45.1214 3.33116 46.9619 4.23038 48.38 5.63476C49.7981 7.03913 50.7152 8.87077 50.99 10.8476C51.0184 11.1062 50.9448 11.3657 50.785 11.5709C50.6252 11.7762 50.3917 11.9111 50.134 11.947C49.8764 11.9829 49.6148 11.917 49.405 11.7633C49.1951 11.6096 49.0534 11.3801 49.01 11.1236C48.7955 9.58094 48.0797 8.15163 46.9729 7.05585C45.8661 5.96007 44.4297 5.25862 42.885 5.05958C41.78 4.91605 40.6567 5.03462 39.606 5.4057C38.5554 5.77677 37.6068 6.38993 36.837 7.19558C36.9522 7.46256 37.0078 7.75144 36.9999 8.0421C36.992 8.33276 36.9208 8.6182 36.7913 8.87854C36.6618 9.13888 36.4771 9.36785 36.2501 9.5495C36.023 9.73116 35.7591 9.86112 35.4767 9.93034C35.1943 9.99956 34.9002 10.0064 34.6149 9.9503C34.3296 9.89422 34.06 9.77661 33.8248 9.60566C33.5895 9.43472 33.3944 9.21454 33.253 8.96047C33.1116 8.70641 33.0273 8.42456 33.006 8.13458L33 7.98558L33.005 7.83558C33.0251 7.56761 33.099 7.30644 33.2223 7.06767C33.3456 6.8289 33.5157 6.61742 33.7226 6.44587C33.9294 6.27431 34.1687 6.1462 34.4262 6.06918C34.6836 5.99216 34.9539 5.96781 35.221 5.99758C36.207 4.90684 37.4426 4.07127 38.8221 3.56239C40.2016 3.05351 41.6839 2.88647 43.142 3.07558Z" fill="#3B5998"/>
<path d="M42.7556 9L42.6444 13.2791H41.3556L41.2444 9H42.7556ZM42 15C41.7259 15 41.4907 14.9486 41.2944 14.8459C41.0981 14.7432 41 14.6202 41 14.4767C41 14.3333 41.0981 14.2103 41.2944 14.1076C41.4907 14.0048 41.7259 13.9535 42 13.9535C42.2741 13.9535 42.5093 14.0048 42.7056 14.1076C42.9019 14.2103 43 14.3333 43 14.4767C43 14.5717 42.9537 14.6589 42.8611 14.7384C42.7722 14.8178 42.6519 14.8818 42.5 14.9302C42.3519 14.9767 42.1852 15 42 15Z" fill="#DFE3EE"/>
<path d="M9.82213 19.0629L0 14.0914V10.6629L9.82213 5.69143L11.5615 9.22286L4.63823 12.3771L11.5615 15.5314L9.82213 19.0629Z" fill="#3B5998"/>
<path d="M22.5741 13.0286L24.3816 5.52L25.8481 0H30.1112L31.6459 24H27.1782L26.5302 10.9029H26.3597L23.9042 20.5714H21.1076L18.652 10.9029H18.4815L17.8335 24H13.3658L14.9005 0H19.1636L20.6301 5.52L22.4377 13.0286H22.5741Z" fill="#3B5998"/>
</svg>
