<svg width="50" height="18" viewBox="0 0 50 18" fill="none" xmlns="http://www.w3.org/2000/svg">
<path d="M7.81001 0.126939H9.63278L17.4428 17.7969H14.6754L12.7994 13.354H4.5769L2.71421 17.7969H0L7.81001 0.126939ZM11.9478 11.323L8.70144 3.57969L5.44172 11.323H11.9478Z" fill="#3B5998"/>
<path d="M33.7547 17.6192C32.7346 17.8731 31.3864 18 29.71 18C28.0424 18 26.6099 17.8011 25.4125 17.4034C24.2239 17.0056 23.1994 16.4175 22.339 15.6389C20.4941 13.9972 19.5716 11.7123 19.5716 8.7842C19.5716 6.87165 20.0506 5.22144 21.0085 3.83357C22.3035 1.9464 24.2948 0.744711 26.9824 0.228491C27.8073 0.0761636 28.8185 0 30.016 0C31.2134 0 32.2468 0.055007 33.116 0.165021V2.60226C32.3532 2.41608 31.2622 2.32299 29.843 2.32299C28.4327 2.32299 27.2751 2.47532 26.3704 2.77997C25.4657 3.08463 24.7162 3.52045 24.1219 4.08745C22.9333 5.19605 22.339 6.76164 22.339 8.7842C22.339 10.8406 22.9244 12.4866 24.0953 13.7221C25.3725 15.0677 27.1953 15.7405 29.5636 15.7405C30.1135 15.7405 30.6236 15.7193 31.0937 15.677V9.16502H33.7547V17.6192Z" fill="#3B5998"/>
<path d="M38.0389 0.126939H50V2.33568H40.6998V7.5402H47.7382V9.67278H40.6998V15.5628H50V17.7969H38.0389V0.126939Z" fill="#3B5998"/>
</svg>
