<svg width="28" height="28" viewBox="0 0 28 28" fill="none" xmlns="http://www.w3.org/2000/svg">
<path d="M21 22C17.4 22 15.97 17.824 14.587 13.786C13.277 9.958 11.92 6 9.00005 6C8.31812 6.04017 7.6636 6.28246 7.11988 6.69599C6.57616 7.10952 6.16788 7.67557 5.94705 8.322L4.05005 7.684C4.10105 7.534 5.32105 4 9.00005 4C13.35 4 15.012 8.855 16.48 13.138C17.689 16.667 18.83 20 21 20C21.6819 19.9599 22.3363 19.7178 22.88 19.3044C23.4237 18.8911 23.8321 18.3252 24.053 17.679L25.949 18.316C25.899 18.466 24.6791 22 21 22Z" fill="#3B5998"/>
<path d="M2 26V15H4V13H2V0H0V26C0 26.5304 0.210714 27.0391 0.585786 27.4142C0.960859 27.7893 1.46957 28 2 28H28V26H2Z" fill="#3B5998"/>
<path d="M6 13H8V15H6V13ZM10 13H12V15H10V13ZM18 13H20V15H18V13ZM22 13H24V15H22V13ZM26 13H28V15H26V13Z" fill="#3B5998"/>
</svg>
