<svg width="38" height="29" viewBox="0 0 38 29" fill="none" xmlns="http://www.w3.org/2000/svg">
<path d="M11.854 21.25L25.354 7.75M1 25.3C0.999999 26.0152 1.28372 26.7011 1.7889 27.2073C2.29408 27.7135 2.97945 27.9986 3.6946 28H33.4054C34.1205 27.9986 34.8059 27.7135 35.3111 27.2073C35.8163 26.7011 36.1 26.0152 36.1 25.3V19.8082C34.9342 19.4921 33.9049 18.801 33.171 17.8416C32.4371 16.8822 32.0395 15.7079 32.0395 14.5C32.0395 13.2921 32.4371 12.1178 33.171 11.1584C33.9049 10.199 34.9342 9.50792 36.1 9.1918V3.7C36.1 2.98485 35.8163 2.29891 35.3111 1.79272C34.8059 1.28653 34.1205 1.00143 33.4054 1H3.6946C2.97945 1.00143 2.29408 1.28653 1.7889 1.79272C1.28372 2.29891 0.999999 2.98485 1 3.7V9.181C2.17509 9.49007 3.21476 10.1796 3.95666 11.1418C4.69856 12.1041 5.10092 13.2849 5.10092 14.5C5.10092 15.7151 4.69856 16.8959 3.95666 17.8582C3.21476 18.8204 2.17509 19.5099 1 19.819V25.3Z" stroke="#3B5998" stroke-width="2" stroke-linecap="round" stroke-linejoin="round"/>
<path d="M13.204 10.45C13.562 10.45 13.9054 10.3078 14.1586 10.0546C14.4118 9.80142 14.554 9.45804 14.554 9.1C14.554 8.74196 14.4118 8.39858 14.1586 8.14541C13.9054 7.89223 13.562 7.75 13.204 7.75C12.846 7.75 12.5026 7.89223 12.2494 8.14541C11.9962 8.39858 11.854 8.74196 11.854 9.1C11.854 9.45804 11.9962 9.80142 12.2494 10.0546C12.5026 10.3078 12.846 10.45 13.204 10.45ZM24.004 21.25C24.362 21.25 24.7054 21.1078 24.9586 20.8546C25.2118 20.6014 25.354 20.258 25.354 19.9C25.354 19.542 25.2118 19.1986 24.9586 18.9454C24.7054 18.6922 24.362 18.55 24.004 18.55C23.646 18.55 23.3026 18.6922 23.0494 18.9454C22.7962 19.1986 22.654 19.542 22.654 19.9C22.654 20.258 22.7962 20.6014 23.0494 20.8546C23.3026 21.1078 23.646 21.25 24.004 21.25Z" stroke="#3B5998" stroke-width="2" stroke-linecap="round" stroke-linejoin="round"/>
</svg>
