<svg width="34" height="34" viewBox="0 0 34 34" fill="none" xmlns="http://www.w3.org/2000/svg">
<path d="M1 31.9333V2.06667C1 1.78377 1.11238 1.51246 1.31242 1.31242C1.51246 1.11238 1.78377 1 2.06667 1H31.9333C32.2162 1 32.4875 1.11238 32.6876 1.31242C32.8876 1.51246 33 1.78377 33 2.06667V31.9333C33 32.2162 32.8876 32.4875 32.6876 32.6876C32.4875 32.8876 32.2162 33 31.9333 33H2.06667C1.78377 33 1.51246 32.8876 1.31242 32.6876C1.11238 32.4875 1 32.2162 1 31.9333Z" stroke="#3B5998" stroke-width="2"/>
<path d="M23.2222 24.1111C23.458 24.1111 23.6841 24.0175 23.8508 23.8508C24.0175 23.6841 24.1111 23.458 24.1111 23.2222C24.1111 22.9865 24.0175 22.7604 23.8508 22.5937C23.6841 22.427 23.458 22.3334 23.2222 22.3334C22.9865 22.3334 22.7604 22.427 22.5937 22.5937C22.427 22.7604 22.3334 22.9865 22.3334 23.2222C22.3334 23.458 22.427 23.6841 22.5937 23.8508C22.7604 24.0175 22.9865 24.1111 23.2222 24.1111ZM10.7778 11.6667C11.0136 11.6667 11.2396 11.573 11.4063 11.4063C11.573 11.2396 11.6667 11.0136 11.6667 10.7778C11.6667 10.5421 11.573 10.316 11.4063 10.1493C11.2396 9.98257 11.0136 9.88892 10.7778 9.88892C10.5421 9.88892 10.316 9.98257 10.1493 10.1493C9.98257 10.316 9.88892 10.5421 9.88892 10.7778C9.88892 11.0136 9.98257 11.2396 10.1493 11.4063C10.316 11.573 10.5421 11.6667 10.7778 11.6667Z" fill="#3B5998" stroke="#3B5998" stroke-width="2" stroke-linecap="round" stroke-linejoin="round"/>
<path d="M24.1111 9.88892L9.88892 24.1111" stroke="#3B5998" stroke-width="2" stroke-linecap="round" stroke-linejoin="round"/>
</svg>
