<svg width="50" height="30" viewBox="0 0 50 30" fill="none" xmlns="http://www.w3.org/2000/svg">
<circle cx="15" cy="15" r="15" fill="#3B5998"/>
<circle cx="35" cy="15" r="15" fill="#3B5998"/>
<path fill-rule="evenodd" clip-rule="evenodd" d="M25 26.1805C28.0687 23.4339 30 19.4425 30 15C30 10.5575 28.0687 6.56606 25 3.81946C21.9313 6.56606 20 10.5575 20 15C20 19.4425 21.9313 23.4339 25 26.1805Z" fill="#8B9DC3"/>
<path d="M35 22V7H40.0281C41.03 7 41.8563 7.18066 42.507 7.54199C43.1578 7.89844 43.6423 8.37939 43.9607 8.98486C44.279 9.58545 44.4382 10.252 44.4382 10.9844C44.4382 11.6289 44.3282 12.1611 44.1081 12.5811C43.8928 13.001 43.6072 13.333 43.2514 13.5771C42.9003 13.8213 42.5187 14.002 42.1067 14.1191V14.2656C42.5468 14.2949 42.9892 14.4561 43.434 14.749C43.8787 15.042 44.2509 15.4619 44.5506 16.0088C44.8502 16.5557 45 17.2246 45 18.0156C45 18.7676 44.8361 19.4438 44.5084 20.0444C44.1807 20.645 43.6634 21.1211 42.9565 21.4727C42.2495 21.8242 41.3296 22 40.1966 22H35ZM36.7416 20.3887H40.1966C41.3343 20.3887 42.1419 20.1592 42.6194 19.7002C43.1016 19.2363 43.3427 18.6748 43.3427 18.0156C43.3427 17.5078 43.2186 17.0391 42.9705 16.6094C42.7224 16.1748 42.3689 15.8281 41.9101 15.5693C41.4513 15.3057 40.9082 15.1738 40.2809 15.1738H36.7416V20.3887ZM36.7416 13.5918H39.9719C40.4963 13.5918 40.9691 13.4844 41.3904 13.2695C41.8165 13.0547 42.1536 12.752 42.4017 12.3613C42.6545 11.9707 42.7809 11.5117 42.7809 10.9844C42.7809 10.3252 42.5609 9.76611 42.1208 9.30713C41.6807 8.84326 40.9831 8.61133 40.0281 8.61133H36.7416V13.5918Z" fill="white"/>
<path d="M7.92045 22H6L11.5545 7H13.4455L19 22H17.0795L12.5591 9.37305H12.4409L7.92045 22ZM8.62955 16.1406H16.3705V17.752H8.62955V16.1406Z" fill="white"/>
</svg>
