<svg width="54" height="54" viewBox="0 0 54 54" fill="none" xmlns="http://www.w3.org/2000/svg">
<g filter="url(#filter0_d_278_101)">
<rect x="2" y="1" width="50" height="50" rx="4" fill="#DFE3EE"/>
<g filter="url(#filter1_d_278_101)">
<path d="M11.1591 27V32.8182H10.4545V27.7386H10.4205L9 28.6818V27.9659L10.4545 27H11.1591Z" fill="#3B5998"/>
</g>
<g filter="url(#filter2_d_278_101)">
<path d="M25 21.8977V21.3864L26.9205 19.2841C27.1458 19.0379 27.3314 18.8239 27.4773 18.642C27.6231 18.4583 27.7311 18.286 27.8011 18.125C27.8731 17.9621 27.9091 17.7917 27.9091 17.6136C27.9091 17.4091 27.8598 17.232 27.7614 17.0824C27.6648 16.9328 27.5322 16.8172 27.3636 16.7358C27.1951 16.6544 27.0057 16.6136 26.7955 16.6136C26.572 16.6136 26.3769 16.66 26.2102 16.7528C26.0455 16.8438 25.9176 16.9716 25.8267 17.1364C25.7377 17.3011 25.6932 17.4943 25.6932 17.7159H25.0227C25.0227 17.375 25.1013 17.0758 25.2585 16.8182C25.4157 16.5606 25.6297 16.3598 25.9006 16.2159C26.1733 16.072 26.4792 16 26.8182 16C27.1591 16 27.4612 16.072 27.7244 16.2159C27.9877 16.3598 28.1941 16.554 28.3438 16.7983C28.4934 17.0426 28.5682 17.3144 28.5682 17.6136C28.5682 17.8277 28.5294 18.0369 28.4517 18.2415C28.3759 18.4441 28.2434 18.6705 28.054 18.9205C27.8665 19.1686 27.6061 19.4716 27.2727 19.8295L25.9659 21.2273V21.2727H28.6705V21.8977H25Z" fill="#3B5998"/>
</g>
<g filter="url(#filter3_d_278_101)">
<path d="M31 36.334V35.0391L37.0811 26H38.0811V28.0059H37.4054L32.8108 34.8359V34.9375H41V36.334H31ZM37.5135 39V26H39.1081V39H37.5135Z" fill="#3B5998"/>
</g>
<g filter="url(#filter4_d_278_101)">
<path d="M35.0227 13.9773C34.7841 13.9735 34.5455 13.928 34.3068 13.8409C34.0682 13.7538 33.8504 13.607 33.6534 13.4006C33.4564 13.1922 33.2983 12.911 33.179 12.5568C33.0597 12.2008 33 11.7538 33 11.2159C33 10.7008 33.0483 10.2443 33.1449 9.84659C33.2415 9.44697 33.3816 9.1108 33.5653 8.83807C33.7491 8.56345 33.9706 8.35511 34.2301 8.21307C34.4915 8.07102 34.786 8 35.1136 8C35.4394 8 35.7292 8.06534 35.983 8.19602C36.2386 8.32481 36.447 8.50473 36.608 8.7358C36.7689 8.96686 36.8731 9.23295 36.9205 9.53409H36.2273C36.1629 9.27273 36.0379 9.05587 35.8523 8.88352C35.6667 8.71117 35.4205 8.625 35.1136 8.625C34.6629 8.625 34.3078 8.82102 34.0483 9.21307C33.7907 9.60511 33.661 10.1553 33.6591 10.8636H33.7045C33.8106 10.7027 33.9366 10.5653 34.0824 10.4517C34.2301 10.3362 34.393 10.2472 34.571 10.1847C34.7491 10.1222 34.9375 10.0909 35.1364 10.0909C35.4697 10.0909 35.7746 10.1742 36.0511 10.3409C36.3277 10.5057 36.5492 10.7339 36.7159 11.0256C36.8826 11.3153 36.9659 11.6477 36.9659 12.0227C36.9659 12.3826 36.8854 12.7121 36.7244 13.0114C36.5634 13.3087 36.3371 13.5455 36.0455 13.7216C35.7557 13.8958 35.4148 13.9811 35.0227 13.9773ZM35.0227 13.3523C35.2614 13.3523 35.4754 13.2926 35.6648 13.1733C35.8561 13.054 36.0066 12.8939 36.1165 12.6932C36.2282 12.4924 36.2841 12.2689 36.2841 12.0227C36.2841 11.7822 36.2301 11.5634 36.1222 11.3665C36.0161 11.1676 35.8693 11.0095 35.6818 10.892C35.4962 10.7746 35.2841 10.7159 35.0455 10.7159C34.8655 10.7159 34.6979 10.7519 34.5426 10.8239C34.3873 10.8939 34.2509 10.9905 34.1335 11.1136C34.018 11.2367 33.9271 11.3778 33.8608 11.5369C33.7945 11.6941 33.7614 11.8598 33.7614 12.0341C33.7614 12.2652 33.8153 12.4811 33.9233 12.6818C34.0331 12.8826 34.1828 13.0445 34.3722 13.1676C34.5634 13.2907 34.7803 13.3523 35.0227 13.3523Z" fill="#3B5998"/>
</g>
<g filter="url(#filter5_d_278_101)">
<path d="M44.5335 49L48.0244 41.9219V41.8594H44V41H49V41.9063L45.5244 49H44.5335Z" fill="#3B5998"/>
</g>
<g filter="url(#filter6_d_278_101)">
<path d="M26.114 42.0399V44.9601H25.7505V42.4106H25.7329L25 42.884V42.5247L25.7505 42.0399H26.114Z" fill="#3B5998"/>
<path d="M27.9564 45C27.7356 45 27.5475 44.9415 27.3921 44.8246C27.2367 44.7067 27.118 44.5361 27.0359 44.3127C26.9538 44.0884 26.9128 43.8175 26.9128 43.5C26.9128 43.1844 26.9538 42.9149 27.0359 42.6915C27.119 42.4672 27.2382 42.2961 27.3936 42.1782C27.5499 42.0594 27.7375 42 27.9564 42C28.1753 42 28.3624 42.0594 28.5178 42.1782C28.6741 42.2961 28.7933 42.4672 28.8754 42.6915C28.9585 42.9149 29 43.1844 29 43.5C29 43.8175 28.959 44.0884 28.8769 44.3127C28.7948 44.5361 28.6761 44.7067 28.5207 44.8246C28.3653 44.9415 28.1772 45 27.9564 45ZM27.9564 44.6863C28.1753 44.6863 28.3453 44.5837 28.4665 44.3783C28.5876 44.173 28.6482 43.8802 28.6482 43.5C28.6482 43.2471 28.6204 43.0318 28.5647 42.8541C28.51 42.6763 28.4308 42.5409 28.3272 42.4477C28.2246 42.3546 28.101 42.308 27.9564 42.308C27.7395 42.308 27.5699 42.4121 27.4478 42.6202C27.3256 42.8275 27.2646 43.1207 27.2646 43.5C27.2646 43.7529 27.2919 43.9677 27.3466 44.1445C27.4014 44.3213 27.48 44.4558 27.5826 44.548C27.6862 44.6402 27.8108 44.6863 27.9564 44.6863Z" fill="#3B5998"/>
</g>
<g filter="url(#filter7_d_278_101)">
<path d="M6.94318 42.0003C7.18182 42.0022 7.42045 42.0476 7.65909 42.1366C7.89773 42.2256 8.11553 42.3734 8.3125 42.5798C8.50947 42.7844 8.66761 43.0637 8.78693 43.4179C8.90625 43.772 8.96591 44.2162 8.96591 44.7503C8.96591 45.2673 8.91667 45.7266 8.81818 46.1281C8.72159 46.5277 8.58144 46.8649 8.39773 47.1395C8.21591 47.4141 7.99432 47.6224 7.73295 47.7645C7.47348 47.9065 7.17992 47.9775 6.85227 47.9775C6.52652 47.9775 6.2358 47.9131 5.98011 47.7844C5.72633 47.6537 5.51799 47.4728 5.35511 47.2417C5.19413 47.0088 5.09091 46.7389 5.04545 46.4321H5.73864C5.80114 46.6991 5.92519 46.9198 6.1108 47.094C6.2983 47.2664 6.54545 47.3525 6.85227 47.3525C7.30114 47.3525 7.6553 47.1565 7.91477 46.7645C8.17614 46.3724 8.30682 45.8184 8.30682 45.1025H8.26136C8.1553 45.2616 8.02936 45.3989 7.88352 45.5145C7.73769 45.63 7.57576 45.719 7.39773 45.7815C7.2197 45.844 7.0303 45.8753 6.82955 45.8753C6.49621 45.8753 6.19034 45.7929 5.91193 45.6281C5.63542 45.4614 5.41383 45.2332 5.24716 44.9434C5.08239 44.6518 5 44.3184 5 43.9434C5 43.5874 5.07955 43.2616 5.23864 42.9662C5.39962 42.6688 5.625 42.4321 5.91477 42.2559C6.20644 42.0798 6.54924 41.9946 6.94318 42.0003ZM6.94318 42.6253C6.70455 42.6253 6.48958 42.6849 6.2983 42.8042C6.1089 42.9217 5.95833 43.0808 5.84659 43.2815C5.73674 43.4804 5.68182 43.701 5.68182 43.9434C5.68182 44.1859 5.73485 44.4065 5.84091 44.6054C5.94886 44.8023 6.09564 44.9595 6.28125 45.077C6.46875 45.1925 6.68182 45.2503 6.92045 45.2503C7.10038 45.2503 7.26799 45.2152 7.4233 45.1452C7.5786 45.0732 7.71402 44.9756 7.82955 44.8525C7.94697 44.7275 8.03883 44.5864 8.10511 44.4292C8.1714 44.2702 8.20455 44.1044 8.20455 43.9321C8.20455 43.7048 8.14962 43.4917 8.03977 43.2929C7.93182 43.094 7.7822 42.933 7.59091 42.8099C7.40152 42.6868 7.18561 42.6253 6.94318 42.6253Z" fill="#3B5998"/>
</g>
<g filter="url(#filter8_d_278_101)">
<path d="M11.3628 19C10.5579 19 9.83308 18.8426 9.18826 18.5279C8.54345 18.2132 8.02668 17.7816 7.63796 17.2331C7.24924 16.6846 7.03659 16.0597 7 15.3584H8.64634C8.71037 15.9833 8.99848 16.5003 9.51067 16.9094C10.0274 17.3141 10.6448 17.5164 11.3628 17.5164C11.939 17.5164 12.4512 17.3838 12.8994 17.1185C13.3521 16.8532 13.7066 16.4891 13.9627 16.026C14.2233 15.5584 14.3537 15.0302 14.3537 14.4412C14.3537 13.8388 14.2188 13.3015 13.9489 12.8295C13.6837 12.3529 13.3178 11.9775 12.8514 11.7033C12.3849 11.429 11.8521 11.2897 11.253 11.2852C10.8232 11.2807 10.3819 11.3459 9.92912 11.4807C9.47637 11.6111 9.10366 11.7797 8.81098 11.9865L7.21951 11.7977L8.07012 5H15.3689V6.48362H9.49695L9.00305 10.5568H9.08537C9.37348 10.332 9.73476 10.1455 10.1692 9.99711C10.6037 9.84875 11.0564 9.77457 11.5274 9.77457C12.3872 9.77457 13.1532 9.97688 13.8255 10.3815C14.5023 10.7816 15.0328 11.3301 15.4169 12.027C15.8056 12.7238 16 13.5196 16 14.4143C16 15.2954 15.7988 16.0822 15.3963 16.7746C14.9985 17.4624 14.4497 18.0064 13.75 18.4066C13.0503 18.8022 12.2546 19 11.3628 19Z" fill="#3B5998"/>
</g>
<g filter="url(#filter9_d_278_101)">
<path d="M20.8409 6C20.6858 6 20.5461 5.96628 20.4218 5.89884C20.2975 5.83141 20.1979 5.73892 20.123 5.62139C20.048 5.50385 20.0071 5.36994 20 5.21965H20.3173C20.3297 5.35356 20.3852 5.46435 20.4839 5.55202C20.5835 5.63873 20.7025 5.68208 20.8409 5.68208C20.952 5.68208 21.0507 5.65366 21.1371 5.59682C21.2244 5.53998 21.2927 5.46195 21.342 5.36272C21.3923 5.26252 21.4174 5.14933 21.4174 5.02312C21.4174 4.89403 21.3914 4.7789 21.3394 4.67775C21.2883 4.57563 21.2178 4.49518 21.1278 4.43642C21.0379 4.37765 20.9352 4.34778 20.8198 4.34682C20.7369 4.34586 20.6518 4.35983 20.5646 4.38873C20.4773 4.41667 20.4055 4.45279 20.3491 4.49711L20.0423 4.45665L20.2063 3H21.6131V3.31792H20.4813L20.3861 4.19075H20.402C20.4575 4.14258 20.5271 4.1026 20.6109 4.07081C20.6946 4.03902 20.7819 4.02312 20.8727 4.02312C21.0384 4.02312 21.186 4.06647 21.3156 4.15318C21.4461 4.23892 21.5483 4.35645 21.6223 4.50578C21.6973 4.65511 21.7347 4.82563 21.7347 5.01734C21.7347 5.20617 21.6959 5.37476 21.6184 5.52312C21.5417 5.67052 21.4359 5.78709 21.301 5.87283C21.1662 5.95761 21.0128 6 20.8409 6Z" fill="#3B5998"/>
<path d="M23.1062 6C22.9511 6 22.8113 5.96628 22.6871 5.89884C22.5628 5.83141 22.4632 5.73892 22.3882 5.62139C22.3133 5.50385 22.2723 5.36994 22.2653 5.21965H22.5826C22.5949 5.35356 22.6505 5.46435 22.7492 5.55202C22.8488 5.63873 22.9678 5.68208 23.1062 5.68208C23.2173 5.68208 23.316 5.65366 23.4024 5.59682C23.4896 5.53998 23.5579 5.46195 23.6073 5.36272C23.6575 5.26252 23.6827 5.14933 23.6827 5.02312C23.6827 4.89403 23.6567 4.7789 23.6047 4.67775C23.5535 4.57563 23.483 4.49518 23.3931 4.43642C23.3032 4.37765 23.2005 4.34778 23.085 4.34682C23.0022 4.34586 22.9171 4.35983 22.8298 4.38873C22.7426 4.41667 22.6707 4.45279 22.6143 4.49711L22.3076 4.45665L22.4715 3H23.8784V3.31792H22.7465L22.6514 4.19075H22.6672C22.7228 4.14258 22.7924 4.1026 22.8761 4.07081C22.9599 4.03902 23.0471 4.02312 23.1379 4.02312C23.3036 4.02312 23.4513 4.06647 23.5809 4.15318C23.7113 4.23892 23.8136 4.35645 23.8876 4.50578C23.9625 4.65511 24 4.82563 24 5.01734C24 5.20617 23.9612 5.37476 23.8836 5.52312C23.807 5.67052 23.7012 5.78709 23.5663 5.87283C23.4315 5.95761 23.2781 6 23.1062 6Z" fill="#3B5998"/>
</g>
<g filter="url(#filter10_d_278_101)">
<path d="M46 4.57416V4.38026L46.8388 3.0267H46.9768V3.32707H46.8836L46.2498 4.34984V4.36505H47.3794V4.57416H46ZM46.8985 4.97339V3.0267H47.1184V4.97339H46.8985Z" fill="#3B5998"/>
<path d="M48.3364 3.00009C48.4147 3.00072 48.493 3.01593 48.5713 3.04571C48.6496 3.0755 48.721 3.12493 48.7856 3.194C48.8503 3.26243 48.9021 3.3559 48.9413 3.4744C48.9804 3.5929 49 3.7415 49 3.9202C49 4.0932 48.9838 4.24687 48.9515 4.38121C48.9198 4.51491 48.8739 4.62771 48.8136 4.71959C48.7539 4.81148 48.6812 4.88118 48.5955 4.92871C48.5104 4.97624 48.4141 5 48.3066 5C48.1997 5 48.1043 4.97845 48.0204 4.93536C47.9372 4.89164 47.8688 4.83112 47.8154 4.75381C47.7626 4.67587 47.7287 4.58557 47.7138 4.48291H47.9412C47.9617 4.57226 48.0024 4.64609 48.0633 4.70439C48.1248 4.76205 48.2059 4.79088 48.3066 4.79088C48.4538 4.79088 48.57 4.7253 48.6551 4.59412C48.7409 4.46295 48.7838 4.2776 48.7838 4.03807H48.7689C48.7341 4.0913 48.6927 4.13724 48.6449 4.17589C48.597 4.21455 48.5439 4.24433 48.4855 4.26524C48.4271 4.28615 48.365 4.29661 48.2991 4.29661C48.1897 4.29661 48.0894 4.26904 47.9981 4.21391C47.9073 4.15815 47.8346 4.08179 47.78 3.98484C47.7259 3.88725 47.6989 3.77572 47.6989 3.65025C47.6989 3.53112 47.725 3.42212 47.7772 3.32327C47.83 3.22378 47.9039 3.14457 47.999 3.08564C48.0947 3.0267 48.2071 2.99819 48.3364 3.00009ZM48.3364 3.20921C48.2581 3.20921 48.1876 3.22917 48.1248 3.26909C48.0627 3.30838 48.0133 3.36161 47.9766 3.42878C47.9406 3.49531 47.9226 3.56914 47.9226 3.65025C47.9226 3.73136 47.94 3.80519 47.9748 3.87172C48.0102 3.93763 48.0583 3.99022 48.1192 4.02951C48.1807 4.06817 48.2506 4.08749 48.3289 4.08749C48.388 4.08749 48.443 4.07577 48.4939 4.05232C48.5449 4.02824 48.5893 3.99561 48.6272 3.95442C48.6657 3.9126 48.6958 3.86539 48.7176 3.81279C48.7393 3.75956 48.7502 3.70411 48.7502 3.64645C48.7502 3.57041 48.7322 3.49912 48.6962 3.43258C48.6607 3.36604 48.6117 3.31218 48.5489 3.27099C48.4868 3.2298 48.4159 3.20921 48.3364 3.20921Z" fill="#3B5998"/>
</g>
<g filter="url(#filter11_d_278_101)">
<path d="M16.3977 36.8977L19 31.75V31.7045H16V31.0795H19.7273V31.7386L17.1364 36.8977H16.3977Z" fill="#3B5998"/>
<path d="M22.5327 36.9773C22.1425 36.9773 21.7978 36.9081 21.4986 36.7699C21.2012 36.6297 20.9692 36.4375 20.8026 36.1932C20.6359 35.947 20.5535 35.6667 20.5554 35.3523C20.5535 35.1061 20.6018 34.8788 20.7003 34.6705C20.7988 34.4602 20.9332 34.285 21.1037 34.1449C21.276 34.0028 21.4683 33.9129 21.6804 33.875V33.8409C21.402 33.7689 21.1804 33.6127 21.0156 33.3722C20.8509 33.1297 20.7694 32.8542 20.7713 32.5455C20.7694 32.25 20.8442 31.9858 20.9957 31.7528C21.1473 31.5199 21.3556 31.3362 21.6207 31.2017C21.8878 31.0672 22.1918 31 22.5327 31C22.8698 31 23.1709 31.0672 23.4361 31.2017C23.7012 31.3362 23.9096 31.5199 24.0611 31.7528C24.2145 31.9858 24.2921 32.25 24.294 32.5455C24.2921 32.8542 24.2079 33.1297 24.0412 33.3722C23.8764 33.6127 23.6577 33.7689 23.3849 33.8409V33.875C23.5952 33.9129 23.7846 34.0028 23.9531 34.1449C24.1217 34.285 24.2562 34.4602 24.3565 34.6705C24.4569 34.8788 24.508 35.1061 24.5099 35.3523C24.508 35.6667 24.4228 35.947 24.2543 36.1932C24.0876 36.4375 23.8556 36.6297 23.5582 36.7699C23.2628 36.9081 22.9209 36.9773 22.5327 36.9773ZM22.5327 36.3523C22.7959 36.3523 23.0232 36.3097 23.2145 36.2244C23.4058 36.1392 23.5535 36.0189 23.6577 35.8636C23.7618 35.7083 23.8149 35.5265 23.8168 35.3182C23.8149 35.0985 23.758 34.9044 23.6463 34.7358C23.5346 34.5672 23.3821 34.4347 23.1889 34.3381C22.9976 34.2415 22.7789 34.1932 22.5327 34.1932C22.2846 34.1932 22.063 34.2415 21.8679 34.3381C21.6747 34.4347 21.5223 34.5672 21.4105 34.7358C21.3007 34.9044 21.2467 35.0985 21.2486 35.3182C21.2467 35.5265 21.2969 35.7083 21.3991 35.8636C21.5033 36.0189 21.652 36.1392 21.8452 36.2244C22.0384 36.3097 22.2675 36.3523 22.5327 36.3523ZM22.5327 33.5909C22.741 33.5909 22.9257 33.5492 23.0866 33.4659C23.2495 33.3826 23.3774 33.2661 23.4702 33.1165C23.563 32.9669 23.6103 32.7917 23.6122 32.5909C23.6103 32.3939 23.5639 32.2225 23.473 32.0767C23.3821 31.929 23.2562 31.8153 23.0952 31.7358C22.9342 31.6544 22.7467 31.6136 22.5327 31.6136C22.3149 31.6136 22.1245 31.6544 21.9616 31.7358C21.7988 31.8153 21.6728 31.929 21.5838 32.0767C21.4948 32.2225 21.4512 32.3939 21.4531 32.5909C21.4512 32.7917 21.4957 32.9669 21.5866 33.1165C21.6795 33.2661 21.8073 33.3826 21.9702 33.4659C22.133 33.5492 22.3205 33.5909 22.5327 33.5909Z" fill="#3B5998"/>
</g>
<g filter="url(#filter12_d_278_101)">
<path d="M41 22.8977V22.3864L42.9205 20.2841C43.1458 20.0379 43.3314 19.8239 43.4773 19.642C43.6231 19.4583 43.7311 19.286 43.8011 19.125C43.8731 18.9621 43.9091 18.7917 43.9091 18.6136C43.9091 18.4091 43.8598 18.232 43.7614 18.0824C43.6648 17.9328 43.5322 17.8172 43.3636 17.7358C43.1951 17.6544 43.0057 17.6136 42.7955 17.6136C42.572 17.6136 42.3769 17.66 42.2102 17.7528C42.0455 17.8438 41.9176 17.9716 41.8267 18.1364C41.7377 18.3011 41.6932 18.4943 41.6932 18.7159H41.0227C41.0227 18.375 41.1013 18.0758 41.2585 17.8182C41.4157 17.5606 41.6297 17.3598 41.9006 17.2159C42.1733 17.072 42.4792 17 42.8182 17C43.1591 17 43.4612 17.072 43.7244 17.2159C43.9877 17.3598 44.1941 17.554 44.3438 17.7983C44.4934 18.0426 44.5682 18.3144 44.5682 18.6136C44.5682 18.8277 44.5294 19.0369 44.4517 19.2415C44.3759 19.4441 44.2434 19.6705 44.054 19.9205C43.8665 20.1686 43.6061 20.4716 43.2727 20.8295L41.9659 22.2273V22.2727H44.6705V22.8977H41Z" fill="#3B5998"/>
<path d="M47.7756 22.9773C47.5369 22.9735 47.2983 22.928 47.0597 22.8409C46.821 22.7538 46.6032 22.607 46.4062 22.4006C46.2093 22.1922 46.0511 21.911 45.9318 21.5568C45.8125 21.2008 45.7528 20.7538 45.7528 20.2159C45.7528 19.7008 45.8011 19.2443 45.8977 18.8466C45.9943 18.447 46.1345 18.1108 46.3182 17.8381C46.5019 17.5634 46.7235 17.3551 46.983 17.2131C47.2443 17.071 47.5388 17 47.8665 17C48.1922 17 48.482 17.0653 48.7358 17.196C48.9915 17.3248 49.1998 17.5047 49.3608 17.7358C49.5218 17.9669 49.6259 18.233 49.6733 18.5341H48.9801C48.9157 18.2727 48.7907 18.0559 48.6051 17.8835C48.4195 17.7112 48.1733 17.625 47.8665 17.625C47.4157 17.625 47.0606 17.821 46.8011 18.2131C46.5436 18.6051 46.4138 19.1553 46.4119 19.8636H46.4574C46.5634 19.7027 46.6894 19.5653 46.8352 19.4517C46.983 19.3362 47.1458 19.2472 47.3239 19.1847C47.5019 19.1222 47.6903 19.0909 47.8892 19.0909C48.2225 19.0909 48.5275 19.1742 48.804 19.3409C49.0805 19.5057 49.3021 19.7339 49.4688 20.0256C49.6354 20.3153 49.7188 20.6477 49.7188 21.0227C49.7188 21.3826 49.6383 21.7121 49.4773 22.0114C49.3163 22.3087 49.09 22.5455 48.7983 22.7216C48.5085 22.8958 48.1676 22.9811 47.7756 22.9773ZM47.7756 22.3523C48.0142 22.3523 48.2282 22.2926 48.4176 22.1733C48.6089 22.054 48.7595 21.8939 48.8693 21.6932C48.9811 21.4924 49.0369 21.2689 49.0369 21.0227C49.0369 20.7822 48.983 20.5634 48.875 20.3665C48.7689 20.1676 48.6222 20.0095 48.4347 19.892C48.2491 19.7746 48.0369 19.7159 47.7983 19.7159C47.6184 19.7159 47.4508 19.7519 47.2955 19.8239C47.1402 19.8939 47.0038 19.9905 46.8864 20.1136C46.7708 20.2367 46.6799 20.3778 46.6136 20.5369C46.5473 20.6941 46.5142 20.8598 46.5142 21.0341C46.5142 21.2652 46.5682 21.4811 46.6761 21.6818C46.786 21.8826 46.9356 22.0445 47.125 22.1676C47.3163 22.2907 47.5331 22.3523 47.7756 22.3523Z" fill="#3B5998"/>
</g>
</g>
<defs>
<filter id="filter0_d_278_101" x="0.6" y="0.6" width="52.8" height="52.8" filterUnits="userSpaceOnUse" color-interpolation-filters="sRGB">
<feFlood flood-opacity="0" result="BackgroundImageFix"/>
<feColorMatrix in="SourceAlpha" type="matrix" values="0 0 0 0 0 0 0 0 0 0 0 0 0 0 0 0 0 0 127 0" result="hardAlpha"/>
<feOffset dy="1"/>
<feGaussianBlur stdDeviation="0.7"/>
<feComposite in2="hardAlpha" operator="out"/>
<feColorMatrix type="matrix" values="0 0 0 0 0.0627451 0 0 0 0 0.247059 0 0 0 0 0.568627 0 0 0 0.63 0"/>
<feBlend mode="normal" in2="BackgroundImageFix" result="effect1_dropShadow_278_101"/>
<feBlend mode="normal" in="SourceGraphic" in2="effect1_dropShadow_278_101" result="shape"/>
</filter>
<filter id="filter1_d_278_101" x="6.9" y="25.9" width="6.35906" height="10.0182" filterUnits="userSpaceOnUse" color-interpolation-filters="sRGB">
<feFlood flood-opacity="0" result="BackgroundImageFix"/>
<feColorMatrix in="SourceAlpha" type="matrix" values="0 0 0 0 0 0 0 0 0 0 0 0 0 0 0 0 0 0 127 0" result="hardAlpha"/>
<feOffset dy="1"/>
<feGaussianBlur stdDeviation="1.05"/>
<feComposite in2="hardAlpha" operator="out"/>
<feColorMatrix type="matrix" values="0 0 0 0 0.231373 0 0 0 0 0.34902 0 0 0 0 0.596078 0 0 0 0.63 0"/>
<feBlend mode="normal" in2="BackgroundImageFix" result="effect1_dropShadow_278_101"/>
<feBlend mode="normal" in="SourceGraphic" in2="effect1_dropShadow_278_101" result="shape"/>
</filter>
<filter id="filter2_d_278_101" x="22.9" y="14.9" width="7.87041" height="10.0977" filterUnits="userSpaceOnUse" color-interpolation-filters="sRGB">
<feFlood flood-opacity="0" result="BackgroundImageFix"/>
<feColorMatrix in="SourceAlpha" type="matrix" values="0 0 0 0 0 0 0 0 0 0 0 0 0 0 0 0 0 0 127 0" result="hardAlpha"/>
<feOffset dy="1"/>
<feGaussianBlur stdDeviation="1.05"/>
<feComposite in2="hardAlpha" operator="out"/>
<feColorMatrix type="matrix" values="0 0 0 0 0.231373 0 0 0 0 0.34902 0 0 0 0 0.596078 0 0 0 0.63 0"/>
<feBlend mode="normal" in2="BackgroundImageFix" result="effect1_dropShadow_278_101"/>
<feBlend mode="normal" in="SourceGraphic" in2="effect1_dropShadow_278_101" result="shape"/>
</filter>
<filter id="filter3_d_278_101" x="28.9" y="24.9" width="14.2" height="17.2" filterUnits="userSpaceOnUse" color-interpolation-filters="sRGB">
<feFlood flood-opacity="0" result="BackgroundImageFix"/>
<feColorMatrix in="SourceAlpha" type="matrix" values="0 0 0 0 0 0 0 0 0 0 0 0 0 0 0 0 0 0 127 0" result="hardAlpha"/>
<feOffset dy="1"/>
<feGaussianBlur stdDeviation="1.05"/>
<feComposite in2="hardAlpha" operator="out"/>
<feColorMatrix type="matrix" values="0 0 0 0 0.231373 0 0 0 0 0.34902 0 0 0 0 0.596078 0 0 0 0.63 0"/>
<feBlend mode="normal" in2="BackgroundImageFix" result="effect1_dropShadow_278_101"/>
<feBlend mode="normal" in="SourceGraphic" in2="effect1_dropShadow_278_101" result="shape"/>
</filter>
<filter id="filter4_d_278_101" x="30.9" y="6.9" width="8.16594" height="10.1774" filterUnits="userSpaceOnUse" color-interpolation-filters="sRGB">
<feFlood flood-opacity="0" result="BackgroundImageFix"/>
<feColorMatrix in="SourceAlpha" type="matrix" values="0 0 0 0 0 0 0 0 0 0 0 0 0 0 0 0 0 0 127 0" result="hardAlpha"/>
<feOffset dy="1"/>
<feGaussianBlur stdDeviation="1.05"/>
<feComposite in2="hardAlpha" operator="out"/>
<feColorMatrix type="matrix" values="0 0 0 0 0.231373 0 0 0 0 0.34902 0 0 0 0 0.596078 0 0 0 0.63 0"/>
<feBlend mode="normal" in2="BackgroundImageFix" result="effect1_dropShadow_278_101"/>
<feBlend mode="normal" in="SourceGraphic" in2="effect1_dropShadow_278_101" result="shape"/>
</filter>
<filter id="filter5_d_278_101" x="41.9" y="39.9" width="9.2" height="12.2" filterUnits="userSpaceOnUse" color-interpolation-filters="sRGB">
<feFlood flood-opacity="0" result="BackgroundImageFix"/>
<feColorMatrix in="SourceAlpha" type="matrix" values="0 0 0 0 0 0 0 0 0 0 0 0 0 0 0 0 0 0 127 0" result="hardAlpha"/>
<feOffset dy="1"/>
<feGaussianBlur stdDeviation="1.05"/>
<feComposite in2="hardAlpha" operator="out"/>
<feColorMatrix type="matrix" values="0 0 0 0 0.231373 0 0 0 0 0.34902 0 0 0 0 0.596078 0 0 0 0.63 0"/>
<feBlend mode="normal" in2="BackgroundImageFix" result="effect1_dropShadow_278_101"/>
<feBlend mode="normal" in="SourceGraphic" in2="effect1_dropShadow_278_101" result="shape"/>
</filter>
<filter id="filter6_d_278_101" x="22.9" y="40.9" width="8.2" height="7.2" filterUnits="userSpaceOnUse" color-interpolation-filters="sRGB">
<feFlood flood-opacity="0" result="BackgroundImageFix"/>
<feColorMatrix in="SourceAlpha" type="matrix" values="0 0 0 0 0 0 0 0 0 0 0 0 0 0 0 0 0 0 127 0" result="hardAlpha"/>
<feOffset dy="1"/>
<feGaussianBlur stdDeviation="1.05"/>
<feComposite in2="hardAlpha" operator="out"/>
<feColorMatrix type="matrix" values="0 0 0 0 0.231373 0 0 0 0 0.34902 0 0 0 0 0.596078 0 0 0 0.63 0"/>
<feBlend mode="normal" in2="BackgroundImageFix" result="effect1_dropShadow_278_101"/>
<feBlend mode="normal" in="SourceGraphic" in2="effect1_dropShadow_278_101" result="shape"/>
</filter>
<filter id="filter7_d_278_101" x="2.9" y="40.9" width="8.16594" height="10.1775" filterUnits="userSpaceOnUse" color-interpolation-filters="sRGB">
<feFlood flood-opacity="0" result="BackgroundImageFix"/>
<feColorMatrix in="SourceAlpha" type="matrix" values="0 0 0 0 0 0 0 0 0 0 0 0 0 0 0 0 0 0 127 0" result="hardAlpha"/>
<feOffset dy="1"/>
<feGaussianBlur stdDeviation="1.05"/>
<feComposite in2="hardAlpha" operator="out"/>
<feColorMatrix type="matrix" values="0 0 0 0 0.231373 0 0 0 0 0.34902 0 0 0 0 0.596078 0 0 0 0.63 0"/>
<feBlend mode="normal" in2="BackgroundImageFix" result="effect1_dropShadow_278_101"/>
<feBlend mode="normal" in="SourceGraphic" in2="effect1_dropShadow_278_101" result="shape"/>
</filter>
<filter id="filter8_d_278_101" x="4.9" y="3.9" width="13.2" height="18.2" filterUnits="userSpaceOnUse" color-interpolation-filters="sRGB">
<feFlood flood-opacity="0" result="BackgroundImageFix"/>
<feColorMatrix in="SourceAlpha" type="matrix" values="0 0 0 0 0 0 0 0 0 0 0 0 0 0 0 0 0 0 127 0" result="hardAlpha"/>
<feOffset dy="1"/>
<feGaussianBlur stdDeviation="1.05"/>
<feComposite in2="hardAlpha" operator="out"/>
<feColorMatrix type="matrix" values="0 0 0 0 0.231373 0 0 0 0 0.34902 0 0 0 0 0.596078 0 0 0 0.63 0"/>
<feBlend mode="normal" in2="BackgroundImageFix" result="effect1_dropShadow_278_101"/>
<feBlend mode="normal" in="SourceGraphic" in2="effect1_dropShadow_278_101" result="shape"/>
</filter>
<filter id="filter9_d_278_101" x="17.9" y="1.9" width="8.2" height="7.2" filterUnits="userSpaceOnUse" color-interpolation-filters="sRGB">
<feFlood flood-opacity="0" result="BackgroundImageFix"/>
<feColorMatrix in="SourceAlpha" type="matrix" values="0 0 0 0 0 0 0 0 0 0 0 0 0 0 0 0 0 0 127 0" result="hardAlpha"/>
<feOffset dy="1"/>
<feGaussianBlur stdDeviation="1.05"/>
<feComposite in2="hardAlpha" operator="out"/>
<feColorMatrix type="matrix" values="0 0 0 0 0.231373 0 0 0 0 0.34902 0 0 0 0 0.596078 0 0 0 0.63 0"/>
<feBlend mode="normal" in2="BackgroundImageFix" result="effect1_dropShadow_278_101"/>
<feBlend mode="normal" in="SourceGraphic" in2="effect1_dropShadow_278_101" result="shape"/>
</filter>
<filter id="filter10_d_278_101" x="43.9" y="1.9" width="7.2" height="6.2" filterUnits="userSpaceOnUse" color-interpolation-filters="sRGB">
<feFlood flood-opacity="0" result="BackgroundImageFix"/>
<feColorMatrix in="SourceAlpha" type="matrix" values="0 0 0 0 0 0 0 0 0 0 0 0 0 0 0 0 0 0 127 0" result="hardAlpha"/>
<feOffset dy="1"/>
<feGaussianBlur stdDeviation="1.05"/>
<feComposite in2="hardAlpha" operator="out"/>
<feColorMatrix type="matrix" values="0 0 0 0 0.231373 0 0 0 0 0.34902 0 0 0 0 0.596078 0 0 0 0.63 0"/>
<feBlend mode="normal" in2="BackgroundImageFix" result="effect1_dropShadow_278_101"/>
<feBlend mode="normal" in="SourceGraphic" in2="effect1_dropShadow_278_101" result="shape"/>
</filter>
<filter id="filter11_d_278_101" x="13.9" y="29.9" width="12.7099" height="10.1773" filterUnits="userSpaceOnUse" color-interpolation-filters="sRGB">
<feFlood flood-opacity="0" result="BackgroundImageFix"/>
<feColorMatrix in="SourceAlpha" type="matrix" values="0 0 0 0 0 0 0 0 0 0 0 0 0 0 0 0 0 0 127 0" result="hardAlpha"/>
<feOffset dy="1"/>
<feGaussianBlur stdDeviation="1.05"/>
<feComposite in2="hardAlpha" operator="out"/>
<feColorMatrix type="matrix" values="0 0 0 0 0.231373 0 0 0 0 0.34902 0 0 0 0 0.596078 0 0 0 0.63 0"/>
<feBlend mode="normal" in2="BackgroundImageFix" result="effect1_dropShadow_278_101"/>
<feBlend mode="normal" in="SourceGraphic" in2="effect1_dropShadow_278_101" result="shape"/>
</filter>
<filter id="filter12_d_278_101" x="38.9" y="15.9" width="12.9187" height="10.1774" filterUnits="userSpaceOnUse" color-interpolation-filters="sRGB">
<feFlood flood-opacity="0" result="BackgroundImageFix"/>
<feColorMatrix in="SourceAlpha" type="matrix" values="0 0 0 0 0 0 0 0 0 0 0 0 0 0 0 0 0 0 127 0" result="hardAlpha"/>
<feOffset dy="1"/>
<feGaussianBlur stdDeviation="1.05"/>
<feComposite in2="hardAlpha" operator="out"/>
<feColorMatrix type="matrix" values="0 0 0 0 0.231373 0 0 0 0 0.34902 0 0 0 0 0.596078 0 0 0 0.63 0"/>
<feBlend mode="normal" in2="BackgroundImageFix" result="effect1_dropShadow_278_101"/>
<feBlend mode="normal" in="SourceGraphic" in2="effect1_dropShadow_278_101" result="shape"/>
</filter>
</defs>
</svg>
