<svg width="40" height="40" viewBox="0 0 40 40" fill="none" xmlns="http://www.w3.org/2000/svg">
<path d="M38.5 7.25L26 19.75M23.917 30.167H9.33301M17.667 21.833H9.33301" stroke="#3B5998" stroke-width="2" stroke-linecap="round" stroke-linejoin="round"/>
<path d="M26.938 8.29199H27.146M37.354 18.708H37.563" stroke="#3B5998" stroke-width="3" stroke-linecap="round" stroke-linejoin="round"/>
<path d="M32.25 28.083V36.417C32.25 36.9694 32.0305 37.4993 31.6399 37.8899C31.2493 38.2805 30.7194 38.5 30.167 38.5H3.083C2.53055 38.5 2.00073 38.2805 1.6101 37.8899C1.21946 37.4993 1 36.9694 1 36.417V3.083C1 2.53055 1.21946 2.00073 1.6101 1.6101C2.00073 1.21946 2.53055 1 3.083 1H17.667" stroke="#3B5998" stroke-width="2" stroke-linecap="round" stroke-linejoin="round"/>
</svg>
