<svg width="30" height="30" viewBox="0 0 30 30" fill="none" xmlns="http://www.w3.org/2000/svg">
<path fill-rule="evenodd" clip-rule="evenodd" d="M0 3C0 1.34315 1.34315 0 3 0H27C28.6569 0 30 1.34315 30 3V27C30 28.6569 28.6569 30 27 30H3C1.34315 30 0 28.6569 0 27V3ZM3 7.28571V6H4.67442V7.28571H25.3256V6H27V7.28571V9.21428V11.1429H25.3256V9.21428H4.67442V11.1429H3V9.21428V7.28571ZM7.46512 17.5714V14.3571H8.5814V15.6429H10.2558V14.3571H11.3721V17.5714H13.0465V14.3571H14.1628V15.6429H15.8372V14.3571H16.9535V17.5714H18.6279V14.3571H19.7442V15.6429H21.4186V14.3571H22.5349V18.2143H24.2093V14.3571H25.3256V18.8571H4.67442V14.3571H5.7907V17.5714H7.46512ZM24.2093 12.4286H22.5349H21.4186H19.7442H18.6279H16.9535H15.8372H14.1628H13.0465H11.3721H10.2558H8.5814H7.46512H5.7907H4.67442H3V14.3571V18.8571V20.7857V22.0714V24H4.67442H25.3256H27V22.0714V20.7857V18.8571V14.3571V12.4286H25.3256H24.2093ZM25.3256 22.0714V20.7857H4.67442V22.0714H25.3256Z" fill="#3B5998"/>
</svg>
