<svg width="30" height="30" viewBox="0 0 30 30" fill="none" xmlns="http://www.w3.org/2000/svg">
<path fill-rule="evenodd" clip-rule="evenodd" d="M3 0C1.34315 0 0 1.34315 0 3V27C0 28.6569 1.34315 30 3 30H27C28.6569 30 30 28.6569 30 27V3C30 1.34315 28.6569 0 27 0H3ZM24 12.2882C23.742 13.6177 19.794 14.6692 14.946 14.6692C12.5818 14.7192 10.2236 14.4116 7.95 13.7567V14.9653C10.2236 15.6202 12.5818 15.9278 14.946 15.8779C19.8 15.8779 23.742 14.8263 24 13.4968V16.9717C23.742 18.2952 19.8 19.3346 14.946 19.3346C12.5827 19.3905 10.2245 19.089 7.95 18.4402V19.6489C10.2245 20.2976 12.5827 20.5991 14.946 20.5433C19.8 20.5433 23.742 19.5038 24 18.1803V21.3228C24 23.438 18.342 24 15 24C11.658 24 6 23.4319 6 21.3228V7.67716C6 5.56202 11.688 5 15 5C18.312 5 23.88 5.55598 24 7.61673C23.712 8.93416 19.8 9.98569 14.946 9.9736C12.5818 10.0236 10.2236 9.71596 7.95 9.06107V10.2697C10.2229 10.9287 12.5812 11.2404 14.946 11.1943C19.8 11.1943 23.742 10.1428 24 8.8133V12.2882Z" fill="#3B5998"/>
</svg>
