<svg width="30" height="30" viewBox="0 0 30 30" fill="none" xmlns="http://www.w3.org/2000/svg">
<path fill-rule="evenodd" clip-rule="evenodd" d="M0 3C0 1.34315 1.34315 0 3 0H27C28.6569 0 30 1.34315 30 3V27C30 28.6569 28.6569 30 27 30H3C1.34315 30 0 28.6569 0 27V3ZM24.379 11.4334C24.7958 11.3081 25.1611 11.0517 25.4207 10.7024C25.6803 10.3531 25.8204 9.92944 25.8202 9.49423V6.02419C25.8202 5.48734 25.607 4.97248 25.2274 4.59287C24.8477 4.21326 24.3329 4 23.796 4C23.2592 4 22.7443 4.21326 22.3647 4.59287C21.9851 4.97248 21.7718 5.48734 21.7718 6.02419V9.49423C21.7717 9.93094 21.9129 10.356 22.1742 10.7059C22.4355 11.0558 22.803 11.3118 23.2217 11.4357C23.2275 12.0862 23.2347 12.7081 23.2431 13.3014L23.2432 13.3045C23.2715 15.4147 23.2951 17.1741 23.1408 18.6366C22.9227 20.7071 22.3658 21.9713 21.1264 22.7012C19.4608 23.6826 16.941 24.0227 14.8196 23.7555C13.763 23.6225 12.8596 23.3449 12.2391 22.9655C11.9881 22.8122 11.7966 22.652 11.6573 22.4866C12.7122 22.4271 13.7422 22.2362 14.5802 21.8956C15.6079 21.4774 16.539 20.7395 16.5662 19.5741C17.529 19.434 18.4092 18.952 19.0458 18.2162C19.6824 17.4804 20.0327 16.54 20.0328 15.567C20.0329 14.5941 19.6827 13.6536 19.0462 12.9177C18.4097 12.1818 17.5296 11.6997 16.5668 11.5595V8.11893H16.5651C16.5662 8.0958 16.5668 8.07228 16.5668 8.04838C16.5668 6.45158 13.9776 5.15668 10.7834 5.15668C7.58923 5.15668 5 6.45158 5 8.04838C5 8.0719 5.00058 8.09542 5.00173 8.11893H5V19.5226C5 20.6706 5.96294 21.404 6.98371 21.8273C7.93218 22.2206 9.13224 22.4404 10.3381 22.4936C10.5625 23.1089 11.0494 23.5941 11.6359 23.9527C12.445 24.4472 13.5236 24.7583 14.675 24.9035C16.9687 25.1921 19.7667 24.8457 21.7134 23.6977C23.4288 22.6873 24.0598 20.9575 24.2911 18.7575C24.4523 17.2298 24.4278 15.3732 24.3996 13.2339L24.3992 13.2037C24.3908 12.6331 24.384 12.043 24.379 11.4334ZM24.4095 5.41077C24.2468 5.24808 24.0261 5.15668 23.796 5.15668C23.566 5.15668 23.3453 5.24808 23.1826 5.41077C23.0199 5.57346 22.9285 5.79411 22.9285 6.02419V9.49423C22.9285 9.7243 23.0199 9.94496 23.1826 10.1076C23.3453 10.2703 23.566 10.3617 23.796 10.3617C24.0261 10.3617 24.2468 10.2703 24.4095 10.1076C24.5721 9.94496 24.6635 9.7243 24.6635 9.49423V6.02419C24.6635 5.79411 24.5721 5.57346 24.4095 5.41077ZM14.3558 9.05874C15.2794 8.59664 15.4101 8.17272 15.4101 8.04838C15.4101 7.92403 15.2794 7.50011 14.3558 7.03802C13.5016 6.6112 12.2397 6.31336 10.7834 6.31336C9.32714 6.31336 8.06578 6.6112 7.21099 7.03802C6.28738 7.50011 6.15668 7.92403 6.15668 8.04838C6.15668 8.17272 6.28738 8.59664 7.21099 9.05874C8.0652 9.48555 9.32714 9.7834 10.7834 9.7834C12.2397 9.7834 13.501 9.48555 14.3558 9.05874ZM10.7834 10.9401C12.6751 10.9401 14.3546 10.4861 15.4101 9.7834V11.5589C14.4462 11.6975 13.5645 12.1789 12.9267 12.9148C12.2889 13.6508 11.9377 14.5919 11.9375 15.5658C11.9373 16.5396 12.2881 17.4809 12.9255 18.2171C13.563 18.9533 14.4445 19.4351 15.4084 19.5741C15.3829 20.0241 15.0192 20.4676 14.1441 20.8245C13.2622 21.183 12.0436 21.3641 10.7898 21.349C10.6116 21.3475 10.4341 21.3417 10.2571 21.3317V10.9285C10.4306 10.9362 10.606 10.9401 10.7834 10.9401ZM18.0332 17.6115C18.5755 17.0692 18.8801 16.3337 18.8801 15.5668C18.8801 14.7999 18.5755 14.0644 18.0332 13.5221C17.4909 12.9798 16.7554 12.6751 15.9885 12.6751C15.2215 12.6751 14.486 12.9798 13.9437 13.5221C13.4014 14.0644 13.0968 14.7999 13.0968 15.5668C13.0968 16.3337 13.4014 17.0692 13.9437 17.6115C14.486 18.1538 15.2215 18.4585 15.9885 18.4585C16.7554 18.4585 17.4909 18.1538 18.0332 17.6115ZM15.9885 12.9643L15.1209 15.856L15.9885 17.0126L16.856 15.856L15.9885 12.9643Z" fill="#3B5998"/>
</svg>
