<svg width="30" height="30" viewBox="0 0 30 30" fill="none" xmlns="http://www.w3.org/2000/svg">
<path fill-rule="evenodd" clip-rule="evenodd" d="M3 0C1.34315 0 0 1.34315 0 3V27C0 28.6569 1.34315 30 3 30H27C28.6569 30 30 28.6569 30 27V3C30 1.34315 28.6569 0 27 0H3ZM7.088 22.762C7.396 22.9207 7.73333 23 8.1 23H21.874C22.242 23.0007 22.58 22.9217 22.888 22.763C23.196 22.6043 23.4417 22.3667 23.625 22.05C24.0923 21.2507 24.4383 20.4133 24.663 19.538C24.8877 18.6627 24.9917 17.7667 24.975 16.85C24.9583 15.4833 24.6833 14.2043 24.15 13.013C23.6167 11.8217 22.9 10.78 22 9.888C21.1 8.996 20.05 8.29167 18.85 7.775C17.65 7.25833 16.3667 7 15 7C13.6173 7.00067 12.3173 7.26333 11.1 7.788C9.88267 8.31267 8.82433 9.025 7.925 9.925C7.02567 10.825 6.31333 11.8833 5.788 13.1C5.26267 14.3167 5 15.6167 5 17C5 17.9007 5.11667 18.7717 5.35 19.613C5.58333 20.4543 5.91667 21.2667 6.35 22.05C6.534 22.366 6.78 22.6033 7.088 22.762Z" fill="#3B5998"/>
<path d="M13.45 18.5C13.8667 18.9167 14.3917 19.1127 15.025 19.088C15.6583 19.0633 16.1167 18.834 16.4 18.4L22 10L13.6 15.6C13.1667 15.9 12.9293 16.354 12.888 16.962C12.8467 17.57 13.034 18.0827 13.45 18.5Z" fill="#3B5998"/>
</svg>
