<svg width="30" height="30" viewBox="0 0 30 30" fill="none" xmlns="http://www.w3.org/2000/svg">
<path fill-rule="evenodd" clip-rule="evenodd" d="M3 0C1.34315 0 0 1.34315 0 3V27C0 28.6569 1.34315 30 3 30H27C28.6569 30 30 28.6569 30 27V3C30 1.34315 28.6569 0 27 0H3ZM15.0943 10.493V17.6279C16.0082 18.1039 16.6394 19.0565 16.6394 20.1646C16.6281 20.9179 16.3233 21.6365 15.7911 22.1652C15.2589 22.6938 14.5418 22.9901 13.7948 22.99C13.0478 22.9899 12.3308 22.6935 11.7987 22.1647C11.2666 21.6359 10.962 20.9173 10.9508 20.1639C10.9508 19.0559 11.582 18.1039 12.494 17.6265V10.493H15.0943ZM17.0444 8.27826C17.0444 6.47128 15.5857 5 13.7942 5C12.0026 5 10.5439 6.47194 10.5439 8.27826V16.6227C10.0569 17.0724 9.66809 17.6194 9.40228 18.229C9.13647 18.8386 8.99947 19.4973 9 20.1633C9 22.8291 11.1517 25 13.7948 25C16.4379 25 18.589 22.8298 18.589 20.1633C18.589 18.7956 18.0182 17.521 17.0451 16.6214V8.27957L17.0444 8.27826ZM16.2634 22.6551C16.9184 21.9948 17.287 21.0993 17.2882 20.1652C17.2882 19.5896 17.1473 19.0222 16.878 18.5147C16.6086 18.0072 16.2192 17.5747 15.7443 17.2554V8.27957C15.7443 7.19512 14.8693 6.31261 13.7942 6.31261C12.719 6.31261 11.8459 7.19578 11.8459 8.27957V17.2548C10.8839 17.9072 10.3014 18.9877 10.3014 20.1646C10.3026 21.0985 10.671 21.9938 11.3257 22.6542C11.9805 23.3146 12.8682 23.6862 13.7942 23.6874C14.7203 23.6867 15.6083 23.3154 16.2634 22.6551ZM21 12.1964L18.0748 10.493L21 8.79098V12.1964Z" fill="#3B5998"/>
</svg>
