<svg width="30" height="30" viewBox="0 0 30 30" fill="none" xmlns="http://www.w3.org/2000/svg">
<path fill-rule="evenodd" clip-rule="evenodd" d="M3 0C1.34315 0 0 1.34315 0 3V27C0 28.6569 1.34315 30 3 30H27C28.6569 30 30 28.6569 30 27V3C30 1.34315 28.6569 0 27 0H3ZM25 15C25 9.477 20.523 5 15 5C9.477 5 5 9.477 5 15C5 20.523 9.477 25 15 25C20.523 25 25 20.523 25 15ZM15 9C14.7348 9 14.4804 9.10536 14.2929 9.29289C14.1054 9.48043 14 9.73478 14 10V15C14.0001 15.2652 14.1055 15.5195 14.293 15.707L17.293 18.707C17.4816 18.8892 17.7342 18.99 17.9964 18.9877C18.2586 18.9854 18.5094 18.8802 18.6948 18.6948C18.8802 18.5094 18.9854 18.2586 18.9877 17.9964C18.99 17.7342 18.8892 17.4816 18.707 17.293L16 14.586V10C16 9.73478 15.8946 9.48043 15.7071 9.29289C15.5196 9.10536 15.2652 9 15 9Z" fill="#3B5998"/>
</svg>
