<svg width="30" height="31" viewBox="0 0 30 31" fill="none" xmlns="http://www.w3.org/2000/svg">
<path fill-rule="evenodd" clip-rule="evenodd" d="M27 0.890625H3C1.34315 0.890625 0 2.23377 0 3.89063V27.8906C0 29.5475 1.34315 30.8906 3 30.8906H27C28.6569 30.8906 30 29.5475 30 27.8906V3.89062C30 2.23377 28.6569 0.890625 27 0.890625ZM12.046 9.89673C11.7942 9.87733 11.559 9.7634 11.3874 9.5777C11.2157 9.39201 11.1204 9.14825 11.1204 8.89515C11.1204 8.64206 11.2157 8.3983 11.3874 8.21261C11.559 8.02691 11.7942 7.91298 12.046 7.89358H19.122C19.2597 7.88297 19.3982 7.901 19.5286 7.94652C19.659 7.99204 19.7787 8.06409 19.88 8.15813C19.9813 8.25217 20.0622 8.36618 20.1175 8.49301C20.1728 8.61984 20.2013 8.75675 20.2013 8.89515C20.2013 9.03356 20.1728 9.17047 20.1175 9.2973C20.0622 9.42413 19.9813 9.53814 19.88 9.63218C19.7787 9.72622 19.659 9.79826 19.5286 9.84379C19.3982 9.88931 19.2597 9.90734 19.122 9.89673H16V11.5448H20.1245C20.3661 11.5461 20.5979 11.6409 20.7715 11.8093C20.945 11.9778 21.047 12.2069 21.0561 12.4488V13.7193H22.1117C22.3593 13.7208 22.5963 13.8205 22.7708 13.9965C22.9454 14.1726 23.0433 14.4106 23.0433 14.6588L23.0315 16.0185H24.3878V14.0921H25.632L27 18.3466L25.6261 22.6011H24.3878V20.7457H23.0315L23.0433 21.957C23.0433 22.2046 22.9452 22.4421 22.7704 22.6172C22.5957 22.7923 22.3587 22.8906 22.1117 22.8906H14.1158C13.9771 22.8913 13.8415 22.8501 13.7266 22.7724L10.7841 20.722H8.30163C8.02169 20.722 7.75322 20.6106 7.55527 20.4122C7.35733 20.2139 7.24612 19.9448 7.24612 19.6643V19H6.00192V19.8652C5.98257 20.1176 5.86887 20.3533 5.68356 20.5252C5.49825 20.6972 5.255 20.7928 5.00244 20.7928C4.74987 20.7928 4.50662 20.6972 4.32131 20.5252C4.136 20.3533 4.0223 20.1176 4.00295 19.8652V13.8558C3.99236 13.7178 4.01035 13.5791 4.05578 13.4484C4.10121 13.3177 4.1731 13.1978 4.26695 13.0962C4.36079 12.9947 4.47457 12.9137 4.60113 12.8582C4.72769 12.8028 4.86432 12.7742 5.00244 12.7742C5.14055 12.7742 5.27718 12.8028 5.40374 12.8582C5.53031 12.9137 5.64408 12.9947 5.73793 13.0962C5.83177 13.1978 5.90366 13.3177 5.94909 13.4484C5.99452 13.5791 6.01251 13.7178 6.00192 13.8558V18H7.24612V14.0856C7.25074 13.8076 7.3638 13.5425 7.56108 13.347C7.75836 13.1515 8.02419 13.0412 8.30163 13.0397H9.12716L10.6957 11.7043C10.8158 11.6017 10.9683 11.5452 11.1261 11.5448H15V9.89673H12.046Z" fill="#3B5998"/>
</svg>
