<svg width="30" height="30" viewBox="0 0 30 30" fill="none" xmlns="http://www.w3.org/2000/svg">
<path fill-rule="evenodd" clip-rule="evenodd" d="M3 0C1.34315 0 0 1.34315 0 3V27C0 28.6569 1.34315 30 3 30H27C28.6569 30 30 28.6569 30 27V3C30 1.34315 28.6569 0 27 0H3ZM7.13867 6.25H10V5H5V10H6.25V7.13867L9.56055 10.4395L10.4395 9.56055L7.13867 6.25ZM11.25 18.75V11.25H18.75V18.75H11.25ZM12.5 17.5V12.5H17.5V17.5H12.5ZM7.13867 23.75L10.4395 20.4395L9.56055 19.5605L6.25 22.8613V20H5V25H10V23.75H7.13867ZM23.75 22.8613V20H25V25H20V23.75H22.8613L19.5605 20.4395L20.4395 19.5605L23.75 22.8613ZM25 5H20V6.25H22.8613L19.5605 9.56055L20.4395 10.4395L23.75 7.13867V10H25V5Z" fill="#3B5998"/>
</svg>
