<svg width="30" height="30" viewBox="0 0 30 30" fill="none" xmlns="http://www.w3.org/2000/svg">
<path fill-rule="evenodd" clip-rule="evenodd" d="M3 0C1.34315 0 0 1.34315 0 3V27C0 28.6569 1.34315 30 3 30H27C28.6569 30 30 28.6569 30 27V3C30 1.34315 28.6569 0 27 0H3ZM18.9741 10H16.6281C16.7161 9.85867 16.7864 9.70267 16.8391 9.532C16.8918 9.36067 16.9181 9.18333 16.9181 9C16.9181 8.436 16.7258 7.96167 16.3411 7.577C15.9564 7.19233 15.4821 7 14.9181 7C14.3541 7 13.8798 7.19233 13.4951 7.577C13.1104 7.96167 12.9181 8.436 12.9181 9C12.9181 9.18333 12.9448 9.36067 12.9981 9.532C13.0508 9.70267 13.1214 9.85867 13.2101 10H10.8631C10.4531 10 10.0991 10.1313 9.80111 10.394C9.50578 10.6567 9.32911 10.9913 9.27111 11.398L8.01911 20.167C7.94844 20.6517 8.07378 21.0783 8.39511 21.447C8.71644 21.8157 9.12778 22 9.62911 22H20.2071C20.7084 22 21.1194 21.8157 21.4401 21.447C21.7614 21.0783 21.8868 20.652 21.8161 20.168L20.5641 11.398C20.5068 10.9913 20.3301 10.6567 20.0341 10.394C19.7374 10.1313 19.3841 10 18.9741 10ZM14.9181 10C15.2014 10 15.4391 9.904 15.6311 9.712C15.8231 9.52 15.9188 9.28267 15.9181 9C15.9174 8.71733 15.8214 8.48 15.6301 8.288C15.4388 8.096 15.2014 8 14.9181 8C14.6348 8 14.3974 8.096 14.2061 8.288C14.0148 8.48 13.9188 8.71733 13.9181 9C13.9174 9.28267 14.0134 9.52033 14.2061 9.713C14.3988 9.90567 14.6361 10.0013 14.9181 10Z" fill="#3B5998"/>
</svg>
