<svg width="52" height="52" viewBox="0 0 52 52" fill="none" xmlns="http://www.w3.org/2000/svg">
<path d="M35.348 7.97668H15.5489C10.7247 7.97668 6.81396 11.8874 6.81396 16.7116V36.5107C6.81396 41.3349 10.7247 45.2456 15.5489 45.2456H35.348C40.1721 45.2456 44.0829 41.3349 44.0829 36.5107V16.7116C44.0829 11.8874 40.1721 7.97668 35.348 7.97668Z" fill="#3B5998"/>
<path d="M12.9596 26.6102C12.9596 31.5534 15.8324 35.8254 19.998 37.8498L14.0408 21.5278C13.3267 23.1269 12.9583 24.8588 12.9596 26.6102ZM33.8788 25.98C33.8788 24.4367 33.3244 23.3678 32.849 22.5358C32.2158 21.5071 31.6224 20.636 31.6224 19.6073C31.6224 18.4592 32.4932 17.3906 33.7196 17.3906C33.775 17.3906 33.8274 17.3975 33.8814 17.4005C31.6596 15.365 28.6995 14.1222 25.448 14.1222C21.0852 14.1222 17.2467 16.3607 15.0138 19.7513C15.3067 19.76 15.5828 19.7663 15.8174 19.7663C17.1237 19.7663 19.1457 19.6076 19.1457 19.6076C19.8188 19.568 19.8983 20.5568 19.2257 20.6364C19.2257 20.6364 18.5492 20.716 17.7964 20.7555L22.3441 34.2826L25.0771 26.086L23.1314 20.755C22.459 20.7156 21.8219 20.636 21.8219 20.636C21.1489 20.5965 21.2278 19.5675 21.9008 19.6073C21.9008 19.6073 23.9631 19.7657 25.1902 19.7657C26.4964 19.7657 28.5185 19.6073 28.5185 19.6073C29.1923 19.5675 29.2713 20.5563 28.5986 20.636C28.5986 20.636 27.9206 20.7156 27.1693 20.755L31.6824 34.1797L32.928 30.0172C33.468 28.2898 33.8788 27.0491 33.8788 25.98Z" fill="white"/>
<path d="M25.6673 27.7027L21.9203 38.5907C23.0659 38.9281 24.2539 39.0995 25.4482 39.0995C26.8606 39.1 28.2629 38.8606 29.5952 38.3916C29.5606 38.337 29.5308 38.2794 29.5064 38.2195L25.6673 27.7027ZM36.4063 20.6187C36.4631 21.0443 36.4912 21.4733 36.4904 21.9027C36.4904 23.17 36.2537 24.5946 35.5408 26.376L31.7261 37.4051C35.4389 35.24 37.9362 31.2177 37.9362 26.6105C37.9363 24.4392 37.3818 22.3974 36.4063 20.6187Z" fill="white"/>
<path d="M25.4481 12.053C17.4211 12.053 10.8903 18.5833 10.8903 26.6103C10.8903 34.6382 17.4211 41.1683 25.4481 41.1683C33.4748 41.1683 40.0066 34.6382 40.0066 26.6103C40.0063 18.5833 33.4748 12.053 25.4481 12.053ZM25.4481 40.5011C17.7891 40.5011 11.5578 34.2696 11.5578 26.6103C11.5578 18.9514 17.7889 12.7205 25.4481 12.7205C33.1068 12.7205 39.3377 18.9514 39.3377 26.6103C39.3377 34.2696 33.1068 40.5011 25.4481 40.5011Z" fill="white"/>
<path d="M51 26C51 39.8075 39.8075 51 26 51C12.1925 51 1 39.8075 1 26C1 12.1925 12.1925 1 26 1C39.8075 1 51 12.1925 51 26Z" stroke="#001B55" stroke-width="1.5" stroke-linecap="round" stroke-linejoin="round"/>
<path d="M26.0001 28.5C27.3262 28.5 28.598 27.9732 29.5357 27.0355C30.4733 26.0979 31.0001 24.8261 31.0001 23.5C31.0001 22.1739 30.4733 20.9021 29.5357 19.9645C28.598 19.0268 27.3262 18.5 26.0001 18.5C24.674 18.5 23.4023 19.0268 22.4646 19.9645C21.5269 20.9021 21.0001 22.1739 21.0001 23.5C21.0001 24.8261 21.5269 26.0979 22.4646 27.0355C23.4023 27.9732 24.674 28.5 26.0001 28.5Z" fill="#001B55"/>
<path d="M26.0001 28.5C27.3262 28.5 28.598 27.9732 29.5357 27.0355C30.4733 26.0979 31.0001 24.8261 31.0001 23.5C31.0001 22.1739 30.4733 20.9021 29.5357 19.9645C28.598 19.0268 27.3262 18.5 26.0001 18.5C24.674 18.5 23.4023 19.0268 22.4646 19.9645C21.5269 20.9021 21.0001 22.1739 21.0001 23.5C21.0001 24.8261 21.5269 26.0979 22.4646 27.0355C23.4023 27.9732 24.674 28.5 26.0001 28.5ZM26.0001 28.5V36" stroke="#001B55" stroke-width="1.5" stroke-linecap="round" stroke-linejoin="round"/>
<rect x="25" y="21" width="2" height="5" rx="1" fill="#8B9DC3"/>
</svg>
