<svg width="50" height="33" viewBox="0 0 50 33" fill="none" xmlns="http://www.w3.org/2000/svg">
<path d="M4.05869 31.5214H0L11.739 0H15.7352L27.4742 31.5214H23.4155L13.862 4.98678H13.6122L4.05869 31.5214ZM5.55729 19.2083H21.917V22.5944H5.55729V19.2083Z" fill="#3B5998"/>
<path d="M39.0103 32.0755C37.4909 32.0755 36.112 31.7933 34.8736 31.2289C33.6351 30.6543 32.6517 29.8283 31.9232 28.751C31.1947 27.6633 30.8305 26.3499 30.8305 24.8108C30.8305 23.4563 31.101 22.3584 31.6422 21.517C32.1834 20.6654 32.9066 19.9984 33.812 19.5162C34.7174 19.0339 35.7165 18.6748 36.8092 18.4388C37.9124 18.1925 39.0207 17.9976 40.1342 17.8539C41.5912 17.6692 42.7724 17.5307 43.6778 17.4383C44.5936 17.3357 45.2597 17.1664 45.6759 16.9304C46.1026 16.6944 46.3159 16.284 46.3159 15.6991V15.576C46.3159 14.0574 45.8945 12.8774 45.0515 12.036C44.219 11.1946 42.9545 10.7739 41.2582 10.7739C39.4994 10.7739 38.1205 11.1536 37.1214 11.9129C36.1224 12.6722 35.4199 13.4828 35.014 14.3447L31.5173 13.1134C32.1417 11.6769 32.9743 10.5584 34.015 9.75809C35.0661 8.94748 36.2108 8.38313 37.4493 8.06504C38.6981 7.73669 39.9261 7.57252 41.1333 7.57252C41.9034 7.57252 42.788 7.66487 43.7871 7.84956C44.7965 8.024 45.7696 8.38826 46.7062 8.94234C47.6532 9.49643 48.439 10.3327 49.0634 11.4511C49.6878 12.5696 50 14.0676 50 15.9454V31.5214H46.3159V28.32H46.1286C45.8789 28.833 45.4626 29.382 44.8798 29.9669C44.297 30.5517 43.5217 31.0494 42.5539 31.4598C41.586 31.8703 40.4048 32.0755 39.0103 32.0755ZM39.5723 28.8125C41.0292 28.8125 42.2573 28.5303 43.2563 27.966C44.2658 27.4016 45.0255 26.6731 45.5354 25.7804C46.0558 24.8877 46.3159 23.9489 46.3159 22.9638V19.6393C46.1598 19.824 45.8164 19.9933 45.2857 20.1472C44.7653 20.2909 44.1617 20.4191 43.4749 20.532C42.7984 20.6346 42.1376 20.727 41.4923 20.809C40.8575 20.8809 40.3424 20.9424 39.9469 20.9937C38.9895 21.1169 38.0945 21.317 37.2619 21.594C36.4398 21.8608 35.7738 22.2661 35.2638 22.8099C34.7643 23.3435 34.5145 24.072 34.5145 24.9955C34.5145 26.2576 34.988 27.2118 35.9351 27.8583C36.8925 28.4944 38.1049 28.8125 39.5723 28.8125Z" fill="#3B5998"/>
</svg>
