<svg width="50" height="28" viewBox="0 0 50 28" fill="none" xmlns="http://www.w3.org/2000/svg">
<path d="M0 7.94216H8.12687V16.402L4.86795 23.18H0.816771L4.05935 16.402H0V7.94216Z" fill="#3B5998"/>
<path d="M17.1657 6.01434C16.8848 6.01434 16.6299 5.96143 16.4009 5.85562C16.172 5.74787 15.9902 5.59299 15.8555 5.39098C15.7208 5.18703 15.6535 4.94077 15.6535 4.65217C15.6535 4.3982 15.7035 4.19234 15.8035 4.03457C15.9036 3.87488 16.0373 3.74983 16.2047 3.6594C16.3721 3.56897 16.5568 3.50163 16.7588 3.45738C16.9627 3.41121 17.1676 3.37465 17.3735 3.34772C17.6428 3.31308 17.8612 3.28711 18.0286 3.26979C18.1979 3.25055 18.321 3.21881 18.398 3.17456C18.4769 3.13031 18.5163 3.05335 18.5163 2.94368V2.92059C18.5163 2.63584 18.4384 2.41459 18.2826 2.25682C18.1286 2.09906 17.8949 2.02017 17.5813 2.02017C17.2561 2.02017 17.0012 2.09136 16.8165 2.23373C16.6318 2.37611 16.5019 2.5281 16.4269 2.68972L15.7804 2.45884C15.8959 2.18948 16.0498 1.97977 16.2422 1.8297C16.4365 1.67771 16.6481 1.57189 16.8771 1.51224C17.108 1.45068 17.335 1.41989 17.5582 1.41989C17.7006 1.41989 17.8641 1.43721 18.0488 1.47184C18.2354 1.50455 18.4153 1.57285 18.5885 1.67674C18.7636 1.78064 18.9088 1.93744 19.0243 2.14716C19.1397 2.35687 19.1974 2.63777 19.1974 2.98986V5.91045H18.5163V5.31017H18.4817C18.4355 5.40637 18.3586 5.5093 18.2508 5.61897C18.1431 5.72863 17.9997 5.82195 17.8208 5.8989C17.6419 5.97586 17.4235 6.01434 17.1657 6.01434ZM17.2696 5.40252C17.5389 5.40252 17.766 5.34961 17.9507 5.24379C18.1373 5.13797 18.2778 5.00137 18.372 4.83398C18.4682 4.6666 18.5163 4.49056 18.5163 4.30585V3.68249C18.4875 3.71712 18.424 3.74886 18.3259 3.77772C18.2297 3.80466 18.1181 3.82871 17.9911 3.84987C17.866 3.86911 17.7439 3.88643 17.6246 3.90182C17.5072 3.91529 17.412 3.92683 17.3389 3.93645C17.1618 3.95954 16.9964 3.99706 16.8425 4.049C16.6905 4.09903 16.5673 4.17502 16.4731 4.27699C16.3807 4.37704 16.3345 4.51364 16.3345 4.6868C16.3345 4.92345 16.4221 5.10238 16.5972 5.22359C16.7742 5.34288 16.9983 5.40252 17.2696 5.40252Z" fill="#3B5998"/>
<path d="M20.5329 5.91045V0H21.214V2.18179H21.2717C21.3217 2.10483 21.391 2.00671 21.4795 1.88742C21.5699 1.76621 21.6988 1.65847 21.8662 1.56419C22.0355 1.46799 22.2645 1.41989 22.5531 1.41989C22.9263 1.41989 23.2553 1.51321 23.5401 1.69983C23.8248 1.88646 24.047 2.151 24.2067 2.49347C24.3664 2.83594 24.4463 3.23997 24.4463 3.70557C24.4463 4.17502 24.3664 4.58194 24.2067 4.92634C24.047 5.2688 23.8258 5.53431 23.543 5.72286C23.2601 5.90949 22.934 6.0028 22.5646 6.0028C22.2799 6.0028 22.0519 5.95566 21.8806 5.86139C21.7094 5.76519 21.5776 5.65648 21.4853 5.53527C21.3929 5.41214 21.3217 5.31017 21.2717 5.22936H21.1909V5.91045H20.5329ZM21.2024 3.69403C21.2024 4.0288 21.2515 4.32413 21.3496 4.58002C21.4477 4.83398 21.5911 5.03312 21.7796 5.17741C21.9682 5.31979 22.1991 5.39098 22.4723 5.39098C22.757 5.39098 22.9946 5.31594 23.1851 5.16587C23.3775 5.01388 23.5218 4.80994 23.618 4.55405C23.7161 4.29623 23.7652 4.00956 23.7652 3.69403C23.7652 3.38235 23.7171 3.10145 23.6209 2.85133C23.5266 2.59929 23.3833 2.40016 23.1909 2.25394C23.0004 2.10579 22.7609 2.03172 22.4723 2.03172C22.1952 2.03172 21.9624 2.10194 21.7739 2.24239C21.5853 2.38092 21.4429 2.57524 21.3467 2.82536C21.2505 3.07355 21.2024 3.36311 21.2024 3.69403Z" fill="#3B5998"/>
<path d="M24.7846 10.1586V16.069H24.0689V10.9089H24.0343L22.5913 11.8671V11.1398L24.0689 10.1586H24.7846Z" fill="#3B5998"/>
<path d="M26.4845 16.069V15.5496L28.4354 13.4139C28.6643 13.1638 28.8529 12.9464 29.001 12.7617C29.1492 12.5751 29.2588 12.4 29.33 12.2365C29.4031 12.071 29.4397 11.8979 29.4397 11.717C29.4397 11.5092 29.3897 11.3293 29.2896 11.1773C29.1915 11.0253 29.0568 10.908 28.8856 10.8252C28.7144 10.7425 28.522 10.7011 28.3084 10.7011C28.0814 10.7011 27.8832 10.7483 27.7139 10.8426C27.5465 10.9349 27.4166 11.0648 27.3243 11.2322C27.2339 11.3995 27.1886 11.5958 27.1886 11.8209H26.5076C26.5076 11.4746 26.5874 11.1706 26.7471 10.9089C26.9068 10.6473 27.1242 10.4433 27.3993 10.2971C27.6764 10.1509 27.9871 10.0778 28.3315 10.0778C28.6778 10.0778 28.9847 10.1509 29.2521 10.2971C29.5195 10.4433 29.7292 10.6405 29.8812 10.8887C30.0332 11.1369 30.1092 11.413 30.1092 11.717C30.1092 11.9344 30.0698 12.147 29.9909 12.3548C29.914 12.5607 29.7793 12.7906 29.5869 13.0445C29.3964 13.2966 29.1319 13.6044 28.7932 13.9681L27.4657 15.3879V15.4341H30.2131V16.069H26.4845Z" fill="#3B5998"/>
<path d="M32.5479 13.4832L32.594 12.2134L31.5205 12.8945L31.2434 12.4096L32.3747 11.8209L31.2434 11.2322L31.5205 10.7473L32.594 11.4284L32.5479 10.1586H33.102L33.0558 11.4284L34.1294 10.7473L34.4064 11.2322L33.2751 11.8209L34.4064 12.4096L34.1294 12.8945L33.0558 12.2134L33.102 13.4832H32.5479Z" fill="#3B5998"/>
<path d="M36.6113 13.4832L36.6575 12.2134L35.5839 12.8945L35.3069 12.4096L36.4381 11.8209L35.3069 11.2322L35.5839 10.7473L36.6575 11.4284L36.6113 10.1586H37.1654L37.1192 11.4284L38.1928 10.7473L38.4699 11.2322L37.3386 11.8209L38.4699 12.4096L38.1928 12.8945L37.1192 12.2134L37.1654 13.4832H36.6113Z" fill="#3B5998"/>
<path d="M40.6747 13.4832L40.7209 12.2134L39.6473 12.8945L39.3703 12.4096L40.5016 11.8209L39.3703 11.2322L39.6473 10.7473L40.7209 11.4284L40.6747 10.1586H41.2288L41.1827 11.4284L42.2562 10.7473L42.5333 11.2322L41.402 11.8209L42.5333 12.4096L42.2562 12.8945L41.1827 12.2134L41.2288 13.4832H40.6747Z" fill="#3B5998"/>
<path d="M47.096 15.261L47.0643 15.5784C47.0392 15.8324 46.9911 16.0854 46.92 16.3374C46.8507 16.5914 46.7776 16.8213 46.7006 17.0272C46.6256 17.233 46.565 17.3946 46.5188 17.512H45.7223C45.7511 17.3985 45.7906 17.2398 45.8406 17.0358C45.8906 16.8338 45.9378 16.6068 45.982 16.3547C46.0263 16.1027 46.0542 15.8458 46.0657 15.5842L46.0801 15.261H47.096Z" fill="#3B5998"/>
<path d="M23.8496 23.6418L23.8958 22.372L22.8222 23.0531L22.5451 22.5682L23.6764 21.9795L22.5451 21.3907L22.8222 20.9059L23.8958 21.587L23.8496 20.3172H24.4037L24.3575 21.587L25.4311 20.9059L25.7081 21.3907L24.5768 21.9795L25.7081 22.5682L25.4311 23.0531L24.3575 22.372L24.4037 23.6418H23.8496Z" fill="#3B5998"/>
<path d="M27.913 23.6418L27.9592 22.372L26.8856 23.0531L26.6086 22.5682L27.7399 21.9795L26.6086 21.3907L26.8856 20.9059L27.9592 21.587L27.913 20.3172H28.4671L28.4209 21.587L29.4945 20.9059L29.7716 21.3907L28.6403 21.9795L29.7716 22.5682L29.4945 23.0531L28.4209 22.372L28.4671 23.6418H27.913Z" fill="#3B5998"/>
<path d="M31.9765 23.6418L32.0226 22.372L30.9491 23.0531L30.672 22.5682L31.8033 21.9795L30.672 21.3907L30.9491 20.9059L32.0226 21.587L31.9765 20.3172H32.5306L32.4844 21.587L33.558 20.9059L33.835 21.3907L32.7037 21.9795L33.835 22.5682L33.558 23.0531L32.4844 22.372L32.5306 23.6418H31.9765Z" fill="#3B5998"/>
<path d="M36.0399 23.6418L36.0861 22.372L35.0125 23.0531L34.7354 22.5682L35.8667 21.9795L34.7354 21.3907L35.0125 20.9059L36.0861 21.587L36.0399 20.3172H36.594L36.5478 21.587L37.6214 20.9059L37.8984 21.3907L36.7672 21.9795L37.8984 22.5682L37.6214 23.0531L36.5478 22.372L36.594 23.6418H36.0399Z" fill="#3B5998"/>
<path d="M42.3775 27.786C41.7887 27.786 41.2683 27.7052 40.8162 27.5436C40.364 27.3839 39.984 27.1482 39.6762 26.8366C39.3684 26.5249 39.1356 26.143 38.9778 25.6908C38.82 25.2387 38.7411 24.7211 38.7411 24.1382C38.7411 23.5745 38.821 23.0704 38.9807 22.6259C39.1423 22.1815 39.3761 21.8044 39.682 21.4946C39.9898 21.183 40.3631 20.9453 40.8017 20.7818C41.2423 20.6183 41.7406 20.5365 42.2966 20.5365C42.8373 20.5365 43.3106 20.625 43.7165 20.802C44.1244 20.9771 44.465 21.2147 44.7382 21.5148C45.0133 21.8131 45.2192 22.1488 45.3558 22.522C45.4943 22.8953 45.5636 23.2801 45.5636 23.6764C45.5636 23.9554 45.5501 24.2382 45.5232 24.5249C45.4962 24.8116 45.4395 25.0752 45.3529 25.3156C45.2663 25.5542 45.1326 25.7466 44.9517 25.8928C44.7728 26.0391 44.5304 26.1122 44.2245 26.1122C44.0898 26.1122 43.9417 26.091 43.78 26.0487C43.6184 26.0064 43.4751 25.9361 43.35 25.838C43.225 25.7399 43.1509 25.6081 43.1278 25.4426H43.0932C43.047 25.5542 42.9758 25.66 42.8796 25.7601C42.7853 25.8601 42.6612 25.94 42.5073 25.9996C42.3553 26.0593 42.1697 26.0852 41.9503 26.0775C41.7002 26.0679 41.4799 26.0121 41.2894 25.9102C41.099 25.8063 40.9393 25.6658 40.8104 25.4888C40.6834 25.3099 40.5872 25.1031 40.5218 24.8683C40.4583 24.6317 40.4265 24.3768 40.4265 24.1035C40.4265 23.8438 40.465 23.6062 40.542 23.3907C40.6189 23.1752 40.7257 22.9867 40.8623 22.8251C41.0009 22.6635 41.1625 22.5345 41.3472 22.4383C41.5338 22.3402 41.7349 22.2796 41.9503 22.2565C42.1427 22.2373 42.3178 22.246 42.4756 22.2825C42.6333 22.3171 42.7632 22.37 42.8652 22.4412C42.9672 22.5105 43.0316 22.5875 43.0585 22.6721H43.0932V22.3489H43.705V24.9578C43.705 25.1194 43.7502 25.2618 43.8406 25.3849C43.9311 25.508 44.0629 25.5696 44.236 25.5696C44.4323 25.5696 44.5823 25.5023 44.6862 25.3676C44.792 25.2329 44.8642 25.0251 44.9027 24.7442C44.9431 24.4633 44.9633 24.1035 44.9633 23.6649C44.9633 23.4071 44.9277 23.1531 44.8565 22.903C44.7872 22.6509 44.6814 22.4153 44.539 22.1959C44.3986 21.9766 44.2206 21.7832 44.0051 21.6158C43.7897 21.4485 43.5367 21.3176 43.2461 21.2234C42.9575 21.1272 42.6295 21.0791 42.262 21.0791C41.8099 21.0791 41.4049 21.1493 41.047 21.2897C40.6911 21.4283 40.3881 21.6312 40.138 21.8987C39.8898 22.1642 39.7002 22.4874 39.5694 22.8684C39.4405 23.2474 39.3761 23.6784 39.3761 24.1613C39.3761 24.6519 39.4405 25.0877 39.5694 25.4686C39.7002 25.8496 39.8926 26.1709 40.1466 26.4325C40.4025 26.6942 40.719 26.8923 41.0961 27.027C41.4732 27.1636 41.908 27.2319 42.4005 27.2319C42.6122 27.2319 42.8209 27.2117 43.0268 27.1713C43.2327 27.1309 43.4145 27.0867 43.5722 27.0386C43.73 26.9905 43.8435 26.9549 43.9128 26.9318L44.0744 27.4628C43.9551 27.5128 43.7993 27.5629 43.6069 27.6129C43.4164 27.6629 43.2125 27.7043 42.9951 27.737C42.7796 27.7697 42.5737 27.786 42.3775 27.786ZM42.0427 25.4888C42.3005 25.4888 42.5093 25.4369 42.6689 25.333C42.8286 25.2291 42.945 25.0723 43.0181 24.8626C43.0913 24.6528 43.1278 24.3883 43.1278 24.0689C43.1278 23.7457 43.0874 23.4936 43.0066 23.3128C42.9258 23.1319 42.8065 23.005 42.6487 22.9318C42.491 22.8587 42.2966 22.8222 42.0658 22.8222C41.8464 22.8222 41.6589 22.8799 41.503 22.9953C41.3491 23.1089 41.2308 23.2608 41.148 23.4513C41.0672 23.6399 41.0268 23.8457 41.0268 24.0689C41.0268 24.3152 41.0595 24.547 41.125 24.7644C41.1904 24.9799 41.2971 25.155 41.4453 25.2897C41.5934 25.4224 41.7926 25.4888 42.0427 25.4888Z" fill="#3B5998"/>
<path d="M47.091 21.7948L48.153 23.6072L49.215 21.7948H50L48.5686 24.0112L50 26.2276H49.215L48.153 24.5076L47.091 26.2276H46.306L47.7143 24.0112L46.306 21.7948H47.091Z" fill="#3B5998"/>
</svg>
