<svg width="38" height="36" viewBox="0 0 38 36" fill="none" xmlns="http://www.w3.org/2000/svg">
<path d="M28.0759 11.0769L18.1518 36H22.1587L24.236 30.9808H31.9158L33.993 36H38L28.0759 11.0769ZM25.812 27.1731L28.0759 20.0639L30.3398 27.1731H25.812ZM20.3571 23.5385C20.3359 23.522 18.6107 22.1737 16.5046 19.8459C19.8618 15.2039 21.7635 9.92769 22.5396 7.44231H27.1429V3.63462H15.4375V0H11.7054V3.63462H0V7.44231H18.5971C17.7896 9.77452 16.3027 13.4567 14.0346 16.8196C11.2626 13.0604 10.0361 10.2531 10.02 10.2237L9.41518 9L6.19196 10.9038L6.77469 12.1033C6.85018 12.2383 8.23277 15.3831 11.4153 19.5949C11.4933 19.6996 11.5722 19.8017 11.6511 19.9038C7.43375 24.8244 4.08924 26.7482 4.04598 26.7811L2.71429 27.6923L4.66518 30.8077L6.30223 29.8151C6.48884 29.6706 9.8079 27.7382 14.1058 22.8245C16.1856 25.0988 17.7718 26.3579 17.8634 26.4306L18.9152 27.1731L20.3571 23.5385Z" fill="#3B5998"/>
</svg>
