<svg width="43" height="45" viewBox="0 0 43 45" fill="none" xmlns="http://www.w3.org/2000/svg">
<path d="M17.7778 0H2.22222C1 0 0 1 0 2.22222V17.7778C0 19 1 20 2.22222 20H17.7778C19 20 20 19 20 17.7778V2.22222C20 1 19 0 17.7778 0ZM6.66667 11.6667C6.66667 12.8889 5.66667 13.3333 4.44444 13.3333C3.22222 13.3333 2.22222 12.8889 2.22222 11.6667V10H3.88889V11.6667H5V6.66667H6.66667V11.6667ZM12.2222 9.44444C12.2222 10.3333 11.4444 11.1111 10.5556 11.1111H9.44444V13.3333H7.77778V6.66667H10.5556C11.4444 6.66667 12.2222 7.44444 12.2222 8.33333V9.44444ZM17.7778 8.33333H15V11.6667H16.1111V10H17.7778V11.8889C17.7778 12.6667 17.2222 13.3333 16.3333 13.3333H14.8889C14 13.3333 13.4444 12.5556 13.4444 11.8889V8.22222C13.3333 7.44444 13.8889 6.66667 14.7778 6.66667H16.2222C17.1111 6.66667 17.6667 7.44445 17.6667 8.11111V8.33333M9.44444 8.33333H10.5556V9.44444H9.44444V8.33333Z" fill="#3B5998"/>
<path d="M8.5 24C8.5 23.7239 8.27614 23.5 8 23.5C7.72386 23.5 7.5 23.7239 7.5 24L8.5 24ZM21.3536 35.3536C21.5488 35.1583 21.5488 34.8417 21.3536 34.6464L18.1716 31.4645C17.9763 31.2692 17.6597 31.2692 17.4645 31.4645C17.2692 31.6597 17.2692 31.9763 17.4645 32.1716L20.2929 35L17.4645 37.8284C17.2692 38.0237 17.2692 38.3403 17.4645 38.5355C17.6597 38.7308 17.9763 38.7308 18.1716 38.5355L21.3536 35.3536ZM7.5 24C7.5 26.7635 7.68556 28.881 8.13967 30.4948C8.59782 32.123 9.33774 33.2668 10.4557 34.0368C11.5568 34.7952 12.9683 35.1506 14.6873 35.3256C16.407 35.5006 18.502 35.5 21 35.5V34.5C18.4837 34.5 16.4465 34.4994 14.7886 34.3307C13.1299 34.1619 11.9181 33.8298 11.0229 33.2132C10.1444 32.6082 9.51467 31.6895 9.10229 30.2239C8.68587 28.744 8.5 26.7365 8.5 24L7.5 24Z" fill="#8B9DC3"/>
<path fill-rule="evenodd" clip-rule="evenodd" d="M42.5 30.625V42.5C42.5 43.163 42.2366 43.7989 41.7678 44.2678C41.2989 44.7366 40.663 45 40 45H37.5V43.75H40C40.3315 43.75 40.6495 43.6183 40.8839 43.3839C41.1183 43.1495 41.25 42.8315 41.25 42.5V30.625H38.75C38.2527 30.625 37.7758 30.4275 37.4242 30.0758C37.0725 29.7242 36.875 29.2473 36.875 28.75V26.25H30C29.6685 26.25 29.3505 26.3817 29.1161 26.6161C28.8817 26.8505 28.75 27.1685 28.75 27.5V38.75H27.5V27.5C27.5 26.837 27.7634 26.2011 28.2322 25.7322C28.7011 25.2634 29.337 25 30 25H36.875L42.5 30.625ZM27.41 44.8113V40.64H28.83V39.8125H25V40.64H26.4175V44.8113H27.41ZM33.2712 39.8125H32.1537L31.125 41.6112H31.0812L30.0413 39.8125H28.8763L30.4113 42.2913L28.8612 44.8113H29.9387L31.005 43.0425H31.0488L32.1112 44.8113H33.245L31.6788 42.3213L33.2712 39.8125ZM35.6838 40.64V44.8113H34.6912V40.64H33.2738V39.8125H37.1037V40.64H35.6825H35.6838Z" fill="#3B5998"/>
</svg>
