<svg width="45" height="45" viewBox="0 0 45 45" fill="none" xmlns="http://www.w3.org/2000/svg">
<path d="M17.7778 0H2.22222C1 0 0 1 0 2.22222V17.7778C0 19 1 20 2.22222 20H17.7778C19 20 20 19 20 17.7778V2.22222C20 1 19 0 17.7778 0ZM6.66667 11.6667C6.66667 12.8889 5.66667 13.3333 4.44444 13.3333C3.22222 13.3333 2.22222 12.8889 2.22222 11.6667V10H3.88889V11.6667H5V6.66667H6.66667V11.6667ZM12.2222 9.44444C12.2222 10.3333 11.4444 11.1111 10.5556 11.1111H9.44444V13.3333H7.77778V6.66667H10.5556C11.4444 6.66667 12.2222 7.44444 12.2222 8.33333V9.44444ZM17.7778 8.33333H15V11.6667H16.1111V10H17.7778V11.8889C17.7778 12.6667 17.2222 13.3333 16.3333 13.3333H14.8889C14 13.3333 13.4444 12.5556 13.4444 11.8889V8.22222C13.3333 7.44444 13.8889 6.66667 14.7778 6.66667H16.2222C17.1111 6.66667 17.6667 7.44445 17.6667 8.11111V8.33333M9.44444 8.33333H10.5556V9.44444H9.44444V8.33333Z" fill="#3B5998"/>
<path d="M8.5 24C8.5 23.7239 8.27614 23.5 8 23.5C7.72386 23.5 7.5 23.7239 7.5 24L8.5 24ZM21.3536 35.3536C21.5488 35.1583 21.5488 34.8417 21.3536 34.6464L18.1716 31.4645C17.9763 31.2692 17.6597 31.2692 17.4645 31.4645C17.2692 31.6597 17.2692 31.9763 17.4645 32.1716L20.2929 35L17.4645 37.8284C17.2692 38.0237 17.2692 38.3403 17.4645 38.5355C17.6597 38.7308 17.9763 38.7308 18.1716 38.5355L21.3536 35.3536ZM7.5 24C7.5 26.7635 7.68556 28.881 8.13967 30.4948C8.59782 32.123 9.33774 33.2668 10.4557 34.0368C11.5568 34.7952 12.9683 35.1506 14.6873 35.3256C16.407 35.5006 18.502 35.5 21 35.5V34.5C18.4837 34.5 16.4465 34.4994 14.7886 34.3307C13.1299 34.1619 11.9181 33.8298 11.0229 33.2132C10.1444 32.6082 9.51467 31.6895 9.10229 30.2239C8.68587 28.744 8.5 26.7365 8.5 24L7.5 24Z" fill="#8B9DC3"/>
<path d="M42.1349 35.6977H38.8791V34.0698H42.1349V35.6977ZM42.1349 36.6279H38.8791V38.2558H42.1349V36.6279ZM42.1349 28.9535H38.8791V30.5814H42.1349V28.9535ZM42.1349 31.5116H38.8791V33.1395H42.1349V31.5116ZM42.1349 39.186H38.8791V40.814H42.1349V39.186ZM44.3837 42.3954C44.2907 42.8791 43.7093 42.8907 43.3209 42.907H36.0884V45H34.6442L24 43.1395V26.8628L34.707 25H36.0884V26.8535H43.0721C43.4652 26.8698 43.8977 26.8419 44.2395 27.0767C44.4791 27.4209 44.4559 27.8581 44.4721 28.2535L44.4628 40.3605C44.4512 41.0372 44.5256 41.7279 44.3837 42.3954ZM32.5279 38.7465C31.8861 37.4442 31.2326 36.1512 30.593 34.8488C31.2256 33.5814 31.8489 32.3093 32.4698 31.0372C31.9419 31.0628 31.414 31.0953 30.8884 31.1326C30.4953 32.0884 30.0372 33.0186 29.7302 34.007C29.4442 33.0744 29.0651 32.1767 28.7186 31.2674C28.207 31.2953 27.6953 31.3256 27.1837 31.3558C27.7233 32.5465 28.2977 33.7209 28.8209 34.9186C28.2047 36.0814 27.6279 37.2605 27.0302 38.4302C27.5395 38.4512 28.0488 38.4721 28.5581 38.4791C28.9209 37.5535 29.3721 36.6628 29.6884 35.7186C29.9721 36.7326 30.4535 37.6698 30.8488 38.6395C31.4093 38.6791 31.9674 38.714 32.5279 38.7465ZM43.363 27.958H36.0884V28.9535H37.9489V30.5814H36.0884V31.5116H37.9489V33.1395H36.0884V34.0698H37.9489V35.6977H36.0884V36.6279H37.9489V38.2558H36.0884V39.186H37.9489V40.814H36.0884V41.8894H43.363V27.958Z" fill="#3B5998"/>
</svg>
