<svg width="43" height="43" viewBox="0 0 43 43" fill="none" xmlns="http://www.w3.org/2000/svg">
<path d="M20.4773 4.04547H6.10606C5.01706 4.04547 3.97267 4.47807 3.20264 5.24811C2.4326 6.01814 2 7.06253 2 8.15153V36.8939C2 37.9829 2.4326 39.0273 3.20264 39.7974C3.97267 40.5674 5.01706 41 6.10606 41H34.8485C35.9375 41 36.9819 40.5674 37.7519 39.7974C38.5219 39.0273 38.9545 37.9829 38.9545 36.8939V22.5227" stroke="#3B5998" stroke-width="3" stroke-linecap="round" stroke-linejoin="round"/>
<path d="M33.5652 3.27559C34.382 2.45884 35.4897 2 36.6448 2C37.7998 2 38.9076 2.45884 39.7243 3.27559C40.5411 4.09233 40.9999 5.20008 40.9999 6.35513C40.9999 7.51019 40.5411 8.61793 39.7243 9.43468L21.2204 27.9407C20.7329 28.4278 20.1306 28.7843 19.4691 28.9775L13.5708 30.702C13.3941 30.7535 13.2069 30.7566 13.0286 30.7109C12.8503 30.6653 12.6876 30.5725 12.5575 30.4424C12.4274 30.3123 12.3346 30.1496 12.289 29.9713C12.2433 29.793 12.2464 29.6058 12.2979 29.4291L14.0224 23.5308C14.2165 22.8698 14.5737 22.2683 15.0613 21.7816L33.5652 3.27559Z" stroke="#3B5998" stroke-width="3" stroke-linecap="round" stroke-linejoin="round"/>
</svg>
