<svg width="39" height="37" viewBox="0 0 39 37" fill="none" xmlns="http://www.w3.org/2000/svg">
<path d="M36.5625 0H13.8125C10.1492 0 6.63593 1.44064 4.04559 4.005C1.45524 6.56935 0 10.0474 0 13.6739C0 17.3005 1.45524 20.7785 4.04559 23.3428C6.63593 25.9072 10.1492 27.3478 13.8125 27.3478H21.125V34.587C21.125 35.2269 21.3818 35.8407 21.8389 36.2932C22.296 36.7458 22.916 37 23.5625 37C24.209 37 24.829 36.7458 25.2861 36.2932C25.7432 35.8407 26 35.2269 26 34.587V4.82609H29.25V34.587C29.25 35.2269 29.5068 35.8407 29.9639 36.2932C30.421 36.7458 31.041 37 31.6875 37C32.334 37 32.954 36.7458 33.4111 36.2932C33.8682 35.8407 34.125 35.2269 34.125 34.587V4.82609H36.5625C37.209 4.82609 37.829 4.57186 38.2861 4.11932C38.7432 3.66679 39 3.05302 39 2.41304C39 1.77306 38.7432 1.1593 38.2861 0.706764C37.829 0.25423 37.209 0 36.5625 0ZM21.125 22.5217H13.8125C11.4421 22.5217 9.16884 21.5896 7.49273 19.9303C5.81663 18.271 4.875 16.0205 4.875 13.6739C4.875 11.3273 5.81663 9.07684 7.49273 7.41755C9.16884 5.75827 11.4421 4.82609 13.8125 4.82609H21.125V22.5217Z" fill="#3B5998"/>
</svg>
