<svg width="34" height="40" viewBox="0 0 34 40" fill="none" xmlns="http://www.w3.org/2000/svg">
<path d="M11.3019 34.2857H3.76731V3.80952H16.9529V13.3333H26.3712V19.2381L30.1385 15.4286V11.4286L18.8366 0H3.76731C1.69529 0 0 1.71429 0 3.80952V34.2857C0 36.381 1.69529 38.0952 3.76731 38.0952H11.3019V34.2857ZM30.5152 20.9524C30.7036 20.9524 31.0803 21.1429 31.2687 21.3333L33.7175 23.8095C34.0942 24.1905 34.0942 24.9524 33.7175 25.3333L31.8338 27.2381L27.8781 23.2381L29.7618 21.3333C29.9501 21.1429 30.1385 20.9524 30.5152 20.9524ZM30.5152 28.381L19.0249 40H15.0693V36L26.5596 24.381L30.5152 28.381Z" fill="#3B5998"/>
</svg>
