<svg width="54" height="25" viewBox="0 0 54 25" fill="none" xmlns="http://www.w3.org/2000/svg">
<path d="M17.0231 6.00002H15.3185L17.239 0.18184H19.3981L21.3185 6.00002H19.614L18.3413 1.78411H18.2958L17.0231 6.00002ZM16.7049 3.70457H19.9095V4.88639H16.7049V3.70457Z" fill="#3B5998"/>
<path d="M21.8789 6.00002V0.18184H24.4016C24.8448 0.18184 25.217 0.2415 25.5181 0.360818C25.8211 0.480136 26.0494 0.648696 26.2028 0.866499C26.3581 1.0843 26.4357 1.34093 26.4357 1.63639C26.4357 1.8504 26.3884 2.04548 26.2937 2.22161C26.2009 2.39775 26.0702 2.54548 25.9016 2.66479C25.7331 2.78222 25.5361 2.86366 25.3107 2.90911V2.96593C25.5607 2.9754 25.788 3.03885 25.9925 3.15627C26.1971 3.2718 26.36 3.43184 26.4812 3.63639C26.6024 3.83904 26.663 4.07767 26.663 4.35229C26.663 4.67048 26.5797 4.95362 26.413 5.20173C26.2482 5.44983 26.0134 5.64491 25.7085 5.78695C25.4035 5.929 25.0399 6.00002 24.6175 6.00002H21.8789ZM23.4585 4.73866H24.1971C24.4622 4.73866 24.6611 4.68942 24.7937 4.59093C24.9263 4.49055 24.9925 4.34283 24.9925 4.14775C24.9925 4.01139 24.9613 3.89586 24.8988 3.80116C24.8363 3.70646 24.7473 3.63449 24.6318 3.58525C24.5181 3.53601 24.3808 3.51139 24.2198 3.51139H23.4585V4.73866ZM23.4585 2.53411H24.1062C24.2444 2.53411 24.3666 2.51233 24.4727 2.46877C24.5787 2.42521 24.6611 2.36271 24.7198 2.28127C24.7804 2.19794 24.8107 2.09661 24.8107 1.97729C24.8107 1.79737 24.7463 1.66006 24.6175 1.56536C24.4888 1.46877 24.3259 1.42048 24.1289 1.42048H23.4585V2.53411Z" fill="#3B5998"/>
<path d="M32.6545 2.36366H31.0522C31.0408 2.23108 31.0105 2.11082 30.9613 2.00286C30.9139 1.89491 30.8477 1.80211 30.7624 1.72445C30.6791 1.64491 30.5778 1.5843 30.4585 1.54264C30.3391 1.49908 30.2037 1.47729 30.0522 1.47729C29.7871 1.47729 29.5626 1.54169 29.3789 1.67048C29.1971 1.79926 29.0588 1.98392 28.9641 2.22445C28.8713 2.46498 28.8249 2.75381 28.8249 3.09093C28.8249 3.44699 28.8723 3.74529 28.967 3.98582C29.0636 4.22445 29.2028 4.40438 29.3846 4.52559C29.5664 4.64491 29.7852 4.70457 30.0408 4.70457C30.1867 4.70457 30.3174 4.68658 30.4329 4.65059C30.5484 4.61271 30.6488 4.55873 30.734 4.48866C30.8193 4.41858 30.8884 4.3343 30.9414 4.23582C30.9963 4.13544 31.0333 4.02275 31.0522 3.89775L32.6545 3.90911C32.6355 4.15533 32.5664 4.40627 32.4471 4.66195C32.3278 4.91574 32.1583 5.15059 31.9386 5.3665C31.7208 5.58051 31.4509 5.75286 31.1289 5.88354C30.8069 6.01423 30.4329 6.07957 30.0068 6.07957C29.4727 6.07957 28.9935 5.96498 28.5693 5.73582C28.1469 5.50665 27.8126 5.16953 27.5664 4.72445C27.3221 4.27938 27.1999 3.73487 27.1999 3.09093C27.1999 2.4432 27.3249 1.89775 27.5749 1.45457C27.8249 1.00949 28.1621 0.673318 28.5863 0.446045C29.0105 0.216878 29.484 0.102295 30.0068 0.102295C30.3742 0.102295 30.7122 0.152484 31.021 0.252863C31.3297 0.353242 31.6005 0.500022 31.8335 0.693204C32.0664 0.884492 32.2539 1.12029 32.396 1.40059C32.538 1.68089 32.6242 2.00192 32.6545 2.36366Z" fill="#3B5998"/>
<path d="M35.6097 6.00002H33.3711V0.18184H35.587C36.1855 0.18184 36.7025 0.298318 37.1381 0.531272C37.5756 0.762333 37.9128 1.09567 38.1495 1.53127C38.3881 1.96498 38.5075 2.48487 38.5075 3.09093C38.5075 3.69699 38.3891 4.21783 38.1523 4.65343C37.9156 5.08714 37.5804 5.42048 37.1467 5.65343C36.713 5.88449 36.2006 6.00002 35.6097 6.00002ZM34.9506 4.65911H35.5529C35.8408 4.65911 36.0861 4.61271 36.2887 4.51991C36.4933 4.42711 36.6486 4.26707 36.7546 4.03979C36.8626 3.81252 36.9166 3.49623 36.9166 3.09093C36.9166 2.68563 36.8616 2.36934 36.7518 2.14207C36.6438 1.91479 36.4847 1.75476 36.2745 1.66195C36.0662 1.56915 35.8105 1.52275 35.5075 1.52275H34.9506V4.65911Z" fill="#3B5998"/>
<path d="M17.7504 24H15.5117V18.1818H17.7276C18.3261 18.1818 18.8432 18.2983 19.2788 18.5313C19.7163 18.7623 20.0534 19.0957 20.2901 19.5313C20.5288 19.965 20.6481 20.4849 20.6481 21.0909C20.6481 21.697 20.5297 22.2178 20.293 22.6534C20.0562 23.0871 19.721 23.4205 19.2873 23.6534C18.8536 23.8845 18.3413 24 17.7504 24ZM17.0913 22.6591H17.6935C17.9814 22.6591 18.2267 22.6127 18.4293 22.5199C18.6339 22.4271 18.7892 22.2671 18.8952 22.0398C19.0032 21.8125 19.0572 21.4962 19.0572 21.0909C19.0572 20.6856 19.0022 20.3693 18.8924 20.1421C18.7844 19.9148 18.6254 19.7548 18.4151 19.662C18.2068 19.5692 17.9511 19.5227 17.6481 19.5227H17.0913V22.6591Z" fill="#3B5998"/>
<path d="M26.8107 20.3637H25.2085C25.1971 20.2311 25.1668 20.1108 25.1175 20.0029C25.0702 19.8949 25.0039 19.8021 24.9187 19.7245C24.8353 19.6449 24.734 19.5843 24.6147 19.5426C24.4954 19.4991 24.36 19.4773 24.2085 19.4773C23.9433 19.4773 23.7189 19.5417 23.5352 19.6705C23.3533 19.7993 23.2151 19.9839 23.1204 20.2245C23.0276 20.465 22.9812 20.7538 22.9812 21.0909C22.9812 21.447 23.0285 21.7453 23.1232 21.9858C23.2198 22.2245 23.359 22.4044 23.5408 22.5256C23.7227 22.6449 23.9414 22.7046 24.1971 22.7046C24.3429 22.7046 24.4736 22.6866 24.5891 22.6506C24.7047 22.6127 24.805 22.5587 24.8903 22.4887C24.9755 22.4186 25.0446 22.3343 25.0977 22.2358C25.1526 22.1354 25.1895 22.0227 25.2085 21.8977L26.8107 21.9091C26.7918 22.1553 26.7227 22.4063 26.6033 22.662C26.484 22.9157 26.3145 23.1506 26.0948 23.3665C25.877 23.5805 25.6071 23.7529 25.2852 23.8835C24.9632 24.0142 24.5891 24.0796 24.163 24.0796C23.6289 24.0796 23.1497 23.965 22.7255 23.7358C22.3031 23.5067 21.9689 23.1695 21.7227 22.7245C21.4783 22.2794 21.3562 21.7349 21.3562 21.0909C21.3562 20.4432 21.4812 19.8977 21.7312 19.4546C21.9812 19.0095 22.3183 18.6733 22.7425 18.446C23.1668 18.2169 23.6403 18.1023 24.163 18.1023C24.5304 18.1023 24.8685 18.1525 25.1772 18.2529C25.4859 18.3532 25.7567 18.5 25.9897 18.6932C26.2227 18.8845 26.4102 19.1203 26.5522 19.4006C26.6942 19.6809 26.7804 20.0019 26.8107 20.3637Z" fill="#3B5998"/>
<path d="M27.5273 24V18.1818H30.0501C30.4933 18.1818 30.8654 18.2415 31.1665 18.3608C31.4696 18.4801 31.6978 18.6487 31.8512 18.8665C32.0065 19.0843 32.0842 19.3409 32.0842 19.6364C32.0842 19.8504 32.0368 20.0455 31.9421 20.2216C31.8493 20.3977 31.7186 20.5455 31.5501 20.6648C31.3815 20.7822 31.1845 20.8637 30.9592 20.9091V20.9659C31.2092 20.9754 31.4364 21.0388 31.641 21.1563C31.8455 21.2718 32.0084 21.4318 32.1296 21.6364C32.2508 21.839 32.3114 22.0777 32.3114 22.3523C32.3114 22.6705 32.2281 22.9536 32.0614 23.2017C31.8967 23.4498 31.6618 23.6449 31.3569 23.787C31.052 23.929 30.6883 24 30.266 24H27.5273ZM29.1069 22.7387H29.8455C30.1107 22.7387 30.3095 22.6894 30.4421 22.5909C30.5747 22.4906 30.641 22.3428 30.641 22.1477C30.641 22.0114 30.6097 21.8959 30.5472 21.8012C30.4847 21.7065 30.3957 21.6345 30.2802 21.5852C30.1665 21.536 30.0292 21.5114 29.8683 21.5114H29.1069V22.7387ZM29.1069 20.5341H29.7546C29.8929 20.5341 30.015 20.5123 30.1211 20.4688C30.2272 20.4252 30.3095 20.3627 30.3683 20.2813C30.4289 20.1979 30.4592 20.0966 30.4592 19.9773C30.4592 19.7974 30.3948 19.6601 30.266 19.5654C30.1372 19.4688 29.9743 19.4205 29.7773 19.4205H29.1069V20.5341Z" fill="#3B5998"/>
<path d="M34.3825 24H32.6779L34.5984 18.1818H36.7575L38.6779 24H36.9734L35.7006 19.7841H35.6552L34.3825 24ZM34.0643 21.7046H37.2688V22.8864H34.0643V21.7046Z" fill="#3B5998"/>
<path d="M10.6212 2.98507C10.8891 2.9181 11.0519 2.64663 10.985 2.37873C10.918 2.11083 10.6465 1.94795 10.3786 2.01493L10.6212 2.98507ZM12.3535 19.3536C12.5487 19.1583 12.5487 18.8417 12.3535 18.6464L9.17151 15.4645C8.97624 15.2692 8.65966 15.2692 8.4644 15.4645C8.26914 15.6597 8.26914 15.9763 8.4644 16.1716L11.2928 19L8.4644 21.8284C8.26914 22.0237 8.26914 22.3403 8.4644 22.5355C8.65966 22.7308 8.97624 22.7308 9.17151 22.5355L12.3535 19.3536ZM10.3786 2.01493C6.32041 3.02949 3.58816 4.59903 1.98979 6.43758C0.378547 8.29094 -0.0583271 10.3966 0.453382 12.3752C1.46578 16.2898 6.10199 19.5 11.9999 19.5V18.5C6.39789 18.5 2.28413 15.4602 1.42153 12.1248C0.995741 10.4784 1.34011 8.70906 2.74447 7.09367C4.16171 5.46347 6.67943 3.97051 10.6212 2.98507L10.3786 2.01493Z" fill="#8B9DC3"/>
<path d="M43.3788 20.0149C43.1109 20.0819 42.948 20.3534 43.015 20.6213C43.082 20.8892 43.3534 21.052 43.6213 20.9851L43.3788 20.0149ZM41.6465 3.64645C41.4512 3.84171 41.4512 4.15829 41.6465 4.35355L44.8284 7.53553C45.0237 7.7308 45.3403 7.7308 45.5355 7.53553C45.7308 7.34027 45.7308 7.02369 45.5355 6.82843L42.7071 4L45.5355 1.17157C45.7308 0.976311 45.7308 0.659729 45.5355 0.464466C45.3403 0.269203 45.0237 0.269203 44.8284 0.464466L41.6465 3.64645ZM43.6213 20.9851C47.6795 19.9705 50.4118 18.401 52.0101 16.5624C53.6214 14.7091 54.0583 12.6034 53.5466 10.6248C52.5342 6.7102 47.8979 3.5 42 3.5V4.5C47.6021 4.5 51.7158 7.5398 52.5784 10.8752C53.0042 12.5216 52.6598 14.2909 51.2555 15.9063C49.8382 17.5365 47.3205 19.0295 43.3788 20.0149L43.6213 20.9851Z" fill="#8B9DC3"/>
</svg>
