<svg width="40" height="32" viewBox="0 0 40 32" fill="none" xmlns="http://www.w3.org/2000/svg">
<rect width="20" height="20" rx="3" fill="#3B5998"/>
<path d="M24 7.5C23.7239 7.5 23.5 7.27614 23.5 7C23.5 6.72386 23.7239 6.5 24 6.5L24 7.5ZM35.3536 20.3536C35.1583 20.5488 34.8417 20.5488 34.6464 20.3536L31.4645 17.1716C31.2692 16.9763 31.2692 16.6597 31.4645 16.4645C31.6597 16.2692 31.9763 16.2692 32.1716 16.4645L35 19.2929L37.8284 16.4645C38.0237 16.2692 38.3403 16.2692 38.5355 16.4645C38.7308 16.6597 38.7308 16.9763 38.5355 17.1716L35.3536 20.3536ZM24 6.5C26.7635 6.5 28.881 6.68556 30.4948 7.13967C32.123 7.59782 33.2668 8.33774 34.0368 9.45567C34.7952 10.5568 35.1506 11.9683 35.3256 13.6873C35.5006 15.407 35.5 17.502 35.5 20H34.5C34.5 17.4837 34.4994 15.4465 34.3307 13.7886C34.1619 12.1299 33.8298 10.9181 33.2132 10.0229C32.6082 9.14439 31.6895 8.51467 30.2239 8.10229C28.744 7.68587 26.7365 7.5 24 7.5L24 6.5Z" fill="#8B9DC3"/>
<path d="M6.81533 31L7.76988 25.1818H8.33806L7.38351 31H6.81533ZM4.1676 29.3864L4.25851 28.8182H8.59942L8.50851 29.3864H4.1676ZM4.76988 31L5.72442 25.1818H6.2926L5.33806 31H4.76988ZM4.50851 27.3637L4.59942 26.7955H8.94033L8.84942 27.3637H4.50851Z" fill="#3B5998"/>
<path d="M9.78266 31V25.1818H13.2713V25.8068H10.4872V27.7727H13.0099V28.3977H10.4872V31H9.78266Z" fill="#3B5998"/>
<path d="M14.478 31V25.1818H17.9666V25.8068H15.1825V27.7727H17.7052V28.3977H15.1825V31H14.478Z" fill="#3B5998"/>
<path d="M20.9687 31.0796C20.5407 31.0796 20.1761 30.9631 19.875 30.7301C19.5739 30.4953 19.3437 30.1553 19.1846 29.7102C19.0256 29.2633 18.946 28.7235 18.946 28.0909C18.946 27.4621 19.0256 26.9252 19.1846 26.4801C19.3456 26.0332 19.5767 25.6923 19.8778 25.4574C20.1809 25.2207 20.5445 25.1023 20.9687 25.1023C21.393 25.1023 21.7557 25.2207 22.0568 25.4574C22.3598 25.6923 22.5909 26.0332 22.75 26.4801C22.911 26.9252 22.9915 27.4621 22.9915 28.0909C22.9915 28.7235 22.9119 29.2633 22.7528 29.7102C22.5937 30.1553 22.3636 30.4953 22.0625 30.7301C21.7614 30.9631 21.3968 31.0796 20.9687 31.0796ZM20.9687 30.4546C21.393 30.4546 21.7225 30.25 21.9574 29.8409C22.1922 29.4318 22.3096 28.8485 22.3096 28.0909C22.3096 27.5871 22.2557 27.1582 22.1477 26.804C22.0417 26.4498 21.8882 26.1799 21.6875 25.9943C21.4886 25.8087 21.249 25.7159 20.9687 25.7159C20.5483 25.7159 20.2197 25.9233 19.9829 26.3381C19.7462 26.751 19.6278 27.3352 19.6278 28.0909C19.6278 28.5947 19.6809 29.0227 19.7869 29.375C19.893 29.7273 20.0454 29.9953 20.2443 30.179C20.4451 30.3627 20.6865 30.4546 20.9687 30.4546Z" fill="#3B5998"/>
<path d="M25.9687 31.0796C25.5407 31.0796 25.1761 30.9631 24.875 30.7301C24.5739 30.4953 24.3437 30.1553 24.1846 29.7102C24.0256 29.2633 23.946 28.7235 23.946 28.0909C23.946 27.4621 24.0256 26.9252 24.1846 26.4801C24.3456 26.0332 24.5767 25.6923 24.8778 25.4574C25.1809 25.2207 25.5445 25.1023 25.9687 25.1023C26.393 25.1023 26.7557 25.2207 27.0568 25.4574C27.3598 25.6923 27.5909 26.0332 27.75 26.4801C27.911 26.9252 27.9915 27.4621 27.9915 28.0909C27.9915 28.7235 27.9119 29.2633 27.7528 29.7102C27.5937 30.1553 27.3636 30.4953 27.0625 30.7301C26.7614 30.9631 26.3968 31.0796 25.9687 31.0796ZM25.9687 30.4546C26.393 30.4546 26.7225 30.25 26.9574 29.8409C27.1922 29.4318 27.3096 28.8485 27.3096 28.0909C27.3096 27.5871 27.2557 27.1582 27.1477 26.804C27.0417 26.4498 26.8882 26.1799 26.6875 25.9943C26.4886 25.8087 26.249 25.7159 25.9687 25.7159C25.5483 25.7159 25.2197 25.9233 24.9829 26.3381C24.7462 26.751 24.6278 27.3352 24.6278 28.0909C24.6278 28.5947 24.6809 29.0227 24.7869 29.375C24.893 29.7273 25.0454 29.9953 25.2443 30.179C25.4451 30.3627 25.6865 30.4546 25.9687 30.4546Z" fill="#3B5998"/>
<path d="M30.9687 31H29.1733V25.1818H31.0483C31.6127 25.1818 32.0956 25.2983 32.4971 25.5313C32.8987 25.7623 33.2064 26.0947 33.4204 26.5284C33.6345 26.9602 33.7415 27.4773 33.7415 28.0796C33.7415 28.6856 33.6335 29.2074 33.4176 29.6449C33.2017 30.0805 32.8873 30.4157 32.4744 30.6506C32.0615 30.8835 31.5596 31 30.9687 31ZM29.8778 30.375H30.9233C31.4043 30.375 31.803 30.2822 32.1193 30.0966C32.4356 29.911 32.6714 29.6468 32.8267 29.304C32.982 28.9612 33.0596 28.5531 33.0596 28.0796C33.0596 27.6099 32.9829 27.2055 32.8295 26.8665C32.6761 26.5256 32.447 26.2642 32.142 26.0824C31.8371 25.8987 31.4574 25.8068 31.0028 25.8068H29.8778V30.375Z" fill="#3B5998"/>
<path d="M36.7187 31H34.9233V25.1818H36.7983C37.3627 25.1818 37.8456 25.2983 38.2471 25.5313C38.6487 25.7623 38.9564 26.0947 39.1704 26.5284C39.3845 26.9602 39.4915 27.4773 39.4915 28.0796C39.4915 28.6856 39.3835 29.2074 39.1676 29.6449C38.9517 30.0805 38.6373 30.4157 38.2244 30.6506C37.8115 30.8835 37.3096 31 36.7187 31ZM35.6278 30.375H36.6733C37.1543 30.375 37.553 30.2822 37.8693 30.0966C38.1856 29.911 38.4214 29.6468 38.5767 29.304C38.732 28.9612 38.8096 28.5531 38.8096 28.0796C38.8096 27.6099 38.7329 27.2055 38.5795 26.8665C38.4261 26.5256 38.197 26.2642 37.892 26.0824C37.5871 25.8987 37.2074 25.8068 36.7528 25.8068H35.6278V30.375Z" fill="#3B5998"/>
</svg>
