<svg width="95" height="19" viewBox="0 0 95 19" fill="none" xmlns="http://www.w3.org/2000/svg">
<mask id="path-1-outside-1_279_229" maskUnits="userSpaceOnUse" x="29.2217" y="14.7607" width="33" height="5" fill="black">
<rect fill="white" x="29.2217" y="14.7607" width="33" height="5"/>
<path d="M30.2217 18.1927V15.7935H30.5122V16.8619H31.7915V15.7935H32.082V18.1927H31.7915V17.1196H30.5122V18.1927H30.2217Z"/>
<path d="M33.3806 18.2302C33.2072 18.2302 33.0576 18.1919 32.9319 18.1154C32.8069 18.038 32.7105 17.9303 32.6425 17.792C32.5754 17.653 32.5418 17.4914 32.5418 17.307C32.5418 17.1227 32.5754 16.9603 32.6425 16.8197C32.7105 16.6783 32.805 16.5682 32.926 16.4893C33.0479 16.4097 33.19 16.3699 33.3525 16.3699C33.4462 16.3699 33.5387 16.3855 33.6301 16.4167C33.7215 16.448 33.8047 16.4987 33.8796 16.569C33.9546 16.6385 34.0144 16.7307 34.0589 16.8455C34.1034 16.9603 34.1256 17.1016 34.1256 17.2695V17.3867H32.7386V17.1477H33.8445C33.8445 17.0462 33.8242 16.9556 33.7836 16.8759C33.7437 16.7963 33.6867 16.7334 33.6125 16.6873C33.5391 16.6412 33.4524 16.6182 33.3525 16.6182C33.2423 16.6182 33.1471 16.6455 33.0666 16.7002C32.987 16.7541 32.9257 16.8244 32.8827 16.9111C32.8397 16.9978 32.8183 17.0907 32.8183 17.1899V17.3492C32.8183 17.4851 32.8417 17.6003 32.8886 17.6948C32.9362 17.7885 33.0022 17.86 33.0865 17.9092C33.1709 17.9576 33.2689 17.9818 33.3806 17.9818C33.4532 17.9818 33.5188 17.9717 33.5774 17.9514C33.6367 17.9303 33.6879 17.899 33.7309 17.8576C33.7738 17.8155 33.807 17.7631 33.8304 17.7007L34.0975 17.7756C34.0694 17.8662 34.0222 17.9459 33.9558 18.0146C33.8894 18.0826 33.8074 18.1357 33.7098 18.1739C33.6121 18.2114 33.5024 18.2302 33.3806 18.2302Z"/>
<path d="M34.8227 15.7935V18.1927H34.5462V15.7935H34.8227Z"/>
<path d="M35.6055 15.7935V18.1927H35.329V15.7935H35.6055Z"/>
<path d="M36.8429 18.2302C36.6804 18.2302 36.5379 18.1915 36.4153 18.1142C36.2935 18.0369 36.1982 17.9287 36.1295 17.7897C36.0615 17.6507 36.0275 17.4882 36.0275 17.3024C36.0275 17.1149 36.0615 16.9513 36.1295 16.8115C36.1982 16.6717 36.2935 16.5631 36.4153 16.4858C36.5379 16.4085 36.6804 16.3699 36.8429 16.3699C37.0053 16.3699 37.1475 16.4085 37.2693 16.4858C37.3919 16.5631 37.4872 16.6717 37.5552 16.8115C37.6239 16.9513 37.6582 17.1149 37.6582 17.3024C37.6582 17.4882 37.6239 17.6507 37.5552 17.7897C37.4872 17.9287 37.3919 18.0369 37.2693 18.1142C37.1475 18.1915 37.0053 18.2302 36.8429 18.2302ZM36.8429 17.9818C36.9663 17.9818 37.0678 17.9502 37.1475 17.8869C37.2271 17.8237 37.2861 17.7405 37.3244 17.6374C37.3626 17.5343 37.3818 17.4226 37.3818 17.3024C37.3818 17.1821 37.3626 17.07 37.3244 16.9661C37.2861 16.8623 37.2271 16.7783 37.1475 16.7143C37.0678 16.6502 36.9663 16.6182 36.8429 16.6182C36.7195 16.6182 36.618 16.6502 36.5383 16.7143C36.4586 16.7783 36.3997 16.8623 36.3614 16.9661C36.3231 17.07 36.304 17.1821 36.304 17.3024C36.304 17.4226 36.3231 17.5343 36.3614 17.6374C36.3997 17.7405 36.4586 17.8237 36.5383 17.8869C36.618 17.9502 36.7195 17.9818 36.8429 17.9818Z"/>
<path d="M38.4926 17.8647L38.4739 17.9912C38.4606 18.0802 38.4403 18.1755 38.413 18.277C38.3864 18.3786 38.3587 18.4742 38.3298 18.564C38.3009 18.6539 38.2771 18.7253 38.2583 18.7784H38.0475C38.0576 18.7284 38.0709 18.6624 38.0873 18.5804C38.1037 18.4984 38.1201 18.4067 38.1365 18.3051C38.1537 18.2044 38.1677 18.1013 38.1787 17.9959L38.1927 17.8647H38.4926Z"/>
<path d="M39.9702 18.1927V15.7935H40.2607V16.8619H41.54V15.7935H41.8305V18.1927H41.54V17.1196H40.2607V18.1927H39.9702Z"/>
<path d="M43.1056 18.2302C42.9432 18.2302 42.8007 18.1915 42.678 18.1142C42.5562 18.0369 42.4609 17.9287 42.3922 17.7897C42.3243 17.6507 42.2903 17.4882 42.2903 17.3024C42.2903 17.1149 42.3243 16.9513 42.3922 16.8115C42.4609 16.6717 42.5562 16.5631 42.678 16.4858C42.8007 16.4085 42.9432 16.3699 43.1056 16.3699C43.2681 16.3699 43.4102 16.4085 43.5321 16.4858C43.6547 16.5631 43.75 16.6717 43.8179 16.8115C43.8866 16.9513 43.921 17.1149 43.921 17.3024C43.921 17.4882 43.8866 17.6507 43.8179 17.7897C43.75 17.9287 43.6547 18.0369 43.5321 18.1142C43.4102 18.1915 43.2681 18.2302 43.1056 18.2302ZM43.1056 17.9818C43.229 17.9818 43.3306 17.9502 43.4102 17.8869C43.4899 17.8237 43.5488 17.7405 43.5871 17.6374C43.6254 17.5343 43.6445 17.4226 43.6445 17.3024C43.6445 17.1821 43.6254 17.07 43.5871 16.9661C43.5488 16.8623 43.4899 16.7783 43.4102 16.7143C43.3306 16.6502 43.229 16.6182 43.1056 16.6182C42.9822 16.6182 42.8807 16.6502 42.8011 16.7143C42.7214 16.7783 42.6624 16.8623 42.6242 16.9661C42.5859 17.07 42.5668 17.1821 42.5668 17.3024C42.5668 17.4226 42.5859 17.5343 42.6242 17.6374C42.6624 17.7405 42.7214 17.8237 42.8011 17.8869C42.8807 17.9502 42.9822 17.9818 43.1056 17.9818Z"/>
<path d="M44.6895 18.1927L44.1412 16.3933H44.4318L44.8207 17.7709H44.8394L45.2237 16.3933H45.5189L45.8984 17.7663H45.9172L46.3061 16.3933H46.5967L46.0484 18.1927H45.7766L45.383 16.8103H45.3549L44.9613 18.1927H44.6895Z"/>
<path d="M48.0259 18.1927H47.7213L48.6022 15.7935H48.9021L49.7831 18.1927H49.4785L48.7615 16.173H48.7428L48.0259 18.1927ZM48.1383 17.2555H49.366V17.5132H48.1383V17.2555Z"/>
<path d="M50.1193 18.1927V16.3933H50.3864V16.6651H50.4051C50.4379 16.576 50.4973 16.5038 50.5832 16.4483C50.6691 16.3929 50.766 16.3652 50.8737 16.3652C50.894 16.3652 50.9194 16.3656 50.9499 16.3663C50.9803 16.3671 51.0034 16.3683 51.019 16.3699V16.651C51.0096 16.6487 50.9881 16.6451 50.9546 16.6405C50.9218 16.635 50.887 16.6323 50.8503 16.6323C50.7628 16.6323 50.6847 16.6506 50.616 16.6873C50.5481 16.7232 50.4942 16.7732 50.4543 16.8373C50.4153 16.9005 50.3958 16.9728 50.3958 17.054V18.1927H50.1193Z"/>
<path d="M52.0464 18.2302C51.873 18.2302 51.7234 18.1919 51.5977 18.1154C51.4727 18.038 51.3763 17.9303 51.3084 17.792C51.2412 17.653 51.2076 17.4914 51.2076 17.307C51.2076 17.1227 51.2412 16.9603 51.3084 16.8197C51.3763 16.6783 51.4708 16.5682 51.5918 16.4893C51.7137 16.4097 51.8558 16.3699 52.0183 16.3699C52.112 16.3699 52.2045 16.3855 52.2959 16.4167C52.3873 16.448 52.4705 16.4987 52.5454 16.569C52.6204 16.6385 52.6802 16.7307 52.7247 16.8455C52.7692 16.9603 52.7914 17.1016 52.7914 17.2695V17.3867H51.4044V17.1477H52.5103C52.5103 17.0462 52.49 16.9556 52.4494 16.8759C52.4095 16.7963 52.3525 16.7334 52.2783 16.6873C52.2049 16.6412 52.1182 16.6182 52.0183 16.6182C51.9081 16.6182 51.8129 16.6455 51.7324 16.7002C51.6528 16.7541 51.5915 16.8244 51.5485 16.9111C51.5056 16.9978 51.4841 17.0907 51.4841 17.1899V17.3492C51.4841 17.4851 51.5075 17.6003 51.5544 17.6948C51.602 17.7885 51.668 17.86 51.7523 17.9092C51.8367 17.9576 51.9347 17.9818 52.0464 17.9818C52.119 17.9818 52.1846 17.9717 52.2432 17.9514C52.3025 17.9303 52.3537 17.899 52.3967 17.8576C52.4396 17.8155 52.4728 17.7631 52.4962 17.7007L52.7633 17.7756C52.7352 17.8662 52.688 17.9459 52.6216 18.0146C52.5552 18.0826 52.4732 18.1357 52.3756 18.1739C52.2779 18.2114 52.1682 18.2302 52.0464 18.2302Z"/>
<path d="M53.9711 15.7935H54.3038L54.9692 16.9134H54.9973L55.6627 15.7935H55.9954L55.1286 17.2039V18.1927H54.838V17.2039L53.9711 15.7935Z"/>
<path d="M56.8102 18.2302C56.6478 18.2302 56.5052 18.1915 56.3826 18.1142C56.2608 18.0369 56.1655 17.9287 56.0968 17.7897C56.0288 17.6507 55.9949 17.4882 55.9949 17.3024C55.9949 17.1149 56.0288 16.9513 56.0968 16.8115C56.1655 16.6717 56.2608 16.5631 56.3826 16.4858C56.5052 16.4085 56.6478 16.3699 56.8102 16.3699C56.9727 16.3699 57.1148 16.4085 57.2366 16.4858C57.3592 16.5631 57.4545 16.6717 57.5225 16.8115C57.5912 16.9513 57.6256 17.1149 57.6256 17.3024C57.6256 17.4882 57.5912 17.6507 57.5225 17.7897C57.4545 17.9287 57.3592 18.0369 57.2366 18.1142C57.1148 18.1915 56.9727 18.2302 56.8102 18.2302ZM56.8102 17.9818C56.9336 17.9818 57.0351 17.9502 57.1148 17.8869C57.1945 17.8237 57.2534 17.7405 57.2917 17.6374C57.33 17.5343 57.3491 17.4226 57.3491 17.3024C57.3491 17.1821 57.33 17.07 57.2917 16.9661C57.2534 16.8623 57.1945 16.7783 57.1148 16.7143C57.0351 16.6502 56.9336 16.6182 56.8102 16.6182C56.6868 16.6182 56.5853 16.6502 56.5056 16.7143C56.426 16.7783 56.367 16.8623 56.3287 16.9661C56.2905 17.07 56.2713 17.1821 56.2713 17.3024C56.2713 17.4226 56.2905 17.5343 56.3287 17.6374C56.367 17.7405 56.426 17.8237 56.5056 17.8869C56.5853 17.9502 56.6868 17.9818 56.8102 17.9818Z"/>
<path d="M59.1816 17.457V16.3933H59.4581V18.1927H59.1816V17.8881H59.1628C59.1207 17.9795 59.0551 18.0572 58.966 18.1212C58.877 18.1845 58.7645 18.2161 58.6286 18.2161C58.5162 18.2161 58.4162 18.1915 58.3287 18.1423C58.2413 18.0923 58.1726 18.0173 58.1226 17.9174C58.0726 17.8166 58.0476 17.6897 58.0476 17.5366V16.3933H58.3241V17.5179C58.3241 17.6491 58.3608 17.7538 58.4342 17.8319C58.5084 17.91 58.6029 17.949 58.7177 17.949C58.7864 17.949 58.8563 17.9314 58.9274 17.8963C58.9992 17.8611 59.0594 17.8073 59.1078 17.7346C59.157 17.662 59.1816 17.5694 59.1816 17.457Z"/>
<path d="M60.3252 17.5179V17.5038C60.3268 17.3547 60.3424 17.236 60.3721 17.1477C60.4018 17.0595 60.444 16.988 60.4986 16.9333C60.5533 16.8787 60.6189 16.8283 60.6954 16.7822C60.7415 16.7541 60.7829 16.7209 60.8196 16.6826C60.8563 16.6436 60.8852 16.5987 60.9063 16.5479C60.9282 16.4972 60.9391 16.4409 60.9391 16.3792C60.9391 16.3027 60.9211 16.2363 60.8852 16.1801C60.8493 16.1238 60.8013 16.0805 60.7411 16.05C60.681 16.0196 60.6142 16.0043 60.5408 16.0043C60.4768 16.0043 60.4151 16.0176 60.3557 16.0442C60.2963 16.0707 60.2468 16.1125 60.2069 16.1695C60.1671 16.2265 60.1441 16.3011 60.1378 16.3933H59.8426C59.8488 16.2605 59.8832 16.1469 59.9457 16.0524C60.0089 15.9579 60.0921 15.8856 60.1952 15.8357C60.2991 15.7857 60.4143 15.7607 60.5408 15.7607C60.6783 15.7607 60.7977 15.788 60.8993 15.8427C61.0016 15.8974 61.0805 15.9723 61.1359 16.0676C61.1921 16.1629 61.2203 16.2714 61.2203 16.3933C61.2203 16.4792 61.207 16.5569 61.1804 16.6264C61.1547 16.6959 61.1172 16.758 61.068 16.8127C61.0195 16.8673 60.961 16.9158 60.8922 16.9579C60.8235 17.0009 60.7685 17.0462 60.7271 17.0938C60.6857 17.1407 60.6556 17.1965 60.6369 17.2613C60.6181 17.3262 60.608 17.407 60.6064 17.5038V17.5179H60.3252ZM60.4752 18.2114C60.4174 18.2114 60.3678 18.1907 60.3264 18.1493C60.285 18.1079 60.2643 18.0583 60.2643 18.0006C60.2643 17.9428 60.285 17.8932 60.3264 17.8518C60.3678 17.8104 60.4174 17.7897 60.4752 17.7897C60.533 17.7897 60.5826 17.8104 60.624 17.8518C60.6654 17.8932 60.6861 17.9428 60.6861 18.0006C60.6861 18.0388 60.6763 18.074 60.6568 18.106C60.638 18.138 60.6126 18.1638 60.5806 18.1833C60.5494 18.202 60.5142 18.2114 60.4752 18.2114Z"/>
</mask>
<path d="M30.2217 18.1927V15.7935H30.5122V16.8619H31.7915V15.7935H32.082V18.1927H31.7915V17.1196H30.5122V18.1927H30.2217Z" fill="#3B5998"/>
<path d="M33.3806 18.2302C33.2072 18.2302 33.0576 18.1919 32.9319 18.1154C32.8069 18.038 32.7105 17.9303 32.6425 17.792C32.5754 17.653 32.5418 17.4914 32.5418 17.307C32.5418 17.1227 32.5754 16.9603 32.6425 16.8197C32.7105 16.6783 32.805 16.5682 32.926 16.4893C33.0479 16.4097 33.19 16.3699 33.3525 16.3699C33.4462 16.3699 33.5387 16.3855 33.6301 16.4167C33.7215 16.448 33.8047 16.4987 33.8796 16.569C33.9546 16.6385 34.0144 16.7307 34.0589 16.8455C34.1034 16.9603 34.1256 17.1016 34.1256 17.2695V17.3867H32.7386V17.1477H33.8445C33.8445 17.0462 33.8242 16.9556 33.7836 16.8759C33.7437 16.7963 33.6867 16.7334 33.6125 16.6873C33.5391 16.6412 33.4524 16.6182 33.3525 16.6182C33.2423 16.6182 33.1471 16.6455 33.0666 16.7002C32.987 16.7541 32.9257 16.8244 32.8827 16.9111C32.8397 16.9978 32.8183 17.0907 32.8183 17.1899V17.3492C32.8183 17.4851 32.8417 17.6003 32.8886 17.6948C32.9362 17.7885 33.0022 17.86 33.0865 17.9092C33.1709 17.9576 33.2689 17.9818 33.3806 17.9818C33.4532 17.9818 33.5188 17.9717 33.5774 17.9514C33.6367 17.9303 33.6879 17.899 33.7309 17.8576C33.7738 17.8155 33.807 17.7631 33.8304 17.7007L34.0975 17.7756C34.0694 17.8662 34.0222 17.9459 33.9558 18.0146C33.8894 18.0826 33.8074 18.1357 33.7098 18.1739C33.6121 18.2114 33.5024 18.2302 33.3806 18.2302Z" fill="#3B5998"/>
<path d="M34.8227 15.7935V18.1927H34.5462V15.7935H34.8227Z" fill="#3B5998"/>
<path d="M35.6055 15.7935V18.1927H35.329V15.7935H35.6055Z" fill="#3B5998"/>
<path d="M36.8429 18.2302C36.6804 18.2302 36.5379 18.1915 36.4153 18.1142C36.2935 18.0369 36.1982 17.9287 36.1295 17.7897C36.0615 17.6507 36.0275 17.4882 36.0275 17.3024C36.0275 17.1149 36.0615 16.9513 36.1295 16.8115C36.1982 16.6717 36.2935 16.5631 36.4153 16.4858C36.5379 16.4085 36.6804 16.3699 36.8429 16.3699C37.0053 16.3699 37.1475 16.4085 37.2693 16.4858C37.3919 16.5631 37.4872 16.6717 37.5552 16.8115C37.6239 16.9513 37.6582 17.1149 37.6582 17.3024C37.6582 17.4882 37.6239 17.6507 37.5552 17.7897C37.4872 17.9287 37.3919 18.0369 37.2693 18.1142C37.1475 18.1915 37.0053 18.2302 36.8429 18.2302ZM36.8429 17.9818C36.9663 17.9818 37.0678 17.9502 37.1475 17.8869C37.2271 17.8237 37.2861 17.7405 37.3244 17.6374C37.3626 17.5343 37.3818 17.4226 37.3818 17.3024C37.3818 17.1821 37.3626 17.07 37.3244 16.9661C37.2861 16.8623 37.2271 16.7783 37.1475 16.7143C37.0678 16.6502 36.9663 16.6182 36.8429 16.6182C36.7195 16.6182 36.618 16.6502 36.5383 16.7143C36.4586 16.7783 36.3997 16.8623 36.3614 16.9661C36.3231 17.07 36.304 17.1821 36.304 17.3024C36.304 17.4226 36.3231 17.5343 36.3614 17.6374C36.3997 17.7405 36.4586 17.8237 36.5383 17.8869C36.618 17.9502 36.7195 17.9818 36.8429 17.9818Z" fill="#3B5998"/>
<path d="M38.4926 17.8647L38.4739 17.9912C38.4606 18.0802 38.4403 18.1755 38.413 18.277C38.3864 18.3786 38.3587 18.4742 38.3298 18.564C38.3009 18.6539 38.2771 18.7253 38.2583 18.7784H38.0475C38.0576 18.7284 38.0709 18.6624 38.0873 18.5804C38.1037 18.4984 38.1201 18.4067 38.1365 18.3051C38.1537 18.2044 38.1677 18.1013 38.1787 17.9959L38.1927 17.8647H38.4926Z" fill="#3B5998"/>
<path d="M39.9702 18.1927V15.7935H40.2607V16.8619H41.54V15.7935H41.8305V18.1927H41.54V17.1196H40.2607V18.1927H39.9702Z" fill="#3B5998"/>
<path d="M43.1056 18.2302C42.9432 18.2302 42.8007 18.1915 42.678 18.1142C42.5562 18.0369 42.4609 17.9287 42.3922 17.7897C42.3243 17.6507 42.2903 17.4882 42.2903 17.3024C42.2903 17.1149 42.3243 16.9513 42.3922 16.8115C42.4609 16.6717 42.5562 16.5631 42.678 16.4858C42.8007 16.4085 42.9432 16.3699 43.1056 16.3699C43.2681 16.3699 43.4102 16.4085 43.5321 16.4858C43.6547 16.5631 43.75 16.6717 43.8179 16.8115C43.8866 16.9513 43.921 17.1149 43.921 17.3024C43.921 17.4882 43.8866 17.6507 43.8179 17.7897C43.75 17.9287 43.6547 18.0369 43.5321 18.1142C43.4102 18.1915 43.2681 18.2302 43.1056 18.2302ZM43.1056 17.9818C43.229 17.9818 43.3306 17.9502 43.4102 17.8869C43.4899 17.8237 43.5488 17.7405 43.5871 17.6374C43.6254 17.5343 43.6445 17.4226 43.6445 17.3024C43.6445 17.1821 43.6254 17.07 43.5871 16.9661C43.5488 16.8623 43.4899 16.7783 43.4102 16.7143C43.3306 16.6502 43.229 16.6182 43.1056 16.6182C42.9822 16.6182 42.8807 16.6502 42.8011 16.7143C42.7214 16.7783 42.6624 16.8623 42.6242 16.9661C42.5859 17.07 42.5668 17.1821 42.5668 17.3024C42.5668 17.4226 42.5859 17.5343 42.6242 17.6374C42.6624 17.7405 42.7214 17.8237 42.8011 17.8869C42.8807 17.9502 42.9822 17.9818 43.1056 17.9818Z" fill="#3B5998"/>
<path d="M44.6895 18.1927L44.1412 16.3933H44.4318L44.8207 17.7709H44.8394L45.2237 16.3933H45.5189L45.8984 17.7663H45.9172L46.3061 16.3933H46.5967L46.0484 18.1927H45.7766L45.383 16.8103H45.3549L44.9613 18.1927H44.6895Z" fill="#3B5998"/>
<path d="M48.0259 18.1927H47.7213L48.6022 15.7935H48.9021L49.7831 18.1927H49.4785L48.7615 16.173H48.7428L48.0259 18.1927ZM48.1383 17.2555H49.366V17.5132H48.1383V17.2555Z" fill="#3B5998"/>
<path d="M50.1193 18.1927V16.3933H50.3864V16.6651H50.4051C50.4379 16.576 50.4973 16.5038 50.5832 16.4483C50.6691 16.3929 50.766 16.3652 50.8737 16.3652C50.894 16.3652 50.9194 16.3656 50.9499 16.3663C50.9803 16.3671 51.0034 16.3683 51.019 16.3699V16.651C51.0096 16.6487 50.9881 16.6451 50.9546 16.6405C50.9218 16.635 50.887 16.6323 50.8503 16.6323C50.7628 16.6323 50.6847 16.6506 50.616 16.6873C50.5481 16.7232 50.4942 16.7732 50.4543 16.8373C50.4153 16.9005 50.3958 16.9728 50.3958 17.054V18.1927H50.1193Z" fill="#3B5998"/>
<path d="M52.0464 18.2302C51.873 18.2302 51.7234 18.1919 51.5977 18.1154C51.4727 18.038 51.3763 17.9303 51.3084 17.792C51.2412 17.653 51.2076 17.4914 51.2076 17.307C51.2076 17.1227 51.2412 16.9603 51.3084 16.8197C51.3763 16.6783 51.4708 16.5682 51.5918 16.4893C51.7137 16.4097 51.8558 16.3699 52.0183 16.3699C52.112 16.3699 52.2045 16.3855 52.2959 16.4167C52.3873 16.448 52.4705 16.4987 52.5454 16.569C52.6204 16.6385 52.6802 16.7307 52.7247 16.8455C52.7692 16.9603 52.7914 17.1016 52.7914 17.2695V17.3867H51.4044V17.1477H52.5103C52.5103 17.0462 52.49 16.9556 52.4494 16.8759C52.4095 16.7963 52.3525 16.7334 52.2783 16.6873C52.2049 16.6412 52.1182 16.6182 52.0183 16.6182C51.9081 16.6182 51.8129 16.6455 51.7324 16.7002C51.6528 16.7541 51.5915 16.8244 51.5485 16.9111C51.5056 16.9978 51.4841 17.0907 51.4841 17.1899V17.3492C51.4841 17.4851 51.5075 17.6003 51.5544 17.6948C51.602 17.7885 51.668 17.86 51.7523 17.9092C51.8367 17.9576 51.9347 17.9818 52.0464 17.9818C52.119 17.9818 52.1846 17.9717 52.2432 17.9514C52.3025 17.9303 52.3537 17.899 52.3967 17.8576C52.4396 17.8155 52.4728 17.7631 52.4962 17.7007L52.7633 17.7756C52.7352 17.8662 52.688 17.9459 52.6216 18.0146C52.5552 18.0826 52.4732 18.1357 52.3756 18.1739C52.2779 18.2114 52.1682 18.2302 52.0464 18.2302Z" fill="#3B5998"/>
<path d="M53.9711 15.7935H54.3038L54.9692 16.9134H54.9973L55.6627 15.7935H55.9954L55.1286 17.2039V18.1927H54.838V17.2039L53.9711 15.7935Z" fill="#3B5998"/>
<path d="M56.8102 18.2302C56.6478 18.2302 56.5052 18.1915 56.3826 18.1142C56.2608 18.0369 56.1655 17.9287 56.0968 17.7897C56.0288 17.6507 55.9949 17.4882 55.9949 17.3024C55.9949 17.1149 56.0288 16.9513 56.0968 16.8115C56.1655 16.6717 56.2608 16.5631 56.3826 16.4858C56.5052 16.4085 56.6478 16.3699 56.8102 16.3699C56.9727 16.3699 57.1148 16.4085 57.2366 16.4858C57.3592 16.5631 57.4545 16.6717 57.5225 16.8115C57.5912 16.9513 57.6256 17.1149 57.6256 17.3024C57.6256 17.4882 57.5912 17.6507 57.5225 17.7897C57.4545 17.9287 57.3592 18.0369 57.2366 18.1142C57.1148 18.1915 56.9727 18.2302 56.8102 18.2302ZM56.8102 17.9818C56.9336 17.9818 57.0351 17.9502 57.1148 17.8869C57.1945 17.8237 57.2534 17.7405 57.2917 17.6374C57.33 17.5343 57.3491 17.4226 57.3491 17.3024C57.3491 17.1821 57.33 17.07 57.2917 16.9661C57.2534 16.8623 57.1945 16.7783 57.1148 16.7143C57.0351 16.6502 56.9336 16.6182 56.8102 16.6182C56.6868 16.6182 56.5853 16.6502 56.5056 16.7143C56.426 16.7783 56.367 16.8623 56.3287 16.9661C56.2905 17.07 56.2713 17.1821 56.2713 17.3024C56.2713 17.4226 56.2905 17.5343 56.3287 17.6374C56.367 17.7405 56.426 17.8237 56.5056 17.8869C56.5853 17.9502 56.6868 17.9818 56.8102 17.9818Z" fill="#3B5998"/>
<path d="M59.1816 17.457V16.3933H59.4581V18.1927H59.1816V17.8881H59.1628C59.1207 17.9795 59.0551 18.0572 58.966 18.1212C58.877 18.1845 58.7645 18.2161 58.6286 18.2161C58.5162 18.2161 58.4162 18.1915 58.3287 18.1423C58.2413 18.0923 58.1726 18.0173 58.1226 17.9174C58.0726 17.8166 58.0476 17.6897 58.0476 17.5366V16.3933H58.3241V17.5179C58.3241 17.6491 58.3608 17.7538 58.4342 17.8319C58.5084 17.91 58.6029 17.949 58.7177 17.949C58.7864 17.949 58.8563 17.9314 58.9274 17.8963C58.9992 17.8611 59.0594 17.8073 59.1078 17.7346C59.157 17.662 59.1816 17.5694 59.1816 17.457Z" fill="#3B5998"/>
<path d="M60.3252 17.5179V17.5038C60.3268 17.3547 60.3424 17.236 60.3721 17.1477C60.4018 17.0595 60.444 16.988 60.4986 16.9333C60.5533 16.8787 60.6189 16.8283 60.6954 16.7822C60.7415 16.7541 60.7829 16.7209 60.8196 16.6826C60.8563 16.6436 60.8852 16.5987 60.9063 16.5479C60.9282 16.4972 60.9391 16.4409 60.9391 16.3792C60.9391 16.3027 60.9211 16.2363 60.8852 16.1801C60.8493 16.1238 60.8013 16.0805 60.7411 16.05C60.681 16.0196 60.6142 16.0043 60.5408 16.0043C60.4768 16.0043 60.4151 16.0176 60.3557 16.0442C60.2963 16.0707 60.2468 16.1125 60.2069 16.1695C60.1671 16.2265 60.1441 16.3011 60.1378 16.3933H59.8426C59.8488 16.2605 59.8832 16.1469 59.9457 16.0524C60.0089 15.9579 60.0921 15.8856 60.1952 15.8357C60.2991 15.7857 60.4143 15.7607 60.5408 15.7607C60.6783 15.7607 60.7977 15.788 60.8993 15.8427C61.0016 15.8974 61.0805 15.9723 61.1359 16.0676C61.1921 16.1629 61.2203 16.2714 61.2203 16.3933C61.2203 16.4792 61.207 16.5569 61.1804 16.6264C61.1547 16.6959 61.1172 16.758 61.068 16.8127C61.0195 16.8673 60.961 16.9158 60.8922 16.9579C60.8235 17.0009 60.7685 17.0462 60.7271 17.0938C60.6857 17.1407 60.6556 17.1965 60.6369 17.2613C60.6181 17.3262 60.608 17.407 60.6064 17.5038V17.5179H60.3252ZM60.4752 18.2114C60.4174 18.2114 60.3678 18.1907 60.3264 18.1493C60.285 18.1079 60.2643 18.0583 60.2643 18.0006C60.2643 17.9428 60.285 17.8932 60.3264 17.8518C60.3678 17.8104 60.4174 17.7897 60.4752 17.7897C60.533 17.7897 60.5826 17.8104 60.624 17.8518C60.6654 17.8932 60.6861 17.9428 60.6861 18.0006C60.6861 18.0388 60.6763 18.074 60.6568 18.106C60.638 18.138 60.6126 18.1638 60.5806 18.1833C60.5494 18.202 60.5142 18.2114 60.4752 18.2114Z" fill="#3B5998"/>
<path d="M30.2217 18.1927V15.7935H30.5122V16.8619H31.7915V15.7935H32.082V18.1927H31.7915V17.1196H30.5122V18.1927H30.2217Z" stroke="#3B5998" stroke-width="0.2" mask="url(#path-1-outside-1_279_229)"/>
<path d="M33.3806 18.2302C33.2072 18.2302 33.0576 18.1919 32.9319 18.1154C32.8069 18.038 32.7105 17.9303 32.6425 17.792C32.5754 17.653 32.5418 17.4914 32.5418 17.307C32.5418 17.1227 32.5754 16.9603 32.6425 16.8197C32.7105 16.6783 32.805 16.5682 32.926 16.4893C33.0479 16.4097 33.19 16.3699 33.3525 16.3699C33.4462 16.3699 33.5387 16.3855 33.6301 16.4167C33.7215 16.448 33.8047 16.4987 33.8796 16.569C33.9546 16.6385 34.0144 16.7307 34.0589 16.8455C34.1034 16.9603 34.1256 17.1016 34.1256 17.2695V17.3867H32.7386V17.1477H33.8445C33.8445 17.0462 33.8242 16.9556 33.7836 16.8759C33.7437 16.7963 33.6867 16.7334 33.6125 16.6873C33.5391 16.6412 33.4524 16.6182 33.3525 16.6182C33.2423 16.6182 33.1471 16.6455 33.0666 16.7002C32.987 16.7541 32.9257 16.8244 32.8827 16.9111C32.8397 16.9978 32.8183 17.0907 32.8183 17.1899V17.3492C32.8183 17.4851 32.8417 17.6003 32.8886 17.6948C32.9362 17.7885 33.0022 17.86 33.0865 17.9092C33.1709 17.9576 33.2689 17.9818 33.3806 17.9818C33.4532 17.9818 33.5188 17.9717 33.5774 17.9514C33.6367 17.9303 33.6879 17.899 33.7309 17.8576C33.7738 17.8155 33.807 17.7631 33.8304 17.7007L34.0975 17.7756C34.0694 17.8662 34.0222 17.9459 33.9558 18.0146C33.8894 18.0826 33.8074 18.1357 33.7098 18.1739C33.6121 18.2114 33.5024 18.2302 33.3806 18.2302Z" stroke="#3B5998" stroke-width="0.2" mask="url(#path-1-outside-1_279_229)"/>
<path d="M34.8227 15.7935V18.1927H34.5462V15.7935H34.8227Z" stroke="#3B5998" stroke-width="0.2" mask="url(#path-1-outside-1_279_229)"/>
<path d="M35.6055 15.7935V18.1927H35.329V15.7935H35.6055Z" stroke="#3B5998" stroke-width="0.2" mask="url(#path-1-outside-1_279_229)"/>
<path d="M36.8429 18.2302C36.6804 18.2302 36.5379 18.1915 36.4153 18.1142C36.2935 18.0369 36.1982 17.9287 36.1295 17.7897C36.0615 17.6507 36.0275 17.4882 36.0275 17.3024C36.0275 17.1149 36.0615 16.9513 36.1295 16.8115C36.1982 16.6717 36.2935 16.5631 36.4153 16.4858C36.5379 16.4085 36.6804 16.3699 36.8429 16.3699C37.0053 16.3699 37.1475 16.4085 37.2693 16.4858C37.3919 16.5631 37.4872 16.6717 37.5552 16.8115C37.6239 16.9513 37.6582 17.1149 37.6582 17.3024C37.6582 17.4882 37.6239 17.6507 37.5552 17.7897C37.4872 17.9287 37.3919 18.0369 37.2693 18.1142C37.1475 18.1915 37.0053 18.2302 36.8429 18.2302ZM36.8429 17.9818C36.9663 17.9818 37.0678 17.9502 37.1475 17.8869C37.2271 17.8237 37.2861 17.7405 37.3244 17.6374C37.3626 17.5343 37.3818 17.4226 37.3818 17.3024C37.3818 17.1821 37.3626 17.07 37.3244 16.9661C37.2861 16.8623 37.2271 16.7783 37.1475 16.7143C37.0678 16.6502 36.9663 16.6182 36.8429 16.6182C36.7195 16.6182 36.618 16.6502 36.5383 16.7143C36.4586 16.7783 36.3997 16.8623 36.3614 16.9661C36.3231 17.07 36.304 17.1821 36.304 17.3024C36.304 17.4226 36.3231 17.5343 36.3614 17.6374C36.3997 17.7405 36.4586 17.8237 36.5383 17.8869C36.618 17.9502 36.7195 17.9818 36.8429 17.9818Z" stroke="#3B5998" stroke-width="0.2" mask="url(#path-1-outside-1_279_229)"/>
<path d="M38.4926 17.8647L38.4739 17.9912C38.4606 18.0802 38.4403 18.1755 38.413 18.277C38.3864 18.3786 38.3587 18.4742 38.3298 18.564C38.3009 18.6539 38.2771 18.7253 38.2583 18.7784H38.0475C38.0576 18.7284 38.0709 18.6624 38.0873 18.5804C38.1037 18.4984 38.1201 18.4067 38.1365 18.3051C38.1537 18.2044 38.1677 18.1013 38.1787 17.9959L38.1927 17.8647H38.4926Z" stroke="#3B5998" stroke-width="0.2" mask="url(#path-1-outside-1_279_229)"/>
<path d="M39.9702 18.1927V15.7935H40.2607V16.8619H41.54V15.7935H41.8305V18.1927H41.54V17.1196H40.2607V18.1927H39.9702Z" stroke="#3B5998" stroke-width="0.2" mask="url(#path-1-outside-1_279_229)"/>
<path d="M43.1056 18.2302C42.9432 18.2302 42.8007 18.1915 42.678 18.1142C42.5562 18.0369 42.4609 17.9287 42.3922 17.7897C42.3243 17.6507 42.2903 17.4882 42.2903 17.3024C42.2903 17.1149 42.3243 16.9513 42.3922 16.8115C42.4609 16.6717 42.5562 16.5631 42.678 16.4858C42.8007 16.4085 42.9432 16.3699 43.1056 16.3699C43.2681 16.3699 43.4102 16.4085 43.5321 16.4858C43.6547 16.5631 43.75 16.6717 43.8179 16.8115C43.8866 16.9513 43.921 17.1149 43.921 17.3024C43.921 17.4882 43.8866 17.6507 43.8179 17.7897C43.75 17.9287 43.6547 18.0369 43.5321 18.1142C43.4102 18.1915 43.2681 18.2302 43.1056 18.2302ZM43.1056 17.9818C43.229 17.9818 43.3306 17.9502 43.4102 17.8869C43.4899 17.8237 43.5488 17.7405 43.5871 17.6374C43.6254 17.5343 43.6445 17.4226 43.6445 17.3024C43.6445 17.1821 43.6254 17.07 43.5871 16.9661C43.5488 16.8623 43.4899 16.7783 43.4102 16.7143C43.3306 16.6502 43.229 16.6182 43.1056 16.6182C42.9822 16.6182 42.8807 16.6502 42.8011 16.7143C42.7214 16.7783 42.6624 16.8623 42.6242 16.9661C42.5859 17.07 42.5668 17.1821 42.5668 17.3024C42.5668 17.4226 42.5859 17.5343 42.6242 17.6374C42.6624 17.7405 42.7214 17.8237 42.8011 17.8869C42.8807 17.9502 42.9822 17.9818 43.1056 17.9818Z" stroke="#3B5998" stroke-width="0.2" mask="url(#path-1-outside-1_279_229)"/>
<path d="M44.6895 18.1927L44.1412 16.3933H44.4318L44.8207 17.7709H44.8394L45.2237 16.3933H45.5189L45.8984 17.7663H45.9172L46.3061 16.3933H46.5967L46.0484 18.1927H45.7766L45.383 16.8103H45.3549L44.9613 18.1927H44.6895Z" stroke="#3B5998" stroke-width="0.2" mask="url(#path-1-outside-1_279_229)"/>
<path d="M48.0259 18.1927H47.7213L48.6022 15.7935H48.9021L49.7831 18.1927H49.4785L48.7615 16.173H48.7428L48.0259 18.1927ZM48.1383 17.2555H49.366V17.5132H48.1383V17.2555Z" stroke="#3B5998" stroke-width="0.2" mask="url(#path-1-outside-1_279_229)"/>
<path d="M50.1193 18.1927V16.3933H50.3864V16.6651H50.4051C50.4379 16.576 50.4973 16.5038 50.5832 16.4483C50.6691 16.3929 50.766 16.3652 50.8737 16.3652C50.894 16.3652 50.9194 16.3656 50.9499 16.3663C50.9803 16.3671 51.0034 16.3683 51.019 16.3699V16.651C51.0096 16.6487 50.9881 16.6451 50.9546 16.6405C50.9218 16.635 50.887 16.6323 50.8503 16.6323C50.7628 16.6323 50.6847 16.6506 50.616 16.6873C50.5481 16.7232 50.4942 16.7732 50.4543 16.8373C50.4153 16.9005 50.3958 16.9728 50.3958 17.054V18.1927H50.1193Z" stroke="#3B5998" stroke-width="0.2" mask="url(#path-1-outside-1_279_229)"/>
<path d="M52.0464 18.2302C51.873 18.2302 51.7234 18.1919 51.5977 18.1154C51.4727 18.038 51.3763 17.9303 51.3084 17.792C51.2412 17.653 51.2076 17.4914 51.2076 17.307C51.2076 17.1227 51.2412 16.9603 51.3084 16.8197C51.3763 16.6783 51.4708 16.5682 51.5918 16.4893C51.7137 16.4097 51.8558 16.3699 52.0183 16.3699C52.112 16.3699 52.2045 16.3855 52.2959 16.4167C52.3873 16.448 52.4705 16.4987 52.5454 16.569C52.6204 16.6385 52.6802 16.7307 52.7247 16.8455C52.7692 16.9603 52.7914 17.1016 52.7914 17.2695V17.3867H51.4044V17.1477H52.5103C52.5103 17.0462 52.49 16.9556 52.4494 16.8759C52.4095 16.7963 52.3525 16.7334 52.2783 16.6873C52.2049 16.6412 52.1182 16.6182 52.0183 16.6182C51.9081 16.6182 51.8129 16.6455 51.7324 16.7002C51.6528 16.7541 51.5915 16.8244 51.5485 16.9111C51.5056 16.9978 51.4841 17.0907 51.4841 17.1899V17.3492C51.4841 17.4851 51.5075 17.6003 51.5544 17.6948C51.602 17.7885 51.668 17.86 51.7523 17.9092C51.8367 17.9576 51.9347 17.9818 52.0464 17.9818C52.119 17.9818 52.1846 17.9717 52.2432 17.9514C52.3025 17.9303 52.3537 17.899 52.3967 17.8576C52.4396 17.8155 52.4728 17.7631 52.4962 17.7007L52.7633 17.7756C52.7352 17.8662 52.688 17.9459 52.6216 18.0146C52.5552 18.0826 52.4732 18.1357 52.3756 18.1739C52.2779 18.2114 52.1682 18.2302 52.0464 18.2302Z" stroke="#3B5998" stroke-width="0.2" mask="url(#path-1-outside-1_279_229)"/>
<path d="M53.9711 15.7935H54.3038L54.9692 16.9134H54.9973L55.6627 15.7935H55.9954L55.1286 17.2039V18.1927H54.838V17.2039L53.9711 15.7935Z" stroke="#3B5998" stroke-width="0.2" mask="url(#path-1-outside-1_279_229)"/>
<path d="M56.8102 18.2302C56.6478 18.2302 56.5052 18.1915 56.3826 18.1142C56.2608 18.0369 56.1655 17.9287 56.0968 17.7897C56.0288 17.6507 55.9949 17.4882 55.9949 17.3024C55.9949 17.1149 56.0288 16.9513 56.0968 16.8115C56.1655 16.6717 56.2608 16.5631 56.3826 16.4858C56.5052 16.4085 56.6478 16.3699 56.8102 16.3699C56.9727 16.3699 57.1148 16.4085 57.2366 16.4858C57.3592 16.5631 57.4545 16.6717 57.5225 16.8115C57.5912 16.9513 57.6256 17.1149 57.6256 17.3024C57.6256 17.4882 57.5912 17.6507 57.5225 17.7897C57.4545 17.9287 57.3592 18.0369 57.2366 18.1142C57.1148 18.1915 56.9727 18.2302 56.8102 18.2302ZM56.8102 17.9818C56.9336 17.9818 57.0351 17.9502 57.1148 17.8869C57.1945 17.8237 57.2534 17.7405 57.2917 17.6374C57.33 17.5343 57.3491 17.4226 57.3491 17.3024C57.3491 17.1821 57.33 17.07 57.2917 16.9661C57.2534 16.8623 57.1945 16.7783 57.1148 16.7143C57.0351 16.6502 56.9336 16.6182 56.8102 16.6182C56.6868 16.6182 56.5853 16.6502 56.5056 16.7143C56.426 16.7783 56.367 16.8623 56.3287 16.9661C56.2905 17.07 56.2713 17.1821 56.2713 17.3024C56.2713 17.4226 56.2905 17.5343 56.3287 17.6374C56.367 17.7405 56.426 17.8237 56.5056 17.8869C56.5853 17.9502 56.6868 17.9818 56.8102 17.9818Z" stroke="#3B5998" stroke-width="0.2" mask="url(#path-1-outside-1_279_229)"/>
<path d="M59.1816 17.457V16.3933H59.4581V18.1927H59.1816V17.8881H59.1628C59.1207 17.9795 59.0551 18.0572 58.966 18.1212C58.877 18.1845 58.7645 18.2161 58.6286 18.2161C58.5162 18.2161 58.4162 18.1915 58.3287 18.1423C58.2413 18.0923 58.1726 18.0173 58.1226 17.9174C58.0726 17.8166 58.0476 17.6897 58.0476 17.5366V16.3933H58.3241V17.5179C58.3241 17.6491 58.3608 17.7538 58.4342 17.8319C58.5084 17.91 58.6029 17.949 58.7177 17.949C58.7864 17.949 58.8563 17.9314 58.9274 17.8963C58.9992 17.8611 59.0594 17.8073 59.1078 17.7346C59.157 17.662 59.1816 17.5694 59.1816 17.457Z" stroke="#3B5998" stroke-width="0.2" mask="url(#path-1-outside-1_279_229)"/>
<path d="M60.3252 17.5179V17.5038C60.3268 17.3547 60.3424 17.236 60.3721 17.1477C60.4018 17.0595 60.444 16.988 60.4986 16.9333C60.5533 16.8787 60.6189 16.8283 60.6954 16.7822C60.7415 16.7541 60.7829 16.7209 60.8196 16.6826C60.8563 16.6436 60.8852 16.5987 60.9063 16.5479C60.9282 16.4972 60.9391 16.4409 60.9391 16.3792C60.9391 16.3027 60.9211 16.2363 60.8852 16.1801C60.8493 16.1238 60.8013 16.0805 60.7411 16.05C60.681 16.0196 60.6142 16.0043 60.5408 16.0043C60.4768 16.0043 60.4151 16.0176 60.3557 16.0442C60.2963 16.0707 60.2468 16.1125 60.2069 16.1695C60.1671 16.2265 60.1441 16.3011 60.1378 16.3933H59.8426C59.8488 16.2605 59.8832 16.1469 59.9457 16.0524C60.0089 15.9579 60.0921 15.8856 60.1952 15.8357C60.2991 15.7857 60.4143 15.7607 60.5408 15.7607C60.6783 15.7607 60.7977 15.788 60.8993 15.8427C61.0016 15.8974 61.0805 15.9723 61.1359 16.0676C61.1921 16.1629 61.2203 16.2714 61.2203 16.3933C61.2203 16.4792 61.207 16.5569 61.1804 16.6264C61.1547 16.6959 61.1172 16.758 61.068 16.8127C61.0195 16.8673 60.961 16.9158 60.8922 16.9579C60.8235 17.0009 60.7685 17.0462 60.7271 17.0938C60.6857 17.1407 60.6556 17.1965 60.6369 17.2613C60.6181 17.3262 60.608 17.407 60.6064 17.5038V17.5179H60.3252ZM60.4752 18.2114C60.4174 18.2114 60.3678 18.1907 60.3264 18.1493C60.285 18.1079 60.2643 18.0583 60.2643 18.0006C60.2643 17.9428 60.285 17.8932 60.3264 17.8518C60.3678 17.8104 60.4174 17.7897 60.4752 17.7897C60.533 17.7897 60.5826 17.8104 60.624 17.8518C60.6654 17.8932 60.6861 17.9428 60.6861 18.0006C60.6861 18.0388 60.6763 18.074 60.6568 18.106C60.638 18.138 60.6126 18.1638 60.5806 18.1833C60.5494 18.202 60.5142 18.2114 60.4752 18.2114Z" stroke="#3B5998" stroke-width="0.2" mask="url(#path-1-outside-1_279_229)"/>
<mask id="path-2-outside-2_279_229" maskUnits="userSpaceOnUse" x="0" y="0" width="95" height="11" fill="black">
<rect fill="white" width="95" height="11"/>
<path d="M1 8.29599V1.0984H1.87158V4.30358H5.70936V1.0984H6.58094V8.29599H5.70936V5.07676H1.87158V8.29599H1Z"/>
<path d="M10.4767 8.40845C9.95656 8.40845 9.50788 8.29364 9.13067 8.06403C8.75579 7.83208 8.46644 7.50875 8.2626 7.09405C8.06111 6.677 7.96036 6.19201 7.96036 5.63907C7.96036 5.08613 8.06111 4.59879 8.2626 4.17706C8.46644 3.75298 8.74994 3.42262 9.1131 3.18598C9.4786 2.947 9.90502 2.82751 10.3924 2.82751C10.6735 2.82751 10.9512 2.87437 11.2253 2.96809C11.4994 3.06181 11.7489 3.2141 11.9739 3.42497C12.1988 3.63349 12.378 3.90996 12.5116 4.25438C12.6451 4.59879 12.7119 5.02287 12.7119 5.52661V5.87805H8.55078V5.1611H11.8684C11.8684 4.85652 11.8075 4.58473 11.6857 4.34575C11.5662 4.10677 11.3951 3.91816 11.1726 3.77993C10.9523 3.64169 10.6923 3.57257 10.3924 3.57257C10.062 3.57257 9.77615 3.65458 9.53483 3.81859C9.29585 3.98025 9.11192 4.19112 8.98306 4.45118C8.8542 4.71125 8.78977 4.99007 8.78977 5.28762V5.76559C8.78977 6.17326 8.86006 6.51885 9.00063 6.80235C9.14355 7.0835 9.34153 7.29789 9.59457 7.44549C9.84762 7.59076 10.1417 7.66339 10.4767 7.66339C10.6946 7.66339 10.8914 7.63293 11.0671 7.57201C11.2452 7.50875 11.3987 7.41503 11.5275 7.29086C11.6564 7.16434 11.756 7.00736 11.8262 6.81992L12.6275 7.04485C12.5432 7.31663 12.4014 7.55561 12.2023 7.76179C12.0031 7.96563 11.7571 8.12495 11.4643 8.23976C11.1714 8.35222 10.8422 8.40845 10.4767 8.40845Z"/>
<path d="M14.803 1.0984V8.29599H13.9736V1.0984H14.803Z"/>
<path d="M17.1515 1.0984V8.29599H16.3221V1.0984H17.1515Z"/>
<path d="M20.8636 8.40845C20.3763 8.40845 19.9487 8.29247 19.5809 8.06052C19.2154 7.82857 18.9295 7.50407 18.7233 7.08702C18.5195 6.66997 18.4176 6.18264 18.4176 5.62501C18.4176 5.0627 18.5195 4.57185 18.7233 4.15246C18.9295 3.73307 19.2154 3.40739 19.5809 3.17544C19.9487 2.94349 20.3763 2.82751 20.8636 2.82751C21.351 2.82751 21.7774 2.94349 22.1429 3.17544C22.5107 3.40739 22.7966 3.73307 23.0004 4.15246C23.2066 4.57185 23.3097 5.0627 23.3097 5.62501C23.3097 6.18264 23.2066 6.66997 23.0004 7.08702C22.7966 7.50407 22.5107 7.82857 22.1429 8.06052C21.7774 8.29247 21.351 8.40845 20.8636 8.40845ZM20.8636 7.66339C21.2338 7.66339 21.5384 7.5685 21.7774 7.37872C22.0164 7.18894 22.1933 6.93941 22.3081 6.63014C22.4229 6.32087 22.4803 5.98583 22.4803 5.62501C22.4803 5.26419 22.4229 4.92798 22.3081 4.61636C22.1933 4.30475 22.0164 4.05288 21.7774 3.86076C21.5384 3.66864 21.2338 3.57257 20.8636 3.57257C20.4935 3.57257 20.1889 3.66864 19.9499 3.86076C19.7109 4.05288 19.534 4.30475 19.4192 4.61636C19.3044 4.92798 19.247 5.26419 19.247 5.62501C19.247 5.98583 19.3044 6.32087 19.4192 6.63014C19.534 6.93941 19.7109 7.18894 19.9499 7.37872C20.1889 7.5685 20.4935 7.66339 20.8636 7.66339Z"/>
<path d="M25.8129 7.31194L25.7566 7.6915C25.7168 7.9586 25.6559 8.24444 25.5739 8.54903C25.4942 8.85361 25.411 9.14063 25.3244 9.41007C25.2377 9.67951 25.1662 9.89389 25.11 10.0532H24.4774C24.5078 9.90326 24.5477 9.70528 24.5969 9.45927C24.6461 9.21326 24.6953 8.93796 24.7445 8.63337C24.796 8.33113 24.8382 8.02186 24.871 7.70556L24.9132 7.31194H25.8129Z"/>
<path d="M30.2455 8.29599V1.0984H31.117V4.30358H34.9548V1.0984H35.8264V8.29599H34.9548V5.07676H31.117V8.29599H30.2455Z"/>
<path d="M39.6519 8.40845C39.1645 8.40845 38.7369 8.29247 38.3691 8.06052C38.0036 7.82857 37.7177 7.50407 37.5116 7.08702C37.3077 6.66997 37.2058 6.18264 37.2058 5.62501C37.2058 5.0627 37.3077 4.57185 37.5116 4.15246C37.7177 3.73307 38.0036 3.40739 38.3691 3.17544C38.7369 2.94349 39.1645 2.82751 39.6519 2.82751C40.1392 2.82751 40.5656 2.94349 40.9311 3.17544C41.299 3.40739 41.5848 3.73307 41.7886 4.15246C41.9948 4.57185 42.0979 5.0627 42.0979 5.62501C42.0979 6.18264 41.9948 6.66997 41.7886 7.08702C41.5848 7.50407 41.299 7.82857 40.9311 8.06052C40.5656 8.29247 40.1392 8.40845 39.6519 8.40845ZM39.6519 7.66339C40.0221 7.66339 40.3266 7.5685 40.5656 7.37872C40.8046 7.18894 40.9815 6.93941 41.0963 6.63014C41.2111 6.32087 41.2685 5.98583 41.2685 5.62501C41.2685 5.26419 41.2111 4.92798 41.0963 4.61636C40.9815 4.30475 40.8046 4.05288 40.5656 3.86076C40.3266 3.66864 40.0221 3.57257 39.6519 3.57257C39.2817 3.57257 38.9771 3.66864 38.7381 3.86076C38.4991 4.05288 38.3222 4.30475 38.2074 4.61636C38.0926 4.92798 38.0352 5.26419 38.0352 5.62501C38.0352 5.98583 38.0926 6.32087 38.2074 6.63014C38.3222 6.93941 38.4991 7.18894 38.7381 7.37872C38.9771 7.5685 39.2817 7.66339 39.6519 7.66339Z"/>
<path d="M44.4034 8.29599L42.7586 2.8978H43.6302L44.797 7.03079H44.8532L46.006 2.8978H46.8916L48.0303 7.01673H48.0865L49.2533 2.8978H50.1249L48.4801 8.29599H47.6648L46.4839 4.14894H46.3996L45.2187 8.29599H44.4034Z"/>
<path d="M54.4125 8.29599H53.4988L56.1416 1.0984H57.0413L59.6842 8.29599H58.7704L56.6196 2.23708H56.5634L54.4125 8.29599ZM54.7499 5.48443H58.4331V6.25761H54.7499V5.48443Z"/>
<path d="M60.6928 8.29599V2.8978H61.4941V3.71315H61.5504C61.6488 3.44605 61.8268 3.22933 62.0846 3.06298C62.3423 2.89663 62.6328 2.81345 62.9562 2.81345C63.0171 2.81345 63.0932 2.81463 63.1846 2.81697C63.276 2.81931 63.3451 2.82283 63.3919 2.82751V3.67098C63.3638 3.66395 63.2994 3.65341 63.1986 3.63935C63.1002 3.62295 62.996 3.61475 62.8859 3.61475C62.6234 3.61475 62.3892 3.66981 62.183 3.77993C61.9791 3.8877 61.8175 4.03765 61.698 4.22977C61.5808 4.41955 61.5223 4.63628 61.5223 4.87995V8.29599H60.6928Z"/>
<path d="M66.4741 8.40845C65.954 8.40845 65.5053 8.29364 65.1281 8.06403C64.7532 7.83208 64.4638 7.50875 64.26 7.09405C64.0585 6.677 63.9578 6.19201 63.9578 5.63907C63.9578 5.08613 64.0585 4.59879 64.26 4.17706C64.4638 3.75298 64.7473 3.42262 65.1105 3.18598C65.476 2.947 65.9024 2.82751 66.3898 2.82751C66.6709 2.82751 66.9486 2.87437 67.2227 2.96809C67.4968 3.06181 67.7463 3.2141 67.9713 3.42497C68.1962 3.63349 68.3754 3.90996 68.509 4.25438C68.6425 4.59879 68.7093 5.02287 68.7093 5.52661V5.87805H64.5482V5.1611H67.8658C67.8658 4.85652 67.8049 4.58473 67.6831 4.34575C67.5636 4.10677 67.3925 3.91816 67.17 3.77993C66.9497 3.64169 66.6897 3.57257 66.3898 3.57257C66.0594 3.57257 65.7736 3.65458 65.5322 3.81859C65.2933 3.98025 65.1093 4.19112 64.9805 4.45118C64.8516 4.71125 64.7872 4.99007 64.7872 5.28762V5.76559C64.7872 6.17326 64.8575 6.51885 64.998 6.80235C65.141 7.0835 65.3389 7.29789 65.592 7.44549C65.845 7.59076 66.1391 7.66339 66.4741 7.66339C66.692 7.66339 66.8888 7.63293 67.0645 7.57201C67.2426 7.50875 67.3961 7.41503 67.5249 7.29086C67.6538 7.16434 67.7534 7.00736 67.8237 6.81992L68.625 7.04485C68.5406 7.31663 68.3989 7.55561 68.1997 7.76179C68.0005 7.96563 67.7545 8.12495 67.4617 8.23976C67.1688 8.35222 66.8396 8.40845 66.4741 8.40845Z"/>
<path d="M72.2483 1.0984H73.2464L75.2427 4.45821H75.327L77.3232 1.0984H78.3213L75.7206 5.3298V8.29599H74.849V5.3298L72.2483 1.0984Z"/>
<path d="M80.7656 8.40845C80.2783 8.40845 79.8507 8.29247 79.4828 8.06052C79.1173 7.82857 78.8315 7.50407 78.6253 7.08702C78.4215 6.66997 78.3195 6.18264 78.3195 5.62501C78.3195 5.0627 78.4215 4.57185 78.6253 4.15246C78.8315 3.73307 79.1173 3.40739 79.4828 3.17544C79.8507 2.94349 80.2783 2.82751 80.7656 2.82751C81.2529 2.82751 81.6794 2.94349 82.0449 3.17544C82.4127 3.40739 82.6985 3.73307 82.9024 4.15246C83.1086 4.57185 83.2117 5.0627 83.2117 5.62501C83.2117 6.18264 83.1086 6.66997 82.9024 7.08702C82.6985 7.50407 82.4127 7.82857 82.0449 8.06052C81.6794 8.29247 81.2529 8.40845 80.7656 8.40845ZM80.7656 7.66339C81.1358 7.66339 81.4404 7.5685 81.6794 7.37872C81.9183 7.18894 82.0952 6.93941 82.21 6.63014C82.3248 6.32087 82.3822 5.98583 82.3822 5.62501C82.3822 5.26419 82.3248 4.92798 82.21 4.61636C82.0952 4.30475 81.9183 4.05288 81.6794 3.86076C81.4404 3.66864 81.1358 3.57257 80.7656 3.57257C80.3954 3.57257 80.0908 3.66864 79.8518 3.86076C79.6129 4.05288 79.436 4.30475 79.3212 4.61636C79.2064 4.92798 79.149 5.26419 79.149 5.62501C79.149 5.98583 79.2064 6.32087 79.3212 6.63014C79.436 6.93941 79.6129 7.18894 79.8518 7.37872C80.0908 7.5685 80.3954 7.66339 80.7656 7.66339Z"/>
<path d="M87.8797 6.08892V2.8978H88.7091V8.29599H87.8797V7.38223H87.8235C87.697 7.65636 87.5002 7.88948 87.2331 8.08161C86.966 8.27139 86.6286 8.36628 86.2209 8.36628C85.8835 8.36628 85.5836 8.29247 85.3212 8.14487C85.0588 7.99492 84.8526 7.76999 84.7027 7.47009C84.5527 7.16785 84.4777 6.78712 84.4777 6.3279V2.8978H85.3071V6.27167C85.3071 6.66529 85.4173 6.97924 85.6375 7.21354C85.8601 7.44783 86.1436 7.56498 86.488 7.56498C86.6942 7.56498 86.9039 7.51227 87.1171 7.40683C87.3326 7.3014 87.513 7.13974 87.6583 6.92184C87.8059 6.70394 87.8797 6.4263 87.8797 6.08892Z"/>
<path d="M91.3107 6.27167V6.22949C91.3154 5.78199 91.3622 5.42586 91.4513 5.1611C91.5403 4.89635 91.6668 4.68197 91.8308 4.51796C91.9948 4.35395 92.1916 4.20283 92.4213 4.0646C92.5595 3.98025 92.6837 3.88067 92.7938 3.76587C92.9039 3.64872 92.9906 3.514 93.0539 3.36171C93.1195 3.20941 93.1523 3.04072 93.1523 2.85563C93.1523 2.62602 93.0984 2.42686 92.9906 2.25817C92.8828 2.08948 92.7387 1.95944 92.5583 1.86807C92.3779 1.77669 92.1776 1.731 91.9574 1.731C91.7652 1.731 91.5801 1.77083 91.4021 1.8505C91.224 1.93016 91.0752 2.05551 90.9557 2.22654C90.8362 2.39758 90.7671 2.62133 90.7484 2.8978H89.8627C89.8815 2.4995 89.9846 2.1586 90.172 1.8751C90.3618 1.5916 90.6113 1.37487 90.9206 1.22492C91.2322 1.07497 91.5778 1 91.9574 1C92.3697 1 92.7282 1.082 93.0328 1.24601C93.3397 1.41002 93.5763 1.63494 93.7427 1.92078C93.9114 2.20663 93.9957 2.5323 93.9957 2.8978C93.9957 3.15553 93.9559 3.38865 93.8762 3.59717C93.7989 3.8057 93.6865 3.99196 93.5388 4.15597C93.3936 4.31998 93.2179 4.46524 93.0117 4.59176C92.8055 4.72063 92.6403 4.85652 92.5161 4.99944C92.392 5.14002 92.3018 5.30754 92.2455 5.502C92.1893 5.69647 92.1588 5.93897 92.1542 6.22949V6.27167H91.3107ZM91.7605 8.35222C91.5872 8.35222 91.4384 8.29013 91.3142 8.16595C91.19 8.04178 91.1279 7.893 91.1279 7.71962C91.1279 7.54624 91.19 7.39746 91.3142 7.27328C91.4384 7.14911 91.5872 7.08702 91.7605 7.08702C91.9339 7.08702 92.0827 7.14911 92.2069 7.27328C92.3311 7.39746 92.3931 7.54624 92.3931 7.71962C92.3931 7.83442 92.3639 7.93986 92.3053 8.03592C92.249 8.13198 92.1729 8.2093 92.0768 8.26787C91.9831 8.3241 91.8777 8.35222 91.7605 8.35222Z"/>
</mask>
<path d="M1 8.29599V1.0984H1.87158V4.30358H5.70936V1.0984H6.58094V8.29599H5.70936V5.07676H1.87158V8.29599H1Z" fill="#3B5998"/>
<path d="M10.4767 8.40845C9.95656 8.40845 9.50788 8.29364 9.13067 8.06403C8.75579 7.83208 8.46644 7.50875 8.2626 7.09405C8.06111 6.677 7.96036 6.19201 7.96036 5.63907C7.96036 5.08613 8.06111 4.59879 8.2626 4.17706C8.46644 3.75298 8.74994 3.42262 9.1131 3.18598C9.4786 2.947 9.90502 2.82751 10.3924 2.82751C10.6735 2.82751 10.9512 2.87437 11.2253 2.96809C11.4994 3.06181 11.7489 3.2141 11.9739 3.42497C12.1988 3.63349 12.378 3.90996 12.5116 4.25438C12.6451 4.59879 12.7119 5.02287 12.7119 5.52661V5.87805H8.55078V5.1611H11.8684C11.8684 4.85652 11.8075 4.58473 11.6857 4.34575C11.5662 4.10677 11.3951 3.91816 11.1726 3.77993C10.9523 3.64169 10.6923 3.57257 10.3924 3.57257C10.062 3.57257 9.77615 3.65458 9.53483 3.81859C9.29585 3.98025 9.11192 4.19112 8.98306 4.45118C8.8542 4.71125 8.78977 4.99007 8.78977 5.28762V5.76559C8.78977 6.17326 8.86006 6.51885 9.00063 6.80235C9.14355 7.0835 9.34153 7.29789 9.59457 7.44549C9.84762 7.59076 10.1417 7.66339 10.4767 7.66339C10.6946 7.66339 10.8914 7.63293 11.0671 7.57201C11.2452 7.50875 11.3987 7.41503 11.5275 7.29086C11.6564 7.16434 11.756 7.00736 11.8262 6.81992L12.6275 7.04485C12.5432 7.31663 12.4014 7.55561 12.2023 7.76179C12.0031 7.96563 11.7571 8.12495 11.4643 8.23976C11.1714 8.35222 10.8422 8.40845 10.4767 8.40845Z" fill="#3B5998"/>
<path d="M14.803 1.0984V8.29599H13.9736V1.0984H14.803Z" fill="#3B5998"/>
<path d="M17.1515 1.0984V8.29599H16.3221V1.0984H17.1515Z" fill="#3B5998"/>
<path d="M20.8636 8.40845C20.3763 8.40845 19.9487 8.29247 19.5809 8.06052C19.2154 7.82857 18.9295 7.50407 18.7233 7.08702C18.5195 6.66997 18.4176 6.18264 18.4176 5.62501C18.4176 5.0627 18.5195 4.57185 18.7233 4.15246C18.9295 3.73307 19.2154 3.40739 19.5809 3.17544C19.9487 2.94349 20.3763 2.82751 20.8636 2.82751C21.351 2.82751 21.7774 2.94349 22.1429 3.17544C22.5107 3.40739 22.7966 3.73307 23.0004 4.15246C23.2066 4.57185 23.3097 5.0627 23.3097 5.62501C23.3097 6.18264 23.2066 6.66997 23.0004 7.08702C22.7966 7.50407 22.5107 7.82857 22.1429 8.06052C21.7774 8.29247 21.351 8.40845 20.8636 8.40845ZM20.8636 7.66339C21.2338 7.66339 21.5384 7.5685 21.7774 7.37872C22.0164 7.18894 22.1933 6.93941 22.3081 6.63014C22.4229 6.32087 22.4803 5.98583 22.4803 5.62501C22.4803 5.26419 22.4229 4.92798 22.3081 4.61636C22.1933 4.30475 22.0164 4.05288 21.7774 3.86076C21.5384 3.66864 21.2338 3.57257 20.8636 3.57257C20.4935 3.57257 20.1889 3.66864 19.9499 3.86076C19.7109 4.05288 19.534 4.30475 19.4192 4.61636C19.3044 4.92798 19.247 5.26419 19.247 5.62501C19.247 5.98583 19.3044 6.32087 19.4192 6.63014C19.534 6.93941 19.7109 7.18894 19.9499 7.37872C20.1889 7.5685 20.4935 7.66339 20.8636 7.66339Z" fill="#3B5998"/>
<path d="M25.8129 7.31194L25.7566 7.6915C25.7168 7.9586 25.6559 8.24444 25.5739 8.54903C25.4942 8.85361 25.411 9.14063 25.3244 9.41007C25.2377 9.67951 25.1662 9.89389 25.11 10.0532H24.4774C24.5078 9.90326 24.5477 9.70528 24.5969 9.45927C24.6461 9.21326 24.6953 8.93796 24.7445 8.63337C24.796 8.33113 24.8382 8.02186 24.871 7.70556L24.9132 7.31194H25.8129Z" fill="#3B5998"/>
<path d="M30.2455 8.29599V1.0984H31.117V4.30358H34.9548V1.0984H35.8264V8.29599H34.9548V5.07676H31.117V8.29599H30.2455Z" fill="#3B5998"/>
<path d="M39.6519 8.40845C39.1645 8.40845 38.7369 8.29247 38.3691 8.06052C38.0036 7.82857 37.7177 7.50407 37.5116 7.08702C37.3077 6.66997 37.2058 6.18264 37.2058 5.62501C37.2058 5.0627 37.3077 4.57185 37.5116 4.15246C37.7177 3.73307 38.0036 3.40739 38.3691 3.17544C38.7369 2.94349 39.1645 2.82751 39.6519 2.82751C40.1392 2.82751 40.5656 2.94349 40.9311 3.17544C41.299 3.40739 41.5848 3.73307 41.7886 4.15246C41.9948 4.57185 42.0979 5.0627 42.0979 5.62501C42.0979 6.18264 41.9948 6.66997 41.7886 7.08702C41.5848 7.50407 41.299 7.82857 40.9311 8.06052C40.5656 8.29247 40.1392 8.40845 39.6519 8.40845ZM39.6519 7.66339C40.0221 7.66339 40.3266 7.5685 40.5656 7.37872C40.8046 7.18894 40.9815 6.93941 41.0963 6.63014C41.2111 6.32087 41.2685 5.98583 41.2685 5.62501C41.2685 5.26419 41.2111 4.92798 41.0963 4.61636C40.9815 4.30475 40.8046 4.05288 40.5656 3.86076C40.3266 3.66864 40.0221 3.57257 39.6519 3.57257C39.2817 3.57257 38.9771 3.66864 38.7381 3.86076C38.4991 4.05288 38.3222 4.30475 38.2074 4.61636C38.0926 4.92798 38.0352 5.26419 38.0352 5.62501C38.0352 5.98583 38.0926 6.32087 38.2074 6.63014C38.3222 6.93941 38.4991 7.18894 38.7381 7.37872C38.9771 7.5685 39.2817 7.66339 39.6519 7.66339Z" fill="#3B5998"/>
<path d="M44.4034 8.29599L42.7586 2.8978H43.6302L44.797 7.03079H44.8532L46.006 2.8978H46.8916L48.0303 7.01673H48.0865L49.2533 2.8978H50.1249L48.4801 8.29599H47.6648L46.4839 4.14894H46.3996L45.2187 8.29599H44.4034Z" fill="#3B5998"/>
<path d="M54.4125 8.29599H53.4988L56.1416 1.0984H57.0413L59.6842 8.29599H58.7704L56.6196 2.23708H56.5634L54.4125 8.29599ZM54.7499 5.48443H58.4331V6.25761H54.7499V5.48443Z" fill="#3B5998"/>
<path d="M60.6928 8.29599V2.8978H61.4941V3.71315H61.5504C61.6488 3.44605 61.8268 3.22933 62.0846 3.06298C62.3423 2.89663 62.6328 2.81345 62.9562 2.81345C63.0171 2.81345 63.0932 2.81463 63.1846 2.81697C63.276 2.81931 63.3451 2.82283 63.3919 2.82751V3.67098C63.3638 3.66395 63.2994 3.65341 63.1986 3.63935C63.1002 3.62295 62.996 3.61475 62.8859 3.61475C62.6234 3.61475 62.3892 3.66981 62.183 3.77993C61.9791 3.8877 61.8175 4.03765 61.698 4.22977C61.5808 4.41955 61.5223 4.63628 61.5223 4.87995V8.29599H60.6928Z" fill="#3B5998"/>
<path d="M66.4741 8.40845C65.954 8.40845 65.5053 8.29364 65.1281 8.06403C64.7532 7.83208 64.4638 7.50875 64.26 7.09405C64.0585 6.677 63.9578 6.19201 63.9578 5.63907C63.9578 5.08613 64.0585 4.59879 64.26 4.17706C64.4638 3.75298 64.7473 3.42262 65.1105 3.18598C65.476 2.947 65.9024 2.82751 66.3898 2.82751C66.6709 2.82751 66.9486 2.87437 67.2227 2.96809C67.4968 3.06181 67.7463 3.2141 67.9713 3.42497C68.1962 3.63349 68.3754 3.90996 68.509 4.25438C68.6425 4.59879 68.7093 5.02287 68.7093 5.52661V5.87805H64.5482V5.1611H67.8658C67.8658 4.85652 67.8049 4.58473 67.6831 4.34575C67.5636 4.10677 67.3925 3.91816 67.17 3.77993C66.9497 3.64169 66.6897 3.57257 66.3898 3.57257C66.0594 3.57257 65.7736 3.65458 65.5322 3.81859C65.2933 3.98025 65.1093 4.19112 64.9805 4.45118C64.8516 4.71125 64.7872 4.99007 64.7872 5.28762V5.76559C64.7872 6.17326 64.8575 6.51885 64.998 6.80235C65.141 7.0835 65.3389 7.29789 65.592 7.44549C65.845 7.59076 66.1391 7.66339 66.4741 7.66339C66.692 7.66339 66.8888 7.63293 67.0645 7.57201C67.2426 7.50875 67.3961 7.41503 67.5249 7.29086C67.6538 7.16434 67.7534 7.00736 67.8237 6.81992L68.625 7.04485C68.5406 7.31663 68.3989 7.55561 68.1997 7.76179C68.0005 7.96563 67.7545 8.12495 67.4617 8.23976C67.1688 8.35222 66.8396 8.40845 66.4741 8.40845Z" fill="#3B5998"/>
<path d="M72.2483 1.0984H73.2464L75.2427 4.45821H75.327L77.3232 1.0984H78.3213L75.7206 5.3298V8.29599H74.849V5.3298L72.2483 1.0984Z" fill="#3B5998"/>
<path d="M80.7656 8.40845C80.2783 8.40845 79.8507 8.29247 79.4828 8.06052C79.1173 7.82857 78.8315 7.50407 78.6253 7.08702C78.4215 6.66997 78.3195 6.18264 78.3195 5.62501C78.3195 5.0627 78.4215 4.57185 78.6253 4.15246C78.8315 3.73307 79.1173 3.40739 79.4828 3.17544C79.8507 2.94349 80.2783 2.82751 80.7656 2.82751C81.2529 2.82751 81.6794 2.94349 82.0449 3.17544C82.4127 3.40739 82.6985 3.73307 82.9024 4.15246C83.1086 4.57185 83.2117 5.0627 83.2117 5.62501C83.2117 6.18264 83.1086 6.66997 82.9024 7.08702C82.6985 7.50407 82.4127 7.82857 82.0449 8.06052C81.6794 8.29247 81.2529 8.40845 80.7656 8.40845ZM80.7656 7.66339C81.1358 7.66339 81.4404 7.5685 81.6794 7.37872C81.9183 7.18894 82.0952 6.93941 82.21 6.63014C82.3248 6.32087 82.3822 5.98583 82.3822 5.62501C82.3822 5.26419 82.3248 4.92798 82.21 4.61636C82.0952 4.30475 81.9183 4.05288 81.6794 3.86076C81.4404 3.66864 81.1358 3.57257 80.7656 3.57257C80.3954 3.57257 80.0908 3.66864 79.8518 3.86076C79.6129 4.05288 79.436 4.30475 79.3212 4.61636C79.2064 4.92798 79.149 5.26419 79.149 5.62501C79.149 5.98583 79.2064 6.32087 79.3212 6.63014C79.436 6.93941 79.6129 7.18894 79.8518 7.37872C80.0908 7.5685 80.3954 7.66339 80.7656 7.66339Z" fill="#3B5998"/>
<path d="M87.8797 6.08892V2.8978H88.7091V8.29599H87.8797V7.38223H87.8235C87.697 7.65636 87.5002 7.88948 87.2331 8.08161C86.966 8.27139 86.6286 8.36628 86.2209 8.36628C85.8835 8.36628 85.5836 8.29247 85.3212 8.14487C85.0588 7.99492 84.8526 7.76999 84.7027 7.47009C84.5527 7.16785 84.4777 6.78712 84.4777 6.3279V2.8978H85.3071V6.27167C85.3071 6.66529 85.4173 6.97924 85.6375 7.21354C85.8601 7.44783 86.1436 7.56498 86.488 7.56498C86.6942 7.56498 86.9039 7.51227 87.1171 7.40683C87.3326 7.3014 87.513 7.13974 87.6583 6.92184C87.8059 6.70394 87.8797 6.4263 87.8797 6.08892Z" fill="#3B5998"/>
<path d="M91.3107 6.27167V6.22949C91.3154 5.78199 91.3622 5.42586 91.4513 5.1611C91.5403 4.89635 91.6668 4.68197 91.8308 4.51796C91.9948 4.35395 92.1916 4.20283 92.4213 4.0646C92.5595 3.98025 92.6837 3.88067 92.7938 3.76587C92.9039 3.64872 92.9906 3.514 93.0539 3.36171C93.1195 3.20941 93.1523 3.04072 93.1523 2.85563C93.1523 2.62602 93.0984 2.42686 92.9906 2.25817C92.8828 2.08948 92.7387 1.95944 92.5583 1.86807C92.3779 1.77669 92.1776 1.731 91.9574 1.731C91.7652 1.731 91.5801 1.77083 91.4021 1.8505C91.224 1.93016 91.0752 2.05551 90.9557 2.22654C90.8362 2.39758 90.7671 2.62133 90.7484 2.8978H89.8627C89.8815 2.4995 89.9846 2.1586 90.172 1.8751C90.3618 1.5916 90.6113 1.37487 90.9206 1.22492C91.2322 1.07497 91.5778 1 91.9574 1C92.3697 1 92.7282 1.082 93.0328 1.24601C93.3397 1.41002 93.5763 1.63494 93.7427 1.92078C93.9114 2.20663 93.9957 2.5323 93.9957 2.8978C93.9957 3.15553 93.9559 3.38865 93.8762 3.59717C93.7989 3.8057 93.6865 3.99196 93.5388 4.15597C93.3936 4.31998 93.2179 4.46524 93.0117 4.59176C92.8055 4.72063 92.6403 4.85652 92.5161 4.99944C92.392 5.14002 92.3018 5.30754 92.2455 5.502C92.1893 5.69647 92.1588 5.93897 92.1542 6.22949V6.27167H91.3107ZM91.7605 8.35222C91.5872 8.35222 91.4384 8.29013 91.3142 8.16595C91.19 8.04178 91.1279 7.893 91.1279 7.71962C91.1279 7.54624 91.19 7.39746 91.3142 7.27328C91.4384 7.14911 91.5872 7.08702 91.7605 7.08702C91.9339 7.08702 92.0827 7.14911 92.2069 7.27328C92.3311 7.39746 92.3931 7.54624 92.3931 7.71962C92.3931 7.83442 92.3639 7.93986 92.3053 8.03592C92.249 8.13198 92.1729 8.2093 92.0768 8.26787C91.9831 8.3241 91.8777 8.35222 91.7605 8.35222Z" fill="#3B5998"/>
<path d="M1 8.29599V1.0984H1.87158V4.30358H5.70936V1.0984H6.58094V8.29599H5.70936V5.07676H1.87158V8.29599H1Z" stroke="#3B5998" stroke-width="0.2" mask="url(#path-2-outside-2_279_229)"/>
<path d="M10.4767 8.40845C9.95656 8.40845 9.50788 8.29364 9.13067 8.06403C8.75579 7.83208 8.46644 7.50875 8.2626 7.09405C8.06111 6.677 7.96036 6.19201 7.96036 5.63907C7.96036 5.08613 8.06111 4.59879 8.2626 4.17706C8.46644 3.75298 8.74994 3.42262 9.1131 3.18598C9.4786 2.947 9.90502 2.82751 10.3924 2.82751C10.6735 2.82751 10.9512 2.87437 11.2253 2.96809C11.4994 3.06181 11.7489 3.2141 11.9739 3.42497C12.1988 3.63349 12.378 3.90996 12.5116 4.25438C12.6451 4.59879 12.7119 5.02287 12.7119 5.52661V5.87805H8.55078V5.1611H11.8684C11.8684 4.85652 11.8075 4.58473 11.6857 4.34575C11.5662 4.10677 11.3951 3.91816 11.1726 3.77993C10.9523 3.64169 10.6923 3.57257 10.3924 3.57257C10.062 3.57257 9.77615 3.65458 9.53483 3.81859C9.29585 3.98025 9.11192 4.19112 8.98306 4.45118C8.8542 4.71125 8.78977 4.99007 8.78977 5.28762V5.76559C8.78977 6.17326 8.86006 6.51885 9.00063 6.80235C9.14355 7.0835 9.34153 7.29789 9.59457 7.44549C9.84762 7.59076 10.1417 7.66339 10.4767 7.66339C10.6946 7.66339 10.8914 7.63293 11.0671 7.57201C11.2452 7.50875 11.3987 7.41503 11.5275 7.29086C11.6564 7.16434 11.756 7.00736 11.8262 6.81992L12.6275 7.04485C12.5432 7.31663 12.4014 7.55561 12.2023 7.76179C12.0031 7.96563 11.7571 8.12495 11.4643 8.23976C11.1714 8.35222 10.8422 8.40845 10.4767 8.40845Z" stroke="#3B5998" stroke-width="0.2" mask="url(#path-2-outside-2_279_229)"/>
<path d="M14.803 1.0984V8.29599H13.9736V1.0984H14.803Z" stroke="#3B5998" stroke-width="0.2" mask="url(#path-2-outside-2_279_229)"/>
<path d="M17.1515 1.0984V8.29599H16.3221V1.0984H17.1515Z" stroke="#3B5998" stroke-width="0.2" mask="url(#path-2-outside-2_279_229)"/>
<path d="M20.8636 8.40845C20.3763 8.40845 19.9487 8.29247 19.5809 8.06052C19.2154 7.82857 18.9295 7.50407 18.7233 7.08702C18.5195 6.66997 18.4176 6.18264 18.4176 5.62501C18.4176 5.0627 18.5195 4.57185 18.7233 4.15246C18.9295 3.73307 19.2154 3.40739 19.5809 3.17544C19.9487 2.94349 20.3763 2.82751 20.8636 2.82751C21.351 2.82751 21.7774 2.94349 22.1429 3.17544C22.5107 3.40739 22.7966 3.73307 23.0004 4.15246C23.2066 4.57185 23.3097 5.0627 23.3097 5.62501C23.3097 6.18264 23.2066 6.66997 23.0004 7.08702C22.7966 7.50407 22.5107 7.82857 22.1429 8.06052C21.7774 8.29247 21.351 8.40845 20.8636 8.40845ZM20.8636 7.66339C21.2338 7.66339 21.5384 7.5685 21.7774 7.37872C22.0164 7.18894 22.1933 6.93941 22.3081 6.63014C22.4229 6.32087 22.4803 5.98583 22.4803 5.62501C22.4803 5.26419 22.4229 4.92798 22.3081 4.61636C22.1933 4.30475 22.0164 4.05288 21.7774 3.86076C21.5384 3.66864 21.2338 3.57257 20.8636 3.57257C20.4935 3.57257 20.1889 3.66864 19.9499 3.86076C19.7109 4.05288 19.534 4.30475 19.4192 4.61636C19.3044 4.92798 19.247 5.26419 19.247 5.62501C19.247 5.98583 19.3044 6.32087 19.4192 6.63014C19.534 6.93941 19.7109 7.18894 19.9499 7.37872C20.1889 7.5685 20.4935 7.66339 20.8636 7.66339Z" stroke="#3B5998" stroke-width="0.2" mask="url(#path-2-outside-2_279_229)"/>
<path d="M25.8129 7.31194L25.7566 7.6915C25.7168 7.9586 25.6559 8.24444 25.5739 8.54903C25.4942 8.85361 25.411 9.14063 25.3244 9.41007C25.2377 9.67951 25.1662 9.89389 25.11 10.0532H24.4774C24.5078 9.90326 24.5477 9.70528 24.5969 9.45927C24.6461 9.21326 24.6953 8.93796 24.7445 8.63337C24.796 8.33113 24.8382 8.02186 24.871 7.70556L24.9132 7.31194H25.8129Z" stroke="#3B5998" stroke-width="0.2" mask="url(#path-2-outside-2_279_229)"/>
<path d="M30.2455 8.29599V1.0984H31.117V4.30358H34.9548V1.0984H35.8264V8.29599H34.9548V5.07676H31.117V8.29599H30.2455Z" stroke="#3B5998" stroke-width="0.2" mask="url(#path-2-outside-2_279_229)"/>
<path d="M39.6519 8.40845C39.1645 8.40845 38.7369 8.29247 38.3691 8.06052C38.0036 7.82857 37.7177 7.50407 37.5116 7.08702C37.3077 6.66997 37.2058 6.18264 37.2058 5.62501C37.2058 5.0627 37.3077 4.57185 37.5116 4.15246C37.7177 3.73307 38.0036 3.40739 38.3691 3.17544C38.7369 2.94349 39.1645 2.82751 39.6519 2.82751C40.1392 2.82751 40.5656 2.94349 40.9311 3.17544C41.299 3.40739 41.5848 3.73307 41.7886 4.15246C41.9948 4.57185 42.0979 5.0627 42.0979 5.62501C42.0979 6.18264 41.9948 6.66997 41.7886 7.08702C41.5848 7.50407 41.299 7.82857 40.9311 8.06052C40.5656 8.29247 40.1392 8.40845 39.6519 8.40845ZM39.6519 7.66339C40.0221 7.66339 40.3266 7.5685 40.5656 7.37872C40.8046 7.18894 40.9815 6.93941 41.0963 6.63014C41.2111 6.32087 41.2685 5.98583 41.2685 5.62501C41.2685 5.26419 41.2111 4.92798 41.0963 4.61636C40.9815 4.30475 40.8046 4.05288 40.5656 3.86076C40.3266 3.66864 40.0221 3.57257 39.6519 3.57257C39.2817 3.57257 38.9771 3.66864 38.7381 3.86076C38.4991 4.05288 38.3222 4.30475 38.2074 4.61636C38.0926 4.92798 38.0352 5.26419 38.0352 5.62501C38.0352 5.98583 38.0926 6.32087 38.2074 6.63014C38.3222 6.93941 38.4991 7.18894 38.7381 7.37872C38.9771 7.5685 39.2817 7.66339 39.6519 7.66339Z" stroke="#3B5998" stroke-width="0.2" mask="url(#path-2-outside-2_279_229)"/>
<path d="M44.4034 8.29599L42.7586 2.8978H43.6302L44.797 7.03079H44.8532L46.006 2.8978H46.8916L48.0303 7.01673H48.0865L49.2533 2.8978H50.1249L48.4801 8.29599H47.6648L46.4839 4.14894H46.3996L45.2187 8.29599H44.4034Z" stroke="#3B5998" stroke-width="0.2" mask="url(#path-2-outside-2_279_229)"/>
<path d="M54.4125 8.29599H53.4988L56.1416 1.0984H57.0413L59.6842 8.29599H58.7704L56.6196 2.23708H56.5634L54.4125 8.29599ZM54.7499 5.48443H58.4331V6.25761H54.7499V5.48443Z" stroke="#3B5998" stroke-width="0.2" mask="url(#path-2-outside-2_279_229)"/>
<path d="M60.6928 8.29599V2.8978H61.4941V3.71315H61.5504C61.6488 3.44605 61.8268 3.22933 62.0846 3.06298C62.3423 2.89663 62.6328 2.81345 62.9562 2.81345C63.0171 2.81345 63.0932 2.81463 63.1846 2.81697C63.276 2.81931 63.3451 2.82283 63.3919 2.82751V3.67098C63.3638 3.66395 63.2994 3.65341 63.1986 3.63935C63.1002 3.62295 62.996 3.61475 62.8859 3.61475C62.6234 3.61475 62.3892 3.66981 62.183 3.77993C61.9791 3.8877 61.8175 4.03765 61.698 4.22977C61.5808 4.41955 61.5223 4.63628 61.5223 4.87995V8.29599H60.6928Z" stroke="#3B5998" stroke-width="0.2" mask="url(#path-2-outside-2_279_229)"/>
<path d="M66.4741 8.40845C65.954 8.40845 65.5053 8.29364 65.1281 8.06403C64.7532 7.83208 64.4638 7.50875 64.26 7.09405C64.0585 6.677 63.9578 6.19201 63.9578 5.63907C63.9578 5.08613 64.0585 4.59879 64.26 4.17706C64.4638 3.75298 64.7473 3.42262 65.1105 3.18598C65.476 2.947 65.9024 2.82751 66.3898 2.82751C66.6709 2.82751 66.9486 2.87437 67.2227 2.96809C67.4968 3.06181 67.7463 3.2141 67.9713 3.42497C68.1962 3.63349 68.3754 3.90996 68.509 4.25438C68.6425 4.59879 68.7093 5.02287 68.7093 5.52661V5.87805H64.5482V5.1611H67.8658C67.8658 4.85652 67.8049 4.58473 67.6831 4.34575C67.5636 4.10677 67.3925 3.91816 67.17 3.77993C66.9497 3.64169 66.6897 3.57257 66.3898 3.57257C66.0594 3.57257 65.7736 3.65458 65.5322 3.81859C65.2933 3.98025 65.1093 4.19112 64.9805 4.45118C64.8516 4.71125 64.7872 4.99007 64.7872 5.28762V5.76559C64.7872 6.17326 64.8575 6.51885 64.998 6.80235C65.141 7.0835 65.3389 7.29789 65.592 7.44549C65.845 7.59076 66.1391 7.66339 66.4741 7.66339C66.692 7.66339 66.8888 7.63293 67.0645 7.57201C67.2426 7.50875 67.3961 7.41503 67.5249 7.29086C67.6538 7.16434 67.7534 7.00736 67.8237 6.81992L68.625 7.04485C68.5406 7.31663 68.3989 7.55561 68.1997 7.76179C68.0005 7.96563 67.7545 8.12495 67.4617 8.23976C67.1688 8.35222 66.8396 8.40845 66.4741 8.40845Z" stroke="#3B5998" stroke-width="0.2" mask="url(#path-2-outside-2_279_229)"/>
<path d="M72.2483 1.0984H73.2464L75.2427 4.45821H75.327L77.3232 1.0984H78.3213L75.7206 5.3298V8.29599H74.849V5.3298L72.2483 1.0984Z" stroke="#3B5998" stroke-width="0.2" mask="url(#path-2-outside-2_279_229)"/>
<path d="M80.7656 8.40845C80.2783 8.40845 79.8507 8.29247 79.4828 8.06052C79.1173 7.82857 78.8315 7.50407 78.6253 7.08702C78.4215 6.66997 78.3195 6.18264 78.3195 5.62501C78.3195 5.0627 78.4215 4.57185 78.6253 4.15246C78.8315 3.73307 79.1173 3.40739 79.4828 3.17544C79.8507 2.94349 80.2783 2.82751 80.7656 2.82751C81.2529 2.82751 81.6794 2.94349 82.0449 3.17544C82.4127 3.40739 82.6985 3.73307 82.9024 4.15246C83.1086 4.57185 83.2117 5.0627 83.2117 5.62501C83.2117 6.18264 83.1086 6.66997 82.9024 7.08702C82.6985 7.50407 82.4127 7.82857 82.0449 8.06052C81.6794 8.29247 81.2529 8.40845 80.7656 8.40845ZM80.7656 7.66339C81.1358 7.66339 81.4404 7.5685 81.6794 7.37872C81.9183 7.18894 82.0952 6.93941 82.21 6.63014C82.3248 6.32087 82.3822 5.98583 82.3822 5.62501C82.3822 5.26419 82.3248 4.92798 82.21 4.61636C82.0952 4.30475 81.9183 4.05288 81.6794 3.86076C81.4404 3.66864 81.1358 3.57257 80.7656 3.57257C80.3954 3.57257 80.0908 3.66864 79.8518 3.86076C79.6129 4.05288 79.436 4.30475 79.3212 4.61636C79.2064 4.92798 79.149 5.26419 79.149 5.62501C79.149 5.98583 79.2064 6.32087 79.3212 6.63014C79.436 6.93941 79.6129 7.18894 79.8518 7.37872C80.0908 7.5685 80.3954 7.66339 80.7656 7.66339Z" stroke="#3B5998" stroke-width="0.2" mask="url(#path-2-outside-2_279_229)"/>
<path d="M87.8797 6.08892V2.8978H88.7091V8.29599H87.8797V7.38223H87.8235C87.697 7.65636 87.5002 7.88948 87.2331 8.08161C86.966 8.27139 86.6286 8.36628 86.2209 8.36628C85.8835 8.36628 85.5836 8.29247 85.3212 8.14487C85.0588 7.99492 84.8526 7.76999 84.7027 7.47009C84.5527 7.16785 84.4777 6.78712 84.4777 6.3279V2.8978H85.3071V6.27167C85.3071 6.66529 85.4173 6.97924 85.6375 7.21354C85.8601 7.44783 86.1436 7.56498 86.488 7.56498C86.6942 7.56498 86.9039 7.51227 87.1171 7.40683C87.3326 7.3014 87.513 7.13974 87.6583 6.92184C87.8059 6.70394 87.8797 6.4263 87.8797 6.08892Z" stroke="#3B5998" stroke-width="0.2" mask="url(#path-2-outside-2_279_229)"/>
<path d="M91.3107 6.27167V6.22949C91.3154 5.78199 91.3622 5.42586 91.4513 5.1611C91.5403 4.89635 91.6668 4.68197 91.8308 4.51796C91.9948 4.35395 92.1916 4.20283 92.4213 4.0646C92.5595 3.98025 92.6837 3.88067 92.7938 3.76587C92.9039 3.64872 92.9906 3.514 93.0539 3.36171C93.1195 3.20941 93.1523 3.04072 93.1523 2.85563C93.1523 2.62602 93.0984 2.42686 92.9906 2.25817C92.8828 2.08948 92.7387 1.95944 92.5583 1.86807C92.3779 1.77669 92.1776 1.731 91.9574 1.731C91.7652 1.731 91.5801 1.77083 91.4021 1.8505C91.224 1.93016 91.0752 2.05551 90.9557 2.22654C90.8362 2.39758 90.7671 2.62133 90.7484 2.8978H89.8627C89.8815 2.4995 89.9846 2.1586 90.172 1.8751C90.3618 1.5916 90.6113 1.37487 90.9206 1.22492C91.2322 1.07497 91.5778 1 91.9574 1C92.3697 1 92.7282 1.082 93.0328 1.24601C93.3397 1.41002 93.5763 1.63494 93.7427 1.92078C93.9114 2.20663 93.9957 2.5323 93.9957 2.8978C93.9957 3.15553 93.9559 3.38865 93.8762 3.59717C93.7989 3.8057 93.6865 3.99196 93.5388 4.15597C93.3936 4.31998 93.2179 4.46524 93.0117 4.59176C92.8055 4.72063 92.6403 4.85652 92.5161 4.99944C92.392 5.14002 92.3018 5.30754 92.2455 5.502C92.1893 5.69647 92.1588 5.93897 92.1542 6.22949V6.27167H91.3107ZM91.7605 8.35222C91.5872 8.35222 91.4384 8.29013 91.3142 8.16595C91.19 8.04178 91.1279 7.893 91.1279 7.71962C91.1279 7.54624 91.19 7.39746 91.3142 7.27328C91.4384 7.14911 91.5872 7.08702 91.7605 7.08702C91.9339 7.08702 92.0827 7.14911 92.2069 7.27328C92.3311 7.39746 92.3931 7.54624 92.3931 7.71962C92.3931 7.83442 92.3639 7.93986 92.3053 8.03592C92.249 8.13198 92.1729 8.2093 92.0768 8.26787C91.9831 8.3241 91.8777 8.35222 91.7605 8.35222Z" stroke="#3B5998" stroke-width="0.2" mask="url(#path-2-outside-2_279_229)"/>
</svg>
