<svg width="50" height="37" viewBox="0 0 50 37" fill="none" xmlns="http://www.w3.org/2000/svg">
<path d="M37.087 1C37.6994 1.63032 38.0057 2.4431 38.0057 3.43834C38.0057 4.2677 37.8284 5.11365 37.4738 5.97619L26.0624 35.8334L25.5305 36.0822L19.1479 15.2319L11.2663 35.8334L10.7344 36.0822L0 1H4.11003L12.7653 30.4591L18.9061 14.4357L14.7961 1H18.9061L27.5614 30.4591L36.8936 5.97619C37.2481 5.14683 37.4254 4.28429 37.4254 3.38857C37.4254 2.49286 37.1837 1.79619 36.7001 1.29857L37.087 1Z" fill="#3B5998"/>
<path d="M46.1943 0.646447C45.999 0.451184 45.6824 0.451184 45.4871 0.646447L42.3052 3.82843C42.1099 4.02369 42.1099 4.34027 42.3052 4.53553C42.5004 4.7308 42.817 4.7308 43.0123 4.53553L45.8407 1.70711L48.6691 4.53553C48.8644 4.7308 49.181 4.7308 49.3762 4.53553C49.5715 4.34027 49.5715 4.02369 49.3762 3.82843L46.1943 0.646447ZM45.3407 1L45.3407 24.3881L46.3407 24.3881L46.3407 1L45.3407 1Z" fill="#3B5998"/>
<path d="M39.3137 29.1196C39.2582 28.9832 39.3094 28.8851 39.4672 28.8254C39.7954 28.7018 40.1067 28.5036 40.4009 28.2307C40.695 27.9578 40.9274 27.7148 41.0979 27.5016C41.2216 27.3482 41.3409 27.2714 41.4561 27.2714H41.9996C42.1958 27.2714 42.2938 27.3673 42.2938 27.5592V36.1927C42.2938 36.3846 42.1979 36.4805 42.006 36.4805H41.4561C41.2642 36.4805 41.1683 36.3846 41.1683 36.1927V29.1836C41.1683 29.0557 41.1725 28.9278 41.1811 28.7999H41.1683C41.0361 28.9661 40.8421 29.1367 40.5863 29.3115C40.3305 29.4863 40.096 29.6142 39.8828 29.6952C39.6952 29.7677 39.5716 29.7336 39.5119 29.5929L39.3137 29.1196Z" fill="#3B5998"/>
<path d="M44.0909 31.9335C44.0909 30.4413 44.2955 29.2795 44.7048 28.4481C45.1141 27.6125 45.8943 27.1947 47.0454 27.1947C48.1966 27.1947 48.9768 27.6125 49.3861 28.4481C49.7954 29.2795 50 30.4413 50 31.9335C50 33.4257 49.7954 34.5896 49.3861 35.4253C48.9768 36.2567 48.1966 36.6723 47.0454 36.6723C45.8943 36.6723 45.1141 36.2567 44.7048 35.4253C44.2955 34.5896 44.0909 33.4257 44.0909 31.9335ZM45.2804 31.9335C45.2804 33.1273 45.3827 34.0631 45.5873 34.741C45.792 35.4146 46.278 35.7514 47.0454 35.7514C47.8129 35.7514 48.2989 35.4146 48.5036 34.741C48.7082 34.0631 48.8105 33.1273 48.8105 31.9335C48.8105 30.7397 48.7082 29.806 48.5036 29.1324C48.2989 28.4545 47.8129 28.1156 47.0454 28.1156C46.278 28.1156 45.792 28.4545 45.5873 29.1324C45.3827 29.806 45.2804 30.7397 45.2804 31.9335Z" fill="#3B5998"/>
</svg>
