<svg width="50" height="43" viewBox="0 0 50 43" fill="none" xmlns="http://www.w3.org/2000/svg">
<path d="M35.9375 14.0625C34.5588 14.0642 33.2072 14.4459 32.0312 15.1656V2.34375C32.0312 1.72215 31.7843 1.12601 31.3448 0.686469C30.9052 0.24693 30.3091 0 29.6875 0C29.0659 0 28.4698 0.24693 28.0302 0.686469C27.5907 1.12601 27.3438 1.72215 27.3438 2.34375V32.0312C27.3444 32.5561 27.5212 33.0656 27.8458 33.4781C28.1705 33.8905 28.6241 34.1821 29.1342 34.306C29.6443 34.4299 30.1812 34.379 30.6588 34.1615C31.1365 33.9439 31.5274 33.5724 31.7688 33.1063C33.0344 33.9406 34.4562 34.375 35.9375 34.375C40.6781 34.375 44.5312 29.8188 44.5312 24.2188C44.5312 18.6187 40.6781 14.0625 35.9375 14.0625ZM35.9375 29.6875C34.3 29.6875 32.0312 27.7875 32.0312 24.2188C32.0312 20.65 34.3 18.75 35.9375 18.75C37.575 18.75 39.8438 20.65 39.8438 24.2188C39.8438 27.7875 37.575 29.6875 35.9375 29.6875ZM15.2094 13.0281L14.6 13.0063C12.0625 12.9688 10.0406 13.4438 8.54375 14.4906C8.07174 14.8615 7.75981 15.3992 7.67209 15.993C7.58437 16.5869 7.72755 17.1918 8.07217 17.6833C8.41679 18.1748 8.93665 18.5156 9.52484 18.6355C10.113 18.7555 10.7248 18.6454 11.2344 18.3281C11.7219 17.9844 12.7812 17.5969 14.9813 17.7094C16.6844 17.7937 17.5594 18.3156 17.85 19.4969C16.1658 19.1634 14.44 19.0938 12.7344 19.2906C8.31875 19.825 5.46562 22.7844 5.46562 26.825C5.46562 31.2 8.64375 34.3781 13.0187 34.3781C14.6437 34.3781 16.3375 33.9281 18.1781 33.0094C18.5531 33.8219 19.3844 34.3781 20.3594 34.3781L20.625 34.3563C21.18 34.2761 21.6883 34.0009 22.0588 33.58C22.4293 33.1591 22.6378 32.62 22.6469 32.0594V20.575L22.6375 20.1125C22.45 15.9 19.675 13.2531 15.2 13.0281H15.2094ZM17.8906 24.3969L17.9625 27.7781L17.7969 27.8906C13.2531 30.8813 10.1469 29.975 10.15 26.9031C10.15 25.2469 11.2094 24.2781 13.2969 24.0219C14.8379 23.8457 16.3986 23.9731 17.8906 24.3969ZM4.6875 42.9688H45.3125C47.8969 42.9688 50 40.8656 50 38.2812V35.9375C50 35.3159 49.7531 34.7198 49.3135 34.2802C48.874 33.8407 48.2779 33.5938 47.6562 33.5938C47.0346 33.5938 46.4385 33.8407 45.999 34.2802C45.5594 34.7198 45.3125 35.3159 45.3125 35.9375V38.2812H4.6875V35.9375C4.6875 35.3159 4.44057 34.7198 4.00103 34.2802C3.56149 33.8407 2.96535 33.5938 2.34375 33.5938C1.72215 33.5938 1.12601 33.8407 0.686468 34.2802C0.24693 34.7198 0 35.3159 0 35.9375L0 38.2812C0 40.8656 2.10312 42.9688 4.6875 42.9688Z" fill="#3B5998"/>
</svg>
