<svg width="30" height="10" viewBox="0 0 30 10" fill="none" xmlns="http://www.w3.org/2000/svg">
<path d="M24 0C22.5333 0 21.3333 0.9 21.3333 2V4C21.3333 5.1 22.5333 6 24 6H26.6667V8H21.3333V10H26.6667C28.1333 10 29.3333 9.1 29.3333 8V6C29.3333 4.9 28.1333 4 26.6667 4H24V2H29.3333V0H24ZM10.6667 0V10H16C17.4667 10 18.6667 9.1 18.6667 8V2C18.6667 0.9 17.4667 0 16 0H10.6667ZM13.3333 2H16V8H13.3333V2ZM2.66667 0C1.2 0 0 0.9 0 2V10H2.66667V6H5.33333V10H8V2C8 0.9 6.8 0 5.33333 0H2.66667ZM2.66667 2H5.33333V4H2.66667V2Z" fill="#3B5998"/>
</svg>
