<svg width="30" height="33" viewBox="0 0 30 33" fill="none" xmlns="http://www.w3.org/2000/svg">
<path d="M21.6667 9.33333V7.66667C21.6667 5.89856 20.9643 4.20286 19.7141 2.95262C18.4638 1.70238 16.7682 1 15 1C13.2319 1 11.5362 1.70238 10.286 2.95262C9.03575 4.20286 8.33337 5.89856 8.33337 7.66667V9.33333" stroke="#3B5998" stroke-width="2" stroke-linecap="round"/>
<path fill-rule="evenodd" clip-rule="evenodd" d="M1.465 9.13169C-9.93411e-08 10.595 0 12.9534 0 17.6667V19.3334C0 25.6184 -1.98682e-07 28.7617 1.95333 30.7134C3.905 32.6667 7.04833 32.6667 13.3333 32.6667H16.6667C22.9517 32.6667 26.095 32.6667 28.0467 30.7134C30 28.7617 30 25.6184 30 19.3334V17.6667C30 12.9534 30 10.595 28.535 9.13169C27.0717 7.66669 24.7133 7.66669 20 7.66669H10C5.28667 7.66669 2.92833 7.66669 1.465 9.13169ZM15 21C15.442 21 15.8659 20.8244 16.1785 20.5119C16.4911 20.1993 16.6667 19.7754 16.6667 19.3334C16.6667 18.8913 16.4911 18.4674 16.1785 18.1548C15.8659 17.8423 15.442 17.6667 15 17.6667C14.558 17.6667 14.134 17.8423 13.8215 18.1548C13.5089 18.4674 13.3333 18.8913 13.3333 19.3334C13.3333 19.7754 13.5089 20.1993 13.8215 20.5119C14.134 20.8244 14.558 21 15 21ZM20 19.3334C20.0003 20.3677 19.6799 21.3767 19.0829 22.2214C18.486 23.0661 17.6418 23.705 16.6667 24.05V27.6667H13.3333V24.05C12.4686 23.7447 11.7044 23.2076 11.1243 22.4973C10.5443 21.787 10.1707 20.9309 10.0443 20.0226C9.91802 19.1143 10.0439 18.1887 10.4081 17.3471C10.7723 16.5055 11.3609 15.7802 12.1095 15.2505C12.8582 14.7209 13.738 14.4072 14.6529 14.3439C15.5678 14.2806 16.4824 14.47 17.2969 14.8914C18.1114 15.3128 18.7943 15.9501 19.271 16.7335C19.7478 17.5169 20 18.4163 20 19.3334Z" fill="#3B5998"/>
</svg>
