<svg width="30" height="24" viewBox="0 0 30 24" fill="none" xmlns="http://www.w3.org/2000/svg">
<path d="M28.9286 0H1.07143C0.787268 0 0.514746 0.112883 0.313814 0.313814C0.112882 0.514746 0 0.787268 0 1.07143V22.5C0 22.7842 0.112882 23.0567 0.313814 23.2576C0.514746 23.4585 0.787268 23.5714 1.07143 23.5714H28.9286C29.2127 23.5714 29.4853 23.4585 29.6862 23.2576C29.8871 23.0567 30 22.7842 30 22.5V1.07143C30 0.787268 29.8871 0.514746 29.6862 0.313814C29.4853 0.112883 29.2127 0 28.9286 0ZM15.6576 13.7029C15.4696 13.8491 15.2382 13.9284 15 13.9284C14.7618 13.9284 14.5304 13.8491 14.3424 13.7029L3.85379 5.54531L5.16897 3.8538L15 11.4998L24.831 3.8538L26.1462 5.54531L15.6576 13.7029Z" fill="#3B5998"/>
<path d="M13.6364 4.5L14.4545 5.31818L16.3636 3.40909M17.1818 5.31818C16.9091 5.59091 17.5227 6.34091 17.1818 6.68182C16.8409 7.02273 16.0909 6.40909 15.8182 6.68182C15.5455 6.95455 15.4091 7.5 15 7.5C14.5909 7.5 14.4545 6.95455 14.1818 6.68182C13.9091 6.40909 13.1591 7.02273 12.8182 6.68182C12.4773 6.34091 13.0909 5.59091 12.8182 5.31818C12.5455 5.04545 12 4.90909 12 4.5C12 4.09091 12.5455 3.95455 12.8182 3.68182C13.0909 3.40909 12.4773 2.65909 12.8182 2.31818C13.1591 1.97727 13.9091 2.59091 14.1818 2.31818C14.4545 2.04545 14.5909 1.5 15 1.5C15.4091 1.5 15.5455 2.04545 15.8182 2.31818C16.0909 2.59091 16.8409 1.97727 17.1818 2.31818C17.5227 2.65909 16.9091 3.40909 17.1818 3.68182C17.4545 3.95455 18 4.09091 18 4.5C18 4.90909 17.4545 5.04545 17.1818 5.31818Z" stroke="white" stroke-width="0.5"/>
</svg>
