<svg width="31" height="30" viewBox="0 0 31 30" fill="none" xmlns="http://www.w3.org/2000/svg">
<path d="M7.63586 22.0693C7.63586 22.5342 7.56293 22.8806 7.41708 23.1085C7.27123 23.3364 7.03878 23.5005 6.71972 23.6007C7.03878 23.701 7.27123 23.8651 7.41708 24.093C7.56293 24.3209 7.63586 24.6673 7.63586 25.1322V27.32C7.63586 27.6481 7.7179 27.8988 7.88198 28.072C8.05518 28.2452 8.30587 28.3318 8.63404 28.3318H8.88016V30H8.08709C7.23932 30 6.59666 29.7903 6.1591 29.371C5.72155 28.9517 5.50277 28.3455 5.50277 27.5524V25.0775C5.50277 24.8678 5.44807 24.7083 5.33868 24.5989C5.23841 24.4895 5.09256 24.4348 4.90113 24.4348H4.4499V22.7666H4.90113C5.09256 22.7666 5.23841 22.7119 5.33868 22.6025C5.44807 22.4932 5.50277 22.3336 5.50277 22.124V19.649C5.50277 18.856 5.72155 18.2498 6.1591 17.8304C6.59666 17.4111 7.23932 17.2015 8.08709 17.2015H8.88016V18.8696H8.63404C8.30587 18.8696 8.05518 18.9562 7.88198 19.1294C7.7179 19.3026 7.63586 19.5533 7.63586 19.8815V22.0693Z" fill="#3B5998"/>
<path d="M10.8714 27.4567C10.4976 27.4567 10.1831 27.3291 9.92791 27.0738C9.67266 26.8186 9.54504 26.4995 9.54504 26.1167C9.54504 25.7247 9.67266 25.4102 9.92791 25.1732C10.1831 24.9271 10.4976 24.804 10.8714 24.804C11.2451 24.804 11.5596 24.9271 11.8149 25.1732C12.0701 25.4102 12.1977 25.7247 12.1977 26.1167C12.1977 26.4995 12.0701 26.8186 11.8149 27.0738C11.5596 27.3291 11.2451 27.4567 10.8714 27.4567Z" fill="#3B5998"/>
<path d="M14.45 27.4567C14.0763 27.4567 13.7618 27.3291 13.5066 27.0738C13.2513 26.8186 13.1237 26.4995 13.1237 26.1167C13.1237 25.7247 13.2513 25.4102 13.5066 25.1732C13.7618 24.9271 14.0763 24.804 14.45 24.804C14.8238 24.804 15.1383 24.9271 15.3935 25.1732C15.6488 25.4102 15.7764 25.7247 15.7764 26.1167C15.7764 26.4995 15.6488 26.8186 15.3935 27.0738C15.1383 27.3291 14.8238 27.4567 14.45 27.4567Z" fill="#3B5998"/>
<path d="M18.0287 27.4567C17.6549 27.4567 17.3405 27.3291 17.0852 27.0738C16.83 26.8186 16.7023 26.4995 16.7023 26.1167C16.7023 25.7247 16.83 25.4102 17.0852 25.1732C17.3405 24.9271 17.6549 24.804 18.0287 24.804C18.4024 24.804 18.7169 24.9271 18.9722 25.1732C19.2274 25.4102 19.355 25.7247 19.355 26.1167C19.355 26.4995 19.2274 26.8186 18.9722 27.0738C18.7169 27.3291 18.4024 27.4567 18.0287 27.4567Z" fill="#3B5998"/>
<path d="M21.6073 27.4567C21.2336 27.4567 20.9191 27.3291 20.6639 27.0738C20.4086 26.8186 20.281 26.4995 20.281 26.1167C20.281 25.7247 20.4086 25.4102 20.6639 25.1732C20.9191 24.9271 21.2336 24.804 21.6073 24.804C21.9811 24.804 22.2956 24.9271 22.5508 25.1732C22.8061 25.4102 22.9337 25.7247 22.9337 26.1167C22.9337 26.4995 22.8061 26.8186 22.5508 27.0738C22.2956 27.3291 21.9811 27.4567 21.6073 27.4567Z" fill="#3B5998"/>
<path d="M28.0301 22.7666V24.4348H27.5789C27.3875 24.4348 27.237 24.4895 27.1277 24.5989C27.0274 24.7083 26.9772 24.8678 26.9772 25.0775V27.5524C26.9772 28.3455 26.7585 28.9517 26.3209 29.371C25.8834 29.7903 25.2407 30 24.3929 30H23.5999V28.3318H23.846C24.1741 28.3318 24.4203 28.2452 24.5844 28.072C24.7576 27.8988 24.8442 27.6481 24.8442 27.32V25.1322C24.8442 24.6673 24.9171 24.3209 25.0629 24.093C25.2088 23.8651 25.4412 23.701 25.7603 23.6007C25.4412 23.5005 25.2088 23.3364 25.0629 23.1085C24.9171 22.8806 24.8442 22.5342 24.8442 22.0693V19.8815C24.8442 19.5533 24.7576 19.3026 24.5844 19.1294C24.4203 18.9562 24.1741 18.8696 23.846 18.8696H23.5999V17.2015H24.3929C25.2407 17.2015 25.8834 17.4111 26.3209 17.8304C26.7585 18.2498 26.9772 18.856 26.9772 19.649V22.124C26.9772 22.3336 27.0274 22.4932 27.1277 22.6025C27.237 22.7119 27.3875 22.7666 27.5789 22.7666H28.0301Z" fill="#3B5998"/>
<path d="M11.1098 8.54604V6.83683H13.6737V7.69143H17.0921V5.98223H12.8191C11.879 5.98223 11.1098 5.21308 11.1098 4.27302V1.70921C11.1098 0.769143 11.879 0 12.8191 0H17.9467C18.8867 0 19.6559 0.769143 19.6559 1.70921V3.41841H17.0921V2.56381H13.6737V4.27302H17.9467C18.8867 4.27302 19.6559 5.04216 19.6559 5.98223V8.54604C19.6559 9.4861 18.8867 10.2552 17.9467 10.2552H12.8191C11.879 10.2552 11.1098 9.4861 11.1098 8.54604ZM23.9289 10.2552H29.0565C29.9966 10.2552 30.7657 9.4861 30.7657 8.54604V5.98223C30.7657 5.04216 29.9966 4.27302 29.0565 4.27302H24.7835V2.56381H28.2019V3.41841H30.7657V1.70921C30.7657 0.769143 29.9966 0 29.0565 0H23.9289C22.9888 0 22.2197 0.769143 22.2197 1.70921V4.27302C22.2197 5.21308 22.9888 5.98223 23.9289 5.98223H28.2019V7.69143H24.7835V6.83683H22.2197V8.54604C22.2197 9.4861 22.9888 10.2552 23.9289 10.2552ZM8.54604 1.70921C8.54604 0.769143 7.77689 0 6.83683 0H1.70921C0.769143 0 0 0.769143 0 1.70921V8.54604C0 9.4861 0.769143 10.2552 1.70921 10.2552H6.83683C7.77689 10.2552 8.54604 9.4861 8.54604 8.54604V6.83683H5.98223V7.69143H2.56381V2.56381H5.98223V3.41841H8.54604V1.70921Z" fill="#3B5998"/>
</svg>
