<svg width="74" height="20" viewBox="0 0 74 20" fill="none" xmlns="http://www.w3.org/2000/svg">
<path d="M0 20V0H5.04545V6.66667H11.7727V0H16.8182V20H11.7727V11.6667H5.04545V20H0ZM25.2273 20V5H20.1818V0H35.3182V5H30.2727V20H25.2273ZM43.7273 20V5H38.6818V0H53.8182V5H48.7727V20H43.7273ZM57.1818 20V0H68.9545C70.3 0 71.4773 0.499999 72.4864 1.5C73.4955 2.5 74 3.66667 74 5V8.33333C74 9.66667 73.4955 10.8333 72.4864 11.8333C71.4773 12.8333 70.3 13.3333 68.9545 13.3333H62.2273V20H57.1818ZM62.2273 8.33333H68.9545V5H62.2273V8.33333Z" fill="#3B5998"/>
</svg>
