<svg width="53" height="30" viewBox="0 0 53 30" fill="none" xmlns="http://www.w3.org/2000/svg">
<path d="M16.9346 21.6715L11.1567 23.7883L16.9346 25.8878V28.0567L8.67553 24.9161V22.6605L16.9346 19.52V21.6715Z" fill="#3B5998"/>
<path d="M20.2597 30C19.7854 30 19.3863 29.8381 19.0625 29.5142C18.7386 29.1903 18.5766 28.7854 18.5766 28.2996C18.5766 27.8022 18.7386 27.4031 19.0625 27.1024C19.3863 26.7901 19.7854 26.6339 20.2597 26.6339C20.7339 26.6339 21.133 26.7901 21.4569 27.1024C21.7808 27.4031 21.9427 27.8022 21.9427 28.2996C21.9427 28.7854 21.7808 29.1903 21.4569 29.5142C21.133 29.8381 20.7339 30 20.2597 30Z" fill="#3B5998"/>
<path d="M24.8008 30C24.3265 30 23.9274 29.8381 23.6036 29.5142C23.2797 29.1903 23.1177 28.7854 23.1177 28.2996C23.1177 27.8022 23.2797 27.4031 23.6036 27.1024C23.9274 26.7901 24.3265 26.6339 24.8008 26.6339C25.275 26.6339 25.6741 26.7901 25.998 27.1024C26.3219 27.4031 26.4838 27.8022 26.4838 28.2996C26.4838 28.7854 26.3219 29.1903 25.998 29.5142C25.6741 29.8381 25.275 30 24.8008 30Z" fill="#3B5998"/>
<path d="M29.3419 30C28.8676 30 28.4685 29.8381 28.1447 29.5142C27.8208 29.1903 27.6588 28.7854 27.6588 28.2996C27.6588 27.8022 27.8208 27.4031 28.1447 27.1024C28.4685 26.7901 28.8676 26.6339 29.3419 26.6339C29.8161 26.6339 30.2152 26.7901 30.5391 27.1024C30.863 27.4031 31.0249 27.8022 31.0249 28.2996C31.0249 28.7854 30.863 29.1903 30.5391 29.5142C30.2152 29.8381 29.8161 30 29.3419 30Z" fill="#3B5998"/>
<path d="M33.883 30C33.4087 30 33.0096 29.8381 32.6858 29.5142C32.3619 29.1903 32.1999 28.7854 32.1999 28.2996C32.1999 27.8022 32.3619 27.4031 32.6858 27.1024C33.0096 26.7901 33.4087 26.6339 33.883 26.6339C34.3572 26.6339 34.7563 26.7901 35.0802 27.1024C35.4041 27.4031 35.566 27.8022 35.566 28.2996C35.566 28.7854 35.4041 29.1903 35.0802 29.5142C34.7563 29.8381 34.3572 30 33.883 30Z" fill="#3B5998"/>
<path d="M45.486 22.6605V24.9161L37.2269 28.0567V25.8878L43.0048 23.7883L37.2269 21.6715V19.52L45.486 22.6605Z" fill="#3B5998"/>
<path d="M0 13.0133V0H3.25333V4.33777H7.59109V0H10.8444V13.0133H7.59109V7.59109H3.25333V13.0133H0ZM16.8088 13.0133V3.25333H13.0133V0H23.8577V3.25333H20.0622V13.0133H16.8088ZM26.0266 13.0133V2.16888C26.0266 1.55437 26.2348 1.03962 26.6512 0.624639C27.0677 0.209659 27.5824 0.00144592 28.1955 0H37.9555C38.57 0 39.0854 0.208213 39.5019 0.624639C39.9183 1.04106 40.1258 1.55581 40.1243 2.16888V13.0133H36.871V3.25333H34.7021V10.8444H31.4488V3.25333H29.2799V13.0133H26.0266ZM43.3777 13.0133V0H46.631V9.75998H52.0532V13.0133H43.3777Z" fill="#3B5998"/>
</svg>
