<svg width="30" height="23" viewBox="0 0 30 23" fill="none" xmlns="http://www.w3.org/2000/svg">
<path d="M5 22.0588V18.6652H1.66667V22.0588H0V13.5747H1.66667V16.9683H5V13.5747H6.66667V22.0588H5ZM10 22.0588V15.2715H7.66667V13.5747H13.8333V15.2715H11.6667V22.0588H10ZM15 22.0588V13.5747H16.6667L19 19.3439H19.1667L21.6667 13.5747H23.3333V22.0588H21.6667V16.7986H21.5L19.6667 21.0407H18.6667L16.8333 16.7986H16.6667V22.0588H15ZM30 22.0588H25V13.5747H26.6667V20.362H30V22.0588ZM14 2.0362L10.1667 5.93891L14 9.84163L13 11.8778L7.16667 5.93891L13 0L14 2.0362ZM16 9.84163L19.8333 5.93891L16 2.0362L17 0L22.8333 5.93891L17 11.8778L16 9.84163Z" fill="#3B5998"/>
</svg>
