<svg width="15" height="11" viewBox="0 0 15 11" fill="none" xmlns="http://www.w3.org/2000/svg">
<path d="M2.5 11V9.30769H0.833333V11H0V6.76923H0.833333V8.46154H2.5V6.76923H3.33333V11H2.5ZM5 11V7.61539H3.83333V6.76923H6.91667V7.61539H5.83333V11H5ZM7.5 11V6.76923H8.33333L9.5 9.64615H9.58333L10.8333 6.76923H11.6667V11H10.8333V8.37692H10.75L9.83333 10.4923H9.33333L8.41667 8.37692H8.33333V11H7.5ZM15 11H12.5V6.76923H13.3333V10.1538H15V11ZM7 1.01538L5.08333 2.96154L7 4.90769L6.5 5.92308L3.58333 2.96154L6.5 0L7 1.01538ZM8 4.90769L9.91667 2.96154L8 1.01538L8.5 0L11.4167 2.96154L8.5 5.92308L8 4.90769Z" fill="#3B5998"/>
</svg>
