<svg width="30" height="28" viewBox="0 0 30 28" fill="none" xmlns="http://www.w3.org/2000/svg">
<path d="M6.73106 21.699L2.02215 23.3005L6.73106 24.8889V26.5298L0 24.1538V22.4473L6.73106 20.0713V21.699Z" fill="#3B5998"/>
<path d="M9.44092 28C9.0544 28 8.72916 27.8775 8.4652 27.6324C8.20123 27.3874 8.06925 27.0811 8.06925 26.7135C8.06925 26.3372 8.20123 26.0353 8.4652 25.8078C8.72916 25.5715 9.0544 25.4533 9.44092 25.4533C9.82744 25.4533 10.1527 25.5715 10.4166 25.8078C10.6806 26.0353 10.8126 26.3372 10.8126 26.7135C10.8126 27.0811 10.6806 27.3874 10.4166 27.6324C10.1527 27.8775 9.82744 28 9.44092 28Z" fill="#3B5998"/>
<path d="M13.1419 28C12.7553 28 12.4301 27.8775 12.1661 27.6324C11.9022 27.3874 11.7702 27.0811 11.7702 26.7135C11.7702 26.3372 11.9022 26.0353 12.1661 25.8078C12.4301 25.5715 12.7553 25.4533 13.1419 25.4533C13.5284 25.4533 13.8536 25.5715 14.1176 25.8078C14.3815 26.0353 14.5135 26.3372 14.5135 26.7135C14.5135 27.0811 14.3815 27.3874 14.1176 27.6324C13.8536 27.8775 13.5284 28 13.1419 28Z" fill="#3B5998"/>
<path d="M16.8428 28C16.4563 28 16.131 27.8775 15.8671 27.6324C15.6031 27.3874 15.4711 27.0811 15.4711 26.7135C15.4711 26.3372 15.6031 26.0353 15.8671 25.8078C16.131 25.5715 16.4563 25.4533 16.8428 25.4533C17.2293 25.4533 17.5545 25.5715 17.8185 25.8078C18.0825 26.0353 18.2145 26.3372 18.2145 26.7135C18.2145 27.0811 18.0825 27.3874 17.8185 27.6324C17.5545 27.8775 17.2293 28 16.8428 28Z" fill="#3B5998"/>
<path d="M20.5437 28C20.1572 28 19.832 27.8775 19.568 27.6324C19.304 27.3874 19.1721 27.0811 19.1721 26.7135C19.1721 26.3372 19.304 26.0353 19.568 25.8078C19.832 25.5715 20.1572 25.4533 20.5437 25.4533C20.9302 25.4533 21.2555 25.5715 21.5194 25.8078C21.7834 26.0353 21.9154 26.3372 21.9154 26.7135C21.9154 27.0811 21.7834 27.3874 21.5194 27.6324C21.2555 27.8775 20.9302 28 20.5437 28Z" fill="#3B5998"/>
<path d="M30 22.4473V24.1538L23.2689 26.5298V24.8889L27.9779 23.3005L23.2689 21.699V20.0713L30 22.4473Z" fill="#3B5998"/>
<path d="M20.3285 5.87657H20.3321C22.1792 6.52144 24.714 7.40259 24.714 9.89673C24.7104 10.4743 24.5755 11.0446 24.318 11.5704C24.0661 12.0972 23.6974 12.5688 23.236 12.9544C22.7746 13.34 22.2308 13.6311 21.6401 13.8086C21.0513 13.99 20.428 14.0543 19.8106 13.9973C19.685 14.0101 19.5587 14.0167 19.4324 14.017C18.3384 14.0135 17.2847 13.6335 16.4751 12.9504C16.0129 12.5658 15.6424 12.0958 15.3873 11.5705C15.1322 11.0452 14.9982 10.4762 14.9939 9.90001C14.9939 9.56855 15.1318 9.26007 15.3828 9.02706C15.6357 8.80431 15.971 8.68013 16.3196 8.68013C16.6682 8.68013 17.0035 8.80431 17.2564 9.02706C17.3807 9.14055 17.4792 9.27594 17.5463 9.42529C17.6134 9.57463 17.6477 9.73492 17.6471 9.89673C17.6471 11.4588 19.4872 11.5376 19.8566 11.5376C20.226 11.5376 22.0661 11.4588 22.0661 9.89673C22.0661 9.21905 21.276 8.83344 19.3899 8.17709H19.3846C17.5357 7.52894 14.9957 6.64778 14.9957 4.15364C15.0015 3.56621 15.1335 3.00831 15.3916 2.47994C15.6448 1.95374 16.0146 1.48298 16.4769 1.09832C16.9369 0.713578 17.4789 0.422877 18.0678 0.245063C19.2337 -0.0816875 20.4777 -0.0816875 21.6436 0.245063C22.5327 0.51446 23.3079 1.0368 23.8593 1.73804C24.4107 2.43927 24.7103 3.28383 24.7157 4.152C24.7157 4.48182 24.5779 4.79195 24.3269 5.02331C24.0739 5.24654 23.7382 5.37102 23.3892 5.37102C23.0401 5.37102 22.7044 5.24654 22.4514 5.02331C22.3275 4.90969 22.2293 4.77423 22.1625 4.62489C22.0957 4.47555 22.0617 4.31534 22.0626 4.15364C22.0626 2.59152 20.2225 2.51276 19.853 2.51276C19.4836 2.51276 17.6435 2.59152 17.6435 4.15364C17.6435 4.83133 18.4337 5.21693 20.3197 5.87329L20.3285 5.87657ZM11.4569 1.2821C11.4569 0.953924 11.5948 0.645438 11.8458 0.412433C12.0987 0.18968 12.434 0.0655005 12.7826 0.0655005C13.1312 0.0655005 13.4665 0.18968 13.7194 0.412433C13.9704 0.643797 14.1083 0.953924 14.1083 1.2821V9.48651C14.1086 10.3792 13.8237 11.2519 13.2896 11.9943C12.7555 12.7366 11.9962 13.3152 11.1078 13.6569C10.2194 13.9985 9.24176 14.0879 8.29862 13.9136C7.35548 13.7394 6.4892 13.3094 5.80938 12.678C5.35616 12.2601 4.99684 11.7627 4.75228 11.2149C4.50771 10.667 4.38277 10.0795 4.38469 9.48651V8.66607C4.38469 8.33789 4.52256 8.02941 4.77356 7.7964C5.02654 7.57317 5.36224 7.44869 5.71128 7.44869C6.06032 7.44869 6.39601 7.57317 6.649 7.7964C6.9 8.02777 7.03787 8.33789 7.03787 8.66607V9.48651C7.03787 10.028 7.27473 10.5564 7.68482 10.937C8.50675 11.7001 9.98801 11.7001 10.81 10.937C11.22 10.5547 11.4569 10.0264 11.4569 9.48651V1.2821Z" fill="#3B5998"/>
</svg>
