<svg width="38" height="30" viewBox="0 0 38 30" fill="none" xmlns="http://www.w3.org/2000/svg">
<path d="M33.75 0H3.75C1.6875 0 0 1.6875 0 3.75V26.25C0 28.3125 1.6875 30 3.75 30H33.75C35.8125 30 37.5 28.3125 37.5 26.25V3.75C37.5 1.6875 35.8125 0 33.75 0ZM8.4375 3.28125C8.81046 3.28125 9.16815 3.42941 9.43187 3.69313C9.69559 3.95685 9.84375 4.31454 9.84375 4.6875C9.84375 5.06046 9.69559 5.41815 9.43187 5.68187C9.16815 5.94559 8.81046 6.09375 8.4375 6.09375C8.06454 6.09375 7.70685 5.94559 7.44313 5.68187C7.17941 5.41815 7.03125 5.06046 7.03125 4.6875C7.03125 4.31454 7.17941 3.95685 7.44313 3.69313C7.70685 3.42941 8.06454 3.28125 8.4375 3.28125ZM3.28125 4.6875C3.28125 4.31454 3.42941 3.95685 3.69313 3.69313C3.95685 3.42941 4.31454 3.28125 4.6875 3.28125C5.06046 3.28125 5.41815 3.42941 5.68187 3.69313C5.94559 3.95685 6.09375 4.31454 6.09375 4.6875C6.09375 5.06046 5.94559 5.41815 5.68187 5.68187C5.41815 5.94559 5.06046 6.09375 4.6875 6.09375C4.31454 6.09375 3.95685 5.94559 3.69313 5.68187C3.42941 5.41815 3.28125 5.06046 3.28125 4.6875ZM33.75 26.25H3.75V9.375H33.75V26.25ZM33.75 5.625H11.25V3.75H33.7856L33.75 5.625Z" fill="#3B5998"/>
</svg>
