<svg width="47" height="41" viewBox="0 0 47 41" fill="none" xmlns="http://www.w3.org/2000/svg">
<path d="M10 20C4.477 20 0 15.523 0 10C0 4.477 4.477 0 10 0C15.523 0 20 4.477 20 10C20 15.523 15.523 20 10 20ZM7.71 17.667C6.72341 15.5743 6.15187 13.3102 6.027 11H2.062C2.25683 12.5388 2.89425 13.988 3.89686 15.1715C4.89947 16.355 6.22414 17.2219 7.71 17.667ZM8.03 11C8.181 13.439 8.878 15.73 10 17.752C11.1525 15.6766 11.8256 13.3695 11.97 11H8.03ZM17.938 11H13.973C13.8481 13.3102 13.2766 15.5743 12.29 17.667C13.7759 17.2219 15.1005 16.355 16.1031 15.1715C17.1057 13.988 17.7432 12.5388 17.938 11ZM2.062 9H6.027C6.15187 6.68979 6.72341 4.42569 7.71 2.333C6.22414 2.77811 4.89947 3.64505 3.89686 4.82855C2.89425 6.01204 2.25683 7.46119 2.062 9ZM8.031 9H11.969C11.8249 6.63057 11.1521 4.32347 10 2.248C8.84752 4.32338 8.17439 6.63049 8.03 9M12.289 2.333C13.2759 4.42562 13.8478 6.68972 13.973 9H17.938C17.7432 7.46119 17.1057 6.01204 16.1031 4.82855C15.1005 3.64505 13.7759 2.77811 12.29 2.333" fill="#3B5998"/>
<path d="M28 38C27.45 38 26.9793 37.8043 26.588 37.413C26.1967 37.0217 26.0007 36.5507 26 36V25C26 24.45 26.196 23.9793 26.588 23.588C26.98 23.1967 27.4507 23.0007 28 23H44C44.55 23 45.021 23.196 45.413 23.588C45.805 23.98 46.0007 24.4507 46 25V36C46 36.55 45.8043 37.021 45.413 37.413C45.0217 37.805 44.5507 38.0007 44 38H28ZM25 41V39H47V41H25Z" fill="#3B5998"/>
<path d="M40 22.5V4H19.5M10 21V36H25.5" stroke="#3B5998" stroke-dasharray="2 2"/>
</svg>
