<svg width="36" height="35" viewBox="0 0 36 35" fill="none" xmlns="http://www.w3.org/2000/svg">
<path d="M19.4852 0C19.1407 0 18.8607 0.279963 18.8607 0.624967C18.8607 0.657016 18.8744 0.684824 18.8791 0.715931H18.8607V15.5332C18.8607 15.8782 19.1407 16.1582 19.4852 16.1582H34.302V16.1398C34.3331 16.1445 34.3609 16.1582 34.3934 16.1582C34.738 16.1582 35.0179 15.8782 35.0179 15.5332C34.9293 6.99293 28.0255 0.0890789 19.4852 0Z" fill="#3B5998"/>
<path d="M31.4058 19.1307C31.4058 18.7857 31.1263 18.5058 30.7813 18.5058H17.1607C16.995 18.5056 16.8361 18.4397 16.719 18.3226C16.6019 18.2054 16.5362 18.0465 16.5362 17.8808V4.31017H16.5178C16.5225 4.27906 16.5362 4.25125 16.5362 4.2192C16.5362 3.87373 16.2562 3.59424 15.9112 3.59424C15.8961 3.59424 15.8839 3.60178 15.8692 3.60272V3.59848C15.8136 3.59801 15.7585 3.59424 15.7029 3.59424C7.03064 3.59424 0 10.6249 0 19.2971C0 27.9693 7.03064 35 15.7029 35C24.3751 35 31.4058 27.9693 31.4058 19.2971C31.4058 19.2472 31.4034 19.1977 31.4024 19.1472C31.4024 19.1411 31.4058 19.1364 31.4058 19.1307Z" fill="#3B5998"/>
<path d="M25.025 3.04462C25.1758 2.58623 25.8242 2.58624 25.975 3.04462L26.9709 6.07282C27.1197 6.52535 27.4747 6.88028 27.9272 7.02911L30.9554 8.02503C31.4138 8.17578 31.4138 8.82422 30.9554 8.97497L27.9272 9.97089C27.4747 10.1197 27.1197 10.4747 26.9709 10.9272L25.975 13.9554C25.8242 14.4138 25.1758 14.4138 25.025 13.9554L24.0291 10.9272C23.8803 10.4747 23.5253 10.1197 23.0728 9.97089L20.0446 8.97497C19.5862 8.82422 19.5862 8.17578 20.0446 8.02503L23.0728 7.02911C23.5253 6.88028 23.8803 6.52535 24.0291 6.07282L25.025 3.04462Z" fill="#DFE3EE" stroke="black"/>
</svg>
