<svg width="30" height="30" viewBox="0 0 30 30" fill="none" xmlns="http://www.w3.org/2000/svg">
<path d="M20.9114 16.3636V20.9086H25.455V25.4523H30V30H25.455V25.455H20.9114V30H16.3636V25.455H20.9086V20.91H16.3636V16.3636H20.9114ZM10.2273 16.3636C11.1314 16.3636 11.9985 16.7228 12.6379 17.3621C13.2772 18.0015 13.6364 18.8686 13.6364 19.7727V26.5909C13.6364 27.4951 13.2772 28.3622 12.6379 29.0015C11.9985 29.6408 11.1314 30 10.2273 30H3.40909C2.50494 30 1.63783 29.6408 0.9985 29.0015C0.359171 28.3622 0 27.4951 0 26.5909V19.7727C0 18.8686 0.359171 18.0015 0.9985 17.3621C1.63783 16.7228 2.50494 16.3636 3.40909 16.3636H10.2273ZM10.2273 19.0909H3.40909C3.22826 19.0909 3.05484 19.1627 2.92697 19.2906C2.79911 19.4185 2.72727 19.5919 2.72727 19.7727V26.5909C2.72727 26.7717 2.79911 26.9452 2.92697 27.073C3.05484 27.2009 3.22826 27.2727 3.40909 27.2727H10.2273C10.4081 27.2727 10.5815 27.2009 10.7094 27.073C10.8373 26.9452 10.9091 26.7717 10.9091 26.5909V19.7727C10.9091 19.5919 10.8373 19.4185 10.7094 19.2906C10.5815 19.1627 10.4081 19.0909 10.2273 19.0909ZM9.20455 20.7955V25.5682H4.43182V20.7955H9.20455ZM30 16.3636V20.9086H25.455V16.3636H30ZM10.2273 0C11.1314 0 11.9985 0.359171 12.6379 0.9985C13.2772 1.63783 13.6364 2.50494 13.6364 3.40909V10.2273C13.6364 11.1314 13.2772 11.9985 12.6379 12.6379C11.9985 13.2772 11.1314 13.6364 10.2273 13.6364H3.40909C2.50494 13.6364 1.63783 13.2772 0.9985 12.6379C0.359171 11.9985 0 11.1314 0 10.2273V3.40909C0 2.50494 0.359171 1.63783 0.9985 0.9985C1.63783 0.359171 2.50494 0 3.40909 0H10.2273ZM26.5909 0C27.4951 0 28.3622 0.359171 29.0015 0.9985C29.6408 1.63783 30 2.50494 30 3.40909V10.2273C30 11.1314 29.6408 11.9985 29.0015 12.6379C28.3622 13.2772 27.4951 13.6364 26.5909 13.6364H19.7727C18.8686 13.6364 18.0015 13.2772 17.3621 12.6379C16.7228 11.9985 16.3636 11.1314 16.3636 10.2273V3.40909C16.3636 2.50494 16.7228 1.63783 17.3621 0.9985C18.0015 0.359171 18.8686 0 19.7727 0H26.5909ZM10.2273 2.72727H3.40909C3.22826 2.72727 3.05484 2.79911 2.92697 2.92697C2.79911 3.05484 2.72727 3.22826 2.72727 3.40909V10.2273C2.72727 10.4081 2.79911 10.5815 2.92697 10.7094C3.05484 10.8373 3.22826 10.9091 3.40909 10.9091H10.2273C10.4081 10.9091 10.5815 10.8373 10.7094 10.7094C10.8373 10.5815 10.9091 10.4081 10.9091 10.2273V3.40909C10.9091 3.22826 10.8373 3.05484 10.7094 2.92697C10.5815 2.79911 10.4081 2.72727 10.2273 2.72727ZM26.5909 2.72727H19.7727C19.5919 2.72727 19.4185 2.79911 19.2906 2.92697C19.1627 3.05484 19.0909 3.22826 19.0909 3.40909V10.2273C19.0909 10.4081 19.1627 10.5815 19.2906 10.7094C19.4185 10.8373 19.5919 10.9091 19.7727 10.9091H26.5909C26.7717 10.9091 26.9452 10.8373 27.073 10.7094C27.2009 10.5815 27.2727 10.4081 27.2727 10.2273V3.40909C27.2727 3.22826 27.2009 3.05484 27.073 2.92697C26.9452 2.79911 26.7717 2.72727 26.5909 2.72727ZM25.5682 4.43182V9.20455H20.7955V4.43182H25.5682ZM9.20045 4.43455V9.20045H4.43591V4.43455H9.20045Z" fill="#3B5998"/>
</svg>
