<svg width="33" height="30" viewBox="0 0 33 30" fill="none" xmlns="http://www.w3.org/2000/svg">
<path fill-rule="evenodd" clip-rule="evenodd" d="M0.487236 0.151847C0.78985 -0.0366084 1.16676 -0.050545 1.48194 0.115061C3.64516 1.25173 8.70144 2.93938 16.4001 2.93938C24.0987 2.93938 29.1549 1.25173 31.3182 0.115061C31.6334 -0.050545 32.0104 -0.0366084 32.3129 0.151847C32.6156 0.340316 32.8002 0.676082 32.8002 1.03798V28.962C32.8002 29.3239 32.6156 29.6597 32.3129 29.8482C32.0104 30.0367 31.6334 30.0505 31.3182 29.885C29.1549 28.7483 24.0987 27.0606 16.4001 27.0606C8.70144 27.0606 3.64516 28.7483 1.48194 29.885C1.16676 30.0505 0.78985 30.0367 0.487236 29.8482C0.184623 29.6597 0 29.3239 0 28.962V1.03798C0 0.676082 0.184623 0.340316 0.487236 0.151847ZM6.34385 19.6277L25.407 8.58129L24.5559 7.01306C24.3556 6.64409 24.3973 6.1908 24.6615 5.86458C24.9258 5.53835 25.3605 5.40344 25.7631 5.52274L29.4382 6.61202C29.9356 6.75944 30.2397 7.24653 30.1722 7.74514C30.1628 7.8207 30.145 7.89501 30.1193 7.96664L29.0492 11.5774C28.9299 11.9799 28.5799 12.2709 28.1624 12.3147C27.7448 12.3585 27.3419 12.1465 27.1417 11.7775L26.3977 10.4066L7.45386 21.3838L8.27378 22.681C8.49808 23.0358 8.48654 23.4909 8.24453 23.8338C8.0025 24.1769 7.57766 24.3404 7.16811 24.2481L3.42873 23.4051C2.89262 23.2843 2.54774 22.7687 2.63123 22.2335C2.63688 22.1949 2.6447 22.1567 2.65462 22.1191L3.48738 18.4248C3.5797 18.0153 3.90963 17.7017 4.32335 17.6303C4.73704 17.5589 5.15304 17.7437 5.37735 18.0985L6.34385 19.6277Z" fill="#3B5998"/>
</svg>
