<svg width="50" height="14" viewBox="0 0 50 14" fill="none" xmlns="http://www.w3.org/2000/svg">
<path d="M6.98434 1.62292H10.1884V9.18353C10.1884 10.0825 9.97324 10.8605 9.54296 11.5174C9.11653 12.1705 8.52105 12.6757 7.75654 13.033C6.99203 13.3864 6.10458 13.5632 5.09419 13.5632C4.07612 13.5632 3.18483 13.3864 2.42032 13.033C1.6558 12.6757 1.06033 12.1705 0.633892 11.5174C0.211297 10.8605 0 10.0825 0 9.18353V1.62292H3.20404V8.90692C3.20404 9.27189 3.28472 9.59844 3.44607 9.88658C3.60742 10.1709 3.83025 10.3937 4.11454 10.555C4.40267 10.7164 4.72922 10.7971 5.09419 10.7971C5.463 10.7971 5.78955 10.7164 6.07384 10.555C6.35813 10.3937 6.58096 10.1709 6.74231 9.88658C6.90366 9.59844 6.98434 9.27189 6.98434 8.90692V1.62292Z" fill="#3B5998"/>
<path d="M11.7112 13.4248V1.62292H16.8054C17.6813 1.62292 18.4477 1.78236 19.1047 2.10123C19.7616 2.42009 20.2726 2.87918 20.6375 3.4785C21.0025 4.07782 21.185 4.79623 21.185 5.63373C21.185 6.47892 20.9967 7.19157 20.6202 7.77168C20.2476 8.35179 19.7232 8.78975 19.047 9.08557C18.3747 9.38138 17.5891 9.52929 16.6901 9.52929H13.6474V7.03982H16.0447C16.4212 7.03982 16.742 6.99372 17.007 6.90152C17.276 6.80548 17.4815 6.65373 17.6236 6.44627C17.7696 6.23881 17.8426 5.96797 17.8426 5.63373C17.8426 5.29566 17.7696 5.02097 17.6236 4.80968C17.4815 4.59454 17.276 4.43702 17.007 4.33714C16.742 4.23341 16.4212 4.18154 16.0447 4.18154H14.9152V13.4248H11.7112ZM18.6264 8.00795L21.5768 13.4248H18.0962L15.2149 8.00795H18.6264Z" fill="#3B5998"/>
<path d="M22.5507 13.4248V1.62292H25.7548V10.8432H30.5262V13.4248H22.5507Z" fill="#3B5998"/>
<path d="M43.3213 0L44.6949 0.288492L42.0739 12.9821L40.7003 12.6936L43.3213 0ZM48.0167 6.49106L45.5008 3.90185V1.86077L50 6.49106L45.5008 11.1141V9.07306L48.0167 6.49106ZM35.3951 6.49106L39.8943 1.86077V3.90185L37.3784 6.49106L39.8943 9.07306V11.1141L35.3951 6.49106Z" fill="#3B5998"/>
</svg>
