<svg width="30" height="30" viewBox="0 0 30 30" fill="none" xmlns="http://www.w3.org/2000/svg">
<path fill-rule="evenodd" clip-rule="evenodd" d="M0 3C0 1.34315 1.34315 0 3 0H27C28.6569 0 30 1.34315 30 3V27C30 28.6569 28.6569 30 27 30H3C1.34315 30 0 28.6569 0 27V3ZM19.274 5.29961C19.4062 5.15651 19.5748 5.05905 19.7585 5.01961C19.9421 4.98016 20.1324 5.00052 20.3053 5.07808L22.9838 6.27676C23.2148 6.37969 23.3985 6.57723 23.4948 6.8261C23.5911 7.07497 23.5921 7.35489 23.4976 7.60454L22.4033 10.4952C22.3326 10.6819 22.2122 10.8417 22.0573 10.9545C21.9024 11.0673 21.72 11.128 21.5331 11.1288C21.3463 11.1297 21.1634 11.0707 21.0076 10.9594C20.8518 10.8481 20.7301 10.6894 20.6579 10.5034L20.226 9.38896L9.34852 14.4052C9.23441 14.4578 9.11182 14.4857 8.98773 14.4872C8.86364 14.4887 8.7405 14.4639 8.62532 14.414C8.51014 14.3642 8.40518 14.2903 8.31645 14.1967C8.22771 14.1031 8.15693 13.9915 8.10815 13.8684C8.05937 13.7452 8.03353 13.6129 8.03213 13.479C8.03072 13.3451 8.05377 13.2122 8.09996 13.0878C8.14615 12.9635 8.21457 12.8503 8.30132 12.7545C8.38807 12.6587 8.49145 12.5823 8.60556 12.5297L19.4969 7.50805L19.0725 6.41402C18.9999 6.22764 18.9803 6.02217 19.0162 5.82373C19.052 5.62529 19.1418 5.44285 19.274 5.29961ZM11.0386 16.9233C10.8024 16.6685 10.4821 16.5253 10.1481 16.5253H8.25926C7.92528 16.5253 7.60499 16.6685 7.36883 16.9233C7.13267 17.1782 7 17.5239 7 17.8843V23.3205C7 23.5007 7.06634 23.6735 7.18441 23.801C7.30249 23.9284 7.46264 24 7.62963 24H10.7778C10.9448 24 11.1049 23.9284 11.223 23.801C11.3411 23.6735 11.4074 23.5007 11.4074 23.3205V17.8843C11.4074 17.5239 11.2747 17.1782 11.0386 16.9233ZM17.3347 14.8836C17.0984 14.6292 16.7782 14.4864 16.4444 14.4867H14.5556C14.2216 14.4867 13.9013 14.6299 13.6651 14.8848C13.429 15.1396 13.2963 15.4853 13.2963 15.8458V23.3205C13.2963 23.5007 13.3626 23.6735 13.4807 23.801C13.5988 23.9284 13.7589 24 13.9259 24H17.0741C17.2411 24 17.4012 23.9284 17.5193 23.801C17.6374 23.6735 17.7037 23.5007 17.7037 23.3205V15.8458C17.7038 15.6671 17.6713 15.4901 17.608 15.325C17.5447 15.1599 17.4518 15.0099 17.3347 14.8836ZM23.6312 12.8462C23.395 12.5913 23.0747 12.4482 22.7407 12.4482H20.8519C20.5179 12.4482 20.1976 12.5913 19.9614 12.8462C19.7253 13.1011 19.5926 13.4468 19.5926 13.8072V23.3205C19.5926 23.5007 19.6589 23.6735 19.777 23.801C19.8951 23.9284 20.0552 24 20.2222 24H23.3704C23.5374 24 23.6975 23.9284 23.8156 23.801C23.9337 23.6735 24 23.5007 24 23.3205V13.8072C24 13.4468 23.8673 13.1011 23.6312 12.8462Z" fill="#3B5998"/>
</svg>
