<svg width="30" height="30" viewBox="0 0 30 30" fill="none" xmlns="http://www.w3.org/2000/svg">
<path d="M18.1957 11.7391H12.4565C12.062 11.7391 11.7391 12.0693 11.7391 12.4728V16.875C11.7391 17.2785 12.062 17.6087 12.4565 17.6087H18.1957C18.5902 17.6087 18.913 17.2785 18.913 16.875V12.4728C18.913 12.0693 18.5902 11.7391 18.1957 11.7391ZM13.3533 12.3811C13.4246 12.3811 13.493 12.4101 13.5435 12.4617C13.5939 12.5133 13.6223 12.5833 13.6223 12.6562C13.6223 12.7292 13.5939 12.7992 13.5435 12.8508C13.493 12.9024 13.4246 12.9314 13.3533 12.9314C13.2819 12.9314 13.2135 12.9024 13.163 12.8508C13.1126 12.7992 13.0842 12.7292 13.0842 12.6562C13.0842 12.5833 13.1126 12.5133 13.163 12.4617C13.2135 12.4101 13.2819 12.3811 13.3533 12.3811ZM12.3668 12.6562C12.3668 12.5833 12.3952 12.5133 12.4456 12.4617C12.4961 12.4101 12.5645 12.3811 12.6359 12.3811C12.7072 12.3811 12.7756 12.4101 12.8261 12.4617C12.8765 12.5133 12.9049 12.5833 12.9049 12.6562C12.9049 12.7292 12.8765 12.7992 12.8261 12.8508C12.7756 12.9024 12.7072 12.9314 12.6359 12.9314C12.5645 12.9314 12.4961 12.9024 12.4456 12.8508C12.3952 12.7992 12.3668 12.7292 12.3668 12.6562ZM18.1957 16.875H12.4565V13.5734H18.1957V16.875ZM18.1957 12.8397H13.8913V12.4728H18.2025L18.1957 12.8397Z" fill="#3B5998"/>
<path d="M5.11364 0C3.75742 0 2.45674 0.538757 1.49775 1.49775C0.538757 2.45674 0 3.75742 0 5.11364V24.8864C0 26.2426 0.538757 27.5433 1.49775 28.5023C2.45674 29.4612 3.75742 30 5.11364 30H24.8864C26.2426 30 27.5433 29.4612 28.5023 28.5023C29.4612 27.5433 30 26.2426 30 24.8864V5.11364C30 3.75742 29.4612 2.45674 28.5023 1.49775C27.5433 0.538757 26.2426 0 24.8864 0H5.11364ZM2.04545 5.11364C2.04545 4.2999 2.36871 3.5195 2.9441 2.9441C3.5195 2.36871 4.2999 2.04545 5.11364 2.04545H24.8864C25.7001 2.04545 26.4805 2.36871 27.0559 2.9441C27.6313 3.5195 27.9545 4.2999 27.9545 5.11364V24.8864C27.9545 25.7001 27.6313 26.4805 27.0559 27.0559C26.4805 27.6313 25.7001 27.9545 24.8864 27.9545H5.11364C4.2999 27.9545 3.5195 27.6313 2.9441 27.0559C2.36871 26.4805 2.04545 25.7001 2.04545 24.8864V5.11364ZM7.84091 4.77273C7.02718 4.77273 6.24677 5.09598 5.67138 5.67138C5.09598 6.24677 4.77273 7.02718 4.77273 7.84091V11.9318C4.77273 12.2031 4.88048 12.4632 5.07228 12.655C5.26408 12.8468 5.52421 12.9545 5.79545 12.9545C6.0667 12.9545 6.32683 12.8468 6.51863 12.655C6.71043 12.4632 6.81818 12.2031 6.81818 11.9318V7.84091C6.81818 7.56966 6.92593 7.30953 7.11773 7.11773C7.30953 6.92593 7.56966 6.81818 7.84091 6.81818H11.9318C12.2031 6.81818 12.4632 6.71043 12.655 6.51863C12.8468 6.32683 12.9545 6.0667 12.9545 5.79545C12.9545 5.52421 12.8468 5.26408 12.655 5.07228C12.4632 4.88048 12.2031 4.77273 11.9318 4.77273H7.84091ZM18.0682 4.77273C17.7969 4.77273 17.5368 4.88048 17.345 5.07228C17.1532 5.26408 17.0455 5.52421 17.0455 5.79545C17.0455 6.0667 17.1532 6.32683 17.345 6.51863C17.5368 6.71043 17.7969 6.81818 18.0682 6.81818H22.1591C22.4303 6.81818 22.6905 6.92593 22.8823 7.11773C23.0741 7.30953 23.1818 7.56966 23.1818 7.84091V11.9318C23.1818 12.2031 23.2896 12.4632 23.4814 12.655C23.6732 12.8468 23.9333 12.9545 24.2045 12.9545C24.4758 12.9545 24.7359 12.8468 24.9277 12.655C25.1195 12.4632 25.2273 12.2031 25.2273 11.9318V7.84091C25.2273 7.02718 24.904 6.24677 24.3286 5.67138C23.7532 5.09598 22.9728 4.77273 22.1591 4.77273H18.0682ZM6.81818 18.0682C6.81818 17.7969 6.71043 17.5368 6.51863 17.345C6.32683 17.1532 6.0667 17.0455 5.79545 17.0455C5.52421 17.0455 5.26408 17.1532 5.07228 17.345C4.88048 17.5368 4.77273 17.7969 4.77273 18.0682V22.1591C4.77273 22.9728 5.09598 23.7532 5.67138 24.3286C6.24677 24.904 7.02718 25.2273 7.84091 25.2273H11.9318C12.2031 25.2273 12.4632 25.1195 12.655 24.9277C12.8468 24.7359 12.9545 24.4758 12.9545 24.2045C12.9545 23.9333 12.8468 23.6732 12.655 23.4814C12.4632 23.2896 12.2031 23.1818 11.9318 23.1818H7.84091C7.56966 23.1818 7.30953 23.0741 7.11773 22.8823C6.92593 22.6905 6.81818 22.4303 6.81818 22.1591V18.0682ZM25.2273 18.0682C25.2273 17.7969 25.1195 17.5368 24.9277 17.345C24.7359 17.1532 24.4758 17.0455 24.2045 17.0455C23.9333 17.0455 23.6732 17.1532 23.4814 17.345C23.2896 17.5368 23.1818 17.7969 23.1818 18.0682V22.1591C23.1818 22.4303 23.0741 22.6905 22.8823 22.8823C22.6905 23.0741 22.4303 23.1818 22.1591 23.1818H18.0682C17.7969 23.1818 17.5368 23.2896 17.345 23.4814C17.1532 23.6732 17.0455 23.9333 17.0455 24.2045C17.0455 24.4758 17.1532 24.7359 17.345 24.9277C17.5368 25.1195 17.7969 25.2273 18.0682 25.2273H22.1591C22.9728 25.2273 23.7532 24.904 24.3286 24.3286C24.904 23.7532 25.2273 22.9728 25.2273 22.1591V18.0682Z" fill="#3B5998"/>
</svg>
