<svg width="30" height="33" viewBox="0 0 30 33" fill="none" xmlns="http://www.w3.org/2000/svg">
<path d="M0 8.02659V0.47552C3.09163 2.06188 6.51372 2.89697 9.98855 2.913C15.6965 2.913 17.5396 0 23.901 0C25.9904 0.124551 28.0478 0.572217 30 1.32705V8.02659M30 8.02659V18.1939C30 21.1659 26.5516 21.4045 23.4008 21.4045C20.2501 21.4045 17.6435 22.7325 17.6435 25.715C17.6435 27.0606 18.525 27.3494 18.525 29.4311C18.525 31.5129 17.4199 32.5819 15 32.5819C12.5801 32.5819 11.475 31.512 11.475 29.4311C11.475 27.3503 12.3565 27.0606 12.3565 25.715C12.3565 22.7316 9.74991 21.4045 6.59915 21.4045C3.4484 21.4045 0 21.1668 0 18.1939V8.02659M0 8.02659H30H0Z" fill="#3B5998"/>
<path d="M0 6.16415H29.9401" stroke="white"/>
</svg>
