<svg width="35" height="32" viewBox="0 0 35 32" fill="none" xmlns="http://www.w3.org/2000/svg">
<path d="M21.1296 0H13.8704C13.2948 0 12.8333 0.461481 12.8333 1.03704V8.2963C12.8333 8.87185 13.2948 9.33333 13.8704 9.33333H21.1296C21.7052 9.33333 22.1667 8.87185 22.1667 8.2963V1.03704C22.1667 0.461481 21.7052 0 21.1296 0ZM15.4259 6.22222H14.6481L14.3889 5.18519L14.1296 6.22222H13.3519L13.7407 4.66667L13.3519 3.11111H14.1296L14.3889 4.14815L14.6481 3.11111H15.4259L15.037 4.66667L15.4259 6.22222ZM19.3148 6.22222H18.537V3.88889H18.0185V5.7037H17.2407V3.88889H16.7222V6.22222H15.9444V4.14815C15.9444 3.57778 16.4111 3.11111 16.9815 3.11111H18.2778C18.5528 3.11111 18.8166 3.22037 19.0111 3.41485C19.2056 3.60933 19.3148 3.87311 19.3148 4.14815V6.22222ZM21.6481 6.22222H20.0926V3.11111H20.8704V5.44444H21.6481V6.22222Z" fill="black"/>
<path fill-rule="evenodd" clip-rule="evenodd" d="M12.7273 9.54545V0H22.2727V9.54545H19.0909V14.3182H28.6364C30.4023 14.3182 31.8182 15.7341 31.8182 17.5V22.2727H35V31.8182H25.4545V22.2727H28.6364V17.5H19.0909V22.2727H22.2727V31.8182H12.7273V22.2727H15.9091V17.5H6.36364V22.2727H9.54545V31.8182H0V22.2727H3.18182V17.5C3.18182 15.7341 4.59773 14.3182 6.36364 14.3182H15.9091V9.54545H12.7273ZM14.3889 5.18519L14.6481 6.22222H15.4259L15.037 4.66667L15.4259 3.11111H14.6481L14.3889 4.14815L14.1296 3.11111H13.3519L13.7407 4.66667L13.3519 6.22222H14.1296L14.3889 5.18519ZM19.3148 6.22222H18.537V3.88889H18.0185V5.7037H17.2407V3.88889H16.7222V6.22222H15.9444V4.14815C15.9444 3.57778 16.4111 3.11111 16.9815 3.11111H18.2778C18.5528 3.11111 18.8166 3.22037 19.0111 3.41485C19.2056 3.60933 19.3148 3.87311 19.3148 4.14815V6.22222ZM20.8704 3.11111H20.0926V6.22222H21.6481V5.44444H20.8704V3.11111Z" fill="#3B5998"/>
</svg>
